<?xml version="1.0" encoding="UTF-8" standalone="no"?>
<svg
   viewBox="0 0 64 64"
   version="1.1"
   id="svg12"
   sodipodi:docname="folder-Pop_OS.svg"
   inkscape:version="1.2.1 (9c6d41e410, 2022-07-14)"
   xmlns:inkscape="http://www.inkscape.org/namespaces/inkscape"
   xmlns:sodipodi="http://sodipodi.sourceforge.net/DTD/sodipodi-0.dtd"
   xmlns:xlink="http://www.w3.org/1999/xlink"
   xmlns="http://www.w3.org/2000/svg"
   xmlns:svg="http://www.w3.org/2000/svg"
   xmlns:rdf="http://www.w3.org/1999/02/22-rdf-syntax-ns#"
   xmlns:cc="http://creativecommons.org/ns#"
   xmlns:dc="http://purl.org/dc/elements/1.1/">
  <metadata
     id="metadata16">
    <rdf:RDF>
      <cc:Work
         rdf:about="">
        <dc:format>image/svg+xml</dc:format>
        <dc:type
           rdf:resource="http://purl.org/dc/dcmitype/StillImage" />
      </cc:Work>
    </rdf:RDF>
  </metadata>
  <sodipodi:namedview
     pagecolor="#ffffff"
     bordercolor="#666666"
     borderopacity="1"
     objecttolerance="10"
     gridtolerance="10"
     guidetolerance="10"
     inkscape:pageopacity="0"
     inkscape:pageshadow="2"
     inkscape:window-width="1920"
     inkscape:window-height="1004"
     id="namedview14"
     showgrid="true"
     inkscape:zoom="10.429825"
     inkscape:cx="17.977291"
     inkscape:cy="36.194279"
     inkscape:window-x="0"
     inkscape:window-y="0"
     inkscape:window-maximized="1"
     inkscape:current-layer="svg12"
     inkscape:document-rotation="0"
     inkscape:showpageshadow="2"
     inkscape:pagecheckerboard="0"
     inkscape:deskcolor="#d1d1d1">
    <inkscape:grid
       type="xygrid"
       id="grid8613" />
  </sodipodi:namedview>
  <defs
     id="defs3051">
    <style
       type="text/css"
       id="current-color-scheme">.ColorScheme-Text { color:#31363b; }
.ColorScheme-Background { color:#eff0f1; }
.ColorScheme-Highlight { color:#3daee9; }
.ColorScheme-ViewText { color:#31363b; }
.ColorScheme-ViewBackground { color:#fcfcfc; }
.ColorScheme-ViewHover { color:#93cee9; }
.ColorScheme-ViewFocus { color:#3daee9; }
.ColorScheme-ButtonText { color:#31363b; }
.ColorScheme-ButtonBackground { color:#eff0f1; }
.ColorScheme-ButtonHover { color:#93cee9; }
.ColorScheme-ButtonFocus { color:#3daee9; }
</style>
    <linearGradient
       inkscape:collect="always"
       xlink:href="#linearGradient886"
       id="linearGradient888"
       x1="75.75985"
       y1="208.49026"
       x2="91.646347"
       y2="264.21182"
       gradientUnits="userSpaceOnUse"
       gradientTransform="matrix(0.7314896,0,0,0.72862121,-27.03835,-142.51033)" />
    <linearGradient
       inkscape:collect="always"
       id="linearGradient886">
      <stop
         style="stop-color:#36a2b0;stop-opacity:1;"
         offset="0"
         id="stop882" />
      <stop
         style="stop-color:#87d1da;stop-opacity:1;"
         offset="0.48468637"
         id="stop1402" />
      <stop
         style="stop-color:#2f909d;stop-opacity:1;"
         offset="1"
         id="stop884" />
    </linearGradient>
    <filter
       inkscape:collect="always"
       style="color-interpolation-filters:sRGB"
       id="filter1881"
       x="-0.09064882"
       width="1.1812976"
       y="-0.40803665"
       height="1.8160733">
      <feGaussianBlur
         inkscape:collect="always"
         stdDeviation="0.85615684"
         id="feGaussianBlur1883" />
    </filter>
    <inkscape:path-effect
       effect="fillet_chamfer"
       id="path-effect1331"
       is_visible="true"
       lpeversion="1"
       satellites_param="F,0,0,1,0,2.1166667,0,1 @ F,0,0,1,0,2.1166667,0,1 @ F,0,0,1,0,2.1166667,0,1 @ F,0,0,1,0,2.1166667,0,1"
       unit="px"
       method="arc"
       mode="F"
       radius="8"
       chamfer_steps="1"
       flexible="false"
       use_knot_distance="true"
       apply_no_radius="true"
       apply_with_radius="true"
       only_selected="false"
       hide_knots="false"
       nodesatellites_param="F,0,0,1,0,2.1166667,0,1 @ F,0,0,1,0,2.1166667,0,1 @ F,0,0,1,0,2.1166667,0,1 @ F,0,0,1,0,2.1166667,0,1" />
    <linearGradient
       inkscape:collect="always"
       xlink:href="#linearGradient852"
       id="linearGradient854-7"
       x1="76.788559"
       y1="222.65123"
       x2="92.097359"
       y2="268.94839"
       gradientUnits="userSpaceOnUse"
       gradientTransform="matrix(0.7314896,0,0,0.72862121,-27.07699,-142.51033)" />
    <linearGradient
       inkscape:collect="always"
       id="linearGradient852">
      <stop
         style="stop-color:#7dced8;stop-opacity:1;"
         offset="0"
         id="stop848" />
      <stop
         style="stop-color:#349daa;stop-opacity:1;"
         offset="1"
         id="stop850" />
    </linearGradient>
    <linearGradient
       inkscape:collect="always"
       xlink:href="#linearGradient4393"
       id="linearGradient668"
       gradientUnits="userSpaceOnUse"
       gradientTransform="matrix(3.6204685,0,0,3.4670854,3.00004,-3596.8227)"
       x1="5"
       y1="1037.3622"
       x2="8"
       y2="1051.3622" />
    <linearGradient
       inkscape:collect="always"
       id="linearGradient4393">
      <stop
         style="stop-color:#000000;stop-opacity:1;"
         offset="0"
         id="stop4395" />
      <stop
         style="stop-color:#000000;stop-opacity:0;"
         offset="1"
         id="stop4397" />
    </linearGradient>
  </defs>
  <path
     id="rect10"
     style="fill:url(#linearGradient888);fill-opacity:1;stroke-width:0.119494"
     d="M 6.09675,9.4 C 4.38635,9.4 3,10.78103 3,12.48455 v 3.039 36.01029 c 0,1.70346 1.38635,3.08458 3.09675,3.08458 h 51.80669 c 1.7102,0 3.09648,-1.38111 3.09648,-3.08458 l -0.005,-32.68748 c -0.1316,-1.68954 0.0653,-5.59073 -5.7405,-5.59073 H 28.90739 c 0.0242,0 -1.90964,-1.73503 -3.63108,-2.76927 C 23.90107,9.59262 22.04293,9.4 22.04293,9.4 Z"
     sodipodi:nodetypes="scccscccccccs" />
  <path
     style="opacity:0.309598;fill:#000000;fill-opacity:1;stroke:none;stroke-width:0.144851;stroke-opacity:1;filter:url(#filter1881)"
     id="rect873"
     width="22.667437"
     height="5.0357642"
     x="46.507095"
     y="222.89639"
     transform="matrix(1.05206,0,0,1.4052333,-43.68288,-292.95827)"
     inkscape:path-effect="#path-effect1331"
     d="m 48.623762,222.89639 h 18.434103 a 2.1166667,2.1166667 45 0 1 2.116667,2.11667 v 0.80243 a 2.1166667,2.1166667 135 0 1 -2.116667,2.11667 l -18.434103,0 a 2.1166667,2.1166667 45 0 1 -2.116667,-2.11667 v -0.80243 a 2.1166667,2.1166667 135 0 1 2.116667,-2.11667 z"
     sodipodi:type="rect" />
  <path
     id="rect851"
     style="fill:#35a1ae;fill-opacity:1;stroke-width:0.193144"
     d="m 28.84816,16.55348 v 3.05695 h -7.22158 c 3.56696,-0.009 4.52492,-1.0483 7.22158,-3.05695 z m 0,0 h 28.90903 c 1.70351,-0.008 3.23617,1.36199 3.24272,3.05695 H 28.84816 Z M 6.09694,19.61043 h 54.90298 v 30.96333 c 0,1.70172 -1.38628,3.08114 -3.09648,3.08114 H 6.09694 c -1.7104,0 -3.09675,-1.37942 -3.09675,-3.08114 v -27.882 c 0,-1.70181 1.38635,-3.08133 3.09675,-3.08133 z"
     sodipodi:nodetypes="cccccccccccccsccc" />
  <path
     id="rect851-3"
     style="fill:url(#linearGradient854-7);fill-opacity:1;stroke-width:0.193226"
     d="m 29.20745,17.77076 -0.0784,3.19607 -7.14189,-0.13585 c 3.56704,-0.009 4.52481,-1.04952 7.22143,-3.06022 z m 0,0 h 28.69603 c 1.70347,-0.008 3.0899,1.36335 3.09651,3.06022 L 29.1279,20.96683 Z M 6.09699,20.83098 H 61 V 50.5751 c 0,1.70361 -1.3863,3.08458 -3.09652,3.08457 H 6.09699 C 4.38657,53.65968 3.00022,52.27871 3.00022,50.5751 V 23.9156 c 0,-1.70354 1.38635,-3.08462 3.09677,-3.08462 z"
     sodipodi:nodetypes="cccccccccccsccssc" />
  <path
     style="opacity:0.181;fill:url(#linearGradient668);fill-opacity:1;fill-rule:evenodd;stroke:none;stroke-width:3.54294px;stroke-linecap:butt;stroke-linejoin:miter;stroke-opacity:1"
     d="M 6,20.8 31.96374,48.33972 H 60.92748 L 60.99998,20.8 H 6.05878 Z"
     id="path4152-2"
     inkscape:connector-curvature="0"
     sodipodi:nodetypes="cccccc" />
  <rect
     style="fill:#ffffff;fill-opacity:0.25;stroke:#e5e9ef;stroke-width:0.580474;stroke-opacity:0.5;paint-order:markers fill stroke"
     id="rect2191"
     width="57.5"
     height="7.2964485e-07"
     x="3.25"
     y="47.690235" />
  <rect
     style="fill:#ffffff;fill-opacity:0.5;stroke:#e5e9ef;stroke-width:0.580474;stroke-opacity:0.5;paint-order:markers fill stroke"
     id="rect2191-0-9"
     width="57.5"
     height="7.2964485e-07"
     x="3.25"
     y="50.690235" />
  <path
     style="fill:#ffffff;fill-opacity:1;stroke-width:0.0262629"
     id="path2-3-2-2-7-0-9"
     d="m 42.5679,37.538752 c -0.0494,0.209704 -0.1559,0.395523 -0.33777,0.512327 -0.2858,0.183158 -0.63397,0.130102 -0.8808,-0.09294 -0.23125,-0.207057 -0.30921,-0.55747 -0.23645,-0.860092 0.0754,-0.315898 0.31439,-0.594631 0.62098,-0.682222 0.68333,-0.193787 0.96656,0.565418 0.83404,1.122888 z m -0.41832,-2.155536 c -0.42352,-0.172546 -0.27801,-2.442206 0.10913,-5.197678 0.10912,-0.769829 0.29621,-1.133514 0.50666,-1.319335 0.30139,-0.262807 0.84964,-0.273423 1.22119,-0.217677 0.4261,0.0637 0.83404,0.265456 1.14323,0.570727 0.27282,0.270773 0.30399,0.546859 0.21045,0.905219 -0.15328,0.570748 -0.41572,1.117591 -0.66775,1.651157 -0.0597,0.130104 -0.58201,1.141477 -0.65217,1.266236 -1.26015,2.267021 -1.51218,2.487357 -1.87074,2.341351 z" />
  <path
     style="fill:#ffffff;fill-opacity:1;stroke-width:0.0262629"
     id="path4-3-6-0-8-3-7"
     d="m 33.601321,34.361201 c 0.24943,1.088393 0.223429,2.282942 0.01102,3.143033 -0.20007,0.812313 -0.7431,1.539656 -1.605723,1.783877 -0.756092,0.215021 -1.636902,0.05837 -2.17734,-0.472511 -0.888603,-0.870714 -1.408258,-2.914741 -1.177011,-4.398653 0.187072,-1.191903 0.81585,-2.718296 2.195527,-2.784659 0.08827,-0.0055 0.176683,-0.0017 0.26502,0.0055 1.405659,0.130096 2.172147,1.340567 2.489135,2.723608 z m -2.541109,2.476728 c 0.07801,0.01333 0.155888,0.01333 0.233849,-0.0112 0.262411,-0.07694 0.413118,-0.35572 0.483282,-0.626486 0.106508,-0.411466 0.09101,-0.854779 -0.04667,-1.258277 -0.07016,-0.204404 -0.174087,-0.403498 -0.332585,-0.552156 -0.558615,-0.52295 -1.11725,0.02121 -1.213374,0.639757 -0.07544,0.483141 0.03367,1.043257 0.329977,1.433482 0.13769,0.180509 0.335175,0.337127 0.545622,0.374299 z" />
  <path
     style="fill:#ffffff;fill-opacity:1;stroke-width:0.0262629"
     id="path6-6-1-2-6-6-3"
     d="m 36.643874,36.668041 c -0.0017,2.00953 0.194866,3.546527 -0.670354,3.729708 -0.701529,0.145964 -0.678135,-0.483147 -0.732712,-1.011421 -0.207846,-2.046686 -0.397535,-5.44721 -0.478079,-7.504514 0.05719,-0.883971 0.63658,-1.425518 1.239372,-1.558238 0.930179,-0.204407 1.922719,-0.145987 2.746359,0.374295 1.62911,1.029981 1.75903,2.920037 0.77169,4.462359 -0.54044,0.841503 -2.17475,1.452065 -2.876276,1.398974 z m 0.207856,-4.504846 c -0.101389,0.01599 -0.267623,0.06369 -0.314385,0.164594 -0.111688,0.236255 -0.104004,1.736109 0.09101,2.365236 0.03125,0.103534 0.101309,0.20175 0.202665,0.238928 0.36895,0.137994 0.70153,-0.323869 0.85222,-0.602609 0.21047,-0.387568 0.27802,-0.844148 0.14548,-1.268894 -0.12469,-0.395528 -0.51185,-0.968912 -0.97695,-0.897255 z" />
  <path
     style="fill:#ffffff;fill-opacity:1;stroke-width:0.0262629"
     id="path8-7-8-3-8-1-6"
     d="m 27.326515,33.161326 c -0.610585,1.319341 -1.623909,2.367896 -3.026971,2.885539 0.402738,1.075107 0.813257,2.136947 1.213393,3.209408 0.223448,0.578681 0.436511,1.21313 0.241629,1.783877 -0.202668,0.583999 -0.99252,0.745932 -1.566745,0.124738 -1.104249,-1.199879 -4.837968,-8.802622 -5.113378,-9.37335 -0.233842,-0.491099 -0.584606,-1.016705 -0.574217,-1.584787 0.01824,-0.854783 1.312129,-1.720181 1.933115,-2.163491 0.867816,-0.618518 1.870739,-1.040602 2.943824,-1.04326 0.836635,0 1.551167,0.233608 2.185133,0.647716 0.971764,0.637107 1.647309,1.653823 1.896743,2.803255 0.218236,1.011381 0.171483,2.046687 -0.132489,2.710333 m -2.845105,-1.444097 c -0.218248,-0.809653 -0.71192,-1.555585 -1.332917,-2.078545 -0.135128,-0.114124 -0.280611,-0.220323 -0.449499,-0.278719 -1.16401,-0.390224 -0.659948,1.59806 -0.47028,2.099773 0.262433,0.703461 0.659958,1.592741 1.192612,2.123676 0.116982,0.116885 0.25463,0.220315 0.413117,0.252175 0.24163,0.05036 0.46508,-0.122138 0.587205,-0.323867 0.10138,-0.167233 0.140255,-0.366321 0.163685,-0.560098 0.04425,-0.411469 0.0055,-0.830897 -0.104002,-1.234395 z" />
  <path
     style="fill:#000000;fill-opacity:1;stroke-width:0.0262629"
     id="path10-5-7-7-8-0-1"
     d="m 41.24631,43.266592 c -0.005,1.165355 -0.70153,2.330733 -2.2371,2.330733 -1.53557,0 -2.250094,-1.146792 -2.250094,-2.317469 0,-1.460029 0.995124,-2.36258 2.281254,-2.36258 1.49141,0.01332 2.21894,1.144121 2.20594,2.349316 z m -2.20594,-1.613994 c -0.96394,0 -1.50438,0.684895 -1.50958,1.61929 0,0.812303 0.44432,1.574189 1.4914,1.574189 1.04711,0 1.44723,-0.825583 1.44723,-1.58215 0.013,-0.785749 -0.39492,-1.592745 -1.42905,-1.611329 z m 2.8503,3.347436 c 0,0.172547 0.005,-0.820265 0,-0.971566 h 0.70673 l 0.0494,0.607884 c 0.23124,0.135439 0.5898,0.236265 0.88341,0.236265 0.54563,0 1.11465,-0.140731 1.11465,-0.684893 -0.0182,-0.493738 -0.65217,-0.594624 -1.16403,-0.647698 -0.8704,-0.09035 -1.57194,-0.307952 -1.57194,-1.306068 0,-0.88928 0.98474,-1.33261 1.71746,-1.33261 0.5898,-0.01329 1.00812,0.08222 1.54075,0.517641 0,0.358367 -0.005,0.570748 -0.005,0.929115 h -0.68313 l -0.0442,-0.58933 c -0.2754,-0.135427 -0.55861,-0.172533 -0.77686,-0.167239 -0.47029,0.0055 -0.97175,0.230972 -0.97175,0.634447 0,0.395544 0.32478,0.504393 0.9016,0.589315 0.94056,0.12751 1.84736,0.345118 1.84736,1.369789 -0.006,1.12023 -1.0341,1.414898 -1.91752,1.414898 -0.67295,0.0017 -1.09386,-0.12474 -1.62651,-0.59995 z"
     inkscape:connector-curvature="0" />
  <path
     style="fill:#fde1b4;fill-opacity:1;stroke-width:0.0352932"
     id="path12-9-5-4-6-2"
     d="m 35.616221,45.520644 c 0,0.26555 -0.223926,0.479355 -0.502037,0.479355 h -5.80415 c -0.27811,0 -0.502034,-0.213805 -0.502034,-0.479355 v -0.04128 C 28.808,45.213821 29.031924,45 29.310034,45 h 5.80415 c 0.278111,0 0.502037,0.213821 0.502037,0.479364 z"
     inkscape:connector-curvature="0" />
</svg>
