<?xml version="1.0" encoding="UTF-8" standalone="no"?>
<svg
   width="64"
   version="1.1"
   height="64"
   id="svg15"
   sodipodi:docname="folder-projects.svg"
   inkscape:version="1.2.1 (9c6d41e410, 2022-07-14)"
   xmlns:inkscape="http://www.inkscape.org/namespaces/inkscape"
   xmlns:sodipodi="http://sodipodi.sourceforge.net/DTD/sodipodi-0.dtd"
   xmlns:xlink="http://www.w3.org/1999/xlink"
   xmlns="http://www.w3.org/2000/svg"
   xmlns:svg="http://www.w3.org/2000/svg"
   xmlns:rdf="http://www.w3.org/1999/02/22-rdf-syntax-ns#"
   xmlns:cc="http://creativecommons.org/ns#"
   xmlns:dc="http://purl.org/dc/elements/1.1/">
  <style
     id="current-color-scheme"
     type="text/css">.ColorScheme-Text {
    color:#ffffff;
}
.ColorScheme-ButtonHover { color:#87cdde; }
.ColorScheme-Highlight { color:#00aad4; }
</style>
  <sodipodi:namedview
     pagecolor="#ffffff"
     bordercolor="#666666"
     borderopacity="1"
     objecttolerance="10"
     gridtolerance="10"
     guidetolerance="10"
     inkscape:pageopacity="0"
     inkscape:pageshadow="2"
     inkscape:window-width="1920"
     inkscape:window-height="1004"
     id="namedview17"
     showgrid="true"
     inkscape:zoom="9.8125"
     inkscape:cx="33.528662"
     inkscape:cy="35.10828"
     inkscape:window-x="0"
     inkscape:window-y="0"
     inkscape:window-maximized="1"
     inkscape:current-layer="layer1"
     inkscape:pagecheckerboard="0"
     inkscape:showpageshadow="2"
     inkscape:deskcolor="#d1d1d1">
    <inkscape:grid
       type="xygrid"
       id="grid988" />
  </sodipodi:namedview>
  <defs
     id="defs5455">
    <linearGradient
       id="linearGradient4194">
      <stop
         style="stop-color:#b5006a"
         id="stop4196" />
      <stop
         offset="1"
         style="stop-color:#c70073"
         id="stop4198" />
    </linearGradient>
    <linearGradient
       inkscape:collect="always"
       xlink:href="#linearGradient848"
       id="linearGradient854"
       gradientUnits="userSpaceOnUse"
       x1="203.3689"
       y1="55.640129"
       x2="244.86897"
       y2="55.640129" />
    <linearGradient
       inkscape:collect="always"
       id="linearGradient848">
      <stop
         style="stop-color:#4b8bd4;stop-opacity:1"
         offset="0"
         id="stop844" />
      <stop
         style="stop-color:#3b6ca7;stop-opacity:1"
         offset="1"
         id="stop846" />
    </linearGradient>
    <linearGradient
       inkscape:collect="always"
       xlink:href="#linearGradient848"
       id="linearGradient1004"
       gradientUnits="userSpaceOnUse"
       x1="387.57144"
       y1="505.798"
       x2="445.57141"
       y2="505.798"
       gradientTransform="matrix(1.3888828,0,0,1,-172.49732,0)" />
    <inkscape:path-effect
       effect="fillet_chamfer"
       id="path-effect1331"
       is_visible="true"
       lpeversion="1"
       satellites_param="F,0,0,1,0,2.1166667,0,1 @ F,0,0,1,0,2.1166667,0,1 @ F,0,0,1,0,2.1166667,0,1 @ F,0,0,1,0,2.1166667,0,1"
       unit="px"
       method="arc"
       mode="F"
       radius="8"
       chamfer_steps="1"
       flexible="false"
       use_knot_distance="true"
       apply_no_radius="true"
       apply_with_radius="true"
       only_selected="false"
       hide_knots="false"
       nodesatellites_param="F,0,0,1,0,2.1166667,0,1 @ F,0,0,1,0,2.1166667,0,1 @ F,0,0,1,0,2.1166667,0,1 @ F,0,0,1,0,2.1166667,0,1" />
    <inkscape:path-effect
       effect="fillet_chamfer"
       id="path-effect1674"
       is_visible="true"
       lpeversion="1"
       satellites_param="F,0,0,1,0,1.8520833,0,1 @ F,0,0,1,0,1.8520833,0,1 @ F,0,0,1,0,1.8520833,0,1 @ F,0,0,1,0,1.8520833,0,1"
       unit="px"
       method="auto"
       mode="F"
       radius="7"
       chamfer_steps="1"
       flexible="false"
       use_knot_distance="true"
       apply_no_radius="true"
       apply_with_radius="true"
       only_selected="false"
       hide_knots="false"
       nodesatellites_param="F,0,0,1,0,1.8520833,0,1 @ F,0,0,1,0,1.8520833,0,1 @ F,0,0,1,0,1.8520833,0,1 @ F,0,0,1,0,1.8520833,0,1" />
    <inkscape:path-effect
       effect="fillet_chamfer"
       id="path-effect1532"
       is_visible="true"
       lpeversion="1"
       satellites_param="F,0,0,1,0,1.8520833,0,1 @ F,0,0,1,0,1.8520833,0,1 @ F,0,0,1,0,1.8520833,0,1 @ F,0,0,1,0,1.8520833,0,1"
       unit="px"
       method="auto"
       mode="F"
       radius="7"
       chamfer_steps="1"
       flexible="false"
       use_knot_distance="true"
       apply_no_radius="true"
       apply_with_radius="true"
       only_selected="false"
       hide_knots="false"
       nodesatellites_param="F,0,0,1,0,1.8520833,0,1 @ F,0,0,1,0,1.8520833,0,1 @ F,0,0,1,0,1.8520833,0,1 @ F,0,0,1,0,1.8520833,0,1" />
    <inkscape:path-effect
       effect="fillet_chamfer"
       id="path-effect1532-5"
       is_visible="true"
       lpeversion="1"
       satellites_param="F,0,0,1,0,1.8520833,0,1 @ F,0,0,1,0,1.8520833,0,1 @ F,0,0,1,0,1.8520833,0,1 @ F,0,0,1,0,1.8520833,0,1"
       unit="px"
       method="auto"
       mode="F"
       radius="7"
       chamfer_steps="1"
       flexible="false"
       use_knot_distance="true"
       apply_no_radius="true"
       apply_with_radius="true"
       only_selected="false"
       hide_knots="false"
       nodesatellites_param="F,0,0,1,0,1.8520833,0,1 @ F,0,0,1,0,1.8520833,0,1 @ F,0,0,1,0,1.8520833,0,1 @ F,0,0,1,0,1.8520833,0,1" />
    <inkscape:path-effect
       effect="fillet_chamfer"
       id="path-effect1331-7"
       is_visible="true"
       lpeversion="1"
       satellites_param="F,0,0,1,0,2.1166667,0,1 @ F,0,0,1,0,2.1166667,0,1 @ F,0,0,1,0,2.1166667,0,1 @ F,0,0,1,0,2.1166667,0,1"
       unit="px"
       method="arc"
       mode="F"
       radius="8"
       chamfer_steps="1"
       flexible="false"
       use_knot_distance="true"
       apply_no_radius="true"
       apply_with_radius="true"
       only_selected="false"
       hide_knots="false"
       nodesatellites_param="F,0,0,1,0,2.1166667,0,1 @ F,0,0,1,0,2.1166667,0,1 @ F,0,0,1,0,2.1166667,0,1 @ F,0,0,1,0,2.1166667,0,1" />
    <inkscape:path-effect
       effect="fillet_chamfer"
       id="path-effect1331-3"
       is_visible="true"
       lpeversion="1"
       satellites_param="F,0,0,1,0,2.1166667,0,1 @ F,0,0,1,0,2.1166667,0,1 @ F,0,0,1,0,2.1166667,0,1 @ F,0,0,1,0,2.1166667,0,1"
       unit="px"
       method="arc"
       mode="F"
       radius="8"
       chamfer_steps="1"
       flexible="false"
       use_knot_distance="true"
       apply_no_radius="true"
       apply_with_radius="true"
       only_selected="false"
       hide_knots="false"
       nodesatellites_param="F,0,0,1,0,2.1166667,0,1 @ F,0,0,1,0,2.1166667,0,1 @ F,0,0,1,0,2.1166667,0,1 @ F,0,0,1,0,2.1166667,0,1" />
    <inkscape:path-effect
       effect="fillet_chamfer"
       id="path-effect1331-5"
       is_visible="true"
       lpeversion="1"
       satellites_param="F,0,0,1,0,2.1166667,0,1 @ F,0,0,1,0,2.1166667,0,1 @ F,0,0,1,0,2.1166667,0,1 @ F,0,0,1,0,2.1166667,0,1"
       unit="px"
       method="arc"
       mode="F"
       radius="8"
       chamfer_steps="1"
       flexible="false"
       use_knot_distance="true"
       apply_no_radius="true"
       apply_with_radius="true"
       only_selected="false"
       hide_knots="false"
       nodesatellites_param="F,0,0,1,0,2.1166667,0,1 @ F,0,0,1,0,2.1166667,0,1 @ F,0,0,1,0,2.1166667,0,1 @ F,0,0,1,0,2.1166667,0,1" />
    <filter
       style="color-interpolation-filters:sRGB"
       inkscape:label="Drop Shadow"
       id="filter4776-3-2"
       x="-0.10445243"
       y="-0.10445242"
       width="1.2386857"
       height="1.2325768">
      <feFlood
         flood-opacity="0.498039"
         flood-color="rgb(0,0,0)"
         result="flood"
         id="feFlood4766-7-0" />
      <feComposite
         in="flood"
         in2="SourceGraphic"
         operator="in"
         result="composite1"
         id="feComposite4768-4-2" />
      <feGaussianBlur
         in="composite1"
         stdDeviation="5.69948"
         result="blur"
         id="feGaussianBlur4770-5-3" />
      <feOffset
         dx="3.9"
         dy="3.1"
         result="offset"
         id="feOffset4772-2-7" />
      <feComposite
         in="SourceGraphic"
         in2="offset"
         operator="over"
         result="composite2"
         id="feComposite4774-5-5" />
    </filter>
    <inkscape:path-effect
       effect="fillet_chamfer"
       id="path-effect1331-35"
       is_visible="true"
       lpeversion="1"
       satellites_param="F,0,0,1,0,2.1166667,0,1 @ F,0,0,1,0,2.1166667,0,1 @ F,0,0,1,0,2.1166667,0,1 @ F,0,0,1,0,2.1166667,0,1"
       unit="px"
       method="arc"
       mode="F"
       radius="8"
       chamfer_steps="1"
       flexible="false"
       use_knot_distance="true"
       apply_no_radius="true"
       apply_with_radius="true"
       only_selected="false"
       hide_knots="false"
       nodesatellites_param="F,0,0,1,0,2.1166667,0,1 @ F,0,0,1,0,2.1166667,0,1 @ F,0,0,1,0,2.1166667,0,1 @ F,0,0,1,0,2.1166667,0,1" />
    <linearGradient
       inkscape:collect="always"
       xlink:href="#linearGradient886"
       id="linearGradient888-3"
       x1="75.75985"
       y1="208.49026"
       x2="91.646347"
       y2="264.21182"
       gradientUnits="userSpaceOnUse"
       gradientTransform="matrix(0.73148862,0,0,0.72861443,357.53314,341.28911)" />
    <linearGradient
       inkscape:collect="always"
       id="linearGradient886">
      <stop
         style="stop-color:#c6afe9;stop-opacity:1"
         offset="0"
         id="stop882" />
      <stop
         style="stop-color:#c6afe9;stop-opacity:1;"
         offset="0.48468637"
         id="stop1402" />
      <stop
         style="stop-color:#00aad4;stop-opacity:1"
         offset="1"
         id="stop884" />
    </linearGradient>
    <filter
       inkscape:collect="always"
       style="color-interpolation-filters:sRGB"
       id="filter1881-6"
       x="-0.090648818"
       width="1.1812976"
       y="-0.40803619"
       height="1.8160724">
      <feGaussianBlur
         inkscape:collect="always"
         stdDeviation="0.85615684"
         id="feGaussianBlur1883-7" />
    </filter>
    <inkscape:path-effect
       effect="fillet_chamfer"
       id="path-effect1331-36"
       is_visible="true"
       lpeversion="1"
       satellites_param="F,0,0,1,0,2.1166667,0,1 @ F,0,0,1,0,2.1166667,0,1 @ F,0,0,1,0,2.1166667,0,1 @ F,0,0,1,0,2.1166667,0,1"
       unit="px"
       method="arc"
       mode="F"
       radius="8"
       chamfer_steps="1"
       flexible="false"
       use_knot_distance="true"
       apply_no_radius="true"
       apply_with_radius="true"
       only_selected="false"
       hide_knots="false"
       nodesatellites_param="F,0,0,1,0,2.1166667,0,1 @ F,0,0,1,0,2.1166667,0,1 @ F,0,0,1,0,2.1166667,0,1 @ F,0,0,1,0,2.1166667,0,1" />
    <linearGradient
       inkscape:collect="always"
       xlink:href="#linearGradient1016"
       id="linearGradient854-7-5"
       x1="56.250744"
       y1="208.49011"
       x2="92.097359"
       y2="268.94839"
       gradientUnits="userSpaceOnUse"
       gradientTransform="matrix(0.73148862,0,0,0.72861443,357.49448,341.28911)" />
    <linearGradient
       inkscape:collect="always"
       id="linearGradient1016">
      <stop
         style="stop-color:#ffe680;stop-opacity:1"
         offset="0"
         id="stop1008" />
      <stop
         style="stop-color:#aa87de;stop-opacity:1"
         offset="0.12825146"
         id="stop1010" />
      <stop
         style="stop-color:#ffaacc;stop-opacity:1"
         offset="0.5218882"
         id="stop1012" />
      <stop
         style="stop-color:#00ccff;stop-opacity:1"
         offset="1"
         id="stop1014" />
    </linearGradient>
    <linearGradient
       inkscape:collect="always"
       xlink:href="#linearGradient4393-3"
       id="linearGradient668-3"
       gradientUnits="userSpaceOnUse"
       gradientTransform="matrix(3.6204636,0,0,3.4670531,387.57159,-3112.9913)"
       x1="5"
       y1="1037.3622"
       x2="8"
       y2="1051.3622" />
    <linearGradient
       inkscape:collect="always"
       id="linearGradient4393-3">
      <stop
         style="stop-color:#ffe680;stop-opacity:1"
         offset="0"
         id="stop4395-5" />
      <stop
         style="stop-color:#000000;stop-opacity:0;"
         offset="1"
         id="stop4397-6" />
    </linearGradient>
  </defs>
  <metadata
     id="metadata5458">
    <rdf:RDF>
      <cc:Work
         rdf:about="">
        <dc:format>image/svg+xml</dc:format>
        <dc:type
           rdf:resource="http://purl.org/dc/dcmitype/StillImage" />
      </cc:Work>
    </rdf:RDF>
  </metadata>
  <g
     inkscape:label="Capa 1"
     inkscape:groupmode="layer"
     id="layer1"
     transform="translate(-384.57143,-483.798)">
    <path
       id="rect10-2"
       style="fill:url(#linearGradient888-3);fill-opacity:1;stroke-width:0.119493"
       d="m 390.66817,493.198 c -1.71039,0 -3.09674,1.38102 -3.09674,3.08452 v 3.03896 36.00997 c 0,1.70344 1.38635,3.08455 3.09674,3.08455 h 51.80662 c 1.71019,0 3.09647,-1.38111 3.09647,-3.08455 l -0.004,-32.68718 c -0.13153,-1.68951 0.0652,-5.59068 -5.74049,-5.59068 H 413.4798 c 0.0242,0 -1.90965,-1.73502 -3.63109,-2.76924 -1.37527,-0.89376 -3.2334,-1.08635 -3.2334,-1.08635 z"
       sodipodi:nodetypes="scccscccccccs" />
    <path
       style="opacity:0.309598;fill:#000000;fill-opacity:1;stroke:none;stroke-width:0.144851;stroke-opacity:1;filter:url(#filter1881-6)"
       id="rect873-9"
       width="22.667437"
       height="5.0357642"
       x="46.507095"
       y="222.89639"
       transform="matrix(1.0520586,0,0,1.4052201,340.88862,190.84255)"
       inkscape:path-effect="#path-effect1331-36"
       d="m 48.623762,222.89639 h 18.434103 a 2.1166667,2.1166667 45 0 1 2.116667,2.11667 v 0.80243 a 2.1166667,2.1166667 135 0 1 -2.116667,2.11667 l -18.434103,0 a 2.1166667,2.1166667 45 0 1 -2.116667,-2.11667 v -0.80243 a 2.1166667,2.1166667 135 0 1 2.116667,-2.11667 z"
       sodipodi:type="rect" />
    <path
       id="rect851-1"
       style="fill:#ff9ac2;fill-opacity:1;stroke-width:0.193143"
       d="m 413.41957,500.35141 v 3.05691 h -7.22159 c 3.56696,-0.008 4.52492,-1.04827 7.22159,-3.05691 z m 0,0 h 28.90898 c 1.7035,-0.008 3.23617,1.36199 3.24271,3.05691 h -32.15169 z m -22.75121,3.05691 h 54.9029 v 30.96304 c 0,1.70173 -1.38628,3.08112 -3.09647,3.08112 h -51.80643 c -1.7104,0 -3.09674,-1.37939 -3.09674,-3.08112 v -27.88171 c 0,-1.7018 1.38634,-3.08133 3.09674,-3.08133 z"
       sodipodi:nodetypes="cccccccccccccsccc" />
    <path
       id="rect851-3-2"
       style="fill:url(#linearGradient854-7-5);fill-opacity:1;stroke-width:0.193226"
       d="m 413.77885,501.56868 -0.0783,3.19604 -7.14189,-0.13586 c 3.56704,-0.008 4.52481,-1.04951 7.22144,-3.06018 z m 0,0 h 28.69598 c 1.70346,-0.008 3.08989,1.36333 3.0965,3.06018 l -31.87204,0.13586 z m -23.11043,3.06018 h 54.90293 v 29.74385 c 0,1.7036 -1.38629,3.08456 -3.09652,3.08454 h -51.80641 c -1.71042,2e-5 -3.09676,-1.38094 -3.09676,-3.08454 v -26.65923 c 0,-1.70354 1.38634,-3.08462 3.09676,-3.08462 z"
       sodipodi:nodetypes="cccccccccccsccssc" />
    <rect
       style="fill:#ffffff;fill-opacity:0.987883;stroke:#e5e9ef;stroke-width:0.580473;stroke-opacity:1;paint-order:markers fill stroke"
       id="rect2191"
       width="57.499924"
       height="7.2963803e-07"
       x="387.82141"
       y="531.48773" />
    <rect
       style="fill:#ffffff;fill-opacity:0.972837;stroke:#e5e9ef;stroke-width:0.580473;stroke-opacity:1;paint-order:markers fill stroke"
       id="rect2191-0-9"
       width="57.499924"
       height="7.2963803e-07"
       x="387.82141"
       y="534.48761" />
    <path
       style="opacity:0.181;fill:url(#linearGradient668-3);fill-opacity:1;fill-rule:evenodd;stroke:none;stroke-width:3.54293px;stroke-linecap:butt;stroke-linejoin:miter;stroke-opacity:1"
       d="m 390.57154,504.59789 25.9637,27.53947 h 28.96369 l 0.0725,-27.53947 h -54.94112 z"
       id="path4152-2-5"
       inkscape:connector-curvature="0"
       sodipodi:nodetypes="cccccc" />
    <g
       id="g957"
       transform="matrix(-0.0017869,-0.03667336,0.03696,-0.00177305,401.65821,531.43751)"
       style="fill:#ffffff;fill-opacity:1">
      <path
         d="m 313.75974,484.91635 c -2.7539,-2.7461 -6.3438,-4.5078 -10.211,-4.9883 l -98.988,-12.379 c -5.3633,-0.66797 -10.727,1.1719 -14.551,4.9961 -3.8164,3.8125 -5.6523,9.1875 -4.9883,14.543 l 12.375,98.996 c 0.48047,3.8594 2.2383,7.4453 4.9961,10.203 l 216.56,216.56 c 30.746,30.746 80.594,30.746 111.34,0 l 0.008,-0.0117 c 14.77,-14.77 23.062,-34.797 23.062,-55.684 0,-20.887 -8.293,-40.914 -23.062,-55.684 -73.922,-73.93 -216.55,-216.55 -216.55,-216.55 z m 197.37,248.11 c 4.6875,7.0977 7.2422,15.48 7.2422,24.125 0,11.602 -4.6016,22.734 -12.809,30.934 -0.008,0.008 -0.008,0.008 -0.0156,0.0156 -14.965,14.96099 -38.074,16.816 -55.055,5.5547 z m -271.62,-149.12 185.61,185.61 18.566,-18.559 -185.61,-185.62 z m 43.312,-43.312 185.61,185.61 18.566,-18.559 -185.62,-185.61 z m -55.137,5.6367 36.023,-36.016 -41.168,-5.1523 z"
         fill-rule="evenodd"
         id="path50"
         style="fill:#e0f8ff;fill-opacity:1" />
    </g>
    <path
       fill-rule="evenodd"
       clip-rule="evenodd"
       d="m 406.52942,517.28599 c 0.0844,-0.84479 0.79525,-1.48799 1.64427,-1.48799 h 0.79599 c 0.84909,0 1.55986,0.64341 1.64427,1.48803 0.0196,0.20027 0.25506,0.29743 0.41084,0.17037 0.65707,-0.53756 1.61452,-0.48983 2.21469,0.11056 l 0.56295,0.56299 c 0.60027,0.6002 0.64803,1.55768 0.11056,2.21476 -0.12753,0.15591 -0.0299,0.39096 0.17037,0.41095 0.84468,0.0844 1.48809,0.79531 1.48809,1.6443 v 0.7961 c 0,0.84894 -0.64317,1.55964 -1.48794,1.64416 -0.20027,0.0195 -0.2979,0.25509 -0.17025,0.41083 0.53741,0.65711 0.48975,1.61452 -0.11055,2.21483 l -0.56293,0.56296 c -0.60036,0.60032 -1.55777,0.64802 -2.21495,0.11056 -0.15553,-0.12756 -0.39099,-0.0299 -0.41097,0.17037 -0.0842,0.84476 -0.79514,1.48823 -1.64422,1.48823 h -0.79583 c -0.84896,0 -1.55985,-0.64323 -1.6444,-1.48811 -0.0195,-0.20026 -0.2551,-0.2979 -0.41121,-0.17037 -0.65715,0.5376 -1.61476,0.48994 -2.21515,-0.11056 l -0.56276,-0.5626 c -0.60027,-0.60042 -0.64793,-1.558 -0.11048,-2.21504 0.12753,-0.15592 0.0298,-0.39111 -0.17037,-0.41112 -0.84478,-0.0844 -1.48801,-0.79526 -1.48801,-1.64428 v -0.79581 c 0,-0.84914 0.64345,-1.5599 1.48817,-1.64445 0.20063,-0.0195 0.29793,-0.25545 0.17037,-0.41127 -0.53764,-0.65706 -0.48984,-1.6146 0.11056,-2.21493 l 0.56278,-0.56283 c 0.60027,-0.60038 1.55785,-0.64802 2.21494,-0.11056 0.15591,0.12753 0.39103,0.0298 0.41104,-0.17027 z m 1.64427,-0.0877 c -0.12993,0 -0.23838,0.0983 -0.2513,0.22709 -0.13096,1.31193 -1.6704,1.94914 -2.69053,1.11439 -0.10002,-0.0823 -0.24702,-0.0743 -0.33836,0.0164 l -0.56282,0.56279 c -0.0924,0.0923 -0.099,0.23799 -0.0165,0.33839 0.83489,1.02046 0.1972,2.55953 -1.11458,2.69079 -0.12915,0.013 -0.22756,0.12173 -0.22756,0.25116 v 0.79593 c 0,0.12986 0.0983,0.23834 0.22756,0.25115 1.31188,0.13112 1.9492,1.67044 1.11445,2.69075 -0.0823,0.10002 -0.0743,0.24697 0.0164,0.3384 l 0.56276,0.5627 c 0.0919,0.0919 0.238,0.099 0.33872,0.0165 1.02023,-0.83482 2.5596,-0.19759 2.69085,1.11446 0.013,0.12909 0.12128,0.22743 0.25118,0.22743 h 0.79594 c 0.12943,0 0.23837,-0.0983 0.25117,-0.22743 0.1311,-1.31163 1.67017,-1.94961 2.69062,-1.11462 0.10001,0.0823 0.24654,0.0743 0.33835,-0.0165 l 0.56294,-0.56294 c 0.0918,-0.0923 0.099,-0.23799 0.0165,-0.33835 -0.83479,-1.0202 -0.19756,-2.55929 1.11437,-2.69053 0.12913,-0.013 0.22713,-0.12128 0.22713,-0.25115 v -0.79619 c 0,-0.12992 -0.0983,-0.23835 -0.22758,-0.25118 -1.31168,-0.13108 -1.94931,-1.67017 -1.11452,-2.69056 0.0823,-0.10002 0.0743,-0.24654 -0.0165,-0.33838 l -0.56296,-0.56295 c -0.0924,-0.0924 -0.238,-0.0987 -0.33836,-0.0165 -1.02029,0.83481 -2.5593,0.19718 -2.69032,-1.11449 -0.0129,-0.12845 -0.12139,-0.22668 -0.25106,-0.22668 z"
       id="path1293-6-5"
       style="fill:#e0f8ff;fill-opacity:1;stroke-width:0.699989" />
    <path
       fill-rule="evenodd"
       clip-rule="evenodd"
       d="m 408.57146,521.39791 c -0.77318,0 -1.39997,0.62679 -1.39997,1.39997 0,0.77315 0.62679,1.39998 1.39997,1.39998 0.77318,0 1.39998,-0.62683 1.39998,-1.39998 0,-0.77318 -0.6268,-1.39997 -1.39998,-1.39997 z m -2.79995,1.39997 c 0,-1.5464 1.25355,-2.79995 2.79995,-2.79995 1.5464,0 2.79996,1.25355 2.79996,2.79995 0,1.54629 -1.25356,2.79996 -2.79996,2.79996 -1.5464,0 -2.79995,-1.25367 -2.79995,-2.79996 z"
       id="path1295-7-3"
       style="fill:#e0f8ff;fill-opacity:1;stroke-width:0.699989" />
  </g>
</svg>
