<?xml version="1.0" encoding="UTF-8" standalone="no"?>
<svg
   viewBox="0 0 64 64"
   version="1.1"
   id="svg12"
   sodipodi:docname="folder-trash.svg"
   inkscape:version="1.2.1 (9c6d41e410, 2022-07-14)"
   xmlns:inkscape="http://www.inkscape.org/namespaces/inkscape"
   xmlns:sodipodi="http://sodipodi.sourceforge.net/DTD/sodipodi-0.dtd"
   xmlns:xlink="http://www.w3.org/1999/xlink"
   xmlns="http://www.w3.org/2000/svg"
   xmlns:svg="http://www.w3.org/2000/svg"
   xmlns:rdf="http://www.w3.org/1999/02/22-rdf-syntax-ns#"
   xmlns:cc="http://creativecommons.org/ns#"
   xmlns:dc="http://purl.org/dc/elements/1.1/">
  <metadata
     id="metadata16">
    <rdf:RDF>
      <cc:Work
         rdf:about="">
        <dc:format>image/svg+xml</dc:format>
        <dc:type
           rdf:resource="http://purl.org/dc/dcmitype/StillImage" />
      </cc:Work>
    </rdf:RDF>
  </metadata>
  <sodipodi:namedview
     pagecolor="#ffffff"
     bordercolor="#666666"
     borderopacity="1"
     objecttolerance="10"
     gridtolerance="10"
     guidetolerance="10"
     inkscape:pageopacity="0"
     inkscape:pageshadow="2"
     inkscape:window-width="1920"
     inkscape:window-height="1004"
     id="namedview14"
     showgrid="true"
     inkscape:zoom="7.375"
     inkscape:cx="39.525424"
     inkscape:cy="35.59322"
     inkscape:window-x="0"
     inkscape:window-y="0"
     inkscape:window-maximized="1"
     inkscape:current-layer="svg12"
     inkscape:showpageshadow="2"
     inkscape:pagecheckerboard="0"
     inkscape:deskcolor="#d1d1d1">
    <inkscape:grid
       type="xygrid"
       id="grid2873" />
  </sodipodi:namedview>
  <defs
     id="defs3051">
    <style
       type="text/css"
       id="current-color-scheme">.ColorScheme-Text { color:#31363b; }
.ColorScheme-Background { color:#eff0f1; }
.ColorScheme-Highlight { color:#3daee9; }
.ColorScheme-ViewText { color:#31363b; }
.ColorScheme-ViewBackground { color:#fcfcfc; }
.ColorScheme-ViewHover { color:#93cee9; }
.ColorScheme-ViewFocus { color:#3daee9; }
.ColorScheme-ButtonText { color:#31363b; }
.ColorScheme-ButtonBackground { color:#eff0f1; }
.ColorScheme-ButtonHover { color:#93cee9; }
.ColorScheme-ButtonFocus { color:#3daee9; }
</style>
    <linearGradient
       inkscape:collect="always"
       id="linearGradient4393">
      <stop
         style="stop-color:#000000;stop-opacity:1;"
         offset="0"
         id="stop4395" />
      <stop
         style="stop-color:#000000;stop-opacity:0;"
         offset="1"
         id="stop4397" />
    </linearGradient>
    <linearGradient
       inkscape:collect="always"
       xlink:href="#linearGradient886"
       id="linearGradient888"
       x1="75.75985"
       y1="208.49026"
       x2="91.646347"
       y2="264.21182"
       gradientUnits="userSpaceOnUse"
       gradientTransform="matrix(0.7314896,0,0,0.72862121,-27.038313,-142.51032)" />
    <linearGradient
       inkscape:collect="always"
       id="linearGradient886">
      <stop
         style="stop-color:#00c190;stop-opacity:1;"
         offset="0"
         id="stop882" />
      <stop
         style="stop-color:#ccdbbf;stop-opacity:1;"
         offset="0.48468637"
         id="stop1402" />
      <stop
         style="stop-color:#00956f;stop-opacity:0.80000001;"
         offset="1"
         id="stop884" />
    </linearGradient>
    <filter
       inkscape:collect="always"
       style="color-interpolation-filters:sRGB"
       id="filter1881"
       x="-0.09064882"
       width="1.1812976"
       y="-0.40803665"
       height="1.8160733">
      <feGaussianBlur
         inkscape:collect="always"
         stdDeviation="0.85615684"
         id="feGaussianBlur1883" />
    </filter>
    <inkscape:path-effect
       effect="fillet_chamfer"
       id="path-effect1331"
       is_visible="true"
       lpeversion="1"
       satellites_param="F,0,0,1,0,2.1166667,0,1 @ F,0,0,1,0,2.1166667,0,1 @ F,0,0,1,0,2.1166667,0,1 @ F,0,0,1,0,2.1166667,0,1"
       unit="px"
       method="arc"
       mode="F"
       radius="8"
       chamfer_steps="1"
       flexible="false"
       use_knot_distance="true"
       apply_no_radius="true"
       apply_with_radius="true"
       only_selected="false"
       hide_knots="false"
       nodesatellites_param="F,0,0,1,0,2.1166667,0,1 @ F,0,0,1,0,2.1166667,0,1 @ F,0,0,1,0,2.1166667,0,1 @ F,0,0,1,0,2.1166667,0,1" />
    <linearGradient
       inkscape:collect="always"
       xlink:href="#linearGradient852"
       id="linearGradient854-7"
       x1="76.788559"
       y1="222.65123"
       x2="112.20527"
       y2="257.34955"
       gradientUnits="userSpaceOnUse"
       gradientTransform="matrix(0.7314896,0,0,0.72862121,-27.076953,-142.51032)" />
    <linearGradient
       inkscape:collect="always"
       id="linearGradient852">
      <stop
         style="stop-color:#00aa7f;stop-opacity:1;"
         offset="0"
         id="stop848" />
      <stop
         style="stop-color:#00e3aa;stop-opacity:1;"
         offset="1"
         id="stop850" />
    </linearGradient>
    <linearGradient
       inkscape:collect="always"
       xlink:href="#linearGradient4393"
       id="linearGradient668-3"
       gradientUnits="userSpaceOnUse"
       gradientTransform="matrix(3.6204685,0,0,3.4670854,3.0000795,-3596.8228)"
       x1="5"
       y1="1037.3622"
       x2="8"
       y2="1051.3622" />
  </defs>
  <path
     id="rect10"
     style="fill:url(#linearGradient888);fill-opacity:1;stroke-width:0.119494"
     d="m 6.0967895,9.4 c -1.7104,0 -3.09675,1.38103 -3.09675,3.08455 v 3.039 36.01029 c 0,1.70346 1.38635,3.08458 3.09675,3.08458 H 57.90348 c 1.7102,0 3.09648,-1.38111 3.09648,-3.08458 l -0.005,-32.68748 c -0.1316,-1.68954 0.0653,-5.59073 -5.7405,-5.59073 H 28.90743 c 0.0242,0 -1.90964,-1.73503 -3.63108,-2.76927 C 23.901109,9.59262 22.042969,9.4 22.042969,9.4 Z"
     sodipodi:nodetypes="scccscccccccs" />
  <path
     style="opacity:0.309598;fill:#000000;fill-opacity:1;stroke:none;stroke-width:0.144851;stroke-opacity:1;filter:url(#filter1881)"
     id="rect873"
     width="22.667437"
     height="5.0357642"
     x="46.507095"
     y="222.89639"
     transform="matrix(1.05206,0,0,1.4052333,-43.682843,-292.95826)"
     inkscape:path-effect="#path-effect1331"
     d="m 48.623762,222.89639 h 18.434103 a 2.1166667,2.1166667 45 0 1 2.116667,2.11667 v 0.80243 a 2.1166667,2.1166667 135 0 1 -2.116667,2.11667 l -18.434103,0 a 2.1166667,2.1166667 45 0 1 -2.116667,-2.11667 v -0.80243 a 2.1166667,2.1166667 135 0 1 2.116667,-2.11667 z"
     sodipodi:type="rect" />
  <path
     id="rect851"
     style="fill:#00aa7f;fill-opacity:1;stroke-width:0.193144"
     d="m 28.848201,16.55348 v 3.05695 H 21.62662 c 3.566961,-0.009 4.524921,-1.0483 7.221581,-3.05695 z m 0,0 h 28.90903 c 1.703509,-0.008 3.236169,1.36199 3.242719,3.05695 H 28.848201 Z M 6.0969795,19.61043 H 60.99996 v 30.96333 c 0,1.70172 -1.38628,3.08114 -3.09648,3.08114 H 6.0969795 c -1.7104,0 -3.09675,-1.37942 -3.09675,-3.08114 v -27.882 c 0,-1.70181 1.38635,-3.08133 3.09675,-3.08133 z"
     sodipodi:nodetypes="cccccccccccccsccc" />
  <path
     id="rect851-3"
     style="fill:url(#linearGradient854-7);fill-opacity:1;stroke-width:0.193226"
     d="m 29.207491,17.77076 -0.0784,3.19607 -7.141891,-0.13585 c 3.567041,-0.009 4.524811,-1.04952 7.22143,-3.06022 z m 0,0 H 57.90352 c 1.703471,-0.008 3.0899,1.36335 3.09651,3.06022 L 29.12794,20.96683 Z M 6.0970295,20.83098 H 61.00004 V 50.5751 c 0,1.70361 -1.3863,3.08458 -3.09652,3.08457 H 6.0970295 c -1.71042,1e-5 -3.09677,-1.38096 -3.09677,-3.08457 V 23.9156 c 0,-1.70354 1.38635,-3.08462 3.09677,-3.08462 z"
     sodipodi:nodetypes="cccccccccccsccssc" />
  <path
     style="opacity:0.181;fill:url(#linearGradient668-3);fill-opacity:1;fill-rule:evenodd;stroke:none;stroke-width:3.54294px;stroke-linecap:butt;stroke-linejoin:miter;stroke-opacity:1"
     d="M 6.0000395,20.8 31.96378,48.33972 H 60.92752 L 61.00002,20.8 H 6.0588195 Z"
     id="path4152-2-5"
     inkscape:connector-curvature="0"
     sodipodi:nodetypes="cccccc" />
  <rect
     style="fill:#ffffff;fill-opacity:0.25;stroke:#e5e9ef;stroke-width:0.580474;stroke-opacity:0.5;paint-order:markers fill stroke"
     id="rect2191"
     width="57.5"
     height="7.2964485e-07"
     x="3.2500424"
     y="47.690266" />
  <rect
     style="fill:#ffffff;fill-opacity:0.5;stroke:#e5e9ef;stroke-width:0.580474;stroke-opacity:0.5;paint-order:markers fill stroke"
     id="rect2191-0-9"
     width="57.5"
     height="7.2964485e-07"
     x="3.2500424"
     y="50.690266" />
  <path
     style="color:#232629;fill:#ffffff;fill-opacity:1;stroke:none;stroke-width:0.934944"
     d="m 30.17963,26 c 0.56524,0.23558 1.03686,0.66155 1.38965,1.2728 l 2.518154,4.37886 -1.575904,0.89295 5.107474,0.0732 2.49628,-4.47565 -1.5522,0.92035 -1.43708,-2.44881 c -0.23633,-0.40065 -0.63603,-0.61353 -1.15408,-0.61353 z m -1.34032,0.21185 c -0.89396,0 -1.62572,0.42379 -2.07255,1.20155 l -2.14203,3.69594 4.49575,2.61312 2.77929,-4.80258 -0.80164,-1.34217 C 30.55722,26.6607 29.8042,26.21185 28.83931,26.21185 Z m 11.768984,6.44966 -4.49575,2.56559 2.77745,4.80437 h 1.55393 c 0.49307,0 0.98848,-0.11924 1.34217,-0.30862 0.75247,-0.42326 1.29467,-1.31798 1.29467,-2.16565 0,-0.40797 -0.11804,-0.82296 -0.33049,-1.19974 z M 26.13308,33.7462 21,33.8429 l 1.57771,0.89296 -1.41334,2.47247 C 21.07017,37.37294 21,37.63131 21,37.84383 c 0,0.21219 0.07,0.44761 0.16437,0.61173 l 2.9436,5.05998 c -0.0232,-0.16411 -0.0239,-0.28117 -0.0239,-0.37432 0,-0.40086 0.18824,-1.03808 0.42359,-1.46087 h -0.002 l 2.52,-4.35516 1.60145,0.91851 z m 9.318394,5.0125 -2.63501,4.40267 2.63501,4.40263 v -1.81326 h 2.75552 c 0.49426,0 0.91693,-0.23558 1.15224,-0.63547 l 2.9199,-5.0838 c -0.49402,0.3759 -1.08218,0.56425 -1.78772,0.56425 h -5.03994 z m -9.650754,1.7914 -0.75232,1.34031 c -0.23534,0.39995 -0.39994,1.03655 -0.39994,1.42943 0,1.32567 1.10523,2.4327 2.44694,2.4327 h 4.2858 V 40.5501 Z"
     class="ColorScheme-Text"
     id="path17553-6-9" />
</svg>
