<?xml version="1.0" encoding="UTF-8" standalone="no"?>
<svg
   viewBox="0 0 64 64"
   version="1.1"
   id="svg12"
   sodipodi:docname="folder-deb.svg"
   inkscape:version="1.2.1 (9c6d41e410, 2022-07-14)"
   xmlns:inkscape="http://www.inkscape.org/namespaces/inkscape"
   xmlns:sodipodi="http://sodipodi.sourceforge.net/DTD/sodipodi-0.dtd"
   xmlns:xlink="http://www.w3.org/1999/xlink"
   xmlns="http://www.w3.org/2000/svg"
   xmlns:svg="http://www.w3.org/2000/svg"
   xmlns:rdf="http://www.w3.org/1999/02/22-rdf-syntax-ns#"
   xmlns:cc="http://creativecommons.org/ns#"
   xmlns:dc="http://purl.org/dc/elements/1.1/">
  <metadata
     id="metadata16">
    <rdf:RDF>
      <cc:Work
         rdf:about="">
        <dc:format>image/svg+xml</dc:format>
        <dc:type
           rdf:resource="http://purl.org/dc/dcmitype/StillImage" />
      </cc:Work>
    </rdf:RDF>
  </metadata>
  <sodipodi:namedview
     pagecolor="#ffffff"
     bordercolor="#666666"
     borderopacity="1"
     objecttolerance="10"
     gridtolerance="10"
     guidetolerance="10"
     inkscape:pageopacity="0"
     inkscape:pageshadow="2"
     inkscape:window-width="1920"
     inkscape:window-height="1002"
     id="namedview14"
     showgrid="true"
     inkscape:zoom="3.6875"
     inkscape:cx="32.677966"
     inkscape:cy="60.745763"
     inkscape:window-x="0"
     inkscape:window-y="0"
     inkscape:window-maximized="1"
     inkscape:current-layer="svg12"
     inkscape:showpageshadow="2"
     inkscape:pagecheckerboard="0"
     inkscape:deskcolor="#d1d1d1">
    <inkscape:grid
       type="xygrid"
       id="grid2873" />
  </sodipodi:namedview>
  <defs
     id="defs3051">
    <style
       type="text/css"
       id="current-color-scheme">.ColorScheme-Text { color:#31363b; }
.ColorScheme-Background { color:#eff0f1; }
.ColorScheme-Highlight { color:#3daee9; }
.ColorScheme-ViewText { color:#31363b; }
.ColorScheme-ViewBackground { color:#fcfcfc; }
.ColorScheme-ViewHover { color:#93cee9; }
.ColorScheme-ViewFocus { color:#3daee9; }
.ColorScheme-ButtonText { color:#31363b; }
.ColorScheme-ButtonBackground { color:#eff0f1; }
.ColorScheme-ButtonHover { color:#93cee9; }
.ColorScheme-ButtonFocus { color:#3daee9; }
</style>
    <linearGradient
       inkscape:collect="always"
       id="linearGradient4393">
      <stop
         style="stop-color:#000000;stop-opacity:1;"
         offset="0"
         id="stop4395" />
      <stop
         style="stop-color:#000000;stop-opacity:0;"
         offset="1"
         id="stop4397" />
    </linearGradient>
    <linearGradient
       inkscape:collect="always"
       xlink:href="#linearGradient886"
       id="linearGradient888"
       x1="75.75985"
       y1="208.49026"
       x2="91.646347"
       y2="264.21182"
       gradientUnits="userSpaceOnUse"
       gradientTransform="matrix(0.7314896,0,0,0.72862121,-27.03835,-142.51034)" />
    <linearGradient
       inkscape:collect="always"
       id="linearGradient886">
      <stop
         style="stop-color:#bb2649;stop-opacity:1;"
         offset="0"
         id="stop882" />
      <stop
         style="stop-color:#e890a5;stop-opacity:1;"
         offset="0.48468637"
         id="stop1402" />
      <stop
         style="stop-color:#8e1d38;stop-opacity:0.80392158;"
         offset="1"
         id="stop884" />
    </linearGradient>
    <filter
       inkscape:collect="always"
       style="color-interpolation-filters:sRGB"
       id="filter1881"
       x="-0.09064882"
       width="1.1812976"
       y="-0.40803665"
       height="1.8160733">
      <feGaussianBlur
         inkscape:collect="always"
         stdDeviation="0.85615684"
         id="feGaussianBlur1883" />
    </filter>
    <inkscape:path-effect
       effect="fillet_chamfer"
       id="path-effect1331"
       is_visible="true"
       lpeversion="1"
       satellites_param="F,0,0,1,0,2.1166667,0,1 @ F,0,0,1,0,2.1166667,0,1 @ F,0,0,1,0,2.1166667,0,1 @ F,0,0,1,0,2.1166667,0,1"
       unit="px"
       method="arc"
       mode="F"
       radius="8"
       chamfer_steps="1"
       flexible="false"
       use_knot_distance="true"
       apply_no_radius="true"
       apply_with_radius="true"
       only_selected="false"
       hide_knots="false"
       nodesatellites_param="F,0,0,1,0,2.1166667,0,1 @ F,0,0,1,0,2.1166667,0,1 @ F,0,0,1,0,2.1166667,0,1 @ F,0,0,1,0,2.1166667,0,1" />
    <linearGradient
       inkscape:collect="always"
       xlink:href="#linearGradient852"
       id="linearGradient854-7"
       x1="76.788559"
       y1="222.65123"
       x2="92.097359"
       y2="268.94839"
       gradientUnits="userSpaceOnUse"
       gradientTransform="matrix(0.7314896,0,0,0.72862121,-27.07699,-142.51034)" />
    <linearGradient
       inkscape:collect="always"
       id="linearGradient852">
      <stop
         style="stop-color:#da4b6d;stop-opacity:1;"
         offset="0"
         id="stop848" />
      <stop
         style="stop-color:#df627f;stop-opacity:1;"
         offset="1"
         id="stop850" />
    </linearGradient>
    <linearGradient
       inkscape:collect="always"
       xlink:href="#linearGradient4393"
       id="linearGradient668-3"
       gradientUnits="userSpaceOnUse"
       gradientTransform="matrix(3.6204685,0,0,3.4670854,3,-3596.8228)"
       x1="5"
       y1="1037.3622"
       x2="8"
       y2="1051.3622" />
  </defs>
  <path
     id="rect10"
     style="fill:url(#linearGradient888);fill-opacity:1;stroke-width:0.119494"
     d="M 6.09675,9.4 C 4.38635,9.4 3,10.78103 3,12.48455 v 3.039 36.01029 c 0,1.70346 1.38635,3.08458 3.09675,3.08458 h 51.806686 c 1.7102,0 3.09648,-1.38111 3.09648,-3.08458 l -0.005,-32.68748 c -0.1316,-1.68954 0.0653,-5.59073 -5.7405,-5.59073 h -26.34702 c 0.0242,0 -1.90964,-1.73503 -3.63108,-2.76927 C 23.901066,9.59262 22.042926,9.4 22.042926,9.4 Z"
     sodipodi:nodetypes="scccscccccccs" />
  <path
     style="opacity:0.309598;fill:#000000;fill-opacity:1;stroke:none;stroke-width:0.144851;stroke-opacity:1;filter:url(#filter1881)"
     id="rect873"
     width="22.667437"
     height="5.0357642"
     x="46.507095"
     y="222.89639"
     transform="matrix(1.05206,0,0,1.4052333,-43.68288,-292.95827)"
     inkscape:path-effect="#path-effect1331"
     d="m 48.623762,222.89639 h 18.434103 a 2.1166667,2.1166667 45 0 1 2.116667,2.11667 v 0.80243 a 2.1166667,2.1166667 135 0 1 -2.116667,2.11667 l -18.434103,0 a 2.1166667,2.1166667 45 0 1 -2.116667,-2.11667 v -0.80243 a 2.1166667,2.1166667 135 0 1 2.116667,-2.11667 z"
     sodipodi:type="rect" />
  <path
     id="rect851"
     style="fill:#bb2649;fill-opacity:1;stroke-width:0.193144"
     d="m 28.848166,16.55348 v 3.05695 h -7.22159 c 3.56696,-0.009 4.52492,-1.0483 7.22159,-3.05695 z m 0,0 h 28.90903 c 1.7035,-0.008 3.23616,1.36199 3.24271,3.05695 H 28.848166 Z M 6.09694,19.61043 h 54.902976 v 30.96333 c 0,1.70172 -1.38628,3.08114 -3.09648,3.08114 H 6.09694 c -1.7104,0 -3.09675,-1.37942 -3.09675,-3.08114 v -27.882 c 0,-1.70181 1.38635,-3.08133 3.09675,-3.08133 z"
     sodipodi:nodetypes="cccccccccccccsccc" />
  <path
     id="rect851-3"
     style="fill:url(#linearGradient854-7);fill-opacity:1;stroke-width:0.193226"
     d="m 29.207456,17.77076 -0.0784,3.19607 -7.1419,-0.13585 c 3.56704,-0.009 4.52482,-1.04952 7.22143,-3.06022 z m 0,0 h 28.69602 c 1.70347,-0.008 3.0899,1.36335 3.09651,3.06022 l -31.87209,0.13585 z M 6.09699,20.83098 H 60.999996 V 50.5751 c 0,1.70361 -1.3863,3.08458 -3.09652,3.08457 H 6.09699 C 4.38657,53.65968 3.00022,52.27871 3.00022,50.5751 V 23.9156 c 0,-1.70354 1.38635,-3.08462 3.09677,-3.08462 z"
     sodipodi:nodetypes="cccccccccccsccssc" />
  <path
     style="opacity:0.181;fill:url(#linearGradient668-3);fill-opacity:1;fill-rule:evenodd;stroke:none;stroke-width:3.54294px;stroke-linecap:butt;stroke-linejoin:miter;stroke-opacity:1"
     d="m 5.99996,20.8 25.963736,27.53972 h 28.96374 L 60.999936,20.8 H 6.05874 Z"
     id="path4152-2-5"
     inkscape:connector-curvature="0"
     sodipodi:nodetypes="cccccc" />
  <rect
     style="fill:#ffffff;fill-opacity:0.25;stroke:#e5e9ef;stroke-width:0.580474;stroke-opacity:0.5;paint-order:markers fill stroke"
     id="rect2191"
     width="57.5"
     height="7.2964485e-07"
     x="3.2499564"
     y="47.690243" />
  <rect
     style="fill:#ffffff;fill-opacity:0.5;stroke:#e5e9ef;stroke-width:0.580474;stroke-opacity:0.5;paint-order:markers fill stroke"
     id="rect2191-0-9"
     width="57.5"
     height="7.2964485e-07"
     x="3.2499564"
     y="50.690243" />
  <path
     style="color:#232629;fill:#7f1a32;fill-opacity:1;stroke:none;stroke-width:0.949544"
     d="m 33.425174,45.888774 c -1.13435,-0.190806 -2.741349,-0.858491 -3.686634,-1.478425 -2.174134,-1.430769 -3.597162,-3.022242 -4.476729,-5.008547 -0.283557,-0.667673 -0.451856,-1.1446 -0.945245,-2.86153 -0.09446,-0.429156 -0.254904,-0.910152 -0.314094,-1.060055 -0.09979,-0.252793 -0.104161,-0.338092 -0.06055,-1.181335 0.04127,-0.763083 0.189073,-1.907662 0.283554,-1.999204 0.01382,-0.02225 0.04714,-0.02749 0.07324,-0.01169 0.08912,0.05291 0.171057,-0.192843 0.251771,-0.754091 0.04445,-0.307557 0.113779,-0.629996 0.154471,-0.71664 0.04067,-0.0868 0.109671,-0.27788 0.153252,-0.42494 0.10029,-0.338473 0.237057,-0.598628 0.659882,-1.255242 0.18596,-0.288764 0.379227,-0.603322 0.429545,-0.698936 0.05892,-0.112597 0.123799,-0.167679 0.183206,-0.15628 0.05693,0.01114 0.15154,-0.0619 0.250405,-0.193626 0.429874,-0.572486 2.454568,-2.261567 2.641932,-2.203954 0.05111,0.01548 0.264831,-0.05498 0.474814,-0.157633 0.37979,-0.185212 0.547167,-0.228048 0.547167,-0.140061 0,0.02572 -0.05469,0.0829 -0.121975,0.12806 -0.117806,0.07869 -0.11542,0.0801 0.06792,0.03713 0.104396,-0.02482 0.280154,-0.05901 0.390626,-0.07733 0.136513,-0.02255 0.191995,-0.05518 0.173155,-0.102951 -0.01619,-0.04167 0.02293,-0.08289 0.09741,-0.102335 0.186698,-0.04847 0.477558,-0.0403 0.477558,0.01281 0,0.06432 -0.166331,0.129052 -0.298266,0.116381 -0.09015,-0.009 -0.09436,-9.63e-4 -0.02725,0.04374 0.06752,0.04484 0.06812,0.05408 0.005,0.05458 -0.04231,4.24e-4 -0.0629,0.01408 -0.04629,0.03093 0.01671,0.01625 0.13007,-0.01892 0.251225,-0.07878 0.121199,-0.05961 0.343147,-0.134346 0.493255,-0.165488 0.184772,-0.03803 0.272882,-0.08279 0.272882,-0.137842 0,-0.07093 0.08607,-0.07646 0.664237,-0.04661 0.365284,0.01892 0.916611,0.07409 1.22503,0.123184 0.560823,0.08897 0.560874,0.08897 0.769813,-0.02799 0.250703,-0.139679 0.65388,-0.157857 0.759823,-0.03399 0.03854,0.04551 0.145436,0.119754 0.237081,0.165647 0.149532,0.07476 0.159428,0.07486 0.09609,9.22e-4 -0.12001,-0.140117 -8.1e-4,-0.136601 0.462613,0.0135 1.49408,0.484531 2.712134,1.347488 3.615887,2.561848 0.214329,0.288013 0.227338,0.417507 0.02457,0.242232 l -0.116199,-0.100278 0.0889,0.168045 c 0.04898,0.09271 0.0888,0.196312 0.0888,0.230786 0,0.03429 0.143694,0.289692 0.319297,0.567039 0.395781,0.625109 0.506478,0.835668 0.479915,0.912841 -0.01129,0.03299 -0.186689,-0.187054 -0.389625,-0.489247 -0.202883,-0.302139 -0.503179,-0.709281 -0.667237,-0.904663 -0.245039,-0.291846 -0.30922,-0.341751 -0.359209,-0.279369 -0.0332,0.04177 -0.115235,0.08344 -0.181688,0.09281 l -0.120839,0.01655 0.119516,0.226922 c 0.06598,0.124826 0.128276,0.201587 0.138932,0.170639 0.05707,-0.165739 0.322749,0.05231 0.443568,0.363819 0.03893,0.10098 0.143324,0.309159 0.231455,0.462462 0.08841,0.153334 0.149155,0.289541 0.135581,0.302645 -0.01333,0.01291 -0.09393,-0.02916 -0.178545,-0.09311 l -0.153875,-0.117237 0.104949,0.174473 c 0.05768,0.09585 0.15437,0.213369 0.214778,0.260897 0.07508,0.05901 0.111416,0.152932 0.114753,0.298553 0.007,0.268836 0.165279,0.586452 0.25174,0.502713 0.134741,-0.130478 0.162432,-0.04907 0.128542,0.378313 -0.02531,0.314813 -0.01149,0.522291 0.04763,0.742545 0.09015,0.334421 0.0709,0.416898 -0.06086,0.260658 -0.08368,-0.09951 -0.08463,-0.09921 -0.04714,0.004 0.0801,0.221123 0.140345,0.551885 0.123658,0.681726 -0.03122,0.242268 -0.125102,0.141549 -0.157391,-0.16878 l -0.03157,-0.302915 -0.01024,0.322308 c -0.005,0.177336 -0.04813,0.519941 -0.09547,0.761368 -0.04813,0.243882 -0.07245,0.539335 -0.0546,0.664811 0.03267,0.236057 0.01024,0.245187 -0.194093,0.07586 -0.08289,-0.06896 -0.09731,-0.05468 -0.154174,0.149954 -0.04803,0.172334 -0.04763,0.270428 0.002,0.414773 0.03535,0.104037 0.05594,0.245004 0.04609,0.313404 -0.02397,0.157843 -0.154297,0.207005 -0.154297,0.05802 0,-0.187163 -0.07344,-0.120494 -0.298185,0.270212 -0.606767,1.055063 -1.566844,1.871558 -2.653425,2.256722 -0.640634,0.227085 -1.070283,0.311298 -1.792706,0.351333 l -0.650644,0.03586 0.32145,0.09585 c 0.259258,0.07733 0.411446,0.08897 0.786182,0.05942 0.49099,-0.03813 1.067456,-0.14157 1.328835,-0.237783 0.104336,-0.03813 0.174783,-0.04 0.210844,-0.006 0.08512,0.08217 -0.670118,0.40595 -1.118358,0.479267 -0.762744,0.12482 -1.783671,-0.0099 -2.684916,-0.354617 -0.61147,-0.233795 -1.51886,-0.842645 -1.379828,-0.925837 0.02644,-0.01548 0.198981,0.06387 0.383642,0.176883 0.235971,0.144529 0.335687,0.182578 0.335687,0.128145 0,-0.10285 0.03472,-0.09801 0.222462,0.03123 0.169313,0.116743 0.690186,0.333586 1.065334,0.443473 0.408903,0.119762 0.250325,-0.02562 -0.298236,-0.273084 -1.734581,-0.783054 -2.454648,-1.566271 -2.813519,-3.060177 -0.131608,-0.547823 0.01024,-1.748789 0.249422,-2.124887 0.06076,-0.09508 0.110586,-0.212543 0.110586,-0.260474 0,-0.208076 0.358338,-0.757842 0.725987,-1.11388 0.647878,-0.627361 1.32145,-0.887827 2.195843,-0.849043 0.422691,0.01862 0.603223,0.05448 0.955006,0.190393 0.398955,0.153859 0.901418,0.475971 0.747542,0.47928 -0.03595,7.94e-4 -0.194804,-0.05074 -0.352458,-0.114271 -0.239691,-0.09665 -0.393343,-0.116074 -0.937295,-0.118118 -0.76386,-0.003 -1.137227,0.102028 -1.680902,0.472455 -0.770681,0.525125 -1.199265,1.129965 -1.351073,1.906764 -0.101827,0.521173 -0.10495,0.66564 -0.02581,1.182618 0.04609,0.297946 0.07806,0.385361 0.135571,0.36412 0.04823,-0.01755 0.07508,0.009 0.07508,0.07232 0,0.184655 0.414897,0.933647 0.702673,1.268464 0.692562,0.80595 1.812878,1.32025 2.875886,1.32025 0.551716,0 0.997693,-0.10254 1.408194,-0.323785 0.164878,-0.08922 0.372958,-0.197461 0.462419,-0.241381 0.315651,-0.154937 0.511476,-0.331911 0.740443,-0.669145 0.127273,-0.187478 0.26568,-0.34086 0.307507,-0.34086 0.06175,0 0.05892,0.02719 -0.01412,0.144423 -0.241988,0.386753 0.326007,-0.316512 0.620093,-0.767809 l 0.329472,-0.505493 -0.03575,-0.332024 c -0.03431,-0.319082 -0.02959,-0.338555 0.128163,-0.498785 0.151848,-0.154318 0.165441,-0.200047 0.18297,-0.612563 0.01546,-0.369194 0.005,-0.445861 -0.0624,-0.446295 -0.0626,-3.52e-4 -0.08955,-0.09763 -0.116372,-0.420514 -0.03555,-0.427392 -0.395013,-1.865552 -0.478676,-1.915621 -0.02541,-0.01498 -0.09507,-0.153419 -0.155722,-0.307301 -0.203746,-0.519406 -0.561242,-1.018863 -1.118584,-1.562956 -0.802011,-0.782856 -1.812231,-1.387343 -2.76654,-1.655426 -0.811742,-0.228037 -2.190105,-0.145271 -3.17191,0.190473 -0.479187,0.163838 -0.951297,0.380751 -1.030976,0.47369 -0.03595,0.04217 -0.0888,0.06305 -0.116454,0.0466 -0.02969,-0.01725 -0.0213,-0.06482 0.01914,-0.111937 0.18086,-0.211043 -0.419351,0.175185 -0.805729,0.518499 -0.233596,0.207537 -0.433231,0.383665 -0.443641,0.391376 -0.01064,0.008 0.03494,3.91e-4 0.101001,-0.01605 0.109816,-0.02789 0.114456,-0.02038 0.0547,0.08767 -0.03789,0.06916 -0.236927,0.193234 -0.480584,0.300259 -0.409364,0.179837 -0.674132,0.377463 -0.884514,0.660203 -0.08398,0.112906 -0.0889,0.13723 -0.02252,0.112512 0.04682,-0.01705 0.08493,-0.007 0.08493,0.02442 0,0.149944 -0.140672,0.317366 -0.34908,0.415398 -0.46174,0.217235 -1.27292,1.377568 -1.707423,2.442473 -0.193624,0.474522 -0.19053,0.458059 -0.08542,0.458059 0.111004,0 0.103281,0.122044 -0.04938,0.777542 -0.22203,0.954943 -0.222296,0.924336 0.01934,2.267741 0.294601,1.63681 0.466711,2.183597 0.793958,2.522343 0.07662,0.0792 0.151387,0.248553 0.184652,0.418407 0.03953,0.202813 0.106404,0.336651 0.231197,0.464024 0.113812,0.116131 0.151715,0.187342 0.108005,0.202803 -0.08597,0.03037 0.182731,0.417871 0.427669,0.617441 0.123206,0.100277 0.214542,0.134139 0.313408,0.115779 0.216805,-0.04 0.437545,0.0805 0.776718,0.425479 0.352498,0.358165 0.38782,0.454439 0.154573,0.421312 -0.150486,-0.02138 -0.153907,-0.01715 -0.07961,0.09231 0.04271,0.06295 0.199668,0.214247 0.3491,0.336241 0.209881,0.171372 0.263938,0.245496 0.237558,0.325873 -0.03759,0.115605 0.07036,0.223436 0.314628,0.313923 0.151562,0.05595 0.200437,0.177152 0.08657,0.21399 -0.03431,0.01084 0.178974,0.223923 0.474424,0.472821 0.332881,0.280516 0.556778,0.434264 0.588708,0.404204 0.08443,-0.079 0.192322,-0.05488 0.19427,0.04354 0.002,0.10752 0.09785,0.220469 0.442114,0.521795 0.217523,0.190377 0.271817,0.214368 0.405165,0.1788 0.12214,-0.03254 0.19895,-0.0117 0.370917,0.10088 0.343084,0.224609 0.551133,0.314236 0.729308,0.314236 0.175244,0 0.20021,0.04887 0.109202,0.213461 -0.04833,0.08747 -0.03759,0.101493 0.07294,0.101493 0.0712,0 0.270813,0.04757 0.444163,0.105009 0.394123,0.131308 0.558539,0.140247 0.459796,0.02532 -0.145927,-0.170263 0.0094,-0.123728 0.530245,0.159372 0.728551,0.395669 1.097102,0.440819 2.5479,0.312468 0.214756,-0.01882 0.284652,-0.008 0.284652,0.04551 0,0.0459 -0.186411,0.114036 -0.528656,0.194227 -0.449952,0.105403 -0.690134,0.125798 -1.613076,0.136972 -0.727309,0.009 -1.224106,-0.01074 -1.508505,-0.05802 z M 32.68345,38.017755 c 0,-0.01124 -0.06742,-0.05952 -0.149082,-0.108153 l -0.149163,-0.08827 0.128049,0.108153 c 0.124907,0.105528 0.170196,0.128868 0.170196,0.08827 z m 7.465342,-5.502712 c -0.017,-0.04187 -0.03033,-0.02966 -0.03247,0.03183 -0.003,0.05508 0.01064,0.0865 0.02869,0.06916 0.01784,-0.01715 0.01989,-0.06275 0.004,-0.100679 z M 27.844255,27.00839 c 0.06762,-0.08324 0.06578,-0.08531 -0.02049,-0.01971 -0.05226,0.0395 -0.09457,0.08073 -0.09457,0.09211 0,0.04334 0.04475,0.01528 0.115306,-0.07203 z m 0.616642,-0.485677 c 0.05369,-0.05765 0.08617,-0.105011 0.0713,-0.105011 -0.01487,0 -0.0715,0.04757 -0.125274,0.105011 -0.0537,0.05767 -0.08617,0.105011 -0.0712,0.105011 0.01487,0 0.0715,-0.04757 0.125254,-0.105011 z m 0.682532,-0.369098 c 0.17872,-0.05821 0.2803,-0.06906 0.317956,-0.0327 0.03739,0.03646 0.177562,0.01478 0.437885,-0.06799 0.210372,-0.06709 0.372833,-0.130734 0.361022,-0.142212 -0.01228,-0.01114 -0.18508,0.03223 -0.384942,0.09655 -0.274521,0.08897 -0.373274,0.102029 -0.403894,0.05378 -0.05183,-0.08081 -0.545098,0.07853 -0.757212,0.245237 l -0.144893,0.113784 0.155741,-0.09064 c 0.08585,-0.05004 0.273917,-0.129313 0.418337,-0.176655 z m 1.563159,-0.133304 c 0.15745,-0.04561 0.276907,-0.09171 0.265465,-0.102539 -0.02561,-0.02482 -0.586281,0.131038 -0.586281,0.162595 0,0.03163 0.005,0.03093 0.320816,-0.05973 z m 0.899153,-0.286223 0.216919,-0.03803 -0.189793,-0.005 c -0.104386,-0.003 -0.250795,0.03163 -0.325342,0.07556 -0.08811,0.05201 -0.09741,0.06769 -0.02725,0.04313 0.05942,-0.02058 0.206028,-0.05448 0.325332,-0.07556 z m 0.430641,-0.09911 c 0.01651,-0.02637 -0.01825,-0.03506 -0.07796,-0.02005 -0.126647,0.03223 -0.142627,0.06799 -0.03063,0.06799 0.04311,0 0.09209,-0.02148 0.108526,-0.04797 z m 1.750644,0.0156 c -0.01782,-0.01715 -0.06494,-0.01912 -0.103905,-0.004 -0.04344,0.01645 -0.03063,0.02946 0.03247,0.03183 0.05696,0.002 0.08923,-0.0099 0.0714,-0.02769 z m -0.324175,-0.05685 c -0.05216,-0.01291 -0.137588,-0.01291 -0.189781,0 -0.05236,0.01291 -0.01024,0.02431 0.09457,0.02431 0.104397,0 0.147127,-0.01104 0.09487,-0.02431 z m -0.540784,-0.05418 c -0.111046,-0.01124 -0.306237,-0.01146 -0.433787,-3.62e-4 -0.127529,0.01114 -0.03646,0.02028 0.201891,0.02048 0.238574,1.76e-4 0.342909,-0.009 0.231896,-0.02006 z m -0.707488,-0.04641 c -0.01781,-0.01715 -0.06494,-0.01921 -0.103917,-0.004 -0.04346,0.01645 -0.03023,0.02946 0.03287,0.03162 0.05718,0.002 0.08944,-0.0105 0.0711,-0.02769 z m -0.366974,12.619969 c -0.552322,-0.383169 -0.756938,-0.581394 -0.756938,-0.733178 0,-0.0802 0.01865,-0.146377 0.04182,-0.146377 0.07796,0 1.001546,0.933305 0.981363,0.991968 -0.01168,0.03369 -0.123123,-0.01281 -0.266172,-0.112413 z M 31.563362,37.140171 C 31.276548,36.859459 31.184617,36.70849 31.30059,36.70849 c 0.06986,0 0.603399,0.591743 0.603399,0.669019 0,0.03626 -0.007,0.06639 -0.01516,0.06639 -0.0094,0 -0.154799,-0.136536 -0.325342,-0.303399 z m 3.173639,-1.148983 c -0.151407,-0.05882 -0.05673,-0.168851 0.189793,-0.220056 0.141657,-0.02976 0.366768,-0.10078 0.500261,-0.158814 0.133479,-0.0577 0.252332,-0.09563 0.264092,-0.08454 0.01149,0.01134 -0.04888,0.128102 -0.13428,0.259336 -0.154654,0.237123 -0.157452,0.238525 -0.453824,0.234506 -0.164067,-0.002 -0.328761,-0.01548 -0.366042,-0.03016 z m 1.626682,-1.174513 c -0.14638,-0.05685 -0.152442,-0.153913 -0.03063,-0.484015 0.104971,-0.283574 0.213876,-0.339538 0.153315,-0.07864 -0.02193,0.09368 -0.05101,0.22974 -0.06484,0.3019 l -0.02541,0.131306 0.10836,-0.119514 c 0.06424,-0.07093 0.123484,-0.236697 0.145355,-0.406343 0.02029,-0.157768 0.05827,-0.273836 0.08522,-0.258065 0.06742,0.04 0.05972,0.45529 -0.01228,0.73439 -0.0635,0.243799 -0.120431,0.272226 -0.359548,0.179122 z M 23.532577,34.157663 C 23.514753,34.111665 23.5,33.932819 23.5,33.759515 c 0,-0.228708 0.01845,-0.309138 0.06792,-0.293437 0.0803,0.02613 0.127805,0.774629 0.04908,0.774629 -0.02816,0 -0.06588,-0.03723 -0.08378,-0.08304 z m 13.044059,-1.228089 c -0.08432,-0.110393 -0.110196,-0.197462 -0.08657,-0.289655 0.04928,-0.189334 0.177458,-0.162439 0.272124,0.05685 0.14731,0.341401 0.01934,0.501465 -0.18585,0.232553 z M 23.52145,32.09617 c -0.004,-0.297748 -3e-5,-0.306936 0.136053,-0.301921 0.11544,0.004 0.143254,0.03359 0.15658,0.165499 0.01497,0.148651 -0.15191,0.443483 -0.251071,0.443483 -0.02049,0 -0.03903,-0.138201 -0.04158,-0.307061 z m 14.054714,-6.454657 c 0.008,-0.46984 0.08945,-0.62903 0.153078,-0.300051 0.04465,0.229216 -0.01228,0.634008 -0.09815,0.703212 -0.04694,0.03723 -0.06066,-0.06502 -0.0547,-0.403161 z M 30.451652,25.359994 C 30.473582,25.296644 31.221424,25 31.359339,25 c 0.162135,0 -0.128655,0.192316 -0.464056,0.30698 -0.373931,0.127779 -0.473483,0.139658 -0.443631,0.05301 z"
     class="ColorScheme-Text"
     id="path7225-4-3" />
</svg>
