<?xml version="1.0" encoding="UTF-8" standalone="no"?>
<svg
   viewBox="0 0 64 64"
   version="1.1"
   id="svg12"
   sodipodi:docname="folder-IOTA.svg"
   inkscape:version="1.2.1 (9c6d41e410, 2022-07-14)"
   xmlns:inkscape="http://www.inkscape.org/namespaces/inkscape"
   xmlns:sodipodi="http://sodipodi.sourceforge.net/DTD/sodipodi-0.dtd"
   xmlns:xlink="http://www.w3.org/1999/xlink"
   xmlns="http://www.w3.org/2000/svg"
   xmlns:svg="http://www.w3.org/2000/svg"
   xmlns:rdf="http://www.w3.org/1999/02/22-rdf-syntax-ns#"
   xmlns:cc="http://creativecommons.org/ns#"
   xmlns:dc="http://purl.org/dc/elements/1.1/">
  <metadata
     id="metadata16">
    <rdf:RDF>
      <cc:Work
         rdf:about="">
        <dc:format>image/svg+xml</dc:format>
        <dc:type
           rdf:resource="http://purl.org/dc/dcmitype/StillImage" />
      </cc:Work>
    </rdf:RDF>
  </metadata>
  <sodipodi:namedview
     pagecolor="#ffffff"
     bordercolor="#666666"
     borderopacity="1"
     objecttolerance="10"
     gridtolerance="10"
     guidetolerance="10"
     inkscape:pageopacity="0"
     inkscape:pageshadow="2"
     inkscape:window-width="1920"
     inkscape:window-height="1004"
     id="namedview14"
     showgrid="true"
     inkscape:zoom="5.2149125"
     inkscape:cx="31.544153"
     inkscape:cy="50.624052"
     inkscape:window-x="0"
     inkscape:window-y="0"
     inkscape:window-maximized="1"
     inkscape:current-layer="svg12"
     inkscape:showpageshadow="2"
     inkscape:pagecheckerboard="0"
     inkscape:deskcolor="#d1d1d1">
    <inkscape:grid
       type="xygrid"
       id="grid2873" />
  </sodipodi:namedview>
  <defs
     id="defs3051">
    <linearGradient
       inkscape:collect="always"
       id="linearGradient1283">
      <stop
         style="stop-color:#00aad4;stop-opacity:1;"
         offset="0"
         id="stop1279" />
      <stop
         style="stop-color:#00ffcc;stop-opacity:1"
         offset="1"
         id="stop1281" />
    </linearGradient>
    <style
       type="text/css"
       id="current-color-scheme">.ColorScheme-Text { color:#31363b; }
.ColorScheme-Background { color:#eff0f1; }
.ColorScheme-Highlight { color:#3daee9; }
.ColorScheme-ViewText { color:#31363b; }
.ColorScheme-ViewBackground { color:#fcfcfc; }
.ColorScheme-ViewHover { color:#93cee9; }
.ColorScheme-ViewFocus { color:#3daee9; }
.ColorScheme-ButtonText { color:#31363b; }
.ColorScheme-ButtonBackground { color:#eff0f1; }
.ColorScheme-ButtonHover { color:#93cee9; }
.ColorScheme-ButtonFocus { color:#3daee9; }
</style>
    <linearGradient
       inkscape:collect="always"
       id="linearGradient4393">
      <stop
         style="stop-color:#000000;stop-opacity:1;"
         offset="0"
         id="stop4395" />
      <stop
         style="stop-color:#000000;stop-opacity:0;"
         offset="1"
         id="stop4397" />
    </linearGradient>
    <filter
       inkscape:collect="always"
       style="color-interpolation-filters:sRGB"
       id="filter1881"
       x="-0.09064882"
       width="1.1812976"
       y="-0.40803665"
       height="1.8160733">
      <feGaussianBlur
         inkscape:collect="always"
         stdDeviation="0.85615684"
         id="feGaussianBlur1883" />
    </filter>
    <inkscape:path-effect
       effect="fillet_chamfer"
       id="path-effect1331"
       is_visible="true"
       lpeversion="1"
       satellites_param="F,0,0,1,0,2.1166667,0,1 @ F,0,0,1,0,2.1166667,0,1 @ F,0,0,1,0,2.1166667,0,1 @ F,0,0,1,0,2.1166667,0,1"
       unit="px"
       method="arc"
       mode="F"
       radius="8"
       chamfer_steps="1"
       flexible="false"
       use_knot_distance="true"
       apply_no_radius="true"
       apply_with_radius="true"
       only_selected="false"
       hide_knots="false"
       nodesatellites_param="F,0,0,1,0,2.1166667,0,1 @ F,0,0,1,0,2.1166667,0,1 @ F,0,0,1,0,2.1166667,0,1 @ F,0,0,1,0,2.1166667,0,1" />
    <linearGradient
       inkscape:collect="always"
       xlink:href="#linearGradient852"
       id="linearGradient854-7"
       x1="76.788559"
       y1="222.65123"
       x2="92.097359"
       y2="268.94839"
       gradientUnits="userSpaceOnUse"
       gradientTransform="matrix(0.7314896,0,0,0.72862121,-27.077042,-142.51033)" />
    <linearGradient
       inkscape:collect="always"
       id="linearGradient852">
      <stop
         style="stop-color:#00d4aa;stop-opacity:1"
         offset="0"
         id="stop848" />
      <stop
         style="stop-color:#00aad4;stop-opacity:1"
         offset="1"
         id="stop850" />
    </linearGradient>
    <linearGradient
       inkscape:collect="always"
       xlink:href="#linearGradient4393"
       id="linearGradient668-3"
       gradientUnits="userSpaceOnUse"
       gradientTransform="matrix(3.6204685,0,0,3.4670854,2.9999875,-3596.8227)"
       x1="5"
       y1="1037.3622"
       x2="8"
       y2="1051.3622" />
    <linearGradient
       inkscape:collect="always"
       xlink:href="#linearGradient1283"
       id="linearGradient1285"
       x1="22.863649"
       y1="16.553446"
       x2="46.445564"
       y2="48.339722"
       gradientUnits="userSpaceOnUse" />
  </defs>
  <path
     id="rect10"
     style="fill:url(#linearGradient1285);fill-opacity:1;stroke-width:0.119494"
     d="m 6.0966975,9.4 c -1.7104,0 -3.09675,1.38103 -3.09675,3.08455 v 3.039 36.01029 c 0,1.70346 1.38635,3.08458 3.09675,3.08458 H 57.903383 c 1.7102,0 3.09648,-1.38111 3.09648,-3.08458 l -0.005,-32.68748 c -0.1316,-1.68954 0.0653,-5.59073 -5.7405,-5.59073 H 28.907342 c 0.0242,0 -1.909639,-1.73503 -3.631085,-2.76927 C 23.901017,9.59262 22.042878,9.4 22.042878,9.4 Z"
     sodipodi:nodetypes="scccscccccccs" />
  <path
     style="opacity:0.309598;fill:#000000;fill-opacity:1;stroke:none;stroke-width:0.144851;stroke-opacity:1;filter:url(#filter1881)"
     id="rect873"
     width="22.667437"
     height="5.0357642"
     x="46.507095"
     y="222.89639"
     transform="matrix(1.05206,0,0,1.4052333,-43.682932,-292.95827)"
     inkscape:path-effect="#path-effect1331"
     d="m 48.623762,222.89639 h 18.434103 a 2.1166667,2.1166667 45 0 1 2.116667,2.11667 v 0.80243 a 2.1166667,2.1166667 135 0 1 -2.116667,2.11667 l -18.434103,0 a 2.1166667,2.1166667 45 0 1 -2.116667,-2.11667 v -0.80243 a 2.1166667,2.1166667 135 0 1 2.116667,-2.11667 z"
     sodipodi:type="rect" />
  <path
     id="rect851"
     style="fill:#00c5f6;fill-opacity:1;stroke-width:0.193144"
     d="m 28.848102,16.55348 v 3.05695 h -7.221575 c 3.56696,-0.009 4.524925,-1.0483 7.221575,-3.05695 z m 0,0 h 28.909031 c 1.70351,-0.008 3.23618,1.36199 3.24273,3.05695 H 28.848103 Z M 6.0968875,19.61043 H 60.999863 v 30.96333 c 0,1.70172 -1.38628,3.08114 -3.096481,3.08114 H 6.0968875 c -1.7104,0 -3.09675,-1.37942 -3.09675,-3.08114 v -27.882 c 0,-1.70181 1.38635,-3.08133 3.09675,-3.08133 z"
     sodipodi:nodetypes="cccccccccccccsccc" />
  <path
     id="rect851-3"
     style="fill:url(#linearGradient854-7);fill-opacity:1;stroke-width:0.193226"
     d="m 29.207402,17.77076 -0.0784,3.19607 -7.141895,-0.13585 c 3.56704,-0.009 4.524815,-1.04952 7.221435,-3.06022 z m 0,0 h 28.696031 c 1.70346,-0.008 3.0899,1.36335 3.09651,3.06022 l -31.87209,0.13585 z M 6.0969375,20.83098 H 60.999953 V 50.5751 c 0,1.70361 -1.386311,3.08458 -3.09652,3.08457 H 6.0969375 c -1.71042,1e-5 -3.09677,-1.38096 -3.09677,-3.08457 V 23.9156 c 0,-1.70354 1.38635,-3.08462 3.09677,-3.08462 z"
     sodipodi:nodetypes="cccccccccccsccssc" />
  <rect
     style="fill:#ffffff;fill-opacity:0.25;stroke:#e5e9ef;stroke-width:0.580474;stroke-opacity:0.5;paint-order:markers fill stroke"
     id="rect2191"
     width="57.5"
     height="7.2964485e-07"
     x="3.2500598"
     y="47.690235" />
  <rect
     style="fill:#ffffff;fill-opacity:0.5;stroke:#e5e9ef;stroke-width:0.580474;stroke-opacity:0.5;paint-order:markers fill stroke"
     id="rect2191-0-9"
     width="57.5"
     height="7.2964485e-07"
     x="3.2500598"
     y="50.690235" />
  <path
     style="opacity:0.181;fill:url(#linearGradient668-3);fill-opacity:1;fill-rule:evenodd;stroke:none;stroke-width:3.54294px;stroke-linecap:butt;stroke-linejoin:miter;stroke-opacity:1"
     d="M 5.9999475,20.8 31.963693,48.33972 h 28.96374 L 60.999933,20.8 H 6.0587275 Z"
     id="path4152-2-5"
     inkscape:connector-curvature="0"
     sodipodi:nodetypes="cccccc" />
  <path
     style="color:#eff0f1;isolation:isolate;fill:#ffffff;fill-opacity:1;stroke-width:1.3075"
     class="ColorScheme-Text"
     d="m 27.321421,46.002943 c 0.42018,-0.02 0.80238,-0.250829 1.01171,-0.615206 0.16431,-0.283427 0.20933,-0.618898 0.12539,-0.934949 -0.0861,-0.316144 -0.29189,-0.58515 -0.5759,-0.749793 -0.28402,-0.163971 -0.62162,-0.207593 -0.93832,-0.123601 -0.31546,0.08544 -0.58632,0.291177 -0.74997,0.574688 -0.16431,0.28332 -0.20808,0.618992 -0.12399,0.935014 0.0849,0.315996 0.29185,0.585221 0.57587,0.748287 0.20416,0.118118 0.4397,0.175978 0.67534,0.165381 z m 7.94953,-1.926445 c 0.2068,0 0.4057,-0.08369 0.55231,-0.228527 0.14719,-0.146748 0.22772,-0.34348 0.22772,-0.549808 0,-0.4297 -0.34949,-0.777075 -0.78003,-0.777075 -0.42929,0 -0.77746,0.348693 -0.77746,0.777075 0,0.428295 0.34817,0.777058 0.77746,0.778335 z m -1.96188,-0.198542 c 0.18077,0 0.35473,-0.07066 0.48164,-0.198376 0.12898,-0.129213 0.20027,-0.300509 0.19897,-0.480614 0,-0.374952 -0.30492,-0.677904 -0.68055,-0.677904 -0.37433,0 -0.67793,0.304329 -0.6792,0.677904 0,0.374707 0.3036,0.679015 0.6792,0.679015 z m 4.24177,-0.07666 c 0.2435,0 0.47778,-0.09544 0.64915,-0.267717 0.17216,-0.171815 0.26955,-0.406185 0.26955,-0.64906 0,-0.243025 -0.0958,-0.475425 -0.26955,-0.647871 -0.17077,-0.170749 -0.40565,-0.267684 -0.64915,-0.267684 -0.24347,0 -0.47636,0.09543 -0.64921,0.26768 -0.17198,0.171804 -0.26829,0.404844 -0.26829,0.647871 0,0.242874 0.0943,0.47663 0.26829,0.649059 0.17216,0.170316 0.40574,0.267717 0.64921,0.267717 z m -5.85671,-0.4755 c 0.32712,0 0.5915,-0.263822 0.5915,-0.588942 10e-4,-0.156137 -0.0633,-0.306976 -0.17216,-0.417914 -0.11,-0.110255 -0.26171,-0.173225 -0.41866,-0.171632 -0.32597,0 -0.5903,0.263819 -0.5903,0.59032 9.8e-4,0.325106 0.26433,0.587674 0.5903,0.588909 z m -4.71299,-0.639977 c 0.35865,-0.02 0.68586,-0.215389 0.8651,-0.52631 0.29183,-0.50535 0.1166,-1.149244 -0.38737,-1.440492 -0.50519,-0.291236 -1.15042,-0.118128 -1.44362,0.385329 -0.13998,0.242916 -0.17779,0.530238 -0.10647,0.800577 0.072,0.270373 0.25004,0.501525 0.49211,0.64124 0.17615,0.101291 0.37688,0.149832 0.57979,0.139604 z m 3.48398,-0.110685 c 0.13497,0 0.26697,-0.05229 0.36381,-0.149377 0.0947,-0.09421 0.15036,-0.225927 0.15036,-0.361706 0,-0.134535 -0.0526,-0.266498 -0.15036,-0.361719 -0.096,-0.09562 -0.22642,-0.150157 -0.36381,-0.150157 -0.13418,0 -0.26565,0.05411 -0.36119,0.150157 -0.0958,0.09543 -0.14997,0.225923 -0.14997,0.361719 0,0.282131 0.22904,0.510642 0.51036,0.510642 z M 24.29425,42.3073 c 0.358671,-0.02 0.684591,-0.215484 0.865126,-0.526294 0.290474,-0.504146 0.116228,-1.148057 -0.387514,-1.440475 -0.242172,-0.139566 -0.531221,-0.177366 -0.802283,-0.106592 -0.270742,0.07162 -0.501123,0.249391 -0.641164,0.492367 -0.29186,0.50402 -0.116228,1.147953 0.38728,1.43916 0.174969,0.103419 0.375637,0.149652 0.578555,0.141627 z m 10.622051,-0.484484 c 0.42922,0 0.77867,-0.348716 0.77737,-0.778412 0,-0.428374 -0.34815,-0.775697 -0.77737,-0.775697 -0.43062,0 -0.77999,0.347323 -0.77999,0.775697 0,0.207679 0.0826,0.404866 0.22771,0.551155 0.14717,0.146778 0.34541,0.227257 0.55228,0.227257 z m -5.36214,-0.137864 c 0.11472,9.31e-4 0.22511,-0.04543 0.3063,-0.125991 0.0823,-0.082 0.12838,-0.190154 0.12838,-0.305568 0,-0.114125 -0.0463,-0.224583 -0.12838,-0.305523 -0.0826,-0.082 -0.19077,-0.127986 -0.3063,-0.127986 -0.11298,0 -0.2251,0.04628 -0.30617,0.127986 -0.0823,0.082 -0.12654,0.190361 -0.12654,0.305523 0,0.114332 0.0459,0.224657 0.12654,0.305568 0.0824,0.082 0.19215,0.127991 0.30617,0.125991 z m 3.40021,-0.05743 c 0.3743,-10e-4 0.67931,-0.304291 0.67931,-0.679222 -0.001,-0.374744 -0.30501,-0.677835 -0.67931,-0.677835 -0.37559,0 -0.68047,0.303091 -0.68047,0.677835 -0.001,0.180371 0.0698,0.352671 0.19876,0.480691 0.12837,0.127847 0.30106,0.198542 0.48161,0.198542 z m 4.23914,-0.07669 c 0.24346,0 0.4777,-0.09543 0.6505,-0.269081 0.17116,-0.170329 0.26837,-0.404863 0.26837,-0.647747 0,-0.242887 -0.0958,-0.475393 -0.26837,-0.647766 -0.17217,-0.17196 -0.40704,-0.269068 -0.6505,-0.269068 -0.24337,0 -0.47636,0.09562 -0.64905,0.269068 -0.17076,0.171568 -0.26839,0.404879 -0.26839,0.647766 0,0.242884 0.0954,0.476647 0.26839,0.647747 0.17197,0.17179 0.40568,0.269081 0.64905,0.269081 z M 31.339401,41.0753 c 0.32586,-8.92e-4 0.58895,-0.264998 0.59028,-0.590213 0,-0.325271 -0.26442,-0.589046 -0.59028,-0.59032 -0.15636,0 -0.30753,0.064 -0.41885,0.173167 -0.11073,0.109995 -0.17377,0.261201 -0.17377,0.416677 0.001,0.326412 0.26572,0.590202 0.59292,0.590202 z m 8.35135,-0.434894 c 0.58373,0 1.05749,-0.472839 1.05749,-1.055223 0,-0.582482 -0.47376,-1.053969 -1.05749,-1.053969 -0.58374,0 -1.05617,0.471487 -1.05617,1.053969 0,0.582384 0.47243,1.055223 1.05617,1.055223 z m -9.58036,-0.316071 c 0.28272,0 0.51179,-0.228623 0.51179,-0.510696 0,-0.282091 -0.22907,-0.51056 -0.51179,-0.51056 -0.28257,0 -0.51172,0.228469 -0.51172,0.51056 0,0.282073 0.22915,0.510696 0.51172,0.510696 z m -2.79678,-0.455771 c 0.31149,-0.02 0.59547,-0.187365 0.75121,-0.455768 0.12273,-0.211578 0.1552,-0.461089 0.091,-0.696143 -0.0639,-0.235153 -0.21724,-0.434993 -0.42798,-0.556372 -0.43979,-0.253321 -0.99991,-0.10346 -1.25385,0.335615 -0.25246,0.437522 -0.10501,0.997744 0.335,1.251195 0.1523,0.08884 0.32721,0.130134 0.50386,0.122322 z m -2.686817,-0.377455 c 0.311343,-0.02 0.594134,-0.187371 0.751082,-0.457143 0.122732,-0.210277 0.153831,-0.460953 0.0913,-0.694739 -0.0641,-0.235123 -0.215911,-0.436163 -0.427952,-0.557692 -0.210701,-0.122382 -0.461976,-0.153381 -0.696289,-0.09034 -0.235631,0.064 -0.437271,0.216833 -0.558902,0.42705 -0.252625,0.438769 -0.103892,0.999119 0.337611,1.251219 0.151219,0.08962 0.327274,0.130369 0.502614,0.123566 z m 9.272537,-0.175773 c 0.43068,0 0.77999,-0.347419 0.77999,-0.777177 0,-0.20627 -0.0823,-0.403524 -0.22768,-0.549787 -0.14718,-0.14678 -0.34547,-0.228515 -0.55231,-0.228515 -0.20671,0 -0.40441,0.08364 -0.55098,0.228515 -0.14716,0.146767 -0.22905,0.343517 -0.22772,0.549787 0,0.429758 0.34949,0.777177 0.7787,0.777177 z m -1.96183,-0.195751 c 0.18078,0 0.35472,-0.07128 0.48159,-0.199773 0.12958,-0.127988 0.19896,-0.300459 0.19896,-0.479412 0,-0.180166 -0.0703,-0.35393 -0.19896,-0.48059 -0.12838,-0.129159 -0.30096,-0.199752 -0.48159,-0.199752 -0.37556,9.68e-4 -0.67926,0.305614 -0.67926,0.680386 0,0.37362 0.3037,0.67781 0.67926,0.679208 z m 4.24171,-0.08187 c 0.24348,0 0.47779,-0.09545 0.64925,-0.26771 0.17197,-0.171763 0.26956,-0.404876 0.26956,-0.647774 0,-0.242906 -0.0957,-0.476737 -0.26956,-0.647839 -0.17076,-0.171768 -0.40577,-0.269006 -0.64925,-0.269006 -0.24343,0 -0.47632,0.09566 -0.64908,0.269008 -0.17077,0.170761 -0.26836,0.404934 -0.26836,0.647838 0,0.242922 0.0957,0.475353 0.26836,0.647776 0.17196,0.170767 0.40565,0.267709 0.64908,0.267707 z m -13.68837,-0.365607 c 0.312641,-0.02 0.596638,-0.187173 0.752446,-0.457151 0.122858,-0.210239 0.154904,-0.461066 0.0913,-0.696048 -0.0641,-0.235172 -0.217335,-0.435012 -0.427942,-0.556446 -0.439891,-0.252022 -1.000002,-0.103191 -1.254008,0.335649 -0.252387,0.438876 -0.104835,0.997798 0.335146,1.251177 0.152121,0.08899 0.327012,0.130407 0.502537,0.123784 z m 7.83157,-0.109632 c 0.15657,0 0.30764,-0.06273 0.41883,-0.171576 0.11073,-0.110349 0.17377,-0.261268 0.17377,-0.417916 -0.001,-0.325237 -0.26563,-0.588992 -0.59296,-0.588992 -0.32586,0 -0.58885,0.263755 -0.59022,0.588992 0,0.326457 0.26436,0.590265 0.59022,0.590265 z m 8.35402,-0.434807 c 0.58367,0 1.05617,-0.471454 1.05617,-1.053991 0,-0.582449 -0.4725,-1.055258 -1.05617,-1.055258 -0.58368,0 -1.05616,0.472809 -1.05616,1.055258 0,0.582537 0.47248,1.053991 1.05616,1.053991 z m -10.5906,-0.575887 c 0.2643,-0.02 0.50516,-0.157567 0.6386,-0.38788 0.21467,-0.372227 0.0874,-0.847555 -0.28655,-1.061752 -0.3718,-0.214197 -0.84809,-0.08726 -1.06407,0.284645 -0.21465,0.372228 -0.0885,0.847629 0.28404,1.061752 0.12983,0.07386 0.27872,0.110755 0.42798,0.104146 z m -2.68691,-0.377344 c 0.26564,-0.02 0.5051,-0.159359 0.63726,-0.389336 0.21472,-0.370846 0.0893,-0.846266 -0.283953,-1.061751 -0.179229,-0.104581 -0.392681,-0.130368 -0.59148,-0.07584 -0.200367,0.05236 -0.370513,0.18437 -0.473814,0.36301 -0.214699,0.37101 -0.0893,0.846389 0.285225,1.061792 0.129994,0.07384 0.277438,0.109641 0.426762,0.104147 z m 8.40229,-0.617916 c 0.099,-8.93e-4 0.19635,-0.03 0.28269,-0.07944 0.28272,-0.163753 0.37828,-0.523723 0.21595,-0.805786 -0.16437,-0.282136 -0.52614,-0.377414 -0.80751,-0.215452 -0.28272,0.16377 -0.37964,0.524917 -0.21598,0.805796 0.1086,0.187371 0.30884,0.300348 0.52485,0.295113 z m 7.43517,-0.108744 c 0.32718,0 0.64129,-0.130376 0.87289,-0.36177 0.23168,-0.231254 0.36128,-0.544666 0.36128,-0.871186 0,-0.680399 -0.55232,-1.232815 -1.23417,-1.232815 -0.3285,0 -0.64265,0.129782 -0.87427,0.360448 -0.23156,0.231162 -0.36262,0.544533 -0.36262,0.872367 0,0.32652 0.12998,0.639932 0.36262,0.872429 0.23162,0.231086 0.54577,0.36048 0.87427,0.36048 z m -17.972144,-0.09142 c 0.26445,-0.02 0.505119,-0.159171 0.638733,-0.389186 0.214524,-0.370869 0.0874,-0.846353 -0.286644,-1.06181 -0.373039,-0.214169 -0.84816,-0.08726 -1.064095,0.285987 -0.214704,0.37101 -0.0887,0.846295 0.284083,1.061827 0.129217,0.07384 0.278828,0.110168 0.427923,0.103989 z m 5.884234,-0.547252 c 0.23036,-0.02 0.44119,-0.137779 0.5562,-0.339568 0.0907,-0.154775 0.1146,-0.340795 0.0694,-0.514543 -0.0463,-0.174562 -0.16118,-0.322534 -0.3167,-0.412649 -0.15636,-0.08964 -0.34293,-0.114172 -0.51699,-0.06964 -0.17379,0.04633 -0.32331,0.160759 -0.41362,0.316111 -0.0901,0.156375 -0.11434,0.342219 -0.069,0.515896 0.0485,0.173167 0.1614,0.322573 0.31804,0.412736 0.11138,0.06616 0.24222,0.09563 0.37295,0.08964 z m 6.35278,-0.06616 c 0.0874,-0.0036 0.17117,-0.02699 0.24479,-0.06984 0.117,-0.06874 0.20422,-0.178761 0.23953,-0.309478 0.0334,-0.130971 0.02,-0.270377 -0.0513,-0.387881 -0.0697,-0.116355 -0.17917,-0.202439 -0.31146,-0.237726 -0.13077,-0.03416 -0.27093,-0.02 -0.38878,0.05036 -0.24337,0.14316 -0.32718,0.453143 -0.18617,0.69743 0.0917,0.162371 0.26699,0.259907 0.45416,0.256012 z m -9.04101,-0.314722 c 0.23167,-0.02 0.44103,-0.136181 0.55629,-0.337015 0.091,-0.154765 0.11446,-0.340829 0.0699,-0.515876 -0.0466,-0.173163 -0.16121,-0.322613 -0.31674,-0.412676 -0.15517,-0.08963 -0.34161,-0.112579 -0.51688,-0.06894 -0.17363,0.04858 -0.32196,0.160765 -0.41236,0.317394 -0.187572,0.323917 -0.0746,0.739232 0.24878,0.925976 0.11126,0.066 0.24208,0.09583 0.37166,0.08963 z m 10.57098,-0.01216 c 0.0714,-0.0036 0.14358,-0.024 0.20554,-0.05764 0.20674,-0.117984 0.27751,-0.382762 0.15797,-0.589043 -0.0563,-0.09856 -0.15137,-0.171767 -0.26303,-0.20116 -0.11,-0.03016 -0.22899,-0.02 -0.32855,0.04458 -0.099,0.056 -0.17077,0.150771 -0.20154,0.262508 -0.0302,0.110343 -0.02,0.228555 0.0458,0.327851 0.077,0.134778 0.22635,0.219317 0.38479,0.215435 z m -3.63309,-0.405045 c 0.11434,-0.0036 0.22642,-0.03126 0.32589,-0.08964 0.15498,-0.09035 0.26953,-0.238912 0.31664,-0.412634 0.0486,-0.173168 0.0237,-0.359231 -0.069,-0.51596 -0.0902,-0.155161 -0.23955,-0.269002 -0.41359,-0.314615 -0.17357,-0.04856 -0.35996,-0.024 -0.51566,0.06895 -0.32587,0.188371 -0.43716,0.602044 -0.24996,0.927199 0.12539,0.214037 0.35597,0.344751 0.60455,0.338116 z m -9.071103,-0.407315 c 0.230289,-0.02 0.439772,-0.136173 0.556203,-0.337033 0.0899,-0.155968 0.114226,-0.342131 0.06881,-0.515918 -0.0487,-0.173163 -0.161203,-0.322455 -0.316569,-0.412613 -0.156534,-0.08963 -0.343071,-0.112568 -0.517135,-0.06896 -0.173617,0.04834 -0.323155,0.160766 -0.413457,0.317317 -0.18758,0.323933 -0.0746,0.73919 0.248745,0.925972 0.112995,0.066 0.243356,0.09542 0.374139,0.08966 z m 6.028093,-0.05236 c 0.20162,-0.016 0.38352,-0.122372 0.48437,-0.295216 0.076,-0.134778 0.099,-0.29646 0.0577,-0.447935 -0.0437,-0.15077 -0.14198,-0.2795 -0.27615,-0.357765 -0.13497,-0.07654 -0.29709,-0.09854 -0.44892,-0.05742 -0.15077,0.04074 -0.28007,0.139574 -0.35855,0.275607 -0.0769,0.134779 -0.0989,0.296479 -0.0577,0.447947 0.041,0.150172 0.13999,0.279525 0.27612,0.357792 0.0967,0.05501 0.20931,0.08474 0.32317,0.07674 z m 5.1174,-0.131174 c 0.0989,-0.0036 0.19635,-0.03 0.28264,-0.07674 0.28272,-0.163966 0.3796,-0.524999 0.21595,-0.805877 -0.16437,-0.282081 -0.52472,-0.378703 -0.80748,-0.215393 -0.28272,0.163766 -0.37954,0.52365 -0.21595,0.805715 0.10977,0.185765 0.30886,0.297779 0.52484,0.293875 z m 1.80738,-0.115174 c 0.0874,-0.0036 0.16976,-0.02701 0.24345,-0.06984 0.11634,-0.06874 0.20415,-0.178769 0.23952,-0.309497 0.0347,-0.13098 0.02,-0.270385 -0.0502,-0.387884 -0.0694,-0.116361 -0.18077,-0.20372 -0.31157,-0.237693 -0.12998,-0.034 -0.2709,-0.02 -0.38864,0.05036 -0.1166,0.06874 -0.20296,0.180169 -0.23825,0.310675 -0.0343,0.13018 -0.02,0.27041 0.0513,0.387903 0.0917,0.160971 0.26711,0.258649 0.45416,0.254793 z m -9.6129,-0.129584 c 0.20153,-0.02 0.38345,-0.122379 0.48417,-0.296384 0.1643,-0.282041 0.0681,-0.642508 -0.21601,-0.80592 -0.13493,-0.07564 -0.29705,-0.09858 -0.44886,-0.056 -0.15015,0.04074 -0.28005,0.139769 -0.35855,0.274181 -0.16432,0.282127 -0.0681,0.642592 0.21597,0.80586 0.0966,0.056 0.21066,0.08584 0.32328,0.07942 z m 4.83978,-0.806918 c 0.13039,-0.0036 0.25785,-0.03858 0.37175,-0.105383 0.37167,-0.214212 0.4986,-0.689578 0.28405,-1.061702 -0.21468,-0.370943 -0.69112,-0.498935 -1.06411,-0.284758 -0.17917,0.104165 -0.31017,0.272925 -0.36385,0.472781 -0.0527,0.199764 -0.0273,0.411357 0.0769,0.590405 0.14358,0.246768 0.40824,0.395559 0.69353,0.387799 z m -3.64626,0 c 0.17498,-0.014 0.33247,-0.104559 0.42013,-0.253428 0.0694,-0.116549 0.0874,-0.257367 0.0513,-0.387939 -0.034,-0.13118 -0.12273,-0.242833 -0.23954,-0.31076 -0.24474,-0.139574 -0.55621,-0.05526 -0.69772,0.188565 -0.0686,0.115218 -0.0874,0.25599 -0.0506,0.386546 0.0344,0.131572 0.12273,0.242908 0.23818,0.310794 0.086,0.04984 0.18342,0.07074 0.28011,0.068 z m -3.328201,-0.02 c 0.201551,-0.016 0.384811,-0.120365 0.485531,-0.295239 0.0759,-0.133777 0.0964,-0.296483 0.056,-0.446608 -0.0408,-0.150973 -0.13998,-0.280721 -0.27477,-0.359191 -0.135218,-0.07564 -0.298401,-0.09855 -0.448892,-0.05742 -0.15123,0.04326 -0.281338,0.14158 -0.358655,0.275611 -0.0767,0.134571 -0.09918,0.296436 -0.05767,0.447988 0.04085,0.15037 0.139994,0.280703 0.274849,0.357848 0.0967,0.05526 0.20944,0.08496 0.323215,0.07674 z m 11.718811,-0.369811 c 0.0966,-0.0036 0.19497,-0.03 0.28147,-0.07964 0.13518,-0.076 0.23421,-0.206321 0.27614,-0.357829 0.041,-0.15017 0.02,-0.31218 -0.0577,-0.447976 -0.16436,-0.280879 -0.52478,-0.377456 -0.80751,-0.215472 -0.13497,0.07658 -0.23559,0.207621 -0.2762,0.359133 -0.041,0.149764 -0.02,0.312096 0.0577,0.447928 0.10872,0.18576 0.31014,0.299222 0.52611,0.293822 z m -2.17912,-0.105175 c 0.11301,-0.0036 0.2251,-0.03103 0.32326,-0.08963 0.15637,-0.08963 0.27098,-0.237653 0.31803,-0.411318 0.0463,-0.174565 0.0237,-0.360569 -0.0687,-0.515894 -0.0901,-0.15617 -0.23965,-0.270334 -0.41369,-0.317379 -0.17497,-0.04635 -0.36113,-0.024 -0.51683,0.06896 -0.15636,0.09016 -0.27106,0.239053 -0.31807,0.412716 -0.0467,0.173168 -0.0218,0.359133 0.0693,0.51586 0.12638,0.215509 0.3586,0.344871 0.60729,0.338271 z m -8.34481,-0.330381 c 0.17363,-0.016 0.33115,-0.105383 0.41883,-0.254668 0.07,-0.116356 0.0874,-0.257268 0.0513,-0.387915 -0.0343,-0.130987 -0.12072,-0.243 -0.23821,-0.310901 -0.1166,-0.06874 -0.2578,-0.08726 -0.38877,-0.05034 -0.1303,0.03474 -0.24329,0.122369 -0.31137,0.239068 -0.0697,0.116549 -0.0874,0.255952 -0.0507,0.387865 0.0343,0.130169 0.12048,0.241633 0.2382,0.309517 0.086,0.05016 0.1836,0.07125 0.28152,0.06926 z m 1.15573,-0.462342 c 0.14695,-0.01216 0.28006,-0.08873 0.35473,-0.214238 0.11836,-0.206323 0.0484,-0.470053 -0.15965,-0.589006 -0.0989,-0.05742 -0.21726,-0.07342 -0.32855,-0.04496 -0.11047,0.03058 -0.20541,0.103398 -0.26308,0.20122 -0.056,0.09855 -0.072,0.216678 -0.0443,0.327635 0.03,0.110762 0.10369,0.205119 0.20151,0.262587 0.072,0.04342 0.1549,0.06274 0.23827,0.05499 z m 3.12672,-0.342236 c 0.15217,-0.0058 0.30354,-0.04834 0.43706,-0.124779 0.43839,-0.253346 0.59017,-0.812379 0.33631,-1.251144 -0.12274,-0.210305 -0.32192,-0.364368 -0.55745,-0.427074 -0.2356,-0.06526 -0.48559,-0.03036 -0.69758,0.09054 -0.21084,0.12237 -0.3639,0.321251 -0.42674,0.556347 -0.064,0.235124 -0.0294,0.485902 0.0907,0.696061 0.16856,0.28994 0.48031,0.465061 0.81671,0.458505 z m 5.83835,-0.300294 c 0.11501,-0.0036 0.22648,-0.03126 0.32585,-0.08967 0.15517,-0.08964 0.27097,-0.237798 0.31685,-0.41286 0.0487,-0.173168 0.0234,-0.359051 -0.0697,-0.51448 -0.0897,-0.155968 -0.23823,-0.270383 -0.4136,-0.317394 -0.17356,-0.04874 -0.3599,-0.024 -0.51567,0.06925 -0.15637,0.08964 -0.27093,0.238876 -0.31801,0.412722 -0.0486,0.173164 -0.0239,0.359125 0.0693,0.515855 0.12518,0.214173 0.35602,0.344589 0.60464,0.338253 z m -2.66985,-0.210281 c 0.13039,-0.0036 0.25903,-0.03853 0.37167,-0.10434 0.17917,-0.105382 0.3102,-0.274223 0.36256,-0.472687 0.0526,-0.199756 0.0273,-0.412757 -0.0769,-0.591677 -0.21459,-0.370861 -0.69095,-0.4975 -1.06401,-0.283402 -0.37173,0.215552 -0.49996,0.690921 -0.28539,1.061768 0.14357,0.24703 0.40848,0.395783 0.69372,0.389281 z m -5.32289,-0.984743 c 0.17633,-0.0074 0.34951,-0.05258 0.5027,-0.141369 0.24331,-0.139781 0.42005,-0.370967 0.4933,-0.641268 0.072,-0.270357 0.0343,-0.557709 -0.1066,-0.800501 -0.13997,-0.243018 -0.37034,-0.419336 -0.64127,-0.491143 -0.27097,-0.07164 -0.56009,-0.034 -0.8022,0.10634 -0.50524,0.291346 -0.678,0.935132 -0.38611,1.439248 0.19216,0.334297 0.55353,0.53678 0.93965,0.528913 z m 7.1015,-0.449274 c 0.12997,-0.0058 0.25786,-0.03853 0.3717,-0.106157 0.37169,-0.214287 0.49864,-0.68964 0.28403,-1.06179 -0.21471,-0.371061 -0.69108,-0.499058 -1.06403,-0.284864 -0.37309,0.214219 -0.49996,0.689524 -0.28536,1.061852 0.14197,0.246829 0.40826,0.397019 0.69366,0.390497 z m -3.27592,-0.189374 c 0.15377,-0.0058 0.30503,-0.04633 0.43846,-0.124178 0.43849,-0.252011 0.58896,-0.812357 0.3364,-1.251209 -0.12274,-0.210236 -0.3233,-0.364388 -0.55755,-0.426996 -0.23558,-0.064 -0.48694,-0.03 -0.6976,0.09032 -0.21064,0.122377 -0.36514,0.322557 -0.42799,0.557671 -0.064,0.233869 -0.0294,0.484539 0.0917,0.694758 0.16836,0.289963 0.48022,0.46505 0.81534,0.457144 z m -6.7127,-0.467555 c 0.20548,-0.0074 0.40838,-0.064 0.58638,-0.166558 0.59025,-0.339616 0.79315,-1.09309 0.4528,-1.68215 -0.34162,-0.588966 -1.09666,-0.79154 -1.68703,-0.450509 -0.590291,0.339496 -0.791741,1.093 -0.451375,1.682066 0.224945,0.390499 0.646393,0.626916 1.099225,0.616475 z m 8.49131,-0.967803 c 0.15238,-0.0058 0.30369,-0.04654 0.43716,-0.123581 0.43989,-0.252078 0.59031,-0.812455 0.33637,-1.251234 -0.12273,-0.21028 -0.32198,-0.364359 -0.55756,-0.427091 -0.23551,-0.06384 -0.4855,-0.02942 -0.69751,0.09054 -0.21075,0.122379 -0.36383,0.321273 -0.42672,0.556391 -0.0646,0.235076 -0.0298,0.485859 0.091,0.69616 0.16897,0.289921 0.48161,0.464867 0.8166,0.457021 z m -3.93285,-0.06016 c 0.17617,-0.0058 0.3508,-0.05256 0.50254,-0.141371 0.5066,-0.291179 0.67924,-0.935077 0.38878,-1.440607 -0.13997,-0.241452 -0.37174,-0.419063 -0.64263,-0.492269 -0.27096,-0.07055 -0.55888,-0.03326 -0.80225,0.106162 -0.24338,0.139776 -0.42014,0.370864 -0.4921,0.641271 -0.072,0.2704 -0.0334,0.557636 0.10632,0.800596 0.19358,0.333072 0.55361,0.535495 0.93971,0.526295 z"
     id="start-here-kde-9-7-3" />
</svg>
