<?xml version="1.0" encoding="UTF-8" standalone="no"?>
<svg
   viewBox="0 0 64 64"
   version="1.1"
   id="svg12"
   sodipodi:docname="folder-wings.svg"
   inkscape:version="1.2.1 (9c6d41e410, 2022-07-14)"
   xmlns:inkscape="http://www.inkscape.org/namespaces/inkscape"
   xmlns:sodipodi="http://sodipodi.sourceforge.net/DTD/sodipodi-0.dtd"
   xmlns:xlink="http://www.w3.org/1999/xlink"
   xmlns="http://www.w3.org/2000/svg"
   xmlns:svg="http://www.w3.org/2000/svg"
   xmlns:rdf="http://www.w3.org/1999/02/22-rdf-syntax-ns#"
   xmlns:cc="http://creativecommons.org/ns#"
   xmlns:dc="http://purl.org/dc/elements/1.1/">
  <metadata
     id="metadata16">
    <rdf:RDF>
      <cc:Work
         rdf:about="">
        <dc:format>image/svg+xml</dc:format>
        <dc:type
           rdf:resource="http://purl.org/dc/dcmitype/StillImage" />
      </cc:Work>
    </rdf:RDF>
  </metadata>
  <sodipodi:namedview
     pagecolor="#ffffff"
     bordercolor="#666666"
     borderopacity="1"
     objecttolerance="10"
     gridtolerance="10"
     guidetolerance="10"
     inkscape:pageopacity="0"
     inkscape:pageshadow="2"
     inkscape:window-width="1920"
     inkscape:window-height="1004"
     id="namedview14"
     showgrid="false"
     inkscape:zoom="7.375"
     inkscape:cx="25.694915"
     inkscape:cy="50.372881"
     inkscape:window-x="0"
     inkscape:window-y="0"
     inkscape:window-maximized="1"
     inkscape:current-layer="svg12"
     inkscape:showpageshadow="2"
     inkscape:pagecheckerboard="0"
     inkscape:deskcolor="#d1d1d1"
     showguides="false">
    <inkscape:grid
       type="xygrid"
       id="grid2873" />
  </sodipodi:namedview>
  <defs
     id="defs3051">
    <linearGradient
       inkscape:collect="always"
       id="linearGradient1016">
      <stop
         style="stop-color:#ffe680;stop-opacity:1"
         offset="0"
         id="stop1008" />
      <stop
         style="stop-color:#ffe680;stop-opacity:1"
         offset="0.12825146"
         id="stop1010" />
      <stop
         style="stop-color:#ffaacc;stop-opacity:1"
         offset="0.5218882"
         id="stop1012" />
      <stop
         style="stop-color:#00ccff;stop-opacity:1"
         offset="1"
         id="stop1014" />
    </linearGradient>
    <style
       type="text/css"
       id="current-color-scheme">.ColorScheme-Text { color:#31363b; }
.ColorScheme-Background { color:#eff0f1; }
.ColorScheme-Highlight { color:#3daee9; }
.ColorScheme-ViewText { color:#31363b; }
.ColorScheme-ViewBackground { color:#fcfcfc; }
.ColorScheme-ViewHover { color:#93cee9; }
.ColorScheme-ViewFocus { color:#3daee9; }
.ColorScheme-ButtonText { color:#31363b; }
.ColorScheme-ButtonBackground { color:#eff0f1; }
.ColorScheme-ButtonHover { color:#93cee9; }
.ColorScheme-ButtonFocus { color:#3daee9; }
</style>
    <linearGradient
       inkscape:collect="always"
       id="linearGradient4393">
      <stop
         style="stop-color:#ffe680;stop-opacity:1"
         offset="0"
         id="stop4395" />
      <stop
         style="stop-color:#000000;stop-opacity:0;"
         offset="1"
         id="stop4397" />
    </linearGradient>
    <linearGradient
       inkscape:collect="always"
       xlink:href="#linearGradient886"
       id="linearGradient888"
       x1="75.75985"
       y1="208.49026"
       x2="91.646347"
       y2="264.21182"
       gradientUnits="userSpaceOnUse"
       gradientTransform="matrix(0.7314896,0,0,0.72862121,-27.038403,-142.51032)" />
    <linearGradient
       inkscape:collect="always"
       id="linearGradient886">
      <stop
         style="stop-color:#ffe166;stop-opacity:1;"
         offset="0"
         id="stop882" />
      <stop
         style="stop-color:#c6afe9;stop-opacity:1;"
         offset="0.48468637"
         id="stop1402" />
      <stop
         style="stop-color:#00aad4;stop-opacity:1"
         offset="1"
         id="stop884" />
    </linearGradient>
    <filter
       inkscape:collect="always"
       style="color-interpolation-filters:sRGB"
       id="filter1881"
       x="-0.09064882"
       width="1.1812976"
       y="-0.40803665"
       height="1.8160733">
      <feGaussianBlur
         inkscape:collect="always"
         stdDeviation="0.85615684"
         id="feGaussianBlur1883" />
    </filter>
    <inkscape:path-effect
       effect="fillet_chamfer"
       id="path-effect1331"
       is_visible="true"
       lpeversion="1"
       satellites_param="F,0,0,1,0,2.1166667,0,1 @ F,0,0,1,0,2.1166667,0,1 @ F,0,0,1,0,2.1166667,0,1 @ F,0,0,1,0,2.1166667,0,1"
       unit="px"
       method="arc"
       mode="F"
       radius="8"
       chamfer_steps="1"
       flexible="false"
       use_knot_distance="true"
       apply_no_radius="true"
       apply_with_radius="true"
       only_selected="false"
       hide_knots="false"
       nodesatellites_param="F,0,0,1,0,2.1166667,0,1 @ F,0,0,1,0,2.1166667,0,1 @ F,0,0,1,0,2.1166667,0,1 @ F,0,0,1,0,2.1166667,0,1" />
    <linearGradient
       inkscape:collect="always"
       xlink:href="#linearGradient1016"
       id="linearGradient854-7"
       x1="56.250744"
       y1="208.49011"
       x2="92.097359"
       y2="268.94839"
       gradientUnits="userSpaceOnUse"
       gradientTransform="matrix(0.7314896,0,0,0.72862121,-27.077043,-142.51032)" />
    <linearGradient
       inkscape:collect="always"
       xlink:href="#linearGradient4393"
       id="linearGradient668-3"
       gradientUnits="userSpaceOnUse"
       gradientTransform="matrix(3.6204685,0,0,3.4670854,3.0000975,-3596.8228)"
       x1="5"
       y1="1037.3622"
       x2="8"
       y2="1051.3622" />
  </defs>
  <path
     id="rect10"
     style="fill:url(#linearGradient888);fill-opacity:1;stroke-width:0.119494"
     d="m 6.0966975,9.4 c -1.7104,0 -3.09675,1.38103 -3.09675,3.08455 v 3.039 36.01029 c 0,1.70346 1.38635,3.08458 3.09675,3.08458 H 57.903382 c 1.7102,0 3.096481,-1.38111 3.096481,-3.08458 l -0.005,-32.68748 c -0.1316,-1.68954 0.0653,-5.59073 -5.7405,-5.59073 h -26.34702 c 0.0242,0 -1.90964,-1.73503 -3.63108,-2.76927 C 23.901023,9.59262 22.042883,9.4 22.042883,9.4 Z"
     sodipodi:nodetypes="scccscccccccs" />
  <path
     style="opacity:0.309598;fill:#000000;fill-opacity:1;stroke:none;stroke-width:0.144851;stroke-opacity:1;filter:url(#filter1881)"
     id="rect873"
     width="22.667437"
     height="5.0357642"
     x="46.507095"
     y="222.89639"
     transform="matrix(1.05206,0,0,1.4052333,-43.682933,-292.95826)"
     inkscape:path-effect="#path-effect1331"
     d="m 48.623762,222.89639 h 18.434103 a 2.1166667,2.1166667 45 0 1 2.116667,2.11667 v 0.80243 a 2.1166667,2.1166667 135 0 1 -2.116667,2.11667 l -18.434103,0 a 2.1166667,2.1166667 45 0 1 -2.116667,-2.11667 v -0.80243 a 2.1166667,2.1166667 135 0 1 2.116667,-2.11667 z"
     sodipodi:type="rect" />
  <path
     id="rect851"
     style="fill:#ffe57e;fill-opacity:1;stroke-width:0.193144"
     d="m 28.848112,16.55348 v 3.05695 h -7.22158 c 3.56696,-0.009 4.524911,-1.0483 7.22158,-3.05695 z m 0,0 h 28.909021 c 1.70351,-0.008 3.23618,1.36199 3.24272,3.05695 H 28.848112 Z M 6.0968875,19.61043 H 60.999863 v 30.96333 c 0,1.70172 -1.38628,3.08114 -3.096481,3.08114 H 6.0968875 c -1.7104,0 -3.09675,-1.37942 -3.09675,-3.08114 v -27.882 c 0,-1.70181 1.38635,-3.08133 3.09675,-3.08133 z"
     sodipodi:nodetypes="cccccccccccccsccc" />
  <path
     id="rect851-3"
     style="fill:url(#linearGradient854-7);fill-opacity:1;stroke-width:0.193226"
     d="m 29.207402,17.77076 -0.0784,3.19607 -7.1419,-0.13585 c 3.56705,-0.009 4.52482,-1.04952 7.22144,-3.06022 z m 0,0 h 28.696021 c 1.70347,-0.008 3.0899,1.36335 3.096509,3.06022 l -31.87208,0.13585 z M 6.0969375,20.83098 H 60.999943 V 50.5751 c 0,1.70361 -1.386291,3.08458 -3.09652,3.08457 H 6.0969375 c -1.71042,1e-5 -3.09677,-1.38096 -3.09677,-3.08457 V 23.9156 c 0,-1.70354 1.38635,-3.08462 3.09677,-3.08462 z"
     sodipodi:nodetypes="cccccccccccsccssc" />
  <rect
     style="fill:#ffffff;fill-opacity:0.987883;stroke:#e5e9ef;stroke-width:0.580474;stroke-opacity:1;paint-order:markers fill stroke"
     id="rect2191"
     width="57.5"
     height="7.2964485e-07"
     x="3.2500565"
     y="47.690243" />
  <rect
     style="fill:#ffffff;fill-opacity:0.972837;stroke:#e5e9ef;stroke-width:0.580474;stroke-opacity:1;paint-order:markers fill stroke"
     id="rect2191-0-9"
     width="57.5"
     height="7.2964485e-07"
     x="3.2500565"
     y="50.690243" />
  <path
     style="opacity:0.181;fill:url(#linearGradient668-3);fill-opacity:1;fill-rule:evenodd;stroke:none;stroke-width:3.54294px;stroke-linecap:butt;stroke-linejoin:miter;stroke-opacity:1"
     d="M 6.0000575,20.8 31.963802,48.33972 H 60.927533 L 61.000033,20.8 H 6.0588375 Z"
     id="path4152-2-5"
     inkscape:connector-curvature="0"
     sodipodi:nodetypes="cccccc" />
  <path
     d="m 27.251708,26.00014 c -1.050267,1.384822 -1.739891,2.913608 -2.161457,4.552086 -0.129147,0.502741 -0.190074,1.007767 -0.129147,1.528787 0.06096,0.523309 0.324092,0.94378 0.674991,1.334548 0.582407,0.648994 1.252532,1.220288 1.888534,1.816724 1.637546,1.540213 3.226354,3.12156 4.807849,4.712046 0.857761,0.859229 1.776448,1.6659 2.678062,2.488566 0.141346,0.127972 0.12916,0.185101 0,0.31307 -1.074635,1.048902 -2.144396,2.106938 -3.20929,3.167264 -0.112098,0.109695 -0.173009,0.116545 -0.287538,0.01142 -1.072208,-0.978058 -2.146849,-1.951545 -3.226353,-2.920462 -0.08768,-0.07765 -0.08046,-0.116553 0,-0.185101 0.631134,-0.548452 1.259834,-1.096887 1.886096,-1.649906 0.08046,-0.07309 0.136466,-0.07086 0.214441,0 0.280241,0.244517 0.560471,0.489032 0.850451,0.724407 0.09991,0.07998 0.07795,0.125683 0,0.203377 l -0.611639,0.632996 c -0.08286,0.08231 -0.08768,0.130253 0.0102,0.207953 0.289981,0.235376 0.572648,0.477605 0.850446,0.722115 0.08283,0.07315 0.136461,0.08916 0.224196,-0.0047 0.338707,-0.361058 0.682306,-0.715262 1.03321,-1.064895 0.095,-0.0937 0.07793,-0.143968 -0.0069,-0.233089 -0.472752,-0.48674 -0.957675,-0.959776 -1.447476,-1.428241 -0.967417,-0.920926 -1.9324,-1.848709 -2.955861,-2.7148 -1.094125,-0.927785 -2.23457,-1.800723 -3.37256,-2.678233 -0.504421,-0.386196 -0.999089,-0.776962 -1.464523,-1.206578 -0.180336,-0.166818 -0.341154,-0.34963 -0.484942,-0.54616 -0.180312,-0.244513 -0.253411,-0.505023 -0.190056,-0.806666 0.506851,-2.346882 1.715514,-4.346419 3.438355,-6.087731 0.165691,-0.169103 0.341151,-0.331352 0.519032,-0.491315 C 26.940658,26.258226 27.096618,26.130256 27.252578,26 Z m 9.452427,0.05028 c 0.214444,0.111974 0.333843,0.2468 0.467868,0.367915 1.622929,1.483079 2.843775,3.208393 3.562632,5.233064 0.163269,0.454755 0.287545,0.918643 0.38258,1.391681 0.03904,0.19881 0.0032,0.374765 -0.09258,0.548444 -0.275361,0.507302 -0.718855,0.882075 -1.169673,1.240854 -1.111188,0.888937 -2.244302,1.750447 -3.348188,2.641674 -0.908931,0.73354 -1.781311,1.505932 -2.622017,2.308034 -0.03656,0.0343 -0.07804,0.06398 -0.107224,0.102825 -0.129162,0.164535 -0.229069,0.150823 -0.367968,-0.01142 -0.22905,-0.262798 -0.484917,-0.502741 -0.735914,-0.744971 -0.08283,-0.07998 -0.08532,-0.127971 -0.003,-0.214806 1.332934,-1.343688 2.658568,-2.694229 4.062174,-3.976217 0.55316,-0.505026 1.094134,-1.021483 1.605869,-1.565355 0.611641,-0.648992 0.760284,-1.412242 0.61651,-2.221198 -0.316789,-1.82129 -1.057573,-3.489474 -2.193134,-4.999978 -0.01226,-0.0137 -0.01947,-0.03199 -0.05849,-0.10055 z m -2.127343,9.689172 c -0.0095,-0.696982 -0.0755,-1.345975 -0.765159,-1.755017 2.08104,-0.952926 3.111812,-2.650815 3.801437,-4.641209 0.494673,1.41453 0.626267,2.737649 -0.489796,3.937373 -0.784664,0.840948 -1.632673,1.624765 -2.466075,2.422289 -0.01457,0.01142 -0.03653,0.01366 -0.08044,0.03657 z M 30.127157,33.98229 c -0.692055,0.422756 -0.755413,1.074035 -0.779778,1.784724 -0.124282,-0.12111 -0.214445,-0.212519 -0.309486,-0.299357 -0.682307,-0.651278 -1.362171,-1.307124 -2.032297,-1.9744 -1.030778,-1.021476 -1.259843,-2.193777 -0.879699,-3.512326 0.05613,-0.187387 0.112092,-0.377057 0.170578,-0.56444 0.003,-0.0093 0.02194,-0.016 0.04389,-0.0343 0.682308,1.942404 1.696024,3.644863 3.786824,4.600072 z m 4.310741,-1.224864 c 0.163263,-0.486739 0.07551,-0.923213 -0.23394,-1.332257 -0.06337,-0.08685 -0.224185,-0.153112 -0.185202,-0.249086 0.03167,-0.07767 0.187637,-0.10969 0.287546,-0.164534 1.254961,-0.680983 2.120036,-1.647616 2.505058,-2.970738 0.0342,-0.116545 0.05115,-0.23309 0.07793,-0.36563 0.131589,0.230806 0.17789,0.733547 0.124281,1.085463 -0.141342,0.936926 -0.597031,1.739023 -1.169673,2.497705 -0.40452,0.543874 -0.867519,1.044328 -1.40605,1.499077 z m -4.915074,0.0093 c -0.360649,-0.27194 -0.657944,-0.589579 -0.947923,-0.918645 -0.589704,-0.664989 -1.091695,-1.380251 -1.415793,-2.193775 -0.233933,-0.596434 -0.309473,-1.208864 -0.18764,-1.835003 0.0069,-0.0343 0.01469,-0.06631 0.02693,-0.09827 0.0069,-0.01832 0.01701,-0.03657 0.03896,-0.07998 0.06573,0.283362 0.121833,0.548447 0.221743,0.799815 0.467869,1.188296 1.337817,2.038384 2.500177,2.643956 0.143777,0.07308 0.192512,0.1234 0.06095,0.253655 -0.385014,0.393054 -0.46787,0.854661 -0.324098,1.357402 z"
     id="path2986"
     style="fill:#fbfbfb;fill-opacity:1;stroke-width:0.0235977" />
</svg>
