<?xml version="1.0" encoding="UTF-8" standalone="no"?>
<svg
   viewBox="0 0 64 64"
   version="1.1"
   id="svg12"
   sodipodi:docname="folder-presentation.svg"
   inkscape:version="1.2.1 (9c6d41e410, 2022-07-14)"
   xmlns:inkscape="http://www.inkscape.org/namespaces/inkscape"
   xmlns:sodipodi="http://sodipodi.sourceforge.net/DTD/sodipodi-0.dtd"
   xmlns:xlink="http://www.w3.org/1999/xlink"
   xmlns="http://www.w3.org/2000/svg"
   xmlns:svg="http://www.w3.org/2000/svg"
   xmlns:rdf="http://www.w3.org/1999/02/22-rdf-syntax-ns#"
   xmlns:cc="http://creativecommons.org/ns#"
   xmlns:dc="http://purl.org/dc/elements/1.1/">
  <metadata
     id="metadata16">
    <rdf:RDF>
      <cc:Work
         rdf:about="">
        <dc:format>image/svg+xml</dc:format>
        <dc:type
           rdf:resource="http://purl.org/dc/dcmitype/StillImage" />
      </cc:Work>
    </rdf:RDF>
  </metadata>
  <sodipodi:namedview
     pagecolor="#ffffff"
     bordercolor="#666666"
     borderopacity="1"
     objecttolerance="10"
     gridtolerance="10"
     guidetolerance="10"
     inkscape:pageopacity="0"
     inkscape:pageshadow="2"
     inkscape:window-width="1920"
     inkscape:window-height="1004"
     id="namedview14"
     showgrid="true"
     inkscape:zoom="5.2149125"
     inkscape:cx="33.845247"
     inkscape:cy="54.938602"
     inkscape:window-x="0"
     inkscape:window-y="0"
     inkscape:window-maximized="1"
     inkscape:current-layer="svg12"
     inkscape:showpageshadow="2"
     inkscape:pagecheckerboard="0"
     inkscape:deskcolor="#d1d1d1">
    <inkscape:grid
       type="xygrid"
       id="grid2873" />
  </sodipodi:namedview>
  <defs
     id="defs3051">
    <style
       type="text/css"
       id="current-color-scheme">.ColorScheme-Text { color:#31363b; }
.ColorScheme-Background { color:#eff0f1; }
.ColorScheme-Highlight { color:#3daee9; }
.ColorScheme-ViewText { color:#31363b; }
.ColorScheme-ViewBackground { color:#fcfcfc; }
.ColorScheme-ViewHover { color:#93cee9; }
.ColorScheme-ViewFocus { color:#3daee9; }
.ColorScheme-ButtonText { color:#31363b; }
.ColorScheme-ButtonBackground { color:#eff0f1; }
.ColorScheme-ButtonHover { color:#93cee9; }
.ColorScheme-ButtonFocus { color:#3daee9; }
</style>
    <linearGradient
       inkscape:collect="always"
       id="linearGradient4393">
      <stop
         style="stop-color:#000000;stop-opacity:1;"
         offset="0"
         id="stop4395" />
      <stop
         style="stop-color:#000000;stop-opacity:0;"
         offset="1"
         id="stop4397" />
    </linearGradient>
    <filter
       inkscape:collect="always"
       style="color-interpolation-filters:sRGB"
       id="filter1881"
       x="-0.09064882"
       width="1.1812976"
       y="-0.40803665"
       height="1.8160733">
      <feGaussianBlur
         inkscape:collect="always"
         stdDeviation="0.85615684"
         id="feGaussianBlur1883" />
    </filter>
    <inkscape:path-effect
       effect="fillet_chamfer"
       id="path-effect1331"
       is_visible="true"
       lpeversion="1"
       satellites_param="F,0,0,1,0,2.1166667,0,1 @ F,0,0,1,0,2.1166667,0,1 @ F,0,0,1,0,2.1166667,0,1 @ F,0,0,1,0,2.1166667,0,1"
       unit="px"
       method="arc"
       mode="F"
       radius="8"
       chamfer_steps="1"
       flexible="false"
       use_knot_distance="true"
       apply_no_radius="true"
       apply_with_radius="true"
       only_selected="false"
       hide_knots="false"
       nodesatellites_param="F,0,0,1,0,2.1166667,0,1 @ F,0,0,1,0,2.1166667,0,1 @ F,0,0,1,0,2.1166667,0,1 @ F,0,0,1,0,2.1166667,0,1" />
    <linearGradient
       inkscape:collect="always"
       xlink:href="#linearGradient852"
       id="linearGradient854-7"
       x1="76.788559"
       y1="222.65123"
       x2="92.097359"
       y2="268.94839"
       gradientUnits="userSpaceOnUse"
       gradientTransform="matrix(0.7314896,0,0,0.72862121,-27.076952,-142.51033)" />
    <linearGradient
       inkscape:collect="always"
       id="linearGradient852">
      <stop
         style="stop-color:#87cdde;stop-opacity:1"
         offset="0"
         id="stop848" />
      <stop
         style="stop-color:#00ccff;stop-opacity:1"
         offset="1"
         id="stop850" />
    </linearGradient>
    <linearGradient
       inkscape:collect="always"
       xlink:href="#linearGradient4393"
       id="linearGradient668-3"
       gradientUnits="userSpaceOnUse"
       gradientTransform="matrix(3.6204685,0,0,3.4670854,3.0000785,-3596.8227)"
       x1="5"
       y1="1037.3622"
       x2="8"
       y2="1051.3622" />
  </defs>
  <path
     id="rect10"
     style="fill:#00aad4;fill-opacity:1;stroke-width:0.119494"
     d="m 6.0967885,9.4 c -1.7104,0 -3.09675,1.38103 -3.09675,3.08455 v 3.039 36.01029 c 0,1.70346 1.38635,3.08458 3.09675,3.08458 H 57.903481 c 1.7102,0 3.096481,-1.38111 3.096481,-3.08458 l -0.005,-32.68748 c -0.1316,-1.68954 0.0653,-5.59073 -5.7405,-5.59073 h -26.34703 c 0.0242,0 -1.909643,-1.73503 -3.631083,-2.76927 C 23.901109,9.59262 22.042969,9.4 22.042969,9.4 Z"
     sodipodi:nodetypes="scccscccccccs" />
  <path
     style="opacity:0.309598;fill:#000000;fill-opacity:1;stroke:none;stroke-width:0.144851;stroke-opacity:1;filter:url(#filter1881)"
     id="rect873"
     width="22.667437"
     height="5.0357642"
     x="46.507095"
     y="222.89639"
     transform="matrix(1.05206,0,0,1.4052333,-43.682842,-292.95827)"
     inkscape:path-effect="#path-effect1331"
     d="m 48.623762,222.89639 h 18.434103 a 2.1166667,2.1166667 45 0 1 2.116667,2.11667 v 0.80243 a 2.1166667,2.1166667 135 0 1 -2.116667,2.11667 l -18.434103,0 a 2.1166667,2.1166667 45 0 1 -2.116667,-2.11667 v -0.80243 a 2.1166667,2.1166667 135 0 1 2.116667,-2.11667 z"
     sodipodi:type="rect" />
  <path
     id="rect851"
     style="fill:#00c5f6;fill-opacity:1;stroke-width:0.193144"
     d="m 28.848202,16.55348 v 3.05695 h -7.221583 c 3.566959,-0.009 4.524919,-1.0483 7.221583,-3.05695 z m 0,0 h 28.90903 c 1.70351,-0.008 3.23617,1.36199 3.24272,3.05695 H 28.848202 Z M 6.0969785,19.61043 H 60.999962 v 30.96333 c 0,1.70172 -1.38628,3.08114 -3.096481,3.08114 H 6.0969785 c -1.7104,0 -3.09675,-1.37942 -3.09675,-3.08114 v -27.882 c 0,-1.70181 1.38635,-3.08133 3.09675,-3.08133 z"
     sodipodi:nodetypes="cccccccccccccsccc" />
  <path
     id="rect851-3"
     style="fill:url(#linearGradient854-7);fill-opacity:1;stroke-width:0.193226"
     d="m 29.207491,17.77076 -0.0784,3.19607 -7.141893,-0.13585 c 3.56704,-0.009 4.52481,-1.04952 7.221433,-3.06022 z m 0,0 h 28.69603 c 1.70347,-0.008 3.0899,1.36335 3.09651,3.06022 l -31.87209,0.13585 z M 6.0970285,20.83098 H 61.000042 V 50.5751 c 0,1.70361 -1.3863,3.08458 -3.09652,3.08457 H 6.0970285 c -1.71042,1e-5 -3.09677,-1.38096 -3.09677,-3.08457 V 23.9156 c 0,-1.70354 1.38635,-3.08462 3.09677,-3.08462 z"
     sodipodi:nodetypes="cccccccccccsccssc" />
  <rect
     style="fill:#ffffff;fill-opacity:0.25;stroke:#e5e9ef;stroke-width:0.580474;stroke-opacity:0.5;paint-order:markers fill stroke"
     id="rect2191"
     width="57.5"
     height="7.2964485e-07"
     x="3.2501502"
     y="47.690235" />
  <rect
     style="fill:#ffffff;fill-opacity:0.5;stroke:#e5e9ef;stroke-width:0.580474;stroke-opacity:0.5;paint-order:markers fill stroke"
     id="rect2191-0-9"
     width="57.5"
     height="7.2964485e-07"
     x="3.2501502"
     y="50.690235" />
  <path
     style="opacity:0.181;fill:url(#linearGradient668-3);fill-opacity:1;fill-rule:evenodd;stroke:none;stroke-width:3.54294px;stroke-linecap:butt;stroke-linejoin:miter;stroke-opacity:1"
     d="M 6.0000385,20.8 31.963782,48.33972 h 28.96374 L 61.000022,20.8 H 6.0588185 Z"
     id="path4152-2-5"
     inkscape:connector-curvature="0"
     sodipodi:nodetypes="cccccc" />
  <path
     fill-rule="evenodd"
     clip-rule="evenodd"
     d="M 39.14377,46 H 28.42873 c -0.39394,0 -0.71362,-0.32054 -0.71362,-0.71426 0,-0.39488 0.31968,-0.71463 0.71362,-0.71463 h 10.71504 c 0.78883,0 1.42851,-0.63968 1.42851,-1.42866 V 28.85677 c 0,-0.788899 -0.63968,-1.428179 -1.42851,-1.428179 H 24.8577 c -0.78882,0 -1.42882,0.63928 -1.42882,1.428179 v 13.57142 c 0,0.39489 -0.31944,0.71427 -0.71431,0.71427 -0.3941,0 -0.71442,-0.31938 -0.71442,-0.71427 V 28.85677 C 22.00015,27.27889 23.27999,26 24.8577,26 h 14.28607 c 1.57749,0 2.85638,1.27889 2.85638,2.85677 V 43.14245 C 42.00015,44.72033 40.72126,46 39.14377,46 Z M 25.57212,44.57111 c 0.39393,0 0.71425,0.31975 0.71425,0.71463 0,0.39372 -0.32032,0.71426 -0.71425,0.71426 -0.3948,0 -0.71442,-0.32054 -0.71442,-0.71426 0,-0.39488 0.31962,-0.71463 0.71442,-0.71463 z"
     id="path2-7-3"
     style="fill:#ffffff;fill-opacity:1;stroke-width:0.0446425" />
  <path
     fill-rule="evenodd"
     clip-rule="evenodd"
     d="m 37.03845,38.96655 c -0.18408,0 -0.33334,-0.14923 -0.33334,-0.33331 V 33.2999 c 0,-0.18408 -0.14919,-0.33335 -0.33326,-0.33335 h -0.66674 c -0.18408,0 -0.33326,0.14927 -0.33326,0.33335 v 6.83334 c 0,0.46032 -0.37308,0.83331 -0.8334,0.83331 h -0.33334 c -0.46026,0 -0.83326,-0.37299 -0.83326,-0.83331 v -3.5 c 0,-0.18407 -0.14932,-0.33335 -0.3334,-0.33335 h -0.6666 c -0.18407,0 -0.3334,0.14928 -0.3334,0.33335 v 3.5 c 0,0.46032 -0.373,0.83331 -0.83334,0.83331 h -0.33326 c -0.46032,0 -0.8334,-0.37299 -0.8334,-0.83331 v -2.16669 c 0,-0.18412 -0.14918,-0.33331 -0.33334,-0.33331 h -0.66666 c -0.18407,0 -0.33334,0.14918 -0.33334,0.33331 v 2.33335 c 0,0.36815 -0.29852,0.66665 -0.66666,0.66665 -0.7363,0 -1.33334,-0.59696 -1.33334,-1.33331 v -6 -2.33335 c 0,-0.184069 0.14927,-0.33334 0.33334,-0.33334 0.18408,0 0.3334,0.149271 0.3334,0.33334 v 1.17989 1.15346 6 c 0,0.36815 0.25675,0.66665 0.5,0.66665 0.0923,0 0.1666,-0.0745 0.1666,-0.16665 v -2.33335 c 0,-0.46026 0.37308,-0.83334 0.8334,-0.83334 h 1 c 0.46026,0 0.83326,0.37308 0.83326,0.83334 v 2.16667 c 0,0.18407 0.14927,0.33333 0.33334,0.33333 0.18407,0 0.3334,-0.14926 0.3334,-0.33333 v -3.50001 c 0,-0.46032 0.373,-0.83331 0.83326,-0.83331 h 1 c 0.46034,0 0.83334,0.37299 0.83334,0.83331 v 3.50001 c 0,0.18407 0.14932,0.33333 0.3334,0.33333 0.18407,0 0.33326,-0.14926 0.33326,-0.33333 v -6.83332 c 0,-0.46035 0.37308,-0.83335 0.83334,-0.83335 h 1 c 0.46032,0 0.8334,0.373 0.8334,0.83335 v 5.5 c 0,0.18408 -0.14933,0.33331 -0.3334,0.33331 z m 0,0.66669 c 0.18407,0 0.3334,0.14918 0.3334,0.33331 0,0.18408 -0.14933,0.33335 -0.3334,0.33335 -0.18408,0 -0.33334,-0.14927 -0.33334,-0.33335 0,-0.18412 0.14926,-0.33331 0.33334,-0.33331 z"
     id="path2-3-3-5-5"
     style="fill:#ffffff;fill-opacity:1;stroke-width:0.0208334" />
</svg>
