<?xml version="1.0" encoding="UTF-8" standalone="no"?>
<svg
   viewBox="0 0 64 64"
   version="1.1"
   id="svg12"
   sodipodi:docname="folder-notes.svg"
   inkscape:version="1.2.1 (9c6d41e410, 2022-07-14)"
   xmlns:inkscape="http://www.inkscape.org/namespaces/inkscape"
   xmlns:sodipodi="http://sodipodi.sourceforge.net/DTD/sodipodi-0.dtd"
   xmlns:xlink="http://www.w3.org/1999/xlink"
   xmlns="http://www.w3.org/2000/svg"
   xmlns:svg="http://www.w3.org/2000/svg"
   xmlns:rdf="http://www.w3.org/1999/02/22-rdf-syntax-ns#"
   xmlns:cc="http://creativecommons.org/ns#"
   xmlns:dc="http://purl.org/dc/elements/1.1/">
  <metadata
     id="metadata16">
    <rdf:RDF>
      <cc:Work
         rdf:about="">
        <dc:format>image/svg+xml</dc:format>
        <dc:type
           rdf:resource="http://purl.org/dc/dcmitype/StillImage" />
      </cc:Work>
    </rdf:RDF>
  </metadata>
  <sodipodi:namedview
     pagecolor="#ffffff"
     bordercolor="#666666"
     borderopacity="1"
     objecttolerance="10"
     gridtolerance="10"
     guidetolerance="10"
     inkscape:pageopacity="0"
     inkscape:pageshadow="2"
     inkscape:window-width="1920"
     inkscape:window-height="1004"
     id="namedview14"
     showgrid="false"
     inkscape:zoom="5.2149125"
     inkscape:cx="47.651806"
     inkscape:cy="39.214464"
     inkscape:window-x="0"
     inkscape:window-y="0"
     inkscape:window-maximized="1"
     inkscape:current-layer="svg12"
     inkscape:showpageshadow="2"
     inkscape:pagecheckerboard="0"
     inkscape:deskcolor="#d1d1d1">
    <inkscape:grid
       type="xygrid"
       id="grid2873" />
  </sodipodi:namedview>
  <defs
     id="defs3051">
    <style
       type="text/css"
       id="current-color-scheme">.ColorScheme-Text { color:#31363b; }
.ColorScheme-Background { color:#eff0f1; }
.ColorScheme-Highlight { color:#3daee9; }
.ColorScheme-ViewText { color:#31363b; }
.ColorScheme-ViewBackground { color:#fcfcfc; }
.ColorScheme-ViewHover { color:#93cee9; }
.ColorScheme-ViewFocus { color:#3daee9; }
.ColorScheme-ButtonText { color:#31363b; }
.ColorScheme-ButtonBackground { color:#eff0f1; }
.ColorScheme-ButtonHover { color:#93cee9; }
.ColorScheme-ButtonFocus { color:#3daee9; }
</style>
    <linearGradient
       inkscape:collect="always"
       id="linearGradient4393">
      <stop
         style="stop-color:#000000;stop-opacity:1;"
         offset="0"
         id="stop4395" />
      <stop
         style="stop-color:#000000;stop-opacity:0;"
         offset="1"
         id="stop4397" />
    </linearGradient>
    <linearGradient
       inkscape:collect="always"
       xlink:href="#linearGradient886"
       id="linearGradient888"
       x1="75.75985"
       y1="208.49026"
       x2="91.646347"
       y2="264.21182"
       gradientUnits="userSpaceOnUse"
       gradientTransform="matrix(0.7314896,0,0,0.72862121,-27.038312,-142.51033)" />
    <linearGradient
       inkscape:collect="always"
       id="linearGradient886">
      <stop
         style="stop-color:#ad7fa8;stop-opacity:1"
         offset="0"
         id="stop882" />
      <stop
         style="stop-color:#c6afe9;stop-opacity:1;"
         offset="0.48468637"
         id="stop1402" />
      <stop
         style="stop-color:#96699e;stop-opacity:1;"
         offset="1"
         id="stop884" />
    </linearGradient>
    <filter
       inkscape:collect="always"
       style="color-interpolation-filters:sRGB"
       id="filter1881"
       x="-0.09064882"
       width="1.1812976"
       y="-0.40803665"
       height="1.8160733">
      <feGaussianBlur
         inkscape:collect="always"
         stdDeviation="0.85615684"
         id="feGaussianBlur1883" />
    </filter>
    <inkscape:path-effect
       effect="fillet_chamfer"
       id="path-effect1331"
       is_visible="true"
       lpeversion="1"
       satellites_param="F,0,0,1,0,2.1166667,0,1 @ F,0,0,1,0,2.1166667,0,1 @ F,0,0,1,0,2.1166667,0,1 @ F,0,0,1,0,2.1166667,0,1"
       unit="px"
       method="arc"
       mode="F"
       radius="8"
       chamfer_steps="1"
       flexible="false"
       use_knot_distance="true"
       apply_no_radius="true"
       apply_with_radius="true"
       only_selected="false"
       hide_knots="false"
       nodesatellites_param="F,0,0,1,0,2.1166667,0,1 @ F,0,0,1,0,2.1166667,0,1 @ F,0,0,1,0,2.1166667,0,1 @ F,0,0,1,0,2.1166667,0,1" />
    <linearGradient
       inkscape:collect="always"
       xlink:href="#linearGradient852"
       id="linearGradient854-7"
       x1="76.788559"
       y1="222.65123"
       x2="92.097359"
       y2="268.94839"
       gradientUnits="userSpaceOnUse"
       gradientTransform="matrix(0.7314896,0,0,0.72862121,-27.076952,-142.51033)" />
    <linearGradient
       inkscape:collect="always"
       id="linearGradient852">
      <stop
         style="stop-color:#ad7fa8;stop-opacity:1"
         offset="0"
         id="stop848" />
      <stop
         style="stop-color:#9b7bd4;stop-opacity:1;"
         offset="1"
         id="stop850" />
    </linearGradient>
    <linearGradient
       inkscape:collect="always"
       xlink:href="#linearGradient4393"
       id="linearGradient668-3"
       gradientUnits="userSpaceOnUse"
       gradientTransform="matrix(3.6204685,0,0,3.4670854,3.0001885,-3596.8227)"
       x1="5"
       y1="1037.3622"
       x2="8"
       y2="1051.3622" />
  </defs>
  <path
     id="rect10"
     style="fill:url(#linearGradient888);fill-opacity:1;stroke-width:0.119494"
     d="m 6.0967885,9.4 c -1.7104,0 -3.09675,1.38103 -3.09675,3.08455 v 3.039 36.01029 c 0,1.70346 1.38635,3.08458 3.09675,3.08458 H 57.903481 c 1.7102,0 3.096481,-1.38111 3.096481,-3.08458 l -0.005,-32.68748 c -0.1316,-1.68954 0.0653,-5.59073 -5.7405,-5.59073 H 28.907431 c 0.0242,0 -1.90964,-1.73503 -3.63108,-2.76927 C 23.901108,9.59262 22.042968,9.4 22.042968,9.4 Z"
     sodipodi:nodetypes="scccscccccccs" />
  <path
     style="opacity:0.309598;fill:#000000;fill-opacity:1;stroke:none;stroke-width:0.144851;stroke-opacity:1;filter:url(#filter1881)"
     id="rect873"
     width="22.667437"
     height="5.0357642"
     x="46.507095"
     y="222.89639"
     transform="matrix(1.05206,0,0,1.4052333,-43.682842,-292.95827)"
     inkscape:path-effect="#path-effect1331"
     d="m 48.623762,222.89639 h 18.434103 a 2.1166667,2.1166667 45 0 1 2.116667,2.11667 v 0.80243 a 2.1166667,2.1166667 135 0 1 -2.116667,2.11667 l -18.434103,0 a 2.1166667,2.1166667 45 0 1 -2.116667,-2.11667 v -0.80243 a 2.1166667,2.1166667 135 0 1 2.116667,-2.11667 z"
     sodipodi:type="rect" />
  <path
     id="rect851"
     style="fill:#9f6a99;fill-opacity:1;stroke-width:0.193144"
     d="m 28.848201,16.55348 v 3.05695 h -7.221583 c 3.566963,-0.009 4.524923,-1.0483 7.221583,-3.05695 z m 0,0 h 28.90903 c 1.70351,-0.008 3.23617,1.36199 3.24272,3.05695 H 28.848201 Z M 6.0969785,19.61043 H 60.999961 v 30.96333 c 0,1.70172 -1.38628,3.08114 -3.09648,3.08114 H 6.0969785 c -1.7104,0 -3.09675,-1.37942 -3.09675,-3.08114 v -27.882 c 0,-1.70181 1.38635,-3.08133 3.09675,-3.08133 z"
     sodipodi:nodetypes="cccccccccccccsccc" />
  <path
     id="rect851-3"
     style="fill:url(#linearGradient854-7);fill-opacity:1;stroke-width:0.193226"
     d="m 29.207491,17.77076 -0.0784,3.19607 -7.141893,-0.13585 c 3.567043,-0.009 4.524813,-1.04952 7.221433,-3.06022 z m 0,0 h 28.69603 c 1.70347,-0.008 3.0899,1.36335 3.09651,3.06022 l -31.87209,0.13585 z M 6.0970285,20.83098 H 61.000041 V 50.5751 c 0,1.70361 -1.3863,3.08458 -3.09652,3.08457 H 6.0970285 c -1.71042,1e-5 -3.09677,-1.38096 -3.09677,-3.08457 V 23.9156 c 0,-1.70354 1.38635,-3.08462 3.09677,-3.08462 z"
     sodipodi:nodetypes="cccccccccccsccssc" />
  <rect
     style="fill:#ffffff;fill-opacity:0.25;stroke:#e5e9ef;stroke-width:0.580474;stroke-opacity:0.5;paint-order:markers fill stroke"
     id="rect2191"
     width="57.5"
     height="7.2964485e-07"
     x="3.2501462"
     y="47.690235" />
  <rect
     style="fill:#ffffff;fill-opacity:0.5;stroke:#e5e9ef;stroke-width:0.580474;stroke-opacity:0.5;paint-order:markers fill stroke"
     id="rect2191-0-9"
     width="57.5"
     height="7.2964485e-07"
     x="3.2501462"
     y="50.690235" />
  <path
     style="opacity:0.181;fill:url(#linearGradient668-3);fill-opacity:1;fill-rule:evenodd;stroke:none;stroke-width:3.54294px;stroke-linecap:butt;stroke-linejoin:miter;stroke-opacity:1"
     d="M 6.0001485,20.8 31.963891,48.33972 h 28.96374 L 61.000131,20.8 H 6.0589285 Z"
     id="path4152-2-5"
     inkscape:connector-curvature="0"
     sodipodi:nodetypes="cccccc" />
  <path
     fill-rule="evenodd"
     clip-rule="evenodd"
     d="m 33.311075,31.31115 c 0,-0.34548 0.27987,-0.62499 0.62532,-0.62499 0.34514,0 0.62497,0.27951 0.62497,0.62499 0,0.34452 -0.27983,0.62438 -0.62497,0.62438 -0.34545,0 -0.62532,-0.27986 -0.62532,-0.62438 z m 8.96703,0.0491 -0.26334,0.26304 c -0.002,0.002 -0.004,0.002 -0.007,0.005 -0.47971,0.48003 -1.25152,0.48524 -1.74132,0.0212 l -1.61073,-1.61164 c -0.24385,-0.24382 -0.24385,-0.63966 0,-0.88349 0.24384,-0.24382 0.63969,-0.24382 0.88352,0 l 1.36108,1.36017 c 8.5e-4,0.002 0.002,0 0.003,0.002 0.12178,0.12177 0.31957,0.12177 0.44127,0 0.004,-0.004 0.007,-8.5e-4 0.0113,-0.002 l 0.038,-0.038 c 0.48857,-0.48798 0.48857,-1.27928 0,-1.76788 l -1.10443,-1.10443 c -0.48853,-0.48861 -1.27993,-0.48861 -1.7679,0 l -2.14441,2.14448 h -1.76853 -5.35925 -3.437855 c -0.86303,0 -1.56244,0.70009 -1.56244,1.5631 v 11.87473 c 0,0.86304 0.69941,1.56256 1.56244,1.56256 h 11.874745 c 0.86335,0 1.56255,-0.69952 1.56255,-1.56256 v -8.0374 c 0,-0.1721 -0.13977,-0.31218 -0.31224,-0.31218 -0.0861,0 -0.16447,0.0354 -0.22061,0.0916 -9.8e-4,8.2e-4 -8.1e-4,-0.004 -0.002,-0.003 l -3.47287,3.47235 c -0.37636,0.37657 -0.84294,0.60454 -1.33035,0.69058 -0.0922,0.0217 -0.18765,0.036 -0.28625,0.036 h -0.0881 c -0.0411,8.9e-4 -0.0834,8.9e-4 -0.12477,0 h -2.28759 c -0.68999,0 -1.24934,-0.55932 -1.24934,-1.24933 v -2.28759 c -6.7e-4,-0.0411 -6.7e-4,-0.0833 0,-0.1245 v -0.0881 c 0,-0.099 0.0139,-0.19449 0.0361,-0.28663 0.0864,-0.48703 0.31436,-0.95455 0.69096,-1.33085 l 1.3275,-1.32777 0.003,0.003 c 0.1127,-0.11355 0.26979,-0.18316 0.4422,-0.18316 0.3455,0 0.62502,0.27982 0.62502,0.62535 0,0.18943 -0.0867,0.35798 -0.22005,0.47237 l -1.29394,1.29395 c -0.2725,0.27194 -0.38693,0.63714 -0.35579,0.99302 -6.2e-4,0.0182 -0.005,0.0355 -0.005,0.0531 v 0.93723 c -3e-5,0.68994 0.56031,1.25025 1.25031,1.25025 h 0.9372 c 0.0182,0 0.0352,-0.004 0.0531,-0.005 0.35611,0.0314 0.7211,-0.0834 0.993,-0.35612 l 4.01371,-4.01374 c 0.22554,-0.22161 0.53564,-0.3128 0.87773,-0.3128 0.69059,0 1.2503,0.55937 1.2503,1.25 v 9.0622 c 0,1.38091 -1.11909,2.50064 -2.49973,2.50064 H 25.50029 C 24.11938,46 23,44.88027 23,43.49936 V 30.99974 c 0,-1.38095 1.11938,-2.49973 2.50029,-2.49973 h 10.358975 l 1.77916,-1.77921 C 38.126495,26.23256 38.766315,26 39.406185,26 c 0.63986,0 1.27974,0.23256 1.768,0.7208 l 1.10508,1.10508 c 0.48877,0.48877 0.72147,1.1378 0.72081,1.77843 -6.8e-4,0.63899 -0.23335,1.26969 -0.72081,1.75739 z"
     id="path2-1-3"
     style="fill:#ffffff;fill-opacity:1;stroke-width:0.0390623" />
</svg>
