<?xml version="1.0" encoding="UTF-8" standalone="no"?>
<svg
   sodipodi:docname="restart_primary.svg"
   inkscape:version="1.2.1 (9c6d41e410, 2022-07-14)"
   id="svg1699"
   version="1.1"
   viewBox="0 0 8.4666662 8.4666662"
   height="8.4666662mm"
   width="8.4666662mm"
   xmlns:inkscape="http://www.inkscape.org/namespaces/inkscape"
   xmlns:sodipodi="http://sodipodi.sourceforge.net/DTD/sodipodi-0.dtd"
   xmlns="http://www.w3.org/2000/svg"
   xmlns:svg="http://www.w3.org/2000/svg"
   xmlns:rdf="http://www.w3.org/1999/02/22-rdf-syntax-ns#"
   xmlns:cc="http://creativecommons.org/ns#"
   xmlns:dc="http://purl.org/dc/elements/1.1/">
  <defs
     id="defs1693" />
  <sodipodi:namedview
     inkscape:document-rotation="0"
     inkscape:window-maximized="1"
     inkscape:window-y="0"
     inkscape:window-x="0"
     inkscape:window-height="1004"
     inkscape:window-width="1920"
     showgrid="true"
     inkscape:current-layer="layer1"
     inkscape:document-units="mm"
     inkscape:cy="14.55251"
     inkscape:cx="6.0924825"
     inkscape:zoom="15.839192"
     inkscape:pageshadow="2"
     inkscape:pageopacity="0"
     borderopacity="1"
     bordercolor="#ff1919"
     pagecolor="#000000"
     id="base"
     inkscape:pagecheckerboard="true"
     inkscape:showpageshadow="false"
     inkscape:deskcolor="#000000">
    <inkscape:grid
       type="xygrid"
       id="grid844" />
  </sodipodi:namedview>
  <metadata
     id="metadata1696">
    <rdf:RDF>
      <cc:Work
         rdf:about="">
        <dc:format>image/svg+xml</dc:format>
        <dc:type
           rdf:resource="http://purl.org/dc/dcmitype/StillImage" />
      </cc:Work>
    </rdf:RDF>
  </metadata>
  <g
     transform="translate(-98.729144,-81.918987)"
     id="layer1"
     inkscape:groupmode="layer"
     inkscape:label="Layer 1">
    <g
       id="system-switch-user"
       transform="matrix(0.26458333,0,0,0.26458333,23.852062,81.918987)">
      <g
         id="g1729">
        <circle
           style="opacity:0;fill:none;fill-opacity:1;stroke-width:1.06667"
           id="circle955"
           r="16"
           cy="-16"
           cx="299"
           transform="scale(1,-1)" />
      </g>
    </g>
    <path
       d="m 99.774926,86.783861 a 3.1809249,3.0564129 0 0 0 4.852124,2.331291 3.2220956,3.0959715 0 0 0 1.50693,-2.600138 0.19986,0.19203681 0 0 0 -0.39972,0 2.7884061,2.679258 0 0 1 -4.39686,2.189185 2.7856078,2.6765699 0 0 1 0.39972,-4.597293 4.02712,3.869485 0 0 1 1.85467,-0.265005 v 0.556893 a 0.19985705,0.192034 0 0 0 0.32377,0.149787 l 0.98729,-0.748934 a 0.19985705,0.192034 0 0 0 0,-0.303408 l -0.99529,-0.745096 a 0.19985705,0.192034 0 0 0 -0.31977,0.153628 v 0.553057 c -0.28379,-0.0041 -0.57158,-0.01154 -0.85139,0.0076 a 3.1917175,3.0667829 0 0 0 -2.961875,3.318349 z"
       id="path7861"
       style="color:#e5e9ef;fill:currentColor;fill-opacity:1;stroke-width:0.391811"
       class="ColorScheme-Text" />
  </g>
</svg>
