<?xml version="1.0" encoding="UTF-8" standalone="no"?>
<svg
   sodipodi:docname="shutdown_primary.svg"
   inkscape:version="1.2.1 (9c6d41e410, 2022-07-14)"
   id="svg1073"
   version="1.1"
   viewBox="0 0 8.4666662 8.4666662"
   height="8.4666662mm"
   width="8.4666662mm"
   xmlns:inkscape="http://www.inkscape.org/namespaces/inkscape"
   xmlns:sodipodi="http://sodipodi.sourceforge.net/DTD/sodipodi-0.dtd"
   xmlns="http://www.w3.org/2000/svg"
   xmlns:svg="http://www.w3.org/2000/svg"
   xmlns:rdf="http://www.w3.org/1999/02/22-rdf-syntax-ns#"
   xmlns:cc="http://creativecommons.org/ns#"
   xmlns:dc="http://purl.org/dc/elements/1.1/">
  <defs
     id="defs1067" />
  <sodipodi:namedview
     inkscape:document-rotation="0"
     inkscape:window-maximized="1"
     inkscape:window-y="0"
     inkscape:window-x="0"
     inkscape:window-height="1004"
     inkscape:window-width="1920"
     showgrid="true"
     inkscape:current-layer="layer1"
     inkscape:document-units="mm"
     inkscape:cy="12.972973"
     inkscape:cx="4.6094446"
     inkscape:zoom="10.521875"
     inkscape:pageshadow="2"
     inkscape:pageopacity="0"
     borderopacity="1"
     bordercolor="#ff0a0a"
     pagecolor="#000000"
     id="base"
     inkscape:pagecheckerboard="true"
     inkscape:showpageshadow="false"
     inkscape:deskcolor="#000000">
    <inkscape:grid
       type="xygrid"
       id="grid873" />
  </sodipodi:namedview>
  <metadata
     id="metadata1070">
    <rdf:RDF>
      <cc:Work
         rdf:about="">
        <dc:format>image/svg+xml</dc:format>
        <dc:type
           rdf:resource="http://purl.org/dc/dcmitype/StillImage" />
      </cc:Work>
    </rdf:RDF>
  </metadata>
  <g
     transform="translate(9.28265,-135.4233)"
     id="layer1"
     inkscape:groupmode="layer"
     inkscape:label="Layer 1">
    <g
       id="system-shutdown"
       transform="matrix(0.26458333,0,0,0.26458333,-34.153483,135.4233)">
      <g
         id="g1662">
        <path
           style="color:#000000;overflow:visible;opacity:0;fill:none;fill-opacity:1;stroke-width:1.06667"
           id="path945"
           overflow="visible"
           d="m 110,0 c -8.82859,0 -16,7.1714133 -16,16 0,8.828587 7.17141,16 16,16 8.82859,0 16,-7.171413 16,-16 0,-8.8285867 -7.17141,-16 -16,-16 z"
           inkscape:connector-curvature="0" />
      </g>
    </g>
    <path
       d="m -7.1375981,136.97251 a 3.4110863,3.4110863 0 1 0 5.4056134,3.48021 3.4456555,3.4456555 0 0 0 -1.238665,-3.48021 c -0.1942092,-0.1515 -0.4715396,0.12118 -0.2746116,0.27459 a 3.0801542,3.0801542 0 0 1 1.1971034,2.76283 3.0246105,3.0246105 0 0 1 -5.9459018,0.37131 3.0685019,3.0685019 0 0 1 1.1310732,-3.13414 c 0.1969276,-0.15297 -0.079627,-0.42725 -0.2746116,-0.27459 z"
       id="path1231"
       style="color:#e5e9ef;fill:currentColor;fill-opacity:1;stroke-width:0.388419"
       class="ColorScheme-Text" />
    <path
       d="m -4.8606917,139.71952 a 0.1942091,0.1860614 0 0 1 -0.388418,0 v -3.33835 0 a 0.1942091,0.1860614 0 0 1 0.388418,0 z"
       id="path1233"
       style="color:#e5e9ef;fill:currentColor;fill-opacity:1;stroke-width:0.380184"
       class="ColorScheme-Text" />
  </g>
</svg>
