<?xml version="1.0" encoding="UTF-8" standalone="no"?>
<svg
   id="svg4306"
   width="22"
   height="22"
   version="1.1"
   style="enable-background:new"
   sodipodi:docname="keepabove.svg"
   inkscape:version="1.2.1 (9c6d41e410, 2022-07-14)"
   xmlns:inkscape="http://www.inkscape.org/namespaces/inkscape"
   xmlns:sodipodi="http://sodipodi.sourceforge.net/DTD/sodipodi-0.dtd"
   xmlns:xlink="http://www.w3.org/1999/xlink"
   xmlns="http://www.w3.org/2000/svg"
   xmlns:svg="http://www.w3.org/2000/svg"
   xmlns:rdf="http://www.w3.org/1999/02/22-rdf-syntax-ns#"
   xmlns:cc="http://creativecommons.org/ns#"
   xmlns:dc="http://purl.org/dc/elements/1.1/">
  <g
     id="pressed-center">
    <rect
       id="rect4266-3-6"
       width="22"
       height="22"
       x="0"
       y="0"
       style="opacity:0.00100002;fill:#000000;fill-opacity:1;fill-rule:nonzero;stroke:none;stroke-width:2;stroke-linecap:round;stroke-linejoin:round;stroke-miterlimit:4;stroke-dasharray:none;stroke-opacity:1" />
    <path
       d="m 19.999825,10.999909 c 0,1.078918 -0.18991,2.113341 -0.53818,3.072157 -0.24208,0.666352 -0.56056,1.296375 -0.94556,1.87908 -0.16125,0.244999 -0.33464,0.481607 -0.51869,0.708986 -0.58922,0.727707 -1.28946,1.361346 -2.07547,1.875678 -0.28948,0.189552 -0.59034,0.362947 -0.90183,0.518312 C 13.810465,19.659482 12.445035,20 10.999895,20 c -1.44514,0 -2.81057,-0.340518 -4.0202,-0.945901 -0.31152,-0.155399 -0.61275,-0.328782 -0.90221,-0.518312 -0.79605,-0.521271 -1.50467,-1.164956 -2.0986,-1.904705 -0.1844,-0.229227 -0.35744,-0.468001 -0.5187,-0.715211 -0.37471,-0.573045 -0.6851,-1.191377 -0.92239,-1.844837 -0.34821,-0.95843 -0.53779,-1.992468 -0.53779,-3.071023 C 2.000005,6.029385 6.029395,2 11.000025,2 c 2.49511,0 4.7528,1.01534 6.38311,2.655113 0.46982,0.472378 0.88751,0.996994 1.24297,1.564085 0.33612,0.53413 0.61712,1.106437 0.83569,1.708543 0.34831,0.958782 0.5382,1.993262 0.5382,3.072157 z"
       stroke-width="0.0351571"
       id="path273-2"
       style="fill:#91c4d4;fill-opacity:1;enable-background:new" />
    <path
       d="m 18.525775,11.000023 c 0,0.903368 -0.15902,1.769432 -0.45061,2.572225 -0.20271,0.55793 -0.46935,1.085404 -0.79171,1.57327 -0.13501,0.205132 -0.28019,0.403245 -0.43429,0.593625 -0.49334,0.609306 -1.07961,1.139898 -1.7378,1.570548 -0.24237,0.158711 -0.49429,0.303894 -0.75509,0.433973 -1.01279,0.50686 -2.15609,0.791976 -3.36617,0.791976 -1.20998,0 -2.35328,-0.285116 -3.36618,-0.791987 -0.26083,-0.130113 -0.51304,-0.275285 -0.75541,-0.433973 -0.66652,-0.436445 -1.25986,-0.975371 -1.75707,-1.594814 -0.1544,-0.191922 -0.29927,-0.39186 -0.43431,-0.59884 -0.31372,-0.479805 -0.57361,-0.997493 -0.7723,-1.544583 -0.29154,-0.802487 -0.45029,-1.66829 -0.45029,-2.571318 0,-4.161824 3.37377,-7.535595 7.5356,-7.535595 2.08907,0 3.97938,0.850133 5.34458,2.223101 0.39338,0.395523 0.74312,0.834758 1.04076,1.309642 0.28144,0.447216 0.51672,0.926409 0.69973,1.430512 0.29162,0.802771 0.45061,1.668858 0.45061,2.572226 z"
       stroke-width="0.0294357"
       id="path275-7"
       style="fill:url(#radialGradient1463);fill-opacity:1;enable-background:new" />
    <path
       d="m 10.993538,8 c -0.0128,1.46e-4 -0.02558,0.0011 -0.03833,0.0023 -0.08797,0.0088 -0.169825,0.04243 -0.232388,0.09571 l -5.1055836,4.331325 c -0.0747,0.0623 -0.116915,0.1474 -0.117234,0.236349 -3.5e-4,0.08887 0.04111,0.17417 0.115316,0.237016 0.07411,0.06277 0.174729,0.09781 0.279529,0.09728 H 16.104469 c 0.104874,9.93e-4 0.20566,-0.03419 0.279966,-0.09696 0.07435,-0.06279 0.115921,-0.148148 0.115562,-0.237176 -2.53e-4,-0.08893 -0.04254,-0.174097 -0.117154,-0.236497 L 11.276357,8.097895 c -0.07491,-0.06366 -0.17701,-0.09885 -0.282946,-0.09764 z"
       fill-rule="evenodd"
       id="path2-3-6"
       style="fill:#fefefe;fill-opacity:1;stroke-width:0.0206658;enable-background:new" />
  </g>
  <g
     id="hover-inactive-center"
     transform="translate(-0.273537,22)">
    <rect
       id="rect4266-3-67"
       width="22"
       height="22"
       x="-22"
       y="0"
       style="opacity:0.00100002;fill:#000000;fill-opacity:1;fill-rule:nonzero;stroke:none;stroke-width:2;stroke-linecap:round;stroke-linejoin:round;stroke-miterlimit:4;stroke-dasharray:none;stroke-opacity:1" />
    <path
       id="path839-3-36-5"
       style="fill:#eff0f1;fill-opacity:1;stroke-width:1.125;enable-background:new"
       d="m -11,2 c -4.97047,0 -9,4.029441 -9,8.999998 C -20,15.970557 -15.97047,20 -11,20 -6.02952,20 -2,15.970557 -2,10.999998 -2,6.029441 -6.02952,2 -11,2 Z m 0,1.125 c 4.34919,0 7.875,3.525746 7.875,7.874998 0,4.349234 -3.52581,7.875002 -7.875,7.875002 -4.3492,0 -7.875,-3.525768 -7.875,-7.875002 C -18.875,6.650746 -15.3492,3.125 -11,3.125 Z m 0,0 z"
       sodipodi:nodetypes="ssssssssssccccc" />
    <rect
       style="fill:#88c0d0;fill-opacity:0.75;stroke:none;stroke-width:0.39374;enable-background:new"
       id="center-3-35-5-7-6"
       width="15.749992"
       height="15.749992"
       x="-18.875"
       y="3.125"
       ry="7.8749838"
       rx="7.8749962" />
    <path
       d="m -11.00612,8.00002 c -0.0128,1.46e-4 -0.02558,0.0011 -0.03833,0.0023 -0.08797,0.0088 -0.169825,0.04243 -0.232388,0.09571 l -5.105584,4.331325 c -0.0747,0.0623 -0.116915,0.1474 -0.117234,0.236349 -3.5e-4,0.08887 0.04111,0.17417 0.115316,0.237016 0.07411,0.06277 0.174729,0.09781 0.279529,0.09728 h 10.2096221 c 0.104874,9.93e-4 0.20566,-0.03419 0.279966,-0.09696 0.07435,-0.06279 0.115921,-0.148148 0.115562,-0.237176 -2.53e-4,-0.08893 -0.04254,-0.174097 -0.117154,-0.236497 L -10.723301,8.097915 c -0.07491,-0.06366 -0.17701,-0.09885 -0.282946,-0.09764 z"
       fill-rule="evenodd"
       id="path2-36"
       style="fill:#2b4254;fill-opacity:1;stroke-width:0.0206658;enable-background:new" />
  </g>
  <g
     id="inactive-center"
     transform="translate(-44.273537,22)">
    <rect
       style="opacity:0.00100002;fill:#000000;fill-opacity:1;fill-rule:nonzero;stroke:none;stroke-width:2;stroke-linecap:round;stroke-linejoin:round;stroke-miterlimit:4;stroke-dasharray:none;stroke-opacity:1"
       y="0"
       x="0"
       height="22"
       width="22"
       id="rect4266-9" />
    <path
       id="path839-3-36-2"
       style="fill:#eff0f1;fill-opacity:1;stroke-width:1.125;enable-background:new"
       d="M 11,2 C 6.02953,2 2,6.029441 2,10.999998 2,15.970557 6.02953,20 11,20 15.97048,20 20,15.970557 20,10.999998 20,6.029441 15.97048,2 11,2 Z m 0,1.125 c 4.34919,0 7.875,3.525746 7.875,7.874998 C 18.875,15.349232 15.34919,18.875 11,18.875 6.6508,18.875 3.125,15.349232 3.125,10.999998 3.125,6.650746 6.6508,3.125 11,3.125 Z m 0,0 z"
       sodipodi:nodetypes="ssssssssssccccc" />
    <rect
       style="fill:#88c0d0;fill-opacity:0.6;stroke:none;stroke-width:0.39374;enable-background:new"
       id="center-3-35-5-7-70"
       width="15.749992"
       height="15.749992"
       x="3.125"
       y="3.125"
       ry="7.8749838"
       rx="7.8749962" />
  </g>
  <metadata
     id="metadata28">
    <rdf:RDF>
      <cc:Work
         rdf:about="">
        <dc:format>image/svg+xml</dc:format>
        <dc:type
           rdf:resource="http://purl.org/dc/dcmitype/StillImage" />
      </cc:Work>
    </rdf:RDF>
  </metadata>
  <defs
     id="defs26">
    <linearGradient
       inkscape:collect="always"
       id="linearGradient1469">
      <stop
         style="stop-color:#b6d8e2;stop-opacity:1;"
         offset="0"
         id="stop1465" />
      <stop
         style="stop-color:#489eb7;stop-opacity:1;"
         offset="1"
         id="stop1467" />
    </linearGradient>
    <linearGradient
       inkscape:collect="always"
       id="linearGradient1339">
      <stop
         style="stop-color:#b7d8e1;stop-opacity:1;"
         offset="0"
         id="stop1335" />
      <stop
         style="stop-color:#439dbc;stop-opacity:1;"
         offset="1"
         id="stop1337" />
    </linearGradient>
    <linearGradient
       inkscape:collect="always"
       xlink:href="#linearGradient1339"
       id="linearGradient1506-5"
       x1="53.741104"
       y1="31.999821"
       x2="10.20201"
       y2="32.000114"
       gradientUnits="userSpaceOnUse"
       gradientTransform="matrix(0.34615385,0,0,0.34615385,-44.076917,-0.076838)" />
    <radialGradient
       inkscape:collect="always"
       xlink:href="#linearGradient1469"
       id="radialGradient1463"
       cx="94.990181"
       cy="-28.374914"
       fx="94.990181"
       fy="-28.374914"
       r="7.5356398"
       gradientTransform="matrix(1,0,0,0.99998872,-83.999995,39.374679)"
       gradientUnits="userSpaceOnUse" />
    <linearGradient
       inkscape:collect="always"
       xlink:href="#linearGradient1339"
       id="linearGradient3062"
       gradientUnits="userSpaceOnUse"
       gradientTransform="matrix(0.34615385,0,0,0.34615385,-74.076917,23.316263)"
       x1="53.741104"
       y1="31.999821"
       x2="10.20201"
       y2="32.000114" />
    <linearGradient
       inkscape:collect="always"
       xlink:href="#linearGradient1339"
       id="linearGradient3928"
       x1="-71.999992"
       y1="34.393101"
       x2="-54.000008"
       y2="34.393101"
       gradientUnits="userSpaceOnUse" />
    <linearGradient
       inkscape:collect="always"
       xlink:href="#linearGradient1339"
       id="linearGradient3936"
       x1="-41.999992"
       y1="11"
       x2="-24.000006"
       y2="11"
       gradientUnits="userSpaceOnUse" />
  </defs>
  <sodipodi:namedview
     inkscape:document-rotation="0"
     pagecolor="#000000"
     bordercolor="#fa0000"
     borderopacity="1"
     objecttolerance="10"
     gridtolerance="10"
     guidetolerance="10"
     inkscape:pageopacity="0"
     inkscape:pageshadow="2"
     inkscape:window-width="1920"
     inkscape:window-height="1004"
     id="namedview24"
     showgrid="true"
     inkscape:zoom="11.313709"
     inkscape:cx="-15.246989"
     inkscape:cy="22.67161"
     inkscape:window-x="0"
     inkscape:window-y="0"
     inkscape:window-maximized="1"
     inkscape:current-layer="svg4306"
     inkscape:snap-bbox="true"
     inkscape:bbox-nodes="true"
     inkscape:lockguides="false"
     showguides="false"
     inkscape:pagecheckerboard="true"
     inkscape:showpageshadow="false"
     inkscape:deskcolor="#000000">
    <inkscape:grid
       type="xygrid"
       id="grid220" />
  </sodipodi:namedview>
  <style
     type="text/css"
     id="current-color-scheme" />
  <g
     id="pressed-inactive-center"
     transform="translate(-0.273537,22)">
    <rect
       style="opacity:0.00100002;fill:#000000;fill-opacity:1;fill-rule:nonzero;stroke:none;stroke-width:2;stroke-linecap:round;stroke-linejoin:round;stroke-miterlimit:4;stroke-dasharray:none;stroke-opacity:1"
       y="0"
       x="0"
       height="22"
       width="22"
       id="rect4266-3-6-5" />
    <path
       id="path839-3-36-36"
       style="fill:#eff0f1;fill-opacity:1;stroke-width:1.125;enable-background:new"
       d="M 11,2 C 6.02953,2 2,6.029441 2,10.999998 2,15.970557 6.02953,20 11,20 15.97048,20 20,15.970557 20,10.999998 20,6.029441 15.97048,2 11,2 Z m 0,1.125 c 4.34919,0 7.875,3.525746 7.875,7.874998 C 18.875,15.349232 15.34919,18.875 11,18.875 6.6508,18.875 3.125,15.349232 3.125,10.999998 3.125,6.650746 6.6508,3.125 11,3.125 Z m 0,0 z"
       sodipodi:nodetypes="ssssssssssccccc" />
    <rect
       style="fill:#88c0d0;fill-opacity:1;stroke:none;stroke-width:0.39374;enable-background:new"
       id="center-3-35-5-7-7"
       width="15.749992"
       height="15.749992"
       x="3.1249998"
       y="3.1250002"
       ry="7.8749838"
       rx="7.8749962" />
    <path
       d="m 10.99388,8.00002 c -0.0128,1.46e-4 -0.02558,0.0011 -0.03833,0.0023 -0.08797,0.0088 -0.169825,0.04243 -0.232388,0.09571 l -5.105584,4.331325 c -0.0747,0.0623 -0.116915,0.1474 -0.117234,0.236349 -3.5e-4,0.08887 0.04111,0.17417 0.115316,0.237016 C 5.68977,12.96549 5.790389,13.00053 5.895189,13 h 10.209622 c 0.104874,9.93e-4 0.20566,-0.03419 0.279966,-0.09696 0.07435,-0.06279 0.115921,-0.148148 0.115562,-0.237176 -2.53e-4,-0.08893 -0.04254,-0.174097 -0.117154,-0.236497 L 11.276699,8.097915 c -0.07491,-0.06366 -0.17701,-0.09885 -0.282946,-0.09764 z"
       fill-rule="evenodd"
       id="path2-3-7"
       style="fill:#fefefe;fill-opacity:1;stroke-width:0.0206658;enable-background:new" />
  </g>
  <g
     id="active-center">
    <rect
       id="rect4266"
       width="22"
       height="22"
       x="-44"
       y="0"
       style="opacity:0.00100002;fill:#000000;fill-opacity:1;fill-rule:nonzero;stroke:none;stroke-width:2;stroke-linecap:round;stroke-linejoin:round;stroke-miterlimit:4;stroke-dasharray:none;stroke-opacity:1" />
    <path
       d="m -24.000176,10.999909 c 0,1.078918 -0.18991,2.113341 -0.53818,3.072157 -0.24208,0.666352 -0.56056,1.296375 -0.94556,1.87908 -0.16125,0.244999 -0.33464,0.481607 -0.51869,0.708986 -0.58922,0.727707 -1.28946,1.361346 -2.07547,1.875678 -0.28948,0.189552 -0.59034,0.362947 -0.90183,0.518312 -1.20963,0.60536 -2.57506,0.945878 -4.0202,0.945878 -1.445139,0 -2.810571,-0.340518 -4.020202,-0.945901 -0.311514,-0.155399 -0.612744,-0.328782 -0.902212,-0.518312 -0.796046,-0.521271 -1.504668,-1.164956 -2.098599,-1.904705 -0.184396,-0.229227 -0.357435,-0.468001 -0.518698,-0.715211 -0.374708,-0.573045 -0.685094,-1.191377 -0.922385,-1.844837 -0.348217,-0.95843 -0.537792,-1.992468 -0.537792,-3.071023 0,-4.970626 4.029387,-9.000011 9.000018,-9.000011 2.49511,0 4.7528,1.01534 6.38311,2.655113 0.46982,0.472378 0.88751,0.996994 1.24297,1.564085 0.33612,0.53413 0.61712,1.106437 0.83569,1.708543 0.34831,0.958782 0.5382,1.993262 0.5382,3.072157 z"
       stroke-width="0.0351571"
       id="path273-3"
       style="fill:url(#linearGradient3936);fill-opacity:1.0;enable-background:new" />
    <path
       d="m -25.474226,11.000023 c 0,0.903368 -0.15902,1.769432 -0.45061,2.572225 -0.20271,0.55793 -0.46935,1.085404 -0.79171,1.57327 -0.13501,0.205132 -0.28019,0.403245 -0.43429,0.593625 -0.49334,0.609306 -1.07961,1.139898 -1.7378,1.570548 -0.24237,0.158711 -0.49429,0.303894 -0.75509,0.433973 -1.01279,0.50686 -2.15609,0.791976 -3.36617,0.791976 -1.20998,0 -2.35328,-0.285116 -3.366181,-0.791987 -0.260827,-0.130113 -0.513042,-0.275285 -0.755409,-0.433973 -0.666522,-0.436445 -1.259861,-0.975371 -1.757073,-1.594814 -0.154392,-0.191922 -0.299267,-0.39186 -0.434302,-0.59884 -0.313723,-0.479805 -0.573611,-0.997493 -0.772304,-1.544583 -0.291544,-0.802487 -0.450287,-1.66829 -0.450287,-2.571318 0,-4.161824 3.373771,-7.535595 7.535596,-7.535595 2.08907,0 3.97938,0.850133 5.34458,2.223101 0.39338,0.395523 0.74312,0.834758 1.04076,1.309642 0.28144,0.447216 0.51672,0.926409 0.69973,1.430512 0.29162,0.802771 0.45061,1.668858 0.45061,2.572226 z"
       stroke-width="0.0294357"
       id="path275-5"
       style="fill:url(#linearGradient1506-5);fill-opacity:1;enable-background:new" />
  </g>
  <g
     id="hover-center"
     transform="translate(52,-23.393016)">
    <rect
       transform="scale(-1)"
       id="rect4266-6-6"
       width="22"
       height="22"
       x="52"
       y="-45.393101"
       style="opacity:0.00100002;fill:#000000;fill-opacity:1;fill-rule:nonzero;stroke:none;stroke-width:2;stroke-linecap:round;stroke-linejoin:round;stroke-miterlimit:4;stroke-dasharray:none;stroke-opacity:1" />
    <path
       d="m -54.000176,34.39301 c 0,1.078918 -0.18991,2.113341 -0.53818,3.072157 -0.24208,0.666352 -0.56056,1.296374 -0.94556,1.879079 -0.16125,0.244999 -0.33464,0.481607 -0.51869,0.708986 -0.58922,0.727707 -1.28946,1.361346 -2.07547,1.875678 -0.28948,0.189552 -0.59034,0.362947 -0.90183,0.518312 -1.20963,0.60536 -2.57506,0.945878 -4.0202,0.945878 -1.445139,0 -2.810571,-0.340518 -4.020202,-0.945901 -0.311514,-0.155399 -0.612744,-0.328782 -0.902212,-0.518312 -0.796046,-0.521271 -1.504668,-1.164956 -2.098599,-1.904705 -0.184396,-0.229227 -0.357435,-0.468001 -0.518698,-0.715211 -0.374708,-0.573045 -0.685094,-1.191376 -0.922385,-1.844836 -0.348217,-0.95843 -0.537792,-1.992468 -0.537792,-3.071023 0,-4.970626 4.029387,-9.000011 9.000018,-9.000011 2.49511,0 4.7528,1.01534 6.38311,2.655113 0.46982,0.472378 0.88751,0.996994 1.24297,1.564085 0.33612,0.53413 0.61712,1.106437 0.83569,1.708543 0.34831,0.958782 0.5382,1.993262 0.5382,3.072157 z"
       stroke-width="0.0351571"
       id="path273-3-3-9-7"
       style="fill:url(#linearGradient3928);fill-opacity:1.0;enable-background:new" />
    <path
       d="m -55.474226,34.393124 c 0,0.903368 -0.15902,1.769432 -0.45061,2.572225 -0.20271,0.55793 -0.46935,1.085404 -0.79171,1.573269 -0.13501,0.205132 -0.28019,0.403245 -0.43429,0.593625 -0.49334,0.609306 -1.07961,1.139898 -1.7378,1.570548 -0.24237,0.158711 -0.49429,0.303894 -0.75509,0.433973 -1.01279,0.50686 -2.15609,0.791976 -3.36617,0.791976 -1.20998,0 -2.35328,-0.285116 -3.366181,-0.791987 -0.260827,-0.130113 -0.513042,-0.275285 -0.755409,-0.433973 -0.666522,-0.436445 -1.259861,-0.975371 -1.757073,-1.594814 -0.154392,-0.191922 -0.299267,-0.39186 -0.434302,-0.59884 -0.313723,-0.479804 -0.573611,-0.997492 -0.772304,-1.544582 -0.291544,-0.802487 -0.450287,-1.66829 -0.450287,-2.571318 0,-4.161824 3.373771,-7.535595 7.535596,-7.535595 2.08907,0 3.97938,0.850133 5.34458,2.223101 0.39338,0.395523 0.74312,0.834758 1.04076,1.309642 0.28144,0.447216 0.51672,0.926409 0.69973,1.430512 0.29162,0.802771 0.45061,1.668858 0.45061,2.572226 z"
       stroke-width="0.0294357"
       id="path275-5-6-2-5"
       style="fill:url(#linearGradient3062);fill-opacity:1.0;enable-background:new" />
    <path
       d="m -63.006462,31.393101 c -0.0128,1.46e-4 -0.02558,0.0011 -0.03833,0.0023 -0.08797,0.0088 -0.169825,0.04243 -0.232388,0.09571 l -5.105584,4.331325 c -0.0747,0.0623 -0.116915,0.1474 -0.117234,0.236349 -3.5e-4,0.08887 0.04111,0.17417 0.115316,0.237016 0.07411,0.06277 0.174729,0.09781 0.279529,0.09728 h 10.209622 c 0.104874,9.93e-4 0.20566,-0.03419 0.279966,-0.09696 0.07435,-0.06279 0.115921,-0.148148 0.115562,-0.237176 -2.53e-4,-0.08893 -0.04254,-0.174097 -0.117154,-0.236497 l -5.106486,-4.331452 c -0.07491,-0.06366 -0.17701,-0.09885 -0.282946,-0.09764 z"
       fill-rule="evenodd"
       id="path2-0-0-9"
       style="fill:#2b4254;fill-opacity:1;stroke-width:0.0206658;enable-background:new" />
  </g>
</svg>
