<?xml version="1.0" encoding="UTF-8" standalone="no"?>
<svg
   inkscape:version="1.2.1 (9c6d41e410, 2022-07-14)"
   sodipodi:docname="alldesktops.svg"
   style="enable-background:new"
   version="1.1"
   height="22"
   width="22"
   id="svg4306"
   xmlns:inkscape="http://www.inkscape.org/namespaces/inkscape"
   xmlns:sodipodi="http://sodipodi.sourceforge.net/DTD/sodipodi-0.dtd"
   xmlns:xlink="http://www.w3.org/1999/xlink"
   xmlns="http://www.w3.org/2000/svg"
   xmlns:svg="http://www.w3.org/2000/svg"
   xmlns:rdf="http://www.w3.org/1999/02/22-rdf-syntax-ns#"
   xmlns:cc="http://creativecommons.org/ns#"
   xmlns:dc="http://purl.org/dc/elements/1.1/">
  <g
     id="active-center"
     transform="translate(-44)">
    <rect
       transform="scale(-1)"
       id="rect4266"
       width="22"
       height="22"
       x="-22"
       y="-22"
       style="opacity:0.00100002;fill:#ffffff;fill-opacity:1;fill-rule:nonzero;stroke:none;stroke-width:2;stroke-linecap:round;stroke-linejoin:round;stroke-miterlimit:4;stroke-dasharray:none;stroke-opacity:1" />
    <path
       d="m 19.99983,10.999824 c 0,1.078918 -0.18991,2.113341 -0.53818,3.072157 -0.24208,0.666352 -0.56056,1.296375 -0.94556,1.87908 -0.16125,0.244999 -0.33464,0.481607 -0.51869,0.708986 -0.58922,0.727707 -1.28946,1.361346 -2.07547,1.875678 -0.28948,0.189552 -0.59034,0.362947 -0.90183,0.518312 -1.20963,0.60536 -2.57506,0.945878 -4.0202,0.945878 -1.445139,0 -2.810571,-0.340518 -4.020202,-0.945901 C 6.668184,18.898615 6.366954,18.725232 6.077486,18.535702 5.28144,18.014431 4.572818,17.370746 3.978887,16.630997 3.794491,16.40177 3.621452,16.162996 3.460189,15.915786 3.085481,15.342741 2.775095,14.724409 2.537804,14.070949 2.189587,13.112519 2.000012,12.078481 2.000012,10.999926 c 0,-4.970626 4.029387,-9.000011 9.000018,-9.000011 2.49511,0 4.7528,1.01534 6.38311,2.655113 0.46982,0.472378 0.88751,0.996994 1.24297,1.564085 0.33612,0.53413 0.61712,1.106437 0.83569,1.708543 C 19.81011,8.886438 20,9.920918 20,10.999813 Z"
       stroke-width="0.0351571"
       id="path273"
       style="fill:url(#linearGradient1498);fill-opacity:1;enable-background:new" />
    <path
       d="m 18.52578,10.999938 c 0,0.903368 -0.15902,1.769432 -0.45061,2.572225 -0.20271,0.55793 -0.46935,1.085404 -0.79171,1.57327 -0.13501,0.205132 -0.28019,0.403245 -0.43429,0.593625 -0.49334,0.609306 -1.07961,1.139898 -1.7378,1.570548 -0.24237,0.158711 -0.49429,0.303894 -0.75509,0.433973 -1.01279,0.50686 -2.15609,0.791976 -3.36617,0.791976 -1.20998,0 -2.35328,-0.285116 -3.366181,-0.791987 C 7.363102,17.613455 7.110887,17.468283 6.86852,17.309595 6.201998,16.87315 5.608659,16.334224 5.111447,15.714781 4.957055,15.522859 4.81218,15.322921 4.677145,15.115941 4.363422,14.636136 4.103534,14.118448 3.904841,13.571358 3.613297,12.768871 3.454554,11.903068 3.454554,11.00004 c 0,-4.161824 3.373771,-7.535595 7.535596,-7.535595 2.08907,0 3.97938,0.850133 5.34458,2.223101 0.39338,0.395523 0.74312,0.834758 1.04076,1.309642 0.28144,0.447216 0.51672,0.926409 0.69973,1.430512 0.29162,0.802771 0.45061,1.668858 0.45061,2.572226 z"
       stroke-width="0.0294357"
       id="path275"
       style="fill:url(#linearGradient1506);fill-opacity:1;enable-background:new" />
  </g>
  <g
     id="inactive-center"
     transform="translate(-44,22)">
    <rect
       style="opacity:0.00100002;fill:#000000;fill-opacity:1;fill-rule:nonzero;stroke:none;stroke-width:2;stroke-linecap:round;stroke-linejoin:round;stroke-miterlimit:4;stroke-dasharray:none;stroke-opacity:1"
       y="-22"
       x="-22"
       height="22"
       width="22"
       id="rect4266-8"
       transform="scale(-1)" />
    <path
       id="path839-3-36-6"
       style="fill:#2b4254;fill-opacity:1;stroke-width:1.125;enable-background:new"
       d="M 11,2 C 6.02953,2 2,6.029441 2,10.999998 2,15.970557 6.02953,20 11,20 15.97048,20 20.000005,15.970557 20.000005,10.999998 20.000005,6.029441 15.97048,2 11,2 Z m 0,1.125 c 4.34919,0 7.875,3.525746 7.875,7.874998 C 18.875,15.349232 15.34919,18.875 11,18.875 6.6508,18.875 3.125,15.349232 3.125,10.999998 3.125,6.650746 6.6508,3.125 11,3.125 Z m 0,0 z"
       sodipodi:nodetypes="ssssssssssccccc" />
    <rect
       style="fill:#81a1c1;fill-opacity:0.6;stroke:none;stroke-width:0.39374;enable-background:new"
       id="center-3-35-5-7-1"
       width="15.749992"
       height="15.749992"
       x="3.1249964"
       y="3.125"
       ry="7.8749838"
       rx="7.8749962" />
  </g>
  <metadata
     id="metadata28">
    <rdf:RDF>
      <cc:Work
         rdf:about="">
        <dc:format>image/svg+xml</dc:format>
        <dc:type
           rdf:resource="http://purl.org/dc/dcmitype/StillImage" />
      </cc:Work>
    </rdf:RDF>
  </metadata>
  <defs
     id="defs26">
    <linearGradient
       inkscape:collect="always"
       xlink:href="#linearGradient952"
       id="linearGradient1498"
       x1="6"
       y1="31.999754"
       x2="57.999969"
       y2="31.999754"
       gradientUnits="userSpaceOnUse"
       gradientTransform="matrix(0.34615385,0,0,0.34615385,-0.076911,-0.076923)" />
    <linearGradient
       inkscape:collect="always"
       xlink:href="#linearGradient952"
       id="linearGradient1506"
       x1="53.741104"
       y1="31.999821"
       x2="10.20201"
       y2="32.000114"
       gradientUnits="userSpaceOnUse"
       gradientTransform="matrix(0.34615385,0,0,0.34615385,-0.076911,-0.076923)" />
    <linearGradient
       inkscape:collect="always"
       id="linearGradient952">
      <stop
         style="stop-color:#bacbde;stop-opacity:1;"
         offset="0"
         id="stop948" />
      <stop
         style="stop-color:#547fab;stop-opacity:1;"
         offset="1"
         id="stop950" />
    </linearGradient>
    <linearGradient
       inkscape:collect="always"
       xlink:href="#linearGradient952"
       id="linearGradient1388"
       gradientUnits="userSpaceOnUse"
       gradientTransform="matrix(0.34615385,0,0,0.34615385,-0.076917,-0.076838)"
       x1="6"
       y1="31.999754"
       x2="57.999969"
       y2="31.999754" />
    <linearGradient
       inkscape:collect="always"
       xlink:href="#linearGradient952"
       id="linearGradient1390"
       gradientUnits="userSpaceOnUse"
       gradientTransform="matrix(0.34615385,0,0,0.34615385,-0.076917,-0.076838)"
       x1="53.741104"
       y1="31.999821"
       x2="10.20201"
       y2="32.000114" />
    <radialGradient
       inkscape:collect="always"
       xlink:href="#linearGradient952"
       id="radialGradient2140"
       cx="10.99018"
       cy="11"
       fx="10.99018"
       fy="11"
       r="7.5356379"
       gradientTransform="matrix(1,0,0,0.99998899,0,1.2115762e-4)"
       gradientUnits="userSpaceOnUse" />
  </defs>
  <sodipodi:namedview
     inkscape:bbox-nodes="true"
     inkscape:snap-bbox="true"
     inkscape:current-layer="svg4306"
     inkscape:window-maximized="1"
     inkscape:window-y="0"
     inkscape:window-x="0"
     inkscape:cy="22.812499"
     inkscape:cx="-17.187499"
     inkscape:zoom="8.0000004"
     showgrid="true"
     id="namedview24"
     inkscape:window-height="1004"
     inkscape:window-width="1920"
     inkscape:pageshadow="2"
     inkscape:pageopacity="0"
     guidetolerance="10"
     gridtolerance="10"
     objecttolerance="10"
     borderopacity="1"
     bordercolor="#ff0707"
     pagecolor="#000000"
     inkscape:document-rotation="0"
     inkscape:snap-intersection-paths="true"
     inkscape:lockguides="false"
     showguides="false"
     inkscape:pagecheckerboard="true"
     inkscape:showpageshadow="false"
     inkscape:deskcolor="#000000">
    <inkscape:grid
       type="xygrid"
       id="grid217" />
  </sodipodi:namedview>
  <style
     id="current-color-scheme"
     type="text/css" />
  <g
     id="pressed-inactive-center"
     transform="translate(0,22)">
    <rect
       transform="scale(-1)"
       id="rect4266-6-3"
       width="22"
       height="22"
       x="-22"
       y="-22"
       style="opacity:0.00100002;fill:#000000;fill-opacity:1;fill-rule:nonzero;stroke:none;stroke-width:2;stroke-linecap:round;stroke-linejoin:round;stroke-miterlimit:4;stroke-dasharray:none;stroke-opacity:1" />
    <path
       id="path839-3-36-6-9"
       style="fill:#2b4254;fill-opacity:1;stroke-width:1.125;enable-background:new"
       d="M 11,2 C 6.02953,2 2,6.029441 2,10.999998 2,15.970557 6.02953,20 11,20 15.97048,20 20.000005,15.970557 20.000005,10.999998 20.000005,6.029441 15.97048,2 11,2 Z m 0,1.125 c 4.34919,0 7.875,3.525746 7.875,7.874998 C 18.875,15.349232 15.34919,18.875 11,18.875 6.6508,18.875 3.125,15.349232 3.125,10.999998 3.125,6.650746 6.6508,3.125 11,3.125 Z m 0,0 z"
       sodipodi:nodetypes="ssssssssssccccc" />
    <rect
       style="fill:#81a1c1;fill-opacity:1;stroke:none;stroke-width:0.39374;enable-background:new"
       id="center-3-35-5-7-1-22"
       width="15.749992"
       height="15.749992"
       x="3.125"
       y="3.125"
       ry="7.8749838"
       rx="7.8749962" />
    <path
       d="m 15,11.000002 c 0,2.208981 -1.791022,4.000002 -4.000003,4.000002 -2.208981,0 -4.000002,-1.791021 -4.000002,-4.000002 C 6.999995,8.791021 8.791016,7 10.999997,7 13.208978,7 15,8.791021 15,11.000002 Z"
       id="path4-3-7-3-3-6"
       style="fill:#ffffff;fill-opacity:1;stroke-width:0.00816327;enable-background:new" />
  </g>
  <g
     id="hover-inactive-center"
     transform="translate(-22,22)">
    <rect
       style="opacity:0.00100002;fill:#000000;fill-opacity:1;fill-rule:nonzero;stroke:none;stroke-width:2;stroke-linecap:round;stroke-linejoin:round;stroke-miterlimit:4;stroke-dasharray:none;stroke-opacity:1"
       y="-22"
       x="-22"
       height="22"
       width="22"
       id="rect4266-6-6-6"
       transform="scale(-1)" />
    <path
       id="path839-3-36-6-0"
       style="fill:#2b4254;fill-opacity:1;stroke-width:1.125;enable-background:new"
       d="M 11,2 C 6.02953,2 2,6.029441 2,10.999998 2,15.970557 6.02953,20 11,20 15.97048,20 20.000005,15.970557 20.000005,10.999998 20.000005,6.029441 15.97048,2 11,2 Z m 0,1.125 c 4.34919,0 7.875,3.525746 7.875,7.874998 C 18.875,15.349232 15.34919,18.875 11,18.875 6.6508,18.875 3.125,15.349232 3.125,10.999998 3.125,6.650746 6.6508,3.125 11,3.125 Z m 0,0 z"
       sodipodi:nodetypes="ssssssssssccccc" />
    <rect
       style="fill:#81a1c1;fill-opacity:0.74902;stroke:none;stroke-width:0.39374;enable-background:new"
       id="center-3-35-5-7-1-2"
       width="15.749992"
       height="15.749992"
       x="3.1249962"
       y="3.125"
       ry="7.8749838"
       rx="7.8749962" />
    <path
       d="m 15.000003,11.000002 c 0,2.208981 -1.791022,4.000002 -4.000003,4.000002 -2.208981,0 -4.000002,-1.791021 -4.000002,-4.000002 C 6.999998,8.791021 8.791019,7 11,7 c 2.208981,0 4.000003,1.791021 4.000003,4.000002 z"
       id="path4-3-7-3-3-6-1-6"
       style="fill:#2b4254;fill-opacity:1;stroke-width:0.00816327;enable-background:new" />
  </g>
  <g
     id="hover-center"
     transform="translate(-22)">
    <rect
       transform="scale(-1)"
       id="rect4266-6-6"
       width="22"
       height="22"
       x="-22"
       y="-22"
       style="opacity:0.00100002;fill:#000000;fill-opacity:1;fill-rule:nonzero;stroke:none;stroke-width:2;stroke-linecap:round;stroke-linejoin:round;stroke-miterlimit:4;stroke-dasharray:none;stroke-opacity:1" />
    <path
       d="m 19.999824,10.999909 c 0,1.078918 -0.18991,2.113341 -0.53818,3.072157 -0.24208,0.666352 -0.56056,1.296375 -0.94556,1.87908 -0.16125,0.244999 -0.33464,0.481607 -0.51869,0.708986 -0.58922,0.727707 -1.28946,1.361346 -2.07547,1.875678 -0.28948,0.189552 -0.59034,0.362947 -0.90183,0.518312 C 13.810464,19.659482 12.445034,20 10.999894,20 9.554755,20 8.189323,19.659482 6.979692,19.054099 6.668178,18.8987 6.366948,18.725317 6.07748,18.535787 5.281434,18.014516 4.572812,17.370831 3.978881,16.631082 3.794485,16.401855 3.621446,16.163081 3.460183,15.915871 3.085475,15.342826 2.775089,14.724494 2.537798,14.071034 2.189581,13.112604 2.000006,12.078566 2.000006,11.000011 2.000006,6.029385 6.029393,2 11.000024,2 c 2.49511,0 4.7528,1.01534 6.38311,2.655113 0.46982,0.472378 0.88751,0.996994 1.24297,1.564085 0.33612,0.53413 0.61712,1.106437 0.83569,1.708543 0.34831,0.958782 0.5382,1.993262 0.5382,3.072157 z"
       stroke-width="0.0351571"
       id="path273-7"
       style="fill:url(#linearGradient1388);fill-opacity:1;enable-background:new" />
    <path
       d="m 18.525774,11.000023 c 0,0.903368 -0.15902,1.769432 -0.45061,2.572225 -0.20271,0.55793 -0.46935,1.085404 -0.79171,1.57327 -0.13501,0.205132 -0.28019,0.403245 -0.43429,0.593625 -0.49334,0.609306 -1.07961,1.139898 -1.7378,1.570548 -0.24237,0.158711 -0.49429,0.303894 -0.75509,0.433973 -1.01279,0.50686 -2.15609,0.791976 -3.36617,0.791976 -1.20998,0 -2.35328,-0.285116 -3.366181,-0.791987 C 7.363096,17.61354 7.110881,17.468368 6.868514,17.30968 6.201992,16.873235 5.608653,16.334309 5.111441,15.714866 4.957049,15.522944 4.812174,15.323006 4.677139,15.116026 4.363416,14.636221 4.103528,14.118533 3.904835,13.571443 3.613291,12.768956 3.454548,11.903153 3.454548,11.000125 c 0,-4.161824 3.373771,-7.535595 7.535596,-7.535595 2.08907,0 3.97938,0.850133 5.34458,2.223101 0.39338,0.395523 0.74312,0.834758 1.04076,1.309642 0.28144,0.447216 0.51672,0.926409 0.69973,1.430512 0.29162,0.802771 0.45061,1.668858 0.45061,2.572226 z"
       stroke-width="0.0294357"
       id="path275-5"
       style="fill:url(#linearGradient1390);fill-opacity:1;enable-background:new" />
    <path
       d="m 15.000003,11 c 0,2.208981 -1.791022,4.000002 -4.000003,4.000002 -2.2089815,0 -4.0000025,-1.791021 -4.0000025,-4.000002 0,-2.208981 1.791021,-4.000002 4.0000025,-4.000002 2.208981,0 4.000003,1.791021 4.000003,4.000002 z"
       id="path4-3-7-3-3-6-1-9-1-2-7"
       style="fill:#2b4254;fill-opacity:1;stroke-width:0.00816327;enable-background:new" />
  </g>
  <g
     id="pressed-center">
    <rect
       style="opacity:0.00100002;fill:#000000;fill-opacity:1;fill-rule:nonzero;stroke:none;stroke-width:2;stroke-linecap:round;stroke-linejoin:round;stroke-miterlimit:4;stroke-dasharray:none;stroke-opacity:1"
       y="-22"
       x="-22"
       height="22"
       width="22"
       id="rect4266-6"
       transform="scale(-1)" />
    <path
       d="m 19.999819,10.999824 c 0,1.078918 -0.18991,2.113341 -0.53818,3.072157 -0.242081,0.666352 -0.560561,1.296375 -0.945561,1.87908 -0.16125,0.244999 -0.33464,0.481607 -0.51869,0.708986 -0.58922,0.727707 -1.28946,1.361346 -2.07547,1.875678 -0.28948,0.189552 -0.59034,0.362947 -0.90183,0.518312 -1.20963,0.60536 -2.57506,0.945878 -4.0202,0.945878 -1.445139,0 -2.810571,-0.340518 -4.020202,-0.945901 C 6.668172,18.898615 6.366942,18.725232 6.077474,18.535702 5.281428,18.014431 4.572806,17.370746 3.978875,16.630997 3.794479,16.40177 3.62144,16.162996 3.460177,15.915786 3.085469,15.342741 2.775083,14.724409 2.537792,14.070949 2.189575,13.112519 2,12.078481 2,10.999926 2,6.0293 6.029387,1.9999151 11.000018,1.9999151 c 2.49511,0 4.7528,1.0153399 6.38311,2.6551129 0.46982,0.472378 0.88751,0.996994 1.24297,1.564085 0.33612,0.53413 0.61712,1.106437 0.835691,1.708543 0.34831,0.958782 0.5382,1.993262 0.5382,3.072157 z"
       stroke-width="0.0351571"
       id="path273-6"
       style="fill:#97b1cc;fill-opacity:1;enable-background:new" />
    <path
       d="m 18.525768,10.999938 c 0,0.903368 -0.15902,1.769432 -0.45061,2.572225 -0.20271,0.55793 -0.46935,1.085404 -0.79171,1.57327 -0.13501,0.205132 -0.28019,0.403245 -0.43429,0.593625 -0.49334,0.609306 -1.07961,1.139898 -1.7378,1.570548 -0.24237,0.158711 -0.49429,0.303894 -0.75509,0.433973 -1.01279,0.50686 -2.15609,0.791976 -3.36617,0.791976 -1.20998,0 -2.35328,-0.285116 -3.366181,-0.791987 C 7.36309,17.613455 7.110875,17.468283 6.868508,17.309595 6.201986,16.87315 5.608647,16.334224 5.111435,15.714781 4.957043,15.522859 4.812168,15.322921 4.677133,15.115941 4.36341,14.636136 4.103522,14.118448 3.904829,13.571358 3.613285,12.768871 3.454542,11.903068 3.454542,11.00004 c 0,-4.161824 3.373771,-7.535595 7.535596,-7.535595 2.08907,0 3.97938,0.850133 5.34458,2.223101 0.39338,0.395523 0.74312,0.834758 1.04076,1.309642 0.28144,0.447216 0.51672,0.926409 0.69973,1.430512 0.29162,0.802771 0.45061,1.668858 0.45061,2.572226 z"
       stroke-width="0.0294357"
       id="path275-2"
       style="fill:url(#radialGradient2140);fill-opacity:1;enable-background:new" />
    <path
       d="m 14.999997,11 c 0,2.208981 -1.791022,4.000002 -4.000003,4.000002 -2.208981,0 -4.000002,-1.791021 -4.000002,-4.000002 0,-2.208981 1.791021,-4.000002 4.000002,-4.000002 2.208981,0 4.000003,1.791021 4.000003,4.000002 z"
       id="path4-3-7-3-3-6-0"
       style="fill:#ffffff;fill-opacity:1;stroke-width:0.00816327;enable-background:new" />
  </g>
</svg>
