<?xml version="1.0" encoding="UTF-8" standalone="no"?>
<svg
   id="svg4306"
   width="22"
   height="22"
   version="1.1"
   style="enable-background:new"
   sodipodi:docname="restore.svg"
   inkscape:version="1.3.2 (091e20ef0f, 2023-11-25)"
   xmlns:inkscape="http://www.inkscape.org/namespaces/inkscape"
   xmlns:sodipodi="http://sodipodi.sourceforge.net/DTD/sodipodi-0.dtd"
   xmlns:xlink="http://www.w3.org/1999/xlink"
   xmlns="http://www.w3.org/2000/svg"
   xmlns:svg="http://www.w3.org/2000/svg"
   xmlns:rdf="http://www.w3.org/1999/02/22-rdf-syntax-ns#"
   xmlns:cc="http://creativecommons.org/ns#"
   xmlns:dc="http://purl.org/dc/elements/1.1/">
  <g
     id="pressed-inactive-center"
     transform="translate(0,22)">
    <rect
       style="opacity:0.00100002;fill:#000000;fill-opacity:1;fill-rule:nonzero;stroke:none;stroke-width:2;stroke-linecap:round;stroke-linejoin:round;stroke-miterlimit:4;stroke-dasharray:none;stroke-opacity:1"
       y="0"
       x="0"
       height="22"
       width="22"
       id="rect4266-3-6-5" />
    <path
       id="path839-3-36-3"
       style="fill:#2b4254;fill-opacity:1;stroke-width:1.125;enable-background:new"
       d="M 11,2 C 6.02953,2 2,6.029441 2,10.999998 2,15.970557 6.02953,20 11,20 15.970479,20 19.999999,15.970557 19.999999,10.999998 19.999999,6.029441 15.970479,2 11,2 Z m 0,1.125 c 4.349189,0 7.874999,3.525746 7.874999,7.874998 0,4.349234 -3.52581,7.875002 -7.874999,7.875002 -4.3492,0 -7.875,-3.525768 -7.875,-7.875002 C 3.125,6.650746 6.6508,3.125 11,3.125 Z m 0,0 z"
       sodipodi:nodetypes="ssssssssssccccc" />
    <rect
       style="fill:#a3be8c;fill-opacity:1;stroke:none;stroke-width:0.39374;enable-background:new"
       id="center-3-35-5-7-6"
       width="15.749992"
       height="15.749992"
       x="3.1250026"
       y="3.125001"
       ry="7.8749838"
       rx="7.8749962" />
    <path
       d="m 10.995258,6 c -0.0094,1.19e-4 -0.01862,0.0011 -0.02782,0.0023 -0.06398,0.0068 -0.12351,0.03393 -0.169,0.07655 L 7.0852608,9.54354 c -0.0543,0.0498 -0.08502,0.117908 -0.08524,0.189059 -2.59e-4,0.07109 0.02993,0.1393205 0.08383,0.189597 0.05394,0.05024 0.127067,0.07819 0.203292,0.07779 h 7.4252122 c 0.07627,7.94e-4 0.149563,-0.02736 0.203611,-0.07761 0.05402,-0.05027 0.08431,-0.118502 0.08405,-0.189723 -1.89e-4,-0.0711 -0.03092,-0.139258 -0.08523,-0.189175 l -3.71382,-3.464847 c -0.05451,-0.05088 -0.128736,-0.07905 -0.205782,-0.07808 z"
       fill-rule="evenodd"
       id="path2-6"
       style="fill:#fefefe;fill-opacity:1;stroke-width:0.0157624;enable-background:new" />
    <path
       d="m 11.004725,15.999997 c 0.0094,-1.18e-4 0.01862,-0.0012 0.02785,-0.0023 0.06397,-0.0066 0.123505,-0.0339 0.169004,-0.07656 l 3.713158,-3.464643 c 0.0543,-0.0498 0.08503,-0.117906 0.08526,-0.18905 2.53e-4,-0.07109 -0.02993,-0.139327 -0.08385,-0.189596 -0.05393,-0.05023 -0.127076,-0.07821 -0.203293,-0.07781 H 7.2876678 c -0.07627,-7.93e-4 -0.149568,0.02737 -0.203616,0.07761 -0.05403,0.05025 -0.08432,0.118508 -0.08405,0.189722 1.85e-4,0.07111 0.03092,0.139257 0.0852,0.189173 l 3.7138122,3.464741 c 0.05451,0.05089 0.128732,0.07904 0.205776,0.07809 z"
       fill-rule="evenodd"
       id="path2-3-7"
       style="fill:#fefefe;fill-opacity:1;stroke-width:0.0157622;enable-background:new" />
  </g>
  <metadata
     id="metadata28">
    <rdf:RDF>
      <cc:Work
         rdf:about="">
        <dc:format>image/svg+xml</dc:format>
        <dc:type
           rdf:resource="http://purl.org/dc/dcmitype/StillImage" />
      </cc:Work>
    </rdf:RDF>
  </metadata>
  <defs
     id="defs26">
    <linearGradient
       inkscape:collect="always"
       id="linearGradient1499">
      <stop
         style="stop-color:#96b57d;stop-opacity:1;"
         offset="0"
         id="stop1494" />
      <stop
         style="stop-color:#96b57d;stop-opacity:1;"
         offset="1"
         id="stop1496" />
    </linearGradient>
    <linearGradient
       inkscape:collect="always"
       xlink:href="#linearGradient6025"
       id="linearGradient1498"
       x1="6"
       y1="31.999754"
       x2="57.999969"
       y2="31.999754"
       gradientUnits="userSpaceOnUse"
       gradientTransform="matrix(0.34615385,0,0,0.34615385,-0.076917,-0.076838)" />
    <linearGradient
       inkscape:collect="always"
       id="linearGradient6025">
      <stop
         style="stop-color:#b2c89d;stop-opacity:1;"
         offset="0"
         id="stop6021" />
      <stop
         style="stop-color:#96b57d;stop-opacity:1;"
         offset="1"
         id="stop6023" />
    </linearGradient>
    <linearGradient
       inkscape:collect="always"
       xlink:href="#linearGradient2231"
       id="linearGradient1506"
       x1="53.741104"
       y1="31.999821"
       x2="10.20201"
       y2="32.000114"
       gradientUnits="userSpaceOnUse"
       gradientTransform="matrix(0.34615385,0,0,0.34615385,-0.076917,-0.076838)" />
    <linearGradient
       inkscape:collect="always"
       id="linearGradient2231">
      <stop
         style="stop-color:#e5edde;stop-opacity:1;"
         offset="0"
         id="stop2227" />
      <stop
         style="stop-color:#6c9254;stop-opacity:1;"
         offset="1"
         id="stop2229" />
    </linearGradient>
    <linearGradient
       inkscape:collect="always"
       xlink:href="#linearGradient6025"
       id="linearGradient638"
       gradientUnits="userSpaceOnUse"
       gradientTransform="matrix(0.34615385,0,0,0.34615385,-0.076915,-0.076838)"
       x1="6"
       y1="31.999754"
       x2="57.999969"
       y2="31.999754" />
    <linearGradient
       inkscape:collect="always"
       xlink:href="#linearGradient2231"
       id="linearGradient640"
       gradientUnits="userSpaceOnUse"
       gradientTransform="matrix(0.34615385,0,0,0.34615385,-0.076915,-0.076838)"
       x1="53.741104"
       y1="31.999821"
       x2="10.20201"
       y2="32.000114" />
    <linearGradient
       inkscape:collect="always"
       xlink:href="#linearGradient1499"
       id="linearGradient675"
       gradientUnits="userSpaceOnUse"
       gradientTransform="matrix(0.34615385,0,0,0.34615385,-0.076915,-0.076838)"
       x1="6"
       y1="31.999754"
       x2="57.999969"
       y2="31.999754" />
    <radialGradient
       inkscape:collect="always"
       xlink:href="#linearGradient2231"
       id="radialGradient1443"
       cx="10.990191"
       cy="11.000085"
       fx="10.990191"
       fy="11.000085"
       r="7.5356412"
       gradientTransform="matrix(1,0,0,0.99998859,0,1.2553774e-4)"
       gradientUnits="userSpaceOnUse" />
  </defs>
  <sodipodi:namedview
     inkscape:document-rotation="0"
     pagecolor="#000000"
     bordercolor="#ff0000"
     borderopacity="1"
     objecttolerance="10"
     gridtolerance="10"
     guidetolerance="10"
     inkscape:pageopacity="0"
     inkscape:pageshadow="2"
     inkscape:window-width="1920"
     inkscape:window-height="994"
     id="namedview24"
     showgrid="true"
     inkscape:zoom="8"
     inkscape:cx="-10.875"
     inkscape:cy="17.4375"
     inkscape:window-x="0"
     inkscape:window-y="0"
     inkscape:window-maximized="1"
     inkscape:current-layer="svg4306"
     inkscape:snap-bbox="true"
     inkscape:bbox-nodes="true"
     inkscape:lockguides="false"
     inkscape:pagecheckerboard="true"
     inkscape:showpageshadow="false"
     inkscape:deskcolor="#000000">
    <inkscape:grid
       type="xygrid"
       id="grid228"
       originx="0"
       originy="0"
       spacingy="1"
       spacingx="1"
       units="px"
       visible="true" />
  </sodipodi:namedview>
  <style
     type="text/css"
     id="current-color-scheme" />
  <g
     id="inactive-center"
     transform="translate(-44,22)">
    <rect
       style="opacity:0.00100002;fill:#000000;fill-opacity:1;fill-rule:nonzero;stroke:none;stroke-width:2;stroke-linecap:round;stroke-linejoin:round;stroke-miterlimit:4;stroke-dasharray:none;stroke-opacity:1"
       y="0"
       x="0"
       height="22"
       width="22"
       id="rect4266-9" />
    <path
       id="path839-3-36-5"
       style="fill:#2b4254;fill-opacity:1;stroke-width:1.125;enable-background:new"
       d="M 11,2 C 6.02953,2 2,6.029441 2,10.999998 2,15.970557 6.02953,20 11,20 15.970481,20 20.000001,15.970557 20.000001,10.999998 20.000001,6.029441 15.970481,2 11,2 Z m 0,1.125 c 4.349191,0 7.875001,3.525746 7.875001,7.874998 0,4.349234 -3.52581,7.875002 -7.875001,7.875002 -4.3492,0 -7.875,-3.525768 -7.875,-7.875002 C 3.125,6.650746 6.6508,3.125 11,3.125 Z m 0,0 z"
       sodipodi:nodetypes="ssssssssssccccc" />
    <rect
       style="fill:#a3be8c;fill-opacity:0.6;stroke:none;stroke-width:0.39374;enable-background:new"
       id="center-3-35-5-7-62"
       width="15.749992"
       height="15.749992"
       x="3.125"
       y="3.125"
       ry="7.8749838"
       rx="7.8749962" />
  </g>
  <g
     id="hover-inactive-center"
     transform="translate(0,22)">
    <rect
       id="rect4266-3-67"
       width="22"
       height="22"
       x="-22"
       y="0"
       style="opacity:0.00100002;fill:#000000;fill-opacity:1;fill-rule:nonzero;stroke:none;stroke-width:2;stroke-linecap:round;stroke-linejoin:round;stroke-miterlimit:4;stroke-dasharray:none;stroke-opacity:1" />
    <path
       id="path839-3-36-70"
       style="fill:#2b4254;fill-opacity:1;stroke-width:1.125;enable-background:new"
       d="m -11,2 c -4.97047,0 -9,4.029441 -9,8.999998 C -20,15.970557 -15.97047,20 -11,20 -6.02952,20 -2,15.970557 -2,10.999998 -2,6.029441 -6.02952,2 -11,2 Z m 0,1.125 c 4.34919,0 7.875,3.525746 7.875,7.874998 0,4.349234 -3.52581,7.875002 -7.875,7.875002 -4.3492,0 -7.875,-3.525768 -7.875,-7.875002 C -18.875,6.650746 -15.3492,3.125 -11,3.125 Z m 0,0 z"
       sodipodi:nodetypes="ssssssssssccccc" />
    <rect
       style="fill:#a3be8c;fill-opacity:0.75;stroke:none;stroke-width:0.39374;enable-background:new"
       id="center-3-35-5-7-9"
       width="15.749992"
       height="15.749992"
       x="-18.875002"
       y="3.1249998"
       ry="7.8749838"
       rx="7.8749962" />
    <path
       d="m -11.004491,6.000015 c -0.0094,1.19e-4 -0.01862,0.0011 -0.02782,0.0023 -0.06398,0.0068 -0.12351,0.03393 -0.169,0.07655 l -3.713177,3.46469 c -0.0543,0.0498 -0.08502,0.117908 -0.08524,0.189059 -2.59e-4,0.07109 0.02993,0.13932 0.08383,0.189596 0.05394,0.05024 0.127067,0.07819 0.203292,0.07779 h 7.425212 c 0.07627,7.93e-4 0.149563,-0.02736 0.203611,-0.07761 0.05402,-0.05027 0.08431,-0.118502 0.08405,-0.189723 -1.89e-4,-0.0711 -0.03092,-0.139258 -0.08523,-0.189175 l -3.71382,-3.464847 c -0.05451,-0.05088 -0.128736,-0.07905 -0.205782,-0.07808 z"
       fill-rule="evenodd"
       id="path2-6-56"
       style="fill:#2b4254;fill-opacity:1;stroke-width:0.0157624;enable-background:new" />
    <path
       d="m -10.995024,16.000013 c 0.0094,-1.18e-4 0.01862,-0.0012 0.02785,-0.0023 0.06397,-0.0066 0.123505,-0.0339 0.169004,-0.07656 l 3.713158,-3.464643 c 0.0543,-0.0498 0.08503,-0.117907 0.08526,-0.18905 2.53e-4,-0.07109 -0.02993,-0.139327 -0.08385,-0.189597 -0.05393,-0.05023 -0.127076,-0.07821 -0.203293,-0.07781 h -7.425186 c -0.07627,-7.93e-4 -0.149568,0.02737 -0.203616,0.07761 -0.05403,0.05025 -0.08432,0.118508 -0.08405,0.189722 1.85e-4,0.07111 0.03092,0.139258 0.0852,0.189173 l 3.713812,3.464741 c 0.05451,0.05089 0.128732,0.07904 0.205776,0.07809 z"
       fill-rule="evenodd"
       id="path2-3-7-2"
       style="fill:#2b4254;fill-opacity:1;stroke-width:0.0157622;enable-background:new" />
  </g>
  <g
     id="active-center"
     transform="translate(-44)">
    <rect
       id="rect4266"
       width="22"
       height="22"
       x="0"
       y="0"
       style="opacity:0.00100002;fill:#000000;fill-opacity:1;fill-rule:nonzero;stroke:none;stroke-width:2;stroke-linecap:round;stroke-linejoin:round;stroke-miterlimit:4;stroke-dasharray:none;stroke-opacity:1" />
    <path
       d="m 19.999824,10.999909 c 0,1.078918 -0.189907,2.113341 -0.538179,3.072157 -0.242083,0.666352 -0.560558,1.296375 -0.945561,1.87908 -0.161255,0.244999 -0.334641,0.481607 -0.518694,0.708986 -0.589216,0.727707 -1.289458,1.361346 -2.075466,1.875678 -0.289478,0.189552 -0.590341,0.362947 -0.901829,0.518312 C 13.81046,19.659482 12.445032,20 10.999892,20 9.554755,20 8.189323,19.659482 6.979692,19.054099 6.668178,18.8987 6.366948,18.725317 6.07748,18.535787 5.281434,18.014516 4.572812,17.370831 3.978881,16.631082 3.794485,16.401855 3.621446,16.163081 3.460183,15.915871 3.085475,15.342826 2.775089,14.724494 2.537798,14.071034 2.189581,13.112604 2.000006,12.078566 2.000006,11.000011 2.000006,6.029385 6.029393,2 11.00002,2 c 2.495118,0 4.752805,1.01534 6.38311,2.655113 0.469827,0.472378 0.887517,0.996994 1.242969,1.564085 0.336126,0.53413 0.617126,1.106437 0.835695,1.708543 0.348307,0.958782 0.5382,1.993262 0.5382,3.072157 z"
       stroke-width="0.0351571"
       id="path273"
       style="fill:url(#linearGradient1498);fill-opacity:1;enable-background:new" />
    <path
       d="m 18.525773,11.000023 c 0,0.903368 -0.15902,1.769432 -0.450609,2.572225 -0.202708,0.55793 -0.46935,1.085404 -0.791706,1.57327 -0.135017,0.205132 -0.280198,0.403245 -0.434298,0.593625 -0.493332,0.609306 -1.079609,1.139898 -1.7378,1.570548 -0.242368,0.158711 -0.494282,0.303894 -0.755088,0.433973 -1.012791,0.50686 -2.156088,0.791976 -3.366173,0.791976 -1.209974,0 -2.353275,-0.285116 -3.366176,-0.791987 C 7.363096,17.61354 7.110881,17.468368 6.868514,17.30968 6.201992,16.873235 5.608653,16.334309 5.111441,15.714866 4.957049,15.522944 4.812174,15.323006 4.677139,15.116026 4.363416,14.636221 4.103528,14.118533 3.904835,13.571443 3.613291,12.768956 3.454548,11.903153 3.454548,11.000125 c 0,-4.161824 3.373771,-7.535595 7.535596,-7.535595 2.089073,0 3.979378,0.850133 5.344583,2.223101 0.393379,0.395523 0.743116,0.834758 1.04076,1.309642 0.28144,0.447216 0.516714,0.926409 0.699722,1.430512 0.291624,0.802771 0.450619,1.668858 0.450619,2.572226 z"
       stroke-width="0.0294357"
       id="path275"
       style="fill:url(#linearGradient1506);fill-opacity:1;enable-background:new" />
  </g>
  <g
     id="hover-center"
     transform="translate(-22)">
    <rect
       style="opacity:0.00100002;fill:#000000;fill-opacity:1;fill-rule:nonzero;stroke:none;stroke-width:2;stroke-linecap:round;stroke-linejoin:round;stroke-miterlimit:4;stroke-dasharray:none;stroke-opacity:1"
       y="0"
       x="0"
       height="22"
       width="22"
       id="rect4266-3" />
    <path
       d="m 19.999822,10.999909 c 0,1.078918 -0.1899,2.113341 -0.53817,3.072157 -0.24209,0.666352 -0.56056,1.296375 -0.945566,1.87908 -0.161255,0.244999 -0.334641,0.481607 -0.518694,0.708986 -0.589216,0.727707 -1.289458,1.361346 -2.075466,1.875678 -0.289478,0.189552 -0.590341,0.362947 -0.901829,0.518312 C 13.810462,19.659482 12.445034,20 10.999894,20 9.554757,20 8.189325,19.659482 6.979694,19.054099 6.66818,18.8987 6.36695,18.725317 6.077482,18.535787 5.281436,18.014516 4.572814,17.370831 3.978883,16.631082 3.794487,16.401855 3.621448,16.163081 3.460185,15.915871 3.085477,15.342826 2.775091,14.724494 2.5378,14.071034 2.189583,13.112604 2.000008,12.078566 2.000008,11.000011 2.000008,6.029385 6.029395,2 11.000022,2 c 2.495118,0 4.752805,1.01534 6.38311,2.655113 0.469827,0.472378 0.887517,0.996994 1.24297,1.564085 0.33613,0.53413 0.61713,1.106437 0.83569,1.708543 0.34831,0.958782 0.5382,1.993262 0.5382,3.072157 z"
       stroke-width="0.0351571"
       id="path273-3"
       style="fill:url(#linearGradient638);fill-opacity:1;enable-background:new" />
    <path
       d="m 18.525775,11.000023 c 0,0.903368 -0.15902,1.769432 -0.450609,2.572225 -0.202708,0.55793 -0.46935,1.085404 -0.791706,1.57327 -0.135017,0.205132 -0.280198,0.403245 -0.434298,0.593625 -0.493332,0.609306 -1.079609,1.139898 -1.7378,1.570548 -0.242368,0.158711 -0.494282,0.303894 -0.755088,0.433973 -1.012791,0.50686 -2.156088,0.791976 -3.366173,0.791976 -1.209974,0 -2.353275,-0.285116 -3.366176,-0.791987 C 7.363098,17.61354 7.110883,17.468368 6.868516,17.30968 6.201994,16.873235 5.608655,16.334309 5.111443,15.714866 4.957051,15.522944 4.812176,15.323006 4.677141,15.116026 4.363418,14.636221 4.10353,14.118533 3.904837,13.571443 3.613293,12.768956 3.45455,11.903153 3.45455,11.000125 c 0,-4.161824 3.373771,-7.535595 7.535596,-7.535595 2.089073,0 3.979378,0.850133 5.344583,2.223101 0.393379,0.395523 0.743116,0.834758 1.04076,1.309642 0.28144,0.447216 0.516714,0.926409 0.699722,1.430512 0.291624,0.802771 0.450619,1.668858 0.450619,2.572226 z"
       stroke-width="0.0294357"
       id="path275-5"
       style="fill:url(#linearGradient640);fill-opacity:1;enable-background:new" />
    <path
       d="m 10.995239,6.000015 c -0.0094,1.19e-4 -0.01862,0.0011 -0.02782,0.0023 -0.06398,0.0068 -0.12351,0.03393 -0.169,0.07655 l -3.7131765,3.46469 c -0.0543,0.0498 -0.08502,0.117908 -0.08524,0.189059 -2.59e-4,0.07109 0.02993,0.13932 0.08383,0.189596 0.05394,0.05024 0.127067,0.07819 0.203292,0.07779 h 7.4252115 c 0.07627,7.93e-4 0.149563,-0.02736 0.203611,-0.07761 0.05402,-0.05027 0.08431,-0.118502 0.08405,-0.189723 -1.89e-4,-0.0711 -0.03092,-0.139258 -0.08523,-0.189175 L 11.200946,6.078645 c -0.05451,-0.05088 -0.128736,-0.07905 -0.205782,-0.07808 z"
       fill-rule="evenodd"
       id="path2-0"
       style="fill:#2b4254;fill-opacity:1;stroke-width:0.0157624;enable-background:new" />
    <path
       d="m 11.004706,16.000013 c 0.0094,-1.18e-4 0.01862,-0.0012 0.02785,-0.0023 0.06397,-0.0066 0.123505,-0.0339 0.169004,-0.07656 l 3.713158,-3.464643 c 0.0543,-0.0498 0.08503,-0.117907 0.08526,-0.18905 2.53e-4,-0.07109 -0.02993,-0.139327 -0.08385,-0.189597 -0.05393,-0.05023 -0.127076,-0.07821 -0.203293,-0.07781 H 7.2876495 c -0.07627,-7.93e-4 -0.149568,0.02737 -0.203616,0.07761 -0.05403,0.05025 -0.08432,0.118508 -0.08405,0.189722 1.85e-4,0.07111 0.03092,0.139257 0.0852,0.189173 l 3.7138115,3.464741 c 0.05451,0.05089 0.128732,0.07904 0.205776,0.07809 z"
       fill-rule="evenodd"
       id="path2-3-9"
       style="fill:#2b4254;fill-opacity:1;stroke-width:0.0157622;enable-background:new" />
  </g>
  <g
     id="pressed-center">
    <rect
       id="rect4266-3-6"
       width="22"
       height="22"
       x="0"
       y="0"
       style="opacity:0.00100002;fill:#000000;fill-opacity:1;fill-rule:nonzero;stroke:none;stroke-width:2;stroke-linecap:round;stroke-linejoin:round;stroke-miterlimit:4;stroke-dasharray:none;stroke-opacity:1" />
    <path
       d="m 19.999822,10.999909 c 0,1.078918 -0.1899,2.113341 -0.53817,3.072157 -0.24209,0.666352 -0.56056,1.296375 -0.94557,1.87908 -0.16125,0.244999 -0.33464,0.481607 -0.51869,0.708986 -0.58922,0.727707 -1.28946,1.361346 -2.075466,1.875678 -0.289478,0.189552 -0.590341,0.362947 -0.901829,0.518312 C 13.810462,19.659482 12.445034,20 10.999894,20 9.554757,20 8.189325,19.659482 6.979694,19.054099 6.66818,18.8987 6.36695,18.725317 6.077482,18.535787 5.281436,18.014516 4.572814,17.370831 3.978883,16.631082 3.794487,16.401855 3.621448,16.163081 3.460185,15.915871 3.085477,15.342826 2.775091,14.724494 2.5378,14.071034 2.189583,13.112604 2.000008,12.078566 2.000008,11.000011 2.000008,6.029385 6.029395,2 11.000022,2 c 2.495118,0 4.752805,1.01534 6.38311,2.655113 0.46983,0.472378 0.88752,0.996994 1.24297,1.564085 0.33613,0.53413 0.61713,1.106437 0.83569,1.708543 0.34831,0.958782 0.5382,1.993262 0.5382,3.072157 z"
       stroke-width="0.0351571"
       id="path273-2"
       style="fill:url(#linearGradient675);fill-opacity:1;enable-background:new" />
    <path
       d="m 18.525772,11.000023 c 0,0.903368 -0.15902,1.769432 -0.45061,2.572225 -0.2027,0.55793 -0.46935,1.085404 -0.7917,1.57327 -0.13502,0.205132 -0.2802,0.403245 -0.4343,0.593625 -0.493332,0.609306 -1.079609,1.139898 -1.7378,1.570548 -0.242368,0.158711 -0.494282,0.303894 -0.755088,0.433973 -1.012791,0.50686 -2.156088,0.791976 -3.366173,0.791976 -1.209974,0 -2.353275,-0.285116 -3.366176,-0.791987 C 7.363098,17.61354 7.110883,17.468368 6.868516,17.30968 6.201994,16.873235 5.608655,16.334309 5.111443,15.714866 4.957051,15.522944 4.812176,15.323006 4.677141,15.116026 4.363418,14.636221 4.10353,14.118533 3.904837,13.571443 3.613293,12.768956 3.45455,11.903153 3.45455,11.000125 c 0,-4.161824 3.373771,-7.535595 7.535596,-7.535595 2.089073,0 3.979378,0.850133 5.344583,2.223101 0.393383,0.395523 0.743113,0.834758 1.040763,1.309642 0.28144,0.447216 0.51671,0.926409 0.69972,1.430512 0.29162,0.802771 0.45062,1.668858 0.45062,2.572226 z"
       stroke-width="0.0294357"
       id="path275-7"
       style="fill:url(#radialGradient1443);fill-opacity:1;enable-background:new" />
    <path
       d="m 10.995239,6.000015 c -0.0094,1.19e-4 -0.01862,0.0011 -0.02782,0.0023 -0.06398,0.0068 -0.12351,0.03393 -0.169,0.07655 l -3.7131765,3.46469 c -0.0543,0.0498 -0.08502,0.117908 -0.08524,0.189059 -2.59e-4,0.07109 0.02993,0.13932 0.08383,0.189596 0.05394,0.05024 0.127067,0.07819 0.203292,0.07779 h 7.4252115 c 0.07627,7.93e-4 0.149563,-0.02736 0.203611,-0.07761 0.05402,-0.05027 0.08431,-0.118502 0.08405,-0.189723 -1.89e-4,-0.0711 -0.03092,-0.139258 -0.08523,-0.189175 l -3.71382,-3.464847 c -0.05451,-0.05088 -0.128736,-0.07905 -0.205782,-0.07808 z"
       fill-rule="evenodd"
       id="path2-6-5-3"
       style="fill:#fefefe;fill-opacity:1;stroke-width:0.0157624;enable-background:new" />
    <path
       d="m 11.004706,16.000013 c 0.0094,-1.18e-4 0.01862,-0.0012 0.02785,-0.0023 0.06397,-0.0066 0.123505,-0.0339 0.169004,-0.07656 l 3.713158,-3.464643 c 0.0543,-0.0498 0.08503,-0.117907 0.08526,-0.18905 2.53e-4,-0.07109 -0.02993,-0.139327 -0.08385,-0.189597 -0.05393,-0.05023 -0.127076,-0.07821 -0.203293,-0.07781 H 7.2876495 c -0.07627,-7.93e-4 -0.149568,0.02737 -0.203616,0.07761 -0.05403,0.05025 -0.08432,0.118508 -0.08405,0.189722 1.85e-4,0.07111 0.03092,0.139258 0.0852,0.189174 l 3.7138115,3.46474 c 0.05451,0.05089 0.128732,0.07904 0.205776,0.07809 z"
       fill-rule="evenodd"
       id="path2-3-7-3-6"
       style="fill:#fefefe;fill-opacity:1;stroke-width:0.0157622;enable-background:new" />
  </g>
</svg>
