<?xml version="1.0" encoding="UTF-8" standalone="no"?>
<svg
   id="svg4306"
   width="22"
   height="22"
   version="1.1"
   style="enable-background:new"
   sodipodi:docname="shade.svg"
   inkscape:version="1.3.1 (91b66b0783, 2023-11-16)"
   xmlns:inkscape="http://www.inkscape.org/namespaces/inkscape"
   xmlns:sodipodi="http://sodipodi.sourceforge.net/DTD/sodipodi-0.dtd"
   xmlns:xlink="http://www.w3.org/1999/xlink"
   xmlns="http://www.w3.org/2000/svg"
   xmlns:svg="http://www.w3.org/2000/svg"
   xmlns:rdf="http://www.w3.org/1999/02/22-rdf-syntax-ns#"
   xmlns:cc="http://creativecommons.org/ns#"
   xmlns:dc="http://purl.org/dc/elements/1.1/">
  <g
     id="pressed-center">
    <rect
       id="rect4266-3-6"
       width="22"
       height="22"
       x="0"
       y="0"
       style="opacity:0.00100002;fill:#000000;fill-opacity:1;fill-rule:nonzero;stroke:none;stroke-width:2;stroke-linecap:round;stroke-linejoin:round;stroke-miterlimit:4;stroke-dasharray:none;stroke-opacity:1" />
    <path
       d="m 19.999824,10.999909 c 0,1.078918 -0.18991,2.113341 -0.53818,3.072157 -0.24208,0.666352 -0.56056,1.296375 -0.94556,1.87908 -0.16125,0.244999 -0.33464,0.481607 -0.51869,0.708986 -0.58922,0.727707 -1.28946,1.361346 -2.07547,1.875678 -0.28948,0.189552 -0.59034,0.362947 -0.90183,0.518312 C 13.810464,19.659482 12.445034,20 10.999894,20 9.554755,20 8.189323,19.659482 6.979692,19.054099 6.668178,18.8987 6.366948,18.725317 6.07748,18.535787 5.281434,18.014516 4.572812,17.370831 3.978881,16.631082 3.794485,16.401855 3.621446,16.163081 3.460183,15.915871 3.085475,15.342826 2.775089,14.724494 2.537798,14.071034 2.189581,13.112604 2.000006,12.078566 2.000006,11.000011 2.000006,6.029385 6.029393,2 11.000024,2 c 2.49511,0 4.7528,1.01534 6.38311,2.655113 0.46982,0.472378 0.88751,0.996994 1.24297,1.564085 0.33612,0.53413 0.61712,1.106437 0.83569,1.708543 0.34831,0.958782 0.5382,1.993262 0.5382,3.072157 z"
       stroke-width="0.0351571"
       id="path273-6"
       style="fill:#c7b0e9;fill-opacity:1;enable-background:new" />
    <path
       d="m 18.525774,11.000023 c 0,0.903368 -0.15902,1.769432 -0.45061,2.572225 -0.20271,0.55793 -0.46935,1.085404 -0.79171,1.57327 -0.13501,0.205132 -0.28019,0.403245 -0.43429,0.593625 -0.49334,0.609306 -1.07961,1.139898 -1.7378,1.570548 -0.24237,0.158711 -0.49429,0.303894 -0.75509,0.433973 -1.01279,0.50686 -2.15609,0.791976 -3.36617,0.791976 -1.20998,0 -2.35328,-0.285116 -3.366181,-0.791987 C 7.363096,17.61354 7.110881,17.468368 6.868514,17.30968 6.201992,16.873235 5.608653,16.334309 5.111441,15.714866 4.957049,15.522944 4.812174,15.323006 4.677139,15.116026 4.363416,14.636221 4.103528,14.118533 3.904835,13.571443 3.613291,12.768956 3.454548,11.903153 3.454548,11.000125 c 0,-4.1618241 3.373771,-7.5355951 7.535596,-7.5355951 2.08907,0 3.97938,0.850133 5.34458,2.223101 0.39338,0.395523 0.74312,0.834758 1.04076,1.309642 0.28144,0.447216 0.51672,0.926409 0.69973,1.4305121 0.29162,0.8027709 0.45061,1.668858 0.45061,2.572226 z"
       stroke-width="0.0294357"
       id="path275-1"
       style="fill:url(#radialGradient6113);fill-opacity:1;enable-background:new" />
    <path
       d="m 13,8 c 0,1.104487 -0.895516,2 -2.000001,2 C 9.895514,10 9,9.104487 9,8 9,6.895513 9.895514,6 10.999999,6 12.104484,6 13,6.895513 13,8 Z"
       id="path4-3-7-3-3-6-1-3-5-7-0"
       style="fill:#ffffff;fill-opacity:1;stroke-width:0.00408165;enable-background:new" />
    <path
       d="m 11.00646,16.000005 c 0.0128,-1.46e-4 0.02558,-0.0011 0.03833,-0.0023 0.08797,-0.0088 0.169825,-0.04243 0.232388,-0.09571 l 5.105584,-4.331334 c 0.0747,-0.0623 0.116915,-0.1474 0.117234,-0.236349 3.5e-4,-0.08887 -0.04111,-0.17417 -0.115316,-0.237016 -0.07411,-0.06277 -0.174729,-0.09781 -0.279529,-0.09728 H 5.8955303 c -0.104874,-9.93e-4 -0.20566,0.03419 -0.279966,0.09696 -0.07435,0.06279 -0.115921,0.148148 -0.115562,0.237176 2.53e-4,0.08893 0.04254,0.174097 0.117154,0.236497 l 5.1064847,4.331461 c 0.07491,0.06366 0.17701,0.09885 0.282946,0.09764 z"
       fill-rule="evenodd"
       id="path2-5-5-6"
       style="fill:#ffffff;fill-opacity:1;stroke-width:0.0206658;enable-background:new" />
  </g>
  <g
     id="hover-inactive-center"
     transform="translate(-22,22)">
    <rect
       id="rect4266-3-67"
       width="22"
       height="22"
       x="0"
       y="0"
       style="opacity:0.00100002;fill:#000000;fill-opacity:1;fill-rule:nonzero;stroke:none;stroke-width:2;stroke-linecap:round;stroke-linejoin:round;stroke-miterlimit:4;stroke-dasharray:none;stroke-opacity:1" />
    <path
       id="path839-3-7-9"
       style="fill:#2b4254;fill-opacity:1;stroke-width:1.125;enable-background:new"
       d="M 11,2 C 6.02953,2 2,6.029441 2,10.999998 2,15.970557 6.02953,20 11,20 15.97048,20 20,15.970557 20,10.999998 20,6.029441 15.97048,2 11,2 Z m 0,1.125 c 4.34919,0 7.875,3.525746 7.875,7.874998 C 18.875,15.349232 15.34919,18.875 11,18.875 6.6508,18.875 3.125,15.349232 3.125,10.999998 3.125,6.650746 6.6508,3.125 11,3.125 Z m 0,0 z"
       sodipodi:nodetypes="ssssssssssccccc" />
    <rect
       style="fill:#c6afe9;fill-opacity:0.7;stroke:none;stroke-width:0.39374;enable-background:new"
       id="center-3-35-5-5-1"
       width="15.749992"
       height="15.749992"
       x="3.125"
       y="3.125"
       ry="7.8749838"
       rx="7.8749962" />
    <path
       d="m 13.000001,14 c 0,1.104485 -0.895516,2 -2.000001,2 -1.104485,0 -2,-0.895515 -2,-2 0,-1.104485 0.895515,-2 2,-2 1.104485,0 2.000001,0.895515 2.000001,2 z"
       id="path4-3-7-3-3-6-1-3-2"
       style="fill:#2b4254;fill-opacity:1;stroke-width:0.00408165;enable-background:new" />
    <path
       d="m 10.99388,6.00002 c -0.0128,1.46e-4 -0.02558,0.0011 -0.03833,0.0023 -0.08797,0.0088 -0.169825,0.04243 -0.232388,0.09571 l -5.1055839,4.331325 c -0.0747,0.0623 -0.1169151,0.1474 -0.117234,0.236349 -3.501e-4,0.08887 0.04111,0.17417 0.115316,0.237016 C 5.68977,10.96549 5.790389,11.00053 5.8951891,11 H 16.104811 c 0.104874,9.93e-4 0.20566,-0.03419 0.279966,-0.09696 0.07435,-0.06279 0.115921,-0.148148 0.115562,-0.237176 -2.53e-4,-0.08893 -0.04254,-0.174097 -0.117154,-0.236497 L 11.276699,6.097915 c -0.07491,-0.06366 -0.17701,-0.09885 -0.282946,-0.09764 z"
       fill-rule="evenodd"
       id="path2-3-7"
       style="fill:#2b4254;fill-opacity:1;stroke-width:0.0206658;enable-background:new" />
  </g>
  <g
     id="inactive-center"
     transform="translate(-44,22)">
    <rect
       style="opacity:0.00100002;fill:#000000;fill-opacity:1;fill-rule:nonzero;stroke:none;stroke-width:2;stroke-linecap:round;stroke-linejoin:round;stroke-miterlimit:4;stroke-dasharray:none;stroke-opacity:1"
       y="0"
       x="0"
       height="22"
       width="22"
       id="rect4266-9" />
    <path
       id="path839-3-70"
       style="fill:#2b4254;fill-opacity:1;stroke-width:1.125;enable-background:new"
       d="M 11,2 C 6.02953,2 2,6.029441 2,10.999998 2,15.970557 6.02953,20 11,20 15.97048,20 20,15.970557 20,10.999998 20,6.029441 15.97048,2 11,2 Z m 0,1.125 c 4.34919,0 7.875,3.525746 7.875,7.874998 C 18.875,15.349232 15.34919,18.875 11,18.875 6.6508,18.875 3.125,15.349232 3.125,10.999998 3.125,6.650746 6.6508,3.125 11,3.125 Z m 0,0 z"
       sodipodi:nodetypes="ssssssssssccccc" />
    <rect
       style="fill:#c6afe9;fill-opacity:0.6;stroke:none;stroke-width:0.39374;enable-background:new"
       id="center-3-35-5-9"
       width="15.749992"
       height="15.749992"
       x="3.125"
       y="3.125"
       ry="7.8749838"
       rx="7.8749962" />
  </g>
  <metadata
     id="metadata28">
    <rdf:RDF>
      <cc:Work
         rdf:about="">
        <dc:format>image/svg+xml</dc:format>
        <dc:type
           rdf:resource="http://purl.org/dc/dcmitype/StillImage" />
      </cc:Work>
    </rdf:RDF>
  </metadata>
  <defs
     id="defs26">
    <linearGradient
       inkscape:collect="always"
       id="linearGradient5807">
      <stop
         style="stop-color:#d8c4ed;stop-opacity:1;"
         offset="0"
         id="stop5803" />
      <stop
         style="stop-color:#8e5fd3;stop-opacity:1;"
         offset="1"
         id="stop5805" />
    </linearGradient>
    <linearGradient
       inkscape:collect="always"
       xlink:href="#linearGradient5807"
       id="linearGradient1498"
       x1="6"
       y1="31.999754"
       x2="57.999969"
       y2="31.999754"
       gradientUnits="userSpaceOnUse"
       gradientTransform="matrix(0.34615385,0,0,0.34615385,-0.076917,-0.076838)" />
    <linearGradient
       inkscape:collect="always"
       xlink:href="#linearGradient5807"
       id="linearGradient1506"
       x1="53.741104"
       y1="31.999821"
       x2="10.20201"
       y2="32.000114"
       gradientUnits="userSpaceOnUse"
       gradientTransform="matrix(0.34615385,0,0,0.34615385,-0.076917,-0.076838)" />
    <linearGradient
       inkscape:collect="always"
       xlink:href="#linearGradient5807"
       id="linearGradient5892"
       gradientUnits="userSpaceOnUse"
       gradientTransform="matrix(0.34615385,0,0,0.34615385,-0.0769175,-0.076838)"
       x1="6"
       y1="31.999754"
       x2="57.999969"
       y2="31.999754" />
    <linearGradient
       inkscape:collect="always"
       xlink:href="#linearGradient5807"
       id="linearGradient5894"
       gradientUnits="userSpaceOnUse"
       gradientTransform="matrix(0.34615385,0,0,0.34615385,-0.0769175,-0.076838)"
       x1="53.741104"
       y1="31.999821"
       x2="10.20201"
       y2="32.000114" />
    <radialGradient
       inkscape:collect="always"
       xlink:href="#linearGradient5807"
       id="radialGradient6113"
       cx="63.990185"
       cy="2.3750849"
       fx="63.990185"
       fy="2.3750849"
       r="7.5356379"
       gradientTransform="matrix(1,0,0,0.99998899,-52.999997,8.6250262)"
       gradientUnits="userSpaceOnUse" />
  </defs>
  <sodipodi:namedview
     inkscape:document-rotation="0"
     pagecolor="#000000"
     bordercolor="#ff0000"
     borderopacity="1"
     objecttolerance="10"
     gridtolerance="10"
     guidetolerance="10"
     inkscape:pageopacity="0"
     inkscape:pageshadow="2"
     inkscape:window-width="1920"
     inkscape:window-height="994"
     id="namedview24"
     showgrid="true"
     inkscape:zoom="8.0000004"
     inkscape:cx="-10.499999"
     inkscape:cy="28.187499"
     inkscape:window-x="0"
     inkscape:window-y="0"
     inkscape:window-maximized="1"
     inkscape:current-layer="svg4306"
     inkscape:snap-bbox="true"
     inkscape:bbox-nodes="true"
     inkscape:lockguides="false"
     inkscape:pagecheckerboard="true"
     showguides="false"
     inkscape:showpageshadow="false"
     inkscape:deskcolor="#000000">
    <inkscape:grid
       type="xygrid"
       id="grid221"
       originx="0"
       originy="0"
       spacingy="1"
       spacingx="1"
       units="px"
       visible="true" />
  </sodipodi:namedview>
  <style
     type="text/css"
     id="current-color-scheme" />
  <g
     id="pressed-inactive-center"
     transform="translate(0,22)">
    <rect
       style="opacity:0.00100002;fill:#000000;fill-opacity:1;fill-rule:nonzero;stroke:none;stroke-width:2;stroke-linecap:round;stroke-linejoin:round;stroke-miterlimit:4;stroke-dasharray:none;stroke-opacity:1"
       y="0"
       x="0"
       height="22"
       width="22"
       id="rect4266-3-6-5" />
    <rect
       style="fill:#aa87de;fill-opacity:1;stroke:none;stroke-width:0.41124;enable-background:new"
       id="center-3-35-5-2-3-3"
       width="16.450001"
       height="16.450001"
       x="2.7996583"
       y="2.7999833"
       ry="8.224987"
       rx="8.2250004" />
    <path
       id="path839-3-6-6-5"
       style="fill:#2b4254;fill-opacity:1;stroke-width:1.125;enable-background:new"
       d="m 10.999659,1.999984 c -4.97047,0 -9,4.029441 -9,8.999998 0,4.970559 4.02953,9.000002 9,9.000002 4.97048,0 9,-4.029443 9,-9.000002 0,-4.970557 -4.02952,-8.999998 -9,-8.999998 z m 0,1.125 c 4.34919,0 7.875,3.525746 7.875,7.874998 0,4.349234 -3.52581,7.875002 -7.875,7.875002 -4.3492,0 -7.875,-3.525768 -7.875,-7.875002 0,-4.349252 3.5258,-7.874998 7.875,-7.874998 z m 0,0 z"
       sodipodi:nodetypes="ssssssssssccccc" />
    <path
       d="m 13.000001,8 c 0,1.104487 -0.895516,2 -2.000001,2 C 9.895515,10 9,9.104487 9,8 9,6.895513 9.895515,6 11,6 c 1.104485,0 2.000001,0.895513 2.000001,2 z"
       id="path4-3-7-3-3-6-1-3-5-7-6"
       style="fill:#ffffff;fill-opacity:1;stroke-width:0.00408165;enable-background:new" />
    <path
       d="m 11.00612,15.999989 c 0.0128,-1.46e-4 0.02558,-0.0011 0.03833,-0.0023 0.08797,-0.0088 0.169825,-0.04243 0.232388,-0.09571 l 5.105584,-4.331334 c 0.0747,-0.0623 0.116915,-0.1474 0.117234,-0.236349 3.5e-4,-0.08887 -0.04111,-0.17417 -0.115316,-0.237016 C 16.31023,11.03451 16.209611,10.99947 16.104811,11 H 5.895189 c -0.104874,-9.93e-4 -0.20566,0.03419 -0.279966,0.09696 -0.07435,0.06279 -0.115921,0.148148 -0.115562,0.237176 2.53e-4,0.08893 0.04254,0.174097 0.117154,0.236497 l 5.106486,4.331461 c 0.07491,0.06366 0.17701,0.09885 0.282946,0.09764 z"
       fill-rule="evenodd"
       id="path2-5-5-2"
       style="fill:#ffffff;fill-opacity:1;stroke-width:0.0206658;enable-background:new" />
  </g>
  <g
     id="active-center"
     transform="translate(-44)">
    <rect
       id="rect4266"
       width="22"
       height="22"
       x="0"
       y="0"
       style="opacity:0.00100002;fill:#000000;fill-opacity:1;fill-rule:nonzero;stroke:none;stroke-width:2;stroke-linecap:round;stroke-linejoin:round;stroke-miterlimit:4;stroke-dasharray:none;stroke-opacity:1" />
    <path
       d="m 19.999824,10.999909 c 0,1.078918 -0.18991,2.113341 -0.53818,3.072157 -0.24208,0.666352 -0.56056,1.296375 -0.94556,1.87908 -0.16125,0.244999 -0.33464,0.481607 -0.51869,0.708986 -0.58922,0.727707 -1.28946,1.361346 -2.07547,1.875678 -0.28948,0.189552 -0.59034,0.362947 -0.90183,0.518312 C 13.810464,19.659482 12.445034,20 10.999894,20 9.554755,20 8.189323,19.659482 6.979692,19.054099 6.668178,18.8987 6.366948,18.725317 6.07748,18.535787 5.281434,18.014516 4.572812,17.370831 3.978881,16.631082 3.794485,16.401855 3.621446,16.163081 3.460183,15.915871 3.085475,15.342826 2.775089,14.724494 2.537798,14.071034 2.189581,13.112604 2.000006,12.078566 2.000006,11.000011 2.000006,6.029385 6.029393,2 11.000024,2 c 2.49511,0 4.7528,1.01534 6.38311,2.655113 0.46982,0.472378 0.88751,0.996994 1.24297,1.564085 0.33612,0.53413 0.61712,1.106437 0.83569,1.708543 0.34831,0.958782 0.5382,1.993262 0.5382,3.072157 z"
       stroke-width="0.0351571"
       id="path273"
       style="fill:url(#linearGradient1498);fill-opacity:1;enable-background:new" />
    <path
       d="m 18.525774,11.000023 c 0,0.903368 -0.15902,1.769432 -0.45061,2.572225 -0.20271,0.55793 -0.46935,1.085404 -0.79171,1.57327 -0.13501,0.205132 -0.28019,0.403245 -0.43429,0.593625 -0.49334,0.609306 -1.07961,1.139898 -1.7378,1.570548 -0.24237,0.158711 -0.49429,0.303894 -0.75509,0.433973 -1.01279,0.50686 -2.15609,0.791976 -3.36617,0.791976 -1.20998,0 -2.35328,-0.285116 -3.366181,-0.791987 C 7.363096,17.61354 7.110881,17.468368 6.868514,17.30968 6.201992,16.873235 5.608653,16.334309 5.111441,15.714866 4.957049,15.522944 4.812174,15.323006 4.677139,15.116026 4.363416,14.636221 4.103528,14.118533 3.904835,13.571443 3.613291,12.768956 3.454548,11.903153 3.454548,11.000125 c 0,-4.161824 3.373771,-7.535595 7.535596,-7.535595 2.08907,0 3.97938,0.850133 5.34458,2.223101 0.39338,0.395523 0.74312,0.834758 1.04076,1.309642 0.28144,0.447216 0.51672,0.926409 0.69973,1.430512 0.29162,0.802771 0.45061,1.668858 0.45061,2.572226 z"
       stroke-width="0.0294357"
       id="path275"
       style="fill:url(#linearGradient1506);fill-opacity:1;enable-background:new" />
  </g>
  <g
     id="hover-center"
     transform="translate(-22)">
    <rect
       style="opacity:0.00100002;fill:#000000;fill-opacity:1;fill-rule:nonzero;stroke:none;stroke-width:2;stroke-linecap:round;stroke-linejoin:round;stroke-miterlimit:4;stroke-dasharray:none;stroke-opacity:1"
       y="0"
       x="0"
       height="22"
       width="22"
       id="rect4266-3" />
    <path
       d="m 19.999825,10.999909 c 0,1.078918 -0.18991,2.113341 -0.53818,3.072157 -0.24208,0.666352 -0.56056,1.296375 -0.94556,1.87908 -0.16125,0.244999 -0.33464,0.481607 -0.51869,0.708986 -0.58922,0.727707 -1.28946,1.361346 -2.07547,1.875678 -0.28948,0.189552 -0.59034,0.362947 -0.901831,0.518312 C 13.810464,19.659482 12.445034,20 10.999894,20 9.5547545,20 8.1893225,19.659482 6.9796915,19.054099 6.6681775,18.8987 6.3669475,18.725317 6.0774795,18.535787 5.2814335,18.014516 4.5728115,17.370831 3.9788805,16.631082 3.7944845,16.401855 3.6214455,16.163081 3.4601825,15.915871 3.0854745,15.342826 2.7750885,14.724494 2.5377975,14.071034 2.1895805,13.112604 2.0000055,12.078566 2.0000055,11.000011 2.0000055,6.029385 6.0293925,2 11.000023,2 c 2.49511,0 4.752802,1.01534 6.383111,2.655113 0.46982,0.472378 0.887511,0.996994 1.24297,1.564085 0.33612,0.53413 0.61712,1.106437 0.83569,1.708543 0.34831,0.958782 0.5382,1.993262 0.5382,3.072157 z"
       stroke-width="0.0351571"
       id="path273-9"
       style="fill:url(#linearGradient5892);fill-opacity:1;enable-background:new" />
    <path
       d="m 18.525775,11.000023 c 0,0.903368 -0.15902,1.769432 -0.45061,2.572225 -0.20271,0.55793 -0.46935,1.085404 -0.79171,1.57327 -0.13501,0.205132 -0.28019,0.403245 -0.43429,0.593625 -0.49334,0.609306 -1.07961,1.139898 -1.737801,1.570548 -0.24237,0.158711 -0.49429,0.303894 -0.75509,0.433973 -1.01279,0.50686 -2.15609,0.791976 -3.36617,0.791976 -1.2099805,0 -2.3532805,-0.285116 -3.3661815,-0.791987 -0.260827,-0.130113 -0.513042,-0.275285 -0.755409,-0.433973 -0.666522,-0.436445 -1.259861,-0.975371 -1.757073,-1.594814 -0.154392,-0.191922 -0.299267,-0.39186 -0.434302,-0.59884 -0.313723,-0.479805 -0.573611,-0.997493 -0.772304,-1.544583 -0.291544,-0.802487 -0.450287,-1.66829 -0.450287,-2.571318 0,-4.161824 3.373771,-7.535595 7.5355965,-7.535595 2.08907,0 3.97938,0.850133 5.344581,2.223101 0.393379,0.395523 0.74312,0.834758 1.04076,1.309642 0.28144,0.447216 0.51672,0.926409 0.69973,1.430512 0.29162,0.802771 0.45061,1.668858 0.45061,2.572226 z"
       stroke-width="0.0294357"
       id="path275-4"
       style="fill:url(#linearGradient5894);fill-opacity:1;enable-background:new" />
    <path
       d="m 13.000001,14 c 0,1.104485 -0.895516,2 -2.000001,2 -1.104485,0 -2,-0.895515 -2,-2 0,-1.104485 0.895515,-2 2,-2 1.104485,0 2.000001,0.895515 2.000001,2 z"
       id="path4-3-7-3-3-6-1-3-7"
       style="fill:#2b4254;fill-opacity:1;stroke-width:0.00408165;enable-background:new" />
    <path
       d="m 10.993538,6 c -0.0128,1.46e-4 -0.02558,0.0011 -0.03833,0.0023 -0.08797,0.0088 -0.169825,0.04243 -0.232388,0.09571 l -5.1055836,4.331325 c -0.0747,0.0623 -0.116915,0.1474 -0.117234,0.236349 -3.5e-4,0.08887 0.04111,0.17417 0.115316,0.237016 0.07411,0.06277 0.174729,0.09781 0.279529,0.09728 H 16.104469 c 0.104874,9.93e-4 0.20566,-0.03419 0.279966,-0.09696 0.07435,-0.06279 0.115921,-0.148148 0.115562,-0.237176 -2.53e-4,-0.08893 -0.04254,-0.174097 -0.117154,-0.236497 L 11.276357,6.097895 c -0.07491,-0.06366 -0.17701,-0.09885 -0.282946,-0.09764 z"
       fill-rule="evenodd"
       id="path2-3-8"
       style="fill:#2b4254;fill-opacity:1;stroke-width:0.0206658;enable-background:new" />
  </g>
</svg>
