<?xml version="1.0" encoding="UTF-8" standalone="no"?>
<svg
   width="32"
   height="32"
   version="1.1"
   id="svg12"
   sodipodi:docname="applications.svg"
   inkscape:version="1.2.1 (9c6d41e410, 2022-07-14)"
   xmlns:inkscape="http://www.inkscape.org/namespaces/inkscape"
   xmlns:sodipodi="http://sodipodi.sourceforge.net/DTD/sodipodi-0.dtd"
   xmlns="http://www.w3.org/2000/svg"
   xmlns:svg="http://www.w3.org/2000/svg"
   xmlns:rdf="http://www.w3.org/1999/02/22-rdf-syntax-ns#"
   xmlns:cc="http://creativecommons.org/ns#"
   xmlns:dc="http://purl.org/dc/elements/1.1/">
  <g
     id="22-22-applications-other"
     transform="translate(32,9.9999997)">
    <path
       style="clip-rule:evenodd;fill:#ffffc1;fill-opacity:0;fill-rule:evenodd;stroke-width:0.688964;stroke-linejoin:round;stroke-miterlimit:1.41421"
       d="M 0,0 V 22 H 22 V 0 Z"
       id="rect817-5"
       inkscape:connector-curvature="0" />
    <path
       style="color:#d1d5e9;fill:#1e2431;fill-opacity:1;stroke-width:1.25"
       d="M 11,1 C 5.4700001,1 1,5.47 1,11 1,16.53 5.4700001,21.000001 11,21.000001 16.53,21.000001 21,16.53 21,11 21,5.47 16.53,1 11,1 Z m 0,1.25 c 4.837483,0 8.75,3.9125 8.75,8.75 0,4.837484 -3.912517,8.75 -8.75,8.75 C 6.1624831,19.75 2.25,15.837484 2.25,11 2.25,6.1625 6.1624831,2.25 11,2.25 Z m 0.937483,7.148748 v 0 0 0 0 0 c 0,0 -0.04242,0.01 0,0 z m -0.976242,5.625005 z"
       id="path58-0"
       sodipodi:nodetypes="ssssssssssccccccccccccccccc"
       class="ColorScheme-Text " />
    <circle
       cx="7.6665821"
       cy="7.6666679"
       r="2.5"
       id="circle2-9"
       style="color:#d1d5e9;fill:#1e2431;fill-opacity:1;stroke-width:0.203252"
       class="ColorScheme-Text" />
    <circle
       cx="14.333338"
       cy="7.6666679"
       r="2.5"
       id="circle2-1-3"
       style="color:#d1d5e9;fill:#1e2431;fill-opacity:1;stroke-width:0.203252"
       class="ColorScheme-Text" />
    <circle
       cx="7.6665821"
       cy="14.33346"
       r="2.5"
       id="circle2-2-6"
       style="color:#d1d5e9;fill:#1e2431;fill-opacity:1;stroke-width:0.203252"
       class="ColorScheme-Text" />
    <circle
       cx="14.333338"
       cy="14.33346"
       r="2.5"
       id="circle2-7-0"
       style="color:#d1d5e9;fill:#1e2431;fill-opacity:1;stroke-width:0.203252"
       class="ColorScheme-Text" />
  </g>
  <style
     id="current-color-scheme"
     type="text/css">.ColorScheme-Text { color:#d1d5e9; }
</style>
  <metadata
     id="metadata18">
    <rdf:RDF>
      <cc:Work
         rdf:about="">
        <dc:format>image/svg+xml</dc:format>
        <dc:type
           rdf:resource="http://purl.org/dc/dcmitype/StillImage" />
      </cc:Work>
    </rdf:RDF>
  </metadata>
  <defs
     id="defs16" />
  <sodipodi:namedview
     pagecolor="#000000"
     bordercolor="#ea0000"
     borderopacity="1"
     objecttolerance="10"
     gridtolerance="10"
     guidetolerance="10"
     inkscape:pageopacity="0"
     inkscape:pageshadow="2"
     inkscape:window-width="1920"
     inkscape:window-height="1004"
     id="namedview14"
     showgrid="true"
     inkscape:zoom="9.8125003"
     inkscape:cx="31.490445"
     inkscape:cy="19.21019"
     inkscape:window-x="0"
     inkscape:window-y="0"
     inkscape:window-maximized="1"
     inkscape:current-layer="svg12"
     inkscape:document-rotation="0"
     showguides="false"
     inkscape:lockguides="false"
     inkscape:pagecheckerboard="true"
     inkscape:showpageshadow="false"
     inkscape:deskcolor="#000000">
    <inkscape:grid
       type="xygrid"
       id="grid942"
       originx="0"
       originy="0" />
  </sodipodi:namedview>
  <g
     id="applications-other">
    <path
       style="clip-rule:evenodd;fill:#ffffc1;fill-opacity:0;fill-rule:evenodd;stroke-width:1.00213;stroke-linejoin:round;stroke-miterlimit:1.41421"
       d="M 0,0 V 32 H 32 V 0 Z"
       id="rect817"
       inkscape:connector-curvature="0" />
    <path
       style="color:#d1d5e9;fill:#1e2431;fill-opacity:1;stroke-width:1.5"
       d="M 16,4 C 9.364,4 4,9.364 4,15.999999 4,22.636 9.364,28 16,28 22.636,28 28,22.636 28,15.999999 28,9.364 22.636,4 16,4 Z m 0,1.5 c 5.80498,0 10.5,4.695 10.5,10.499999 C 26.5,21.80498 21.80498,26.5 16,26.5 10.19498,26.5 5.5,21.80498 5.5,15.999999 5.5,10.195 10.19498,5.5 16,5.5 Z m 1.12498,8.578498 v 0 0 0 0 0 c 0,0 -0.05091,0.012 0,0 z m -1.171491,6.750005 z"
       id="path58"
       sodipodi:nodetypes="ssssssssssccccccccccccccccc"
       class="ColorScheme-Text " />
    <circle
       cx="11.999902"
       cy="12"
       r="3"
       id="circle2"
       style="color:#d1d5e9;fill:#1e2431;fill-opacity:1;stroke-width:0.243902"
       class="ColorScheme-Text" />
    <circle
       cx="20"
       cy="12"
       r="3"
       id="circle2-1"
       style="color:#d1d5e9;fill:#1e2431;fill-opacity:1;stroke-width:0.243902"
       class="ColorScheme-Text" />
    <circle
       cx="11.999902"
       cy="20.000151"
       r="3"
       id="circle2-2"
       style="color:#d1d5e9;fill:#1e2431;fill-opacity:1;stroke-width:0.243902"
       class="ColorScheme-Text" />
    <circle
       cx="20"
       cy="20.000151"
       r="3"
       id="circle2-7"
       style="color:#d1d5e9;fill:#1e2431;fill-opacity:1;stroke-width:0.243902"
       class="ColorScheme-Text" />
  </g>
</svg>
