<?xml version="1.0" encoding="UTF-8" standalone="no"?>
<svg
   width="32"
   height="32"
   version="1.1"
   id="svg12"
   sodipodi:docname="choqok.svg"
   inkscape:version="1.2.1 (9c6d41e410, 2022-07-14)"
   xmlns:inkscape="http://www.inkscape.org/namespaces/inkscape"
   xmlns:sodipodi="http://sodipodi.sourceforge.net/DTD/sodipodi-0.dtd"
   xmlns="http://www.w3.org/2000/svg"
   xmlns:svg="http://www.w3.org/2000/svg"
   xmlns:rdf="http://www.w3.org/1999/02/22-rdf-syntax-ns#"
   xmlns:cc="http://creativecommons.org/ns#"
   xmlns:dc="http://purl.org/dc/elements/1.1/">
  <g
     id="choqok"
     style="fill:#1e2431;fill-opacity:1">
    <rect
       style="opacity:0.00100002;fill:#1e2431;fill-opacity:1"
       width="32"
       height="32"
       x="1.9836044e-09"
       y="-1.033535e-09"
       id="rect7" />
    <path
       d="m 12.385835,9.5012621 c 0.111,0.011624 0.219735,0.074279 0.303113,0.1676013 0.222257,0.2488256 0.398541,0.7210136 0.641844,1.5154636 0.226837,0.740687 0.493336,1.452283 0.727429,1.971869 0.117052,0.25982 0.224733,0.471716 0.313792,0.613328 0.04456,0.07081 0.08644,0.124308 0.114102,0.153347 0.0017,-0.0015 0.0017,-0.0021 0.0036,-0.0035 0.03127,-0.02622 0.07601,-0.06818 0.12478,-0.124779 0.09758,-0.113314 0.214944,-0.275447 0.324466,-0.452885 0.656469,-1.063687 1.799643,-2.23595 2.642385,-2.684992 1.027287,-0.54752 1.889066,-0.609384 2.777729,-0.189012 0.877728,0.415216 1.638669,1.134019 2.117908,2.003749 0.171338,0.310898 0.272604,0.472661 0.349459,0.541995 0.07684,0.06933 0.130356,0.07691 0.303111,0.08201 0.284756,0.0084 0.525741,0.04845 0.706023,0.114101 0.09017,0.03283 0.166493,0.07228 0.228204,0.128359 0.06171,0.05613 0.106998,0.137773 0.106998,0.228202 0,0.08086 -0.02958,0.115732 -0.06059,0.164026 -0.03096,0.04831 -0.06954,0.09879 -0.117682,0.153343 -0.09621,0.109052 -0.225413,0.233201 -0.367295,0.349459 l -0.44215,0.363714 0.04632,1.044802 c 0.0651,1.435607 -0.165494,2.570728 -0.773771,3.804963 -0.804971,1.632883 -1.999545,2.546116 -3.829697,2.927505 -0.4846,0.100953 -1.176579,0.146615 -1.743884,0.117678 -2.270362,-0.116073 -4.094724,-1.011371 -5.341481,-2.631466 l -0.463613,-0.60258 -0.83795,-0.07133 C 9.7108228,19.140133 9.1675621,19.059182 8.7306704,18.965127 8.5122027,18.918107 8.3191366,18.865595 8.1672628,18.815358 8.0153931,18.765134 7.9089164,18.731764 7.8249605,18.647756 c -0.077123,-0.07711 -0.080592,-0.174912 -0.071331,-0.264084 0.00932,-0.08895 0.035761,-0.184643 0.074856,-0.288803 0.078168,-0.208369 0.2058977,-0.452144 0.3530361,-0.688081 0.1471374,-0.236094 0.3145819,-0.463981 0.4745043,-0.638262 0.079853,-0.08718 0.1578168,-0.161556 0.2353587,-0.217526 0.077538,-0.05593 0.1540221,-0.09984 0.253185,-0.09984 0.097693,0 0.1280958,0.03755 0.1818626,0.07485 0.053766,0.03731 0.1135221,0.0858 0.181856,0.146191 0.1366683,0.120836 0.3007993,0.284651 0.4776608,0.470662 0.354035,0.371925 0.747894,0.829801 0.998398,1.183838 0.08433,0.119153 0.178648,0.227152 0.260295,0.303118 0.04083,0.03798 0.08012,0.06844 0.106998,0.08559 0.0047,0.0032 -5.36e-4,0.0014 0.0036,0.0039 0.01123,-0.0095 0.02257,-0.01555 0.03922,-0.03207 0.04982,-0.04939 0.115306,-0.127203 0.192533,-0.221104 0.154503,-0.187749 0.347723,-0.445096 0.534891,-0.709596 0.187187,-0.264607 0.369309,-0.536578 0.502769,-0.755944 0.06676,-0.109682 0.120572,-0.208634 0.156868,-0.281702 0.02205,-0.04439 0.02558,-0.04503 0.03208,-0.06418 -0.01159,-0.0043 -0.01335,-0.0065 -0.03208,-0.01069 -0.08237,-0.01931 -0.224348,-0.03495 -0.413621,-0.03574 -0.785926,-0.0033 -1.483474,-0.311594 -1.986124,-0.884315 C 10.105335,15.409134 9.961038,15.1025 9.996653,14.80759 c 0.03563,-0.294906 0.253873,-0.538311 0.595495,-0.720274 0.09616,-0.05124 0.160708,-0.14798 0.178281,-0.235357 0.01755,-0.08738 -0.0047,-0.146088 -0.05709,-0.17828 -0.09543,-0.059 -0.151453,-0.147953 -0.217523,-0.260321 -0.06607,-0.112364 -0.130248,-0.248035 -0.189009,-0.392227 -0.117469,-0.288384 -0.21253,-0.596968 -0.213949,-0.827275 -0.0028,-0.408799 0.175333,-0.737531 0.442152,-0.891455 0.266811,-0.154083 0.623062,-0.106264 0.877199,0.174703 0.07554,0.08343 0.129933,0.123413 0.164023,0.14619 0.0096,-0.02525 0.02517,-0.06123 0.0357,-0.15687 0.01328,-0.121886 0.02138,-0.292276 0.02138,-0.513483 0,-0.337886 0.01004,-0.567667 0.04634,-0.748841 0.03629,-0.181121 0.103045,-0.3172123 0.20326,-0.4278944 0.125312,-0.1384577 0.24478,-0.2366725 0.392231,-0.2674473 0.03687,-0.00768 0.07354,-0.010997 0.110526,-0.00715 m 7.374252,3.1305647 c -0.513429,0 -0.930697,0.417215 -0.930697,0.930647 0,0.51343 0.417218,0.930647 0.930697,0.930647 0.513432,0 0.927121,-0.417217 0.927121,-0.930647 0,-0.513432 -0.413634,-0.930647 -0.927121,-0.930647"
       id="path616"
       style="fill:#1e2431;fill-opacity:1;stroke-width:0.0526052" />
    <path
       style="color:#d1d5e9;fill:#1e2431;fill-opacity:1;stroke-width:1.5"
       d="m 16,4.000001 c -6.636,0 -12,5.364 -12,11.999999 0,6.636001 5.364,12.000001 12,12.000001 6.636,0 12,-5.364 12,-12.000001 C 28,9.364001 22.636,4.000001 16,4.000001 Z m 0,1.5 c 5.80498,0 10.5,4.695 10.5,10.499999 0,5.804981 -4.69502,10.500001 -10.5,10.500001 C 10.19498,26.500001 5.5,21.804981 5.5,16 5.5,10.195001 10.19498,5.500001 16,5.500001 Z m 1.12498,8.578498 v 0 0 0 0 0 c 0,0 -0.05091,0.012 0,0 z m -1.171491,6.750005 z"
       id="path58-3"
       sodipodi:nodetypes="ssssssssssccccccccccccccccc"
       class="ColorScheme-Text" />
  </g>
  <style
     id="current-color-scheme"
     type="text/css">.ColorScheme-Text { color:#d1d5e9; }
</style>
  <metadata
     id="metadata18">
    <rdf:RDF>
      <cc:Work
         rdf:about="">
        <dc:format>image/svg+xml</dc:format>
        <dc:type
           rdf:resource="http://purl.org/dc/dcmitype/StillImage" />
      </cc:Work>
    </rdf:RDF>
  </metadata>
  <defs
     id="defs16">
    <linearGradient
       id="oomox"
       x1="0"
       x2="0"
       y1="4.426218"
       y2="16.600946"
       gradientTransform="matrix(1.7114077,0,0,0.99090516,5.5319556,2.8240382)"
       gradientUnits="userSpaceOnUse">
      <stop
         offset="0%"
         style="stop-color:#303b3d; stop-opacity:1"
         id="stop18" />
      <stop
         offset="100%"
         style="stop-color:#bc985d; stop-opacity:1"
         id="stop20" />
    </linearGradient>
    <linearGradient
       id="oomox-3"
       x1="0"
       x2="0"
       y1="4.426218"
       y2="16.600946"
       gradientTransform="matrix(1.1155928,0,0,0.64592825,4.2500004,2.3909811)"
       gradientUnits="userSpaceOnUse">
      <stop
         offset="0%"
         style="stop-color:#303b3d; stop-opacity:1"
         id="stop18-6" />
      <stop
         offset="100%"
         style="stop-color:#bc985d; stop-opacity:1"
         id="stop20-7" />
    </linearGradient>
  </defs>
  <sodipodi:namedview
     pagecolor="#000000"
     bordercolor="#ff0707"
     borderopacity="1"
     objecttolerance="10"
     gridtolerance="10"
     guidetolerance="10"
     inkscape:pageopacity="0"
     inkscape:pageshadow="2"
     inkscape:window-width="1920"
     inkscape:window-height="1004"
     id="namedview14"
     showgrid="true"
     inkscape:zoom="9.8125"
     inkscape:cx="28.738854"
     inkscape:cy="17.783439"
     inkscape:window-x="0"
     inkscape:window-y="0"
     inkscape:window-maximized="1"
     inkscape:current-layer="svg12"
     inkscape:document-rotation="0"
     inkscape:lockguides="false"
     inkscape:showpageshadow="false"
     inkscape:pagecheckerboard="true"
     inkscape:deskcolor="#000000">
    <inkscape:grid
       type="xygrid"
       id="grid2064" />
  </sodipodi:namedview>
  <g
     id="22-22-choqok"
     transform="translate(32,10)"
     style="fill:#1e2431;fill-opacity:1">
    <rect
       style="opacity:0.00100002;fill:#1e2431;fill-opacity:1"
       width="22"
       height="22"
       x="0"
       y="0"
       id="rect2" />
    <path
       sodipodi:nodetypes="cscscsssss"
       inkscape:connector-curvature="0"
       style="color:#d1d5e9;fill:#1e2431;fill-opacity:1;stroke:none"
       d="M 11,3 C 6.581754,2.99989 3,6.581644 3,11 3,15.418357 6.581754,19.000111 11,19.000001 15.418246,19.000111 19,15.418357 19,11 19,6.581644 15.418246,2.99989 11,3 Z m 0,1.40678 c 3.865993,0 6.59322,2.86282 6.59322,6.728814 0,3.865993 -2.727227,6.457627 -6.59322,6.457627 C 7.134007,17.593221 4.542373,14.865994 4.542373,11 4.542373,7.134007 7.134007,4.40678 11,4.40678 Z"
       class="ColorScheme-Text"
       id="path7" />
    <path
       d="m 8.6453131,6.8508264 c 0.07175,0.0075 0.141981,0.047999 0.195856,0.1082946 0.14361,0.1607774 0.257515,0.4658789 0.41472,0.9792084 0.1465739,0.4785908 0.3187709,0.9383849 0.4700299,1.2741128 0.07564,0.167881 0.145208,0.3047967 0.202751,0.3962986 0.02881,0.045751 0.05586,0.080322 0.07371,0.099084 0.0016,-9.963e-4 0.0016,-0.0013 0.0024,-0.00224 0.02023,-0.01694 0.04914,-0.044058 0.08062,-0.080625 0.06308,-0.073215 0.138881,-0.1779785 0.209653,-0.292629 0.424173,-0.6872956 1.162831,-1.4447472 1.707363,-1.7348932 0.663773,-0.3537769 1.220607,-0.39375 1.79481,-0.1221295 0.567143,0.2682902 1.058819,0.7327406 1.368478,1.294712 0.110708,0.2008852 0.17614,0.3054072 0.225801,0.3502072 0.0497,0.044799 0.08425,0.04969 0.195851,0.052987 0.183996,0.00545 0.339707,0.031304 0.456195,0.073725 0.0583,0.021212 0.107578,0.046703 0.147452,0.082941 0.03991,0.036266 0.06914,0.08902 0.06914,0.1474516 0,0.052247 -0.0191,0.074779 -0.03909,0.1059844 -0.01997,0.031212 -0.04494,0.063829 -0.07602,0.099082 -0.06217,0.07046 -0.145651,0.1506818 -0.23733,0.2258011 l -0.285692,0.2350126 0.02988,0.675093 c 0.0421,0.92761 -0.106934,1.661062 -0.499968,2.458556 -0.520046,1.055083 -1.29191,1.645163 -2.474452,1.891596 -0.313123,0.06523 -0.760244,0.09473 -1.126806,0.07604 -1.467043,-0.07501 -2.6458466,-0.6535 -3.4514326,-1.700315 l -0.299556,-0.389357 -0.541443,-0.04609 c -0.3412679,-0.02978 -0.6922869,-0.08209 -0.9745859,-0.142866 -0.141164,-0.03038 -0.265913,-0.06431 -0.364048,-0.09677 -0.09812,-0.03245 -0.166922,-0.05401 -0.221176,-0.108295 -0.04986,-0.04983 -0.05207,-0.113019 -0.04606,-0.170637 0.0059,-0.05748 0.02306,-0.119306 0.04833,-0.186608 0.05057,-0.134637 0.133039,-0.292151 0.228114,-0.4446 0.09507,-0.152551 0.203259,-0.299799 0.306599,-0.41241 0.05163,-0.05633 0.101972,-0.104388 0.152072,-0.140553 0.05006,-0.03614 0.09952,-0.06451 0.163596,-0.06451 0.06317,0 0.08277,0.02426 0.117507,0.04836 0.03478,0.02411 0.07337,0.05544 0.117502,0.09446 0.08833,0.07808 0.194366,0.183926 0.308645,0.304116 0.2287569,0.240317 0.4832469,0.536171 0.6451049,0.76493 0.05447,0.07699 0.115436,0.146773 0.16819,0.195859 0.02641,0.02454 0.05172,0.04422 0.06914,0.05531 0.0035,0.0021 -3.48e-4,9.12e-4 0.0024,0.0025 0.0068,-0.0062 0.01463,-0.01004 0.02538,-0.02072 0.03222,-0.03191 0.07449,-0.08219 0.124404,-0.142866 0.09983,-0.121313 0.224679,-0.287596 0.345616,-0.458501 0.120951,-0.170974 0.238629,-0.346707 0.324861,-0.488449 0.04318,-0.07087 0.0779,-0.134808 0.10136,-0.18202 0.01423,-0.02869 0.0165,-0.0291 0.0207,-0.04147 -0.0072,-0.0028 -0.0087,-0.0042 -0.0207,-0.0069 -0.05326,-0.01248 -0.144961,-0.02258 -0.26726,-0.02309 -0.507821,-0.0021 -0.958535,-0.201345 -1.283321,-0.571406 -0.1786219,-0.203428 -0.2718589,-0.401558 -0.2488469,-0.592112 0.02306,-0.190553 0.1640419,-0.3478275 0.3847759,-0.4654019 0.06212,-0.033112 0.103844,-0.095616 0.115196,-0.1520744 0.01132,-0.056464 -0.0035,-0.094394 -0.03685,-0.1151951 -0.0617,-0.038119 -0.09786,-0.095599 -0.140551,-0.1682046 C 7.3816671,9.306006 7.3401571,9.2183441 7.3021991,9.1251754 7.2262692,8.9388378 7.1648752,8.7394479 7.1639562,8.5906362 7.1618562,8.3264928 7.2772481,8.1140846 7.4496511,8.0146275 c 0.172399,-0.09956 0.402588,-0.068664 0.566799,0.1128832 0.04886,0.053905 0.08394,0.079744 0.105981,0.09446 0.0062,-0.016317 0.01631,-0.039563 0.02309,-0.1013605 0.0086,-0.078753 0.01382,-0.1888527 0.01382,-0.3317845 0,-0.2183229 0.0063,-0.366795 0.0299,-0.4838595 0.02341,-0.1170304 0.06658,-0.204965 0.131336,-0.2764816 0.08099,-0.089464 0.158162,-0.1529248 0.253436,-0.1728097 0.02387,-0.00492 0.0475,-0.00715 0.07142,-0.00463 m 4.7648349,2.0227977 c -0.33175,0 -0.601366,0.2695812 -0.601366,0.6013326 0,0.3317501 0.269584,0.6013328 0.601366,0.6013328 0.331751,0 0.599053,-0.2695827 0.599053,-0.6013328 0,-0.3317514 -0.267267,-0.6013326 -0.599053,-0.6013326"
       id="path616-6"
       style="fill:#1e2431;fill-opacity:1;stroke-width:0.0339907" />
  </g>
</svg>
