<?xml version="1.0" encoding="UTF-8" standalone="no"?>
<svg
   id="svg2"
   width="32"
   height="32"
   version="1.0"
   inkscape:version="1.2.1 (9c6d41e410, 2022-07-14)"
   sodipodi:docname="computer.svg"
   xmlns:inkscape="http://www.inkscape.org/namespaces/inkscape"
   xmlns:sodipodi="http://sodipodi.sourceforge.net/DTD/sodipodi-0.dtd"
   xmlns="http://www.w3.org/2000/svg"
   xmlns:svg="http://www.w3.org/2000/svg"
   xmlns:rdf="http://www.w3.org/1999/02/22-rdf-syntax-ns#"
   xmlns:cc="http://creativecommons.org/ns#"
   xmlns:dc="http://purl.org/dc/elements/1.1/">
  <style
     id="current-color-scheme"
     type="text/css">.ColorScheme-Text { color:#d1d5e9; }
</style>
  <g
     id="computer-laptop"
     transform="translate(2.000001,-31)">
    <rect
       y="31"
       x="29.999998"
       height="32"
       width="32"
       id="rect820-3"
       style="clip-rule:evenodd;fill:#2020ff;fill-opacity:0;fill-rule:evenodd;stroke-linejoin:round;stroke-miterlimit:1.41421" />
    <path
       d="m 32.999639,52 h -0.99964 v 0.965842 2.376463 c 0,0.91394 0.741182,1.657695 1.651962,1.657695 h 24.696075 c 0.910781,0 1.651963,-0.743755 1.651963,-1.657695 V 52.965842 52 h -1.00036 z m 26,3.342666 c 0,0.367512 -0.249841,0.657333 -0.651964,0.657333 H 33.651639 c -0.322425,0 -0.652,-0.234236 -0.652,-0.657333 v -2.342665 h 26 z"
       id="path4-3"
       style="stroke-width:0.361473;fill-opacity:1;fill:#1e2431"
       sodipodi:nodetypes="cccssssccccssssccs"
       class="ColorScheme-Text" />
    <path
       d="M 58.348058,37 H 33.651939 c -0.910768,0 -1.65194,0.753884 -1.65194,1.679905 V 52 h 1 V 38.680272 C 32.999999,38.357126 33.337107,38 33.651579,38 h 24.696479 c 0.445515,0 0.651941,0.277424 0.651941,0.680272 V 52 h 1 V 38.680272 C 59.999638,37.753884 59.258826,37 58.348058,37 Z"
       id="path6-5"
       style="stroke-width:0.363924;fill-opacity:1;fill:#1e2431"
       sodipodi:nodetypes="sssccsssscccs"
       class="ColorScheme-Text" />
  </g>
  <g
     id="computer"
     transform="translate(32)">
    <rect
       y="3.6468506e-09"
       x="-32"
       height="32"
       width="32"
       id="rect820"
       style="clip-rule:evenodd;fill:#2020ff;fill-opacity:0;fill-rule:evenodd;stroke-linejoin:round;stroke-miterlimit:1.41421" />
    <path
       d="m -18.999999,25 v 2 h -2 c -0.629684,0 -1.307258,0.156542 -1.307258,0.928613 H -9.9000688 C -9.9000688,27.156542 -10.370316,27 -11,27 h -2 v -2 z"
       id="path2"
       style="stroke-width:0.360234;fill-opacity:1;fill:#1e2431"
       sodipodi:nodetypes="ccsccsccc"
       class="ColorScheme-Text" />
    <path
       d="m -28.999999,19 h -1 v 1 2.267402 c 0,0.913765 0.68622,1.732598 1.597,1.732598 h 24.6963962 c 0.910781,0 1.706604,-0.818833 1.706604,-1.732598 V 20 19 h -1 z m 26.0000002,3.267763 C -2.9999988,22.635205 -3.3048398,23 -3.7069628,23 H -28.402999 c -0.322425,0 -0.597,-0.309222 -0.597,-0.732237 V 20 h 26.0000002 z"
       id="path4"
       style="stroke-width:0.361438;fill-opacity:1;fill:#1e2431"
       sodipodi:nodetypes="cccssssccccssssccs"
       class="ColorScheme-Text" />
    <path
       d="M -3.6519398,4 H -28.348059 c -0.910767,0 -1.65194,0.753884 -1.65194,1.679905 V 19 h 1 V 5.680272 C -28.999999,5.357126 -28.662891,5 -28.348419,5 h 24.6964792 c 0.445515,0 0.651941,0.277424 0.651941,0.680272 V 19 h 1 V 5.680272 C -2.0003608,4.753884 -2.7411718,4 -3.6519398,4 Z"
       id="path6"
       style="stroke-width:0.363924;fill-opacity:1;fill:#1e2431"
       sodipodi:nodetypes="sssccsssscccs"
       class="ColorScheme-Text" />
  </g>
  <sodipodi:namedview
     pagecolor="#000000"
     bordercolor="#ff0606"
     borderopacity="1"
     objecttolerance="10"
     gridtolerance="10"
     guidetolerance="10"
     inkscape:pageopacity="0"
     inkscape:pageshadow="2"
     inkscape:window-width="1920"
     inkscape:window-height="1004"
     id="namedview24"
     showgrid="true"
     inkscape:zoom="8"
     inkscape:cx="25.875"
     inkscape:cy="11.0625"
     inkscape:window-x="0"
     inkscape:window-y="0"
     inkscape:window-maximized="1"
     inkscape:current-layer="svg2"
     inkscape:document-rotation="0"
     showguides="false"
     inkscape:pagecheckerboard="true"
     inkscape:showpageshadow="false"
     inkscape:deskcolor="#000000"
     inkscape:lockguides="true">
    <inkscape:grid
       type="xygrid"
       id="grid3104" />
  </sodipodi:namedview>
  <metadata
     id="metadata7">
    <rdf:RDF>
      <cc:Work
         rdf:about="">
        <dc:format>image/svg+xml</dc:format>
        <dc:type
           rdf:resource="http://purl.org/dc/dcmitype/StillImage" />
      </cc:Work>
    </rdf:RDF>
  </metadata>
  <defs
     id="defs5">
    <style
       id="style17"
       type="text/css" />
  </defs>
  <g
     style="fill:none;stroke:#ffffff"
     id="g4171"
     transform="translate(-102.16679,-19.062146)">
    <g
       transform="translate(-38.38147,-1006.1003)"
       style="stroke-width:0.5"
       id="g4173" />
    <g
       transform="translate(-39.59798,-1004.3622)"
       style="stroke-width:0.4"
       id="g4175" />
  </g>
  <g
     id="22-22-computer"
     transform="translate(2.000001,-31)"
     style="fill:#1e2431;fill-opacity:1">
    <rect
       style="opacity:0.00100002;stroke-width:1;fill:#1e2431;fill-opacity:1"
       width="22"
       height="22"
       x="2.2198915e-10"
       y="1.0065011e-09"
       id="rect7" />
    <path
       d="m 8.9999998,18 v 1 h -1.651554 c -0.449768,0 -0.814418,0.420942 -0.814418,1 h 8.8621612 c 0,-0.579058 -0.365087,-0.980402 -0.814421,-1 H 13 v -1 z"
       id="path2-3"
       style="stroke-width:0.263666;fill-opacity:1;fill:#1e2431"
       sodipodi:nodetypes="ccsccsccc"
       class="ColorScheme-Text" />
    <path
       d="M 1.9999998,13 H 0.99999981 v 1 2 c 0,0.685325 0.34945199,1 0.99999999,1 H 20 c 0.650549,0 1,-0.314675 1,-1 V 14 13 H 20 Z M 20,16 v 0 H 1.9999998 v 0 -2 H 20 Z"
       id="path4-6"
       style="stroke-width:0.264545;fill-opacity:1;fill:#1e2431"
       sodipodi:nodetypes="cccssssccccccccccc"
       class="ColorScheme-Text" />
    <path
       d="M 20,2 H 1.9999998 C 1.3494618,2 0.99999981,2.305606 0.99999981,3 V 13 H 1.9999998 V 3 3 H 20 v 0 10 h 1 V 3 C 20.999752,2.305339 20.650547,2 20,2 Z"
       id="path6-7"
       style="stroke-width:0.266339;fill-opacity:1;fill:#1e2431"
       sodipodi:nodetypes="ssscccccccccs"
       class="ColorScheme-Text" />
  </g>
  <g
     id="22-22-computer-laptop"
     transform="translate(2.000001,-31)"
     style="fill:#1e2431;fill-opacity:1">
    <rect
       style="opacity:0.00100002;fill:#1e2431;fill-opacity:1"
       width="22"
       height="22"
       x="32"
       y="-1.0065015e-09"
       id="rect2" />
    <path
       d="m 34,14.999998 h -1 v 0.999999 2.000001 c 0,0.685325 0.349452,1 1,1 h 18 c 0.650549,0 1,-0.314675 1,-1 v -2 -1 h -1 z m 18,3 v 0 H 34 v 0 -2 h 18 z"
       id="path4-6-3"
       style="stroke-width:0.264545;fill-opacity:1;fill:#1e2431"
       sodipodi:nodetypes="cccssssccccccccccc"
       class="ColorScheme-Text" />
    <path
       d="M 52,4 H 34 c -0.650538,0 -1,0.305606 -1,1 v 9.999998 h 1 V 5 5 h 18 v 0 9.999998 h 1 V 5 C 52.999752,4.305339 52.650547,4 52,4 Z"
       id="path6-7-5"
       style="stroke-width:0.266339;fill-opacity:1;fill:#1e2431"
       sodipodi:nodetypes="ssscccccccccs"
       class="ColorScheme-Text" />
  </g>
</svg>
