<?xml version="1.0" encoding="UTF-8" standalone="no"?>
<svg
   width="32"
   height="32"
   version="1.1"
   id="svg12"
   sodipodi:docname="drive.svg"
   inkscape:version="1.2.1 (9c6d41e410, 2022-07-14)"
   xmlns:inkscape="http://www.inkscape.org/namespaces/inkscape"
   xmlns:sodipodi="http://sodipodi.sourceforge.net/DTD/sodipodi-0.dtd"
   xmlns="http://www.w3.org/2000/svg"
   xmlns:svg="http://www.w3.org/2000/svg"
   xmlns:rdf="http://www.w3.org/1999/02/22-rdf-syntax-ns#"
   xmlns:cc="http://creativecommons.org/ns#"
   xmlns:dc="http://purl.org/dc/elements/1.1/">
  <style
     id="current-color-scheme"
     type="text/css">
.ColorScheme-Text { 
    color:#d1d5e9;
}
</style>
  <metadata
     id="metadata18">
    <rdf:RDF>
      <cc:Work
         rdf:about="">
        <dc:format>image/svg+xml</dc:format>
        <dc:type
           rdf:resource="http://purl.org/dc/dcmitype/StillImage" />
      </cc:Work>
    </rdf:RDF>
  </metadata>
  <defs
     id="defs16" />
  <sodipodi:namedview
     pagecolor="#000000"
     bordercolor="#ff0101"
     borderopacity="1"
     objecttolerance="10"
     gridtolerance="10"
     guidetolerance="10"
     inkscape:pageopacity="0"
     inkscape:pageshadow="2"
     inkscape:window-width="1920"
     inkscape:window-height="1004"
     id="namedview14"
     showgrid="true"
     inkscape:zoom="11.313709"
     inkscape:cx="27.930717"
     inkscape:cy="20.373513"
     inkscape:window-x="0"
     inkscape:window-y="0"
     inkscape:window-maximized="1"
     inkscape:current-layer="svg12"
     inkscape:document-rotation="0"
     inkscape:lockguides="false"
     inkscape:showpageshadow="false"
     inkscape:pagecheckerboard="true"
     inkscape:deskcolor="#000000">
    <inkscape:grid
       type="xygrid"
       id="grid6258" />
  </sodipodi:namedview>
  <path
     d="m -55.428543,12.346998 c 0,-0.825432 -0.610099,-0.897 -1.483,-0.897 H -78.01854 c -0.87457,0 -1.485,0.07157 -1.485,0.897 v 5.24 c 0,0.825118 0.61043,0.861757 1.485,0.863 l 21.106997,0.03 c 0.8729,0.0012 1.483,-0.06788 1.483,-0.893 z m -1.075,0.103 v 5 H -78.50354 v -5 z"
     id="path2"
     style="fill:#e5e9ef;fill-opacity:1;stroke-width:0.324291"
     sodipodi:nodetypes="sssssssssccccc"
     class="ColorScheme-Text" />
  <path
     d="m -61.503543,16.449998 h 3 v -0.926672 -1.14666 -0.926668 h -4 v 0 3 z"
     id="path4"
     style="fill:#e5e9ef;fill-opacity:1;stroke-width:0.438421"
     sodipodi:nodetypes="ccccccccc"
     class="ColorScheme-Text" />
  <path
     d="m -57.01196,20.449998 h -20.90683 c -0.87457,0 -1.58475,0.0056 -1.58475,0.831071 v 4.338174 c 0,0.824802 0.71018,0.830755 1.58475,0.830755 h 20.90683 c 0.872901,0 1.583417,-0.006 1.583417,-0.830755 v -4.338174 c 0,-0.825433 -0.710516,-0.831071 -1.583417,-0.831071 z m 0.508417,0.950612 v 4.098461 H -78.50354 V 21.40061 Z"
     id="path6"
     style="fill:#e5e9ef;fill-opacity:1;stroke-width:0.324291"
     sodipodi:nodetypes="sssssssssccccc"
     class="ColorScheme-Text" />
  <path
     d="m -62.503543,24.449998 h 3 1 v -1 -1 h -3 -1 v 1 z"
     id="path8"
     style="fill:#e5e9ef;fill-opacity:1;stroke-width:0.358075"
     sodipodi:nodetypes="ccccccccc"
     class="ColorScheme-Text" />
  <path
     d="m -78.01854,35.449998 h 21.206997 c 0.872901,0 1.383,-0.07283 1.383,-0.897 v -5.24 c 0,-0.825748 -0.710516,-0.863 -1.583417,-0.863 h -21.00658 c -0.87457,0 -1.485,0.03725 -1.485,0.863 v 5.24 c 0,0.824171 0.61043,0.897 1.485,0.897 z m -0.485,-1 v -5 h 21.999997 v 5 z"
     id="path10"
     style="fill:#e5e9ef;fill-opacity:1;stroke-width:0.324291"
     sodipodi:nodetypes="sssssssssccccc"
     class="ColorScheme-Text" />
  <path
     d="m -58.503543,30.449998 h -4 v 1 1 1 h 4 v -0.92482 -1.07518 z"
     id="path12"
     style="fill:#e5e9ef;fill-opacity:1;stroke-width:0.438421"
     sodipodi:nodetypes="ccccccccc"
     class="ColorScheme-Text" />
  <path
     d="m -73.50351,14.950599 c -0.002,1.335134 -1.61689,2.001297 -2.55956,1.056025 -0.94266,-0.945274 -0.27204,-2.558467 1.0631,-2.556624 0.82738,0.0017 1.49703,0.67322 1.49646,1.500599 z"
     id="path1086"
     style="color:#e5e9ef;fill:#e5e9ef;fill-opacity:1;stroke-width:1.03635"
     sodipodi:nodetypes="csccccc"
     class="ColorScheme-Text" />
  <path
     d="m -73.50351,31.950599 c -0.002,1.335134 -1.61689,2.001297 -2.55956,1.056025 -0.94266,-0.945274 -0.27204,-2.558467 1.0631,-2.556624 0.82738,0.0017 1.49703,0.67322 1.49646,1.500599 z"
     id="path1086-6"
     style="color:#e5e9ef;fill:#e5e9ef;fill-opacity:1;stroke-width:1.03635"
     sodipodi:nodetypes="csccccc"
     class="ColorScheme-Text" />
  <path
     d="m -73.50354,23.500599 c -0.002,1.335134 -1.61689,2.001297 -2.55956,1.056025 C -77.00576,23.61135 -76.33514,21.998157 -75,22 c 0.82738,0.0017 1.49703,0.67322 1.49646,1.500599 z"
     id="path1086-3"
     style="color:#e5e9ef;fill:#e5e9ef;fill-opacity:1;stroke-width:1.03635"
     sodipodi:nodetypes="csccccc"
     class="ColorScheme-Text" />
  <g
     id="drive-harddisk"
     style="fill:#1e2431;fill-opacity:1">
    <rect
       style="opacity:0.00100002;fill:#1e2431;fill-opacity:1"
       width="32"
       height="32"
       x="0"
       y="4.6325681e-08"
       id="rect7" />
    <path
       d="M 6,4 C 6,4 5,4 5.073481,5.0361862 5.073481,5.0361862 5,16 5,16.001846 V 24 27 c 0,1 1.0783339,1.000007 1.0783339,1.000007 H 16.011488 L 23,28 h 3 c 0,0 1,0 1,-1 V 25 16.006499 7 5 C 27,4 26,4 26,4 H 25 L 16.080663,4.0036922 8,4 Z m 19,1 c 1,0 1,0 1,1 v 3 3 H 17 9 v 0 H 8.8 C 8,12 8,13 8.8,13 H 17 L 16.983991,12.9925 26,13 v 3 3 L 16.979442,19.019977 9,19 v 0 H 8.8 C 8,19 8,20 8.8,20 H 17 v 0 h 9 v 3 3 c 0,1 0,1 -1,1 H 16 7 v 0 C 6,27 6,27 6,26 V 26 16 6 C 6,5 6,5 7,5 h 9 z"
       id="path5290"
       style="fill:#1e2431;fill-opacity:1;stroke-width:0.00242116"
       sodipodi:nodetypes="ccsccccccccccccccccccccccccccccccccccccccccccccccccccc" />
    <path
       d="m 21.83532,7.0923702 c -0.239512,0.117307 -0.464821,0.38033 -0.525801,0.605638 -0.06098,0.220656 -0.06098,1.384667 0.0047,1.614874 0.06563,0.234614 0.384984,0.553964 0.633803,0.628904 0.112654,0.03282 0.460167,0.05633 0.816742,0.05633 0.746457,0 0.943602,-0.05167 1.201727,-0.305146 0.267676,-0.267676 0.314452,-0.474127 0.290941,-1.323687 -0.01396,-0.675925 -0.01886,-0.708742 -0.14547,-0.89658 -0.07053,-0.108001 -0.216003,-0.253472 -0.324004,-0.324003 -0.192491,-0.126859 -0.211349,-0.131512 -0.971764,-0.145471 -0.722702,-0.0142 -0.792988,-0.0047 -0.980827,0.08914 z"
       id="path5292"
       style="fill:#1e2431;fill-opacity:1;stroke-width:0.002449" />
    <path
       d="m 21.83532,14.602975 c -0.239512,0.117307 -0.464821,0.380331 -0.525801,0.605639 -0.06098,0.220655 -0.06098,1.384912 0.0047,1.614873 0.06563,0.234615 0.384984,0.553965 0.633803,0.629149 0.253472,0.07518 1.380013,0.07518 1.63373,0 0.262778,-0.07984 0.558618,-0.384983 0.633802,-0.657067 0.04212,-0.145471 0.05633,-0.441311 0.04212,-0.915438 -0.01396,-0.675925 -0.01886,-0.708742 -0.145471,-0.896581 -0.07053,-0.108001 -0.216002,-0.253472 -0.324003,-0.324003 -0.192491,-0.126613 -0.211349,-0.131511 -0.971765,-0.145471 -0.722946,-0.0142 -0.793232,-0.0049 -0.981071,0.0889 z"
       id="path5294"
       style="fill:#1e2431;fill-opacity:1;stroke-width:0.002449" />
    <path
       d="m 21.83532,22.113826 c -0.239512,0.117307 -0.464821,0.38033 -0.525801,0.605638 -0.06098,0.220656 -0.06098,1.384667 0.0047,1.614874 0.06563,0.234614 0.384984,0.553964 0.633803,0.628904 0.253472,0.07518 1.380013,0.07518 1.63373,0 0.258125,-0.07984 0.567924,-0.39429 0.638456,-0.652415 0.03282,-0.122205 0.04702,-0.469474 0.03747,-0.910784 -0.01396,-0.685232 -0.01886,-0.718293 -0.145471,-0.905887 -0.07053,-0.108001 -0.216002,-0.253472 -0.324003,-0.324003 -0.192491,-0.126859 -0.211349,-0.131512 -0.971765,-0.145471 -0.722946,-0.0142 -0.793232,-0.0049 -0.981071,0.08914 z"
       id="path5296"
       style="fill:#1e2431;fill-opacity:1;stroke-width:0.002449" />
  </g>
  <g
     id="22-22-drive-harddisk"
     transform="translate(32,10.000001)"
     style="fill:#1e2431;fill-opacity:1">
    <rect
       style="opacity:0.00100002;fill:#1e2431;fill-opacity:1"
       width="22"
       height="22"
       x="0"
       y="-4.6325681e-08"
       id="rect2" />
    <path
       d="m 5,2.999999 c -1,0 -1,1 -1,1 v 7.001239 6.998761 c 0,1 1,1 1,1 v 0 l 6.007291,1.1e-5 L 17,18.999999 v 0 c 0,0 1,0 1,-1 v 0 -6.995659 -7.004341 0 c 0,0 0,-1 -1,-1 v 0 l -5.948693,0.00247 z m 11,1 c 1,0 1,0 1,1 v 2 1 H 12 7 v 0 H 6.7 c -0.7,0 -0.7,1 0,1 v 0 h 5.3 5 v 2 2 h -5 v 0 H 6.7 c -0.7,0 -0.7,1 0,1 H 12 6.7 12 17 v 2 1 c 0,1 0,1 -1,1 L 11.004398,18 6,17.999999 v 0 c -1,0 -1,0 -1,-1 v 0 -6 -6 c 0,-1 0,-1 1,-1 l 5.042183,0.00379 z"
       id="path5290-35"
       style="fill:#1e2431;fill-opacity:1;stroke-width:0.00157701"
       sodipodi:nodetypes="ccccccccccccccccccccccccccccccccccccscccccccccccccccc" />
    <path
       d="m 14.380783,5.0629723 c -0.159739,0.07821 -0.310008,0.253554 -0.350682,0.403759 -0.04067,0.147104 -0.04067,0.923111 0.0034,1.076582 0.04378,0.15641 0.256767,0.369309 0.422717,0.419269 0.07514,0.02188 0.306908,0.03755 0.544727,0.03755 0.49785,0 0.629338,-0.03445 0.801496,-0.203431 0.178525,-0.17845 0.209723,-0.316084 0.194042,-0.882458 -0.0089,-0.450616 -0.01262,-0.472494 -0.09698,-0.597719 -0.04707,-0.072 -0.144064,-0.168982 -0.216094,-0.216002 -0.128383,-0.08457 -0.14096,-0.08767 -0.648121,-0.09698 -0.482007,-0.0095 -0.528883,-0.0031 -0.654163,0.05943 z"
       id="path5292-62"
       style="fill:#1e2431;fill-opacity:1;stroke-width:0.00163303" />
    <path
       d="m 14.380757,10.062828 c -0.159728,0.0782 -0.309986,0.253529 -0.350658,0.403718 -0.04067,0.147091 -0.04067,0.923184 0.0034,1.076478 0.04377,0.156395 0.256748,0.369273 0.422688,0.41939 0.16904,0.05012 0.920336,0.05012 1.089542,0 0.175248,-0.05322 0.372544,-0.256629 0.422685,-0.438 0.02803,-0.09697 0.03754,-0.294179 0.02803,-0.610232 -0.0089,-0.450574 -0.01263,-0.472449 -0.09698,-0.597663 -0.04707,-0.07199 -0.144052,-0.168964 -0.216079,-0.21598 -0.128373,-0.08441 -0.140948,-0.08766 -0.648075,-0.09697 -0.482137,-0.0095 -0.529009,-0.0033 -0.654281,0.05926 z"
       id="path5294-9"
       style="fill:#1e2431;fill-opacity:1;stroke-width:0.00163289" />
    <path
       d="m 14.381058,15.062995 c -0.159854,0.07821 -0.310231,0.253554 -0.350935,0.403759 -0.0407,0.147104 -0.0407,0.923111 0.0034,1.076582 0.04382,0.15641 0.256951,0.369309 0.423021,0.419269 0.169176,0.05012 0.921065,0.05012 1.090404,0 0.172281,-0.05323 0.379052,-0.262859 0.426129,-0.434943 0.02186,-0.08147 0.03138,-0.312982 0.02497,-0.607189 -0.0089,-0.456821 -0.01262,-0.478862 -0.09705,-0.603924 -0.04711,-0.072 -0.144165,-0.168982 -0.216247,-0.216002 -0.128476,-0.08457 -0.141062,-0.08768 -0.648589,-0.09698 -0.482518,-0.0095 -0.529428,-0.0033 -0.654798,0.05943 z"
       id="path5296-1"
       style="fill:#1e2431;fill-opacity:1;stroke-width:0.00163362" />
  </g>
</svg>
