<?xml version="1.0" encoding="UTF-8" standalone="no"?>
<svg
   width="32"
   height="32"
   version="1.1"
   id="svg14"
   sodipodi:docname="face.svg"
   inkscape:version="1.2.1 (9c6d41e410, 2022-07-14)"
   xmlns:inkscape="http://www.inkscape.org/namespaces/inkscape"
   xmlns:sodipodi="http://sodipodi.sourceforge.net/DTD/sodipodi-0.dtd"
   xmlns="http://www.w3.org/2000/svg"
   xmlns:svg="http://www.w3.org/2000/svg">
  <sodipodi:namedview
     id="namedview16"
     pagecolor="#000000"
     bordercolor="#bf4141"
     borderopacity="1"
     inkscape:showpageshadow="false"
     inkscape:pageopacity="0"
     inkscape:pagecheckerboard="true"
     inkscape:deskcolor="#000000"
     showgrid="true"
     inkscape:zoom="14.75"
     inkscape:cx="18.305085"
     inkscape:cy="17.118644"
     inkscape:window-width="1920"
     inkscape:window-height="1004"
     inkscape:window-x="0"
     inkscape:window-y="0"
     inkscape:window-maximized="1"
     inkscape:current-layer="svg14">
    <inkscape:grid
       type="xygrid"
       id="grid191"
       originx="0"
       originy="0" />
  </sodipodi:namedview>
  <defs
     id="defs5">
    <style
       id="current-color-scheme"
       type="text/css">.ColorScheme-Background { color:#181818; }
.ColorScheme-ButtonBackground { color:#343434; }
.ColorScheme-Highlight { color:#d1d5e9; }
.ColorScheme-Text { color:#d1d5e9; }
.ColorScheme-ViewBackground { color:#242424; }
.ColorScheme-NegativeText { color:#f44336; }
.ColorScheme-PositiveText { color:#4caf50; }
.ColorScheme-NeutralText { color:#ff9800; }
</style>
  </defs>
  <g
     id="face-laughing"
     style="fill:#1e2431;fill-opacity:1">
    <rect
       style="opacity:0.00100002;fill:#1e2431;fill-opacity:1"
       width="32"
       height="32"
       x="0"
       y="0"
       id="rect9" />
    <path
       d="m 27.1992,11.6892 c -0.0016,-0.05358 -0.0024,-0.107191 -0.0024,-0.1608 v -0.2108 c 0,-0.164 -0.018,-0.1968 -0.10525,-0.2416 C 27.0292,11.044 26.9652,11.0144 26.9004,10.9844 25.0016,6.8624 20.836,4 16,4 11.164,4 6.9988004,6.8624 5.0992004,10.9844 c -0.06438,0.02962 -0.1284,0.05925 -0.1908,0.09162 -0.08763,0.04438 -0.10475,0.07725 -0.10475,0.2416 v 0.2108 c 0,0.07125 -0.0012,0.120375 -0.0024,0.1616 -0.5304369,1.374998 -0.8020857,2.836216 -0.80125,4.30998 0,6.6272 5.3728,12 11.9999996,12 6.6272,0 12,-5.3728 12,-12 7.13e-4,-1.473978 -0.270772,-2.935415 -0.8008,-4.3108 M 16,5.5 c 4.1112,0 7.2004,1.7688 9.088,5.1188 -1.4976,-0.25 -3.0172,-0.2344 -4.0864,-0.1416 -1.3744,0.12125 -2.5228,0.4304 -3.4624,0.9116 -0.8792,0.4392 -2.1988,0.4392 -3.0788,0 C 13.5208,10.9076 12.3724,10.598 10.9988,10.4772 9.9296004,10.3844 8.41,10.3688 6.912,10.6188 8.7992,7.2688 11.8888,5.5 16,5.5 m 0,21 C 9.9344004,26.5 5.7180725,21.916914 5.6,16 c -0.024268,-1.216158 0.2016,-2.3868 0.568,-3.482 0.2384,0.4264 -0.2007996,1.0212 -0.0964,1.7384 0.2392,1.6852 1.0664,2.7416 2.4088,3.246 1.2524792,0.467283 2.633941,0.452314 3.876,-0.042 0.6764,-0.2704 1.2704,-0.6968 1.742,-1.3908 0.8268,-1.2148 0.5792,-1.9744 1.0064,-3.0188 0.3728,-0.9108 1.4164,-0.9108 1.7892,0 0.4268,1.0444 0.1792,1.804 1.0064,3.0188 0.4716,0.6936 1.0656,1.1204 1.7416,1.3908 1.2422,0.494302 2.623781,0.509271 3.8764,0.042 1.3424,-0.5048 2.1696,-1.5608 2.4088,-3.246 0.10475,-0.7172 -0.335,-1.3124 -0.0962,-1.7384 0.376263,1.122344 0.668085,2.298264 0.668,3.482 C 26.459617,21.916914 22.0656,26.5 16,26.5"
       id="path240"
       style="fill:#1e2431;fill-opacity:1;stroke-width:0.4"
       sodipodi:nodetypes="ccsccsccssccscccccccccccscccccccccccccc" />
    <path
       d="m 21.0336,20.1116 c -3.2436,2.2624 -6.842,2.2492 -10.0672,0 -0.388,-0.2712 -0.738,0.1976 -0.4748,0.6312 0.9828,1.6188 2.9668,3.0596 5.5084,3.0596 2.5416,0 4.5256,-1.4416 5.5084,-3.0596 0.2636,-0.4336 -0.08637,-0.9012 -0.4748,-0.6312"
       id="path242"
       style="fill:#1e2431;fill-opacity:1;stroke-width:0.4" />
  </g>
  <g
     id="22-22-face-laughing"
     transform="translate(32.000001,10.000001)"
     style="fill:#1e2431;fill-opacity:1">
    <rect
       style="opacity:0.00100002;fill:#1e2431;fill-opacity:1"
       width="22"
       height="22"
       x="0"
       y="0"
       id="rect4" />
    <path
       d="m 18.466135,8.126137 a 3.4202667,3.4202667 0 0 1 -0.0016,-0.1072 V 7.878404 c 0,-0.109333 -0.012,-0.1312 -0.07017,-0.161067 -0.04157,-0.02133 -0.08423,-0.04107 -0.127433,-0.06107 C 17.001065,4.908267 14.223998,3 10.999998,3 7.7759983,3 4.9991983,4.908267 3.7327983,7.656267 c -0.04292,0.01975 -0.0856,0.0395 -0.1272,0.06108 -0.05842,0.02959 -0.06983,0.0515 -0.06983,0.161066 v 0.140534 c 0,0.0475 -8e-4,0.08025 -0.0016,0.107733 a 7.9706667,7.9706667 0 0 0 -0.534167,2.873319 c 0,4.418133 3.581867,8 7.9999997,8 4.418134,0 8,-3.581867 8,-8 A 7.9813333,7.9813333 0 0 0 18.466135,8.126133 M 11.000001,3.666667 c 2.7408,0 5.133867,1.512533 6.392267,3.745866 -0.9984,-0.166666 -2.345067,-0.156266 -3.057867,-0.0944 -0.916266,0.08083 -1.681866,0.286934 -2.308266,0.607734 -0.586134,0.2928 -1.465867,0.2928 -2.052534,0 -0.6263997,-0.3208 -1.3919997,-0.5272 -2.3077327,-0.607734 -0.7128,-0.06187 -2.0592,-0.07227 -3.057867,0.0944 1.258134,-2.233333 3.6512,-3.745866 6.3919997,-3.745866 m 0,14.666666 c -4.0437327,0 -7.3333327,-3.2896 -7.3333327,-7.333333 0,-0.810933 0.1344,-1.5912 0.378667,-2.321333 0.158933,0.284266 0.266133,0.6808 0.335733,1.158933 0.159467,1.123467 0.710933,1.827733 1.605867,2.164 a 3.5922667,3.5922667 0 0 0 2.584,-0.028 c 0.450933,-0.180267 0.846933,-0.464533 1.161333,-0.9272 0.5511997,-0.809867 0.3861327,-1.316267 0.6709327,-2.012533 0.248534,-0.6072 0.944267,-0.6072 1.1928,0 0.284534,0.696266 0.119467,1.202666 0.670934,2.012533 0.3144,0.4624 0.7104,0.746933 1.161066,0.927199 a 3.5930667,3.5930667 0 0 0 2.584267,0.028 c 0.894933,-0.336533 1.4464,-1.040533 1.605867,-2.164 0.06983,-0.478133 0.1768,-0.874933 0.336,-1.158933 A 7.3013333,7.3013333 0 0 1 18.332801,11 c 5.34e-4,4.043733 -3.289066,7.333332 -7.3328,7.333332"
       id="path240-3"
       style="fill:#1e2431;fill-opacity:1;stroke-width:0.266667" />
    <path
       d="m 14.355735,13.741071 c -2.1624,1.508266 -4.5613337,1.499466 -6.7114667,0 -0.258667,-0.1808 -0.492,0.131733 -0.316533,0.4208 0.6552,1.0792 1.977866,2.039732 3.6722657,2.039732 1.6944,0 3.017067,-0.961067 3.672267,-2.039733 0.175733,-0.289067 -0.05758,-0.6008 -0.316533,-0.4208"
       id="path242-6"
       style="fill:#1e2431;fill-opacity:1;stroke-width:0.266667" />
  </g>
</svg>
