<?xml version="1.0" encoding="UTF-8" standalone="no"?>
<svg
   viewBox="0 0 22 22"
   id="svg"
   version="1.1"
   width="22"
   height="22"
   sodipodi:docname="go.svg"
   inkscape:version="1.2.1 (9c6d41e410, 2022-07-14)"
   xmlns:inkscape="http://www.inkscape.org/namespaces/inkscape"
   xmlns:sodipodi="http://sodipodi.sourceforge.net/DTD/sodipodi-0.dtd"
   xmlns="http://www.w3.org/2000/svg"
   xmlns:svg="http://www.w3.org/2000/svg"
   xmlns:rdf="http://www.w3.org/1999/02/22-rdf-syntax-ns#"
   xmlns:cc="http://creativecommons.org/ns#"
   xmlns:dc="http://purl.org/dc/elements/1.1/">
  <style
     id="current-color-scheme"
     type="text/css">.ColorScheme-Text { color:#d6dbf1; }
</style>
  <sodipodi:namedview
     pagecolor="#000000"
     bordercolor="#ff1111"
     borderopacity="1"
     objecttolerance="10"
     gridtolerance="10"
     guidetolerance="10"
     inkscape:pageopacity="0"
     inkscape:pageshadow="2"
     inkscape:window-width="1920"
     inkscape:window-height="1004"
     id="namedview21"
     showgrid="true"
     inkscape:zoom="5.6568542"
     inkscape:cx="55.507883"
     inkscape:cy="18.826718"
     inkscape:window-x="0"
     inkscape:window-y="0"
     inkscape:window-maximized="1"
     inkscape:current-layer="svg"
     inkscape:document-rotation="0"
     inkscape:pagecheckerboard="true"
     inkscape:lockguides="true"
     inkscape:showpageshadow="false"
     inkscape:deskcolor="#000000">
    <inkscape:grid
       type="xygrid"
       id="grid853"
       originx="0"
       originy="0" />
  </sodipodi:namedview>
  <defs
     id="defs81">
    <style
       id="style5"
       type="text/css" />
  </defs>
  <metadata
     id="metadata34">
    <rdf:RDF>
      <cc:Work
         rdf:about="">
        <dc:format>image/svg+xml</dc:format>
        <dc:type
           rdf:resource="http://purl.org/dc/dcmitype/StillImage" />
      </cc:Work>
    </rdf:RDF>
  </metadata>
  <g
     id="go-down"
     transform="matrix(0.91666667,0,0,0.91666667,-30.08333,0)"
     style="fill:#1e2431;fill-opacity:1">
    <rect
       style="opacity:0.01;fill:#1e2431;fill-opacity:1;stroke:none"
       id="rect3098"
       width="24"
       height="24"
       x="155"
       y="0" />
    <path
       id="rect4176-9"
       d="m 158.04953,6.5454545 -0.86772,0.8858436 7.51705,7.6740489 2.30113,2.349199 2.30114,-2.349199 7.51704,-7.6740489 -0.86772,-0.8858436 -7.51705,7.6740495 -1.43341,1.463355 -1.43341,-1.463355 z"
       style="stroke-width:0.992018;stroke:none;fill-opacity:1;fill:#1e2431"
       class="ColorScheme-Text" />
  </g>
  <g
     id="go-next"
     transform="matrix(0.91666667,0,0,0.91666667,-17.33333,0)"
     style="fill:#1e2431;fill-opacity:1">
    <rect
       style="opacity:0.01;fill:#1e2431;fill-opacity:1;stroke:none"
       id="rect3094"
       width="24"
       height="24"
       x="80"
       y="0" />
    <path
       id="rect4176-6"
       d="m 87.431298,2.1818182 -0.885843,0.8677201 7.674048,7.5170457 1.463354,1.433418 -1.463354,1.433414 -7.674048,7.517046 0.885843,0.86772 7.674048,-7.517045 2.3492,-2.301135 -2.3492,-2.3011382 z"
       style="stroke-width:0.986967;stroke:none;fill-opacity:1;fill:#1e2431"
       class="ColorScheme-Text" />
  </g>
  <g
     id="go-previous"
     transform="matrix(0.91666667,0,0,0.91666667,-8.66667,0)"
     style="fill:#1e2431;fill-opacity:1">
    <rect
       y="0"
       x="40"
       height="24"
       width="24"
       id="rect3092"
       style="opacity:0.01;fill:#1e2431;fill-opacity:1;stroke:none" />
    <path
       id="rect4176-31"
       d="m 56.568702,2.1818182 -7.674049,7.5170455 -2.349198,2.3011373 2.349198,2.301137 7.674049,7.517044 0.885844,-0.867682 -7.674051,-7.517046 -1.463352,-1.433453 1.463352,-1.433332 7.674051,-7.5170463 z"
       style="stroke-width:0.992016;stroke:none;fill-opacity:1;fill:#1e2431"
       class="ColorScheme-Text" />
  </g>
  <g
     id="go-up"
     transform="matrix(0.91666667,0,0,0.91666667,-21.41667,0)"
     style="fill:#1e2431;fill-opacity:1">
    <rect
       y="0"
       x="115"
       height="24"
       width="24"
       id="rect3096"
       style="opacity:0.01;fill:#1e2431;fill-opacity:1;stroke:none" />
    <path
       id="rect4176-2"
       d="M 118.04954,17.454545 117.18182,16.568737 124.69887,8.8946616 127,6.5454545 l 2.30114,2.3492071 7.51704,7.6740754 -0.86772,0.885808 L 128.43341,9.7804692 127,8.3170698 125.56659,9.7804692 Z"
       style="stroke-width:0.99202;stroke:none;fill-opacity:1;fill:#1e2431"
       class="ColorScheme-Text" />
  </g>
  <g
     id="go-home"
     style="fill:#000000;fill-opacity:1">
    <rect
       y="0"
       x="0"
       height="22"
       width="22"
       id="rect2996"
       style="opacity:0.01;fill:#000000;fill-opacity:1;stroke:none;stroke-width:0.916667" />
    <path
       id="Path_63"
       data-name="Path 63"
       d="m 17.923328,11.536844 v 5.678435 c 0,1.249694 -0.751251,2.236758 -1.657171,2.23672 L 5.8591213,19.451561 C 4.953201,19.451524 3.902245,18.443036 3.902245,17.215266 v -5.678435"
       fill="none"
       stroke-linecap="round"
       stroke-miterlimit="10"
       stroke-width="1.10049"
       sodipodi:nodetypes="cssssc"
       style="stroke:#1e2431;stroke-opacity:1;fill:none;fill-opacity:1" />
    <path
       id="Path_64"
       data-name="Path 64"
       d="M 1.552391,10.769488 8.8660403,3.5124916 c 0,0 0.7070597,-0.9646763 1.8560317,-0.9646763 1.148972,0 2.010701,0.9427518 2.010701,0.9427518 L 20.333665,10.769"
       fill="none"
       stroke-linecap="round"
       stroke-miterlimit="10"
       stroke-width="1.10049"
       style="stroke:#1e2431;stroke-opacity:1;fill:none;fill-opacity:1"
       sodipodi:nodetypes="ccscc" />
    <path
       id="Path_65"
       data-name="Path 65"
       d="M 12.177696,17.411534 H 9.7046639 A 0.75847578,0.60070852 0 0 1 8.9363463,16.803027 v -2.662208 a 0.75847578,0.60070852 0 0 1 0.7683176,-0.608505 h 2.4730321 a 0.75847578,0.60070852 0 0 1 0.768318,0.608505 v 2.662208 a 0.75847578,0.60070852 0 0 1 -0.768318,0.608507 z"
       fill="none"
       stroke-linecap="round"
       stroke-miterlimit="10"
       stroke-width="1.06837"
       style="stroke:#1e2431;stroke-opacity:1;fill:#000000;fill-opacity:1" />
  </g>
</svg>
