<?xml version="1.0" encoding="UTF-8" standalone="no"?>
<svg
   width="32"
   height="32"
   version="1.1"
   id="svg12"
   sodipodi:docname="nepomuk.svg"
   inkscape:version="1.2.1 (9c6d41e410, 2022-07-14)"
   xmlns:inkscape="http://www.inkscape.org/namespaces/inkscape"
   xmlns:sodipodi="http://sodipodi.sourceforge.net/DTD/sodipodi-0.dtd"
   xmlns="http://www.w3.org/2000/svg"
   xmlns:svg="http://www.w3.org/2000/svg"
   xmlns:rdf="http://www.w3.org/1999/02/22-rdf-syntax-ns#"
   xmlns:cc="http://creativecommons.org/ns#"
   xmlns:dc="http://purl.org/dc/elements/1.1/">
  <style
     id="current-color-scheme"
     type="text/css">.ColorScheme-Text { color:#1e2431; }
</style>
  <metadata
     id="metadata18">
    <rdf:RDF>
      <cc:Work
         rdf:about="">
        <dc:format>image/svg+xml</dc:format>
        <dc:type
           rdf:resource="http://purl.org/dc/dcmitype/StillImage" />
      </cc:Work>
    </rdf:RDF>
  </metadata>
  <defs
     id="defs16" />
  <sodipodi:namedview
     pagecolor="#000000"
     bordercolor="#ff0f0f"
     borderopacity="1"
     objecttolerance="10"
     gridtolerance="10"
     guidetolerance="10"
     inkscape:pageopacity="0"
     inkscape:pageshadow="2"
     inkscape:window-width="1920"
     inkscape:window-height="1004"
     id="namedview14"
     showgrid="true"
     inkscape:zoom="16"
     inkscape:cx="23.625"
     inkscape:cy="19.65625"
     inkscape:window-x="0"
     inkscape:window-y="0"
     inkscape:window-maximized="1"
     inkscape:current-layer="svg12"
     inkscape:document-rotation="0"
     inkscape:showpageshadow="false"
     showguides="false"
     inkscape:lockguides="false"
     inkscape:pagecheckerboard="true"
     inkscape:deskcolor="#000000">
    <inkscape:grid
       type="xygrid"
       id="grid860"
       originx="1e-06"
       originy="1e-06" />
  </sodipodi:namedview>
  <g
     id="nepomuk">
    <path
       style="opacity:0.00100002;fill:#d1d5e9;fill-opacity:1"
       d="M 0,0 V 32.000001 H 32.000001 V 0 Z"
       id="path7" />
    <path
       d="M 27.996776,15.999194 C 27.996776,9.370945 22.626554,4 15.999194,4 9.3718354,4 4,9.370945 4,15.999194 4,22.627443 9.3718354,28 15.999194,28 19.549795,28 28,27.916179 28,27.916179 c 0,0 -0.0032,-8.838202 -0.0032,-11.916985 z M 15.912,24.8464 c -4.8656,0 -8.808,-3.9456 -8.808,-8.8112 0,-4.864 3.9424,-8.808 8.808,-8.808 4.864,0 8.8096,3.944 8.8096,8.808 0,4.8656 -3.9456,8.8112 -8.8096,8.8112 z m 11.088001,2.153601 h -3 v -3 h 3 z"
       class="si-glyph-fill  ColorScheme-Text"
       id="path1772"
       style="stroke-width:1.6;stroke:none;fill-rule:evenodd;fill-opacity:1;fill:currentColor;"
       sodipodi:nodetypes="cssscccsssssccccc" />
    <path
       d="m 14.9072,8.8704 c -3.3904,0 -6.1424,2.5856 -6.1424,5.7728 0,0.4 0.0416,0.7936 0.1232,1.168 0.2976,1.344 0.8464,1.1056 0.8464,-0.2528 0,-3.1968 2.7504,-5.7744 6.144,-5.7744 1.448,0 0.9728,-0.9136 -0.9712,-0.9136 z"
       class="si-glyph-fill  ColorScheme-Text"
       id="path1774"
       style="stroke-width:1.6;stroke:none;fill-rule:evenodd;fill-opacity:1;fill:currentColor;" />
  </g>
  <g
     id="22-22-nepomuk"
     transform="translate(32.000002,10.000001)">
    <path
       style="opacity:0.00100002;fill:#d1d5e9;fill-opacity:1"
       d="M 0,0 V 22 H 22 V 0 Z"
       id="path2" />
    <path
       d="M 18.997851,10.999463 C 18.997851,6.5806301 15.417703,3 10.999463,3 6.5812237,3 3,6.5806301 3,10.999463 c 0,4.418833 3.5812237,8.000538 7.999463,8.000538 2.367067,0 8.000538,-0.05588 8.000538,-0.05588 0,0 -0.0021,-5.892135 -0.0021,-7.944657 z M 10.941334,16.8976 c -3.2437339,0 -5.8720006,-2.6304 -5.8720006,-5.874133 0,-3.2426669 2.6282667,-5.8720003 5.8720006,-5.8720003 3.242666,0 5.873066,2.6293334 5.873066,5.8720003 0,3.243733 -2.6304,5.874133 -5.873066,5.874133 z M 17.999999,18 h -2 v -2 h 2 z"
       class="si-glyph-fill  ColorScheme-Text"
       id="path1772-7"
       style="stroke-width:1.06667;stroke:none;fill-rule:evenodd;fill-opacity:1;fill:currentColor;"
       sodipodi:nodetypes="cssscccsssssccccc" />
    <path
       d="m 10.271467,6.2469334 c -2.2602668,0 -4.0949336,1.7237334 -4.0949336,3.8485336 0,0.266667 0.027733,0.529067 0.082133,0.778667 0.1984,0.896 0.5642667,0.737066 0.5642667,-0.168534 0,-2.1311998 1.8336,-3.8495999 4.0960009,-3.8495999 0.965333,0 0.648533,-0.6090667 -0.647467,-0.6090667 z"
       class="si-glyph-fill  ColorScheme-Text"
       id="path1774-5"
       style="stroke-width:1.06667;stroke:none;fill-rule:evenodd;fill-opacity:1;fill:currentColor;" />
  </g>
</svg>
