<?xml version="1.0" encoding="UTF-8" standalone="no"?>
<svg
   width="5.8208332mm"
   height="5.8208332mm"
   viewBox="0 0 22 22"
   version="1.1"
   id="svg881"
   inkscape:version="1.2.1 (9c6d41e410, 2022-07-14)"
   sodipodi:docname="notification.svg"
   xmlns:inkscape="http://www.inkscape.org/namespaces/inkscape"
   xmlns:sodipodi="http://sodipodi.sourceforge.net/DTD/sodipodi-0.dtd"
   xmlns="http://www.w3.org/2000/svg"
   xmlns:svg="http://www.w3.org/2000/svg"
   xmlns:rdf="http://www.w3.org/1999/02/22-rdf-syntax-ns#"
   xmlns:cc="http://creativecommons.org/ns#"
   xmlns:dc="http://purl.org/dc/elements/1.1/">
  <style
     id="current-color-scheme"
     type="text/css">.ColorScheme-Highlight { color:#7580bc; }
.ColorScheme-Text { 
    color:#1e2431;
}
</style>
  <defs
     id="defs875" />
  <sodipodi:namedview
     id="base"
     pagecolor="#000000"
     bordercolor="#ff0707"
     borderopacity="1"
     inkscape:pageopacity="0"
     inkscape:pageshadow="2"
     inkscape:zoom="4.0114746"
     inkscape:cx="46.616274"
     inkscape:cy="55.839815"
     inkscape:document-units="px"
     inkscape:current-layer="layer1"
     showgrid="true"
     inkscape:window-width="1920"
     inkscape:window-height="1004"
     inkscape:window-x="0"
     inkscape:window-y="0"
     inkscape:window-maximized="1"
     inkscape:lockguides="false"
     inkscape:document-rotation="0"
     inkscape:showpageshadow="false"
     inkscape:pagecheckerboard="true"
     inkscape:deskcolor="#000000">
    <inkscape:grid
       type="xygrid"
       id="grid333" />
  </sodipodi:namedview>
  <metadata
     id="metadata878">
    <rdf:RDF>
      <cc:Work
         rdf:about="">
        <dc:format>image/svg+xml</dc:format>
        <dc:type
           rdf:resource="http://purl.org/dc/dcmitype/StillImage" />
      </cc:Work>
    </rdf:RDF>
  </metadata>
  <g
     inkscape:label="Layer 1"
     inkscape:groupmode="layer"
     id="layer1"
     transform="translate(-209.82493,-646.24546)">
    <g
       id="notification-progress-active"
       transform="translate(248.82493,685.24546)">
      <path
         style="fill:none"
         inkscape:connector-curvature="0"
         id="empty-rectangle"
         d="M 1,1 H 23 V 23 H 1 Z" />
      <circle
         id="circle-blue"
         cx="12"
         cy="12"
         r="8"
         class="ColorScheme-ButtonFocus  ColorScheme-Highlight"
         style="fill:#5671a9;fill-opacity:1" />
    </g>
    <g
       id="notification-progress-inactive"
       transform="translate(248.82493,725.24546)">
      <path
         style="fill:none"
         inkscape:connector-curvature="0"
         id="path10"
         d="M 1,1 H 23 V 23 H 1 Z" />
      <circle
         id="circle-transparent"
         cx="12"
         cy="12"
         r="8"
         style="opacity:0.4;fill:#5671a9;fill-opacity:1"
         class="ColorScheme-Highlight" />
    </g>
    <path
       inkscape:connector-curvature="0"
       id="expander-bottom"
       d="m 239.82493,631.24546 2,-2 2,2 z"
       class="ColorScheme-Text"
       style="fill:#1e2431;fill-opacity:1" />
    <path
       inkscape:connector-curvature="0"
       id="expander-top"
       d="m 239.82493,625.24546 2,2 2,-2 z"
       class="ColorScheme-Text"
       style="fill:#1e2431;fill-opacity:1" />
    <path
       inkscape:connector-curvature="0"
       id="expander-right"
       d="m 244.82493,626.24546 -2,2 2,2 z"
       class="ColorScheme-Text "
       style="fill:#1e2431;fill-opacity:1" />
    <path
       inkscape:connector-curvature="0"
       id="expander-left"
       d="m 238.82493,626.24546 2,2 -2,2 z"
       class="ColorScheme-Text"
       style="fill:#1e2431;fill-opacity:1" />
    <g
       id="notification-empty"
       transform="translate(248.82493,645.24546)">
      <path
         style="fill:none"
         inkscape:connector-curvature="0"
         id="path31"
         d="M 1,1 H 23 V 23 H 1 Z" />
      <path
         inkscape:connector-curvature="0"
         id="circle-outline"
         d="m 12,4 a 8,8 0 0 0 -8,8 8,8 0 0 0 8,8 8,8 0 0 0 8,-8 8,8 0 0 0 -8,-8 z m 0,1 a 7,7 0 0 1 7,7 7,7 0 0 1 -7,7 7,7 0 0 1 -7,-7 7,7 0 0 1 7,-7 z"
         class="ColorScheme-Text"
         style="fill:#1e2431;fill-opacity:1" />
    </g>
    <g
       id="notification-inactive">
      <path
         style="fill:none"
         inkscape:connector-curvature="0"
         d="m 209.82493,686.24546 h 22 v 22 h -22 z"
         id="path6" />
      <path
         d="m 227.23913,700.59752 c -0.3185,-0.31678 -0.73892,-0.51617 -1.19026,-0.56448 v -4.20082 c 0.003,-1.35763 -0.54793,-2.66015 -1.53031,-3.6179 -0.57689,-0.5509 -1.27023,-0.97099 -2.03118,-1.23067 v -0.0562 c 0.0103,-0.85886 -0.64875,-1.58418 -1.52077,-1.67481 -0.97157,-0.0877 -1.80899,0.66352 -1.80433,1.61923 v 0.11102 c -2.12383,0.70351 -3.55541,2.65254 -3.56132,4.84856 v 4.2009 c -1.0127,0.11384 -1.77694,0.95394 -1.77603,1.9524 v 0.49039 c 5.3e-4,1.08315 0.89688,1.76982 2.00266,1.77032 h 3.39137 c 0.3105,1.76727 2.90141,1.76727 3.21189,0 h 3.39126 c 1.10588,-5.1e-4 2.00213,-0.68718 2.00279,-1.77032 v -0.49032 c 0.003,-0.52084 -0.20844,-1.0209 -0.58577,-1.38797 z m -0.35891,1.87833 c 8.7e-4,0.57277 -0.47326,0.91286 -1.05811,0.91185 h -9.99452 c -0.58473,10e-4 -1.05909,-0.33905 -1.05805,-0.91185 v -0.49044 c -8.7e-4,-0.57278 0.47334,-1.03733 1.05805,-1.03627 0.39986,-0.001 0.72221,-0.32095 0.718,-0.71251 l 3.4e-4,-4.40441 c 0.009,-1.85185 1.25023,-3.48116 3.06024,-4.01578 0.29931,-0.0831 0.50451,-0.35239 0.50079,-0.65699 v -0.28685 c -0.002,-0.19816 0.0842,-0.38739 0.23619,-0.51813 0.1307,-0.11944 0.30298,-0.18561 0.48175,-0.18506 h 0.0664 c 0.38215,0.0545 0.66215,0.38062 0.65194,0.75872 v 0.23132 c -0.004,0.30458 0.20144,0.57387 0.50061,0.65699 0.67945,0.20409 1.29846,0.56596 1.80424,1.05483 0.80852,0.78124 1.26132,1.84858 1.25651,2.96095 v 4.40441 c 2.3e-4,0.18941 0.0745,0.37156 0.20777,0.50891 0.13643,0.13049 0.31944,0.20357 0.51016,0.2036 0.58283,0.003 1.05439,0.46542 1.05792,1.03627 z"
         id="path539"
         style="fill:#1e2431;fill-opacity:1;stroke-width:0.934916"
         sodipodi:nodetypes="ccccccccccccccccccccccccccccccccccccccccccccc" />
    </g>
    <g
       id="notification-disabled">
      <path
         style="fill:none"
         inkscape:connector-curvature="0"
         d="m 209.82493,646.24546 h 22 v 22 h -22 z"
         id="path25" />
      <path
         d="m 218.62543,651.01368 c -0.54083,0.27728 -0.0748,1.03888 0.47357,0.79857 0.4821,-0.20981 1.01156,-0.26526 1.05607,-0.87806 0.0265,-0.37895 0.0133,-0.74866 0.45085,-0.9178 a 0.73498803,0.71723615 0 0 1 0.9803,0.65623 c 0.0455,0.42609 0.0332,0.75883 0.51903,0.94646 a 4.5567363,4.4466793 0 0 1 2.66339,2.24783 5.3324518,5.2036592 0 0 1 0.39212,2.28019 v 1.86703 a 0.473575,0.46213693 0 0 0 0.94715,0 c 0,-1.52136 0.17522,-3.13699 -0.49347,-4.55575 a 5.2491026,5.1223231 0 0 0 -2.85944,-2.59535 c -0.0322,-0.012 -0.14681,-0.0638 -0.215,-0.085 0,-0.0194 0,-0.0407 0,-0.0545 a 1.9028234,1.8568652 0 0 0 -0.24342,-0.87344 1.647093,1.6073114 0 0 0 -2.93616,0.15898 1.8867218,1.8411526 0 0 0 -0.14492,0.73202 c 0,0.0111 0,0.0305 0,0.0481 -0.007,0.002 -0.4158,0.13864 -0.59007,0.2246 z"
         id="path2"
         style="fill:#1e2431;fill-opacity:1;stroke-width:0.935642" />
      <path
         d="m 213.83853,649.77516 c -0.43569,-0.42517 -1.10816,0.23106 -0.67247,0.64699 1.00398,0.97973 2.00795,1.9687 3.01193,2.94843 a 5.2424726,5.1158532 0 0 0 -0.53987,2.25523 v 4.1962 a 2.0098513,1.9613081 0 0 0 -1.78064,1.95021 v 0.48987 a 2.0089041,1.9603839 0 0 0 2.00795,1.95946 h 3.40027 a 1.6338329,1.5943716 0 0 0 3.22031,0 h 3.40027 a 2.007957,1.9594596 0 0 0 1.08922,-0.31425 l 0.93768,0.91503 a 0.47551245,0.46402759 0 0 0 0.67247,-0.65624 z m 12.43608,13.44817 a 1.0892219,1.0629144 0 0 1 -0.38833,0.0739 h -10.02085 a 1.0589132,1.0333377 0 0 1 -1.0608,-1.03518 v -0.48987 a 1.0589132,1.0333377 0 0 1 1.0608,-1.03518 0.72172793,0.70429632 0 0 0 0.71984,-0.71169 v -4.39954 a 4.1437791,4.0436961 0 0 1 0.31256,-1.55278 z"
         id="path4"
         style="fill:#1e2431;fill-opacity:1;stroke-width:0.935642" />
    </g>
    <g
       id="notification-active">
      <path
         style="fill:none"
         inkscape:connector-curvature="0"
         d="m 209.82493,726.24546 h 22 v 22 h -22 z"
         id="path14" />
      <path
         style="fill:#1e2431;fill-opacity:1;fill-rule:evenodd;stroke-width:1.336"
         id="path16"
         class="ColorScheme-Text"
         d="m 213.27879,728.24546 c -2.00479,2.00299 -3.13204,4.72017 -3.13386,7.5541 h 1.336 c 8.2e-4,-1.12721 0.20512,-2.23328 0.59253,-3.26914 0.46479,-1.24278 1.19317,-2.38447 2.14993,-3.34027 z m 15.10829,0 -0.9446,0.94469 c 1.75421,1.75245 2.74066,4.12981 2.74245,6.60941 h 1.336 c -0.002,-2.83393 -1.12906,-5.55111 -3.13385,-7.5541 z m -1.8918,1.89207 -0.94721,0.94669 c 1.25381,1.2494 1.96049,2.94531 1.96486,4.71534 h 1.336 c -0.001,-0.80062 -0.12214,-1.58872 -0.35289,-2.34036 -0.38162,-1.24305 -1.06354,-2.38635 -2.00076,-3.32167 z m -11.31947,0.004 c -0.5465,0.54436 -1.00643,1.15944 -1.37085,1.82377 -0.63896,1.16481 -0.98434,2.48115 -0.98803,3.83361 h 1.336 c 0.002,-1.77105 0.70649,-3.46896 1.95964,-4.72048 z"
         inkscape:connector-curvature="0"
         sodipodi:nodetypes="cccscccccccccccsccscccc" />
      <path
         d="m 227.23913,740.59731 c -0.3185,-0.31678 -0.73892,-0.51617 -1.19026,-0.56448 v -4.20082 c 0.003,-1.35763 -0.54793,-2.66015 -1.53031,-3.6179 -0.57689,-0.5509 -1.27023,-0.97099 -2.03118,-1.23067 v -0.0562 c 0.0103,-0.85886 -0.64875,-1.58418 -1.52077,-1.67481 -0.97157,-0.0877 -1.80899,0.66352 -1.80433,1.61923 v 0.11102 c -2.12383,0.70351 -3.55541,2.65254 -3.56132,4.84856 v 4.2009 c -1.0127,0.11384 -1.77694,0.95394 -1.77603,1.9524 v 0.49039 c 5.3e-4,1.08315 0.89688,1.77003 2.00266,1.77053 h 3.39137 c 0.3105,1.76727 2.90141,1.76727 3.21189,0 h 3.39126 c 1.10588,-5.1e-4 2.00213,-0.68739 2.00279,-1.77053 v -0.49032 c 0.003,-0.52084 -0.20844,-1.0209 -0.58577,-1.38797 z m -0.35891,1.87833 c 8.7e-4,0.57277 -0.47326,0.91286 -1.05811,0.91185 h -9.99452 c -0.58473,0.001 -1.05909,-0.33905 -1.05805,-0.91185 v -0.49044 c -8.7e-4,-0.57278 0.47334,-1.03733 1.05805,-1.03627 0.39986,-10e-4 0.72221,-0.32095 0.718,-0.71251 l 3.4e-4,-4.40441 c 0.009,-1.85185 1.25023,-3.48116 3.06024,-4.01578 0.29931,-0.0831 0.50451,-0.35239 0.50079,-0.65699 v -0.28685 c -0.002,-0.19816 0.0842,-0.38739 0.23619,-0.51813 0.1307,-0.11944 0.30298,-0.18561 0.48175,-0.18506 h 0.0664 c 0.38215,0.0545 0.66215,0.38062 0.65194,0.75872 v 0.23132 c -0.004,0.30458 0.20144,0.57387 0.50061,0.65699 0.67945,0.20409 1.29846,0.56596 1.80424,1.05483 0.80852,0.78124 1.26132,1.84858 1.25651,2.96095 v 4.40441 c 2.3e-4,0.18941 0.0745,0.37156 0.20777,0.50891 0.13643,0.13049 0.31944,0.20357 0.51016,0.2036 0.58283,0.003 1.05439,0.46542 1.05792,1.03627 z"
         id="path539-3"
         style="fill:#1e2431;fill-opacity:1;stroke-width:0.934916"
         sodipodi:nodetypes="ccccccccccccccccccccccccccccccccccccccccccccc" />
    </g>
  </g>
</svg>
