<?xml version="1.0" encoding="UTF-8" standalone="no"?>
<svg
   id="svg3294"
   height="32"
   width="32"
   version="1.0"
   inkscape:version="1.2.1 (9c6d41e410, 2022-07-14)"
   sodipodi:docname="preferences.svg"
   xmlns:inkscape="http://www.inkscape.org/namespaces/inkscape"
   xmlns:sodipodi="http://sodipodi.sourceforge.net/DTD/sodipodi-0.dtd"
   xmlns:xlink="http://www.w3.org/1999/xlink"
   xmlns="http://www.w3.org/2000/svg"
   xmlns:svg="http://www.w3.org/2000/svg"
   xmlns:rdf="http://www.w3.org/1999/02/22-rdf-syntax-ns#"
   xmlns:cc="http://creativecommons.org/ns#"
   xmlns:dc="http://purl.org/dc/elements/1.1/">
  <g
     id="22-22-preferences-desktop-notification"
     style="fill:#1e2431;fill-opacity:1"
     transform="translate(32,-22)">
    <rect
       style="opacity:0.00100002;fill:#1e2431;fill-opacity:1"
       width="22"
       height="22"
       x="0"
       y="0"
       id="rect727" />
    <path
       style="color:#d1d5e9;fill:#1e2431;fill-opacity:1;stroke-width:0.888886"
       d="m 10.00543,5.451465 h 1.979265 v 7.008536 H 10.00543 Z"
       id="path4645-1-4-5-1-6"
       inkscape:connector-curvature="0"
       class="ColorScheme-Text" />
    <path
       style="color:#d1d5e9;fill:#1e2431;fill-opacity:1;stroke-width:0.888886"
       d="m 10.133825,14.532085 c 0.241975,-0.221245 0.52741,-0.33182 0.85729,-0.33182 0.341725,0 0.632095,0.110575 0.87407,0.33182 0.24098,0.220275 0.362465,0.518495 0.362465,0.893875 0,0.387105 -0.121485,0.690305 -0.362465,0.912525 -0.241975,0.220275 -0.532345,0.33085 -0.87407,0.33085 -0.32988,0 -0.615315,-0.110575 -0.85729,-0.33085 C 9.89284,16.116265 9.77235,15.813065 9.77235,15.42596 c 0,-0.37538 0.12049,-0.6736 0.361475,-0.893875 z"
       id="path7-2-1-76-8-7"
       inkscape:connector-curvature="0"
       class="ColorScheme-Text" />
    <path
       d="M 16.656871,5.343159 C 15.145876,3.83212 13.136729,3 11,3 8.863275,3 6.85412,3.83212 5.343284,5.343159 3.832129,6.8542 3,8.863173 3,11.000002 3,13.136834 3.832129,15.145805 5.343284,16.656844 6.85412,18.16776 8.863275,19 11,19 13.13688,19 15.145876,18.16776 16.656871,16.656844 18.16776,15.145805 19,13.136834 19,11.000002 19,8.863173 18.16776,6.854112 16.656871,5.343159 Z M 15.743329,16.209772 C 14.27032,17.459244 13.082329,18.049913 11,18.034654 8.789356,18.018364 7.969362,17.60312 6.256678,16.209347 4.865054,14.81784 3.965339,12.967961 3.965339,11.000002 3.965339,9.031926 4.893616,6.939721 6.256678,5.790001 7.785848,4.446281 9.060439,3.980036 11,3.96534 c 1.967919,-0.01496 3.285052,0.612981 4.743329,1.824806 1.391591,1.391582 2.291329,3.24178 2.291329,5.209856 0,1.967958 -0.899738,3.818278 -2.291329,5.20977 z"
       id="path2-36-912-3-3-35-3-75-2-5"
       style="color:#d1d5e9;fill:#1e2431;fill-opacity:1;stroke-width:0.0249998"
       sodipodi:nodetypes="cscscscsccscscscsc"
       class="ColorScheme-Text" />
  </g>
  <style
     id="current-color-scheme"
     type="text/css">.ColorScheme-Text { color:#d1d5e9; }
</style>
  <defs
     id="defs8">
    <linearGradient
       id="linearGradient4087">
      <stop
         style="stop-color:#e9dbd2;stop-opacity:1;"
         offset="0"
         id="stop4089" />
      <stop
         style="stop-color:#e9dbd2;stop-opacity:0;"
         offset="1"
         id="stop4091" />
    </linearGradient>
    <linearGradient
       id="linearGradient4445">
      <stop
         id="stop4447"
         offset="0"
         style="stop-color:#000000;stop-opacity:0;" />
      <stop
         style="stop-color:#000000;stop-opacity:0;"
         offset="0.5"
         id="stop4453" />
      <stop
         id="stop4449"
         offset="1"
         style="stop-color:#000000;stop-opacity:0.27450982;" />
    </linearGradient>
    <linearGradient
       id="linearGradient4364">
      <stop
         style="stop-color:#ffffff;stop-opacity:1;"
         offset="0"
         id="stop4366" />
      <stop
         id="stop4368"
         offset="0.47499999"
         style="stop-color:#ffffff;stop-opacity:0.78431374;" />
      <stop
         style="stop-color:#ffffff;stop-opacity:0.39215687;"
         offset="0.84912485"
         id="stop4370" />
      <stop
         style="stop-color:#ffffff;stop-opacity:1;"
         offset="1"
         id="stop4372" />
    </linearGradient>
    <linearGradient
       id="linearGradient3141">
      <stop
         style="stop-color:#ffffff;stop-opacity:1;"
         offset="0"
         id="stop3143" />
      <stop
         id="stop3145"
         offset="0.47499999"
         style="stop-color:#ffffff;stop-opacity:0.78431374;" />
      <stop
         style="stop-color:#ffffff;stop-opacity:0.39215687;"
         offset="0.84912485"
         id="stop3147" />
      <stop
         style="stop-color:#ffffff;stop-opacity:1;"
         offset="1"
         id="stop3149" />
    </linearGradient>
    <linearGradient
       id="linearGradient3140">
      <stop
         id="stop3142"
         style="stop-color:#ffffff;stop-opacity:1"
         offset="0" />
      <stop
         id="stop3144"
         style="stop-color:#ffffff;stop-opacity:0"
         offset="1" />
    </linearGradient>
    <linearGradient
       inkscape:collect="always"
       xlink:href="#linearGradient3140"
       id="linearGradient2949"
       gradientUnits="userSpaceOnUse"
       x1="14.009747"
       y1="5.9999762"
       x2="14.009747"
       y2="10.000011" />
    <linearGradient
       id="linearGradient3156">
      <stop
         id="stop3158"
         style="stop-color:#ffffff;stop-opacity:1"
         offset="0" />
      <stop
         id="stop3160"
         style="stop-color:#ffffff;stop-opacity:0"
         offset="1" />
    </linearGradient>
    <radialGradient
       inkscape:collect="always"
       xlink:href="#linearGradient4445"
       id="radialGradient3982"
       gradientUnits="userSpaceOnUse"
       gradientTransform="matrix(0.70833333,0,0,0.73186232,56,0.38340295)"
       cx="11.549556"
       cy="13.65229"
       fx="11.549556"
       fy="13.65229"
       r="8.7215576" />
  </defs>
  <sodipodi:namedview
     pagecolor="#000000"
     bordercolor="#ff0404"
     borderopacity="1"
     objecttolerance="10"
     gridtolerance="10"
     guidetolerance="10"
     inkscape:pageopacity="0.58823529"
     inkscape:pageshadow="2"
     inkscape:window-width="1920"
     inkscape:window-height="1004"
     id="namedview6"
     showgrid="true"
     inkscape:zoom="5.656854"
     inkscape:cx="-3.8890875"
     inkscape:cy="8.2201167"
     inkscape:window-x="0"
     inkscape:window-y="0"
     inkscape:window-maximized="1"
     inkscape:current-layer="svg3294"
     inkscape:snap-nodes="true"
     inkscape:snap-to-guides="false"
     inkscape:snap-grids="true"
     inkscape:snap-bbox="true"
     inkscape:bbox-paths="true"
     inkscape:snap-intersection-paths="true"
     inkscape:object-nodes="true"
     inkscape:snap-smooth-nodes="true"
     inkscape:snap-object-midpoints="true"
     inkscape:lockguides="true"
     inkscape:document-rotation="0"
     inkscape:pagecheckerboard="true"
     inkscape:showpageshadow="false"
     inkscape:deskcolor="#000000">
    <inkscape:grid
       type="xygrid"
       id="grid297"
       originx="0"
       originy="0" />
  </sodipodi:namedview>
  <metadata
     id="metadata15">
    <rdf:RDF>
      <cc:Work
         rdf:about="">
        <dc:format>image/svg+xml</dc:format>
        <dc:type
           rdf:resource="http://purl.org/dc/dcmitype/StillImage" />
      </cc:Work>
    </rdf:RDF>
  </metadata>
  <g
     id="preferences-desktop-display-randr">
    <rect
       y="0"
       x="0"
       height="32"
       width="32"
       id="rect2991"
       style="opacity:0.01;fill:#d1d5e9;fill-opacity:1;stroke:none;stroke-width:1.33333" />
    <path
       d="M 3.8829284,4.0000005 H 28.116186 c 0.791164,0 1.511953,0.336092 2.034898,0.878845 l 0.003,0.0031 C 30.675939,5.4246905 31,6.1718015 31,6.9928745 V 20.218612 c 0,0.822913 -0.323843,1.572138 -0.846835,2.11372 l -0.02879,0.02782 C 29.604296,22.885947 28.894024,23 28.116476,23 h -9.811224 c 0.09703,0.494733 0.334581,1.149827 0.667126,1.494929 l 0.02126,0.02389 c 0.439169,0.443009 1.039023,0.718348 1.696536,0.718348 0.265278,0 0.480507,0.223361 0.480507,0.498676 v 1.76548 c 0,0.275316 -0.215229,0.498676 -0.480507,0.498676 H 11.30692 c -0.265281,0 -0.480509,-0.22336 -0.480509,-0.498676 v -1.76553 c 0,-0.275315 0.215228,-0.498676 0.480509,-0.498676 0.668899,0 1.277493,-0.284364 1.718674,-0.742218 C 13.358152,24.149767 13.595506,23.494733 13.692723,23 H 3.8826458 C 3.0905649,23 2.3696071,22.873852 1.8468326,22.331362 1.3238613,21.790701 1,21.041506 1,20.218593 V 6.9928575 c 0,-0.821074 0.3238498,-1.56911 0.8468326,-2.111821 l 0.00299,-0.0031 C 2.3727987,4.3363445 3.092696,4.0000385 3.8838616,4.0000385 Z M 13.692723,23 Z M 2,19 H 30 V 7.0000005 c 0,-0.549701 -0.176629,-1.056579 -0.524614,-1.416821 -0.348876,-0.362063 -0.82961,-0.583179 -1.359075,-0.583179 H 3.8830506 c -0.5296783,0 -1.0101837,0.229412 -1.3573037,0.590548 C 2.1958384,5.9329275 2.0220107,6.3882295 2,6.9023905 c -0.00127,0.02956 0,0.05929 0,0.08916 z m 28,1 H 2 v 0.217182 C 2,20.764803 2.1768538,21.26371 2.525728,21.625795 2.872821,21.98786 3.3533434,22 3.8830331,22 H 28.116293 c 0.518063,0 0.990102,-0.0031 1.335162,-0.350318 l 0.02124,-0.02389 c 0.348878,-0.362067 0.56522,-0.860974 0.56522,-1.408613 z m -12,3 z"
       id="path64"
       style="fill:#1e2431;fill-opacity:1;stroke-width:0.058286"
       sodipodi:nodetypes="csccssccscccssssssssscscsscccccccscccccscsscsccccscssccsccccc" />
    <path
       id="path29"
       d="M 3.5009662,8.9999996 C 3.2983105,8.9999545 3.1156774,8.8778757 3.0381389,8.6907095 2.9606148,8.503492 3.0034777,8.2880492 3.1466913,8.1447474 L 5.1508747,6.1406342 c 0.1966095,-0.1898583 0.5090825,-0.187151 0.70237,0.0061 0.19327,0.1932393 0.1959859,0.5057444 0.00612,0.7023467 L 3.8552419,8.8531824 C 3.7612869,8.9471615 3.6338738,8.9999645 3.5010017,8.9999945 Z"
       style="fill:#1e2431;fill-opacity:1;fill-rule:nonzero;stroke-width:0.501038" />
    <path
       id="path31"
       d="M 3.5004436,11.999999 C 3.2979993,11.999973 3.1155567,11.878025 3.0380992,11.69103 2.960656,11.504026 3.0034743,11.288773 3.1465383,11.14564 L 8.1517405,6.1404907 c 0.1964044,-0.1896646 0.5085578,-0.18696 0.7016365,0.0061 0.193086,0.1930421 0.195788,0.5052282 0.00621,0.7016299 L 3.8543311,11.853311 c -0.093858,0.09386 -0.2211297,0.146618 -0.3538675,0.146642 z"
       style="fill:#1e2431;fill-opacity:1;fill-rule:nonzero;stroke-width:0.500522" />
    <path
       id="path29-2"
       d="m 26.489201,17.999957 c -0.20074,-0.0029 -0.379922,-0.128843 -0.454083,-0.318915 -0.07414,-0.190126 -0.02864,-0.40701 0.115245,-0.54962 l 2.013579,-1.994405 c 0.197436,-0.188841 0.506919,-0.181607 0.695648,0.01628 0.188711,0.197872 0.186983,0.513405 -0.0039,0.709149 l -2.013525,1.994389 c -0.0944,0.09352 -0.22135,0.144997 -0.352968,0.143113 z"
       style="fill:#1e2431;fill-opacity:1;fill-rule:nonzero;stroke-width:0.501096"
       inkscape:transform-center-x="3.1287501"
       inkscape:transform-center-y="-3.515762" />
    <path
       id="path31-7"
       d="m 23.493301,17.928106 c -0.202424,-0.0029 -0.383107,-0.127454 -0.457889,-0.315535 -0.07476,-0.18809 -0.02888,-0.40271 0.11621,-0.543787 l 5.076115,-4.933217 c 0.199091,-0.186844 0.511173,-0.179685 0.701478,0.01611 0.190312,0.195778 0.188559,0.50797 -0.0038,0.701647 l -5.076167,4.933157 c -0.09519,0.09251 -0.223199,0.143448 -0.355923,0.141578 z"
       style="fill:#1e2431;fill-opacity:1;fill-rule:nonzero;stroke-width:0.500522" />
  </g>
  <g
     id="22-22-preferences-system-bluetooth-activated"
     transform="translate(-162,-22)"
     style="fill:#1e2431;fill-opacity:1">
    <rect
       style="opacity:0.00100002;fill:#1e2431;fill-opacity:1"
       width="22"
       height="22"
       x="66"
       y="0"
       id="rect744" />
    <path
       style="color:#eff0f1;opacity:1;fill:#1e2431;fill-opacity:1"
       class="ColorScheme-Text"
       d="M 76.464844,3 C 76.202529,3.0185134 75.999374,3.2370336 76,3.5 V 9.765625 L 72.820312,7.1152344 C 72.307288,6.6881164 71.666664,7.4576476 72.179688,7.8847656 L 76,11.068359 v 0.285157 l -3.792969,2.740234 c -0.541666,0.390625 0.04427,1.203125 0.585938,0.8125 L 76,12.589844 V 18.5 c -5.74e-4,0.405042 0.455455,0.642675 0.787109,0.410156 l 5,-3.5 c 0.270878,-0.188983 0.287377,-0.584008 0.0332,-0.794922 L 77.816406,11.279297 81.792969,8.40625 c 0.258337,-0.1867999 0.27826,-0.5643955 0.04102,-0.7773438 l -5,-4.5 C 76.746412,3.0496972 76.633636,3.004033 76.515625,3 76.498709,2.99914 76.48176,2.99914 76.464844,3 Z M 77,4.6210938 80.705078,7.9570312 77.021484,10.617188 77,10.597656 Z M 71,10 c -0.552285,0 -1,0.447715 -1,1 0,0.552285 0.447715,1 1,1 0.552285,0 1,-0.447715 1,-1 0,-0.552285 -0.447715,-1 -1,-1 z m 12,0 c -0.552285,0 -1,0.447715 -1,1 0,0.552285 0.447715,1 1,1 0.552285,0 1,-0.447715 1,-1 0,-0.552285 -0.447715,-1 -1,-1 z m -6,1.902344 3.675781,3.0625 L 77,17.539062 Z"
       id="path746" />
  </g>
  <g
     id="22-22-preferences-system-bluetooth"
     transform="translate(-130,-22)"
     style="fill:#1e2431;fill-opacity:1">
    <rect
       style="opacity:0.00100002;fill:#1e2431;fill-opacity:1"
       width="22"
       height="22"
       x="66"
       y="0"
       id="rect749" />
    <path
       style="color:#eff0f1;opacity:1;fill:#1e2431;fill-opacity:1"
       class="ColorScheme-Text"
       d="M 76.464844,3 C 76.202529,3.0185134 75.999374,3.2370336 76,3.5 V 9.765625 L 72.820312,7.1152344 C 72.307288,6.6881164 71.666664,7.4576476 72.179688,7.8847656 L 76,11.068359 v 0.285157 l -3.792969,2.740234 c -0.541666,0.390625 0.04427,1.203125 0.585938,0.8125 L 76,12.589844 V 18.5 c -5.74e-4,0.405042 0.455455,0.642675 0.787109,0.410156 l 5,-3.5 c 0.270877,-0.188984 0.287375,-0.584009 0.0332,-0.794922 L 77.816406,11.279297 81.792969,8.40625 c 0.258338,-0.1867983 0.278264,-0.5643939 0.04102,-0.7773438 l -5,-4.5 C 76.746416,3.0496961 76.633638,3.0040318 76.515625,3 76.498709,2.99914 76.48176,2.99914 76.464844,3 Z M 77,4.6210938 80.705078,7.9570312 77.021484,10.617188 77,10.597656 Z m 0,7.2812502 3.675781,3.0625 L 77,17.539062 Z"
       id="path751" />
  </g>
  <g
     id="22-22-preferences-system-bluetooth-inactive"
     transform="translate(-98,-22)"
     style="fill:#1e2431;fill-opacity:1">
    <rect
       style="opacity:0.00100002;fill:#1e2431;fill-opacity:1"
       width="22"
       height="22"
       x="66"
       y="0"
       id="rect754" />
    <path
       style="color:#eff0f1;opacity:0.5;fill:#1e2431;fill-opacity:1"
       class="ColorScheme-Text"
       d="M 76.464844,3 C 76.202529,3.0185134 75.999374,3.2370336 76,3.5 V 9.765625 L 72.820312,7.1152344 C 72.307288,6.6881164 71.666664,7.4576476 72.179688,7.8847656 L 76,11.068359 v 0.285157 l -3.792969,2.740234 c -0.541666,0.390625 0.04427,1.203125 0.585938,0.8125 L 76,12.589844 V 18.5 c -5.74e-4,0.405042 0.455455,0.642675 0.787109,0.410156 l 5,-3.5 c 0.270877,-0.188984 0.287375,-0.584009 0.0332,-0.794922 L 77.816406,11.279297 81.792969,8.40625 c 0.258338,-0.1867983 0.278264,-0.5643939 0.04102,-0.7773438 l -5,-4.5 C 76.746416,3.0496961 76.633638,3.0040318 76.515625,3 76.498709,2.99914 76.48176,2.99914 76.464844,3 Z M 77,4.6210938 80.705078,7.9570312 77.021484,10.617188 77,10.597656 Z m 0,7.2812502 3.675781,3.0625 L 77,17.539062 Z"
       id="path756" />
  </g>
  <g
     id="22-22-preferences-desktop-display-randr">
    <rect
       id="rect3832"
       x="0"
       y="-22"
       width="22"
       height="22"
       fill-opacity="0" />
    <path
       d="m 3,-19 h 16 -1 1 c 1,0 2,1 2,2 v 9 0 0 c 0,1 -1,2 -2,2 h -6 c 0.06469,0.329822 -0.240108,0.433265 -0.01841,0.663333 l 0.01417,0.01593 c 0.29278,0.29534 0.692682,0.478899 1.131024,0.478899 0.176852,0 0.320338,0.148907 0.320338,0.332451 v 1.176986 c 0,0.183503 -0.143486,0.33241 -0.320338,0.33241 H 7.87128 c -0.176854,0 -0.320339,-0.148907 -0.320339,-0.332451 v -1.17702 c 0,-0.183543 0.143485,-0.33245 0.320339,-0.33245 0.445933,0 0.851662,-0.189576 1.145783,-0.494812 C 9.238768,-5.566812 8.935188,-5.670178 9,-6 H 3 v 0 C 2,-6 1,-7 1,-8 v -9.004753 C 1,-18.465097 2,-19 3,-19 Z M 2,-9 h 18 v -8 c 0,0 0,-1 -1,-1 v 0 H 3 v 0 c 0,0 -1,0 -1,1 v 0 z m 18,1 H 2 v 0 0 c 0,1 1,1 1,1 h 16 c 1,0 1,-1 1,-1 l -1,1 z"
       id="path64-3"
       style="fill:#1e2431;fill-opacity:1;stroke-width:0.0388573"
       sodipodi:nodetypes="csccscccccccsssssssssccccscccccccccccccsccccsc" />
    <path
       id="path29-5"
       d="m 2.6673107,-15.666658 c -0.1351033,-3e-5 -0.2568593,-0.08142 -0.3085513,-0.206194 -0.05168,-0.124811 -0.023107,-0.26844 0.072368,-0.363974 l 1.3361227,-1.336076 c 0.1310727,-0.126572 0.339388,-0.124767 0.4682467,0.0041 0.1288467,0.128826 0.1306573,0.337163 0.00407,0.468231 l -1.3360821,1.336068 c -0.06264,0.06265 -0.1475787,0.09785 -0.23616,0.09787 z"
       style="fill:#1e2431;fill-opacity:1;fill-rule:nonzero;stroke-width:0.334025" />
    <path
       id="path31-6"
       d="m 2.6669627,-13.666658 c -0.1349633,-1.7e-5 -0.2565913,-0.08132 -0.30823,-0.205979 -0.051627,-0.12467 -0.02308,-0.268172 0.072293,-0.363594 l 3.3368023,-3.336766 c 0.130936,-0.126443 0.339038,-0.12464 0.467757,0.0041 0.128724,0.128694 0.130525,0.336818 0.0041,0.467753 l -3.336837,3.336727 c -0.062573,0.06257 -0.14742,0.09775 -0.2359113,0.09776 z"
       style="fill:#1e2431;fill-opacity:1;fill-rule:nonzero;stroke-width:0.333681" />
    <path
       id="path29-2-2"
       d="m 17.992801,-9.666686 c -0.133826,-0.0019 -0.253281,-0.0859 -0.302722,-0.21261 -0.04943,-0.126751 -0.01909,-0.27134 0.07683,-0.366413 l 1.342386,-1.329604 c 0.131624,-0.125894 0.337946,-0.121071 0.463766,0.01085 0.125807,0.131914 0.124655,0.34227 -0.0026,0.472766 l -1.34235,1.329592 c -0.06293,0.06235 -0.147567,0.09667 -0.235312,0.09541 z"
       style="fill:#1e2431;fill-opacity:1;fill-rule:nonzero;stroke-width:0.334064"
       inkscape:transform-center-x="2.0858341"
       inkscape:transform-center-y="-2.3438431" />
    <path
       id="path31-7-9"
       d="m 15.995535,-9.714587 c -0.13495,-0.0019 -0.255405,-0.08497 -0.30526,-0.210356 -0.04984,-0.125394 -0.01925,-0.268474 0.07747,-0.362525 l 3.384076,-3.288811 c 0.132728,-0.124563 0.340782,-0.11979 0.467652,0.01074 0.126875,0.130518 0.125706,0.338646 -0.0025,0.467764 l -3.384111,3.288772 c -0.06346,0.06167 -0.1488,0.09563 -0.237282,0.09439 z"
       style="fill:#1e2431;fill-opacity:1;fill-rule:nonzero;stroke-width:0.333681" />
  </g>
  <g
     id="preferences-system-bluetooth-activated"
     transform="translate(-96)"
     style="fill:#1e2431;fill-opacity:1">
    <rect
       style="opacity:0.00100002;fill:#1e2431;fill-opacity:1"
       width="32"
       height="32"
       x="0"
       y="0"
       id="rect776" />
    <path
       style="color:#eff0f1;opacity:1;fill:#1e2431;fill-opacity:1"
       class="ColorScheme-Text"
       d="M 15.509766,4 A 0.50005,0.50005 0 0 0 15,4.5 v 9.685547 L 9.8085938,10.107422 A 0.50005,0.50005 0 1 0 9.1914062,10.892578 L 15,15.457031 v 1.5 L 9.2089844,21.09375 a 0.50005,0.50005 0 1 0 0.5820312,0.8125 L 15,18.185547 V 27.5 a 0.50005,0.50005 0 0 0 0.798828,0.400391 l 8,-6 a 0.50005,0.50005 0 0 0 0.0098,-0.792969 l -6.142578,-4.826172 6.125,-4.375 a 0.50005,0.50005 0 0 0 0.03711,-0.783203 l -8,-7.0000001 A 0.50005,0.50005 0 0 0 15.509766,4 Z M 16,5.6035156 22.695312,11.460938 16.847656,15.638672 16,14.972656 Z M 8,15 a 1,1 0 0 0 -1,1 1,1 0 0 0 1,1 1,1 0 0 0 1,-1 1,1 0 0 0 -1,-1 z m 17,0 a 1,1 0 0 0 -1,1 1,1 0 0 0 1,1 1,1 0 0 0 1,-1 1,1 0 0 0 -1,-1 z m -8.179688,1.886719 5.859376,4.603515 L 16,26.5 v -9.029297 z"
       id="path778" />
  </g>
  <g
     id="preferences-system-bluetooth"
     transform="translate(-64)"
     style="fill:#1e2431;fill-opacity:1">
    <rect
       style="opacity:0.00100002;fill:#1e2431;fill-opacity:1"
       width="32"
       height="32"
       x="0"
       y="0"
       id="rect781" />
    <path
       style="color:#eff0f1;opacity:1;fill:#1e2431;fill-opacity:1"
       class="ColorScheme-Text"
       d="M 15.509766,4 C 15.229829,3.9945598 14.999975,4.2200103 15,4.5 v 9.685547 L 9.8085938,10.107422 C 9.2796666,9.6442523 8.6164238,10.487998 9.1914062,10.892578 L 15,15.457031 v 1.5 L 9.2089844,21.09375 c -0.575846,0.382054 0.035017,1.234802 0.5820312,0.8125 L 15,18.185547 V 27.5 c 4.81e-4,0.411075 0.469199,0.646007 0.798828,0.400391 l 8,-6 c 0.262955,-0.19693 0.267808,-0.589601 0.0098,-0.792969 l -6.142578,-4.826172 6.125,-4.375 c 0.262046,-0.188013 0.280205,-0.571256 0.03711,-0.783203 l -8,-7.0000001 C 15.739746,4.045956 15.627044,4.0024012 15.509766,4 Z M 16,5.6035156 22.695312,11.460938 16.847656,15.638672 16,14.972656 Z M 16.820312,16.886719 22.679688,21.490234 16,26.5 v -9.029297 z"
       id="path783" />
  </g>
  <g
     id="preferences-system-bluetooth-inactive"
     transform="translate(-32)"
     style="fill:#1e2431;fill-opacity:1">
    <rect
       style="opacity:0.00100002;fill:#1e2431;fill-opacity:1"
       width="32"
       height="32"
       x="0"
       y="0"
       id="rect786" />
    <path
       style="color:#eff0f1;opacity:0.5;fill:#1e2431;fill-opacity:1"
       class="ColorScheme-Text"
       d="M 15.509766,4 C 15.229829,3.9945598 14.999975,4.2200103 15,4.5 v 9.685547 L 9.8085938,10.107422 C 9.2796666,9.6442523 8.6164238,10.487998 9.1914062,10.892578 L 15,15.457031 v 1.5 L 9.2089844,21.09375 c -0.575846,0.382054 0.035017,1.234802 0.5820312,0.8125 L 15,18.185547 V 27.5 c 4.81e-4,0.411075 0.469199,0.646007 0.798828,0.400391 l 8,-6 c 0.262955,-0.19693 0.267808,-0.589601 0.0098,-0.792969 l -6.142578,-4.826172 6.125,-4.375 c 0.262046,-0.188013 0.280205,-0.571256 0.03711,-0.783203 l -8,-7.0000001 C 15.739746,4.045956 15.627044,4.0024012 15.509766,4 Z M 16,5.6035156 22.695312,11.460938 16.847656,15.638672 16,14.972656 Z M 16.820312,16.886719 22.679688,21.490234 16,26.5 v -9.029297 z"
       id="path788" />
  </g>
  <g
     id="22-22-preferences-system-windows"
     transform="translate(59,-27)"
     style="fill:#1e2431;fill-opacity:1">
    <rect
       style="opacity:0.00100002;fill:#1e2431;fill-opacity:1"
       width="22"
       height="22"
       x="5"
       y="5"
       id="rect734" />
    <path
       style="color:#eff0f1;opacity:1;fill:#1e2431;fill-opacity:1"
       class="ColorScheme-Text"
       d="M 13.5,9 C 13,9 13,9.5 13,9.5 v 8 c 0,0.5 0.5,0.5 0.5,0.5 h 10 c 0,0 0.5,0 0.5,-0.5 v -8 C 24,9 23.5,9 23.5,9 Z m 0.5,2 h 9 v 6 H 14 Z M 7.519531,14 C 7.519531,14 7,14 7,14.5 v 8 C 7,23 7.5,23 7.5,23 h 10 c 0,0 0.5,-0.02 0.5,-0.5 V 19 h -1 v 3 H 8 v -6 h 4 v -2 z"
       id="path736" />
  </g>
  <g
     id="preferences-system-windows"
     transform="translate(64)"
     style="fill:#1e2431;fill-opacity:1">
    <rect
       style="opacity:0.00100002;fill:#1e2431;fill-opacity:1"
       width="32"
       height="32"
       x="0"
       y="0"
       id="rect771" />
    <path
       style="color:#eff0f1;opacity:1;fill:#1e2431;fill-opacity:1"
       class="ColorScheme-Text"
       d="M 12.726562,6 C 11.999291,6 12,6.7226564 12,6.7226562 V 18.277344 C 12,18.999567 12.726563,19 12.726562,19 H 27.273438 C 27.273438,19 28,18.999567 28,18.277344 V 6.7226562 C 28,6.000434 27.273438,6 27.273438,6 Z M 13,8 H 27 V 18 H 13 Z M 3.7265625,13 C 2.9992915,13 3,13.722656 3,13.722656 V 25.277344 C 3,25.999567 3.7265625,26 3.7265625,26 H 18.273438 C 18.273438,26 19,25.999567 19,25.277344 V 20 h -1 v 5 H 4 V 15 h 7 v -2 z"
       id="path773" />
  </g>
  <g
     id="preferences-desktop-notification"
     transform="translate(32)"
     style="fill:#1e2431;fill-opacity:1">
    <rect
       style="opacity:0.00100002;fill:#1e2431;fill-opacity:1"
       width="32"
       height="32"
       x="0"
       y="0"
       id="rect764" />
    <path
       style="color:#d1d5e9;fill:#1e2431;fill-opacity:1;stroke-width:1.3334"
       d="m 14.50815,7.677203 h 2.968887 V 18.19 H 14.50815 Z"
       id="path4645-1-4-5-1"
       inkscape:connector-curvature="0"
       class="ColorScheme-Text" />
    <path
       style="color:#d1d5e9;fill:#1e2431;fill-opacity:1;stroke-width:1.3334"
       d="m 14.70073,21.298141 c 0.362981,-0.33187 0.791123,-0.497738 1.28593,-0.497738 0.512589,0 0.94815,0.165868 1.31111,0.497738 0.36149,0.330389 0.543717,0.777719 0.543717,1.340789 0,0.580673 -0.182227,1.035474 -0.543717,1.368811 -0.36296,0.330388 -0.798521,0.496257 -1.31111,0.496257 -0.494807,0 -0.922949,-0.165869 -1.28593,-0.496257 -0.361481,-0.333337 -0.542217,-0.788138 -0.542217,-1.368811 0,-0.563069 0.180736,-1.0104 0.542217,-1.340789 z"
       id="path7-2-1-76-8"
       inkscape:connector-curvature="0"
       class="ColorScheme-Text" />
    <path
       d="M 24.485296,7.514746 C 22.218814,5.248187 19.205104,4 16,4 12.7949,4 9.781181,5.248187 7.514933,7.514746 5.2481987,9.781306 4,12.794773 4,16.000001 4,19.205236 5.2481987,22.218706 7.514933,24.485265 9.781181,26.75165 12.7949,28 16,28 19.205308,28 22.218814,26.75165 24.485296,24.485265 26.75163,22.218706 28,19.205236 28,16.000001 28,12.794773 26.75163,9.781155 24.485296,7.514746 Z m -1.37029,16.299905 C 20.90547,25.688866 19.123504,26.574873 16,26.551989 12.684021,26.527599 11.454053,25.904669 8.88501,23.814012 6.797585,21.726749 5.448006,18.951947 5.448006,16.000003 5.448006,13.047902 6.840422,9.909574 8.88501,8.185016 11.17878,6.169412 13.09067,5.470045 16,5.448002 c 2.951864,-0.02238 4.927587,0.919494 7.115006,2.737209 2.087367,2.087394 3.43699,4.862691 3.43699,7.814792 0,2.951943 -1.349623,5.727406 -3.43699,7.814648 z"
       id="path2-36-912-3-3-35-3-75-2"
       style="color:#d1d5e9;fill:#1e2431;fill-opacity:1;stroke-width:0.0375008"
       sodipodi:nodetypes="cscscscsccscscscsc"
       class="ColorScheme-Text" />
  </g>
</svg>
