<?xml version="1.0" encoding="UTF-8" standalone="no"?>
<svg
   width="32"
   height="32"
   version="1.1"
   id="svg32"
   sodipodi:docname="quassel.svg"
   inkscape:version="1.2.2 (b0a8486541, 2022-12-01)"
   xmlns:inkscape="http://www.inkscape.org/namespaces/inkscape"
   xmlns:sodipodi="http://sodipodi.sourceforge.net/DTD/sodipodi-0.dtd"
   xmlns:xlink="http://www.w3.org/1999/xlink"
   xmlns="http://www.w3.org/2000/svg"
   xmlns:svg="http://www.w3.org/2000/svg"
   xmlns:rdf="http://www.w3.org/1999/02/22-rdf-syntax-ns#"
   xmlns:cc="http://creativecommons.org/ns#"
   xmlns:dc="http://purl.org/dc/elements/1.1/">
  <g
     id="22-22-quassel-inactive"
     transform="translate(64,-22)">
    <rect
       style="opacity:0.00100002"
       width="22"
       height="22"
       x="0"
       y="0"
       id="rect12" />
    <path
       d="m 15.27775,16 -2.58355,2.427925 c -0.93181,0.762767 -2.45652,0.762767 -3.40943,0 L 6.72234,16 H 4.37173 C 3.07997,16 2,15.063732 2,13.989 V 4.941477 C 2,3.884048 3.05884,3 4.37173,3 H 17.62826 C 18.92004,3 20,3.866745 20,4.941477 V 13.989 C 20,15.046428 18.94118,16 17.62826,16 Z M 4.37181,4 C 3.60945,4 3,4.317359 3,4.941415 V 13.989 C 3,14.613056 3.60945,15 4.37181,15 h 2.753 l 2.8589,2.656 c 0.55056,0.450676 1.46122,0.450676 2.01174,0 L 14.87547,15 h 2.75298 C 18.390819,15 19,14.613056 19,13.989 V 4.941538 C 19,4.317483 18.390819,4 17.62845,4 Z"
       fill-rule="evenodd"
       id="path85-3-5"
       sodipodi:nodetypes="ccccsssssssscccccccccccccc"
       style="fill:#1e2431;fill-opacity:0.40064225;stroke-width:0.0342137" />
    <rect
       style="fill:#1e2431;fill-opacity:0.40000001;stroke-width:0.162075"
       width="9"
       height="9.1525412"
       x="-14.1"
       y="-15.652541"
       rx="4.4999995"
       ry="4.5762701"
       transform="matrix(0,-1,-1,0,0,0)"
       id="rect396-2" />
    <path
       style="fill:#ffffff;fill-opacity:0.5;stroke-width:0.162075"
       d="m 11.076186,7.0286794 a 2.6149744,2.571392 0 0 0 -2.6149735,2.5713949 2.6149744,2.571392 0 0 0 2.6149735,2.5713977 2.6149744,2.571392 0 0 0 1.645212,-0.573812 1.4709238,1.4464086 0 0 1 -0.827969,0.25232 1.4709238,1.4464086 0 0 1 -1.470917,-1.446406 1.4709238,1.4464086 0 0 1 1.470917,-1.4464066 1.4709238,1.4464086 0 0 1 1.470926,1.4464066 1.4709238,1.4464086 0 0 1 -0.243843,0.796166 2.6149744,2.571392 0 0 0 0.570713,-1.599732 2.6149744,2.571392 0 0 0 -2.61497,-2.5713776 z"
       id="path404-7" />
  </g>
  <g
     id="quassel-inactive"
     transform="translate(64)">
    <rect
       style="opacity:0.00100002"
       width="32"
       height="32"
       x="0"
       y="0"
       id="rect27" />
    <path
       d="m 21.70365,24 -3.444726,3.141888 c -1.242416,1.144149 -3.275342,1.144149 -4.545888,0 L 10.29644,24 H 7.1623107 C 5.4399528,24 4,22.695584 4,21.083486 V 6.9122156 C 4,5.326072 5.4117745,4 7.1623107,4 H 24.837685 C 26.560044,4 28,5.3001175 28,6.9122156 V 21.083486 C 28,22.669628 26.588235,24 24.837685,24 Z M 7.1624182,5 C 6.1459376,5 5,5.9760386 5,6.9121226 V 21.083393 C 5,22.019477 6.1459376,23 7.1624182,23 h 3.6706528 l 3.811878,3.484 c 0.734084,0.676014 1.948298,0.676014 2.682311,0 L 21.167276,23 h 3.670668 C 25.854409,23 27,22.019661 27,21.083577 V 6.912 C 27,5.9759175 25.854409,5 24.837944,5 Z"
       fill-rule="evenodd"
       id="path85-5"
       sodipodi:nodetypes="ccccsssssssscccccccccccccc"
       style="fill:#1e2431;fill-opacity:0.40000001;stroke-width:0.0483856" />
    <rect
       style="fill:#1e2431;fill-opacity:0.40000001;stroke-width:0.212503"
       width="11.8"
       height="12"
       x="-20.299999"
       y="-22"
       rx="5.9000001"
       ry="5.9999995"
       transform="matrix(0,-1,-1,0,0,0)"
       id="rect396-7" />
    <path
       style="fill:#ffffff;fill-opacity:0.5;stroke-width:0.212503"
       d="m 15.99989,11.028721 a 3.4285217,3.37138 0 0 0 -3.42852,3.371378 3.4285217,3.37138 0 0 0 3.42852,3.371389 3.4285217,3.37138 0 0 0 2.157058,-0.752332 1.9285444,1.8964021 0 0 1 -1.085561,0.33082 1.9285444,1.8964021 0 0 1 -1.928538,-1.896399 1.9285444,1.8964021 0 0 1 1.928538,-1.8964 1.9285444,1.8964021 0 0 1 1.928549,1.8964 1.9285444,1.8964021 0 0 1 -0.319712,1.043863 3.4285217,3.37138 0 0 0 0.748272,-2.097427 3.4285217,3.37138 0 0 0 -3.428517,-3.371367 z"
       id="path404-5" />
  </g>
  <metadata
     id="metadata38">
    <rdf:RDF>
      <cc:Work
         rdf:about="">
        <dc:format>image/svg+xml</dc:format>
        <dc:type
           rdf:resource="http://purl.org/dc/dcmitype/StillImage" />
      </cc:Work>
    </rdf:RDF>
  </metadata>
  <defs
     id="defs36">
    <linearGradient
       xlink:href="#linearGradient4167"
       id="linearGradient4183"
       x1="24.112"
       y1="36.417"
       x2="17.358"
       y2="8.9840002"
       gradientUnits="userSpaceOnUse"
       gradientTransform="matrix(0.63157893,0,0,0.63157893,0.842109,0.21052802)" />
    <linearGradient
       id="linearGradient4167">
      <stop
         style="stop-color:#7d519e;stop-opacity:1;"
         offset="0"
         id="stop12" />
      <stop
         style="stop-color:#a987c2;stop-opacity:1"
         offset="1"
         id="stop14" />
    </linearGradient>
    <linearGradient
       id="oomox"
       x1="0"
       x2="0"
       y1="0"
       y2="1">
      <stop
         offset="0%"
         style="stop-color:#303b3d; stop-opacity:1"
         id="stop18" />
      <stop
         offset="100%"
         style="stop-color:#bc985d; stop-opacity:1"
         id="stop20" />
    </linearGradient>
  </defs>
  <sodipodi:namedview
     pagecolor="#000000"
     bordercolor="#eb0000"
     borderopacity="1"
     objecttolerance="10"
     gridtolerance="10"
     guidetolerance="10"
     inkscape:pageopacity="0"
     inkscape:pageshadow="2"
     inkscape:window-width="1920"
     inkscape:window-height="1002"
     id="namedview34"
     showgrid="true"
     inkscape:zoom="6.9384853"
     inkscape:cx="29.257106"
     inkscape:cy="14.9168"
     inkscape:window-x="0"
     inkscape:window-y="0"
     inkscape:window-maximized="1"
     inkscape:current-layer="svg32"
     inkscape:document-rotation="0"
     inkscape:showpageshadow="false"
     inkscape:pagecheckerboard="true"
     inkscape:lockguides="false"
     inkscape:deskcolor="#000000">
    <inkscape:grid
       type="xygrid"
       id="grid890"
       originx="0"
       originy="0" />
  </sodipodi:namedview>
  <g
     id="quassel">
    <rect
       style="opacity:0.00100002;fill:#e5e9ef;fill-opacity:1"
       width="32"
       height="32"
       x="0"
       y="0"
       id="rect17" />
    <path
       d="m 21.70365,24 -3.444726,3.141888 c -1.242416,1.144149 -3.275342,1.144149 -4.545888,0 L 10.29644,24 H 7.162311 C 5.439953,24 4,22.695584 4,21.083486 V 6.9122156 C 4,5.326072 5.411775,4 7.162311,4 H 24.837685 C 26.560044,4 28,5.3001175 28,6.9122156 V 21.083486 C 28,22.669628 26.588235,24 24.837685,24 Z M 7.162418,5 C 6.145938,5 5,5.9760386 5,6.9121226 V 21.083393 C 5,22.019477 6.145938,23 7.162418,23 h 3.670653 l 3.811878,3.484 c 0.734084,0.676014 1.948298,0.676014 2.682311,0 L 21.167276,23 h 3.670668 C 25.854409,23 27,22.019661 27,21.083577 V 6.912 C 27,5.9759175 25.854409,5 24.837944,5 Z"
       fill-rule="evenodd"
       id="path85"
       sodipodi:nodetypes="ccccsssssssscccccccccccccc"
       style="fill:#1e2431;fill-opacity:1;stroke-width:0.0483856" />
    <rect
       style="fill:#1e2431;fill-opacity:1;stroke-width:0.212503"
       width="11.8"
       height="12"
       x="-20.300001"
       y="-22.000118"
       rx="5.9000001"
       ry="5.9999995"
       transform="matrix(0,-1,-1,0,0,0)"
       id="rect396" />
    <path
       style="fill:#ffffff;fill-opacity:1;stroke-width:0.212503"
       d="m 16.000012,11.028723 a 3.4285217,3.37138 0 0 0 -3.42852,3.371378 3.4285217,3.37138 0 0 0 3.42852,3.371389 3.4285217,3.37138 0 0 0 2.157058,-0.752332 1.9285444,1.8964021 0 0 1 -1.085561,0.33082 1.9285444,1.8964021 0 0 1 -1.928538,-1.896399 1.9285444,1.8964021 0 0 1 1.928538,-1.8964 1.9285444,1.8964021 0 0 1 1.928549,1.8964 1.9285444,1.8964021 0 0 1 -0.319712,1.043863 3.4285217,3.37138 0 0 0 0.748272,-2.097427 3.4285217,3.37138 0 0 0 -3.428517,-3.371367 z"
       id="path404" />
  </g>
  <g
     id="quassel-message"
     transform="translate(64)">
    <rect
       style="opacity:0.00100002;fill:#7390bf;fill-opacity:1"
       width="32"
       height="32"
       x="-32"
       y="0"
       id="rect22-1" />
    <path
       d="m -10.29635,24 -3.444726,3.141888 c -1.242416,1.144149 -3.275343,1.144149 -4.545888,0 L -21.70356,24 h -3.134129 C -26.560047,24 -28,22.695584 -28,21.083486 V 6.912216 C -28,5.326072 -26.588225,4 -24.837689,4 H -7.162315 C -5.439956,4 -4,5.300118 -4,6.912216 v 14.17127 C -4,22.669628 -5.411765,24 -7.162315,24 Z M -24.837582,5 C -25.854062,5 -27,5.976039 -27,6.912123 v 14.17127 C -27,22.019477 -25.854062,23 -24.837582,23 h 3.670654 l 3.811877,3.484 c 0.734084,0.676014 1.948298,0.676014 2.682311,0 L -10.832724,23 h 3.670668 C -6.145591,23 -5,22.019661 -5,21.083577 V 6.912 C -5,5.975918 -6.145591,5 -7.162056,5 Z"
       fill-rule="evenodd"
       id="path85-6"
       sodipodi:nodetypes="ccccsssssssscccccccccccccc"
       style="fill:#7390bf;fill-opacity:1;stroke-width:0.0483856" />
    <rect
       style="fill:#7390bf;fill-opacity:1;stroke-width:0.212503"
       width="11.8"
       height="12"
       x="-20.299999"
       y="10"
       rx="5.9000001"
       ry="5.9999995"
       transform="matrix(0,-1,-1,0,0,0)"
       id="rect396-3" />
    <path
       style="fill:#1e2431;fill-opacity:1;stroke-width:0.212503"
       d="m -16.000108,11.028722 a 3.4285217,3.37138 0 0 0 -3.42852,3.371378 3.4285217,3.37138 0 0 0 3.42852,3.371389 3.4285217,3.37138 0 0 0 2.157058,-0.752332 1.9285444,1.8964021 0 0 1 -1.085561,0.33082 1.9285444,1.8964021 0 0 1 -1.928538,-1.896399 1.9285444,1.8964021 0 0 1 1.928538,-1.8964 1.9285444,1.8964021 0 0 1 1.928549,1.8964 1.9285444,1.8964021 0 0 1 -0.319712,1.043863 3.4285217,3.37138 0 0 0 0.748272,-2.097427 3.4285217,3.37138 0 0 0 -3.428517,-3.371367 z"
       id="path404-6" />
  </g>
  <g
     id="22-22-quassel">
    <rect
       style="opacity:0.00100002;fill:#e5e9ef;fill-opacity:1"
       width="22"
       height="22"
       x="0"
       y="-22"
       id="rect2" />
    <path
       d="m 15.27775,-6 -2.58355,2.427925 c -0.93181,0.762767 -2.45652,0.762767 -3.40943,0 L 6.72234,-6 H 4.37173 C 3.07997,-6 2,-6.936268 2,-8.011 v -9.047523 C 2,-18.115952 3.05884,-19 4.37173,-19 H 17.62826 C 18.92004,-19 20,-18.133255 20,-17.058523 V -8.011 C 20,-6.953572 18.94118,-6 17.62826,-6 Z M 4.37181,-18 C 3.60945,-18 3,-17.682641 3,-17.058585 V -8.011 C 3,-7.386944 3.60945,-7 4.37181,-7 h 2.753 l 2.8589,2.656 c 0.55056,0.450676 1.46122,0.450676 2.01174,0 L 14.87547,-7 h 2.75298 C 18.390819,-7 19,-7.386944 19,-8.011 v -9.047462 C 19,-17.682517 18.390819,-18 17.62845,-18 Z"
       fill-rule="evenodd"
       id="path85-3"
       sodipodi:nodetypes="ccccsssssssscccccccccccccc"
       style="fill:#1e2431;fill-opacity:1;stroke-width:0.0342137" />
    <rect
       style="fill:#1e2431;fill-opacity:1;stroke-width:0.162075"
       width="9"
       height="9.1525412"
       x="7.8999996"
       y="-15.652542"
       rx="4.4999995"
       ry="4.5762696"
       transform="matrix(0,-1,-1,0,0,0)"
       id="rect396-35" />
    <path
       style="fill:#ffffff;fill-opacity:1;stroke-width:0.162075"
       d="m 11.076188,-14.971321 a 2.6149743,2.5713919 0 0 0 -2.614972,2.571396 2.6149743,2.5713919 0 0 0 2.614972,2.571398 2.6149743,2.5713919 0 0 0 1.645214,-0.573812 1.4709236,1.4464085 0 0 1 -0.82797,0.252319 1.4709236,1.4464085 0 0 1 -1.470919,-1.446405 1.4709236,1.4464085 0 0 1 1.470919,-1.446408 1.4709236,1.4464085 0 0 1 1.470927,1.446408 1.4709236,1.4464085 0 0 1 -0.243848,0.796166 2.6149743,2.5713919 0 0 0 0.570716,-1.599732 2.6149743,2.5713919 0 0 0 -2.61497,-2.571377 z"
       id="path404-62" />
  </g>
  <g
     id="22-22-quassel-message"
     transform="translate(64,-22)">
    <rect
       style="opacity:0.00100002;fill:#7390bf;fill-opacity:1"
       width="22"
       height="22"
       x="-32"
       y="0"
       id="rect7" />
    <path
       d="m -16.72225,16 -2.58355,2.427925 c -0.93181,0.762767 -2.45652,0.762767 -3.40943,0 L -25.27766,16 h -2.35061 C -28.92003,16 -30,15.063732 -30,13.989 V 4.941477 C -30,3.884048 -28.94116,3 -27.62827,3 h 13.25653 C -13.07996,3 -12,3.866745 -12,4.941477 V 13.989 C -12,15.046428 -13.05882,16 -14.37174,16 Z M -27.62819,4 C -28.39055,4 -29,4.317359 -29,4.941415 V 13.989 c 0,0.624056 0.60945,1.011 1.37181,1.011 h 2.753 l 2.8589,2.656 c 0.55056,0.450676 1.46122,0.450676 2.01174,0 L -17.12453,15 h 2.75298 C -13.609181,15 -13,14.613056 -13,13.989 V 4.941538 C -13,4.317483 -13.609181,4 -14.37155,4 Z"
       fill-rule="evenodd"
       id="path85-3-3"
       sodipodi:nodetypes="ccccsssssssscccccccccccccc"
       style="fill:#7390bf;fill-opacity:1;stroke-width:0.0342137" />
    <rect
       style="fill:#7390bf;fill-opacity:1;stroke-width:0.162075"
       width="9"
       height="9.1525412"
       x="-14.1"
       y="16.347458"
       rx="4.4999995"
       ry="4.5762701"
       transform="matrix(0,-1,-1,0,0,0)"
       id="rect396-9" />
    <path
       style="fill:#1e2431;fill-opacity:1;stroke-width:0.162075"
       d="m -20.923815,7.0286818 a 2.6149744,2.571392 0 0 0 -2.614972,2.571391 2.6149744,2.571392 0 0 0 2.614972,2.5714002 2.6149744,2.571392 0 0 0 1.645215,-0.57381 1.4709238,1.4464086 0 0 1 -0.827969,0.252316 1.4709238,1.4464086 0 0 1 -1.470918,-1.446404 1.4709238,1.4464086 0 0 1 1.470918,-1.4464042 1.4709238,1.4464086 0 0 1 1.470926,1.4464042 1.4709238,1.4464086 0 0 1 -0.243845,0.796166 2.6149744,2.571392 0 0 0 0.570712,-1.5997282 2.6149744,2.571392 0 0 0 -2.614969,-2.57138 z"
       id="path404-1" />
  </g>
</svg>
