<?xml version="1.0" encoding="UTF-8" standalone="no"?>
<svg
   id="svg"
   width="32"
   height="32"
   version="1.1"
   viewBox="0 0 32 32"
   sodipodi:docname="window.svg"
   inkscape:version="1.2.1 (9c6d41e410, 2022-07-14)"
   xmlns:inkscape="http://www.inkscape.org/namespaces/inkscape"
   xmlns:sodipodi="http://sodipodi.sourceforge.net/DTD/sodipodi-0.dtd"
   xmlns="http://www.w3.org/2000/svg"
   xmlns:svg="http://www.w3.org/2000/svg"
   xmlns:rdf="http://www.w3.org/1999/02/22-rdf-syntax-ns#"
   xmlns:cc="http://creativecommons.org/ns#"
   xmlns:dc="http://purl.org/dc/elements/1.1/">
  <style
     id="current-color-scheme"
     type="text/css">.ColorScheme-Highlight { color:#7580bc; }
.ColorScheme-Text { color:#e5e9ef; }
</style>
  <metadata
     id="metadata60">
    <rdf:RDF>
      <cc:Work
         rdf:about="">
        <dc:format>image/svg+xml</dc:format>
        <dc:type
           rdf:resource="http://purl.org/dc/dcmitype/StillImage" />
      </cc:Work>
    </rdf:RDF>
  </metadata>
  <sodipodi:namedview
     pagecolor="#000000"
     bordercolor="#ff2020"
     borderopacity="1"
     objecttolerance="10"
     gridtolerance="10"
     guidetolerance="10"
     inkscape:pageopacity="0"
     inkscape:pageshadow="2"
     inkscape:window-width="1920"
     inkscape:window-height="1004"
     id="namedview58"
     showgrid="true"
     inkscape:zoom="7.7307004"
     inkscape:cx="24.18927"
     inkscape:cy="23.73653"
     inkscape:window-x="0"
     inkscape:window-y="0"
     inkscape:window-maximized="1"
     inkscape:current-layer="svg"
     inkscape:lockguides="true"
     inkscape:document-rotation="0"
     inkscape:pagecheckerboard="true"
     inkscape:showpageshadow="false"
     inkscape:deskcolor="#000000">
    <inkscape:grid
       type="xygrid"
       id="grid895"
       originx="-22"
       originy="10" />
  </sodipodi:namedview>
  <defs
     id="defs4">
    <linearGradient
       id="linearGradient5606"
       inkscape:swatch="solid">
      <stop
         id="stop5608"
         offset="0"
         style="stop-color:#000000" />
    </linearGradient>
  </defs>
  <g
     id="g1397"
     transform="translate(10,-21.999995)">
    <path
       id="rect838-6"
       d="M 0,0 H 22 V 22 H 0 Z"
       fill="none" />
    <g
       id="g1405"
       transform="translate(-32,31.999995)">
      <path
         id="rect838"
         d="M 0,0 H 22 V 22 H 0 Z"
         fill="none" />
    </g>
  </g>
  <g
     id="window-pin"
     transform="translate(-22,10)">
    <path
       id="rect838-67"
       d="M 0,0 H 22 V 22 H 0 Z"
       fill="none" />
    <polygon
       class="cls-1"
       points="3.47,21.23 2.77,20.53 8.78,13.81 10.19,15.22 "
       id="polygon6"
       style="fill:#1e2431;fill-opacity:1"
       transform="matrix(0.83660771,0,0,0.83660771,0.68259664,1.2388183)" />
    <path
       class="cls-2"
       d="M 12.16922,16.933579 5.066421,9.8307795 A 4.9694498,4.9694498 0 0 1 8.6136377,8.366716 4.5344138,4.5344138 0 0 1 9.8852815,8.5424036 L 12.813408,5.6393749 a 1.2465455,1.2465455 0 0 1 1.673216,-1.6732155 1.1043222,1.1043222 0 0 1 0.351375,0.2426163 l 2.953225,2.9532252 a 1.1043222,1.1043222 0 0 1 0.242617,0.3513752 1.2465455,1.2465455 0 0 1 -1.673216,1.6732154 l -2.903029,2.9281275 a 4.5344138,4.5344138 0 0 1 0.175688,1.296741 4.9694498,4.9694498 0 0 1 -1.464064,3.522119 z"
       id="path8"
       style="opacity:1;fill:#000000;fill-opacity:0.01;stroke:#1e2431;stroke-width:1.67322px;stroke-miterlimit:10;stroke-opacity:1" />
  </g>
  <g
     id="window-unpin"
     transform="translate(-44,10)">
    <path
       id="rect838-6-3"
       d="M 0,0 H 22 V 22 H 0 Z"
       fill="none" />
    <polygon
       class="cls-1"
       points="2.77,20.53 8.78,13.81 10.19,15.22 3.47,21.23 "
       id="polygon6-3"
       style="fill:#556fa6;fill-opacity:1"
       transform="matrix(0.83660769,0,0,0.83660771,0.6825967,1.2388173)" />
    <path
       class="cls-2"
       d="m 12.169217,16.933578 -7.1028004,-7.1028 a 4.9694497,4.9694498 0 0 1 3.5472199,-1.4640626 4.5344137,4.5344138 0 0 1 1.27164,0.175688 l 2.9281305,-2.903029 a 1.2465455,1.2465455 0 0 1 1.67321,-1.673216 1.1043222,1.1043222 0 0 1 0.35138,0.242617 l 2.95322,2.953225 a 1.1043222,1.1043222 0 0 1 0.24262,0.351375 1.2465455,1.2465455 0 0 1 -1.67321,1.6732146 l -2.90303,2.928128 a 4.5344137,4.5344138 0 0 1 0.17568,1.296741 4.9694497,4.9694498 0 0 1 -1.46406,3.522119 z"
       id="path8-6"
       style="fill:none;stroke:#556fa6;stroke-width:1.67322px;stroke-miterlimit:10;stroke-opacity:1" />
  </g>
  <g
     id="window-close"
     transform="translate(-22,10)">
    <rect
       id="rect36"
       style="opacity:0.00100002;fill:#1e2431;fill-opacity:1"
       y="-10"
       x="22"
       height="32"
       width="32" />
    <path
       d="m 38.000054,8.4277564 6.069274,6.0694146 c 0.670448,0.670431 1.757511,0.670431 2.427907,0 0.670466,-0.670422 0.670466,-1.757323 0,-2.427746 l -6.069474,-6.0694173 6.069484,-6.0694231 c 0.670466,-0.67040505 0.670466,-1.7573521 0,-2.4277756 -0.670406,-0.670403 -1.757455,-0.670403 -2.427903,0 l -6.069288,6.0694333 -6.069475,-6.0694392 c -0.670421,-0.6704042 -1.757384,-0.6704042 -2.427775,0 -0.670406,0.6704235 -0.670406,1.75735185 0,2.4277751 l 6.069433,6.0694295 -6.069425,6.0694233 c -0.670407,0.670422 -0.670407,1.757323 0,2.427746 0.670391,0.67043 1.757353,0.67043 2.427774,0 z"
       style="fill:#1e2431;fill-opacity:1;fill-rule:evenodd;stroke:none;stroke-width:1.14438"
       id="path2830" />
  </g>
  <g
     id="22-22-window-close"
     transform="translate(-22,10)">
    <rect
       id="rect18"
       y="0"
       x="54"
       height="22"
       width="22"
       style="opacity:0.00100002;fill:#1e2431;fill-opacity:1" />
    <path
       d="m 65.000074,12.888249 4.720487,4.720661 c 0.52152,0.521447 1.367003,0.521447 1.888395,0 0.52152,-0.521439 0.52152,-1.366805 0,-1.888246 l -4.720702,-4.720655 4.720712,-4.7206627 c 0.52152,-0.5214333 0.52152,-1.3668315 0,-1.8882657 -0.521403,-0.5214324 -1.366873,-0.5214324 -1.888396,0 L 65.000074,9.1117489 60.2794,4.3910744 c -0.52152,-0.5214325 -1.366938,-0.5214325 -1.888278,0 -0.521496,0.5214348 -0.521496,1.3668304 0,1.8882656 l 4.720651,4.720669 -4.720651,4.720659 c -0.521496,0.521441 -0.521496,1.366807 0,1.888247 0.52135,0.521446 1.366768,0.521446 1.888279,0 z"
       style="fill:#1e2431;fill-opacity:1;fill-rule:evenodd;stroke:none;stroke-width:0.890062"
       id="path2834" />
  </g>
  <g
     id="16-16-window-close"
     transform="translate(-22,10)">
    <rect
       id="rect27"
       y="5.8931751"
       x="76"
       height="16"
       width="16"
       style="opacity:0.00100002;fill:#1e2431;fill-opacity:1;stroke-width:1" />
    <path
       d="m 84.00005,15.241923 3.371782,3.371901 c 0.372506,0.372465 0.976427,0.372465 1.348853,0 0.372509,-0.372455 0.372509,-0.97629 0,-1.348745 L 85.34875,13.893183 88.720685,10.52128 c 0.372519,-0.372452 0.372519,-0.9763088 0,-1.3487606 -0.372425,-0.3724525 -0.976334,-0.3724525 -1.348846,0 L 84.00005,12.544423 80.628142,9.1725139 c -0.372508,-0.3724517 -0.976383,-0.3724517 -1.348772,0 -0.372493,0.3724538 -0.372493,0.9763071 0,1.3487621 l 3.371889,3.371907 -3.371889,3.371899 c -0.372493,0.372455 -0.372493,0.97629 0,1.348745 0.372389,0.372465 0.976273,0.372465 1.348772,0 z"
       style="fill:#1e2431;fill-opacity:1;fill-rule:evenodd;stroke:none;stroke-width:0.635758"
       id="path2838" />
  </g>
</svg>
