<?xml version="1.0" encoding="UTF-8" standalone="no"?>
<svg
   width="32"
   height="32"
   version="1.1"
   id="svg34"
   sodipodi:docname="preferences-desktop-feedback.svg"
   inkscape:version="1.2.1 (9c6d41e410, 2022-07-14)"
   xmlns:inkscape="http://www.inkscape.org/namespaces/inkscape"
   xmlns:sodipodi="http://sodipodi.sourceforge.net/DTD/sodipodi-0.dtd"
   xmlns:xlink="http://www.w3.org/1999/xlink"
   xmlns="http://www.w3.org/2000/svg"
   xmlns:svg="http://www.w3.org/2000/svg">
  <sodipodi:namedview
     id="namedview36"
     pagecolor="#ffffff"
     bordercolor="#666666"
     borderopacity="1.0"
     inkscape:showpageshadow="2"
     inkscape:pageopacity="0.0"
     inkscape:pagecheckerboard="0"
     inkscape:deskcolor="#d1d1d1"
     showgrid="false"
     inkscape:zoom="8"
     inkscape:cx="20.0625"
     inkscape:cy="13.1875"
     inkscape:window-width="1920"
     inkscape:window-height="1004"
     inkscape:window-x="0"
     inkscape:window-y="0"
     inkscape:window-maximized="1"
     inkscape:current-layer="svg34" />
  <defs
     id="defs22">
    <linearGradient
       id="A"
       y1="520.798"
       x1="393.571"
       y2="534.798"
       x2="407.571"
       gradientUnits="userSpaceOnUse"
       gradientTransform="translate(-425.56706,-545.39021)">
      <stop
         stop-color="#383e51"
         id="stop2" />
      <stop
         offset="1"
         stop-color="#655c6f"
         stop-opacity="0"
         id="stop4" />
    </linearGradient>
    <linearGradient
       id="B"
       y1="545.798"
       y2="517.798"
       x2="0"
       gradientUnits="userSpaceOnUse"
       gradientTransform="translate(-425.56706,-545.39021)">
      <stop
         stop-color="#197cf1"
         id="stop7" />
      <stop
         offset="1"
         stop-color="#20bcfa"
         id="stop9" />
    </linearGradient>
    <linearGradient
       id="C"
       y1="547.798"
       y2="519.798"
       x2="801.143"
       x1="801.143"
       gradientUnits="userSpaceOnUse"
       gradientTransform="translate(-425.56706,-545.39021)">
      <stop
         stop-color="#42a603"
         id="stop12" />
      <stop
         offset="1"
         stop-color="#78da06"
         id="stop14" />
    </linearGradient>
    <linearGradient
       id="D"
       x1="400.571"
       y1="542.798"
       x2="400.571"
       y2="517.798"
       gradientUnits="userSpaceOnUse"
       gradientTransform="translate(-425.56706,-545.39021)">
      <stop
         stop-color="#7cbaf8"
         id="stop17" />
      <stop
         offset="1"
         stop-color="#f4fcff"
         id="stop19" />
    </linearGradient>
    <linearGradient
       gradientTransform="matrix(0.69997078,0,0,0.69993111,-253.10105,-355.08706)"
       gradientUnits="userSpaceOnUse"
       x2="426.69501"
       y2="499.92099"
       y1="547.67499"
       id="a-6"
       x1="389.32001">
      <stop
         stop-color="#18222a"
         style="stop-color:#1e2b35;stop-opacity:1"
         id="stop216" />
      <stop
         stop-color="#566069"
         offset="1"
         style="stop-color:#6d7983;stop-opacity:1"
         id="stop218" />
    </linearGradient>
    <linearGradient
       id="paint0_linear-3"
       x1="51"
       y1="10"
       x2="11"
       y2="50"
       gradientUnits="userSpaceOnUse"
       gradientTransform="matrix(0.43999763,0,0,0.43999763,-3.245559,-34.797752)">
      <stop
         stop-color="#6EB4D9"
         id="stop229" />
      <stop
         offset="1"
         stop-color="#004E6E"
         id="stop231" />
    </linearGradient>
    <linearGradient
       id="paint1_linear-6"
       x1="8"
       y1="8"
       x2="48"
       y2="48"
       gradientUnits="userSpaceOnUse"
       gradientTransform="matrix(0.43999763,0,0,0.43999763,-3.245559,-34.797752)">
      <stop
         stop-color="#44F0D3"
         id="stop234" />
      <stop
         offset="1"
         stop-color="#3DAEE9"
         id="stop236" />
    </linearGradient>
    <linearGradient
       id="paint2_linear-7"
       x1="43"
       y1="18"
       x2="19.5854"
       y2="-11.2683"
       gradientUnits="userSpaceOnUse"
       gradientTransform="matrix(0.43999763,0,0,0.43999763,2.7510902,3.7867426)">
      <stop
         stop-color="#D1D5D9"
         id="stop239" />
      <stop
         offset="1"
         stop-color="#FCFFFF"
         id="stop241" />
    </linearGradient>
    <linearGradient
       id="paint3_linear-5"
       x1="38"
       y1="25"
       x2="14.02"
       y2="0.020815801"
       gradientUnits="userSpaceOnUse"
       gradientTransform="matrix(0.43999763,0,0,0.43999763,2.7510902,3.7867426)">
      <stop
         stop-color="#D1D5D9"
         id="stop244" />
      <stop
         offset="1"
         stop-color="#FCFFFF"
         id="stop246" />
    </linearGradient>
    <linearGradient
       id="paint4_linear-3"
       x1="33"
       y1="32"
       x2="9.3934402"
       y2="12.3279"
       gradientUnits="userSpaceOnUse"
       gradientTransform="matrix(0.43999763,0,0,0.43999763,2.7510902,3.7867426)">
      <stop
         stop-color="#D1D5D9"
         id="stop249" />
      <stop
         offset="1"
         stop-color="#FCFFFF"
         id="stop251" />
    </linearGradient>
    <linearGradient
       id="paint0_linear-3-3"
       x1="51"
       y1="10"
       x2="11"
       y2="50"
       gradientUnits="userSpaceOnUse"
       gradientTransform="matrix(0.43999763,0,0,0.43999763,81.368236,-32.331272)">
      <stop
         stop-color="#6EB4D9"
         id="stop229-6" />
      <stop
         offset="1"
         stop-color="#004E6E"
         id="stop231-7" />
    </linearGradient>
    <linearGradient
       id="paint1_linear-6-5"
       x1="8"
       y1="8"
       x2="48"
       y2="48"
       gradientUnits="userSpaceOnUse"
       gradientTransform="matrix(0.43999763,0,0,0.43999763,81.368236,-32.331272)">
      <stop
         stop-color="#44F0D3"
         id="stop234-3" />
      <stop
         offset="1"
         stop-color="#3DAEE9"
         id="stop236-5" />
    </linearGradient>
    <linearGradient
       id="paint2_linear-7-6"
       x1="43"
       y1="18"
       x2="19.5854"
       y2="-11.2683"
       gradientUnits="userSpaceOnUse"
       gradientTransform="matrix(0.43999763,0,0,0.43999763,81.368236,-32.331272)">
      <stop
         stop-color="#D1D5D9"
         id="stop239-2" />
      <stop
         offset="1"
         stop-color="#FCFFFF"
         id="stop241-9" />
    </linearGradient>
    <linearGradient
       id="paint3_linear-5-1"
       x1="38"
       y1="25"
       x2="14.02"
       y2="0.020815801"
       gradientUnits="userSpaceOnUse"
       gradientTransform="matrix(0.43999763,0,0,0.43999763,81.368236,-32.331272)">
      <stop
         stop-color="#D1D5D9"
         id="stop244-2" />
      <stop
         offset="1"
         stop-color="#FCFFFF"
         id="stop246-7" />
    </linearGradient>
    <linearGradient
       id="paint4_linear-3-0"
       x1="33"
       y1="32"
       x2="9.3934402"
       y2="12.3279"
       gradientUnits="userSpaceOnUse"
       gradientTransform="matrix(0.43999763,0,0,0.43999763,81.368236,-32.331272)">
      <stop
         stop-color="#D1D5D9"
         id="stop249-9" />
      <stop
         offset="1"
         stop-color="#FCFFFF"
         id="stop251-3" />
    </linearGradient>
    <linearGradient
       inkscape:collect="always"
       xlink:href="#linearGradient930"
       id="linearGradient932"
       x1="-26.023333"
       y1="25.793392"
       x2="-7.0258775"
       y2="5.2383113"
       gradientUnits="userSpaceOnUse"
       gradientTransform="translate(0.00101001)" />
    <linearGradient
       inkscape:collect="always"
       id="linearGradient930">
      <stop
         style="stop-color:#37c8ab;stop-opacity:1"
         offset="0"
         id="stop926" />
      <stop
         style="stop-color:#00a3cc;stop-opacity:1;"
         offset="1"
         id="stop928" />
    </linearGradient>
    <linearGradient
       id="paint0_linear-3-7"
       x1="51"
       y1="10"
       x2="11"
       y2="50"
       gradientUnits="userSpaceOnUse"
       gradientTransform="matrix(0.43999763,0,0,0.43999763,52.626476,-6.3370058)">
      <stop
         stop-color="#6EB4D9"
         id="stop229-9" />
      <stop
         offset="1"
         stop-color="#004E6E"
         id="stop231-2" />
    </linearGradient>
    <linearGradient
       id="paint1_linear-6-0"
       x1="8"
       y1="8"
       x2="48"
       y2="48"
       gradientUnits="userSpaceOnUse"
       gradientTransform="matrix(0.43999763,0,0,0.43999763,52.626476,-6.3370058)">
      <stop
         stop-color="#44F0D3"
         id="stop234-2" />
      <stop
         offset="1"
         stop-color="#3DAEE9"
         id="stop236-3" />
    </linearGradient>
    <linearGradient
       id="paint2_linear-7-7"
       x1="43"
       y1="18"
       x2="19.5854"
       y2="-11.2683"
       gradientUnits="userSpaceOnUse"
       gradientTransform="matrix(0.43999763,0,0,0.43999763,52.626476,-6.3370058)">
      <stop
         stop-color="#D1D5D9"
         id="stop239-5" />
      <stop
         offset="1"
         stop-color="#FCFFFF"
         id="stop241-92" />
    </linearGradient>
    <linearGradient
       id="paint3_linear-5-2"
       x1="38"
       y1="25"
       x2="14.02"
       y2="0.020815801"
       gradientUnits="userSpaceOnUse"
       gradientTransform="matrix(0.43999763,0,0,0.43999763,52.626476,-6.3370058)">
      <stop
         stop-color="#D1D5D9"
         id="stop244-8" />
      <stop
         offset="1"
         stop-color="#FCFFFF"
         id="stop246-9" />
    </linearGradient>
    <linearGradient
       id="paint4_linear-3-7"
       x1="33"
       y1="32"
       x2="9.3934402"
       y2="12.3279"
       gradientUnits="userSpaceOnUse"
       gradientTransform="matrix(0.43999763,0,0,0.43999763,52.626476,-6.3370058)">
      <stop
         stop-color="#D1D5D9"
         id="stop249-3" />
      <stop
         offset="1"
         stop-color="#FCFFFF"
         id="stop251-6" />
    </linearGradient>
    <linearGradient
       inkscape:collect="always"
       xlink:href="#paint0_linear-3"
       id="linearGradient2145"
       gradientUnits="userSpaceOnUse"
       gradientTransform="matrix(0.43999763,0,0,0.43999763,3.480021,4.480016)"
       x1="51"
       y1="10"
       x2="11"
       y2="50" />
    <linearGradient
       inkscape:collect="always"
       xlink:href="#paint1_linear-6"
       id="linearGradient2147"
       gradientUnits="userSpaceOnUse"
       gradientTransform="matrix(0.43999763,0,0,0.43999763,3.480021,4.480016)"
       x1="8"
       y1="8"
       x2="48"
       y2="48" />
    <linearGradient
       inkscape:collect="always"
       xlink:href="#A"
       id="linearGradient2149"
       gradientUnits="userSpaceOnUse"
       gradientTransform="matrix(0.6845426,0,0,0.6845426,-259.075,-345.97156)"
       x1="393.571"
       y1="520.798"
       x2="407.571"
       y2="534.798" />
    <linearGradient
       inkscape:collect="always"
       xlink:href="#D"
       id="linearGradient2151"
       gradientUnits="userSpaceOnUse"
       gradientTransform="matrix(0.6845426,0,0,0.6845426,-259.075,-345.97156)"
       x1="400.571"
       y1="542.798"
       x2="400.571"
       y2="517.798" />
  </defs>
  <rect
     width="27.998837"
     x="-29.99959"
     y="2.0026267"
     rx="13.999418"
     height="27.99725"
     transform="scale(-1,1)"
     id="rect223"
     ry="13.998625"
     style="fill:url(#linearGradient932);fill-opacity:1" />
  <path
     style="display:inline;overflow:visible;opacity:0.3;fill:#000000;fill-opacity:1;stroke-width:1.95987;stroke-opacity:0.55"
     d="M 2.0084,15.651314 C 2.0057,15.767998 2,15.884016 2,16.001367 2.000003,23.756663 8.24376,30 15.999381,30 c 7.755626,0 13.999475,-6.243337 13.999475,-13.998633 0,-0.117351 -0.0053,-0.232702 -0.0084,-0.350053 -0.184865,7.59214 -6.355795,13.648648 -13.991068,13.648648 -7.638076,0 -13.806207,-6.056508 -13.990979,-13.648648"
     id="path225" />
  <path
     d="M 2.0084,16.348686 C 2.0057,16.232002 2,16.116651 2,15.998633 2.000003,8.2434032 8.24376,2 15.999381,2 c 7.755626,0 13.999475,6.2434032 13.999475,13.998633 0,0.117351 -0.0053,0.233369 -0.0084,0.350053 C 29.805591,8.7565476 23.634661,2.7000384 15.999388,2.7000384 c -7.638076,0 -13.806207,6.0565092 -13.990979,13.6486476"
     style="display:inline;overflow:visible;opacity:0.3;fill:#ffffff;fill-opacity:1;stroke-width:1.95987;stroke-opacity:0.55"
     id="path229" />
  <path
     d="m 25.919897,9.75999 c 0,-0.486023 -0.393966,-0.879997 -0.880065,-0.879997 H 9.199985 c -0.486012,0 -0.87999,0.393974 -0.87999,0.879997 v 11.439937 c 0,0.486022 0.393978,0.879997 0.87999,0.879997 h 7.737705 c 0.116697,0 0.228626,0.04636 0.311083,0.128876 l 3.519982,3.519982 c 0.277284,0.27719 0.75113,0.08087 0.75113,-0.311126 v -2.897735 c 0,-0.243007 0.197023,-0.439997 0.439983,-0.439997 h 3.079964 c 0.486099,0 0.880065,-0.393975 0.880065,-0.879997 z"
     id="path209-3"
     style="fill:url(#linearGradient2145);stroke-width:0.439995" />
  <path
     fill-rule="evenodd"
     clip-rule="evenodd"
     d="m 8.319995,20.75993 v 0.439997 c 0,0.486022 0.393978,0.879997 0.87999,0.879997 h 7.737705 c 0.116697,0 0.228626,0.04636 0.311083,0.128876 l 3.519982,3.519982 c 0.277284,0.27719 0.75113,0.08087 0.75113,-0.311126 v -0.439989 c 0,0.391994 -0.473847,0.588309 -0.75113,0.311109 l -3.519982,-3.519977 c -0.08246,-0.0825 -0.194386,-0.128877 -0.311083,-0.128877 H 9.199985 c -0.486012,0 -0.87999,-0.393976 -0.87999,-0.879992 z m 13.19989,1.759991 c 0,-0.243007 0.197023,-0.439997 0.439983,-0.439997 h 3.079964 c 0.486099,0 0.880065,-0.393975 0.880065,-0.879997 V 20.75993 c 0,0.486016 -0.393966,0.879992 -0.880065,0.879992 h -3.079964 c -0.24296,0 -0.439983,0.196987 -0.439983,0.440002 z"
     fill="#000405"
     fill-opacity="0.1"
     id="path211-6"
     style="stroke-width:0.439995" />
  <path
     d="M 7,8.879993 C 7,8.393989 7.393989,8 7.87999,8 h 15.839955 c 0.485923,0 0.879971,0.393989 0.879971,0.879993 v 11.439943 c 0,0.486019 -0.394048,0.879991 -0.879971,0.879991 h -7.737766 c -0.11667,0 -0.228604,0.04637 -0.31109,0.128881 l -3.52,3.519974 c -0.277192,0.2772 -0.751119,0.08087 -0.751119,-0.311124 v -2.897736 c 0,-0.243012 -0.19699,-0.439995 -0.439987,-0.439995 H 7.87999 C 7.393989,21.199927 7,20.805955 7,20.319936 Z"
     id="path213-1"
     style="fill:url(#linearGradient2147);stroke-width:0.439995" />
  <path
     fill-rule="evenodd"
     clip-rule="evenodd"
     d="m 7,19.879937 v 0.439999 c 0,0.486019 0.393989,0.879991 0.87999,0.879991 h 3.079993 c 0.242997,0 0.439986,0.196983 0.439986,0.439995 v -0.439995 c 0,-0.243008 -0.196989,-0.439997 -0.439986,-0.439997 H 7.87999 C 7.393989,20.75993 7,20.365954 7,19.879937 Z m 4.39997,4.21772 v 0.440001 c 0,0.391993 0.473927,0.588324 0.751119,0.311124 l 3.52,-3.519974 c 0.08249,-0.08251 0.19442,-0.128881 0.31109,-0.128881 h 7.737766 c 0.485923,0 0.879971,-0.393972 0.879971,-0.879991 v -0.439999 c 0,0.486017 -0.394048,0.879993 -0.879971,0.879993 h -7.737766 c -0.11667,0 -0.228604,0.04637 -0.31109,0.128874 l -3.52,3.519983 c -0.277192,0.277199 -0.751119,0.08087 -0.751119,-0.31113 z"
     fill="#031c5a"
     fill-opacity="0.1"
     id="path215-0"
     style="stroke-width:0.439995" />
  <path
     d="m 8.72558,17.364481 7.776409,7.547759 H 24.71649 V 14.644098 L 24.03195,13.95956 h -0.684538 l -2.053627,-2.053628 v 2.053628 h -3.422712 l -2.05363,-2.053628 v 2.053628 h -3.422711 l -2.05363,-2.053628 z"
     opacity="0.2"
     fill="url(#A)"
     fill-rule="evenodd"
     id="path28-3-6"
     style="fill:url(#linearGradient2149);stroke-width:0.684539" />
  <path
     d="m 10.341102,11.89224 -0.826249,1.772966 -1.911923,0.294354 1.38483,1.43206 -0.318311,1.977646 1.670969,-0.930287 1.670973,0.930287 -0.318318,-1.977646 1.384833,-1.43206 -1.911935,-0.294354 z m 2.738169,2.06732 1.384834,1.43206 -0.318314,1.977646 1.670969,-0.930287 1.67097,0.930287 -0.318319,-1.977646 1.384835,-1.43206 -1.911936,-0.294354 -0.826239,-1.772966 -0.82624,1.772966 z m 5.47634,0 1.384836,1.43206 -0.318314,1.977646 1.670968,-0.930287 1.670969,0.930287 -0.318318,-1.977646 1.384837,-1.43206 -1.911939,-0.294354 -0.82624,-1.772966 -0.826239,1.772966 z"
     id="path30-5-3"
     style="fill:url(#linearGradient2151);stroke-width:0.684539" />
</svg>
