<?xml version="1.0" encoding="UTF-8" standalone="no"?>
<svg
   viewBox="0 0 22 22"
   id="svg6"
   version="1.1"
   sodipodi:docname="folder-projects.svg"
   inkscape:version="1.2.1 (9c6d41e410, 2022-07-14)"
   width="22"
   height="22"
   xmlns:inkscape="http://www.inkscape.org/namespaces/inkscape"
   xmlns:sodipodi="http://sodipodi.sourceforge.net/DTD/sodipodi-0.dtd"
   xmlns="http://www.w3.org/2000/svg"
   xmlns:svg="http://www.w3.org/2000/svg">
  <sodipodi:namedview
     id="namedview7"
     pagecolor="#ffffff"
     bordercolor="#666666"
     borderopacity="1.0"
     inkscape:showpageshadow="2"
     inkscape:pageopacity="0.0"
     inkscape:pagecheckerboard="0"
     inkscape:deskcolor="#d1d1d1"
     showgrid="true"
     inkscape:zoom="14.75"
     inkscape:cx="5.6271186"
     inkscape:cy="8.0338983"
     inkscape:window-width="1920"
     inkscape:window-height="1004"
     inkscape:window-x="0"
     inkscape:window-y="0"
     inkscape:window-maximized="1"
     inkscape:current-layer="svg6">
    <inkscape:grid
       type="xygrid"
       id="grid590"
       originx="0"
       originy="0" />
  </sodipodi:namedview>
  <defs
     id="defs3051">
    <style
       type="text/css"
       id="current-color-scheme">.ColorScheme-Text { color:#eff0f1; }
</style>
  </defs>
  <g
     id="g957"
     transform="matrix(-0.00124515,-0.02567144,0.0257542,-0.00124115,0.61045852,19.147717)"
     style="fill:#eff0f1;fill-opacity:1"
     class="ColorScheme-Text">
    <path
       d="m 313.75974,484.91635 c -2.7539,-2.7461 -6.3438,-4.5078 -10.211,-4.9883 l -98.988,-12.379 c -5.3633,-0.66797 -10.727,1.1719 -14.551,4.9961 -3.8164,3.8125 -5.6523,9.1875 -4.9883,14.543 l 12.375,98.996 c 0.48047,3.8594 2.2383,7.4453 4.9961,10.203 l 216.56,216.56 c 30.746,30.746 80.594,30.746 111.34,0 l 0.008,-0.0117 c 14.77,-14.77 23.062,-34.797 23.062,-55.684 0,-20.887 -8.293,-40.914 -23.062,-55.684 -73.922,-73.93 -216.55,-216.55 -216.55,-216.55 z m 197.37,248.11 c 4.6875,7.0977 7.2422,15.48 7.2422,24.125 0,11.602 -4.6016,22.734 -12.809,30.934 -0.008,0.008 -0.008,0.008 -0.0156,0.0156 -14.965,14.96099 -38.074,16.816 -55.055,5.5547 z m -271.62,-149.12 185.61,185.61 18.566,-18.559 -185.61,-185.62 z m 43.312,-43.312 185.61,185.61 18.566,-18.559 -185.62,-185.61 z m -55.137,5.6367 36.023,-36.016 -41.168,-5.1523 z"
       fill-rule="evenodd"
       id="path50"
       style="fill:currentColor;fill-opacity:1"
       class="ColorScheme-Text" />
  </g>
  <path
     fill-rule="evenodd"
     clip-rule="evenodd"
     d="M 4.0047771,9.2416621 C 4.0636216,8.6503097 4.5589161,8.2000708 5.1505287,8.2000708 h 0.5546516 c 0.5916429,0 1.0869172,0.4503861 1.1457323,1.0416193 0.013643,0.1401877 0.1777341,0.2082008 0.2862755,0.1192589 0.4578625,-0.3762915 1.1250207,-0.3428805 1.5432341,0.07739 l 0.3922705,0.394094 c 0.418271,0.420139 0.451548,1.090375 0.077036,1.550329 -0.088848,0.109135 -0.02079,0.273674 0.1187181,0.287664 0.5885886,0.05906 1.0369232,0.556712 1.0369232,1.151004 v 0.557275 c 0,0.594248 -0.4481719,1.091754 -1.0368228,1.150906 -0.1395399,0.0138 -0.2075731,0.178574 -0.1186257,0.287587 0.3744745,0.45997 0.3412632,1.130158 -0.077034,1.550381 L 8.6806199,16.761643 C 8.2622928,17.181864 7.5951574,17.215269 7.1372317,16.838953 7.0288543,16.749603 6.8647853,16.818013 6.8508584,16.958198 6.7921594,17.549576 6.2967829,18 5.7051472,18 H 5.1505994 C 4.5590412,18 4.0636769,17.549744 4.0047637,16.958317 3.9911727,16.818152 3.8270149,16.749804 3.7182292,16.839079 3.2603298,17.215405 2.5930595,17.182044 2.1747013,16.761751 L 1.7825635,16.3679 C 1.3642837,15.947605 1.3310713,15.2773 1.7055651,14.817373 1.7944186,14.708238 1.7262951,14.54359 1.5868684,14.529584 0.99821534,14.470513 0.55,13.972916 0.55,13.378607 v -0.557066 c 0,-0.594398 0.4483619,-1.09193 1.0369636,-1.151114 0.1398122,-0.01368 0.2076061,-0.178815 0.1187195,-0.28789 C 1.3310468,10.922597 1.3643542,10.25232 1.7827041,9.832089 L 2.1748637,9.4381094 c 0.418259,-0.4202656 1.0855142,-0.4536135 1.5433949,-0.077397 0.1086354,0.089272 0.2724635,0.02086 0.2864102,-0.11919 z m 1.1457516,-0.061396 c -0.090531,0 -0.1661125,0.068803 -0.1751228,0.1589627 -0.091262,0.9183502 -1.1639505,1.3643972 -1.8747841,0.7800722 -0.069704,-0.05761 -0.1721178,-0.05201 -0.2357652,0.01146 l -0.3921857,0.393964 c -0.064398,0.06462 -0.069011,0.166593 -0.011444,0.236873 0.5817719,0.71432 0.1374129,1.791672 -0.7766556,1.883551 -0.089948,0.0095 -0.1585507,0.08525 -0.1585507,0.175812 v 0.557154 c 0,0.09092 0.068548,0.166834 0.1585507,0.175802 0.9141462,0.09184 1.3582239,1.169306 0.7765755,1.883528 -0.057404,0.07002 -0.051823,0.172879 0.011347,0.236879 l 0.3921364,0.393884 c 0.063988,0.06434 0.1658415,0.06932 0.2360177,0.01163 0.7109065,-0.584381 1.7835586,-0.138336 1.875013,0.780111 0.00888,0.09035 0.084471,0.159198 0.1750239,0.159198 h 0.5546195 c 0.090183,0 0.1661008,-0.06877 0.1750197,-0.159198 0.091292,-0.918139 1.1637903,-1.364725 1.874853,-0.780231 0.069702,0.05757 0.1717898,0.05197 0.2357641,-0.01163 l 0.3922663,-0.394051 c 0.063888,-0.06458 0.069004,-0.166596 0.011433,-0.236853 -0.5816841,-0.714122 -0.1376575,-1.79147 0.776511,-1.883337 0.089983,-0.0095 0.1582695,-0.08494 0.1582695,-0.175808 v -0.55734 c 0,-0.09095 -0.068576,-0.166852 -0.158577,-0.175828 -0.9139488,-0.09174 -1.3582541,-1.16911 -0.776564,-1.883383 0.057405,-0.07002 0.051833,-0.172577 -0.011478,-0.236866 L 7.9905138,10.130562 C 7.9260944,10.065882 7.8246743,10.061474 7.7547373,10.119012 7.043783,10.703391 5.9713861,10.257051 5.8800879,9.3388829 5.8713715,9.2489677 5.7955083,9.1802072 5.7051524,9.1802072 Z"
     id="path1293-6-5"
     style="fill:currentColor;fill-opacity:1;stroke-width:0.488871"
     class="ColorScheme-Text" />
  <path
     fill-rule="evenodd"
     clip-rule="evenodd"
     d="m 5.4276941,12.120002 c -0.5387606,0 -0.97551,0.438755 -0.97551,0.97998 0,0.541201 0.4367494,0.979982 0.97551,0.979982 0.5387636,0 0.9755243,-0.438781 0.9755243,-0.979982 0,-0.541225 -0.4367607,-0.97998 -0.9755243,-0.97998 z m -1.9510345,0.97998 c 0,-1.082478 0.8734831,-1.959964 1.9510345,-1.959964 1.0775457,0 1.951045,0.877486 1.951045,1.959964 0,1.082396 -0.8734993,1.959968 -1.951045,1.959968 -1.0775514,0 -1.9510345,-0.877572 -1.9510345,-1.959968 z"
     id="path1295-7-3"
     style="fill:currentColor;fill-opacity:1;stroke-width:0.488871"
     class="ColorScheme-Text" />
</svg>
