<?xml version="1.0" encoding="UTF-8" standalone="no"?>
<svg
   style="isolation:isolate"
   viewBox="0 0 36 36"
   width="36pt"
   height="36pt"
   version="1.1"
   id="svg9"
   sodipodi:docname="suspend.svg"
   inkscape:version="1.2.1 (9c6d41e410, 2022-07-14)"
   xmlns:inkscape="http://www.inkscape.org/namespaces/inkscape"
   xmlns:sodipodi="http://sodipodi.sourceforge.net/DTD/sodipodi-0.dtd"
   xmlns="http://www.w3.org/2000/svg"
   xmlns:svg="http://www.w3.org/2000/svg"
   xmlns:rdf="http://www.w3.org/1999/02/22-rdf-syntax-ns#"
   xmlns:cc="http://creativecommons.org/ns#"
   xmlns:dc="http://purl.org/dc/elements/1.1/">
  <metadata
     id="metadata15">
    <rdf:RDF>
      <cc:Work
         rdf:about="">
        <dc:format>image/svg+xml</dc:format>
        <dc:type
           rdf:resource="http://purl.org/dc/dcmitype/StillImage" />
      </cc:Work>
    </rdf:RDF>
  </metadata>
  <defs
     id="defs13" />
  <sodipodi:namedview
     pagecolor="#ffffff"
     bordercolor="#666666"
     borderopacity="1"
     objecttolerance="10"
     gridtolerance="10"
     guidetolerance="10"
     inkscape:pageopacity="0"
     inkscape:pageshadow="2"
     inkscape:window-width="1920"
     inkscape:window-height="1004"
     id="namedview11"
     showgrid="true"
     inkscape:zoom="8.0976802"
     inkscape:cx="-0.61746079"
     inkscape:cy="22.660811"
     inkscape:window-x="0"
     inkscape:window-y="0"
     inkscape:window-maximized="1"
     inkscape:current-layer="svg9"
     inkscape:document-rotation="0"
     inkscape:pagecheckerboard="0"
     inkscape:document-units="pt"
     inkscape:showpageshadow="false"
     inkscape:deskcolor="#d1d1d1">
    <inkscape:grid
       type="xygrid"
       id="grid1063" />
  </sodipodi:namedview>
  <linearGradient
     id="_lgradient_0"
     x1="0"
     y1="0.5"
     x2="1"
     y2="0.5"
     gradientTransform="matrix(33,0,0,33,0.5,0.5)"
     gradientUnits="userSpaceOnUse">
    <stop
       offset="0%"
       stop-opacity="1"
       style="stop-color:#00a9a5"
       id="stop2" />
    <stop
       offset="97.82608695652173%"
       stop-opacity="1"
       style="stop-color:#00a9a5"
       id="stop4" />
  </linearGradient>
  <path
     d="M 18,36 A 18,18 0 1 1 35.999998,18.000002 18.019933,18.019933 0 0 1 18,36 Z M 18,1.812153 A 16.187858,16.187858 0 1 0 34.187863,18.000002 16.205979,16.205979 0 0 0 18,1.812153 Z"
     id="path2592-5"
     class="  ColorScheme-Text"
     style="color:#e5e9ef;fill:#1e2431;fill-opacity:1;stroke-width:1.5" />
  <path
     d="m 9.350521,21.496877 h 2.861986 l -3.759616,5.157584 c -0.238334,0.327135 -0.269144,0.75639 -0.07934,1.11345 0.18884,0.3564 0.5658,0.5808 0.9783,0.58209 h 4.995855 c 0.59121,-0.02415 1.0581,-0.497535 1.0581,-1.073775 0,-0.576225 -0.46689,-1.049715 -1.0581,-1.073775 h -2.859749 l 3.759523,-5.157569 v 6.6e-4 c 0.237886,-0.327795 0.269326,-0.757695 0.0783,-1.114095 -0.190404,-0.35706 -0.56722,-0.581445 -0.979554,-0.581445 H 9.350161 c -0.591074,0.0234 -1.058114,0.49755 -1.058114,1.073775 0,0.576225 0.46704,1.049715 1.058114,1.073115 z"
     id="path5336"
     style="color:#e5e9ef;fill:#1e2431;fill-opacity:1;stroke-width:1.5"
     class="ColorScheme-Text" />
  <path
     d="m 18.96102,9.4344174 h 5.219085 l -6.002971,8.5327346 c -0.208408,0.295755 -0.234974,0.684405 -0.0687,1.00662 0.16504,0.3222 0.49413,0.52506 0.854146,0.52623 h 7.084829 c 0.516226,-0.02175 0.92409,-0.449805 0.92409,-0.97074 0,-0.520935 -0.407864,-0.94899 -0.92409,-0.970155 h -5.227215 l 6.003029,-8.5262696 v -6e-4 c 0.207736,-0.29571 0.23451,-0.6837749 0.0693,-1.0060049 -0.16586,-0.32277 -0.494638,-0.525645 -0.854008,-0.52623 H 18.96168 c -0.51618,0.02145 -0.92406,0.44922 -0.92406,0.9701399 0,0.520965 0.40788,0.94899 0.92406,0.970755 z"
     id="path5338"
     style="color:#e5e9ef;fill:#1e2431;fill-opacity:1;stroke-width:1.5"
     class="ColorScheme-Text" />
</svg>
