<?xml version="1.0" encoding="UTF-8" standalone="no"?>
<svg
   style="isolation:isolate"
   viewBox="0 0 36 36"
   width="36pt"
   height="36pt"
   version="1.1"
   id="svg16"
   sodipodi:docname="system-user-prompt.svg"
   inkscape:version="1.2.1 (9c6d41e410, 2022-07-14)"
   xmlns:inkscape="http://www.inkscape.org/namespaces/inkscape"
   xmlns:sodipodi="http://sodipodi.sourceforge.net/DTD/sodipodi-0.dtd"
   xmlns="http://www.w3.org/2000/svg"
   xmlns:svg="http://www.w3.org/2000/svg"
   xmlns:rdf="http://www.w3.org/1999/02/22-rdf-syntax-ns#"
   xmlns:cc="http://creativecommons.org/ns#"
   xmlns:dc="http://purl.org/dc/elements/1.1/">
  <metadata
     id="metadata22">
    <rdf:RDF>
      <cc:Work
         rdf:about="">
        <dc:format>image/svg+xml</dc:format>
        <dc:type
           rdf:resource="http://purl.org/dc/dcmitype/StillImage" />
      </cc:Work>
    </rdf:RDF>
  </metadata>
  <defs
     id="defs20" />
  <sodipodi:namedview
     pagecolor="#ffffff"
     bordercolor="#666666"
     borderopacity="1"
     objecttolerance="10"
     gridtolerance="10"
     guidetolerance="10"
     inkscape:pageopacity="0"
     inkscape:pageshadow="2"
     inkscape:window-width="1920"
     inkscape:window-height="1004"
     id="namedview18"
     showgrid="true"
     inkscape:zoom="10.933318"
     inkscape:cx="23.780521"
     inkscape:cy="22.4543"
     inkscape:window-x="0"
     inkscape:window-y="0"
     inkscape:window-maximized="1"
     inkscape:current-layer="svg16"
     inkscape:document-rotation="0"
     inkscape:lockguides="false"
     inkscape:pagecheckerboard="0"
     inkscape:document-units="pt"
     inkscape:showpageshadow="false"
     inkscape:deskcolor="#d1d1d1">
    <inkscape:grid
       type="xygrid"
       id="grid1325" />
  </sodipodi:namedview>
  <linearGradient
     id="_lgradient_2"
     x1="0"
     y1="0.5"
     x2="1"
     y2="0.5">
    <stop
       offset="0%"
       stop-opacity="1"
       style="stop-color:#89ddff"
       id="stop2" />
    <stop
       offset="100%"
       stop-opacity="1"
       style="stop-color:#89ddff"
       id="stop4" />
  </linearGradient>
  <linearGradient
     id="_lgradient_3"
     x1="0"
     y1="0.5"
     x2="1"
     y2="0.5"
     gradientTransform="matrix(33,0,0,33,0.5,0.5)"
     gradientUnits="userSpaceOnUse">
    <stop
       offset="0%"
       stop-opacity="1"
       style="stop-color:#89ddff"
       id="stop9" />
    <stop
       offset="100%"
       stop-opacity="1"
       style="stop-color:#89ddff"
       id="stop11" />
  </linearGradient>
  <g
     id="g1194"
     style="fill:#ffffff;stroke-width:2;stroke-linecap:round;stroke-linejoin:round"
     transform="matrix(1.1,0,0,1.1,-0.60000143,-1200.15)" />
  <path
     d="m 9.202585,17.491434 a 0.63255194,0.65575953 0 0 0 -0.191837,0.448227 c 0,0.0216 0,0.04035 -0.0076,0.06195 -0.0076,0.0216 0,0.039 0.0076,0.0591 a 0.63533239,0.65864191 0 0 0 0.191837,0.449682 l 5.100755,5.287854 a 0.69511209,0.72061485 0 0 0 0.982859,-1.018946 L 11.37274,18.720788 h 14.933764 a 0.695117,0.72062003 0 0 0 0,-1.441236 H 11.37274 l 3.913459,-4.0585 a 0.69511209,0.72061485 0 0 0 -0.982858,-1.018961 z"
     id="path3089-3-5"
     style="color:#e5e9ef;isolation:isolate;fill:#1e2431;fill-opacity:1;stroke-width:1.52329"
     class="ColorScheme-Text" />
  <path
     d="M 18.000002,36 A 18,18 0 1 1 36,18.000002 18.019933,18.019933 0 0 1 18.000002,36 Z m 0,-34.1878472 A 16.187858,16.187858 0 1 0 34.187866,18.000002 16.205979,16.205979 0 0 0 18.000002,1.8121528 Z"
     id="path2592-6"
     style="color:#e5e9ef;isolation:isolate;fill:#1e2431;fill-opacity:1;stroke-width:1.5"
     class="ColorScheme-Text" />
</svg>
