<?xml version="1.0" encoding="UTF-8" standalone="no"?>
<svg
   viewBox="0 0 64 64"
   version="1.1"
   id="svg14"
   sodipodi:docname="certificate-server.svg"
   inkscape:version="1.2.1 (9c6d41e410, 2022-07-14)"
   xmlns:inkscape="http://www.inkscape.org/namespaces/inkscape"
   xmlns:sodipodi="http://sodipodi.sourceforge.net/DTD/sodipodi-0.dtd"
   xmlns:xlink="http://www.w3.org/1999/xlink"
   xmlns="http://www.w3.org/2000/svg"
   xmlns:svg="http://www.w3.org/2000/svg"
   xmlns:rdf="http://www.w3.org/1999/02/22-rdf-syntax-ns#"
   xmlns:cc="http://creativecommons.org/ns#"
   xmlns:dc="http://purl.org/dc/elements/1.1/">
  <metadata
     id="metadata18">
    <rdf:RDF>
      <cc:Work
         rdf:about="">
        <dc:format>image/svg+xml</dc:format>
        <dc:type
           rdf:resource="http://purl.org/dc/dcmitype/StillImage" />
      </cc:Work>
    </rdf:RDF>
  </metadata>
  <sodipodi:namedview
     pagecolor="#ffffff"
     bordercolor="#666666"
     borderopacity="1"
     objecttolerance="10"
     gridtolerance="10"
     guidetolerance="10"
     inkscape:pageopacity="0"
     inkscape:pageshadow="2"
     inkscape:window-width="1920"
     inkscape:window-height="1002"
     id="namedview16"
     showgrid="false"
     inkscape:zoom="7.375"
     inkscape:cx="19.186441"
     inkscape:cy="38.305085"
     inkscape:window-x="0"
     inkscape:window-y="0"
     inkscape:window-maximized="1"
     inkscape:current-layer="svg14"
     inkscape:showpageshadow="2"
     inkscape:pagecheckerboard="0"
     inkscape:deskcolor="#d1d1d1">
    <inkscape:grid
       type="xygrid"
       id="grid561" />
  </sodipodi:namedview>
  <defs
     id="defs3051">
    <style
       type="text/css"
       id="current-color-scheme">.ColorScheme-Text { color:#31363b; }
.ColorScheme-Background { color:#eff0f1; }
.ColorScheme-Highlight { color:#3daee9; }
.ColorScheme-ViewText { color:#31363b; }
.ColorScheme-ViewBackground { color:#fcfcfc; }
.ColorScheme-ViewHover { color:#93cee9; }
.ColorScheme-ViewFocus { color:#3daee9; }
.ColorScheme-ButtonText { color:#31363b; }
.ColorScheme-ButtonBackground { color:#eff0f1; }
.ColorScheme-ButtonHover { color:#93cee9; }
.ColorScheme-ButtonFocus { color:#3daee9; }
</style>
    <linearGradient
       inkscape:collect="always"
       id="linearGradient4393">
      <stop
         style="stop-color:#000000;stop-opacity:1;"
         offset="0"
         id="stop4395" />
      <stop
         style="stop-color:#000000;stop-opacity:0;"
         offset="1"
         id="stop4397" />
    </linearGradient>
    <linearGradient
       inkscape:collect="always"
       xlink:href="#linearGradient886"
       id="linearGradient888-3"
       x1="75.75985"
       y1="208.49026"
       x2="91.646347"
       y2="264.21182"
       gradientUnits="userSpaceOnUse"
       gradientTransform="matrix(0.7314896,0,0,0.72862121,-27.03835,-142.51033)" />
    <linearGradient
       inkscape:collect="always"
       id="linearGradient886">
      <stop
         style="stop-color:#6f8a91;stop-opacity:1"
         offset="0"
         id="stop882" />
      <stop
         style="stop-color:#a8cbfe;stop-opacity:1"
         offset="0.48468637"
         id="stop1402" />
      <stop
         style="stop-color:#93a7ac;stop-opacity:1"
         offset="1"
         id="stop884" />
    </linearGradient>
    <filter
       inkscape:collect="always"
       style="color-interpolation-filters:sRGB"
       id="filter1881-6"
       x="-0.09064882"
       width="1.1812976"
       y="-0.40803665"
       height="1.8160733">
      <feGaussianBlur
         inkscape:collect="always"
         stdDeviation="0.85615684"
         id="feGaussianBlur1883-7" />
    </filter>
    <inkscape:path-effect
       effect="fillet_chamfer"
       id="path-effect1331-5"
       is_visible="true"
       lpeversion="1"
       satellites_param="F,0,0,1,0,2.1166667,0,1 @ F,0,0,1,0,2.1166667,0,1 @ F,0,0,1,0,2.1166667,0,1 @ F,0,0,1,0,2.1166667,0,1"
       unit="px"
       method="arc"
       mode="F"
       radius="8"
       chamfer_steps="1"
       flexible="false"
       use_knot_distance="true"
       apply_no_radius="true"
       apply_with_radius="true"
       only_selected="false"
       hide_knots="false"
       nodesatellites_param="F,0,0,1,0,2.1166667,0,1 @ F,0,0,1,0,2.1166667,0,1 @ F,0,0,1,0,2.1166667,0,1 @ F,0,0,1,0,2.1166667,0,1" />
    <linearGradient
       inkscape:collect="always"
       xlink:href="#linearGradient852-5"
       id="linearGradient854-7-3"
       x1="76.788559"
       y1="222.65123"
       x2="92.097359"
       y2="268.94839"
       gradientUnits="userSpaceOnUse"
       gradientTransform="matrix(0.7314896,0,0,0.72862121,-27.07699,-142.51033)" />
    <linearGradient
       inkscape:collect="always"
       id="linearGradient852-5">
      <stop
         style="stop-color:#93a7ac;stop-opacity:1"
         offset="0"
         id="stop848-6" />
      <stop
         style="stop-color:#53676c;stop-opacity:1"
         offset="1"
         id="stop850-2" />
    </linearGradient>
    <linearGradient
       inkscape:collect="always"
       xlink:href="#linearGradient4393"
       id="linearGradient668-3"
       gradientUnits="userSpaceOnUse"
       gradientTransform="matrix(3.6204685,0,0,3.4670854,3.00004,-3596.8227)"
       x1="5"
       y1="1037.3622"
       x2="8"
       y2="1051.3622" />
  </defs>
  <path
     id="rect10-9"
     style="fill:url(#linearGradient888-3);fill-opacity:1;stroke-width:0.119494"
     d="M 6.09675,9.4 C 4.38635,9.4 3,10.78103 3,12.48455 v 3.039 36.01029 c 0,1.70346 1.38635,3.08458 3.09675,3.08458 h 51.80669 c 1.7102,0 3.09648,-1.38111 3.09648,-3.08458 l -0.005,-32.68748 c -0.1316,-1.68954 0.0653,-5.59073 -5.7405,-5.59073 H 28.90739 c 0.0242,0 -1.90964,-1.73503 -3.63108,-2.76927 C 23.90107,9.59262 22.04293,9.4 22.04293,9.4 Z"
     sodipodi:nodetypes="scccscccccccs" />
  <path
     style="opacity:0.309598;fill:#000000;fill-opacity:1;stroke:none;stroke-width:0.144851;stroke-opacity:1;filter:url(#filter1881-6)"
     id="rect873-1"
     width="22.667437"
     height="5.0357642"
     x="46.507095"
     y="222.89639"
     transform="matrix(1.05206,0,0,1.4052333,-43.68288,-292.95827)"
     inkscape:path-effect="#path-effect1331-5"
     d="m 48.623762,222.89639 h 18.434103 a 2.1166667,2.1166667 45 0 1 2.116667,2.11667 v 0.80243 a 2.1166667,2.1166667 135 0 1 -2.116667,2.11667 l -18.434103,0 a 2.1166667,2.1166667 45 0 1 -2.116667,-2.11667 v -0.80243 a 2.1166667,2.1166667 135 0 1 2.116667,-2.11667 z"
     sodipodi:type="rect" />
  <path
     id="rect851-2"
     style="fill:#779197;fill-opacity:1;stroke-width:0.193144"
     d="m 28.84816,16.55348 v 3.05695 h -7.22158 c 3.56696,-0.009 4.52492,-1.0483 7.22158,-3.05695 z m 0,0 h 28.90903 c 1.70351,-0.008 3.23617,1.36199 3.24272,3.05695 H 28.84816 Z M 6.09694,19.61043 h 54.90298 v 30.96333 c 0,1.70172 -1.38628,3.08114 -3.09648,3.08114 H 6.09694 c -1.7104,0 -3.09675,-1.37942 -3.09675,-3.08114 v -27.882 c 0,-1.70181 1.38635,-3.08133 3.09675,-3.08133 z"
     sodipodi:nodetypes="cccccccccccccsccc" />
  <path
     id="rect851-3-7"
     style="fill:url(#linearGradient854-7-3);fill-opacity:1;stroke-width:0.193226"
     d="m 29.20745,17.77076 -0.0784,3.19607 -7.14189,-0.13585 c 3.56704,-0.009 4.52481,-1.04952 7.22143,-3.06022 z m 0,0 h 28.69603 c 1.70347,-0.008 3.0899,1.36335 3.09651,3.06022 L 29.1279,20.96683 Z M 6.09699,20.83098 H 61 V 50.5751 c 0,1.70361 -1.3863,3.08458 -3.09652,3.08457 H 6.09699 C 4.38657,53.65968 3.00022,52.27871 3.00022,50.5751 V 23.9156 c 0,-1.70354 1.38635,-3.08462 3.09677,-3.08462 z"
     sodipodi:nodetypes="cccccccccccsccssc" />
  <path
     style="opacity:0.181;fill:url(#linearGradient668-3);fill-opacity:1;fill-rule:evenodd;stroke:none;stroke-width:3.54294px;stroke-linecap:butt;stroke-linejoin:miter;stroke-opacity:1"
     d="M 6,20.8 31.96374,48.33972 H 60.92748 L 60.99998,20.8 H 6.05878 Z"
     id="path4152-2-5"
     inkscape:connector-curvature="0"
     sodipodi:nodetypes="cccccc" />
  <rect
     style="fill:#ffffff;fill-opacity:0.25;stroke:#e5e9ef;stroke-width:0.580474;stroke-opacity:0.5;paint-order:markers fill stroke"
     id="rect2191"
     width="57.5"
     height="7.2964485e-07"
     x="3.2500217"
     y="47.690216" />
  <rect
     style="fill:#ffffff;fill-opacity:0.5;stroke:#e5e9ef;stroke-width:0.580474;stroke-opacity:0.5;paint-order:markers fill stroke"
     id="rect2191-0-9"
     width="57.5"
     height="7.2964485e-07"
     x="3.2500217"
     y="50.690216" />
  <path
     style="color:#eff0f1;fill:#ffffff;fill-opacity:1;stroke:none"
     d="m 32,26 c -2.77,0 -5,2.23 -5,5 v 5 h -3 v 1 9 H 25.75 38.25 40 V 36 H 38.25 37 v -5 c 0,-2.77 -2.23,-5 -5,-5 z m 0,1 c 2.0775,0 4,1.57625 4,4 v 5 h -8 v -5 c 0,-2.42375 1.92251,-4 4,-4 z m -7,10 h 14 v 8 H 25 Z"
     class="ColorScheme-Background"
     id="path12-3-3" />
</svg>
