<?xml version="1.0" encoding="UTF-8" standalone="no"?>
<!-- Created with Inkscape (http://www.inkscape.org/) -->

<svg
   width="64"
   version="1.1"
   height="64"
   id="svg40"
   sodipodi:docname="user-desktop.svg"
   inkscape:version="1.2.1 (9c6d41e410, 2022-07-14)"
   xmlns:inkscape="http://www.inkscape.org/namespaces/inkscape"
   xmlns:sodipodi="http://sodipodi.sourceforge.net/DTD/sodipodi-0.dtd"
   xmlns:xlink="http://www.w3.org/1999/xlink"
   xmlns="http://www.w3.org/2000/svg"
   xmlns:svg="http://www.w3.org/2000/svg"
   xmlns:rdf="http://www.w3.org/1999/02/22-rdf-syntax-ns#"
   xmlns:cc="http://creativecommons.org/ns#"
   xmlns:dc="http://purl.org/dc/elements/1.1/">
  <metadata
     id="metadata44">
    <rdf:RDF>
      <cc:Work
         rdf:about="">
        <dc:format>image/svg+xml</dc:format>
        <dc:type
           rdf:resource="http://purl.org/dc/dcmitype/StillImage" />
      </cc:Work>
    </rdf:RDF>
  </metadata>
  <sodipodi:namedview
     pagecolor="#ffffff"
     bordercolor="#666666"
     borderopacity="1"
     objecttolerance="10"
     gridtolerance="10"
     guidetolerance="10"
     inkscape:pageopacity="0"
     inkscape:pageshadow="2"
     inkscape:window-width="1920"
     inkscape:window-height="1002"
     id="namedview42"
     showgrid="true"
     inkscape:zoom="14.75"
     inkscape:cx="34.20339"
     inkscape:cy="36.915254"
     inkscape:window-x="0"
     inkscape:window-y="0"
     inkscape:window-maximized="1"
     inkscape:current-layer="layer1"
     inkscape:showpageshadow="2"
     inkscape:pagecheckerboard="0"
     inkscape:deskcolor="#d1d1d1">
    <inkscape:grid
       type="xygrid"
       id="grid898"
       originx="0"
       originy="0" />
  </sodipodi:namedview>
  <defs
     id="defs5455">
    <linearGradient
       inkscape:collect="always"
       xlink:href="#linearGradient886-7"
       id="linearGradient888-4"
       x1="75.75985"
       y1="208.49026"
       x2="91.646347"
       y2="264.21182"
       gradientUnits="userSpaceOnUse"
       gradientTransform="matrix(0.7314896,0,0,0.72862121,357.53308,341.28767)" />
    <linearGradient
       inkscape:collect="always"
       id="linearGradient886-7">
      <stop
         style="stop-color:#028dfd;stop-opacity:1;"
         offset="0"
         id="stop882-6" />
      <stop
         style="stop-color:#729fcf;stop-opacity:1"
         offset="0.48468637"
         id="stop1402-5" />
      <stop
         style="stop-color:#0272cd;stop-opacity:0.85000002;"
         offset="1"
         id="stop884-6" />
    </linearGradient>
    <filter
       inkscape:collect="always"
       style="color-interpolation-filters:sRGB"
       id="filter1881-9"
       x="-0.090648818"
       width="1.1812976"
       y="-0.40803619"
       height="1.8160724">
      <feGaussianBlur
         inkscape:collect="always"
         stdDeviation="0.85615684"
         id="feGaussianBlur1883-3" />
    </filter>
    <inkscape:path-effect
       effect="fillet_chamfer"
       id="path-effect1331-7"
       is_visible="true"
       lpeversion="1"
       satellites_param="F,0,0,1,0,2.1166667,0,1 @ F,0,0,1,0,2.1166667,0,1 @ F,0,0,1,0,2.1166667,0,1 @ F,0,0,1,0,2.1166667,0,1"
       unit="px"
       method="arc"
       mode="F"
       radius="8"
       chamfer_steps="1"
       flexible="false"
       use_knot_distance="true"
       apply_no_radius="true"
       apply_with_radius="true"
       only_selected="false"
       hide_knots="false"
       nodesatellites_param="F,0,0,1,0,2.1166667,0,1 @ F,0,0,1,0,2.1166667,0,1 @ F,0,0,1,0,2.1166667,0,1 @ F,0,0,1,0,2.1166667,0,1" />
    <linearGradient
       inkscape:collect="always"
       xlink:href="#linearGradient852-5"
       id="linearGradient854-7-4"
       x1="46.970482"
       y1="229.90044"
       x2="112.20527"
       y2="264.21182"
       gradientUnits="userSpaceOnUse"
       gradientTransform="matrix(0.7314896,0,0,0.72862121,357.49444,341.28767)" />
    <linearGradient
       inkscape:collect="always"
       id="linearGradient852-5">
      <stop
         style="stop-color:#1ebdca;stop-opacity:1;"
         offset="0"
         id="stop848-2" />
      <stop
         style="stop-color:#0a8bef;stop-opacity:1;"
         offset="1"
         id="stop850-5" />
    </linearGradient>
    <linearGradient
       inkscape:collect="always"
       xlink:href="#linearGradient4393"
       id="linearGradient668"
       gradientUnits="userSpaceOnUse"
       gradientTransform="matrix(3.6204685,0,0,3.2354759,387.57147,-2871.3588)"
       x1="5"
       y1="1037.3622"
       x2="8"
       y2="1051.3622" />
    <linearGradient
       inkscape:collect="always"
       id="linearGradient4393">
      <stop
         style="stop-color:#000000;stop-opacity:1;"
         offset="0"
         id="stop4395" />
      <stop
         style="stop-color:#000000;stop-opacity:0;"
         offset="1"
         id="stop4397" />
    </linearGradient>
  </defs>
  <g
     inkscape:label="Capa 1"
     inkscape:groupmode="layer"
     id="layer1"
     transform="translate(-384.57143,-483.798)">
    <path
       id="rect10-4"
       style="fill:url(#linearGradient888-4);fill-opacity:1;stroke-width:0.119494"
       d="m 390.66818,493.198 c -1.7104,0 -3.09675,1.38103 -3.09675,3.08455 v 3.039 36.01029 c 0,1.70346 1.38635,3.08458 3.09675,3.08458 h 51.80669 c 1.7102,0 3.09648,-1.38111 3.09648,-3.08458 l -0.005,-32.68748 c -0.1316,-1.68954 0.0653,-5.59073 -5.7405,-5.59073 h -26.34703 c 0.0242,0 -1.90964,-1.73503 -3.63108,-2.76927 -1.37524,-0.89374 -3.23338,-1.08636 -3.23338,-1.08636 z"
       sodipodi:nodetypes="scccscccccccs" />
    <path
       style="opacity:0.309598;fill:#000000;fill-opacity:1;stroke:none;stroke-width:0.144851;stroke-opacity:1;filter:url(#filter1881-9)"
       id="rect873-7"
       width="22.667437"
       height="5.0357642"
       x="46.507095"
       y="222.89639"
       transform="matrix(1.05206,0,0,1.4052333,340.88855,190.83973)"
       inkscape:path-effect="#path-effect1331-7"
       d="m 48.623762,222.89639 h 18.434103 a 2.1166667,2.1166667 45 0 1 2.116667,2.11667 v 0.80243 a 2.1166667,2.1166667 135 0 1 -2.116667,2.11667 l -18.434103,0 a 2.1166667,2.1166667 45 0 1 -2.116667,-2.11667 v -0.80243 a 2.1166667,2.1166667 135 0 1 2.116667,-2.11667 z"
       sodipodi:type="rect" />
    <path
       id="rect851-4"
       style="fill:#028cfd;fill-opacity:1;stroke-width:0.193144"
       d="m 413.41959,500.35148 v 3.05695 h -7.22158 c 3.56696,-0.009 4.52492,-1.0483 7.22158,-3.05695 z m 0,0 h 28.90903 c 1.70351,-0.008 3.23617,1.36199 3.24272,3.05695 h -32.15175 z m -22.75122,3.05695 h 54.90298 v 30.96333 c 0,1.70172 -1.38628,3.08114 -3.09648,3.08114 h -51.8065 c -1.7104,0 -3.09675,-1.37942 -3.09675,-3.08114 v -27.882 c 0,-1.70181 1.38635,-3.08133 3.09675,-3.08133 z"
       sodipodi:nodetypes="cccccccccccccsccc" />
    <path
       id="rect851-3-4"
       style="fill:url(#linearGradient854-7-4);fill-opacity:1;stroke-width:0.193226"
       d="m 413.77888,501.56876 -0.0784,3.19607 -7.14189,-0.13585 c 3.56704,-0.009 4.52481,-1.04952 7.22143,-3.06022 z m 0,0 h 28.69603 c 1.70347,-0.008 3.0899,1.36335 3.09651,3.06022 l -31.87209,0.13585 z m -23.11046,3.06022 h 54.90301 v 29.74412 c 0,1.70361 -1.3863,3.08458 -3.09652,3.08457 h -51.80649 c -1.71042,10e-6 -3.09677,-1.38096 -3.09677,-3.08457 v -26.6595 c 0,-1.70354 1.38635,-3.08462 3.09677,-3.08462 z"
       sodipodi:nodetypes="cccccccccccsccssc" />
    <path
       id="rect1409"
       style="fill:#006680;stroke-width:2.02034;stroke-linecap:round;stroke-linejoin:round;fill-opacity:1"
       d="m 445.57143,530.298 v 5 c 0,1.108 -0.86227,2 -1.93333,2 h -54.13334 c -1.07106,0 -1.93333,-0.892 -1.93333,-2 v -5 z"
       sodipodi:nodetypes="csssscc" />
    <path
       id="path1093"
       style="fill:#ffffff;fill-opacity:1;stroke-width:2;stroke-linecap:round;stroke-linejoin:round"
       d="m 415.57143,532.598 a 1,1 0 0 0 -1,1 1,1 0 0 0 1,1 1,1 0 0 0 1,-1 1,1 0 0 0 -1,-1 z m 4,0 a 1,1 0 0 0 -1,1 1,1 0 0 0 1,1 1,1 0 0 0 1,-1 1,1 0 0 0 -1,-1 z" />
    <path
       inkscape:connector-curvature="0"
       id="path4218-3"
       d="m 433.16675,531.9497 c -0.21093,0.14624 -0.48474,0.29627 -0.71632,0.39839 l 0.0976,0.38241 c 0.18798,-0.0597 0.36075,-0.16244 0.57081,-0.29617 v 3.44689 h 0.46869 v -3.93164 h -0.42018 z"
       style="fill:#ffffff;fill-opacity:1;stroke-width:1.32158" />
    <path
       inkscape:connector-curvature="0"
       id="path4220-0"
       d="m 434.43893,532.21351 0.15556,0.39316 c 0.22046,-0.22644 0.54935,-0.32307 0.87788,-0.32307 0.44705,0 0.69478,0.2479 0.69478,0.68389 v 0.0289 c -9.5e-4,0.30676 -0.2044,0.6086 -0.51164,0.94795 l -1.35724,1.50808 0.0596,0.43087 h 2.29981 l 0.0353,-0.40396 h -1.82585 l 1.10952,-1.18497 c 0.43089,-0.46317 0.69481,-0.84015 0.7002,-1.33566 v -0.004 c 0,-0.64628 -0.4524,-1.0718 -1.16883,-1.0718 -0.51156,0 -0.84557,0.13918 -1.06636,0.3447 z"
       style="fill:#ffffff;fill-opacity:1;stroke-width:1.32158" />
    <path
       inkscape:connector-curvature="0"
       id="path4222-7"
       d="m 437.37926,535.946 h 0.54411 v -0.614 h -0.54411 z m 0,-2.41281 h 0.54411 v -0.60867 h -0.54411 z"
       style="fill:#ffffff;fill-opacity:1;stroke-width:1.32158" />
    <path
       inkscape:connector-curvature="0"
       id="path4224-8"
       d="m 440.456,534.79875 c 0,0.47942 -0.35021,0.74324 -0.86716,0.74324 -0.39868,0 -0.67315,-0.13 -0.8725,-0.2854 l -0.1508,0.38242 c 0.14627,0.13915 0.51699,0.3017 1.02865,0.3017 0.76485,0 1.32501,-0.43624 1.32501,-1.13631 0,-0.55484 -0.30666,-0.91034 -0.78622,-1.01799 0.42539,-0.13 0.6893,-0.43626 0.6893,-0.94259 0,-0.63027 -0.54399,-0.97482 -1.12566,-0.97482 -0.54399,0 -0.89408,0.1183 -1.13108,0.3017 l 0.1508,0.38242 c 0.21042,-0.16709 0.517,-0.28046 0.87782,-0.28046 0.46317,0 0.72176,0.1944 0.72176,0.63026 0,0.61933 -0.57091,0.68941 -1.17418,0.68941 v 0.38774 c 0.73251,0 1.31426,0.11387 1.31426,0.81866 z"
       style="fill:#ffffff;fill-opacity:1;stroke-width:1.32158" />
    <path
       inkscape:connector-curvature="0"
       id="path4226-6"
       d="m 443.24636,532.5421 v 1.98198 h -1.31406 z m 0.88877,2.3643 0.037,-0.38232 h -0.48471 v -2.57438 h -0.49015 l -1.72879,2.5529 v 0.4038 h 1.77726 v 0.97492 h 0.44168 v -0.97492 h 0.4471 z"
       style="fill:#ffffff;fill-opacity:1;stroke-width:1.32158" />
    <path
       inkscape:connector-curvature="0"
       style="color:#000000;fill:#ffffff;fill-opacity:1;stroke-width:2.7885"
       id="path2994-8"
       d="m 390.68868,531.121 a 0.46475128,0.46475128 0 0 0 -0.46452,0.46477 0.46475128,0.46475128 0 0 0 0.46452,0.46437 0.46475128,0.46475128 0 0 0 0.46452,-0.46437 0.46475128,0.46475128 0 0 0 -0.46452,-0.46477 z m 2.32389,0 -0.90064,0.72614 1.20554,1.49594 -1.13301,1.133 0.82811,0.82767 1.85886,-1.85885 z m -3.02102,1.85886 a 0.6971267,0.6971267 0 0 0 -0.69712,0.69712 0.6971267,0.6971267 0 0 0 0.69712,0.69713 0.6971267,0.6971267 0 0 0 0.69713,-0.69713 0.6971267,0.6971267 0 0 0 -0.69713,-0.69712 z m 1.39425,2.32389 a 0.6971267,0.6971267 0 0 0 -0.69712,0.69713 0.6971267,0.6971267 0 0 0 0.69712,0.69712 0.6971267,0.6971267 0 0 0 0.69713,-0.69712 0.6971267,0.6971267 0 0 0 -0.69713,-0.69713 z" />
    <path
       style="opacity:0.181;fill:url(#linearGradient668);fill-opacity:1;fill-rule:evenodd;stroke:none;stroke-width:3.42255px;stroke-linecap:butt;stroke-linejoin:miter;stroke-opacity:1"
       d="m 390.57143,504.598 25.96374,25.7 h 28.96374 l 0.0725,-25.7 h -54.9412 z"
       id="path4152-2"
       inkscape:connector-curvature="0"
       sodipodi:nodetypes="cccccc" />
  </g>
</svg>
