<?xml version="1.0" encoding="UTF-8" standalone="no"?>
<svg
   viewBox="0 0 64 64"
   version="1.1"
   id="svg12"
   sodipodi:docname="folder-design.svg"
   inkscape:version="1.2.1 (9c6d41e410, 2022-07-14)"
   xmlns:inkscape="http://www.inkscape.org/namespaces/inkscape"
   xmlns:sodipodi="http://sodipodi.sourceforge.net/DTD/sodipodi-0.dtd"
   xmlns:xlink="http://www.w3.org/1999/xlink"
   xmlns="http://www.w3.org/2000/svg"
   xmlns:svg="http://www.w3.org/2000/svg"
   xmlns:rdf="http://www.w3.org/1999/02/22-rdf-syntax-ns#"
   xmlns:cc="http://creativecommons.org/ns#"
   xmlns:dc="http://purl.org/dc/elements/1.1/">
  <metadata
     id="metadata16">
    <rdf:RDF>
      <cc:Work
         rdf:about="">
        <dc:format>image/svg+xml</dc:format>
        <dc:type
           rdf:resource="http://purl.org/dc/dcmitype/StillImage" />
      </cc:Work>
    </rdf:RDF>
  </metadata>
  <sodipodi:namedview
     pagecolor="#ffffff"
     bordercolor="#666666"
     borderopacity="1"
     objecttolerance="10"
     gridtolerance="10"
     guidetolerance="10"
     inkscape:pageopacity="0"
     inkscape:pageshadow="2"
     inkscape:window-width="1920"
     inkscape:window-height="1004"
     id="namedview14"
     showgrid="true"
     inkscape:zoom="7.375"
     inkscape:cx="27.050848"
     inkscape:cy="37.559322"
     inkscape:window-x="0"
     inkscape:window-y="0"
     inkscape:window-maximized="1"
     inkscape:current-layer="svg12"
     inkscape:showpageshadow="2"
     inkscape:pagecheckerboard="0"
     inkscape:deskcolor="#d1d1d1">
    <inkscape:grid
       type="xygrid"
       id="grid2873" />
  </sodipodi:namedview>
  <defs
     id="defs3051">
    <style
       type="text/css"
       id="current-color-scheme">.ColorScheme-Text { color:#31363b; }
.ColorScheme-Background { color:#eff0f1; }
.ColorScheme-Highlight { color:#3daee9; }
.ColorScheme-ViewText { color:#31363b; }
.ColorScheme-ViewBackground { color:#fcfcfc; }
.ColorScheme-ViewHover { color:#93cee9; }
.ColorScheme-ViewFocus { color:#3daee9; }
.ColorScheme-ButtonText { color:#31363b; }
.ColorScheme-ButtonBackground { color:#eff0f1; }
.ColorScheme-ButtonHover { color:#93cee9; }
.ColorScheme-ButtonFocus { color:#3daee9; }
</style>
    <linearGradient
       inkscape:collect="always"
       id="linearGradient4393">
      <stop
         style="stop-color:#000000;stop-opacity:1;"
         offset="0"
         id="stop4395" />
      <stop
         style="stop-color:#000000;stop-opacity:0;"
         offset="1"
         id="stop4397" />
    </linearGradient>
    <linearGradient
       inkscape:collect="always"
       xlink:href="#linearGradient886"
       id="linearGradient888"
       x1="75.75985"
       y1="208.49026"
       x2="91.646347"
       y2="264.21182"
       gradientUnits="userSpaceOnUse"
       gradientTransform="matrix(0.7314896,0,0,0.72862121,-27.038309,-142.51033)" />
    <linearGradient
       inkscape:collect="always"
       id="linearGradient886">
      <stop
         style="stop-color:#7575ff;stop-opacity:1;"
         offset="0"
         id="stop882" />
      <stop
         style="stop-color:#c6afe9;stop-opacity:1;"
         offset="0.48468637"
         id="stop1402" />
      <stop
         style="stop-color:#5599ff;stop-opacity:1"
         offset="1"
         id="stop884" />
    </linearGradient>
    <filter
       inkscape:collect="always"
       style="color-interpolation-filters:sRGB"
       id="filter1881"
       x="-0.09064882"
       width="1.1812976"
       y="-0.40803665"
       height="1.8160733">
      <feGaussianBlur
         inkscape:collect="always"
         stdDeviation="0.85615684"
         id="feGaussianBlur1883" />
    </filter>
    <inkscape:path-effect
       effect="fillet_chamfer"
       id="path-effect1331"
       is_visible="true"
       lpeversion="1"
       satellites_param="F,0,0,1,0,2.1166667,0,1 @ F,0,0,1,0,2.1166667,0,1 @ F,0,0,1,0,2.1166667,0,1 @ F,0,0,1,0,2.1166667,0,1"
       unit="px"
       method="arc"
       mode="F"
       radius="8"
       chamfer_steps="1"
       flexible="false"
       use_knot_distance="true"
       apply_no_radius="true"
       apply_with_radius="true"
       only_selected="false"
       hide_knots="false"
       nodesatellites_param="F,0,0,1,0,2.1166667,0,1 @ F,0,0,1,0,2.1166667,0,1 @ F,0,0,1,0,2.1166667,0,1 @ F,0,0,1,0,2.1166667,0,1" />
    <linearGradient
       inkscape:collect="always"
       xlink:href="#linearGradient852"
       id="linearGradient854-7"
       x1="76.788559"
       y1="222.65123"
       x2="92.097359"
       y2="268.94839"
       gradientUnits="userSpaceOnUse"
       gradientTransform="matrix(0.7314896,0,0,0.72862121,-27.076949,-142.51033)" />
    <linearGradient
       inkscape:collect="always"
       id="linearGradient852">
      <stop
         style="stop-color:#87aade;stop-opacity:1"
         offset="0"
         id="stop848" />
      <stop
         style="stop-color:#8080ff;stop-opacity:1"
         offset="1"
         id="stop850" />
    </linearGradient>
    <linearGradient
       inkscape:collect="always"
       xlink:href="#linearGradient4393"
       id="linearGradient668-3"
       gradientUnits="userSpaceOnUse"
       gradientTransform="matrix(3.6204685,0,0,3.4670854,3.0000405,-3596.8227)"
       x1="5"
       y1="1037.3622"
       x2="8"
       y2="1051.3622" />
  </defs>
  <path
     id="rect10"
     style="fill:url(#linearGradient888);fill-opacity:1;stroke-width:0.119494"
     d="m 6.0967905,9.4 c -1.7104,0 -3.09675,1.38103 -3.09675,3.08455 v 3.039 36.01029 c 0,1.70346 1.38635,3.08458 3.09675,3.08458 H 57.90348 c 1.7102,0 3.09648,-1.38111 3.09648,-3.08458 l -0.005,-32.68748 c -0.1316,-1.68954 0.0653,-5.59073 -5.7405,-5.59073 H 28.907431 c 0.0242,0 -1.90964,-1.73503 -3.63108,-2.76927 C 23.901111,9.59262 22.042971,9.4 22.042971,9.4 Z"
     sodipodi:nodetypes="scccscccccccs" />
  <path
     style="opacity:0.309598;fill:#000000;fill-opacity:1;stroke:none;stroke-width:0.144851;stroke-opacity:1;filter:url(#filter1881)"
     id="rect873"
     width="22.667437"
     height="5.0357642"
     x="46.507095"
     y="222.89639"
     transform="matrix(1.05206,0,0,1.4052333,-43.682839,-292.95827)"
     inkscape:path-effect="#path-effect1331"
     d="m 48.623762,222.89639 h 18.434103 a 2.1166667,2.1166667 45 0 1 2.116667,2.11667 v 0.80243 a 2.1166667,2.1166667 135 0 1 -2.116667,2.11667 l -18.434103,0 a 2.1166667,2.1166667 45 0 1 -2.116667,-2.11667 v -0.80243 a 2.1166667,2.1166667 135 0 1 2.116667,-2.11667 z"
     sodipodi:type="rect" />
  <path
     id="rect851"
     style="fill:#8080ff;fill-opacity:1;stroke-width:0.193144"
     d="m 28.848201,16.55348 v 3.05695 h -7.22158 c 3.566959,-0.009 4.524919,-1.0483 7.22158,-3.05695 z m 0,0 H 57.75723 c 1.70351,-0.008 3.23617,1.36199 3.24272,3.05695 H 28.848201 Z M 6.0969805,19.61043 H 60.99996 v 30.96333 c 0,1.70172 -1.38628,3.08114 -3.09648,3.08114 H 6.0969805 c -1.7104,0 -3.09675,-1.37942 -3.09675,-3.08114 v -27.882 c 0,-1.70181 1.38635,-3.08133 3.09675,-3.08133 z"
     sodipodi:nodetypes="cccccccccccccsccc" />
  <path
     id="rect851-3"
     style="fill:url(#linearGradient854-7);fill-opacity:1;stroke-width:0.193226"
     d="m 29.207491,17.77076 -0.0784,3.19607 -7.141891,-0.13585 c 3.567041,-0.009 4.524811,-1.04952 7.22143,-3.06022 z m 0,0 H 57.90352 c 1.703469,-0.008 3.0899,1.36335 3.096509,3.06022 L 29.12794,20.96683 Z M 6.0970305,20.83098 H 61.000039 V 50.5751 c 0,1.70361 -1.3863,3.08458 -3.096519,3.08457 H 6.0970305 c -1.71042,1e-5 -3.09677,-1.38096 -3.09677,-3.08457 V 23.9156 c 0,-1.70354 1.38635,-3.08462 3.09677,-3.08462 z"
     sodipodi:nodetypes="cccccccccccsccssc" />
  <rect
     style="fill:#ffffff;fill-opacity:0.25;stroke:#e5e9ef;stroke-width:0.580474;stroke-opacity:0.5;paint-order:markers fill stroke"
     id="rect2191"
     width="57.5"
     height="7.2964485e-07"
     x="3.2500017"
     y="47.690235" />
  <rect
     style="fill:#ffffff;fill-opacity:0.5;stroke:#e5e9ef;stroke-width:0.580474;stroke-opacity:0.5;paint-order:markers fill stroke"
     id="rect2191-0-9"
     width="57.5"
     height="7.2964485e-07"
     x="3.2500017"
     y="50.690235" />
  <path
     style="opacity:0.181;fill:url(#linearGradient668-3);fill-opacity:1;fill-rule:evenodd;stroke:none;stroke-width:3.54294px;stroke-linecap:butt;stroke-linejoin:miter;stroke-opacity:1"
     d="M 6.0000005,20.8 31.96374,48.33972 H 60.92748 L 60.99998,20.8 H 6.0587805 Z"
     id="path4152-2-5"
     inkscape:connector-curvature="0"
     sodipodi:nodetypes="cccccc" />
  <path
     style="color:#232629;fill:#ffffff;fill-opacity:1;stroke:none;stroke-width:0.766643"
     d="m 31.975105,24 c -0.38852,0 -0.70677,0.31364 -0.70677,0.70228 v 0.64233 c -1.25221,0.32152 -2.15323,1.43218 -2.15323,2.7671 0,0.93439 0.44628,1.76613 1.14246,2.28946 0.0748,0.0876 0.11991,0.19847 0.11991,0.322 0,0.0353 2e-5,0.0714 -0.006,0.10475 l -3.09505,6.55992 h -1.28032 c -0.20893,0 -0.38031,0.1684 -0.38031,0.37724 v 0.002 c 0,0.20884 0.17138,0.37743 0.38031,0.37743 h 0.92395 l -2.38991,5.06542 c -0.15038,0.32129 -0.0756,0.69255 0.16037,0.93296 l -0.92093,1.87011 1.45544,-1.57673 c 0.38631,0.10103 0.79956,-0.083 0.97477,-0.45373 l 2.75509,-5.83805 h 2.42117 v 0.50156 c 0,0.31897 0.25974,0.57647 0.58104,0.57647 h 0.0321 c 0.32121,0 0.58245,-0.2575 0.58245,-0.57647 v -0.50156 h 2.47667 l 2.75359,5.83804 c 0.17286,0.37294 0.58911,0.55476 0.97326,0.45373 l 1.45544,1.57673 -0.91786,-1.87012 c 0.23352,-0.2404 0.30917,-0.6094 0.15865,-0.93294 l -2.38977,-5.06544 h 0.86698 c 0.21109,0 0.38034,-0.16858 0.38034,-0.37741 0,-0.20888 -0.16925,-0.37667 -0.38034,-0.3789 h -1.22333 l -3.09349,-6.5598 c -0.006,-0.0335 -0.006,-0.0693 -0.006,-0.10486 0,-0.1213 0.0452,-0.23423 0.11681,-0.3218 0.69645,-0.52349 1.14559,-1.35505 1.14559,-2.28949 0,-1.35316 -0.94346,-2.47753 -2.21011,-2.78203 v -0.62741 c 0,-0.3887 -0.3144,-0.70226 -0.70537,-0.70226 z m 0.67238,2.59039 c 0.59576,0.2503 1.01364,0.83681 1.01364,1.52132 0,0.91203 -0.74106,1.65164 -1.65758,1.65164 -0.92091,0 -1.65757,-0.73961 -1.65757,-1.65164 0,-0.66228 0.39364,-1.22985 0.9613,-1.49285 0.0842,0.29286 0.34469,0.51218 0.66783,0.51218 0.33151,0 0.5975,-0.23259 0.67238,-0.54065 z m -0.65748,5.48479 h 0.0128 0.013 c 0.09,0 0.1692,0.0414 0.21862,0.1049 l 2.45717,5.20776 h -2.12022 v -0.60948 c 0,-0.32124 -0.26122,-0.57946 -0.58247,-0.57946 h -0.0317 c -0.32121,0 -0.58098,0.26048 -0.58098,0.57946 v 0.60948 h -2.06479 l 2.45716,-5.20776 c 0.0524,-0.0649 0.13028,-0.1049 0.22011,-0.1049 z"
     class="ColorScheme-Text"
     id="path8133-5-3" />
</svg>
