<?xml version="1.0" encoding="UTF-8" standalone="no"?>
<svg
   viewBox="0 0 64 64"
   version="1.1"
   id="svg12"
   sodipodi:docname="folder-Relax.svg"
   inkscape:version="1.2.1 (9c6d41e410, 2022-07-14)"
   xmlns:inkscape="http://www.inkscape.org/namespaces/inkscape"
   xmlns:sodipodi="http://sodipodi.sourceforge.net/DTD/sodipodi-0.dtd"
   xmlns:xlink="http://www.w3.org/1999/xlink"
   xmlns="http://www.w3.org/2000/svg"
   xmlns:svg="http://www.w3.org/2000/svg"
   xmlns:rdf="http://www.w3.org/1999/02/22-rdf-syntax-ns#"
   xmlns:cc="http://creativecommons.org/ns#"
   xmlns:dc="http://purl.org/dc/elements/1.1/">
  <metadata
     id="metadata16">
    <rdf:RDF>
      <cc:Work
         rdf:about="">
        <dc:format>image/svg+xml</dc:format>
        <dc:type
           rdf:resource="http://purl.org/dc/dcmitype/StillImage" />
      </cc:Work>
    </rdf:RDF>
  </metadata>
  <sodipodi:namedview
     pagecolor="#ffffff"
     bordercolor="#666666"
     borderopacity="1"
     objecttolerance="10"
     gridtolerance="10"
     guidetolerance="10"
     inkscape:pageopacity="0"
     inkscape:pageshadow="2"
     inkscape:window-width="1920"
     inkscape:window-height="1004"
     id="namedview14"
     showgrid="true"
     inkscape:zoom="10.429825"
     inkscape:cx="9.2523125"
     inkscape:cy="35.619006"
     inkscape:window-x="0"
     inkscape:window-y="0"
     inkscape:window-maximized="1"
     inkscape:current-layer="svg12"
     inkscape:showpageshadow="2"
     inkscape:pagecheckerboard="0"
     inkscape:deskcolor="#d1d1d1">
    <inkscape:grid
       type="xygrid"
       id="grid2873" />
  </sodipodi:namedview>
  <defs
     id="defs3051">
    <style
       type="text/css"
       id="current-color-scheme">.ColorScheme-Text { color:#31363b; }
.ColorScheme-Background { color:#eff0f1; }
.ColorScheme-Highlight { color:#3daee9; }
.ColorScheme-ViewText { color:#31363b; }
.ColorScheme-ViewBackground { color:#fcfcfc; }
.ColorScheme-ViewHover { color:#93cee9; }
.ColorScheme-ViewFocus { color:#3daee9; }
.ColorScheme-ButtonText { color:#31363b; }
.ColorScheme-ButtonBackground { color:#eff0f1; }
.ColorScheme-ButtonHover { color:#93cee9; }
.ColorScheme-ButtonFocus { color:#3daee9; }
</style>
    <linearGradient
       inkscape:collect="always"
       xlink:href="#linearGradient886"
       id="linearGradient888"
       x1="75.75985"
       y1="208.49026"
       x2="91.646347"
       y2="264.21182"
       gradientUnits="userSpaceOnUse"
       gradientTransform="matrix(0.7314896,0,0,0.72862121,-27.03835,-142.51033)" />
    <linearGradient
       inkscape:collect="always"
       id="linearGradient886">
      <stop
         style="stop-color:#779957;stop-opacity:1;"
         offset="0"
         id="stop882" />
      <stop
         style="stop-color:#a3be8c;stop-opacity:1;"
         offset="0.48468637"
         id="stop1402" />
      <stop
         style="stop-color:#62824a;stop-opacity:0.80000001;"
         offset="1"
         id="stop884" />
    </linearGradient>
    <filter
       inkscape:collect="always"
       style="color-interpolation-filters:sRGB"
       id="filter1881"
       x="-0.09064882"
       width="1.1812976"
       y="-0.40803665"
       height="1.8160733">
      <feGaussianBlur
         inkscape:collect="always"
         stdDeviation="0.85615684"
         id="feGaussianBlur1883" />
    </filter>
    <inkscape:path-effect
       effect="fillet_chamfer"
       id="path-effect1331"
       is_visible="true"
       lpeversion="1"
       satellites_param="F,0,0,1,0,2.1166667,0,1 @ F,0,0,1,0,2.1166667,0,1 @ F,0,0,1,0,2.1166667,0,1 @ F,0,0,1,0,2.1166667,0,1"
       unit="px"
       method="arc"
       mode="F"
       radius="8"
       chamfer_steps="1"
       flexible="false"
       use_knot_distance="true"
       apply_no_radius="true"
       apply_with_radius="true"
       only_selected="false"
       hide_knots="false"
       nodesatellites_param="F,0,0,1,0,2.1166667,0,1 @ F,0,0,1,0,2.1166667,0,1 @ F,0,0,1,0,2.1166667,0,1 @ F,0,0,1,0,2.1166667,0,1" />
    <linearGradient
       inkscape:collect="always"
       xlink:href="#linearGradient852"
       id="linearGradient854-7"
       x1="76.788559"
       y1="222.65123"
       x2="112.20527"
       y2="257.34955"
       gradientUnits="userSpaceOnUse"
       gradientTransform="matrix(0.7314896,0,0,0.72862121,-27.07699,-142.51033)" />
    <linearGradient
       inkscape:collect="always"
       id="linearGradient852">
      <stop
         style="stop-color:#a3be8c;stop-opacity:1;"
         offset="0"
         id="stop848" />
      <stop
         style="stop-color:#81a460;stop-opacity:1;"
         offset="1"
         id="stop850" />
    </linearGradient>
    <radialGradient
       cx="64"
       cy="28.059999"
       r="48.890999"
       id="D"
       xlink:href="#6"
       gradientUnits="userSpaceOnUse"
       gradientTransform="matrix(0.22182917,0,0,0.20453814,17.99082,22.103333)" />
    <linearGradient
       id="6">
      <stop
         id="I"
         stop-color="#638000" />
      <stop
         id="J"
         offset="1"
         stop-color="#5b7600" />
    </linearGradient>
    <linearGradient
       inkscape:collect="always"
       xlink:href="#linearGradient4393"
       id="linearGradient668"
       gradientUnits="userSpaceOnUse"
       gradientTransform="matrix(3.6204685,0,0,3.4670854,3.00004,-3596.8227)"
       x1="5"
       y1="1037.3622"
       x2="8"
       y2="1051.3622" />
    <linearGradient
       inkscape:collect="always"
       id="linearGradient4393">
      <stop
         style="stop-color:#000000;stop-opacity:1;"
         offset="0"
         id="stop4395" />
      <stop
         style="stop-color:#000000;stop-opacity:0;"
         offset="1"
         id="stop4397" />
    </linearGradient>
  </defs>
  <path
     id="rect10"
     style="fill:url(#linearGradient888);fill-opacity:1;stroke-width:0.119494"
     d="M 6.09675,9.4 C 4.38635,9.4 3,10.78103 3,12.48455 v 3.039 36.01029 c 0,1.70346 1.38635,3.08458 3.09675,3.08458 h 51.80669 c 1.7102,0 3.09648,-1.38111 3.09648,-3.08458 l -0.005,-32.68748 c -0.1316,-1.68954 0.0653,-5.59073 -5.7405,-5.59073 H 28.90739 c 0.0242,0 -1.90964,-1.73503 -3.63108,-2.76927 C 23.90107,9.59262 22.04293,9.4 22.04293,9.4 Z"
     sodipodi:nodetypes="scccscccccccs" />
  <path
     style="opacity:0.309598;fill:#000000;fill-opacity:1;stroke:none;stroke-width:0.144851;stroke-opacity:1;filter:url(#filter1881)"
     id="rect873"
     width="22.667437"
     height="5.0357642"
     x="46.507095"
     y="222.89639"
     transform="matrix(1.05206,0,0,1.4052333,-43.68288,-292.95827)"
     inkscape:path-effect="#path-effect1331"
     d="m 48.623762,222.89639 h 18.434103 a 2.1166667,2.1166667 45 0 1 2.116667,2.11667 v 0.80243 a 2.1166667,2.1166667 135 0 1 -2.116667,2.11667 l -18.434103,0 a 2.1166667,2.1166667 45 0 1 -2.116667,-2.11667 v -0.80243 a 2.1166667,2.1166667 135 0 1 2.116667,-2.11667 z"
     sodipodi:type="rect" />
  <path
     id="rect851"
     style="fill:#739755;fill-opacity:1;stroke-width:0.193144"
     d="m 28.84816,16.55348 v 3.05695 h -7.22158 c 3.56696,-0.009 4.52492,-1.0483 7.22158,-3.05695 z m 0,0 h 28.90903 c 1.70351,-0.008 3.23617,1.36199 3.24272,3.05695 H 28.84816 Z M 6.09694,19.61043 h 54.90298 v 30.96333 c 0,1.70172 -1.38628,3.08114 -3.09648,3.08114 H 6.09694 c -1.7104,0 -3.09675,-1.37942 -3.09675,-3.08114 v -27.882 c 0,-1.70181 1.38635,-3.08133 3.09675,-3.08133 z"
     sodipodi:nodetypes="cccccccccccccsccc" />
  <path
     id="rect851-3"
     style="fill:url(#linearGradient854-7);fill-opacity:1;stroke-width:0.193226"
     d="m 29.20745,17.77076 -0.0784,3.19607 -7.14189,-0.13585 c 3.56704,-0.009 4.52481,-1.04952 7.22143,-3.06022 z m 0,0 h 28.69603 c 1.70347,-0.008 3.0899,1.36335 3.09651,3.06022 L 29.1279,20.96683 Z M 6.09699,20.83098 H 61 V 50.5751 c 0,1.70361 -1.3863,3.08458 -3.09652,3.08457 H 6.09699 C 4.38657,53.65968 3.00022,52.27871 3.00022,50.5751 V 23.9156 c 0,-1.70354 1.38635,-3.08462 3.09677,-3.08462 z"
     sodipodi:nodetypes="cccccccccccsccssc" />
  <path
     style="opacity:0.181;fill:url(#linearGradient668);fill-opacity:1;fill-rule:evenodd;stroke:none;stroke-width:3.54294px;stroke-linecap:butt;stroke-linejoin:miter;stroke-opacity:1"
     d="M 6,20.8 31.96374,48.33972 H 60.92748 L 60.99998,20.8 H 6.05878 Z"
     id="path4152-2"
     inkscape:connector-curvature="0"
     sodipodi:nodetypes="cccccc" />
  <path
     d="m 32.38254,45.573285 c -0.01265,-0.70484 -0.0288,-1.335541 -0.03585,-1.401569 -0.0065,-0.06602 -0.0241,-0.536643 -0.0377,-1.045831 -0.01362,-0.509181 -0.03919,-0.934648 -0.05666,-0.945485 -0.0175,-0.0113 -0.033,0.0092 -0.03445,0.04535 -0.01268,0.320722 -0.07557,0.475781 -0.163492,0.402812 -0.05855,-0.04854 -0.05621,-0.05474 -0.14084,0.380952 -0.0725,0.373228 -0.109671,0.462562 -0.181015,0.435165 -0.02819,-0.01142 -0.05115,-0.0041 -0.05115,0.01454 0,0.01882 -0.0397,0.04409 -0.08831,0.05632 -0.06745,0.01693 -0.130792,0.104836 -0.267891,0.371742 -0.166586,0.324317 -0.190217,0.353074 -0.327199,0.398279 -0.158874,0.05245 -0.402484,0.321056 -0.526968,0.581078 -0.03595,0.07513 -0.08254,0.136852 -0.1034,0.137076 -0.04137,4.81e-4 -0.306657,0.475147 -0.441985,0.79104 -0.106476,0.248507 -0.103192,0.245856 -0.150869,0.121776 -0.05125,-0.133371 -0.04695,-0.991885 0.0065,-1.239737 0.0355,-0.165499 0.0329,-0.193856 -0.02116,-0.233357 -0.0768,-0.05619 -0.05622,-0.128703 0.129622,-0.457769 0.155735,-0.275694 0.160812,-0.295109 0.08495,-0.324228 -0.02953,-0.01157 -0.05383,-0.04243 -0.05383,-0.06895 0,-0.05538 0.308282,-0.483433 0.407988,-0.566439 0.06075,-0.05053 0.0615,-0.05963 0.0085,-0.103233 -0.09051,-0.07513 -0.07115,-0.126705 0.142311,-0.378364 0.110001,-0.129599 0.186773,-0.235882 0.170713,-0.236185 -0.01605,-1.95e-4 -0.05102,-0.01446 -0.07785,-0.03138 -0.0398,-0.02524 -0.04035,-0.0462 -0.003,-0.116102 0.04453,-0.08334 0.04265,-0.08304 -0.0837,0.01339 -0.07115,0.05429 -0.166844,0.09903 -0.212631,0.09944 -0.0792,7.82e-4 -0.163056,0.03753 -0.532488,0.233784 -0.08897,0.04719 -0.202149,0.08684 -0.251562,0.08798 -0.04939,0.0011 -0.154532,0.04189 -0.233588,0.09055 -0.0791,0.04865 -0.20036,0.113534 -0.269537,0.144064 -0.06921,0.03058 -0.154079,0.07151 -0.188675,0.09088 -0.04283,0.02408 -0.08445,0.02186 -0.130616,-0.0068 -0.05565,-0.03474 -0.119102,-0.02114 -0.355387,0.07649 -0.305966,0.12633 -0.474809,0.129685 -0.475876,0.0091 -9.96e-4,-0.153439 -0.0504,-0.157049 -0.336621,-0.02476 -0.180032,0.08321 -0.318626,0.124626 -0.392776,0.117435 -0.100245,-0.0093 -0.115999,-0.02573 -0.125852,-0.127894 -0.01279,-0.132303 -0.0065,-0.128608 -0.129673,-0.08191 -0.0505,0.0192 -0.227692,0.05183 -0.393896,0.07243 -0.348455,0.04331 -0.489399,0.01161 -0.489399,-0.110532 0,-0.07231 -0.01184,-0.0754 -0.198431,-0.05212 -0.271515,0.03394 -0.412451,-1.99e-4 -0.412692,-0.100246 -1.88e-4,-0.07394 -0.0176,-0.0784 -0.331315,-0.08479 -0.25559,-0.0048 -0.340642,-0.01983 -0.372907,-0.06394 -0.03616,-0.04942 -0.155093,-0.05713 -0.881599,-0.05688 -0.461877,1.8e-4 -0.860642,-0.01287 -0.886142,-0.02886 -0.03122,-0.01967 0.03332,-0.06534 0.197659,-0.139824 0.390333,-0.176982 1.163261,-0.444112 1.348483,-0.466051 0.156369,-0.01848 0.168512,-0.02691 0.149293,-0.103492 -0.02598,-0.103234 0.06943,-0.133787 0.429468,-0.137698 l 0.245723,-0.0024 -0.01868,-0.115643 c -0.0175,-0.108604 -0.01142,-0.117058 0.106917,-0.139186 0.125259,-0.02351 0.355254,-0.0047 0.506206,0.04078 0.0728,0.02207 0.07836,0.01393 0.06445,-0.0954 -0.01872,-0.147691 0.0201,-0.174682 0.251168,-0.174284 0.156832,2e-4 0.242404,0.01349 0.48401,0.07499 0.04011,0.0098 0.05017,-0.0157 0.0417,-0.108236 -0.0065,-0.07313 0.0075,-0.133838 0.0371,-0.15219 0.07576,-0.04804 0.393253,-0.03373 0.551273,0.02478 0.213295,0.07904 0.214196,0.07883 0.202785,-0.04745 -0.0095,-0.114 -0.0065,-0.1168 0.132709,-0.1168 0.07878,0 0.241729,0.03066 0.362092,0.06811 l 0.21883,0.06811 v -0.109177 -0.109207 l 0.253817,0.02359 c 0.139603,0.01299 0.311383,0.04766 0.381728,0.07703 0.16652,0.0696 0.166893,0.0695 0.139119,-0.04124 l -0.02378,-0.09464 0.298377,0.02541 c 0.164105,0.01395 0.345334,0.04847 0.402732,0.07671 0.133604,0.06569 0.138403,0.06489 0.112107,-0.01792 -0.02065,-0.06531 -0.0065,-0.06819 0.258121,-0.05096 0.154061,0.0096 0.326992,0.03308 0.384293,0.05124 0.0573,0.01812 0.128022,0.03302 0.157139,0.03302 0.04509,0 0.04564,-0.0085 0.003,-0.05925 -0.04535,-0.05462 -0.02241,-0.05721 0.292089,-0.03341 0.187687,0.01413 0.381673,0.03253 0.431084,0.04064 0.233283,0.03871 -0.280074,-0.103318 -0.632828,-0.175041 -0.237394,-0.04828 -0.424186,-0.106113 -0.460778,-0.142719 -0.03384,-0.03382 -0.101865,-0.06154 -0.151097,-0.06154 -0.04926,0 -0.260459,-0.0266 -0.469352,-0.05917 -0.304575,-0.04745 -0.383137,-0.07191 -0.396639,-0.123522 -0.0219,-0.08378 -0.189873,-0.140538 -0.419291,-0.141639 -0.36273,-0.0016 -0.695069,-0.139547 -0.645855,-0.267805 0.01289,-0.03351 -0.0461,-0.04676 -0.225568,-0.05066 -0.241334,-0.0049 -0.444783,-0.0452 -0.607055,-0.119088 -0.06755,-0.03077 -0.08075,-0.0583 -0.06525,-0.135951 l 0.0195,-0.09734 -0.285448,-0.0049 c -0.274411,-0.0048 -0.625052,-0.05433 -0.694518,-0.09723 -0.0201,-0.01244 -0.01905,-0.04722 0.003,-0.0879 0.0198,-0.03705 0.03595,-0.07421 0.03595,-0.08266 0,-0.0081 -0.134434,-0.0237 -0.298755,-0.03386 -0.274356,-0.01715 -0.529605,-0.09618 -0.526671,-0.163115 5e-4,-0.0143 0.02485,-0.0574 0.05386,-0.09578 0.02902,-0.03837 0.0528,-0.08047 0.0528,-0.09352 0,-0.01306 -0.128529,-0.03364 -0.285613,-0.04581 -0.294395,-0.02269 -0.540951,-0.09914 -0.540951,-0.167744 0,-0.02149 0.0264,-0.07938 0.05875,-0.128735 0.03236,-0.04934 0.0526,-0.09382 0.04484,-0.09882 -0.0075,-0.0048 -0.135149,-0.03893 -0.283391,-0.07533 -0.297103,-0.07302 -0.539058,-0.181112 -0.539058,-0.240776 0,-0.02121 0.03385,-0.08149 0.07532,-0.134032 0.07136,-0.09054 0.07185,-0.09619 0.0085,-0.108248 -0.159547,-0.03065 -0.676031,-0.225717 -0.699907,-0.264357 -0.0152,-0.02454 0.02045,-0.09573 0.08414,-0.168313 l 0.110446,-0.12578 -0.103937,-0.03811 c -0.0572,-0.02097 -0.18971,-0.08321 -0.29454,-0.138244 -0.156048,-0.08198 -0.186514,-0.11296 -0.16805,-0.171141 0.0178,-0.05635 -0.003,-0.08158 -0.09975,-0.122125 -0.176744,-0.07388 -0.231885,-0.149995 -0.174831,-0.241361 0.02485,-0.03983 0.04012,-0.07588 0.03375,-0.08008 -0.0065,-0.004 -0.121759,-0.06313 -0.256557,-0.130925 -0.134784,-0.06783 -0.277337,-0.153344 -0.316781,-0.190089 -0.0681,-0.06347 -0.06862,-0.07027 -0.0095,-0.135335 0.03407,-0.03766 0.05532,-0.0738 0.04727,-0.08014 -0.0075,-0.0064 -0.139988,-0.08879 -0.293054,-0.183057 -0.232505,-0.143152 -0.275417,-0.184071 -0.260762,-0.248617 0.01395,-0.06184 -0.02345,-0.105926 -0.187787,-0.221031 -0.440073,-0.307642 -0.810909,-0.547416 -1.157868,-0.74821 C 20.162793,34.312655 20,34.205766 20,34.190304 c 0,-0.03792 0.588911,0.105876 0.988287,0.241375 0.177901,0.06033 0.380032,0.120704 0.449213,0.134119 0.06919,0.0134 0.178343,0.05463 0.242584,0.09159 0.06422,0.03698 0.117036,0.05561 0.117343,0.04145 0.002,-0.108384 0.06735,-0.109349 0.324401,-0.0045 0.147335,0.05992 0.301315,0.140416 0.342155,0.178778 0.0992,0.09321 0.120737,0.08849 0.164171,-0.03606 0.0328,-0.09412 0.04674,-0.102081 0.125911,-0.07203 0.23796,0.09045 0.494599,0.238336 0.570759,0.328864 0.0465,0.05528 0.09133,0.100553 0.0994,0.100553 0.0075,0 0.04347,-0.06347 0.07845,-0.141001 0.04695,-0.104214 0.0789,-0.135129 0.122256,-0.118499 0.116086,0.04454 0.358996,0.226188 0.467088,0.349299 l 0.110255,0.125574 0.08495,-0.125052 0.08496,-0.125046 0.176785,0.108965 c 0.09721,0.05992 0.236286,0.175734 0.309016,0.257307 l 0.132235,0.148313 0.07765,-0.131623 0.07765,-0.131625 0.161553,0.111146 c 0.08886,0.06118 0.204635,0.173494 0.257291,0.249693 0.0527,0.07622 0.10813,0.139154 0.123234,0.139906 0.0151,7.79e-4 0.0575,-0.04815 0.0944,-0.108616 l 0.06686,-0.109979 0.21982,0.182931 c 0.1209,0.100603 0.255321,0.23096 0.298729,0.289666 0.09847,0.133214 0.117625,0.133089 0.173212,-9.74e-4 0.0245,-0.05931 0.0657,-0.107811 0.09134,-0.107811 0.06284,0 0.402646,0.345113 0.472191,0.479609 l 0.05575,0.107834 0.06686,-0.08714 c 0.03688,-0.04792 0.06735,-0.09919 0.06778,-0.114035 0.003,-0.107824 0.29453,0.140969 0.472789,0.403764 0.06654,0.09813 0.132023,0.178784 0.145519,0.179294 0.0135,5.86e-4 0.0353,-0.03294 0.0484,-0.07436 0.01718,-0.05409 -0.003,-0.103855 -0.07344,-0.176871 l -0.09735,-0.101608 0.0759,-0.0474 c 0.0858,-0.05353 0.101627,-0.137927 0.02599,-0.137927 -0.07372,0 -0.69011,-0.413219 -0.715651,-0.47978 -0.01475,-0.03852 0.01255,-0.0774 0.08435,-0.11982 0.05842,-0.03453 0.106274,-0.07394 0.106274,-0.08756 0,-0.0136 -0.06875,-0.06608 -0.152735,-0.116589 -0.08401,-0.05051 -0.257856,-0.187792 -0.386328,-0.305097 l -0.2336,-0.213275 0.102975,-0.08149 0.102977,-0.08149 -0.102977,-0.05206 c -0.112339,-0.0568 -0.500811,-0.4199 -0.55545,-0.519187 -0.02795,-0.05075 -0.0065,-0.07572 0.119185,-0.139965 0.141599,-0.07227 0.147791,-0.08119 0.0816,-0.117879 -0.0394,-0.02186 -0.201003,-0.165464 -0.359163,-0.319152 -0.312001,-0.303186 -0.308768,-0.287966 -0.0899,-0.423784 0.04765,-0.02954 0.04748,-0.03866 -0.002,-0.07842 -0.188586,-0.151184 -0.248427,-0.207924 -0.402148,-0.38129 -0.187893,-0.211927 -0.213465,-0.309315 -0.0899,-0.34226 0.186454,-0.04973 0.18897,-0.07896 0.02091,-0.243116 -0.169221,-0.165333 -0.353362,-0.416277 -0.353362,-0.481535 0,-0.02143 0.05898,-0.06702 0.131024,-0.101372 0.128196,-0.06115 0.129415,-0.06364 0.05622,-0.114903 -0.103823,-0.07272 -0.414595,-0.58002 -0.391758,-0.639523 0.0095,-0.02674 0.06985,-0.05891 0.132276,-0.07135 l 0.113638,-0.02271 -0.124399,-0.153093 c -0.136299,-0.167673 -0.276319,-0.413423 -0.276319,-0.484923 0,-0.02498 0.0395,-0.04547 0.0878,-0.04547 0.115432,0 0.149008,-0.06088 0.0773,-0.140107 -0.06348,-0.07017 -0.272837,-0.48702 -0.272837,-0.543278 0,-0.01949 0.04045,-0.03535 0.08989,-0.03535 0.101865,0 0.110357,-0.0255 0.042,-0.126769 -0.09998,-0.148226 -0.174032,-0.386224 -0.12882,-0.414167 0.03177,-0.01965 0.02104,-0.07937 -0.0415,-0.230159 -0.06734,-0.162353 -0.0748,-0.209546 -0.0372,-0.232797 0.03675,-0.02269 0.03805,-0.04624 0.0049,-0.106411 -0.03815,-0.0714 -0.217313,-0.875892 -0.268865,-1.207675 -0.01235,-0.07907 -0.0311,-0.172052 -0.0419,-0.206641 -0.01149,-0.03459 -0.002,-0.06291 0.01843,-0.06291 0.04995,0 0.406663,0.7117 0.379096,0.756293 -0.01173,0.0189 -0.0042,0.03436 0.01644,0.03436 0.02065,0 0.102526,0.129111 0.181912,0.286909 0.0793,0.157802 0.208407,0.371672 0.286826,0.475273 0.07844,0.103588 0.15267,0.234365 0.165011,0.290584 0.0219,0.09964 0.0242,0.100592 0.0942,0.03732 0.06929,-0.06273 0.07364,-0.06245 0.126311,0.0064 0.07115,0.09313 0.225625,0.418033 0.226075,0.475694 4.8e-4,0.06418 0.04712,0.05556 0.13328,-0.02456 0.07394,-0.0688 0.07532,-0.06871 0.148146,0.0087 0.09514,0.101493 0.257184,0.450443 0.257634,0.554667 4.79e-4,0.102731 0.01938,0.101464 0.151933,-0.0096 0.08435,-0.07098 0.118928,-0.08181 0.157861,-0.04955 0.08193,0.06801 0.337437,0.608355 0.337437,0.713627 0,0.142851 0.0331,0.154356 0.153269,0.05321 0.05909,-0.04971 0.125083,-0.08439 0.146775,-0.07717 0.06515,0.02174 0.248443,0.428003 0.267002,0.591787 0.0195,0.172139 0.0443,0.182923 0.187038,0.0813 0.07813,-0.05554 0.108343,-0.06156 0.136563,-0.02693 0.06422,0.07896 0.220814,0.482682 0.244448,0.630503 l 0.023,0.143539 0.122362,-0.07221 c 0.09,-0.05308 0.134713,-0.06192 0.169075,-0.03341 0.06862,0.05696 0.250945,0.604525 0.22911,0.688034 -0.02984,0.113901 0.02461,0.11311 0.181725,-0.0022 l 0.146135,-0.107473 0.08926,0.189554 c 0.109341,0.232489 0.167988,0.439467 0.168256,0.593854 1.08e-4,0.06422 0.0085,0.1168 0.0196,0.1168 0.01135,0 0.08263,-0.03224 0.159755,-0.07166 0.0948,-0.04835 0.148166,-0.05901 0.16439,-0.03277 0.0596,0.09649 0.122819,0.431141 0.123213,0.652403 1.98e-4,0.133413 0.0095,0.242572 0.02033,0.242572 0.01141,0 0.0791,-0.04022 0.151514,-0.08947 0.0968,-0.06576 0.138126,-0.07763 0.156064,-0.04492 0.03792,0.06936 0.103853,0.541282 0.103853,0.744515 v 0.183081 l 0.134117,-0.09113 c 0.0739,-0.05017 0.144581,-0.09117 0.157364,-0.09117 0.06235,0 0.108574,0.242981 0.11485,0.603413 l 0.0065,0.399006 0.12238,-0.07204 c 0.08622,-0.05077 0.129825,-0.05999 0.147623,-0.03116 0.02485,0.04014 0.08402,0.73055 0.07625,0.888696 -0.0042,0.09862 0.0329,0.102124 0.142672,0.0132 0.0724,-0.0586 0.09347,-0.06118 0.157521,-0.01923 0.04068,0.02663 0.109894,0.03909 0.153767,0.02766 l 0.07973,-0.02087 -0.09998,-0.130644 c -0.215274,-0.281776 -0.438515,-0.67597 -0.438515,-0.774746 0,-0.03301 0.04882,-0.06285 0.126834,-0.0775 l 0.12685,-0.02381 -0.08538,-0.112599 c -0.09807,-0.129326 -0.343074,-0.605261 -0.38505,-0.747884 -0.02671,-0.09056 -0.0201,-0.09758 0.112153,-0.119953 0.0772,-0.01306 0.140502,-0.03154 0.140502,-0.04114 0,-0.0092 -0.03895,-0.08498 -0.08655,-0.167542 -0.106592,-0.185214 -0.344602,-0.76053 -0.344602,-0.833405 0,-0.03843 0.04045,-0.05347 0.143752,-0.05347 0.161286,0 0.165372,-0.0049 0.0899,-0.120718 -0.077,-0.117535 -0.233612,-0.592615 -0.233612,-0.708717 0,-0.09421 0.0049,-0.09727 0.147852,-0.07831 0.142718,0.01915 0.146933,0.01686 0.121231,-0.06628 -0.01465,-0.04738 -0.04755,-0.127289 -0.07301,-0.177579 -0.05345,-0.105193 -0.160078,-0.499747 -0.160078,-0.592311 0,-0.05196 0.02378,-0.05926 0.141497,-0.04348 0.1789,0.02402 0.196868,0.0044 0.109459,-0.118233 -0.07325,-0.102903 -0.225926,-0.671064 -0.19412,-0.722529 0.0095,-0.01617 0.09283,-0.01922 0.18403,-0.0066 0.185904,0.0255 0.182021,0.04252 0.06284,-0.276096 -0.0333,-0.08893 -0.0628,-0.25066 -0.06525,-0.35937 -0.0049,-0.215259 -0.01151,-0.210929 0.233372,-0.162962 l 0.130305,0.02557 -0.0662,-0.191837 c -0.0417,-0.120696 -0.06665,-0.295925 -0.06744,-0.472553 l -9.95e-4,-0.280716 0.167472,0.02508 c 0.154585,0.02323 0.165324,0.0199 0.139836,-0.04271 -0.09085,-0.22324 -0.145946,-0.726329 -0.08611,-0.786179 0.01245,-0.01244 0.0834,0.0026 0.157763,0.03389 0.07438,0.03104 0.141856,0.04984 0.150005,0.04168 0.0075,-0.0079 -0.0042,-0.08518 -0.02754,-0.171175 -0.04002,-0.148174 -0.02806,-0.486396 0.0219,-0.616649 0.02034,-0.05311 0.0329,-0.05372 0.125169,-0.006 0.16975,0.08779 0.212744,0.07191 0.172741,-0.06378 -0.03831,-0.130105 0.07439,-0.767676 0.134195,-0.758827 0.01802,0.0024 0.0682,0.01558 0.111651,0.02874 0.0723,0.0219 0.07731,0.0139 0.06095,-0.09468 -0.0095,-0.06525 0.0042,-0.223713 0.03111,-0.352189 l 0.04905,-0.23359 0.118564,0.01179 c 0.08634,0.0083 0.114061,-0.0011 0.101968,-0.03592 -0.0085,-0.02627 0.0638,-0.274161 0.161887,-0.550872 0.09813,-0.27673 0.209412,-0.600162 0.247239,-0.718757 0.03782,-0.118594 0.09573,-0.27223 0.12861,-0.341409 0.0329,-0.06915 0.06987,-0.190465 0.08216,-0.269534 L 32.995672,24 l 0.0481,0.151931 c 0.04105,0.129802 0.0393,0.224018 -0.01235,0.646875 -0.06895,0.565016 -0.07325,1.087917 -0.0085,1.087917 0.04651,0 0.02252,0.523704 -0.02775,0.604969 -0.02078,0.03355 -9.95e-4,0.04275 0.07394,0.03481 l 0.10208,-0.01058 -0.0042,0.271467 c -0.002,0.149307 -0.02367,0.308368 -0.04786,0.353471 -0.0595,0.111123 -0.0329,0.125602 0.11639,0.06326 l 0.126271,-0.05276 0.0195,0.113578 c 0.02159,0.125944 -0.02145,0.542511 -0.06711,0.649003 -0.0262,0.06109 -0.01812,0.06537 0.07545,0.04068 0.221126,-0.05823 0.213703,-0.07084 0.199763,0.340266 -0.0075,0.212602 -0.0349,0.430745 -0.06338,0.499657 -0.02785,0.06727 -0.04442,0.128479 -0.03684,0.136011 0.0075,0.0073 0.0837,-0.0018 0.169249,-0.02127 0.0856,-0.01923 0.17035,-0.02579 0.188444,-0.01462 0.0527,0.0326 -0.0075,0.371397 -0.103081,0.581796 l -0.088,0.193319 0.179829,-0.02386 0.179833,-0.02388 v 0.13077 c 0,0.168176 -0.09374,0.529806 -0.182439,0.703623 -0.0813,0.159396 -0.08391,0.176604 -0.0242,0.158188 0.02472,-0.0074 0.113695,-0.02349 0.197662,-0.03523 0.1443,-0.02019 0.152739,-0.0165 0.152739,0.06756 0,0.110344 -0.123741,0.429738 -0.217496,0.5614 -0.03849,0.0541 -0.06999,0.107647 -0.06999,0.119046 0,0.01163 0.0728,0.01142 0.161723,-0.0013 0.161636,-0.02214 0.161713,-0.0221 0.161713,0.08922 0,0.127406 -0.128877,0.499518 -0.202292,0.584061 -0.0815,0.09384 -0.0572,0.115203 0.109341,0.09647 l 0.158567,-0.01786 -0.04685,0.147961 c -0.09292,0.293647 -0.162299,0.460031 -0.233622,0.560183 -0.113332,0.159181 -0.09594,0.192731 0.0891,0.171874 0.09986,-0.01142 0.161725,-0.0038 0.161725,0.01924 0,0.07939 -0.231368,0.624226 -0.311262,0.732967 -0.0462,0.06295 -0.08403,0.123566 -0.08403,0.134767 0,0.01141 0.06467,0.02032 0.143755,0.02032 0.104074,0 0.143763,0.01497 0.143763,0.05413 0,0.08225 -0.27966,0.740731 -0.363638,0.856156 -0.08622,0.11853 -0.07984,0.131365 0.07115,0.141984 0.06942,0.0046 0.112688,0.02738 0.112711,0.05875 6.9e-5,0.06021 -0.310326,0.678838 -0.381673,0.760614 -0.075,0.08594 -0.06118,0.104991 0.07625,0.104991 0.102871,0 0.125777,0.01342 0.125777,0.07358 0,0.04049 -0.0239,0.119782 -0.053,0.176149 -0.05018,0.09692 -0.0483,0.105602 0.03468,0.159934 0.0482,0.03157 0.0923,0.05739 0.09787,0.05736 0.0049,-3.5e-5 0.01221,-0.149631 0.01456,-0.332424 0.0042,-0.320326 0.06085,-0.637962 0.113909,-0.637682 0.01406,7.4e-5 0.07817,0.0322 0.142369,0.07133 l 0.116797,0.0712 v -0.239308 c 0,-0.30274 0.06455,-0.67939 0.125184,-0.729648 0.03455,-0.02864 0.07426,-0.01519 0.154509,0.05237 0.0594,0.05001 0.117949,0.09089 0.130086,0.09089 0.01206,0 0.0198,-0.06869 0.01695,-0.152737 -0.0075,-0.218167 0.07868,-0.706909 0.133951,-0.762212 0.02575,-0.02575 0.0354,-0.05964 0.02159,-0.07539 -0.01385,-0.0157 0.02336,0.0038 0.08264,0.04376 0.0593,0.03976 0.124269,0.08166 0.144391,0.09312 0.02275,0.01297 0.03835,-0.05636 0.04125,-0.183353 0.0042,-0.206173 0.0568,-0.448535 0.116101,-0.540546 0.0265,-0.04122 0.05181,-0.03601 0.143508,0.02921 0.127294,0.09061 0.180884,0.07671 0.158501,-0.04126 -0.0173,-0.09099 0.140022,-0.621461 0.214505,-0.723321 0.0459,-0.06265 0.0531,-0.06206 0.180762,0.01319 l 0.133008,0.07849 v -0.125908 c 0,-0.06903 0.033,-0.232362 0.07335,-0.362925 0.07776,-0.251907 0.128251,-0.286491 0.265974,-0.182325 0.108235,0.08185 0.168834,0.06726 0.143282,-0.03462 -0.03465,-0.1379 0.08005,-0.483446 0.260308,-0.784266 0.0085,-0.01493 0.06933,0.01338 0.134213,0.06288 0.06491,0.04948 0.12858,0.09001 0.141538,0.09001 0.013,0 0.02356,-0.06423 0.02356,-0.142765 0,-0.143191 0.145729,-0.503062 0.233073,-0.575551 0.03445,-0.02856 0.07426,-0.01505 0.154417,0.05243 0.134653,0.113329 0.151571,0.113329 0.151571,3.1e-5 0,-0.04998 0.0504,-0.191485 0.11201,-0.314455 0.156402,-0.312178 0.167402,-0.323167 0.25921,-0.258861 0.0993,0.06958 0.131726,0.06718 0.132693,-0.0093 9.81e-4,-0.0822 0.131034,-0.367487 0.204431,-0.448592 0.0549,-0.06065 0.05982,-0.06021 0.107911,0.0081 0.06895,0.09856 0.112529,0.09015 0.139813,-0.02694 0.02705,-0.116241 0.223928,-0.440237 0.267469,-0.440237 0.01653,0 0.04003,0.01615 0.05228,0.03592 0.03468,0.05614 0.08295,0.04234 0.106029,-0.03032 0.03864,-0.121843 0.311213,-0.454996 0.363464,-0.444312 0.0284,0.0058 0.05155,-0.0039 0.05155,-0.02199 0,-0.02927 0.189183,-0.251124 0.431249,-0.505712 0.04939,-0.05198 0.168645,-0.162797 0.264942,-0.246283 0.162277,-0.140678 0.238199,-0.165177 0.238199,-0.07687 0,0.01977 -0.01875,0.02438 -0.0415,0.0099 -0.02575,-0.01588 -0.03175,-0.0095 -0.01582,0.01594 0.01419,0.02284 -0.02125,0.110267 -0.07855,0.194225 -0.219115,0.320874 -0.363007,0.59412 -0.458898,0.871402 -0.05469,0.158124 -0.113016,0.302863 -0.129692,0.321643 -0.0485,0.05471 -0.035,0.12758 0.02369,0.12758 0.02972,0 0.05392,0.01662 0.05392,0.03699 0,0.05582 -0.208639,0.457597 -0.251342,0.483995 -0.05415,0.0334 -0.0075,0.09 0.07385,0.09 0.03885,0 0.06975,0.02451 0.06975,0.05533 0,0.07213 -0.128386,0.326493 -0.239694,0.474952 -0.102212,0.136355 -0.08505,0.188459 0.06215,0.188459 0.05819,0 0.105708,0.01405 0.105708,0.03131 0,0.05451 -0.350446,0.570643 -0.398252,0.586583 -0.0724,0.02413 -0.002,0.100866 0.0927,0.100866 0.04705,0 0.09347,0.01286 0.103296,0.02855 0.03155,0.05109 -0.106797,0.310381 -0.277644,0.520084 -0.09185,0.112766 -0.167008,0.212624 -0.167008,0.221891 0,0.0089 0.05655,0.02743 0.125779,0.04042 0.06917,0.01299 0.125782,0.04109 0.125782,0.0624 0,0.0719 -0.281075,0.509764 -0.356525,0.555433 -0.111605,0.06755 -0.09121,0.107412 0.06895,0.134457 0.102628,0.01736 0.143754,0.04196 0.143754,0.08614 0,0.0691 -0.260606,0.392451 -0.456234,0.566047 -0.122235,0.108452 -0.134653,0.192319 -0.0285,0.192319 0.07115,0 0.233168,0.07788 0.233168,0.112133 0,0.03488 -0.206249,0.245074 -0.449583,0.458245 -0.163379,0.143119 -0.173457,0.1607 -0.113345,0.197656 0.200467,0.123201 0.202908,0.109825 -0.066,0.362105 -0.138362,0.129807 -0.279869,0.245067 -0.314458,0.25614 -0.08955,0.02867 -0.07834,0.06254 0.04486,0.135352 0.0593,0.03504 0.107801,0.07768 0.107801,0.09479 0,0.05394 -0.359161,0.347978 -0.578225,0.473373 -0.11564,0.06618 -0.210741,0.12975 -0.211325,0.141238 -4.92e-4,0.01158 0.0394,0.0425 0.08875,0.06894 0.101403,0.05429 0.105279,0.06703 0.0438,0.146176 -0.04742,0.06107 -0.436327,0.325798 -0.612061,0.416672 l -0.108684,0.05621 0.09596,0.05815 c 0.0527,0.03205 0.09595,0.08582 0.09595,0.119608 0,0.10637 0.0618,0.104992 0.106274,-0.0022 0.04809,-0.115997 0.468718,-0.578805 0.526099,-0.578805 0.02045,0 0.0661,0.06059 0.101403,0.134656 l 0.06422,0.134658 0.06536,-0.125672 c 0.03595,-0.06909 0.166366,-0.228911 0.289813,-0.355086 0.237128,-0.242369 0.228438,-0.240956 0.340277,-0.05529 0.03365,0.05584 0.0464,0.04849 0.113648,-0.06543 0.06955,-0.117916 0.411977,-0.422526 0.474942,-0.422526 0.01487,0 0.0464,0.06466 0.0701,0.143749 0.03885,0.129673 0.112055,0.199378 0.112055,0.1067 0,-0.05228 0.354921,-0.39006 0.475163,-0.45224 0.09765,-0.05053 0.101515,-0.04873 0.160518,0.075 0.0332,0.06973 0.0706,0.126767 0.08305,0.126767 0.01245,0 0.07009,-0.05021 0.128102,-0.111551 0.202255,-0.213723 0.590715,-0.425505 0.590715,-0.322054 0,0.01844 0.01615,0.07628 0.03605,0.128405 l 0.03604,0.09479 0.086,-0.101436 c 0.04728,-0.05577 0.178587,-0.157168 0.291734,-0.225265 0.195703,-0.117794 0.208046,-0.120606 0.253975,-0.05778 0.0265,0.03634 0.05345,0.08154 0.0597,0.100563 0.0065,0.01901 0.06315,-0.01362 0.126139,-0.07255 0.06305,-0.05889 0.224216,-0.148216 0.358142,-0.198487 0.222668,-0.08358 0.247405,-0.08639 0.288888,-0.03289 0.0418,0.05391 0.05311,0.05399 0.143751,5.86e-4 0.05414,-0.03187 0.179237,-0.06901 0.278072,-0.08257 0.0988,-0.01352 0.373212,-0.05704 0.609764,-0.09664 0.492071,-0.08242 0.925508,-0.0681 0.830049,0.02738 -0.02807,0.0281 -0.0749,0.05105 -0.104063,0.05105 -0.0858,0 -0.77867,0.24975 -1.007408,0.363135 -0.115912,0.05743 -0.290469,0.167945 -0.387932,0.245549 -0.09745,0.07755 -0.196692,0.147649 -0.220521,0.155667 -0.03251,0.011 -0.0308,0.02976 0.0065,0.07499 0.04315,0.05218 0.04096,0.07031 -0.0156,0.132769 -0.03595,0.03977 -0.155482,0.122985 -0.26551,0.184879 -0.110022,0.06187 -0.20668,0.117889 -0.214786,0.124426 -0.0075,0.0064 0.01212,0.04157 0.04484,0.07779 0.0328,0.03623 0.0596,0.07663 0.0596,0.08966 0,0.03286 -0.436872,0.347847 -0.483359,0.348524 -0.02079,1.96e-4 -0.0616,0.0156 -0.09062,0.03398 -0.04475,0.02834 -0.04002,0.04727 0.0305,0.122322 l 0.0835,0.0888 -0.174231,0.127076 c -0.09582,0.06992 -0.266357,0.172273 -0.378941,0.227517 -0.112586,0.05522 -0.205587,0.113391 -0.206641,0.129125 -9.77e-4,0.01577 0.042,0.06643 0.09567,0.112664 0.0861,0.07414 0.09175,0.09117 0.04706,0.144962 -0.0593,0.07147 -0.388307,0.241205 -0.593966,0.306435 -0.209001,0.06626 -0.208539,0.06525 -0.09062,0.208275 0.08549,0.103628 0.0988,0.140133 0.06348,0.173609 -0.05655,0.05357 -0.546797,0.229273 -0.639818,0.229273 -0.08935,0 -0.088,0.02991 0.0049,0.129795 l 0.07565,0.08055 -0.138535,0.06892 c -0.07625,0.0379 -0.276004,0.106972 -0.444012,0.153488 -0.168005,0.04648 -0.312703,0.08997 -0.321541,0.09657 -0.0085,0.0065 0.01142,0.05754 0.0438,0.113276 0.05762,0.0976 0.057,0.102762 -0.0199,0.143204 -0.127941,0.06737 -0.572207,0.184567 -0.699478,0.184567 -0.130942,0 -0.141041,0.02143 -0.06285,0.133155 0.0504,0.07196 0.04724,0.08214 -0.0459,0.148426 -0.108356,0.07718 -0.435145,0.14967 -0.67477,0.14967 -0.13857,0 -0.148893,0.0065 -0.133867,0.08519 0.02125,0.111122 -0.0972,0.153898 -0.520364,0.187906 -0.26308,0.02117 -0.326233,0.03857 -0.386345,0.10668 -0.0814,0.09219 -0.253358,0.143307 -0.592974,0.176325 -0.362912,0.03528 -0.438724,0.05543 -0.417393,0.111079 0.02694,0.07021 0.0042,0.07791 -0.405038,0.139148 -0.202182,0.03025 -0.394988,0.07264 -0.42846,0.09429 -0.05366,0.0347 -0.0526,0.03668 0.0095,0.01693 0.03865,-0.01235 0.139703,-0.03191 0.224603,-0.04357 0.127854,-0.01754 0.154364,-0.01142 0.154364,0.03791 0,0.04625 0.01359,0.05118 0.06294,0.0225 0.120332,-0.06999 0.505746,-0.169867 0.549968,-0.142545 0.0245,0.01516 0.03455,0.05338 0.02241,0.08506 -0.02681,0.07 -0.02694,0.06996 0.125557,0.0062 0.06755,-0.02822 0.225293,-0.06292 0.350642,-0.07706 l 0.227898,-0.02579 -0.01659,0.112973 c -0.0085,0.06211 -0.0133,0.112972 -0.0085,0.112972 0.0042,0 0.07605,-0.02426 0.160013,-0.05392 0.160405,-0.05661 0.355356,-0.06841 0.498006,-0.03027 0.07394,0.01978 0.08215,0.03856 0.06455,0.147017 -0.01866,0.114819 -0.01403,0.122608 0.0591,0.101638 0.264546,-0.07581 0.46664,-0.09486 0.586294,-0.05536 0.112022,0.03699 0.123631,0.05237 0.104673,0.138718 l -0.02135,0.0971 0.234128,-0.01494 c 0.128768,-0.008 0.292738,-0.0038 0.364379,0.0092 0.119596,0.02242 0.129005,0.03307 0.114782,0.129923 l -0.0155,0.105482 0.254323,5.86e-4 c 0.309921,5.86e-4 0.359787,0.02628 0.328518,0.168651 -0.02241,0.101967 -0.01895,0.105643 0.08673,0.09014 0.06069,-0.0086 0.222559,0.01299 0.359926,0.04859 0.226121,0.05867 0.247883,0.07223 0.230031,0.143368 -0.01582,0.06319 -4.91e-4,0.08347 0.0792,0.103431 0.05449,0.01362 0.19718,0.07022 0.317195,0.125643 0.120022,0.0554 0.42036,0.169448 0.667435,0.253349 0.247075,0.08387 0.497385,0.17729 0.556248,0.207535 l 0.107023,0.05499 -0.08915,0.03316 c -0.04893,0.01821 -0.404397,0.03411 -0.789833,0.0352 -1.155146,0.003 -1.414714,0.01468 -1.430622,0.06235 -0.03343,0.100385 -0.35643,0.110334 -0.69577,0.02149 -0.08204,-0.02151 -0.09767,-0.01299 -0.1078,0.05894 -0.0173,0.122036 -0.23183,0.128287 -0.582393,0.01699 -0.299601,-0.09514 -0.276512,-0.100774 -0.33203,0.08066 -0.0217,0.0708 -0.222645,0.03118 -0.499949,-0.09859 -0.235293,-0.110111 -0.268634,-0.109966 -0.268634,0.0011 0,0.103058 -0.213723,0.08366 -0.483589,-0.04385 -0.180961,-0.08552 -0.259833,-0.104557 -0.357354,-0.08621 -0.124948,0.02346 -0.198083,-0.0032 -0.641311,-0.236751 -0.07405,-0.03895 -0.162956,-0.07634 -0.197651,-0.0831 -0.115046,-0.02237 -0.240759,-0.0872 -0.422328,-0.217662 -0.27086,-0.194634 -0.311073,-0.15502 -0.07984,0.07867 0.113006,0.114229 0.205518,0.225547 0.205518,0.247376 0,0.02185 -0.0351,0.04883 -0.07816,0.06009 -0.07426,0.01944 -0.07127,0.02791 0.06324,0.174894 0.187145,0.204644 0.385856,0.519884 0.357057,0.566478 -0.01269,0.02046 -0.0463,0.03724 -0.0748,0.03724 -0.05828,0 -0.06965,0.0566 -0.0177,0.08866 0.0439,0.02714 0.289404,0.488732 0.289404,0.5442 0,0.02327 -0.02608,0.05226 -0.05773,0.06442 -0.05135,0.01973 -0.05195,0.03108 -0.0049,0.102671 0.0702,0.107476 0.169404,0.452025 0.13395,0.46529 -0.0155,0.0058 0.01869,0.188407 0.07603,0.405828 0.104726,0.397555 0.131596,0.628908 0.07315,0.628908 -0.0173,0 -0.192712,-0.214279 -0.389705,-0.47617 -0.436311,-0.580029 -0.555882,-0.710018 -0.653126,-0.710018 -0.08435,0 -0.205053,-0.17151 -0.372756,-0.529858 l -0.10517,-0.224751 -0.0943,0.07415 c -0.08922,0.07016 -0.0968,0.07071 -0.140379,0.01058 -0.02539,-0.03469 -0.0461,-0.07743 -0.0461,-0.09498 0,-0.072 -0.193778,-0.515361 -0.247519,-0.566309 -0.03189,-0.03021 -0.08463,-0.04955 -0.117395,-0.04299 -0.05855,0.01179 -0.09722,-0.07017 -0.154002,-0.325879 -0.0196,-0.08826 -0.0286,-0.094 -0.07511,-0.04752 -0.06493,0.06486 -0.07126,0.996469 -0.01718,2.483766 0.01186,0.497989 0.06445,0.969576 -0.268843,0.623181 l 2.2e-5,-2.47e-4 z m -0.376758,-5.095471 c -0.0398,-0.07797 -0.14929,-0.226203 -0.243323,-0.32933 -0.09408,-0.103141 -0.250894,-0.27462 -0.348596,-0.381095 -0.09765,-0.106498 -0.340278,-0.31555 -0.53906,-0.464599 -0.36632,-0.27468 -0.427038,-0.286617 -0.34377,-0.06762 0.03676,0.09667 0.04085,0.0982 0.08831,0.03315 0.02732,-0.03748 0.05613,-0.06008 0.064,-0.05027 0.0075,0.0094 0.08862,0.123034 0.17964,0.251509 0.184508,0.260475 0.608155,0.686675 0.960271,0.966079 0.127494,0.10116 0.236978,0.183924 0.243314,0.183924 0.0065,0 -0.02107,-0.06382 -0.06085,-0.141824 z m 0.321748,-0.118728 c -0.002,-0.556011 -0.214989,-1.591093 -0.382228,-1.853189 -0.0352,-0.0552 -0.04149,-0.09757 -0.01835,-0.125783 0.0351,-0.04295 -0.116296,-0.325105 -0.32173,-0.599588 -0.05184,-0.06915 -0.104642,-0.170212 -0.11747,-0.224573 -0.02092,-0.08846 -0.01362,-0.09884 0.0702,-0.09884 0.05145,0 0.0881,-0.01361 0.0815,-0.03031 -0.04105,-0.103786 -0.408472,-0.608994 -0.432242,-0.594303 -0.01597,0.0095 -0.0289,0.164227 -0.0289,0.343063 0,0.245965 0.0112,0.32069 0.04485,0.306798 0.168445,-0.06886 0.15791,-0.09019 0.186396,0.377347 0.01475,0.243059 0.0247,0.50352 0.022,0.5788 -0.0042,0.125807 7.27e-4,0.1338 0.0661,0.09884 0.102079,-0.05463 0.111762,-0.04925 0.111762,0.06103 0,0.110567 0.162527,0.856942 0.219464,1.007859 0.117782,0.312184 0.441651,1.013388 0.468052,1.013388 0.01719,0 0.0309,-0.117248 0.0306,-0.260547 z m 1.660575,0.236002 c -0.02598,-0.0099 -0.057,-0.0088 -0.06885,0.0026 -0.01194,0.01195 0.0085,0.02041 0.04714,0.0189 0.0419,-0.0016 0.0504,-0.0098 0.0217,-0.02174 v 2e-6 z m -1.267092,-0.379752 c 0.0947,-0.202598 0.216376,-0.521993 0.270407,-0.709767 0.05405,-0.187773 0.110916,-0.366299 0.126393,-0.396723 0.0155,-0.03046 0.04001,-0.254071 0.05469,-0.496997 l 0.0265,-0.441683 0.0857,0.02154 0.0857,0.02152 v -0.360063 c 0,-0.41304 -0.0311,-0.446692 -0.211324,-0.228132 -0.110856,0.134494 -0.115732,0.191508 -0.01626,0.191508 0.03895,0 0.04787,0.01896 0.02967,0.06294 -0.01429,0.03462 -0.03445,0.09523 -0.04486,0.134765 -0.0095,0.03954 -0.03781,0.09614 -0.06095,0.125783 -0.0833,0.10699 -0.282434,0.697085 -0.240014,0.711219 0.02252,0.0073 0.03354,0.0257 0.0245,0.04035 -0.02032,0.0329 -0.260628,1.123346 -0.285784,1.296858 -0.0095,0.06914 -0.02785,0.186424 -0.0395,0.260543 -0.01173,0.07413 -0.01149,0.134767 7.38e-4,0.134767 0.01223,0 0.09957,-0.165763 0.194252,-0.368356 z m 0.541133,-0.04493 c 0.336497,-0.295127 0.572437,-0.572042 0.526514,-0.617962 -0.04496,-0.04501 -0.633861,0.482478 -0.633861,0.56786 0,0.01766 -0.0156,0.03216 -0.03477,0.03216 -0.01916,0 -0.09996,0.08823 -0.179689,0.196124 -0.145245,0.196621 -0.187551,0.281642 -0.09593,0.192773 0.02691,-0.02614 0.214922,-0.193038 0.417754,-0.370925 z m -3.282007,-1.608197 c -0.0095,-0.02467 -0.0181,-0.0043 -0.0181,0.04491 0,0.04941 0.0075,0.06965 0.0181,0.04491 0.0095,-0.02467 0.0095,-0.06516 0,-0.08987 z m -0.706617,-0.601945 c 0,-0.01977 -0.01615,-0.03592 -0.03595,-0.03592 -0.0198,0 -0.03595,0.01615 -0.03595,0.03592 0,0.01977 0.01615,0.03592 0.03595,0.03592 0.0198,0 0.03595,-0.01615 0.03595,-0.03592 z m -0.68281,-0.678568 c 0,-0.03147 -0.146973,-0.120806 -0.166565,-0.101219 -0.0085,0.0084 0.003,0.05823 0.02715,0.110022 0.0333,0.07325 0.05364,0.08532 0.09117,0.05418 0.0265,-0.02203 0.0483,-0.05038 0.0483,-0.06298 z m 7.546918,0.01672 c 0,-0.008 0.01058,-0.04247 0.02345,-0.07604 0.0195,-0.05068 0.0085,-0.05651 -0.06295,-0.03443 -0.10967,0.03376 -0.116541,0.04057 -0.0878,0.08716 0.02242,0.03623 0.127263,0.05542 0.127263,0.02334 z m -2.569293,-0.225878 c -0.02315,-0.119702 -0.02995,-0.126975 -0.05565,-0.05927 -0.01615,0.04242 -0.04882,0.08929 -0.0727,0.103948 -0.02995,0.01843 -0.01675,0.04102 0.04233,0.07261 0.109781,0.05877 0.117875,0.04774 0.086,-0.117292 z m 0.0177,-0.390131 c 0,-0.0878 -0.0095,-0.159595 -0.0222,-0.159595 -0.03709,0 -0.228152,0.230608 -0.228772,0.276132 -4.8e-4,0.04036 0.166741,0.08177 0.224043,0.05542 0.01487,-0.0067 0.02692,-0.08419 0.02692,-0.171985 z"
     id="4-3"
     style="fill:#ffffff;fill-opacity:1;stroke-width:0.244014" />
  <rect
     style="fill:#ffffff;fill-opacity:0.25;stroke:#e5e9ef;stroke-width:0.580474;stroke-opacity:0.5;paint-order:markers fill stroke"
     id="rect2191"
     width="57.5"
     height="7.2964485e-07"
     x="3.25"
     y="47.690235" />
  <rect
     style="fill:#ffffff;fill-opacity:0.5;stroke:#e5e9ef;stroke-width:0.580474;stroke-opacity:0.5;paint-order:markers fill stroke"
     id="rect2191-0-9"
     width="57.5"
     height="7.2964485e-07"
     x="3.25"
     y="50.690235" />
</svg>
