<?xml version="1.0" encoding="UTF-8" standalone="no"?>
<svg
   viewBox="0 0 64 64"
   version="1.1"
   id="svg12"
   sodipodi:docname="folder-database.svg"
   inkscape:version="1.2.1 (9c6d41e410, 2022-07-14)"
   xmlns:inkscape="http://www.inkscape.org/namespaces/inkscape"
   xmlns:sodipodi="http://sodipodi.sourceforge.net/DTD/sodipodi-0.dtd"
   xmlns:xlink="http://www.w3.org/1999/xlink"
   xmlns="http://www.w3.org/2000/svg"
   xmlns:svg="http://www.w3.org/2000/svg"
   xmlns:rdf="http://www.w3.org/1999/02/22-rdf-syntax-ns#"
   xmlns:cc="http://creativecommons.org/ns#"
   xmlns:dc="http://purl.org/dc/elements/1.1/">
  <metadata
     id="metadata16">
    <rdf:RDF>
      <cc:Work
         rdf:about="">
        <dc:format>image/svg+xml</dc:format>
        <dc:type
           rdf:resource="http://purl.org/dc/dcmitype/StillImage" />
      </cc:Work>
    </rdf:RDF>
  </metadata>
  <sodipodi:namedview
     pagecolor="#ffffff"
     bordercolor="#666666"
     borderopacity="1"
     objecttolerance="10"
     gridtolerance="10"
     guidetolerance="10"
     inkscape:pageopacity="0"
     inkscape:pageshadow="2"
     inkscape:window-width="1920"
     inkscape:window-height="1002"
     id="namedview14"
     showgrid="true"
     inkscape:zoom="14.75"
     inkscape:cx="30.271187"
     inkscape:cy="34"
     inkscape:window-x="0"
     inkscape:window-y="0"
     inkscape:window-maximized="1"
     inkscape:current-layer="svg12"
     inkscape:showpageshadow="2"
     inkscape:pagecheckerboard="0"
     inkscape:deskcolor="#d1d1d1">
    <inkscape:grid
       type="xygrid"
       id="grid2873" />
  </sodipodi:namedview>
  <defs
     id="defs3051">
    <style
       type="text/css"
       id="current-color-scheme">.ColorScheme-Text { color:#31363b; }
.ColorScheme-Background { color:#eff0f1; }
.ColorScheme-Highlight { color:#3daee9; }
.ColorScheme-ViewText { color:#31363b; }
.ColorScheme-ViewBackground { color:#fcfcfc; }
.ColorScheme-ViewHover { color:#93cee9; }
.ColorScheme-ViewFocus { color:#3daee9; }
.ColorScheme-ButtonText { color:#31363b; }
.ColorScheme-ButtonBackground { color:#eff0f1; }
.ColorScheme-ButtonHover { color:#93cee9; }
.ColorScheme-ButtonFocus { color:#3daee9; }
</style>
    <linearGradient
       inkscape:collect="always"
       id="linearGradient4393">
      <stop
         style="stop-color:#000000;stop-opacity:1;"
         offset="0"
         id="stop4395" />
      <stop
         style="stop-color:#000000;stop-opacity:0;"
         offset="1"
         id="stop4397" />
    </linearGradient>
    <linearGradient
       inkscape:collect="always"
       xlink:href="#linearGradient886"
       id="linearGradient888"
       x1="75.75985"
       y1="208.49026"
       x2="91.646347"
       y2="264.21182"
       gradientUnits="userSpaceOnUse"
       gradientTransform="matrix(0.7314896,0,0,0.72862121,-27.03835,-142.06693)" />
    <linearGradient
       inkscape:collect="always"
       id="linearGradient886">
      <stop
         style="stop-color:#b48ead;stop-opacity:1;"
         offset="0"
         id="stop882" />
      <stop
         style="stop-color:#c6afe9;stop-opacity:1;"
         offset="0.48468637"
         id="stop1402" />
      <stop
         style="stop-color:#bf616a;stop-opacity:0.75;"
         offset="1"
         id="stop884" />
    </linearGradient>
    <filter
       inkscape:collect="always"
       style="color-interpolation-filters:sRGB"
       id="filter1881"
       x="-0.09064882"
       width="1.1812976"
       y="-0.40803665"
       height="1.8160733">
      <feGaussianBlur
         inkscape:collect="always"
         stdDeviation="0.85615684"
         id="feGaussianBlur1883" />
    </filter>
    <inkscape:path-effect
       effect="fillet_chamfer"
       id="path-effect1331"
       is_visible="true"
       lpeversion="1"
       satellites_param="F,0,0,1,0,2.1166667,0,1 @ F,0,0,1,0,2.1166667,0,1 @ F,0,0,1,0,2.1166667,0,1 @ F,0,0,1,0,2.1166667,0,1"
       unit="px"
       method="arc"
       mode="F"
       radius="8"
       chamfer_steps="1"
       flexible="false"
       use_knot_distance="true"
       apply_no_radius="true"
       apply_with_radius="true"
       only_selected="false"
       hide_knots="false"
       nodesatellites_param="F,0,0,1,0,2.1166667,0,1 @ F,0,0,1,0,2.1166667,0,1 @ F,0,0,1,0,2.1166667,0,1 @ F,0,0,1,0,2.1166667,0,1" />
    <linearGradient
       inkscape:collect="always"
       xlink:href="#linearGradient852"
       id="linearGradient854-7"
       x1="76.788559"
       y1="222.65123"
       x2="92.097359"
       y2="268.94839"
       gradientUnits="userSpaceOnUse"
       gradientTransform="matrix(0.7314896,0,0,0.72862121,-27.07699,-142.06693)" />
    <linearGradient
       inkscape:collect="always"
       id="linearGradient852">
      <stop
         style="stop-color:#dba6ab;stop-opacity:1;"
         offset="0"
         id="stop848" />
      <stop
         style="stop-color:#b48ead;stop-opacity:1;"
         offset="1"
         id="stop850" />
    </linearGradient>
    <linearGradient
       inkscape:collect="always"
       xlink:href="#linearGradient4393"
       id="linearGradient668-3"
       gradientUnits="userSpaceOnUse"
       gradientTransform="matrix(3.6204685,0,0,3.4670854,3.00026,-3596.3793)"
       x1="5"
       y1="1037.3622"
       x2="8"
       y2="1051.3622" />
  </defs>
  <path
     id="rect10"
     style="fill:url(#linearGradient888);fill-opacity:1;stroke-width:0.119494"
     d="M 6.09675,9.8433956 C 4.38635,9.8433956 3,11.224426 3,12.927946 v 3.039 36.01029 c 0,1.70346 1.38635,3.08458 3.09675,3.08458 h 51.806687 c 1.7102,0 3.09648,-1.38111 3.09648,-3.08458 l -0.005,-32.68748 c -0.1316,-1.68954 0.0653,-5.59073 -5.7405,-5.59073 h -26.34703 c 0.0242,0 -1.90964,-1.73503 -3.63108,-2.76927 -1.37524,-0.89374 -3.233377,-1.0863604 -3.233377,-1.0863604 z"
     sodipodi:nodetypes="scccscccccccs" />
  <path
     style="opacity:0.309598;fill:#000000;fill-opacity:1;stroke:none;stroke-width:0.144851;stroke-opacity:1;filter:url(#filter1881)"
     id="rect873"
     width="22.667437"
     height="5.0357642"
     x="46.507095"
     y="222.89639"
     transform="matrix(1.05206,0,0,1.4052333,-43.68288,-292.51487)"
     inkscape:path-effect="#path-effect1331"
     d="m 48.623762,222.89639 h 18.434103 a 2.1166667,2.1166667 45 0 1 2.116667,2.11667 v 0.80243 a 2.1166667,2.1166667 135 0 1 -2.116667,2.11667 l -18.434103,0 a 2.1166667,2.1166667 45 0 1 -2.116667,-2.11667 v -0.80243 a 2.1166667,2.1166667 135 0 1 2.116667,-2.11667 z"
     sodipodi:type="rect" />
  <path
     id="rect851"
     style="fill:#ac81a4;fill-opacity:1;stroke-width:0.193144"
     d="m 28.848157,16.996876 v 3.05695 H 21.62658 c 3.566957,-0.009 4.524917,-1.0483 7.221577,-3.05695 z m 0,0 h 28.90903 c 1.70351,-0.008 3.23617,1.36199 3.24272,3.05695 H 28.848157 Z M 6.09694,20.053826 h 54.902977 v 30.96333 c 0,1.70172 -1.38628,3.08114 -3.09648,3.08114 H 6.09694 c -1.7104,0 -3.09675,-1.37942 -3.09675,-3.08114 v -27.882 c 0,-1.70181 1.38635,-3.08133 3.09675,-3.08133 z"
     sodipodi:nodetypes="cccccccccccccsccc" />
  <path
     id="rect851-3"
     style="fill:url(#linearGradient854-7);fill-opacity:1;stroke-width:0.193226"
     d="m 29.207447,18.214156 -0.0784,3.19607 -7.141887,-0.13585 c 3.567037,-0.009 4.524807,-1.04952 7.221427,-3.06022 z m 0,0 h 28.69603 c 1.70347,-0.008 3.0899,1.36335 3.09651,3.06022 l -31.87209,0.13585 z M 6.09699,21.274376 h 54.903007 v 29.74412 c 0,1.70361 -1.3863,3.08458 -3.09652,3.08457 H 6.09699 c -1.71042,1e-5 -3.09677,-1.38096 -3.09677,-3.08457 v -26.6595 c 0,-1.70354 1.38635,-3.08462 3.09677,-3.08462 z"
     sodipodi:nodetypes="cccccccccccsccssc" />
  <path
     style="opacity:0.181;fill:url(#linearGradient668-3);fill-opacity:1;fill-rule:evenodd;stroke:none;stroke-width:3.54294px;stroke-linecap:butt;stroke-linejoin:miter;stroke-opacity:1"
     d="m 6.00022,21.243396 25.963737,27.53972 h 28.96374 l 0.0725,-27.53972 H 6.059 Z"
     id="path4152-2-5"
     inkscape:connector-curvature="0"
     sodipodi:nodetypes="cccccc" />
  <rect
     style="fill:#ffffff;fill-opacity:0.25;stroke:#e5e9ef;stroke-width:0.580474;stroke-opacity:0.5;paint-order:markers fill stroke"
     id="rect2191"
     width="57.5"
     height="7.2964485e-07"
     x="3.250221"
     y="48.133629" />
  <rect
     style="fill:#ffffff;fill-opacity:0.5;stroke:#e5e9ef;stroke-width:0.580474;stroke-opacity:0.5;paint-order:markers fill stroke"
     id="rect2191-0-9"
     width="57.5"
     height="7.2964485e-07"
     x="3.250221"
     y="51.133629" />
  <path
     fill-rule="evenodd"
     clip-rule="evenodd"
     d="m 41.37502,42.75071 c -0.34488,0 -0.62531,-0.28013 -0.62531,-0.625 0,-0.34544 0.28043,-0.62561 0.62531,-0.62561 0.34512,0 0.62498,0.28017 0.62498,0.62561 0,0.34487 -0.27986,0.625 -0.62498,0.625 z m 0.60178,-4.67409 c -0.008,0.0673 -0.0195,0.13369 -0.0331,0.19892 -0.006,0.0318 -0.0161,0.0615 -0.0235,0.0927 -0.014,0.0544 -0.0284,0.10902 -0.046,0.16232 -0.007,0.0228 -0.0171,0.0466 -0.0252,0.0698 -0.0223,0.0609 -0.0457,0.12148 -0.072,0.17949 -0.007,0.0162 -0.0155,0.0319 -0.0223,0.0471 -0.0296,0.0604 -0.0604,0.11966 -0.0933,0.17705 -0.0106,0.0185 -0.0212,0.0368 -0.0326,0.0543 -0.0372,0.0593 -0.0757,0.11786 -0.116561,0.17333 -0.006,0.008 -0.0125,0.0174 -0.0193,0.0248 -0.0476,0.0631 -0.099,0.1245 -0.15326,0.18371 -0.002,0.002 -0.004,0.003 -0.005,0.006 -0.0582,0.062 -0.11845,0.12271 -0.18291,0.17883 -0.44008,0.38762 -1.01675,0.62502 -1.65008,0.62502 v 0.0318 c -0.1012,-0.0201 -0.20502,-0.0318 -0.31253,-0.0318 h -14.37469 c -0.86311,0 -1.56318,0.69943 -1.56318,1.56247 v 1.87439 c 0,0.86311 0.70007,1.56253 1.56318,1.56253 h 14.37473 c 0.73704,0 1.36658,-0.58654 1.71817,-1.03452 l 0.002,6.6e-4 C 41.024129,44.0842 41.189519,44 41.377489,44 c 0.34523,0 0.62507,0.27956 0.62507,0.62502 0,0.64818 -1.11911,1.87498 -2.5,1.87498 h -15.00129 c -1.38073,0 -2.49973,-1.11936 -2.49973,-2.5 v -2.50068 c 0,-1.3806 1.11901,-2.49939 2.49973,-2.49939 h 0.93741 13.75036 c 0.86313,0 1.56219,-0.69949 1.56219,-1.56253 v -1.87516 c 0,-0.86302 -0.69906,-1.56245 -1.56219,-1.56245 h -13.75036 -0.93741 c -1.38073,0 -2.49973,-1.11972 -2.49973,-2.49975 v -2.500289 c 0,-1.380961 1.11901,-2.499751 2.49973,-2.499751 h 15.00027 c 1.38101,0 2.5,1.11879 2.5,2.499751 v 1.875309 c 0,0.34453 -0.27985,0.62498 -0.62493,0.62498 -0.34492,0 -0.62538,-0.28045 -0.62538,-0.62498 v -1.562439 c 0,-0.86304 -0.69906,-1.563111 -1.56219,-1.563111 h -14.3748 c -0.86312,0 -1.56317,0.700071 -1.56317,1.563111 v 1.874689 c 0,0.86305 0.70004,1.56224 1.56317,1.56224 h 14.37455 c 0.10721,0 0.21121,-0.0114 0.31249,-0.0318 v 0.0318 c 0.6333,0 1.21004,0.23741 1.65007,0.62527 0.0641,0.0564 0.12489,0.11655 0.18289,0.17887 0.002,0.002 0.004,0.004 0.005,0.006 0.0541,0.059 0.10532,0.11992 0.15319,0.18372 0.006,0.007 0.0124,0.0174 0.0193,0.0251 0.0411,0.0562 0.0797,0.11417 0.11658,0.17302 0.0114,0.0182 0.0217,0.0366 0.0326,0.0541 0.0329,0.0579 0.0639,0.11661 0.0933,0.17708 0.007,0.0155 0.0155,0.0312 0.0223,0.0471 0.0264,0.0584 0.0494,0.11874 0.072,0.17979 0.008,0.0228 0.0182,0.0466 0.0251,0.0696 0.0177,0.053 0.0318,0.10791 0.046,0.16235 0.007,0.0315 0.0177,0.0609 0.0235,0.0927 0.0136,0.065 0.0249,0.13223 0.0331,0.19899 0.002,0.0188 0.005,0.0359 0.007,0.0548 0.009,0.0889 0.0152,0.17977 0.0152,0.27132 v 2.49986 c 0,0.091 -0.005,0.18188 -0.0152,0.2711 -9.4e-4,0.019 -0.005,0.0367 -0.007,0.0547 z M 22.62516,35.25083 c 0.3447,0 0.6244,0.27956 0.6244,0.62503 v 1.24915 c 0,0.34553 -0.2797,0.62567 -0.6244,0.62567 C 22.27972,37.75068 22,37.47054 22,37.12501 v -1.24915 c 0,-0.34547 0.27972,-0.62503 0.62516,-0.62503 z"
     id="path2-5-3-5"
     style="fill:#ffffff;fill-opacity:1;stroke-width:0.0390622" />
</svg>
