<?xml version="1.0" encoding="UTF-8" standalone="no"?>
<svg
   viewBox="0 0 64 64"
   version="1.1"
   id="svg12"
   sodipodi:docname="folder-comic.svg"
   inkscape:version="1.2.1 (9c6d41e410, 2022-07-14)"
   xmlns:inkscape="http://www.inkscape.org/namespaces/inkscape"
   xmlns:sodipodi="http://sodipodi.sourceforge.net/DTD/sodipodi-0.dtd"
   xmlns:xlink="http://www.w3.org/1999/xlink"
   xmlns="http://www.w3.org/2000/svg"
   xmlns:svg="http://www.w3.org/2000/svg"
   xmlns:rdf="http://www.w3.org/1999/02/22-rdf-syntax-ns#"
   xmlns:cc="http://creativecommons.org/ns#"
   xmlns:dc="http://purl.org/dc/elements/1.1/">
  <metadata
     id="metadata16">
    <rdf:RDF>
      <cc:Work
         rdf:about="">
        <dc:format>image/svg+xml</dc:format>
        <dc:type
           rdf:resource="http://purl.org/dc/dcmitype/StillImage" />
      </cc:Work>
    </rdf:RDF>
  </metadata>
  <sodipodi:namedview
     pagecolor="#ffffff"
     bordercolor="#666666"
     borderopacity="1"
     objecttolerance="10"
     gridtolerance="10"
     guidetolerance="10"
     inkscape:pageopacity="0"
     inkscape:pageshadow="2"
     inkscape:window-width="1920"
     inkscape:window-height="1002"
     id="namedview14"
     showgrid="true"
     inkscape:zoom="10.429825"
     inkscape:cx="32.934397"
     inkscape:cy="36.002522"
     inkscape:window-x="0"
     inkscape:window-y="0"
     inkscape:window-maximized="1"
     inkscape:current-layer="svg12"
     inkscape:showpageshadow="2"
     inkscape:pagecheckerboard="0"
     inkscape:deskcolor="#d1d1d1">
    <inkscape:grid
       type="xygrid"
       id="grid2873" />
  </sodipodi:namedview>
  <defs
     id="defs3051">
    <linearGradient
       inkscape:collect="always"
       id="linearGradient1530">
      <stop
         style="stop-color:#000000;stop-opacity:1;"
         offset="0"
         id="stop1526" />
      <stop
         style="stop-color:#000000;stop-opacity:0;"
         offset="1"
         id="stop1528" />
    </linearGradient>
    <style
       type="text/css"
       id="current-color-scheme">.ColorScheme-Text { color:#31363b; }
.ColorScheme-Background { color:#eff0f1; }
.ColorScheme-Highlight { color:#3daee9; }
.ColorScheme-ViewText { color:#31363b; }
.ColorScheme-ViewBackground { color:#fcfcfc; }
.ColorScheme-ViewHover { color:#93cee9; }
.ColorScheme-ViewFocus { color:#3daee9; }
.ColorScheme-ButtonText { color:#31363b; }
.ColorScheme-ButtonBackground { color:#eff0f1; }
.ColorScheme-ButtonHover { color:#93cee9; }
.ColorScheme-ButtonFocus { color:#3daee9; }
</style>
    <linearGradient
       inkscape:collect="always"
       xlink:href="#linearGradient886"
       id="linearGradient888"
       x1="75.75985"
       y1="208.49026"
       x2="91.646347"
       y2="264.21182"
       gradientUnits="userSpaceOnUse"
       gradientTransform="matrix(0.7314896,0,0,0.72862121,-27.03835,-142.51033)" />
    <linearGradient
       inkscape:collect="always"
       id="linearGradient886">
      <stop
         style="stop-color:#8d5fd3;stop-opacity:1"
         offset="0"
         id="stop882" />
      <stop
         style="stop-color:#c6afe9;stop-opacity:1;"
         offset="0.48468637"
         id="stop1402" />
      <stop
         style="stop-color:#ff80e5;stop-opacity:0.80000001;"
         offset="1"
         id="stop884" />
    </linearGradient>
    <filter
       inkscape:collect="always"
       style="color-interpolation-filters:sRGB"
       id="filter1881"
       x="-0.090648818"
       width="1.1812976"
       y="-0.40803619"
       height="1.8160724">
      <feGaussianBlur
         inkscape:collect="always"
         stdDeviation="0.85615684"
         id="feGaussianBlur1883" />
    </filter>
    <inkscape:path-effect
       effect="fillet_chamfer"
       id="path-effect1331"
       is_visible="true"
       lpeversion="1"
       satellites_param="F,0,0,1,0,2.1166667,0,1 @ F,0,0,1,0,2.1166667,0,1 @ F,0,0,1,0,2.1166667,0,1 @ F,0,0,1,0,2.1166667,0,1"
       unit="px"
       method="arc"
       mode="F"
       radius="8"
       chamfer_steps="1"
       flexible="false"
       use_knot_distance="true"
       apply_no_radius="true"
       apply_with_radius="true"
       only_selected="false"
       hide_knots="false"
       nodesatellites_param="F,0,0,1,0,2.1166667,0,1 @ F,0,0,1,0,2.1166667,0,1 @ F,0,0,1,0,2.1166667,0,1 @ F,0,0,1,0,2.1166667,0,1" />
    <linearGradient
       inkscape:collect="always"
       xlink:href="#linearGradient852"
       id="linearGradient854-7"
       x1="60.785271"
       y1="237.0743"
       x2="109.3987"
       y2="265.49255"
       gradientUnits="userSpaceOnUse"
       gradientTransform="matrix(0.7314896,0,0,0.72862121,-27.07699,-142.51033)" />
    <linearGradient
       inkscape:collect="always"
       id="linearGradient852">
      <stop
         style="stop-color:#eeaaff;stop-opacity:1"
         offset="0"
         id="stop848" />
      <stop
         style="stop-color:#8d5fd3;stop-opacity:1"
         offset="1"
         id="stop850" />
    </linearGradient>
    <linearGradient
       inkscape:collect="always"
       xlink:href="#linearGradient1530"
       id="linearGradient1532"
       x1="23"
       y1="0"
       x2="41"
       y2="48"
       gradientUnits="userSpaceOnUse" />
  </defs>
  <path
     id="rect10"
     style="fill:url(#linearGradient888);fill-opacity:1;stroke-width:0.119494"
     d="M 6.09675,9.4 C 4.38635,9.4 3,10.78103 3,12.48455 v 3.039 36.01029 c 0,1.70346 1.38635,3.08458 3.09675,3.08458 h 51.806687 c 1.7102,0 3.09648,-1.38111 3.09648,-3.08458 l -0.005,-32.68748 c -0.1316,-1.68954 0.0653,-5.59073 -5.7405,-5.59073 h -26.34703 c 0.0242,0 -1.90964,-1.73503 -3.63108,-2.76927 C 23.901067,9.59262 22.04293,9.4 22.04293,9.4 Z"
     sodipodi:nodetypes="scccscccccccs" />
  <path
     style="opacity:0.309598;fill:#000000;fill-opacity:1;stroke:none;stroke-width:0.144851;stroke-opacity:1;filter:url(#filter1881)"
     id="rect873"
     width="22.667437"
     height="5.0357642"
     x="46.507095"
     y="222.89639"
     transform="matrix(1.05206,0,0,1.4052333,-43.68288,-292.95827)"
     inkscape:path-effect="#path-effect1331"
     d="m 48.623762,222.89639 h 18.434103 a 2.1166667,2.1166667 45 0 1 2.116667,2.11667 v 0.80243 a 2.1166667,2.1166667 135 0 1 -2.116667,2.11667 l -18.434103,0 a 2.1166667,2.1166667 45 0 1 -2.116667,-2.11667 v -0.80243 a 2.1166667,2.1166667 135 0 1 2.116667,-2.11667 z"
     sodipodi:type="rect" />
  <path
     id="rect851"
     style="fill:#8d5fd3;fill-opacity:1;stroke-width:0.193144"
     d="m 28.848157,16.55348 v 3.05695 H 21.62658 c 3.566957,-0.009 4.524917,-1.0483 7.221577,-3.05695 z m 0,0 h 28.90903 c 1.70351,-0.008 3.23617,1.36199 3.24272,3.05695 H 28.848157 Z M 6.09694,19.61043 h 54.902977 v 30.96333 c 0,1.70172 -1.38628,3.08114 -3.09648,3.08114 H 6.09694 c -1.7104,0 -3.09675,-1.37942 -3.09675,-3.08114 v -27.882 c 0,-1.70181 1.38635,-3.08133 3.09675,-3.08133 z"
     sodipodi:nodetypes="cccccccccccccsccc" />
  <path
     id="rect851-3"
     style="fill:url(#linearGradient854-7);fill-opacity:1;stroke-width:0.193226"
     d="m 29.207447,17.77076 -0.0784,3.19607 -7.141887,-0.13585 c 3.567037,-0.009 4.524807,-1.04952 7.221427,-3.06022 z m 0,0 h 28.69603 c 1.70347,-0.008 3.0899,1.36335 3.09651,3.06022 l -31.87209,0.13585 z M 6.09699,20.83098 H 60.999997 V 50.5751 c 0,1.70361 -1.3863,3.08458 -3.09652,3.08457 H 6.09699 C 4.38657,53.65968 3.00022,52.27871 3.00022,50.5751 V 23.9156 c 0,-1.70354 1.38635,-3.08462 3.09677,-3.08462 z"
     sodipodi:nodetypes="cccccccccccsccssc" />
  <path
     style="opacity:0.18267131;fill:url(#linearGradient1532);fill-opacity:1;fill-rule:evenodd;stroke:none;stroke-width:3.54294px;stroke-linecap:butt;stroke-linejoin:miter;stroke-opacity:1"
     d="m 6.00011,20.8 25.963737,27.53972 h 28.96374 L 61.000087,20.8 H 6.05889 Z"
     id="path4152-2-5"
     inkscape:connector-curvature="0"
     sodipodi:nodetypes="cccccc" />
  <rect
     style="fill:#ffffff;fill-opacity:0.25;stroke:#e5e9ef;stroke-width:0.580474;stroke-opacity:0.5;paint-order:markers fill stroke"
     id="rect2191"
     width="57.5"
     height="7.2964485e-07"
     x="3.2501087"
     y="47.690235" />
  <rect
     style="fill:#ffffff;fill-opacity:0.5;stroke:#e5e9ef;stroke-width:0.580474;stroke-opacity:0.5;paint-order:markers fill stroke"
     id="rect2191-0-9"
     width="57.5"
     height="7.2964485e-07"
     x="3.2501087"
     y="50.690235" />
  <path
     fill-rule="evenodd"
     clip-rule="evenodd"
     d="m 41.214799,37.42866 c -0.39444,0 -0.7146,0.31983 -0.7146,0.71355 v 0.35753 c 0,0.98629 -0.79976,1.78575 -1.7854,1.78575 -0.39027,0 -0.750829,-0.12497 -1.04451,-0.33737 -6.49e-4,0 0,0 -6.49e-4,0 l -1.69926,-1.27403 c -0.0199,-0.0156 -0.036,-0.0269 -0.0556,-0.0423 -0.68638,-0.52111 -1.12894,-1.3462 -1.12894,-2.27504 v -1.42786 c 0,-0.9863 -0.79942,-1.78637 -1.78571,-1.78637 h -9.28531 c -0.98633,0 -1.78639,0.80007 -1.78639,1.78637 v 4.99993 c 0,0.78194 0.50607,1.43879 1.20679,1.68111 0.0277,0.0657 0.0974,0.10439 0.22202,0.10439 0.5289,0 1.42888,0.7991 1.42888,1.78538 v 0.71459 c 0,0.19677 0.15975,0.35684 0.35676,0.35684 0.0761,0 0.14544,-0.0233 0.20363,-0.0635 0.001,0 0,6.5e-4 0,6.5e-4 l 3.00383,-2.25261 c 0.44849,-0.33972 1.00761,-0.54101 1.61445,-0.54101 h 2.67819 c 0.3945,0 0.71437,0.31949 0.71437,0.71425 0,0.39375 -0.31987,0.71359 -0.71437,0.71359 h -2.50013 c -0.40838,0 -0.78556,0.13712 -1.08567,0.36909 l -2.86884,2.151521 h -6e-4 c -0.29402,0.21205 -0.65472,0.33687 -1.04482,0.33687 -0.98633,0 -1.78563,-0.79908 -1.78563,-1.785361 v -0.35787 c 0,-0.39364 -0.31963,-0.71425 -0.71431,-0.71425 -0.0789,0 -0.0959,-0.0458 -0.0754,-0.11374 C 21.37417,42.68631 20.5,41.58949 20.5,40.28583 v -5.71419 c 0,-1.5782 1.27875,-2.85684 2.85674,-2.85684 h 10.00012 c 1.5778,0 2.85743,1.27868 2.85743,2.85684 v 1.78525 c 0,0.46844 0.22503,0.88417 0.57277,1.14474 l 1.7232,1.29248 c 9.7e-4,0 -6.7e-4,-6.7e-4 0,-6.7e-4 0.0581,0.0401 0.12836,0.0631 0.20401,0.0631 0.19711,0 0.35685,-0.15967 0.35685,-0.35673 v -0.71425 c 0,-0.98633 0.89979,-1.78572 1.42857,-1.78572 0.68879,0 1.42816,-0.79904 1.42816,-1.78533 v -4.99995 c 0,-0.98665 -0.79897,-1.7857 -1.78538,-1.7857 h -9.285791 c -0.986339,0 -1.78548,0.79905 -1.78548,1.7857 v 0.35684 c 0,0.39443 -0.31964,0.71428 -0.71454,0.71428 -0.3946,0 -0.71427,-0.31985 -0.71427,-0.71428 v -0.7147 c 0,-1.57784 1.27953,-2.8567 2.85753,-2.8567 h 9.99977 c 1.57816,0 2.85709,1.27886 2.85709,2.8567 v 5.71461 c 0,1.57784 -1.13037,2.8574 -2.14252,2.8574 z m -5.714579,2.85683 c 0.394099,0 0.714619,0.31982 0.714619,0.71425 0,0.39474 -0.32052,0.71458 -0.714619,0.71458 -0.39438,0 -0.714281,-0.31984 -0.714281,-0.71458 0,-0.39443 0.319901,-0.71425 0.714281,-0.71425 z"
     id="path1947-1-3"
     style="fill:#ffffff;fill-opacity:1;stroke-width:0.0446418" />
</svg>
