<?xml version="1.0" encoding="UTF-8" standalone="no"?>
<svg
   id="svg2"
   height="64"
   version="1.1"
   width="64"
   sodipodi:docname="folder-encrypted.svg"
   inkscape:version="1.2.1 (9c6d41e410, 2022-07-14)"
   xmlns:inkscape="http://www.inkscape.org/namespaces/inkscape"
   xmlns:sodipodi="http://sodipodi.sourceforge.net/DTD/sodipodi-0.dtd"
   xmlns:xlink="http://www.w3.org/1999/xlink"
   xmlns="http://www.w3.org/2000/svg"
   xmlns:svg="http://www.w3.org/2000/svg"
   xmlns:rdf="http://www.w3.org/1999/02/22-rdf-syntax-ns#"
   xmlns:cc="http://creativecommons.org/ns#"
   xmlns:dc="http://purl.org/dc/elements/1.1/">
  <style
     type="text/css"
     id="current-color-scheme">.ColorScheme-Highlight {
    color:#3daee9;
}
</style>
  <sodipodi:namedview
     id="namedview16607"
     pagecolor="#ffffff"
     bordercolor="#666666"
     borderopacity="1.0"
     inkscape:showpageshadow="2"
     inkscape:pageopacity="0.0"
     inkscape:pagecheckerboard="0"
     inkscape:deskcolor="#d1d1d1"
     showgrid="true"
     inkscape:zoom="10.429825"
     inkscape:cx="36.0984"
     inkscape:cy="34.37258"
     inkscape:window-width="1920"
     inkscape:window-height="1004"
     inkscape:window-x="0"
     inkscape:window-y="0"
     inkscape:window-maximized="1"
     inkscape:current-layer="svg2">
    <inkscape:grid
       type="xygrid"
       id="grid2056" />
  </sodipodi:namedview>
  <defs
     id="defs5455">
    <linearGradient
       id="linearGradient4172-5">
      <stop
         id="stop4174-6"
         style="stop-color:#3e3e3e" />
      <stop
         id="stop4176-6"
         style="stop-color:#494949"
         offset="1" />
    </linearGradient>
    <linearGradient
       gradientTransform="matrix(1,0,0,0.99967455,-476.55062,-569.94068)"
       x2="0"
       gradientUnits="userSpaceOnUse"
       y2="499.78421"
       y1="541.79797"
       xlink:href="#linearGradient4172-5"
       id="linearGradient4178-3-3" />
    <linearGradient
       inkscape:collect="always"
       xlink:href="#linearGradient4393"
       id="linearGradient668"
       gradientUnits="userSpaceOnUse"
       gradientTransform="matrix(3.6204685,0,0,3.4670854,-16.113505,-3658.5044)"
       x1="5"
       y1="1037.3622"
       x2="8"
       y2="1051.3622" />
    <linearGradient
       inkscape:collect="always"
       id="linearGradient4393">
      <stop
         style="stop-color:#000000;stop-opacity:1;"
         offset="0"
         id="stop4395" />
      <stop
         style="stop-color:#000000;stop-opacity:0;"
         offset="1"
         id="stop4397" />
    </linearGradient>
    <linearGradient
       inkscape:collect="always"
       xlink:href="#linearGradient886"
       id="linearGradient888"
       x1="75.75985"
       y1="208.49026"
       x2="91.646347"
       y2="264.21182"
       gradientUnits="userSpaceOnUse"
       gradientTransform="matrix(0.7314896,0,0,0.72862121,-27.038349,-142.51033)" />
    <linearGradient
       inkscape:collect="always"
       id="linearGradient886">
      <stop
         style="stop-color:#4c566a;stop-opacity:1;"
         offset="0"
         id="stop882" />
      <stop
         style="stop-color:#8892aa;stop-opacity:1;"
         offset="0.48468637"
         id="stop1402" />
      <stop
         style="stop-color:#5c7094;stop-opacity:1;"
         offset="1"
         id="stop884" />
    </linearGradient>
    <inkscape:path-effect
       effect="fillet_chamfer"
       id="path-effect1331"
       is_visible="true"
       lpeversion="1"
       satellites_param="F,0,0,1,0,2.1166667,0,1 @ F,0,0,1,0,2.1166667,0,1 @ F,0,0,1,0,2.1166667,0,1 @ F,0,0,1,0,2.1166667,0,1"
       unit="px"
       method="arc"
       mode="F"
       radius="8"
       chamfer_steps="1"
       flexible="false"
       use_knot_distance="true"
       apply_no_radius="true"
       apply_with_radius="true"
       only_selected="false"
       hide_knots="false"
       nodesatellites_param="F,0,0,1,0,2.1166667,0,1 @ F,0,0,1,0,2.1166667,0,1 @ F,0,0,1,0,2.1166667,0,1 @ F,0,0,1,0,2.1166667,0,1" />
    <linearGradient
       inkscape:collect="always"
       xlink:href="#linearGradient852"
       id="linearGradient854-7"
       x1="76.788559"
       y1="222.65123"
       x2="92.097359"
       y2="268.94839"
       gradientUnits="userSpaceOnUse"
       gradientTransform="matrix(0.7314896,0,0,0.72862121,-27.076989,-142.51033)" />
    <linearGradient
       inkscape:collect="always"
       id="linearGradient852">
      <stop
         style="stop-color:#8893aa;stop-opacity:1;"
         offset="0"
         id="stop848" />
      <stop
         style="stop-color:#4c566a;stop-opacity:1;"
         offset="1"
         id="stop850" />
    </linearGradient>
    <linearGradient
       inkscape:collect="always"
       xlink:href="#linearGradient4393"
       id="linearGradient668-3"
       gradientUnits="userSpaceOnUse"
       gradientTransform="matrix(3.6204685,0,0,3.4670854,3,-3596.8227)"
       x1="5"
       y1="1037.3622"
       x2="8"
       y2="1051.3622" />
  </defs>
  <metadata
     id="metadata5458">
    <rdf:RDF>
      <cc:Work
         rdf:about="">
        <dc:format>image/svg+xml</dc:format>
        <dc:type
           rdf:resource="http://purl.org/dc/dcmitype/StillImage" />
      </cc:Work>
    </rdf:RDF>
  </metadata>
  <path
     inkscape:connector-curvature="0"
     style="fill:currentColor;fill-opacity:1;stroke-width:3.54293"
     id="rect4180-6-7"
     d="m -15.113545,-35.881707 h 55.999586 l 4.1e-4,-18.6 c 0,-2 -2.1,-3.9 -4.1,-3.9 l -23.90021,-0.03333 -3.6249798,-3.46667 H -11.113575 c -1.999985,0 -3.99997,2 -3.99997,4 z"
     sodipodi:nodetypes="ccccccccc"
     class="ColorScheme-Highlight " />
  <path
     inkscape:connector-curvature="0"
     style="fill:#3e3e3e;fill-opacity:1;stroke-width:3.54294"
     d="m -16.113545,-44.881707 c 0,-11.262012 0,2.953607 0,3.93041 v 27.06959 c 0,2 2,4 4,4 h 49.999996 c 2,0 4,-2 4,-4 v -34 c 0,-1 -1,-2 -2,-2 H 5.8864512 l -4.99999602,4 H -15.113545 c -1,0 -1,1 -1,1 z"
     id="rect4113-2-5"
     sodipodi:nodetypes="cccscccccccc" />
  <path
     inkscape:connector-curvature="0"
     style="opacity:0.3;fill:#0f608a;fill-opacity:1;fill-rule:evenodd;stroke-width:1.77147"
     id="path4224-9-3"
     d="m -15.113545,-45.881707 v 0 h 2 14.00000018 l 4.99999602,-4 v 0 l -5.59999602,3 H -14.095442 c -1.018103,0 -1.018103,1 -1.018103,1 z"
     sodipodi:nodetypes="ccccccccc" />
  <path
     inkscape:connector-curvature="0"
     style="color:#31363b;opacity:0.3;fill:#ffffff;fill-opacity:1;fill-rule:evenodd;stroke-width:3.54294"
     id="path4196-3-5"
     d="m 9.2614112,-61.881707 3.6250598,5.5 h 27.34998 c -0.33,-0.5 -1.35,-2 -3.75,-2 l -23.60003,-0.03226 z"
     sodipodi:nodetypes="cccccc"
     class="ColorScheme-Text" />
  <path
     style="opacity:0.181;fill:url(#linearGradient668);fill-opacity:1;fill-rule:evenodd;stroke:none;stroke-width:3.54294px;stroke-linecap:butt;stroke-linejoin:miter;stroke-opacity:1"
     d="m -16.113545,-40.881707 28.963736,27.53972 h 28.96374 l 0.0725,-27.53972 z"
     id="path4152-2"
     inkscape:connector-curvature="0"
     sodipodi:nodetypes="ccccc" />
  <path
     id="rect10"
     style="fill:url(#linearGradient888);fill-opacity:1;stroke-width:0.119494"
     d="M 6.09675,9.4 C 4.38635,9.4 3,10.78103 3,12.48455 v 3.039 36.01029 c 0,1.70346 1.38635,3.08458 3.09675,3.08458 h 51.80669 c 1.7102,0 3.09648,-1.38111 3.09648,-3.08458 l -0.005,-32.68748 c -0.1316,-1.68954 0.0653,-5.59073 -5.7405,-5.59073 H 28.90739 c 0.0242,0 -1.90964,-1.73503 -3.63108,-2.76927 C 23.90107,9.59262 22.04293,9.4 22.04293,9.4 Z"
     sodipodi:nodetypes="scccscccccccs" />
  <path
     id="rect851"
     style="fill:#4c566a;fill-opacity:1;stroke-width:0.193144"
     d="m 28.84816,16.55348 v 3.05695 h -7.22158 c 3.56696,-0.009 4.52492,-1.0483 7.22158,-3.05695 z m 0,0 h 28.90903 c 1.70351,-0.008 3.23617,1.36199 3.24272,3.05695 H 28.84816 Z M 6.09694,19.61043 h 54.90298 v 30.96333 c 0,1.70172 -1.38628,3.08114 -3.09648,3.08114 H 6.09694 c -1.7104,0 -3.09675,-1.37942 -3.09675,-3.08114 v -27.882 c 0,-1.70181 1.38635,-3.08133 3.09675,-3.08133 z"
     sodipodi:nodetypes="cccccccccccccsccc" />
  <path
     id="rect851-3"
     style="fill:url(#linearGradient854-7);fill-opacity:1;stroke-width:0.193226"
     d="m 29.20745,17.77076 -0.0784,3.19607 -7.14189,-0.13585 c 3.56704,-0.009 4.52481,-1.04952 7.22143,-3.06022 z m 0,0 h 28.69603 c 1.70347,-0.008 3.0899,1.36335 3.09651,3.06022 L 29.1279,20.96683 Z M 6.09699,20.83098 H 61 V 50.5751 c 0,1.70361 -1.3863,3.08458 -3.09652,3.08457 H 6.09699 C 4.38657,53.65968 3.00022,52.27871 3.00022,50.5751 V 23.9156 c 0,-1.70354 1.38635,-3.08462 3.09677,-3.08462 z"
     sodipodi:nodetypes="cccccccccccsccssc" />
  <rect
     style="fill:#ffffff;fill-opacity:0.25;stroke:#e5e9ef;stroke-width:0.580474;stroke-opacity:0.5;paint-order:markers fill stroke"
     id="rect2191"
     width="57.5"
     height="7.2964485e-07"
     x="3.2499609"
     y="47.690235" />
  <rect
     style="fill:#ffffff;fill-opacity:0.5;stroke:#e5e9ef;stroke-width:0.580474;stroke-opacity:0.5;paint-order:markers fill stroke"
     id="rect2191-0-9"
     width="57.5"
     height="7.2964485e-07"
     x="3.2499609"
     y="50.690235" />
  <path
     style="opacity:0.181;fill:url(#linearGradient668-3);fill-opacity:1;fill-rule:evenodd;stroke:none;stroke-width:3.54294px;stroke-linecap:butt;stroke-linejoin:miter;stroke-opacity:1"
     d="M 5.99996,20.8 31.9637,48.33972 H 60.92744 L 60.99994,20.8 H 6.05874 Z"
     id="path4152-2-5"
     inkscape:connector-curvature="0"
     sodipodi:nodetypes="cccccc" />
  <rect
     y="43.236931"
     x="3.3"
     height="4"
     width="2.953449"
     id="rect4179-71-2-0-7"
     style="opacity:0.6;fill:#b7c4c8;fill-opacity:1;stroke:none;stroke-width:1.98442;stroke-miterlimit:4;stroke-dasharray:none;stroke-opacity:1" />
  <rect
     y="43.236931"
     x="10.191382"
     height="4"
     width="3.937932"
     id="rect4179-5-7-6-3-5"
     style="opacity:0.6;fill:#b7c4c8;fill-opacity:1;stroke:none;stroke-width:1.98442;stroke-miterlimit:4;stroke-dasharray:none;stroke-opacity:1" />
  <rect
     y="43.236931"
     x="18.067247"
     height="4"
     width="3.937932"
     id="rect4179-5-6-27-7-6-3"
     style="opacity:0.6;fill:#b7c4c8;fill-opacity:1;stroke:none;stroke-width:1.98442;stroke-miterlimit:4;stroke-dasharray:none;stroke-opacity:1" />
  <rect
     y="43.236931"
     x="25.943119"
     height="4"
     width="3.937932"
     id="rect4179-5-6-2-22-5-1-5"
     style="opacity:0.6;fill:#b7c4c8;fill-opacity:1;stroke:none;stroke-width:1.98442;stroke-miterlimit:4;stroke-dasharray:none;stroke-opacity:1" />
  <rect
     y="43.236931"
     x="33.818989"
     height="4"
     width="3.937932"
     id="rect4179-5-6-2-9-6-6-0-6"
     style="opacity:0.6;fill:#b7c4c8;fill-opacity:1;stroke:none;stroke-width:1.98442;stroke-miterlimit:4;stroke-dasharray:none;stroke-opacity:1" />
  <rect
     y="43.236931"
     x="41.694843"
     height="4"
     width="3.937932"
     id="rect4179-5-6-2-9-1-1-9-6-2"
     style="opacity:0.6;fill:#b7c4c8;fill-opacity:1;stroke:none;stroke-width:1.98442;stroke-miterlimit:4;stroke-dasharray:none;stroke-opacity:1" />
  <rect
     y="43.236931"
     x="49.570705"
     height="4"
     width="3.937932"
     id="rect4179-5-6-2-9-1-2-0-8-3-9"
     style="opacity:0.6;fill:#b7c4c8;fill-opacity:1;stroke:none;stroke-width:1.98442;stroke-miterlimit:4;stroke-dasharray:none;stroke-opacity:1" />
  <rect
     y="43.236931"
     x="57.446564"
     height="4"
     width="2.9534316"
     id="rect4179-5-6-2-9-1-2-7-6-7-2-1"
     style="opacity:0.6;fill:#b7c4c8;fill-opacity:1;stroke:none;stroke-width:1.98442;stroke-miterlimit:4;stroke-dasharray:none;stroke-opacity:1" />
  <rect
     y="39.236935"
     x="6.2534504"
     height="4"
     width="3.937932"
     id="rect4179-2-1-2-0-2"
     style="opacity:0.6;fill:#b7c4c8;fill-opacity:1;stroke:none;stroke-width:1.98442;stroke-miterlimit:4;stroke-dasharray:none;stroke-opacity:1" />
  <rect
     y="39.236935"
     x="14.129312"
     height="4"
     width="3.937932"
     id="rect4179-5-61-5-8-6-7"
     style="opacity:0.6;fill:#b7c4c8;fill-opacity:1;stroke:none;stroke-width:1.98442;stroke-miterlimit:4;stroke-dasharray:none;stroke-opacity:1" />
  <rect
     y="39.236935"
     x="22.005177"
     height="4"
     width="3.937932"
     id="rect4179-5-6-8-9-2-1-0"
     style="opacity:0.6;fill:#b7c4c8;fill-opacity:1;stroke:none;stroke-width:1.98442;stroke-miterlimit:4;stroke-dasharray:none;stroke-opacity:1" />
  <rect
     y="39.236935"
     x="29.881048"
     height="4"
     width="3.937932"
     id="rect4179-5-6-2-7-4-9-5-9"
     style="opacity:0.6;fill:#b7c4c8;fill-opacity:1;stroke:none;stroke-width:1.98442;stroke-miterlimit:4;stroke-dasharray:none;stroke-opacity:1" />
  <rect
     y="39.236935"
     x="37.756912"
     height="4"
     width="3.937932"
     id="rect4179-5-6-2-9-9-9-9-5-3"
     style="opacity:0.6;fill:#b7c4c8;fill-opacity:1;stroke:none;stroke-width:1.98442;stroke-miterlimit:4;stroke-dasharray:none;stroke-opacity:1" />
  <rect
     y="39.236935"
     x="45.632763"
     height="4"
     width="3.937932"
     id="rect4179-5-6-2-9-1-20-0-6-4-6"
     style="opacity:0.6;fill:#b7c4c8;fill-opacity:1;stroke:none;stroke-width:1.98442;stroke-miterlimit:4;stroke-dasharray:none;stroke-opacity:1" />
  <rect
     y="39.236935"
     x="53.508633"
     height="4"
     width="3.937932"
     id="rect4179-5-6-2-9-1-2-2-9-0-7-0"
     style="opacity:0.6;fill:#b7c4c8;fill-opacity:1;stroke:none;stroke-width:1.98442;stroke-miterlimit:4;stroke-dasharray:none;stroke-opacity:1" />
  <rect
     y="35.236935"
     x="3.3"
     height="4"
     width="2.953449"
     id="rect4179-7-1-2-6-6"
     style="opacity:0.6;fill:#b7c4c8;fill-opacity:1;stroke:none;stroke-width:1.98442;stroke-miterlimit:4;stroke-dasharray:none;stroke-opacity:1" />
  <rect
     y="35.236935"
     x="10.191382"
     height="4"
     width="3.937932"
     id="rect4179-5-5-7-7-5-2"
     style="opacity:0.6;fill:#b7c4c8;fill-opacity:1;stroke:none;stroke-width:1.98442;stroke-miterlimit:4;stroke-dasharray:none;stroke-opacity:1" />
  <rect
     y="35.236935"
     x="18.067247"
     height="4"
     width="3.937932"
     id="rect4179-5-6-9-7-6-6-6"
     style="opacity:0.6;fill:#b7c4c8;fill-opacity:1;stroke:none;stroke-width:1.98442;stroke-miterlimit:4;stroke-dasharray:none;stroke-opacity:1" />
  <rect
     y="35.236935"
     x="25.943119"
     height="4"
     width="3.937932"
     id="rect4179-5-6-2-2-1-1-9-1"
     style="opacity:0.6;fill:#b7c4c8;fill-opacity:1;stroke:none;stroke-width:1.98442;stroke-miterlimit:4;stroke-dasharray:none;stroke-opacity:1" />
  <rect
     y="35.236935"
     x="33.818989"
     height="4"
     width="3.937932"
     id="rect4179-5-6-2-9-2-1-3-3-8"
     style="opacity:0.6;fill:#b7c4c8;fill-opacity:1;stroke:none;stroke-width:1.98442;stroke-miterlimit:4;stroke-dasharray:none;stroke-opacity:1" />
  <rect
     y="35.236935"
     x="41.694843"
     height="4"
     width="3.937932"
     id="rect4179-5-6-2-9-1-8-5-2-7-7"
     style="opacity:0.6;fill:#b7c4c8;fill-opacity:1;stroke:none;stroke-width:1.98442;stroke-miterlimit:4;stroke-dasharray:none;stroke-opacity:1" />
  <rect
     y="35.236935"
     x="49.570705"
     height="4"
     width="3.937932"
     id="rect4179-5-6-2-9-1-2-9-9-1-4-9"
     style="opacity:0.6;fill:#b7c4c8;fill-opacity:1;stroke:none;stroke-width:1.98442;stroke-miterlimit:4;stroke-dasharray:none;stroke-opacity:1" />
  <rect
     y="35.236935"
     x="57.446564"
     height="4"
     width="2.9534316"
     id="rect4179-5-6-2-9-1-2-7-7-7-5-5-2"
     style="opacity:0.6;fill:#b7c4c8;fill-opacity:1;stroke:none;stroke-width:1.98442;stroke-miterlimit:4;stroke-dasharray:none;stroke-opacity:1" />
  <path
     style="fill:#ffffff;fill-opacity:1"
     d="m 31.85001,28 c -2.77,0 -5,2.23 -5,5 v 4 h -3 v 2 7 h 16.000002 v -9 h -1.75 -1.25 v -4 c 0,-2.77 -2.22999,-5 -5.000002,-5 z m 0,1 c 2.077502,0 4.000002,1.57625 4.000002,4 v 4 H 27.85001 v -4 c 0,-2.42375 1.92251,-4 4,-4 z m -7,9 h 14.000002 v 7 H 24.85001 Z"
     id="rect4136-9-5-2-0-2" />
</svg>
