<?xml version="1.0" encoding="UTF-8" standalone="no"?>
<svg
   viewBox="0 0 64 64"
   version="1.1"
   id="svg14"
   sodipodi:docname="folder_html.svg"
   inkscape:version="1.2.1 (9c6d41e410, 2022-07-14)"
   xmlns:inkscape="http://www.inkscape.org/namespaces/inkscape"
   xmlns:sodipodi="http://sodipodi.sourceforge.net/DTD/sodipodi-0.dtd"
   xmlns:xlink="http://www.w3.org/1999/xlink"
   xmlns="http://www.w3.org/2000/svg"
   xmlns:svg="http://www.w3.org/2000/svg"
   xmlns:rdf="http://www.w3.org/1999/02/22-rdf-syntax-ns#"
   xmlns:cc="http://creativecommons.org/ns#"
   xmlns:dc="http://purl.org/dc/elements/1.1/">
  <metadata
     id="metadata18">
    <rdf:RDF>
      <cc:Work
         rdf:about="">
        <dc:format>image/svg+xml</dc:format>
        <dc:type
           rdf:resource="http://purl.org/dc/dcmitype/StillImage" />
      </cc:Work>
    </rdf:RDF>
  </metadata>
  <sodipodi:namedview
     pagecolor="#ffffff"
     bordercolor="#666666"
     borderopacity="1"
     objecttolerance="10"
     gridtolerance="10"
     guidetolerance="10"
     inkscape:pageopacity="0"
     inkscape:pageshadow="2"
     inkscape:window-width="1920"
     inkscape:window-height="1002"
     id="namedview16"
     showgrid="true"
     inkscape:zoom="10.429825"
     inkscape:cx="27.661059"
     inkscape:cy="41.947012"
     inkscape:window-x="0"
     inkscape:window-y="0"
     inkscape:window-maximized="1"
     inkscape:current-layer="svg14"
     inkscape:showpageshadow="2"
     inkscape:pagecheckerboard="0"
     inkscape:deskcolor="#d1d1d1">
    <inkscape:grid
       type="xygrid"
       id="grid1132" />
  </sodipodi:namedview>
  <defs
     id="defs3051">
    <linearGradient
       inkscape:collect="always"
       id="linearGradient2781">
      <stop
         style="stop-color:#ffccaa;stop-opacity:1"
         offset="0"
         id="stop2775" />
      <stop
         style="stop-color:#ffb380;stop-opacity:1"
         offset="0.48468637"
         id="stop2777" />
      <stop
         style="stop-color:#d35f5f;stop-opacity:1"
         offset="1"
         id="stop2779" />
    </linearGradient>
    <style
       type="text/css"
       id="current-color-scheme">.ColorScheme-Text { color:#31363b; }
.ColorScheme-Background { color:#eff0f1; }
.ColorScheme-Highlight { color:#3daee9; }
.ColorScheme-ViewText { color:#31363b; }
.ColorScheme-ViewBackground { color:#fcfcfc; }
.ColorScheme-ViewHover { color:#93cee9; }
.ColorScheme-ViewFocus { color:#3daee9; }
.ColorScheme-ButtonText { color:#31363b; }
.ColorScheme-ButtonBackground { color:#eff0f1; }
.ColorScheme-ButtonHover { color:#93cee9; }
.ColorScheme-ButtonFocus { color:#3daee9; }
</style>
    <linearGradient
       inkscape:collect="always"
       xlink:href="#linearGradient4393"
       id="linearGradient668"
       gradientUnits="userSpaceOnUse"
       gradientTransform="matrix(3.6204685,0,0,3.4670854,4.968792,-3685.8602)"
       x1="5"
       y1="1037.3622"
       x2="8"
       y2="1051.3622" />
    <linearGradient
       inkscape:collect="always"
       id="linearGradient4393">
      <stop
         style="stop-color:#000000;stop-opacity:1;"
         offset="0"
         id="stop4395" />
      <stop
         style="stop-color:#000000;stop-opacity:0;"
         offset="1"
         id="stop4397" />
    </linearGradient>
    <linearGradient
       inkscape:collect="always"
       xlink:href="#linearGradient886"
       id="linearGradient888-3"
       x1="75.75985"
       y1="208.49026"
       x2="91.646347"
       y2="264.21182"
       gradientUnits="userSpaceOnUse"
       gradientTransform="matrix(0.7314896,0,0,0.72862121,-27.03835,-142.51033)" />
    <linearGradient
       inkscape:collect="always"
       id="linearGradient886">
      <stop
         style="stop-color:#ff8080;stop-opacity:1"
         offset="0"
         id="stop882" />
      <stop
         style="stop-color:#ffb380;stop-opacity:1"
         offset="0.48468637"
         id="stop1402" />
      <stop
         style="stop-color:#ffb380;stop-opacity:1"
         offset="1"
         id="stop884" />
    </linearGradient>
    <filter
       inkscape:collect="always"
       style="color-interpolation-filters:sRGB"
       id="filter1881-6"
       x="-0.09064882"
       width="1.1812976"
       y="-0.40803665"
       height="1.8160733">
      <feGaussianBlur
         inkscape:collect="always"
         stdDeviation="0.85615684"
         id="feGaussianBlur1883-7" />
    </filter>
    <inkscape:path-effect
       effect="fillet_chamfer"
       id="path-effect1331-5"
       is_visible="true"
       lpeversion="1"
       satellites_param="F,0,0,1,0,2.1166667,0,1 @ F,0,0,1,0,2.1166667,0,1 @ F,0,0,1,0,2.1166667,0,1 @ F,0,0,1,0,2.1166667,0,1"
       unit="px"
       method="arc"
       mode="F"
       radius="8"
       chamfer_steps="1"
       flexible="false"
       use_knot_distance="true"
       apply_no_radius="true"
       apply_with_radius="true"
       only_selected="false"
       hide_knots="false"
       nodesatellites_param="F,0,0,1,0,2.1166667,0,1 @ F,0,0,1,0,2.1166667,0,1 @ F,0,0,1,0,2.1166667,0,1 @ F,0,0,1,0,2.1166667,0,1" />
    <linearGradient
       inkscape:collect="always"
       xlink:href="#linearGradient2781"
       id="linearGradient854-7-3"
       x1="76.788559"
       y1="222.65123"
       x2="92.097359"
       y2="268.94839"
       gradientUnits="userSpaceOnUse"
       gradientTransform="matrix(0.7314896,0,0,0.72862121,-27.07699,-142.51033)" />
    <linearGradient
       inkscape:collect="always"
       xlink:href="#linearGradient4393"
       id="linearGradient668-5"
       gradientUnits="userSpaceOnUse"
       gradientTransform="matrix(3.6204685,0,0,3.4670854,3.00004,-3596.8227)"
       x1="5"
       y1="1037.3622"
       x2="8"
       y2="1051.3622" />
  </defs>
  <path
     inkscape:connector-curvature="0"
     style="fill:currentColor;fill-opacity:1;stroke-width:3.54293"
     id="rect4180-6-7"
     d="m 5.968752,-63.2375 h 55.999586 l 4.1e-4,-18.6 c 0,-2 -2.1,-3.9 -4.1,-3.9 l -23.900206,-0.03333 -3.62498,-3.46667 H 9.968722 c -1.99998,0 -3.99997,2 -3.99997,4 z"
     sodipodi:nodetypes="ccccccccc"
     class="ColorScheme-Highlight" />
  <path
     inkscape:connector-curvature="0"
     style="fill:#a1b4ba;fill-opacity:1;stroke-width:3.54294"
     d="m 4.968752,-72.2375 c 0,-11.262012 0,2.953607 0,3.93041 v 27.06959 c 0,2 2,4 4,4 h 49.999996 c 2,0 4,-2 4,-4 v -34 c 0,-1 -1,-2 -2,-2 H 26.968752 l -5,4 h -16 c -1,0 -1,1 -1,1 z"
     id="rect4113-2-5"
     sodipodi:nodetypes="cccscccccccc" />
  <path
     inkscape:connector-curvature="0"
     style="opacity:0.3;fill:#0f608a;fill-opacity:1;fill-rule:evenodd;stroke-width:1.77147"
     id="path4224-9-3"
     d="m 5.968752,-73.2375 v 0 h 2 14 l 5,-4 v 0 l -5.6,3 h -14.3819 c -1.0181,0 -1.0181,1 -1.0181,1 z"
     sodipodi:nodetypes="ccccccccc" />
  <path
     inkscape:connector-curvature="0"
     style="color:#31363b;opacity:0.3;fill:#ffffff;fill-opacity:1;fill-rule:evenodd;stroke-width:3.54294"
     id="path4196-3-5"
     d="m 30.343712,-89.2375 3.62506,5.5 h 27.349976 c -0.33,-0.5 -1.35,-2 -3.75,-2 l -23.600026,-0.03226 z"
     sodipodi:nodetypes="cccccc"
     class="ColorScheme-Text" />
  <path
     style="color:#000000;clip-rule:nonzero;display:inline;overflow:visible;visibility:visible;opacity:0.2;isolation:auto;mix-blend-mode:normal;color-interpolation:sRGB;color-interpolation-filters:linearRGB;solid-color:#000000;solid-opacity:1;fill:#000000;fill-opacity:1;fill-rule:nonzero;stroke:none;stroke-width:3.54294;stroke-linecap:butt;stroke-linejoin:miter;stroke-miterlimit:4;stroke-dasharray:none;stroke-dashoffset:0;stroke-opacity:1;marker:none;color-rendering:auto;image-rendering:auto;shape-rendering:auto;text-rendering:auto;enable-background:accumulate"
     d="m 4.968752,-44.12459 v 2.88709 c 0,2 2,4 4,4 h 49.999996 c 2,0 4,-2 4,-4 l -0.009,-2.82577 c -0.024,1.78743 -1.88271,3.39324 -3.69826,3.35853 H 8.610802 c -1.80475,0 -3.64147,-1.66854 -3.64147,-3.41985 z"
     id="path9304-6"
     inkscape:connector-curvature="0"
     sodipodi:nodetypes="cssccccscc" />
  <path
     style="opacity:0.181;fill:url(#linearGradient668);fill-opacity:1;fill-rule:evenodd;stroke:none;stroke-width:3.54294px;stroke-linecap:butt;stroke-linejoin:miter;stroke-opacity:1"
     d="m 4.968752,-68.2375 28.96374,27.53972 h 28.963736 l 0.0725,-27.53972 z"
     id="path4152-2"
     inkscape:connector-curvature="0"
     sodipodi:nodetypes="ccccc" />
  <path
     style="color:#eff0f1;fill:#00313c;fill-opacity:1;stroke:none"
     d="m 33.96875,-68.4375 c -0.34625,0 -0.694263,0.02848 -1.03125,0.0625 -0.673975,0.06804 -1.310479,0.180791 -1.9375,0.375 -3.135107,0.971045 -5.622705,3.458643 -6.59375,6.59375 -0.194209,0.627021 -0.306963,1.263525 -0.375,1.9375 -0.03402,0.336987 -0.0625,0.685 -0.0625,1.03125 0,0.34625 0.02848,0.694263 0.0625,1.03125 0.06804,0.673975 0.180791,1.310479 0.375,1.9375 0.971045,3.135107 3.458643,5.622705 6.59375,6.59375 0.627021,0.194209 1.263525,0.306963 1.9375,0.375 0.336987,0.03402 0.685,0.0625 1.03125,0.0625 0.34625,0 0.694263,-0.02848 1.03125,-0.0625 0.673975,-0.06804 1.310479,-0.180791 1.9375,-0.375 0.626259,-0.194787 1.245727,-0.47336 1.8125,-0.78125 2.267461,-1.228711 4.004414,-3.304414 4.78125,-5.8125 0.194209,-0.627021 0.306963,-1.263525 0.375,-1.9375 0.03402,-0.336987 0.0625,-0.685 0.0625,-1.03125 0,-0.345178 -0.02836,-0.695079 -0.0625,-1.03125 -0.06804,-0.673975 -0.180791,-1.310479 -0.375,-1.9375 -0.388418,-1.254043 -1.029863,-2.419238 -1.84375,-3.40625 C 41.483706,-65.059441 41.257456,-65.273794 41.03125,-65.5 40.1275,-66.40375 39.072187,-67.151562 37.875,-67.65625 37.575904,-67.782757 37.25063,-67.902607 36.9375,-68 36.310479,-68.194209 35.673975,-68.306963 35,-68.375 c -0.336987,-0.03402 -0.685,-0.0625 -1.03125,-0.0625 z m 0,1 c 1.513307,0 2.935817,0.371409 4.1875,1.03125 0.03308,0.01744 0.06091,0.04466 0.09375,0.0625 0.02534,0.03353 0.01798,0.06921 0.0625,0.09375 0.0327,0.0182 0.06295,0.0462 0.09375,0.0625 0.0527,0.0291 0.10465,0.07405 0.09375,0.125 -0.0145,0.0745 -0.1366,0.07044 -0.1875,0.125 0.007,0.10542 -0.0353,0.08537 -0.0625,0.15625 0.0164,0.0455 0.0553,0.03925 0.0625,0.09375 -0.009,0.0582 -0.08435,0.06503 -0.0625,0.125 0.0982,0.0764 0.18853,0.0127 0.28125,0 0.20362,-0.0255 0.37455,0.0044 0.5,-0.09375 -0.01325,-0.07778 0.06106,-0.1 0.09375,-0.15625 0.06637,0.04653 0.122459,0.107991 0.1875,0.15625 -0.0382,0.0164 -0.1217,0.0407 -0.15625,0.0625 -0.0509,0.0345 -0.06677,0.08684 -0.125,0.125 -0.0418,0.0291 -0.14386,0.125 -0.1875,0.125 -0.0527,0 -0.14932,-0.04395 -0.1875,-0.03125 -0.0546,0.0164 -0.03205,0.10319 -0.09375,0.125 -0.11999,0.0436 -0.33319,-0.1174 -0.375,0.0625 0.0509,0.1036 0.2216,0.06867 0.3125,0.125 0.0564,0.0364 0.14171,0.21945 0.15625,0.28125 0.0145,0.0509 0.0218,0.22673 0,0.28125 -0.0564,0.1454 -0.20775,0.12864 -0.375,0.125 -0.0455,0 -0.08315,0.004 -0.125,0 -0.28179,-0.0182 -0.56023,-0.10798 -0.6875,0.09375 0.009,0.15449 0.0346,0.2405 0,0.375 -0.0254,0.0981 -0.13046,0.16457 -0.125,0.25 0.002,0.0436 0.08285,0.12751 0.09375,0.1875 0.007,0.0327 -0.0146,0.09597 0,0.125 0.0473,0.0891 0.16637,-0.0145 0.25,0 0.08,0.0127 0.15625,0.12969 0.15625,0.21875 0,0.0636 -0.0225,0.1882 -0.0625,0.25 -0.08,0.11995 -0.22921,0.09081 -0.34375,0.15625 -0.0945,0.0545 -0.13114,0.18673 -0.1875,0.28125 -0.06,0.10178 -0.11742,0.13585 -0.09375,0.28125 -0.0818,0.16176 -0.17468,0.26559 -0.34375,0.34375 -0.0491,0.0218 -0.1108,0.06105 -0.15625,0.09375 -0.0364,0.0254 -0.07405,0.06676 -0.125,0.125 -0.0636,0.0709 -0.15296,0.10172 -0.1875,0.15625 -0.0255,0.0418 -0.004,0.13116 -0.03125,0.1875 -0.04,0.0764 -0.10535,0.14241 -0.15625,0.21875 -0.0236,0.0364 -0.06835,0.07766 -0.09375,0.125 -0.0582,0.10542 -0.13591,0.18856 -0.125,0.28125 0.009,0.0891 0.11955,0.10934 0.125,0.1875 0.005,0.0436 -0.03305,0.07773 -0.03125,0.125 0.002,0.0691 0.02585,0.10172 0.03125,0.15625 0.0127,0.1345 -0.06835,0.18855 -0.09375,0.28125 -0.0127,0.0436 0.0109,0.09047 0,0.125 -0.0218,0.0673 -0.12318,0.10753 -0.125,0.1875 -0.002,0.0564 0.08835,0.10757 0.09375,0.1875 0.004,0.0545 -0.04215,0.10536 -0.03125,0.15625 0.02,0.0982 0.2049,0.23616 0.28125,0.3125 0.10363,0.10361 0.20456,0.17219 0.25,0.28125 0.0382,0.0927 0.05415,0.24343 0.125,0.3125 0.0527,0.0509 0.15149,0.07233 0.21875,0.125 0.0636,0.0491 0.15148,0.07226 0.21875,0.125 0.1109,0.0873 0.26114,0.26273 0.4375,0.25 0.0927,-0.007 0.17762,-0.0444 0.28125,-0.0625 0.10726,-0.0182 0.23467,-0.0734 0.34375,-0.0625 0.0836,0.009 0.16274,0.068 0.25,0.0625 0.0909,-0.005 0.20888,-0.04835 0.3125,-0.09375 0.17999,-0.0782 0.45696,-0.22567 0.71875,-0.1875 0.19998,0.0291 0.20376,0.25469 0.34375,0.34375 0.15998,0.0145 0.27899,-0.0309 0.40625,0 0.0964,0.0236 0.20966,0.20492 0.21875,0.28125 0.009,0.0782 -0.0516,0.13843 -0.0625,0.1875 -0.0254,0.10542 -0.0444,0.24525 -0.0625,0.3125 -0.0145,0.0527 -0.03305,0.10354 -0.03125,0.15625 0,0.0473 0.07586,0.15695 0.125,0.21875 0.06,0.0764 0.14603,0.13514 0.21875,0.21875 0.13272,0.15267 0.18853,0.36074 0.28125,0.5625 0.0236,0.0509 -0.0218,0.06137 0,0.125 -0.04,0.30536 -0.14377,0.50568 -0.34375,0.84375 -0.0945,0.10905 -0.18932,0.23869 -0.1875,0.375 -0.007,0.32716 0.1708,0.49624 0.15625,0.8125 -0.0327,0.42531 0.0015,0.49156 -0.03125,0.71875 0.14363,0.0727 0.07305,0.28664 0.03125,0.4375 -0.0618,0.17993 -0.12171,0.22379 -0.15625,0.34375 0.07456,0.03225 0.137038,0.04033 0.21875,0.03125 -1.637455,1.70242 -3.951368,2.75 -6.5,2.75 -1.192999,0 -2.33313,-0.234709 -3.375,-0.65625 -0.0035,-0.0014 0.0035,-0.02983 0,-0.03125 0.0945,-0.04 0.27467,0.0702 0.34375,-0.0625 0.0346,-0.0636 -0.0455,-0.18638 0,-0.25 0.0327,-0.0436 0.24524,-0.08285 0.3125,-0.09375 0.0964,-0.0164 0.19546,0.0034 0.25,-0.03125 0.06,-0.0382 0.13591,-0.13731 0.125,-0.25 -0.005,-0.0527 -0.05205,-0.07776 -0.09375,-0.125 -0.0345,-0.04 -0.0077,-0.08863 -0.03125,-0.125 -0.0436,-0.0636 -0.10682,-0.09474 -0.125,-0.1875 0.1309,-0.0254 0.31093,0.14649 0.5,0.09375 0.0891,-0.0255 0.23943,-0.19765 0.28125,-0.28125 0.0127,-0.0255 -0.0145,-0.1253 0,-0.15625 0.0164,-0.0345 0.057,-0.0444 0.0625,-0.0625 0.0127,-0.0491 -0.0109,-0.06295 0,-0.09375 0.0327,-0.0927 0.13295,-0.1515 0.1875,-0.21875 0.0418,-0.0509 0.08677,-0.10354 0.125,-0.15625 0.0436,-0.0564 0.06475,-0.07585 0.09375,-0.125 0.0273,-0.1654 -0.1025,-0.2921 -0.0625,-0.4375 0.0436,-0.16358 0.27934,-0.26923 0.4375,-0.34375 0.0545,-0.0255 0.1108,-0.07745 0.15625,-0.09375 0.10908,-0.0382 0.24194,-0.0262 0.34375,-0.0625 0.1709,-0.0618 0.22886,-0.24995 0.3125,-0.40625 0.04,-0.0727 0.08645,-0.13479 0.09375,-0.1875 0.007,-0.0473 -0.009,-0.10169 0,-0.15625 0.009,-0.0545 0.01675,-0.09627 0.03125,-0.15625 0.02,-0.0782 0.03125,-0.22526 0.03125,-0.3125 0,-0.0727 -0.02945,-0.09082 -0.03125,-0.15625 -0.0127,-0.23628 0.069,-0.24596 0.15625,-0.375 0.0436,-0.0636 0.06295,-0.17332 0.09375,-0.21875 0.14726,-0.21811 0.39318,-0.32546 0.375,-0.65625 -0.007,-0.10906 -0.04504,-0.34046 -0.125,-0.375 -0.0455,-0.02 -0.15148,-0.0058 -0.21875,-0.03125 -0.21453,-0.08 -0.37014,-0.32558 -0.59375,-0.34375 -0.0473,-0.002 -0.07226,0.002 -0.125,0 -0.0873,-0.002 -0.18308,-0.08285 -0.28125,-0.09375 -0.0618,-0.007 -0.18239,0.0182 -0.21875,0 -0.0564,-0.0273 -0.04835,-0.12535 -0.09375,-0.15625 -0.0364,-0.0255 -0.0999,-0.0425 -0.15625,-0.0625 -0.0891,-0.0345 -0.14637,-0.0552 -0.25,-0.0625 -0.0327,-0.002 -0.11992,0.005 -0.15625,0 -0.0564,-0.009 -0.10353,-0.06105 -0.15625,-0.09375 -0.0654,-0.04 -0.09773,-0.06864 -0.125,-0.125 0.06,-0.1963 -0.1475,-0.22925 -0.1875,-0.34375 -0.0182,-0.0527 0.0182,-0.14024 0,-0.1875 -0.0236,-0.0673 -0.0817,-0.09992 -0.15625,-0.15625 -0.1309,-0.10179 -0.25024,-0.19513 -0.4375,-0.21875 -0.0836,-0.009 -0.18126,0.007 -0.28125,0 -0.10544,-0.007 -0.23251,-0.06539 -0.3125,-0.15625 -0.0764,-0.0891 -0.08899,-0.17695 -0.15625,-0.21875 -0.0636,-0.04 -0.17512,-0.05205 -0.21875,-0.09375 -0.02,-0.0182 -0.01305,-0.05205 -0.03125,-0.09375 -0.0327,-0.0655 -0.1025,-0.07632 -0.0625,-0.15625 -0.0727,-0.0364 -0.04683,0.04585 -0.125,0.03125 -0.0709,-0.1 -0.12127,-0.1559 -0.28125,-0.125 -0.0727,0.0145 -0.1333,0.12319 -0.21875,0.125 -0.0709,0.002 -0.12603,-0.11228 -0.21875,-0.125 -0.0709,-0.009 -0.16966,0.0734 -0.21875,0.0625 -0.0782,-0.0145 -0.08539,-0.10891 -0.15625,-0.15625 -0.0527,-0.0346 -0.15841,-0.12681 -0.1875,-0.125 -0.0909,0.002 -0.15581,0.19225 -0.28125,0.125 -0.0618,-0.0782 0.10401,-0.08359 0.03125,-0.15625 -0.0545,-0.0545 -0.08134,0.0023 -0.125,0.03125 -0.0509,0.0345 -0.0999,0.07385 -0.15625,0.09375 -0.12545,0.0473 -0.21433,0.04295 -0.3125,0.09375 -0.0909,0.0473 -0.10353,0.12605 -0.15625,0.21875 -0.0418,0.0764 -0.12387,0.18386 -0.1875,0.1875 -0.0764,0.005 -0.14966,-0.09593 -0.21875,-0.125 -0.20907,-0.0909 -0.32729,0.0607 -0.5,0.0625 -0.15999,0.002 -0.38227,-0.25538 -0.375,-0.40625 0.005,-0.0927 0.0516,-0.22925 0.0625,-0.34375 0.009,-0.0909 0.09205,-0.16639 0.09375,-0.25 0.002,-0.11087 -0.17728,-0.20602 -0.25,-0.21875 -0.1709,-0.0309 -0.39922,0.0764 -0.59375,0 -0.0364,-0.0618 0.07195,-0.09626 0.09375,-0.15625 0.0127,-0.0345 -0.0127,-0.05555 0,-0.09375 0.0218,-0.0582 0.09774,-0.09445 0.125,-0.15625 0.02,-0.0473 0.01125,-0.12933 0.03125,-0.1875 0.0236,-0.0655 0.08825,-0.10899 0.09375,-0.15625 0.007,-0.0618 -0.04475,-0.14751 -0.09375,-0.1875 -0.1509,0.009 -0.25648,0.0229 -0.34375,0.0625 -0.19634,0.0891 -0.14558,0.34446 -0.34375,0.40625 -0.0673,0.0218 -0.17364,0.0498 -0.25,0.0625 0.129313,-0.654274 0.330953,-1.280046 0.59375,-1.875 0.0691,0.0127 0.12751,0.057 0.1875,0.0625 0.16726,0.0127 0.17432,-0.1148 0.3125,-0.1875 0.14181,0.02 0.21467,-0.0145 0.34375,0 0.0873,0.009 0.21217,0.11955 0.28125,0.125 0.0582,0.002 0.07045,-0.0716 0.125,-0.0625 0.0545,0.009 0.14716,0.12206 0.15625,0.1875 0.009,0.0818 -0.05495,0.15912 -0.03125,0.25 0.0855,0.0873 0.25319,0.13661 0.375,0.1875 0.08,-0.0655 0.0127,-0.21798 0,-0.3125 -0.002,-0.0418 0.005,-0.08676 0,-0.125 -0.009,-0.0654 -0.03125,-0.13116 -0.03125,-0.1875 0,-0.25991 0.20047,-0.36696 0.375,-0.46875 0.0745,-0.0436 0.1533,-0.12353 0.21875,-0.15625 0.0927,-0.0455 0.14239,-0.05015 0.21875,-0.09375 0.13816,-0.0782 0.26773,-0.16093 0.375,-0.25 0.0491,-0.11813 -0.005,-0.25868 0,-0.375 0.0491,-0.0309 0.07233,0.005 0.125,0 0.0836,-0.0182 0.10897,-0.14025 0.15625,-0.1875 0.0273,-0.0273 0.12349,-0.0353 0.15625,-0.0625 0.0836,-0.0655 0.0835,-0.15841 0.15625,-0.1875 0.0255,-0.009 0.08495,-0.02035 0.125,-0.03125 0.0546,-0.0145 0.13149,-0.06295 0.21875,-0.09375 0.0564,-0.02 0.19693,-0.0094 0.21875,-0.03125 0.0273,-0.0273 -0.007,-0.14569 0,-0.1875 0.0436,-0.20538 0.34763,-0.21217 0.53125,-0.28125 0.12726,-0.0491 0.26444,-0.15227 0.40625,-0.125 -0.0273,0.0981 -0.14864,0.06934 -0.125,0.1875 0.0309,0.1654 0.22307,-0.0389 0.28125,-0.0625 0.1109,-0.0473 0.3233,-0.07226 0.46875,-0.125 0.12726,-0.0454 0.33873,-0.13403 0.21875,-0.28125 -0.1,-0.007 -0.13149,0.08864 -0.21875,0.125 -0.06,0.009 -0.07413,-0.02765 -0.125,-0.03125 -0.0491,-0.002 -0.07586,0.04035 -0.125,0.03125 -0.0491,-0.009 -0.11773,-0.09809 -0.125,-0.15625 -0.02,-0.15267 0.15695,-0.19981 0.21875,-0.3125 -0.0418,-0.13814 -0.2274,-0.008 -0.34375,-0.0625 0.0127,-0.0818 0.0599,-0.17113 0.15625,-0.1875 0.0782,-0.0127 0.26523,0.0247 0.3125,0.0625 0.0273,0.0236 -0.01046,0.08675 0.03125,0.125 0.0473,0.0418 0.12569,0.009 0.1875,0 0.0218,-0.1036 -0.14318,-0.05775 -0.125,-0.125 0.12362,-0.08 0.3491,-0.0425 0.5,-0.0625 0.0873,-0.0127 0.17182,-0.08317 0.25,-0.125 0.0727,-0.0418 0.14239,-0.10036 0.21875,-0.03125 0.0218,0.0745 -0.05205,0.11808 -0.09375,0.15625 -0.13999,0.12359 -0.26592,0.26267 -0.375,0.40625 0.0673,0.0655 0.16853,0.01855 0.28125,0.03125 0.0436,0.005 0.11079,0.02405 0.15625,0.03125 0.0546,0.009 0.11261,-0.009 0.15625,0 0.0764,0.0182 0.0799,0.125 0.15625,0.125 0.12363,0 0.13345,-0.10389 0.0625,-0.1875 0.0218,-0.0855 0.06225,-0.15876 0.03125,-0.21875 -0.0564,-0.11269 -0.27034,0.01854 -0.28125,-0.125 -0.007,-0.0909 0.09226,-0.11842 0.125,-0.1875 -0.0145,-0.17448 0.14318,-0.18562 0.125,-0.34375 -0.009,-0.0655 -0.07953,-0.06326 -0.125,-0.125 -0.0236,-0.0327 -0.0353,-0.10137 -0.0625,-0.125 -0.0945,-0.08 -0.27034,-0.06606 -0.28125,-0.21875 -0.005,-0.0909 0.0127,-0.15186 0,-0.25 -0.0127,-0.0927 -0.10754,-0.35682 -0.1875,-0.375 -0.10181,-0.0218 -0.15944,0.16241 -0.28125,0.21875 -0.0654,0.0309 -0.18274,0.04405 -0.25,0.03125 -0.0436,-0.009 -0.11954,-0.04145 -0.125,-0.125 -0.0045,-0.04815 0.01109,-0.06524 0.03125,-0.09375 0.0047,-0.0067 -0.0049,-0.02419 0,-0.03125 0.790994,-0.227329 1.635895,-0.34375 2.5,-0.34375 z M 30.25,-66.625 c -0.08872,0.284111 -0.345531,0.446303 -0.6875,0.4375 -0.0836,0.08 -0.04835,0.23287 -0.09375,0.34375 -0.0382,0.0927 -0.15729,0.16353 -0.25,0.15625 -0.0673,-0.005 -0.1875,-0.09264 -0.1875,-0.15625 0,-0.05213 0.05041,-0.111023 0.0625,-0.15625 0.368045,-0.23797 0.753877,-0.441922 1.15625,-0.625 z m 7.65625,0.3125 c -0.0335,0.006 -0.06425,0.01395 -0.09375,0.03125 -0.0691,0.0418 -0.07226,0.10501 -0.125,0.125 -0.0745,0.0273 -0.17659,0.02655 -0.1875,0.09375 -0.009,0.0564 0.0644,0.07412 0.0625,0.125 -0.0273,0.0673 -0.07915,0.0744 -0.09375,0.15625 0.0927,0.15086 0.32297,0.0016 0.4375,-0.03125 0.0509,-0.0145 0.09773,0.0084 0.125,-0.03125 0.0309,-0.0491 0.0076,-0.14968 0.03125,-0.21875 0.0255,-0.0764 0.10285,-0.05776 0.09375,-0.125 -0.007,-0.0673 -0.13728,-0.1359 -0.25,-0.125 z M 28,-65.15625 c 0.06666,0.08046 0.122461,0.197346 0,0.25 -0.0182,0.009 -0.23762,0.04035 -0.28125,0.03125 -0.01354,-0.0019 -0.0191,-0.02281 -0.03125,-0.03125 0.09557,-0.09283 0.212893,-0.161456 0.3125,-0.25 z m 0.25,0.3125 c 0.0436,0.002 0.07406,0.09015 0.125,0.09375 0.0491,0.004 0.12711,-0.04035 0.15625,-0.03125 0.0764,0.02 0.10401,0.1624 0.03125,0.21875 -0.06,0.007 -0.08143,-0.0716 -0.125,-0.0625 -0.12363,0.0218 -0.15728,0.25727 -0.25,0.25 -0.0873,-0.009 -0.15163,-0.18638 -0.0625,-0.25 0.002,-0.0546 -0.03495,-0.07045 -0.03125,-0.125 0.0273,-0.0345 0.08349,-0.09915 0.15625,-0.09375 z m -0.40625,0.0625 c 0.0255,0 0.02215,-0.0109 0.03125,0 -0.0127,0.0963 -0.05053,0.11081 -0.125,0.15625 -0.12908,0.0782 -0.20818,0.17653 -0.25,0.34375 -0.0127,0.0491 -0.15694,0.20021 -0.21875,0.1875 -0.14363,-0.0309 0.06105,-0.30195 0.09375,-0.34375 0.0364,-0.0455 0.08323,-0.07405 0.125,-0.125 0.0418,-0.0509 0.05385,-0.15842 0.09375,-0.1875 0.0436,-0.0309 0.17365,-0.03495 0.25,-0.03125 z m 12.3125,0.25 c 0.14362,-0.009 0.2158,0.16275 0.28125,0.25 0.0545,0.0709 0.2234,0.16967 0.3125,0.21875 0.0509,0.0273 0.09989,0.06835 0.15625,0.09375 0.05908,0.02635 0.148975,0.0609 0.21875,0.125 0.06977,0.0641 0.12227,0.16059 0.125,0.21875 0.002,0.0582 -0.04035,0.10172 -0.03125,0.15625 0.06298,0.01025 0.09565,-0.05385 0.125,-0.125 0.235639,0.336128 0.436319,0.694842 0.625,1.0625 -0.03828,0.02371 -0.05475,0.04691 -0.0625,0.09375 -0.0182,0.10178 0.05895,0.23183 -0.09375,0.25 -0.0963,0.0127 -0.21104,-0.09596 -0.34375,-0.125 -0.0545,-0.0127 -0.14387,0.0145 -0.1875,0 -0.1,-0.0345 -0.07079,-0.15877 -0.15625,-0.21875 -0.0491,-0.0346 -0.17182,-0.08475 -0.25,-0.09375 -0.0491,-0.005 -0.07414,0.007 -0.125,0 -0.0618,-0.007 -0.16785,-3.5e-4 -0.21875,-0.03125 -0.0491,-0.0309 -0.17477,-0.08316 -0.1875,-0.125 -0.02,-0.0673 0.15262,-0.1624 0.15625,-0.21875 0.004,-0.0436 -0.0534,-0.05957 -0.0625,-0.125 -0.007,-0.04 0.009,-0.09954 0,-0.125 -0.0127,-0.0473 -0.08173,-0.09195 -0.15625,-0.09375 -0.0655,0 -0.13114,0.03125 -0.1875,0.03125 -0.08,0.002 -0.24376,-0.04035 -0.34375,-0.03125 -0.06,0.005 -0.09989,0.02765 -0.15625,0.03125 -0.15817,0.0127 -0.25137,-0.009 -0.375,0 -0.0891,0.005 -0.26012,0.05565 -0.34375,0.09375 -0.0418,0.02 -0.07045,0.06655 -0.125,0.09375 -0.0254,0.0127 -0.06095,0.01675 -0.09375,0.03125 -0.0509,0.0236 -0.13841,0.08105 -0.1875,0.09375 -0.0709,0.0182 -0.15217,-0.005 -0.28125,0 -0.0927,0.005 -0.24818,-0.01416 -0.25,-0.125 -0.002,-0.16903 0.30877,-0.09596 0.46875,-0.125 0.06,-0.0127 0.0835,-0.08323 0.15625,-0.125 0.0346,-0.02 0.06105,-0.0407 0.09375,-0.0625 0.0545,-0.0382 0.14716,-0.11262 0.15625,-0.15625 0.007,-0.04 -0.03675,-0.09597 -0.03125,-0.125 0.007,-0.0382 0.07592,-0.07593 0.125,-0.125 0.0764,-0.0764 0.12421,-0.16968 0.21875,-0.21875 0.0636,-0.0345 0.18966,-0.04295 0.21875,-0.09375 0.007,-0.0582 -0.002,-0.07226 0,-0.125 0.04,-0.0364 0.0298,-0.0553 0.0625,-0.0625 0.0982,-0.0218 0.19797,0.03675 0.3125,0.03125 0.0491,-0.002 0.10353,0.0036 0.15625,-0.03125 0.0436,-0.0291 0.08136,-0.07195 0.125,-0.09375 0.0473,-0.0255 0.09801,-0.09015 0.15625,-0.09375 z M 28.6875,-64.4375 c 0.02405,-0.0038 0.06463,0.0027 0.09375,0 0.0418,-0.002 0.07955,0 0.125,0 0.0455,0 0.10682,-0.0182 0.125,0 -0.0291,0.11996 -0.31171,0.07495 -0.40625,0.03125 0.0025,-0.02275 0.03845,-0.02741 0.0625,-0.03125 z m -0.34375,0.21875 c 0.0309,0 0.06105,-0.0127 0.09375,0 -0.0836,0.0709 -0.1983,0.11081 -0.34375,0.15625 -0.0691,0.0218 -0.17477,0.04505 -0.1875,-0.03125 -0.0146,-0.0945 0.06316,-0.08475 0.125,-0.09375 0.08,-0.009 0.21978,-0.02945 0.3125,-0.03125 z m 11.84375,0 c -0.06,0.02 -0.0891,0.1399 0,0.15625 0.0418,-0.0254 0.04225,-0.0799 0.03125,-0.15625 -0.0236,-0.0254 -0.01315,-0.007 -0.03125,0 z m -0.03125,0.25 c -0.0291,0.009 -0.06295,-0.0015 -0.09375,0.03125 0.002,0.10178 0.02,0.16094 0,0.25 0.0582,0.11269 0.18967,0.04505 0.21875,-0.03125 0.0346,-0.18903 -0.03774,-0.27363 -0.125,-0.25 z m 0.78125,0.5 c -0.08,-0.004 -0.14023,0.0247 -0.1875,0.0625 0.0673,0.10906 0.19285,0.12898 0.34375,0.15625 0.0545,-0.04 0.0371,-0.14968 0.0625,-0.21875 -0.0655,0 -0.10751,0.004 -0.1875,0 z m -15.875,3.84375 c 0.06386,0.08137 0.132895,0.176267 0.21875,0.21875 0.0455,0.0236 0.09807,0.01855 0.15625,0.03125 0.0473,0.009 0.07957,0.048 0.125,0.0625 0.0964,0.0327 0.23615,0.028 0.3125,0.0625 0.11636,0.0509 0.18125,0.25433 0.28125,0.3125 0.005,0.0582 -0.0182,0.11263 0,0.15625 0.0473,0.0636 0.14238,0.08324 0.21875,0.125 0.0927,0.0509 0.13149,0.17876 0.21875,0.21875 0.0309,0.0127 0.07766,-0.0145 0.125,0 0.11999,0.0364 0.14637,0.21839 0.25,0.1875 0.0673,-0.02 0.08285,-0.12207 0.09375,-0.1875 0.0455,-0.0491 0.08529,-0.125 0.15625,-0.125 0.11271,-0.002 0.14568,0.13914 0.1875,0.25 0.0236,0.0618 0.07745,0.12207 0.09375,0.1875 0.0273,0.11269 0.0236,0.43275 0,0.5 -0.0291,0.0836 -0.14966,0.12787 -0.21875,0.21875 -0.0327,0.0436 -0.06835,0.09596 -0.09375,0.125 -0.0436,0.0545 -0.09223,0.07596 -0.125,0.125 -0.0182,0.0273 -0.01495,0.08684 -0.03125,0.125 -0.0546,0.11632 -0.13923,0.20379 -0.09375,0.34375 0.0182,0.0564 0.09375,0.12026 0.09375,0.1875 0,0.08 -0.17477,0.10026 -0.1875,0.1875 -0.009,0.0636 0.07385,0.19582 0.09375,0.28125 0.0145,0.0636 0.11807,0.11444 0.15625,0.15625 0.0636,0.0709 0.12932,0.15912 0.1875,0.25 0.11453,0.1763 0.16855,0.38983 0.28125,0.5625 0.06,0.0891 0.17875,0.15549 0.21875,0.25 0.02,0.0473 -0.0182,0.14389 0,0.1875 0.0654,0.14723 0.38399,0.3023 0.53125,0.375 0.0691,0.0346 0.12388,0.05735 0.1875,0.09375 0.0964,0.0546 0.29467,0.16458 0.34375,0.25 0.0436,0.0764 0.07195,0.25323 0.09375,0.375 0.0273,0.15995 -0.007,0.29607 0,0.46875 0.005,0.0945 0.03125,0.15548 0.03125,0.25 0,0.0327 0.002,0.09227 0,0.125 -0.002,0.11269 0.009,0.22925 0,0.34375 -0.005,0.0618 -0.004,0.13479 0,0.1875 0.005,0.0564 0.0589,0.07594 0.0625,0.125 0.004,0.0527 -0.068,0.11445 -0.0625,0.15625 0.0127,0.11451 0.13443,0.20708 0.15625,0.3125 0.0182,0.0836 0.04215,0.27503 0.03125,0.375 -0.007,0.0527 -0.02395,0.12934 -0.03125,0.1875 -0.005,0.0455 0.007,0.08323 0,0.125 -2.491713,-1.600536 -4.15625,-4.38105 -4.15625,-7.5625 0,-0.407876 0.04119,-0.794005 0.09375,-1.1875 z m 3.4375,0.90625 c 0.0873,-0.04 0.0709,0.11409 0,0.125 -0.0673,0.009 -0.0654,-0.09405 0,-0.125 z"
     class="ColorScheme-Background"
     id="path12-6" />
  <path
     id="rect10-9"
     style="fill:url(#linearGradient888-3);fill-opacity:1;stroke-width:0.119494"
     d="M 6.09675,9.4 C 4.38635,9.4 3,10.78103 3,12.48455 v 3.039 36.01029 c 0,1.70346 1.38635,3.08458 3.09675,3.08458 h 51.80669 c 1.7102,0 3.09648,-1.38111 3.09648,-3.08458 l -0.005,-32.68748 c -0.1316,-1.68954 0.0653,-5.59073 -5.7405,-5.59073 H 28.90739 c 0.0242,0 -1.90964,-1.73503 -3.63108,-2.76927 C 23.90107,9.59262 22.04293,9.4 22.04293,9.4 Z"
     sodipodi:nodetypes="scccscccccccs" />
  <path
     style="opacity:0.309598;fill:#000000;fill-opacity:1;stroke:none;stroke-width:0.144851;stroke-opacity:1;filter:url(#filter1881-6)"
     id="rect873-1"
     width="22.667437"
     height="5.0357642"
     x="46.507095"
     y="222.89639"
     transform="matrix(1.05206,0,0,1.4052333,-43.68288,-292.95827)"
     inkscape:path-effect="#path-effect1331-5"
     d="m 48.623762,222.89639 h 18.434103 a 2.1166667,2.1166667 45 0 1 2.116667,2.11667 v 0.80243 a 2.1166667,2.1166667 135 0 1 -2.116667,2.11667 l -18.434103,0 a 2.1166667,2.1166667 45 0 1 -2.116667,-2.11667 v -0.80243 a 2.1166667,2.1166667 135 0 1 2.116667,-2.11667 z"
     sodipodi:type="rect" />
  <path
     id="rect851-2"
     style="fill:#db7b7b;fill-opacity:1;stroke-width:0.193144"
     d="m 28.84816,16.55348 v 3.05695 h -7.22158 c 3.56696,-0.009 4.52492,-1.0483 7.22158,-3.05695 z m 0,0 h 28.90903 c 1.70351,-0.008 3.23617,1.36199 3.24272,3.05695 H 28.84816 Z M 6.09694,19.61043 h 54.90298 v 30.96333 c 0,1.70172 -1.38628,3.08114 -3.09648,3.08114 H 6.09694 c -1.7104,0 -3.09675,-1.37942 -3.09675,-3.08114 v -27.882 c 0,-1.70181 1.38635,-3.08133 3.09675,-3.08133 z"
     sodipodi:nodetypes="cccccccccccccsccc" />
  <path
     id="rect851-3-7"
     style="fill:url(#linearGradient854-7-3);fill-opacity:1.0;stroke-width:0.193226"
     d="m 29.20745,17.77076 -0.0784,3.19607 -7.14189,-0.13585 c 3.56704,-0.009 4.52481,-1.04952 7.22143,-3.06022 z m 0,0 h 28.69603 c 1.70347,-0.008 3.0899,1.36335 3.09651,3.06022 L 29.1279,20.96683 Z M 6.09699,20.83098 H 61 V 50.5751 c 0,1.70361 -1.3863,3.08458 -3.09652,3.08457 H 6.09699 C 4.38657,53.65968 3.00022,52.27871 3.00022,50.5751 V 23.9156 c 0,-1.70354 1.38635,-3.08462 3.09677,-3.08462 z"
     sodipodi:nodetypes="cccccccccccsccssc" />
  <path
     style="opacity:0.181;fill:url(#linearGradient668-5);fill-opacity:1;fill-rule:evenodd;stroke:none;stroke-width:3.54294px;stroke-linecap:butt;stroke-linejoin:miter;stroke-opacity:1"
     d="M 6,20.8 31.96374,48.33972 H 60.92748 L 60.99998,20.8 H 6.05878 Z"
     id="path4152-2-9"
     inkscape:connector-curvature="0"
     sodipodi:nodetypes="cccccc" />
  <rect
     style="fill:#ffffff;fill-opacity:0.25;stroke:#e5e9ef;stroke-width:0.580474;stroke-opacity:0.5;paint-order:markers fill stroke"
     id="rect2191"
     width="57.5"
     height="7.2964485e-07"
     x="3.2500153"
     y="47.690212" />
  <rect
     style="fill:#ffffff;fill-opacity:0.5;stroke:#e5e9ef;stroke-width:0.580474;stroke-opacity:0.5;paint-order:markers fill stroke"
     id="rect2191-0-9"
     width="57.5"
     height="7.2964485e-07"
     x="3.2500153"
     y="50.690212" />
  <path
     style="color:#eff0f1;fill:#ffffff;fill-opacity:1;stroke:none"
     d="m 32,26 c -0.34625,0 -0.69426,0.02848 -1.03125,0.0625 -0.67397,0.06804 -1.31048,0.180791 -1.9375,0.375 -3.13511,0.971045 -5.6227,3.458643 -6.59375,6.59375 -0.19421,0.627021 -0.30696,1.263525 -0.375,1.9375 C 22.0285,35.305737 22,35.65375 22,36 c 0,0.34625 0.0285,0.694263 0.0625,1.03125 0.068,0.673975 0.18079,1.310479 0.375,1.9375 0.97105,3.135107 3.45864,5.622705 6.59375,6.59375 0.62702,0.194209 1.26353,0.306963 1.9375,0.375 C 31.30574,45.97152 31.65375,46 32,46 c 0.34625,0 0.69426,-0.02848 1.03125,-0.0625 0.67397,-0.06804 1.31048,-0.180791 1.9375,-0.375 0.62626,-0.194787 1.24573,-0.47336 1.8125,-0.78125 2.26746,-1.228711 4.00441,-3.304414 4.78125,-5.8125 0.19421,-0.627021 0.30696,-1.263525 0.375,-1.9375 C 41.9715,36.694263 42,36.34625 42,36 42,35.654822 41.9716,35.304921 41.9375,34.96875 41.8695,34.294775 41.75671,33.658271 41.5625,33.03125 41.17408,31.777207 40.53264,30.612012 39.71875,29.625 39.51496,29.378059 39.28871,29.163706 39.0625,28.9375 38.15875,28.03375 37.10344,27.285938 35.90625,26.78125 35.60715,26.654743 35.28188,26.534893 34.96875,26.4375 34.34173,26.243291 33.70522,26.130537 33.03125,26.0625 32.69426,26.02848 32.34625,26 32,26 Z m 0,1 c 1.51331,0 2.93582,0.371409 4.1875,1.03125 0.0331,0.01744 0.0609,0.04466 0.0937,0.0625 0.0253,0.03353 0.018,0.06921 0.0625,0.09375 0.0327,0.0182 0.063,0.0462 0.0937,0.0625 0.0527,0.0291 0.10465,0.07405 0.0937,0.125 -0.0145,0.0745 -0.1366,0.07044 -0.1875,0.125 0.007,0.10542 -0.0353,0.08537 -0.0625,0.15625 0.0164,0.0455 0.0553,0.03925 0.0625,0.09375 -0.009,0.0582 -0.0844,0.06503 -0.0625,0.125 0.0982,0.0764 0.18853,0.0127 0.28125,0 0.20362,-0.0255 0.37455,0.0044 0.5,-0.09375 -0.0132,-0.07778 0.0611,-0.1 0.0937,-0.15625 0.0664,0.04653 0.12246,0.107991 0.1875,0.15625 -0.0382,0.0164 -0.1217,0.0407 -0.15625,0.0625 -0.0509,0.0345 -0.0668,0.08684 -0.125,0.125 -0.0418,0.0291 -0.14386,0.125 -0.1875,0.125 -0.0527,0 -0.14932,-0.04395 -0.1875,-0.03125 -0.0546,0.0164 -0.032,0.10319 -0.0937,0.125 -0.11999,0.0436 -0.33319,-0.1174 -0.375,0.0625 0.0509,0.1036 0.2216,0.06867 0.3125,0.125 0.0564,0.0364 0.14171,0.21945 0.15625,0.28125 0.0145,0.0509 0.0218,0.22673 0,0.28125 -0.0564,0.1454 -0.20775,0.12864 -0.375,0.125 -0.0455,0 -0.0831,0.004 -0.125,0 -0.28179,-0.0182 -0.56023,-0.10798 -0.6875,0.09375 0.009,0.15449 0.0346,0.2405 0,0.375 -0.0254,0.0981 -0.13046,0.16457 -0.125,0.25 0.002,0.0436 0.0829,0.12751 0.0937,0.1875 0.007,0.0327 -0.0146,0.09597 0,0.125 0.0473,0.0891 0.16637,-0.0145 0.25,0 0.08,0.0127 0.15625,0.12969 0.15625,0.21875 0,0.0636 -0.0225,0.1882 -0.0625,0.25 -0.08,0.11995 -0.22921,0.09081 -0.34375,0.15625 -0.0945,0.0545 -0.13114,0.18673 -0.1875,0.28125 -0.06,0.10178 -0.11742,0.13585 -0.0937,0.28125 -0.0818,0.16176 -0.17468,0.26559 -0.34375,0.34375 -0.0491,0.0218 -0.1108,0.06105 -0.15625,0.09375 -0.0364,0.0254 -0.074,0.06676 -0.125,0.125 -0.0636,0.0709 -0.15296,0.10172 -0.1875,0.15625 -0.0255,0.0418 -0.004,0.13116 -0.0312,0.1875 -0.04,0.0764 -0.10535,0.14241 -0.15625,0.21875 -0.0236,0.0364 -0.0684,0.07766 -0.0937,0.125 -0.0582,0.10542 -0.13591,0.18856 -0.125,0.28125 0.009,0.0891 0.11955,0.10934 0.125,0.1875 0.005,0.0436 -0.0331,0.07773 -0.0312,0.125 0.002,0.0691 0.0258,0.10172 0.0312,0.15625 0.0127,0.1345 -0.0684,0.18855 -0.0937,0.28125 -0.0127,0.0436 0.0109,0.09047 0,0.125 -0.0218,0.0673 -0.12318,0.10753 -0.125,0.1875 -0.002,0.0564 0.0883,0.10757 0.0937,0.1875 0.004,0.0545 -0.0421,0.10536 -0.0312,0.15625 0.02,0.0982 0.2049,0.23616 0.28125,0.3125 0.10363,0.10361 0.20456,0.17219 0.25,0.28125 0.0382,0.0927 0.0541,0.24343 0.125,0.3125 0.0527,0.0509 0.15149,0.07233 0.21875,0.125 0.0636,0.0491 0.15148,0.07226 0.21875,0.125 0.1109,0.0873 0.26114,0.26273 0.4375,0.25 0.0927,-0.007 0.17762,-0.0444 0.28125,-0.0625 0.10726,-0.0182 0.23467,-0.0734 0.34375,-0.0625 0.0836,0.009 0.16274,0.068 0.25,0.0625 0.0909,-0.005 0.20888,-0.04835 0.3125,-0.09375 0.17999,-0.0782 0.45696,-0.22567 0.71875,-0.1875 0.19998,0.0291 0.20376,0.25469 0.34375,0.34375 0.15998,0.0145 0.27899,-0.0309 0.40625,0 0.0964,0.0236 0.20966,0.20492 0.21875,0.28125 0.009,0.0782 -0.0516,0.13843 -0.0625,0.1875 -0.0254,0.10542 -0.0444,0.24525 -0.0625,0.3125 -0.0145,0.0527 -0.0331,0.10354 -0.0312,0.15625 0,0.0473 0.0759,0.15695 0.125,0.21875 0.06,0.0764 0.14603,0.13514 0.21875,0.21875 0.13272,0.15267 0.18853,0.36074 0.28125,0.5625 0.0236,0.0509 -0.0218,0.06137 0,0.125 -0.04,0.30536 -0.14377,0.50568 -0.34375,0.84375 -0.0945,0.10905 -0.18932,0.23869 -0.1875,0.375 -0.007,0.32716 0.1708,0.49624 0.15625,0.8125 -0.0327,0.42531 10e-4,0.49156 -0.0312,0.71875 0.14363,0.0727 0.073,0.28664 0.0312,0.4375 -0.0618,0.17993 -0.12171,0.22379 -0.15625,0.34375 0.0746,0.03225 0.13704,0.04033 0.21875,0.03125 -1.63746,1.70242 -3.95137,2.75 -6.5,2.75 -1.193,0 -2.33313,-0.234709 -3.375,-0.65625 -0.004,-0.0014 0.004,-0.02983 0,-0.03125 0.0945,-0.04 0.27467,0.0702 0.34375,-0.0625 0.0346,-0.0636 -0.0455,-0.18638 0,-0.25 0.0327,-0.0436 0.24524,-0.08285 0.3125,-0.09375 0.0964,-0.0164 0.19546,0.0034 0.25,-0.03125 0.06,-0.0382 0.13591,-0.13731 0.125,-0.25 -0.005,-0.0527 -0.052,-0.07776 -0.0937,-0.125 -0.0345,-0.04 -0.008,-0.08863 -0.0312,-0.125 -0.0436,-0.0636 -0.10682,-0.09474 -0.125,-0.1875 0.1309,-0.0254 0.31093,0.14649 0.5,0.09375 0.0891,-0.0255 0.23943,-0.19765 0.28125,-0.28125 0.0127,-0.0255 -0.0145,-0.1253 0,-0.15625 0.0164,-0.0345 0.057,-0.0444 0.0625,-0.0625 0.0127,-0.0491 -0.0109,-0.06295 0,-0.09375 0.0327,-0.0927 0.13295,-0.1515 0.1875,-0.21875 0.0418,-0.0509 0.0868,-0.10354 0.125,-0.15625 0.0436,-0.0564 0.0648,-0.07585 0.0937,-0.125 0.0273,-0.1654 -0.1025,-0.2921 -0.0625,-0.4375 0.0436,-0.16358 0.27934,-0.26923 0.4375,-0.34375 0.0545,-0.0255 0.1108,-0.07745 0.15625,-0.09375 0.10908,-0.0382 0.24194,-0.0262 0.34375,-0.0625 0.1709,-0.0618 0.22886,-0.24995 0.3125,-0.40625 0.04,-0.0727 0.0865,-0.13479 0.0937,-0.1875 0.007,-0.0473 -0.009,-0.10169 0,-0.15625 0.009,-0.0545 0.0168,-0.09627 0.0312,-0.15625 0.02,-0.0782 0.0312,-0.22526 0.0312,-0.3125 0,-0.0727 -0.0294,-0.09082 -0.0312,-0.15625 -0.0127,-0.23628 0.069,-0.24596 0.15625,-0.375 0.0436,-0.0636 0.063,-0.17332 0.0937,-0.21875 0.14726,-0.21811 0.39318,-0.32546 0.375,-0.65625 -0.007,-0.10906 -0.045,-0.34046 -0.125,-0.375 -0.0455,-0.02 -0.15148,-0.0058 -0.21875,-0.03125 -0.21453,-0.08 -0.37014,-0.32558 -0.59375,-0.34375 -0.0473,-0.002 -0.0723,0.002 -0.125,0 -0.0873,-0.002 -0.18308,-0.08285 -0.28125,-0.09375 -0.0618,-0.007 -0.18239,0.0182 -0.21875,0 -0.0564,-0.0273 -0.0483,-0.12535 -0.0937,-0.15625 -0.0364,-0.0255 -0.0999,-0.0425 -0.15625,-0.0625 -0.0891,-0.0345 -0.14637,-0.0552 -0.25,-0.0625 -0.0327,-0.002 -0.11992,0.005 -0.15625,0 -0.0564,-0.009 -0.10353,-0.06105 -0.15625,-0.09375 -0.0654,-0.04 -0.0977,-0.06864 -0.125,-0.125 0.06,-0.1963 -0.1475,-0.22925 -0.1875,-0.34375 -0.0182,-0.0527 0.0182,-0.14024 0,-0.1875 -0.0236,-0.0673 -0.0817,-0.09992 -0.15625,-0.15625 -0.1309,-0.10179 -0.25024,-0.19513 -0.4375,-0.21875 -0.0836,-0.009 -0.18126,0.007 -0.28125,0 -0.10544,-0.007 -0.23251,-0.06539 -0.3125,-0.15625 -0.0764,-0.0891 -0.089,-0.17695 -0.15625,-0.21875 -0.0636,-0.04 -0.17512,-0.05205 -0.21875,-0.09375 -0.02,-0.0182 -0.0131,-0.05205 -0.0312,-0.09375 -0.0327,-0.0655 -0.1025,-0.07632 -0.0625,-0.15625 -0.0727,-0.0364 -0.0468,0.04585 -0.125,0.03125 -0.0709,-0.1 -0.12127,-0.1559 -0.28125,-0.125 -0.0727,0.0145 -0.1333,0.12319 -0.21875,0.125 -0.0709,0.002 -0.12603,-0.11228 -0.21875,-0.125 -0.0709,-0.009 -0.16966,0.0734 -0.21875,0.0625 -0.0782,-0.0145 -0.0854,-0.10891 -0.15625,-0.15625 -0.0527,-0.0346 -0.15841,-0.12681 -0.1875,-0.125 -0.0909,0.002 -0.15581,0.19225 -0.28125,0.125 -0.0618,-0.0782 0.10401,-0.08359 0.0312,-0.15625 -0.0545,-0.0545 -0.0813,0.0023 -0.125,0.03125 -0.0509,0.0345 -0.0999,0.07385 -0.15625,0.09375 -0.12545,0.0473 -0.21433,0.04295 -0.3125,0.09375 -0.0909,0.0473 -0.10353,0.12605 -0.15625,0.21875 -0.0418,0.0764 -0.12387,0.18386 -0.1875,0.1875 -0.0764,0.005 -0.14966,-0.09593 -0.21875,-0.125 -0.20907,-0.0909 -0.32729,0.0607 -0.5,0.0625 -0.15999,0.002 -0.38227,-0.25538 -0.375,-0.40625 0.005,-0.0927 0.0516,-0.22925 0.0625,-0.34375 0.009,-0.0909 0.0921,-0.16639 0.0937,-0.25 0.002,-0.11087 -0.17728,-0.20602 -0.25,-0.21875 -0.1709,-0.0309 -0.39922,0.0764 -0.59375,0 -0.0364,-0.0618 0.072,-0.09626 0.0937,-0.15625 0.0127,-0.0345 -0.0127,-0.05555 0,-0.09375 0.0218,-0.0582 0.0977,-0.09445 0.125,-0.15625 0.02,-0.0473 0.0113,-0.12933 0.0312,-0.1875 0.0236,-0.0655 0.0883,-0.10899 0.0937,-0.15625 0.007,-0.0618 -0.0447,-0.14751 -0.0937,-0.1875 -0.1509,0.009 -0.25648,0.0229 -0.34375,0.0625 -0.19634,0.0891 -0.14558,0.34446 -0.34375,0.40625 -0.0673,0.0218 -0.17364,0.0498 -0.25,0.0625 0.12931,-0.654274 0.33095,-1.280046 0.59375,-1.875 0.0691,0.0127 0.12751,0.057 0.1875,0.0625 0.16726,0.0127 0.17432,-0.1148 0.3125,-0.1875 0.14181,0.02 0.21467,-0.0145 0.34375,0 0.0873,0.009 0.21217,0.11955 0.28125,0.125 0.0582,0.002 0.0704,-0.0716 0.125,-0.0625 0.0545,0.009 0.14716,0.12206 0.15625,0.1875 0.009,0.0818 -0.055,0.15912 -0.0312,0.25 0.0855,0.0873 0.25319,0.13661 0.375,0.1875 0.08,-0.0655 0.0127,-0.21798 0,-0.3125 -0.002,-0.0418 0.005,-0.08676 0,-0.125 -0.009,-0.0654 -0.0312,-0.13116 -0.0312,-0.1875 0,-0.25991 0.20047,-0.36696 0.375,-0.46875 0.0745,-0.0436 0.1533,-0.12353 0.21875,-0.15625 0.0927,-0.0455 0.14239,-0.05015 0.21875,-0.09375 0.13816,-0.0782 0.26773,-0.16093 0.375,-0.25 0.0491,-0.11813 -0.005,-0.25868 0,-0.375 0.0491,-0.0309 0.0723,0.005 0.125,0 0.0836,-0.0182 0.10897,-0.14025 0.15625,-0.1875 0.0273,-0.0273 0.12349,-0.0353 0.15625,-0.0625 0.0836,-0.0655 0.0835,-0.15841 0.15625,-0.1875 0.0255,-0.009 0.085,-0.02035 0.125,-0.03125 0.0546,-0.0145 0.13149,-0.06295 0.21875,-0.09375 0.0564,-0.02 0.19693,-0.0094 0.21875,-0.03125 0.0273,-0.0273 -0.007,-0.14569 0,-0.1875 0.0436,-0.20538 0.34763,-0.21217 0.53125,-0.28125 0.12726,-0.0491 0.26444,-0.15227 0.40625,-0.125 -0.0273,0.0981 -0.14864,0.06934 -0.125,0.1875 0.0309,0.1654 0.22307,-0.0389 0.28125,-0.0625 0.1109,-0.0473 0.3233,-0.07226 0.46875,-0.125 0.12726,-0.0454 0.33873,-0.13403 0.21875,-0.28125 -0.1,-0.007 -0.13149,0.08864 -0.21875,0.125 -0.06,0.009 -0.0741,-0.02765 -0.125,-0.03125 -0.0491,-0.002 -0.0759,0.04035 -0.125,0.03125 -0.0491,-0.009 -0.11773,-0.09809 -0.125,-0.15625 -0.02,-0.15267 0.15695,-0.19981 0.21875,-0.3125 -0.0418,-0.13814 -0.2274,-0.008 -0.34375,-0.0625 0.0127,-0.0818 0.0599,-0.17113 0.15625,-0.1875 0.0782,-0.0127 0.26523,0.0247 0.3125,0.0625 0.0273,0.0236 -0.0105,0.08675 0.0312,0.125 0.0473,0.0418 0.12569,0.009 0.1875,0 0.0218,-0.1036 -0.14318,-0.05775 -0.125,-0.125 0.12362,-0.08 0.3491,-0.0425 0.5,-0.0625 0.0873,-0.0127 0.17182,-0.08317 0.25,-0.125 0.0727,-0.0418 0.14239,-0.10036 0.21875,-0.03125 0.0218,0.0745 -0.052,0.11808 -0.0937,0.15625 -0.13999,0.12359 -0.26592,0.26267 -0.375,0.40625 0.0673,0.0655 0.16853,0.01855 0.28125,0.03125 0.0436,0.005 0.11079,0.02405 0.15625,0.03125 0.0546,0.009 0.11261,-0.009 0.15625,0 0.0764,0.0182 0.0799,0.125 0.15625,0.125 0.12363,0 0.13345,-0.10389 0.0625,-0.1875 0.0218,-0.0855 0.0623,-0.15876 0.0312,-0.21875 -0.0564,-0.11269 -0.27034,0.01854 -0.28125,-0.125 -0.007,-0.0909 0.0923,-0.11842 0.125,-0.1875 -0.0145,-0.17448 0.14318,-0.18562 0.125,-0.34375 -0.009,-0.0655 -0.0795,-0.06326 -0.125,-0.125 -0.0236,-0.0327 -0.0353,-0.10137 -0.0625,-0.125 -0.0945,-0.08 -0.27034,-0.06606 -0.28125,-0.21875 -0.005,-0.0909 0.0127,-0.15186 0,-0.25 -0.0127,-0.0927 -0.10754,-0.35682 -0.1875,-0.375 -0.10181,-0.0218 -0.15944,0.16241 -0.28125,0.21875 -0.0654,0.0309 -0.18274,0.04405 -0.25,0.03125 -0.0436,-0.009 -0.11954,-0.04145 -0.125,-0.125 -0.004,-0.04815 0.0111,-0.06524 0.0312,-0.09375 0.005,-0.0067 -0.005,-0.02419 0,-0.03125 C 30.29084,27.116421 31.13574,27 31.99985,27 Z m -3.71875,0.8125 c -0.0887,0.284111 -0.34553,0.446303 -0.6875,0.4375 -0.0836,0.08 -0.0483,0.23287 -0.0937,0.34375 -0.0382,0.0927 -0.15729,0.16353 -0.25,0.15625 -0.0673,-0.005 -0.1875,-0.09264 -0.1875,-0.15625 0,-0.05213 0.0504,-0.111023 0.0625,-0.15625 0.36804,-0.23797 0.75388,-0.441922 1.15625,-0.625 z m 7.65625,0.3125 c -0.0335,0.006 -0.0642,0.01395 -0.0937,0.03125 -0.0691,0.0418 -0.0723,0.10501 -0.125,0.125 -0.0745,0.0273 -0.17659,0.02655 -0.1875,0.09375 -0.009,0.0564 0.0644,0.07412 0.0625,0.125 -0.0273,0.0673 -0.0791,0.0744 -0.0937,0.15625 0.0927,0.15086 0.32297,0.0016 0.4375,-0.03125 0.0509,-0.0145 0.0977,0.0084 0.125,-0.03125 0.0309,-0.0491 0.008,-0.14968 0.0312,-0.21875 0.0255,-0.0764 0.10285,-0.05776 0.0937,-0.125 -0.007,-0.0673 -0.13728,-0.1359 -0.25,-0.125 z m -9.90625,1.15625 c 0.0667,0.08046 0.12246,0.197346 0,0.25 -0.0182,0.009 -0.23762,0.04035 -0.28125,0.03125 -0.0135,-0.0019 -0.0191,-0.02281 -0.0312,-0.03125 0.0956,-0.09283 0.21289,-0.161456 0.3125,-0.25 z m 0.25,0.3125 c 0.0436,0.002 0.0741,0.09015 0.125,0.09375 0.0491,0.004 0.12711,-0.04035 0.15625,-0.03125 0.0764,0.02 0.10401,0.1624 0.0312,0.21875 -0.06,0.007 -0.0814,-0.0716 -0.125,-0.0625 -0.12363,0.0218 -0.15728,0.25727 -0.25,0.25 -0.0873,-0.009 -0.15163,-0.18638 -0.0625,-0.25 0.002,-0.0546 -0.0349,-0.07045 -0.0312,-0.125 0.0273,-0.0345 0.0835,-0.09915 0.15625,-0.09375 z m -0.40625,0.0625 c 0.0255,0 0.0221,-0.0109 0.0312,0 -0.0127,0.0963 -0.0505,0.11081 -0.125,0.15625 -0.12908,0.0782 -0.20818,0.17653 -0.25,0.34375 -0.0127,0.0491 -0.15694,0.20021 -0.21875,0.1875 -0.14363,-0.0309 0.061,-0.30195 0.0937,-0.34375 0.0364,-0.0455 0.0832,-0.07405 0.125,-0.125 0.0418,-0.0509 0.0538,-0.15842 0.0937,-0.1875 0.0436,-0.0309 0.17365,-0.03495 0.25,-0.03125 z m 12.3125,0.25 c 0.14362,-0.009 0.2158,0.16275 0.28125,0.25 0.0545,0.0709 0.2234,0.16967 0.3125,0.21875 0.0509,0.0273 0.0999,0.06835 0.15625,0.09375 0.0591,0.02635 0.14897,0.0609 0.21875,0.125 0.0698,0.0641 0.12227,0.16059 0.125,0.21875 0.002,0.0582 -0.0403,0.10172 -0.0312,0.15625 0.063,0.01025 0.0957,-0.05385 0.125,-0.125 0.23564,0.336128 0.43632,0.694842 0.625,1.0625 -0.0383,0.02371 -0.0548,0.04691 -0.0625,0.09375 -0.0182,0.10178 0.059,0.23183 -0.0937,0.25 -0.0963,0.0127 -0.21104,-0.09596 -0.34375,-0.125 -0.0545,-0.0127 -0.14387,0.0145 -0.1875,0 -0.1,-0.0345 -0.0708,-0.15877 -0.15625,-0.21875 -0.0491,-0.0346 -0.17182,-0.08475 -0.25,-0.09375 -0.0491,-0.005 -0.0741,0.007 -0.125,0 -0.0618,-0.007 -0.16785,-3.5e-4 -0.21875,-0.03125 -0.0491,-0.0309 -0.17477,-0.08316 -0.1875,-0.125 -0.02,-0.0673 0.15262,-0.1624 0.15625,-0.21875 0.004,-0.0436 -0.0534,-0.05957 -0.0625,-0.125 -0.007,-0.04 0.009,-0.09954 0,-0.125 -0.0127,-0.0473 -0.0817,-0.09195 -0.15625,-0.09375 -0.0655,0 -0.13114,0.03125 -0.1875,0.03125 -0.08,0.002 -0.24376,-0.04035 -0.34375,-0.03125 -0.06,0.005 -0.0999,0.02765 -0.15625,0.03125 -0.15817,0.0127 -0.25137,-0.009 -0.375,0 -0.0891,0.005 -0.26012,0.05565 -0.34375,0.09375 -0.0418,0.02 -0.0704,0.06655 -0.125,0.09375 -0.0254,0.0127 -0.0609,0.01675 -0.0937,0.03125 -0.0509,0.0236 -0.13841,0.08105 -0.1875,0.09375 -0.0709,0.0182 -0.15217,-0.005 -0.28125,0 -0.0927,0.005 -0.24818,-0.01416 -0.25,-0.125 -0.002,-0.16903 0.30877,-0.09596 0.46875,-0.125 0.06,-0.0127 0.0835,-0.08323 0.15625,-0.125 0.0346,-0.02 0.061,-0.0407 0.0937,-0.0625 0.0545,-0.0382 0.14716,-0.11262 0.15625,-0.15625 0.007,-0.04 -0.0368,-0.09597 -0.0312,-0.125 0.007,-0.0382 0.0759,-0.07593 0.125,-0.125 0.0764,-0.0764 0.12421,-0.16968 0.21875,-0.21875 0.0636,-0.0345 0.18966,-0.04295 0.21875,-0.09375 0.007,-0.0582 -0.002,-0.07226 0,-0.125 0.04,-0.0364 0.0298,-0.0553 0.0625,-0.0625 0.0982,-0.0218 0.19797,0.03675 0.3125,0.03125 0.0491,-0.002 0.10353,0.0036 0.15625,-0.03125 0.0436,-0.0291 0.0814,-0.07195 0.125,-0.09375 0.0473,-0.0255 0.098,-0.09015 0.15625,-0.09375 z M 26.71875,30 c 0.0241,-0.0038 0.0646,0.0027 0.0937,0 0.0418,-0.002 0.0795,0 0.125,0 0.0455,0 0.10682,-0.0182 0.125,0 -0.0291,0.11996 -0.31171,0.07495 -0.40625,0.03125 C 26.6582,30.0085 26.6946,30.00384 26.7187,30 Z M 26.375,30.21875 c 0.0309,0 0.061,-0.0127 0.0937,0 -0.0836,0.0709 -0.1983,0.11081 -0.34375,0.15625 -0.0691,0.0218 -0.17477,0.04505 -0.1875,-0.03125 -0.0146,-0.0945 0.0632,-0.08475 0.125,-0.09375 0.08,-0.009 0.21978,-0.02945 0.3125,-0.03125 z m 11.84375,0 c -0.06,0.02 -0.0891,0.1399 0,0.15625 0.0418,-0.0254 0.0422,-0.0799 0.0312,-0.15625 -0.0236,-0.0254 -0.0131,-0.007 -0.0312,0 z m -0.0312,0.25 c -0.0291,0.009 -0.063,-0.0015 -0.0937,0.03125 0.002,0.10178 0.02,0.16094 0,0.25 0.0582,0.11269 0.18967,0.04505 0.21875,-0.03125 0.0346,-0.18903 -0.0377,-0.27363 -0.125,-0.25 z m 0.78125,0.5 c -0.08,-0.004 -0.14023,0.0247 -0.1875,0.0625 0.0673,0.10906 0.19285,0.12898 0.34375,0.15625 0.0545,-0.04 0.0371,-0.14968 0.0625,-0.21875 -0.0655,0 -0.10751,0.004 -0.1875,0 z m -15.875,3.84375 c 0.0639,0.08137 0.1329,0.176267 0.21875,0.21875 0.0455,0.0236 0.0981,0.01855 0.15625,0.03125 0.0473,0.009 0.0796,0.048 0.125,0.0625 0.0964,0.0327 0.23615,0.028 0.3125,0.0625 0.11636,0.0509 0.18125,0.25433 0.28125,0.3125 0.005,0.0582 -0.0182,0.11263 0,0.15625 0.0473,0.0636 0.14238,0.08324 0.21875,0.125 0.0927,0.0509 0.13149,0.17876 0.21875,0.21875 0.0309,0.0127 0.0777,-0.0145 0.125,0 0.11999,0.0364 0.14637,0.21839 0.25,0.1875 0.0673,-0.02 0.0828,-0.12207 0.0937,-0.1875 0.0455,-0.0491 0.0853,-0.125 0.15625,-0.125 0.11271,-0.002 0.14568,0.13914 0.1875,0.25 0.0236,0.0618 0.0774,0.12207 0.0937,0.1875 0.0273,0.11269 0.0236,0.43275 0,0.5 -0.0291,0.0836 -0.14966,0.12787 -0.21875,0.21875 -0.0327,0.0436 -0.0683,0.09596 -0.0937,0.125 -0.0436,0.0545 -0.0922,0.07596 -0.125,0.125 -0.0182,0.0273 -0.0149,0.08684 -0.0312,0.125 -0.0546,0.11632 -0.13923,0.20379 -0.0937,0.34375 0.0182,0.0564 0.0937,0.12026 0.0937,0.1875 0,0.08 -0.17477,0.10026 -0.1875,0.1875 -0.009,0.0636 0.0738,0.19582 0.0937,0.28125 0.0145,0.0636 0.11807,0.11444 0.15625,0.15625 0.0636,0.0709 0.12932,0.15912 0.1875,0.25 0.11453,0.1763 0.16855,0.38983 0.28125,0.5625 0.06,0.0891 0.17875,0.15549 0.21875,0.25 0.02,0.0473 -0.0182,0.14389 0,0.1875 0.0654,0.14723 0.38399,0.3023 0.53125,0.375 0.0691,0.0346 0.12388,0.05735 0.1875,0.09375 0.0964,0.0546 0.29467,0.16458 0.34375,0.25 0.0436,0.0764 0.072,0.25323 0.0937,0.375 0.0273,0.15995 -0.007,0.29607 0,0.46875 0.005,0.0945 0.0312,0.15548 0.0312,0.25 0,0.0327 0.002,0.09227 0,0.125 -0.002,0.11269 0.009,0.22925 0,0.34375 -0.005,0.0618 -0.004,0.13479 0,0.1875 0.005,0.0564 0.0589,0.07594 0.0625,0.125 0.004,0.0527 -0.068,0.11445 -0.0625,0.15625 0.0127,0.11451 0.13443,0.20708 0.15625,0.3125 0.0182,0.0836 0.0422,0.27503 0.0312,0.375 -0.007,0.0527 -0.0239,0.12934 -0.0312,0.1875 -0.005,0.0455 0.007,0.08323 0,0.125 C 24.66444,41.961964 22.9999,39.18145 22.9999,36 c 0,-0.407876 0.0412,-0.794005 0.0937,-1.1875 z m 3.4375,0.90625 c 0.0873,-0.04 0.0709,0.11409 0,0.125 -0.0673,0.009 -0.0654,-0.09405 0,-0.125 z"
     class="ColorScheme-Background"
     id="path12-6-1" />
</svg>
