<?xml version="1.0" encoding="UTF-8" standalone="no"?>
<svg
   viewBox="0 0 64 64"
   version="1.1"
   id="svg12"
   sodipodi:docname="folder-paint.svg"
   inkscape:version="1.2.1 (9c6d41e410, 2022-07-14)"
   xmlns:inkscape="http://www.inkscape.org/namespaces/inkscape"
   xmlns:sodipodi="http://sodipodi.sourceforge.net/DTD/sodipodi-0.dtd"
   xmlns:xlink="http://www.w3.org/1999/xlink"
   xmlns="http://www.w3.org/2000/svg"
   xmlns:svg="http://www.w3.org/2000/svg"
   xmlns:rdf="http://www.w3.org/1999/02/22-rdf-syntax-ns#"
   xmlns:cc="http://creativecommons.org/ns#"
   xmlns:dc="http://purl.org/dc/elements/1.1/">
  <metadata
     id="metadata16">
    <rdf:RDF>
      <cc:Work
         rdf:about="">
        <dc:format>image/svg+xml</dc:format>
        <dc:type
           rdf:resource="http://purl.org/dc/dcmitype/StillImage" />
      </cc:Work>
    </rdf:RDF>
  </metadata>
  <sodipodi:namedview
     pagecolor="#ffffff"
     bordercolor="#666666"
     borderopacity="1"
     objecttolerance="10"
     gridtolerance="10"
     guidetolerance="10"
     inkscape:pageopacity="0"
     inkscape:pageshadow="2"
     inkscape:window-width="1920"
     inkscape:window-height="1004"
     id="namedview14"
     showgrid="true"
     inkscape:zoom="5.2149125"
     inkscape:cx="44.008409"
     inkscape:cy="52.925145"
     inkscape:window-x="0"
     inkscape:window-y="0"
     inkscape:window-maximized="1"
     inkscape:current-layer="svg12"
     inkscape:showpageshadow="2"
     inkscape:pagecheckerboard="0"
     inkscape:deskcolor="#d1d1d1">
    <inkscape:grid
       type="xygrid"
       id="grid2873" />
  </sodipodi:namedview>
  <defs
     id="defs3051">
    <linearGradient
       inkscape:collect="always"
       id="linearGradient1418">
      <stop
         style="stop-color:#ffe680;stop-opacity:1"
         offset="0"
         id="stop1410" />
      <stop
         style="stop-color:#5fd38d;stop-opacity:1"
         offset="0.12825146"
         id="stop1412" />
      <stop
         style="stop-color:#ccaaff;stop-opacity:1"
         offset="0.61742812"
         id="stop1414" />
      <stop
         style="stop-color:#00ccff;stop-opacity:1"
         offset="1"
         id="stop1416" />
    </linearGradient>
    <style
       type="text/css"
       id="current-color-scheme">.ColorScheme-Text { color:#31363b; }
.ColorScheme-Background { color:#eff0f1; }
.ColorScheme-Highlight { color:#3daee9; }
.ColorScheme-ViewText { color:#31363b; }
.ColorScheme-ViewBackground { color:#fcfcfc; }
.ColorScheme-ViewHover { color:#93cee9; }
.ColorScheme-ViewFocus { color:#3daee9; }
.ColorScheme-ButtonText { color:#31363b; }
.ColorScheme-ButtonBackground { color:#eff0f1; }
.ColorScheme-ButtonHover { color:#93cee9; }
.ColorScheme-ButtonFocus { color:#3daee9; }
</style>
    <linearGradient
       inkscape:collect="always"
       id="linearGradient4393">
      <stop
         style="stop-color:#000000;stop-opacity:1;"
         offset="0"
         id="stop4395" />
      <stop
         style="stop-color:#000000;stop-opacity:0;"
         offset="1"
         id="stop4397" />
    </linearGradient>
    <linearGradient
       inkscape:collect="always"
       xlink:href="#linearGradient886"
       id="linearGradient888"
       x1="75.75985"
       y1="208.49026"
       x2="91.646347"
       y2="264.21182"
       gradientUnits="userSpaceOnUse"
       gradientTransform="matrix(0.7314896,0,0,0.72862121,-27.038457,-142.51031)" />
    <linearGradient
       inkscape:collect="always"
       id="linearGradient886">
      <stop
         style="stop-color:#c6afe9;stop-opacity:1"
         offset="0"
         id="stop882" />
      <stop
         style="stop-color:#55ddff;stop-opacity:1"
         offset="0.48468637"
         id="stop1402" />
      <stop
         style="stop-color:#00aad4;stop-opacity:1"
         offset="1"
         id="stop884" />
    </linearGradient>
    <filter
       inkscape:collect="always"
       style="color-interpolation-filters:sRGB"
       id="filter1881"
       x="-0.09064882"
       width="1.1812976"
       y="-0.40803665"
       height="1.8160733">
      <feGaussianBlur
         inkscape:collect="always"
         stdDeviation="0.85615684"
         id="feGaussianBlur1883" />
    </filter>
    <inkscape:path-effect
       effect="fillet_chamfer"
       id="path-effect1331"
       is_visible="true"
       lpeversion="1"
       satellites_param="F,0,0,1,0,2.1166667,0,1 @ F,0,0,1,0,2.1166667,0,1 @ F,0,0,1,0,2.1166667,0,1 @ F,0,0,1,0,2.1166667,0,1"
       unit="px"
       method="arc"
       mode="F"
       radius="8"
       chamfer_steps="1"
       flexible="false"
       use_knot_distance="true"
       apply_no_radius="true"
       apply_with_radius="true"
       only_selected="false"
       hide_knots="false"
       nodesatellites_param="F,0,0,1,0,2.1166667,0,1 @ F,0,0,1,0,2.1166667,0,1 @ F,0,0,1,0,2.1166667,0,1 @ F,0,0,1,0,2.1166667,0,1" />
    <linearGradient
       inkscape:collect="always"
       xlink:href="#linearGradient852"
       id="linearGradient1493"
       x1="3.0001376"
       y1="35.104172"
       x2="60.999863"
       y2="35.104172"
       gradientUnits="userSpaceOnUse"
       gradientTransform="translate(-5.45e-5)" />
    <linearGradient
       inkscape:collect="always"
       id="linearGradient852">
      <stop
         style="stop-color:#ffe680;stop-opacity:1"
         offset="0"
         id="stop848" />
      <stop
         style="stop-color:#5fd38d;stop-opacity:1"
         offset="0.12825146"
         id="stop1485" />
      <stop
         style="stop-color:#ffaacc;stop-opacity:1"
         offset="0.5218882"
         id="stop1483" />
      <stop
         style="stop-color:#00ccff;stop-opacity:1"
         offset="1"
         id="stop850" />
    </linearGradient>
    <linearGradient
       inkscape:collect="always"
       xlink:href="#linearGradient1418"
       id="linearGradient854-7"
       x1="56.250744"
       y1="208.49011"
       x2="116.17448"
       y2="269.22797"
       gradientUnits="userSpaceOnUse"
       gradientTransform="matrix(0.7314896,0,0,0.72862121,-27.077097,-142.51031)" />
    <linearGradient
       inkscape:collect="always"
       xlink:href="#linearGradient4393"
       id="linearGradient668-3"
       gradientUnits="userSpaceOnUse"
       gradientTransform="matrix(3.6204685,0,0,3.4670854,3.0000425,-3596.8228)"
       x1="5"
       y1="1037.3622"
       x2="8"
       y2="1051.3622" />
  </defs>
  <path
     id="rect10"
     style="fill:url(#linearGradient888);fill-opacity:1;stroke-width:0.119494"
     d="m 6.0966435,9.4 c -1.710401,0 -3.09675,1.38103 -3.09675,3.08455 v 3.039 36.01029 c 0,1.70346 1.386349,3.08458 3.09675,3.08458 H 57.903327 c 1.7102,0 3.096481,-1.38111 3.096481,-3.08458 l -0.005,-32.68748 c -0.1316,-1.68954 0.0653,-5.59073 -5.7405,-5.59073 h -26.34702 c 0.0242,0 -1.90964,-1.73503 -3.63108,-2.76927 C 23.900968,9.59262 22.042828,9.4 22.042828,9.4 Z"
     sodipodi:nodetypes="scccscccccccs" />
  <path
     style="opacity:0.309598;fill:#000000;fill-opacity:1;stroke:none;stroke-width:0.144851;stroke-opacity:1;filter:url(#filter1881)"
     id="rect873"
     width="22.667437"
     height="5.0357642"
     x="46.507095"
     y="222.89639"
     transform="matrix(1.05206,0,0,1.4052333,-43.682988,-292.95825)"
     inkscape:path-effect="#path-effect1331"
     d="m 48.623762,222.89639 h 18.434103 a 2.1166667,2.1166667 45 0 1 2.116667,2.11667 v 0.80243 a 2.1166667,2.1166667 135 0 1 -2.116667,2.11667 l -18.434103,0 a 2.1166667,2.1166667 45 0 1 -2.116667,-2.11667 v -0.80243 a 2.1166667,2.1166667 135 0 1 2.116667,-2.11667 z"
     sodipodi:type="rect" />
  <path
     id="rect851"
     style="fill:url(#linearGradient1493);fill-opacity:1;stroke-width:0.193144"
     d="m 28.848057,16.55348 v 3.05695 h -7.22158 c 3.56696,-0.009 4.52491,-1.0483 7.22158,-3.05695 z m 0,0 h 28.909021 c 1.70351,-0.008 3.236179,1.36199 3.242719,3.05695 H 28.848057 Z M 6.0968325,19.61043 H 60.999807 v 30.96333 c 0,1.70172 -1.38628,3.08114 -3.09648,3.08114 H 6.0968325 c -1.7104,0 -3.09675,-1.37942 -3.09675,-3.08114 v -27.882 c 0,-1.70181 1.38635,-3.08133 3.09675,-3.08133 z"
     sodipodi:nodetypes="cccccccccccccsccc" />
  <path
     id="rect851-3"
     style="fill:url(#linearGradient854-7);fill-opacity:1;stroke-width:0.193226"
     d="m 29.207347,17.77076 -0.0784,3.19607 -7.1419,-0.13585 c 3.56705,-0.009 4.52482,-1.04952 7.22144,-3.06022 z m 0,0 h 28.696021 c 1.70347,-0.008 3.0899,1.36335 3.096509,3.06022 l -31.87208,0.13585 z M 6.0968825,20.83098 H 60.999887 V 50.5751 c 0,1.70361 -1.38629,3.08458 -3.096519,3.08457 H 6.0968825 c -1.71042,1e-5 -3.09677,-1.38096 -3.09677,-3.08457 V 23.9156 c 0,-1.70354 1.38635,-3.08462 3.09677,-3.08462 z"
     sodipodi:nodetypes="cccccccccccsccssc" />
  <rect
     style="fill:#ffffff;fill-opacity:0.987883;stroke:#e5e9ef;stroke-width:0.580474;stroke-opacity:1;paint-order:markers fill stroke"
     id="rect2191"
     width="57.5"
     height="7.2964485e-07"
     x="3.2500052"
     y="47.690247" />
  <rect
     style="fill:#ffffff;fill-opacity:0.972837;stroke:#e5e9ef;stroke-width:0.580474;stroke-opacity:1;paint-order:markers fill stroke"
     id="rect2191-0-9"
     width="57.5"
     height="7.2964485e-07"
     x="3.2500052"
     y="50.690247" />
  <path
     style="opacity:0.181;fill:url(#linearGradient668-3);fill-opacity:1;fill-rule:evenodd;stroke:none;stroke-width:3.54294px;stroke-linecap:butt;stroke-linejoin:miter;stroke-opacity:1"
     d="M 6.0000025,20.8 31.963747,48.33972 H 60.927478 L 60.999978,20.8 H 6.0587825 Z"
     id="path4152-2-5"
     inkscape:connector-curvature="0"
     sodipodi:nodetypes="cccccc" />
  <path
     style="color:#232629;fill:#ffffff;fill-opacity:1;stroke:none;stroke-width:0.789206"
     d="M 42.505931,23 C 41.085337,23.157775 29.720843,35.074736 29.720843,35.074736 l -3.630223,4.024935 c -0.473595,0.157875 -1.379681,0.01697 -1.894199,0.236778 -1.262739,0.473514 -2.051904,1.009372 -2.683174,2.762185 -0.552487,1.499517 1.025932,4.072367 2.367474,3.630393 -0.63124,0 -1.420504,-0.868147 -1.025982,-1.499457 0.789245,-1.499506 3.906677,-1.170382 3.788178,-4.498459 l 3.946153,-3.709336 c 0,0 12.863931,-12.074775 12.074766,-12.864 h -0.07965 z m -4.1828,12.074736 c -0.473435,0 -1.26272,0.789284 -2.841129,3.156918 -1.499476,2.525449 -5.445419,4.261672 -5.208692,1.815047 0.07955,-0.63126 -1.420504,-0.394493 -2.841138,-0.394493 0,4.261633 -2.421932,3.156698 -3.866991,4.971885 -0.157925,1.420654 6.471402,2.270545 10.022852,-0.157795 4.261663,-2.920121 5.1298,-6.866104 5.208643,-8.207765 0,-0.710272 -0.157795,-1.183797 -0.473545,-1.183797 z m -5.603325,3.077996 c 0,0.236747 -0.552377,0.07925 -0.789224,0.236747 -0.552308,0.31567 -0.80804,0.788506 -0.63126,1.104904 0.157745,0.31558 0.710182,0.31558 1.262729,0 0.552407,-0.315729 0.808349,-0.789234 0.63125,-1.104904 -0.07895,-0.157825 -0.236737,-0.236747 -0.473495,-0.236747 z"
     class="ColorScheme-Text"
     id="path10248-1-7" />
</svg>
