<?xml version="1.0" encoding="UTF-8" standalone="no"?>
<svg
   viewBox="0 0 64 64"
   version="1.1"
   id="svg12"
   sodipodi:docname="folder-sign.svg"
   inkscape:version="1.2.1 (9c6d41e410, 2022-07-14)"
   xmlns:inkscape="http://www.inkscape.org/namespaces/inkscape"
   xmlns:sodipodi="http://sodipodi.sourceforge.net/DTD/sodipodi-0.dtd"
   xmlns:xlink="http://www.w3.org/1999/xlink"
   xmlns="http://www.w3.org/2000/svg"
   xmlns:svg="http://www.w3.org/2000/svg"
   xmlns:rdf="http://www.w3.org/1999/02/22-rdf-syntax-ns#"
   xmlns:cc="http://creativecommons.org/ns#"
   xmlns:dc="http://purl.org/dc/elements/1.1/">
  <metadata
     id="metadata16">
    <rdf:RDF>
      <cc:Work
         rdf:about="">
        <dc:format>image/svg+xml</dc:format>
        <dc:type
           rdf:resource="http://purl.org/dc/dcmitype/StillImage" />
      </cc:Work>
    </rdf:RDF>
  </metadata>
  <sodipodi:namedview
     pagecolor="#ffffff"
     bordercolor="#666666"
     borderopacity="1"
     objecttolerance="10"
     gridtolerance="10"
     guidetolerance="10"
     inkscape:pageopacity="0"
     inkscape:pageshadow="2"
     inkscape:window-width="1920"
     inkscape:window-height="1004"
     id="namedview14"
     showgrid="true"
     inkscape:zoom="10.429825"
     inkscape:cx="31.687972"
     inkscape:cy="41.851134"
     inkscape:window-x="0"
     inkscape:window-y="0"
     inkscape:window-maximized="1"
     inkscape:current-layer="svg12"
     inkscape:showpageshadow="2"
     inkscape:pagecheckerboard="0"
     inkscape:deskcolor="#d1d1d1">
    <inkscape:grid
       type="xygrid"
       id="grid2873" />
  </sodipodi:namedview>
  <defs
     id="defs3051">
    <style
       type="text/css"
       id="current-color-scheme">.ColorScheme-Text { color:#31363b; }
.ColorScheme-Background { color:#eff0f1; }
.ColorScheme-Highlight { color:#3daee9; }
.ColorScheme-ViewText { color:#31363b; }
.ColorScheme-ViewBackground { color:#fcfcfc; }
.ColorScheme-ViewHover { color:#93cee9; }
.ColorScheme-ViewFocus { color:#3daee9; }
.ColorScheme-ButtonText { color:#31363b; }
.ColorScheme-ButtonBackground { color:#eff0f1; }
.ColorScheme-ButtonHover { color:#93cee9; }
.ColorScheme-ButtonFocus { color:#3daee9; }
</style>
    <linearGradient
       inkscape:collect="always"
       id="linearGradient4393">
      <stop
         style="stop-color:#000000;stop-opacity:1;"
         offset="0"
         id="stop4395" />
      <stop
         style="stop-color:#000000;stop-opacity:0;"
         offset="1"
         id="stop4397" />
    </linearGradient>
    <linearGradient
       inkscape:collect="always"
       xlink:href="#linearGradient886"
       id="linearGradient888"
       x1="75.75985"
       y1="208.49026"
       x2="91.646347"
       y2="264.21182"
       gradientUnits="userSpaceOnUse"
       gradientTransform="matrix(0.7314896,0,0,0.72862121,-27.038311,-142.51033)" />
    <linearGradient
       inkscape:collect="always"
       id="linearGradient886">
      <stop
         style="stop-color:#eea58c;stop-opacity:1;"
         offset="0"
         id="stop882" />
      <stop
         style="stop-color:#f8dad0;stop-opacity:1"
         offset="0.48468637"
         id="stop1402" />
      <stop
         style="stop-color:#eb9172;stop-opacity:1"
         offset="1"
         id="stop884" />
    </linearGradient>
    <filter
       inkscape:collect="always"
       style="color-interpolation-filters:sRGB"
       id="filter1881"
       x="-0.09064882"
       width="1.1812976"
       y="-0.40803665"
       height="1.8160733">
      <feGaussianBlur
         inkscape:collect="always"
         stdDeviation="0.85615684"
         id="feGaussianBlur1883" />
    </filter>
    <inkscape:path-effect
       effect="fillet_chamfer"
       id="path-effect1331"
       is_visible="true"
       lpeversion="1"
       satellites_param="F,0,0,1,0,2.1166667,0,1 @ F,0,0,1,0,2.1166667,0,1 @ F,0,0,1,0,2.1166667,0,1 @ F,0,0,1,0,2.1166667,0,1"
       unit="px"
       method="arc"
       mode="F"
       radius="8"
       chamfer_steps="1"
       flexible="false"
       use_knot_distance="true"
       apply_no_radius="true"
       apply_with_radius="true"
       only_selected="false"
       hide_knots="false"
       nodesatellites_param="F,0,0,1,0,2.1166667,0,1 @ F,0,0,1,0,2.1166667,0,1 @ F,0,0,1,0,2.1166667,0,1 @ F,0,0,1,0,2.1166667,0,1" />
    <linearGradient
       inkscape:collect="always"
       xlink:href="#linearGradient852"
       id="linearGradient854-7"
       x1="57.522335"
       y1="236.76271"
       x2="105.3699"
       y2="264.21182"
       gradientUnits="userSpaceOnUse"
       gradientTransform="matrix(0.7314896,0,0,0.72862121,-27.076951,-142.51033)" />
    <linearGradient
       inkscape:collect="always"
       id="linearGradient852">
      <stop
         style="stop-color:#c29bbe;stop-opacity:1"
         offset="0"
         id="stop848" />
      <stop
         style="stop-color:#aa74a4;stop-opacity:1;"
         offset="1"
         id="stop850" />
    </linearGradient>
    <linearGradient
       inkscape:collect="always"
       xlink:href="#linearGradient4393"
       id="linearGradient668-3"
       gradientUnits="userSpaceOnUse"
       gradientTransform="matrix(3.6204685,0,0,3.4670854,3.000079,-3596.8228)"
       x1="5"
       y1="1037.3622"
       x2="8"
       y2="1051.3622" />
  </defs>
  <path
     id="rect10"
     style="fill:url(#linearGradient888);fill-opacity:1;stroke-width:0.119494"
     d="m 6.096789,9.4 c -1.7104,0 -3.09675,1.38103 -3.09675,3.08455 v 3.039 36.01029 c 0,1.70346 1.38635,3.08458 3.09675,3.08458 h 51.806692 c 1.7102,0 3.09648,-1.38111 3.09648,-3.08458 l -0.005,-32.68748 c -0.1316,-1.68954 0.0653,-5.59073 -5.7405,-5.59073 h -26.34703 c 0.0242,0 -1.90964,-1.73503 -3.63108,-2.76927 C 23.901111,9.59262 22.042971,9.4 22.042971,9.4 Z"
     sodipodi:nodetypes="scccscccccccs" />
  <path
     style="opacity:0.309598;fill:#000000;fill-opacity:1;stroke:none;stroke-width:0.144851;stroke-opacity:1;filter:url(#filter1881)"
     id="rect873"
     width="22.667437"
     height="5.0357642"
     x="46.507095"
     y="222.89639"
     transform="matrix(1.05206,0,0,1.4052333,-43.682841,-292.95827)"
     inkscape:path-effect="#path-effect1331"
     d="m 48.623762,222.89639 h 18.434103 a 2.1166667,2.1166667 45 0 1 2.116667,2.11667 v 0.80243 a 2.1166667,2.1166667 135 0 1 -2.116667,2.11667 l -18.434103,0 a 2.1166667,2.1166667 45 0 1 -2.116667,-2.11667 v -0.80243 a 2.1166667,2.1166667 135 0 1 2.116667,-2.11667 z"
     sodipodi:type="rect" />
  <path
     id="rect851"
     style="fill:#ec997d;fill-opacity:1;stroke-width:0.193144"
     d="m 28.848201,16.55348 v 3.05695 h -7.22158 c 3.56696,-0.009 4.52492,-1.0483 7.22158,-3.05695 z m 0,0 h 28.90903 c 1.70351,-0.008 3.23617,1.36199 3.24272,3.05695 H 28.848201 Z M 6.096979,19.61043 h 54.902982 v 30.96333 c 0,1.70172 -1.38628,3.08114 -3.09648,3.08114 H 6.096979 c -1.7104,0 -3.09675,-1.37942 -3.09675,-3.08114 v -27.882 c 0,-1.70181 1.38635,-3.08133 3.09675,-3.08133 z"
     sodipodi:nodetypes="cccccccccccccsccc" />
  <path
     id="rect851-3"
     style="fill:url(#linearGradient854-7);fill-opacity:1;stroke-width:0.193226"
     d="m 29.207491,17.77076 -0.0784,3.19607 -7.14189,-0.13585 c 3.56704,-0.009 4.52481,-1.04952 7.22143,-3.06022 z m 0,0 h 28.69603 c 1.70347,-0.008 3.0899,1.36335 3.09651,3.06022 l -31.87209,0.13585 z M 6.097029,20.83098 H 61.000041 V 50.5751 c 0,1.70361 -1.3863,3.08458 -3.09652,3.08457 H 6.097029 c -1.71042,1e-5 -3.09677,-1.38096 -3.09677,-3.08457 V 23.9156 c 0,-1.70354 1.38635,-3.08462 3.09677,-3.08462 z"
     sodipodi:nodetypes="cccccccccccsccssc" />
  <rect
     style="fill:#ffffff;fill-opacity:0.25;stroke:#e5e9ef;stroke-width:0.580474;stroke-opacity:0.5;paint-order:markers fill stroke"
     id="rect2191"
     width="57.5"
     height="7.2964485e-07"
     x="3.2500398"
     y="47.690254" />
  <rect
     style="fill:#ffffff;fill-opacity:0.5;stroke:#e5e9ef;stroke-width:0.580474;stroke-opacity:0.5;paint-order:markers fill stroke"
     id="rect2191-0-9"
     width="57.5"
     height="7.2964485e-07"
     x="3.2500398"
     y="50.690254" />
  <path
     style="opacity:0.181;fill:url(#linearGradient668-3);fill-opacity:1;fill-rule:evenodd;stroke:none;stroke-width:3.54294px;stroke-linecap:butt;stroke-linejoin:miter;stroke-opacity:1"
     d="m 6.000039,20.8 25.963742,27.53972 h 28.96374 L 61.000021,20.8 H 6.058819 Z"
     id="path4152-2-5"
     inkscape:connector-curvature="0"
     sodipodi:nodetypes="cccccc" />
  <path
     style="color:#232629;fill:#fcfeff;fill-opacity:1;stroke:none;stroke-width:0.705819"
     d="m 39.049981,24.24037 c -0.0986,-0.002 -0.19968,0.0266 -0.29495,0.0863 -0.0513,0.0346 -0.27212,0.30039 -0.48941,0.59002 l -0.39572,0.53212 -0.14328,-0.098 c -0.20066,-0.13235 -0.39424,-0.16159 -0.57485,-0.0797 -0.12481,0.0563 -0.41739,0.43388 -2.33665,2.98597 -1.21131,1.60886 -2.19621,2.93784 -2.19324,2.95834 0.003,0.017 0.49414,0.4012 1.08901,0.84785 l 1.08762,0.81746 1.43101,-1.90657 c 0.78754,-1.0488 1.44275,-1.89765 1.45847,-1.8859 0.0512,0.0376 0.14366,0.86155 0.12544,1.12637 -0.01,0.14442 -0.0608,0.40393 -0.11721,0.57619 -0.0996,0.30789 -0.11044,0.32593 -1.88442,2.69647 -0.9812,1.31043 -1.79817,2.4236 -1.8128,2.46757 -0.0414,0.12128 0.007,0.34822 0.0967,0.47836 0.1535,0.21939 0.5331,0.2887 0.74853,0.1323 0.14885,-0.10861 3.66278,-4.83873 3.77448,-5.08542 0.32642,-0.70359 0.39401,-1.60456 0.18747,-2.49109 -0.0809,-0.35181 -0.18821,-0.69006 -0.29222,-0.93046 -0.0311,-0.0648 0.0194,-0.1497 0.3488,-0.59134 0.31051,-0.42166 0.38176,-0.54018 0.38731,-0.64926 0.0125,-0.23241 -0.058,-0.36186 -0.28674,-0.539 l -0.21222,-0.16555 0.42183,-0.56659 c 0.34572,-0.46855 0.42056,-0.59104 0.42596,-0.70028 0.0152,-0.3481 -0.25299,-0.60329 -0.54872,-0.60653 z m -7.106395,7.85771 c -0.011,0.002 -1.301,1.71637 -2.87012,3.80612 -2.52387,3.36517 -2.88278,3.86336 -3.11558,4.29141 -0.46234,0.85229 -0.96562,2.15174 -1.29987,3.33881 -0.21675,0.76145 -0.22758,0.69255 0.0748,0.53072 0.93151,-0.50309 2.14824,-1.31977 2.85622,-1.92031 0.69232,-0.58778 0.81018,-0.73729 3.74282,-4.64294 l 2.820515,-3.76059 -1.09596,-0.823 c -0.60276,-0.4526 -1.1021,-0.82175 -1.112495,-0.82022 z m 0.317105,8.70961 c -0.13861,-0.01 -0.28121,-0.005 -0.373685,0.0145 v 0.002 c -0.43824,0.0926 -0.92635,0.47229 -1.16202,0.90984 -0.063,0.11371 -0.16466,0.37115 -0.22749,0.56522 -0.0582,0.1976 -0.11434,0.36251 -0.11862,0.36666 -0.0337,0.0416 -0.87207,0.24343 -1.36473,0.32813 -1.15814,0.20257 -1.47447,0.27805 -1.58811,0.38323 -0.22305,0.2061 -0.0506,0.41368 0.26608,0.32121 0.0835,-0.0262 0.44202,-0.0967 0.78715,-0.15578 0.34583,-0.0586 0.87185,-0.1687 1.17043,-0.23571 0.29927,-0.0718 0.55252,-0.11887 0.56516,-0.10609 0.012,0.0122 -0.0366,0.25252 -0.11715,0.53479 l -0.14339,0.50595 -0.31703,0.13922 c -0.17289,0.0763 -0.42081,0.20607 -0.55142,0.29499 -0.396,0.26116 -0.47245,0.58927 -0.19436,0.79958 0.15173,0.11368 0.57289,0.10947 0.83398,-0.006 0.23151,-0.10519 0.36176,-0.25223 0.54318,-0.63548 0.0968,-0.19832 0.17299,-0.30296 0.23156,-0.31568 0.0472,-0.0129 0.46479,-0.0972 0.9278,-0.19441 0.4637,-0.0926 0.884465,-0.18172 0.938805,-0.19433 0.088,-0.0206 0.0973,-0.0122 0.0721,0.0675 -0.0164,0.051 -0.0935,0.19889 -0.17372,0.32947 -0.0799,0.13059 -0.14337,0.2859 -0.14337,0.34874 0,0.13058 0.11032,0.26135 0.19852,0.22747 0.0339,-0.0121 0.0792,-0.0255 0.1007,-0.0255 0.0206,0 0.11425,-0.0676 0.20671,-0.15162 0.17292,-0.15596 0.59008,-0.9192 0.59008,-1.07943 0,-0.0793 0.0628,-0.10005 0.1006,-0.0365 0.0122,0.0206 0.10855,0.0587 0.21367,0.0834 0.14759,0.0376 0.19026,0.0663 0.19026,0.13375 0,0.13056 0.21541,0.32103 0.40531,0.35843 0.1475,0.0262 0.33711,-0.006 0.53901,-0.088 0.072,-0.0302 0.0763,-0.0206 0.0515,0.088 -0.0164,0.0678 -0.1396,0.28283 -0.27016,0.48114 -0.27807,0.41286 -0.61482,1.06982 -0.70306,1.3606 -0.0718,0.24843 -0.0417,0.4342 0.088,0.52251 0.11784,0.0763 0.31127,0.0402 0.41219,-0.0695 0.0879,-0.0969 0.56928,-1.11132 0.74576,-1.57427 0.12634,-0.32467 0.18488,-0.41337 0.47145,-0.71693 0.23581,-0.24837 0.31273,-0.30756 0.26194,-0.21088 -0.0837,0.18147 -0.08,0.3199 0.0119,0.40394 0.19765,0.18131 0.48421,0.006 0.73338,-0.45081 0.14754,-0.26959 0.25733,-0.34891 0.80506,-0.60659 l 0.28536,-0.13091 -0.0294,0.15573 c -0.0162,0.0837 -0.11419,0.32467 -0.21508,0.53074 -0.1983,0.41712 -0.23509,0.68257 -0.11716,0.90984 0.0795,0.15604 0.16387,0.16109 0.55141,0.0268 0.53926,-0.18136 1.2426,-0.59955 1.42544,-0.83948 0.24839,-0.33743 0.32472,-0.66124 0.17368,-0.77065 -0.15595,-0.11356 -0.24415,-0.0674 -0.44247,0.22332 -0.26548,0.39604 -0.59364,0.70425 -0.90992,0.86026 -0.14749,0.0762 -0.27811,0.1257 -0.29088,0.11306 -0.0162,-0.0165 0.31973,-0.92266 0.50041,-1.34827 0.0376,-0.0879 0.0695,-0.19809 0.0695,-0.24398 0,-0.11789 -0.14799,-0.25223 -0.27432,-0.25223 -0.0586,0 -0.33812,0.11309 -0.61622,0.25637 -0.57734,0.28656 -0.53901,0.31183 -0.39149,-0.22748 0.088,-0.33246 0.0585,-0.42127 -0.14337,-0.44252 -0.19406,-0.0206 -0.26952,0.0421 -0.44658,0.35843 -0.11372,0.21458 -0.26486,0.39206 -0.55563,0.66177 -0.38323,0.35356 -0.40043,0.366 -0.48938,0.30318 -0.1348,-0.0969 -0.21082,-0.0834 -0.53902,0.0802 -0.32045,0.16021 -0.42614,0.18143 -0.50592,0.0837 -0.0678,-0.0798 0.0382,-0.12209 0.62448,-0.23572 0.56885,-0.10944 0.63964,-0.13994 0.63964,-0.25783 0,-0.18986 -0.15618,-0.37001 -0.43427,-0.49214 -0.48065,-0.21451 -0.53406,-0.228 -0.74439,-0.1737 -0.22729,0.0585 -0.56477,0.38331 -0.6107,0.58594 -0.0472,0.21098 -0.19018,0.14739 -0.19018,-0.0838 0,-0.0969 -0.11843,-0.34091 -0.18619,-0.38322 -0.14321,-0.0969 -0.37428,0.11425 -0.55131,0.50179 l -0.13928,0.29911 -0.31152,0.0675 c -0.40446,0.088 -1.579655,0.32393 -1.735685,0.35432 -0.10079,0.0165 -0.11763,0.0101 -0.0967,-0.0515 0.0163,-0.0414 0.0668,-0.22642 0.11714,-0.4163 0.13052,-0.52231 0.16931,-0.5905 0.3584,-0.65757 0.22726,-0.0797 0.994865,-0.40912 1.192435,-0.51004 0.0926,-0.0472 0.28145,-0.18933 0.42049,-0.31568 0.42553,-0.39601 0.49235,-0.76295 0.1888,-1.0325 -0.0837,-0.0718 -0.1939,-0.14702 -0.244,-0.1683 -0.0778,-0.0302 -0.21163,-0.0506 -0.35007,-0.0571 z m -0.424595,0.49214 c 0.0582,-0.005 0.127625,-0.002 0.215035,0.006 0.22305,0.0124 0.31213,0.034 0.37489,0.10059 0.0837,0.0835 0.0835,0.0876 0.0101,0.24815 -0.0513,0.1009 -0.16812,0.21954 -0.31566,0.32118 -0.256885,0.17717 -1.062285,0.50104 -1.087595,0.44244 -0.0336,-0.0969 0.22423,-0.67452 0.3887,-0.8602 0.16411,-0.1863 0.24081,-0.24653 0.41638,-0.25635 z m -2.16304,3.5277 c 0.033,0.003 0.0333,0.0309 0.008,0.0822 -0.056,0.10523 -0.19874,0.18128 -0.27856,0.15158 -0.0926,-0.0376 -0.0675,-0.0875 0.0801,-0.16395 0.0972,-0.0491 0.16085,-0.073 0.19292,-0.0711 z"
     class="ColorScheme-Text"
     id="path14466-5-3" />
</svg>
