<?xml version="1.0" encoding="UTF-8" standalone="no"?>
<svg
   width="64"
   version="1.1"
   height="64"
   id="svg15"
   sodipodi:docname="folder-inkscape.svg"
   inkscape:version="1.2.1 (9c6d41e410, 2022-07-14)"
   xmlns:inkscape="http://www.inkscape.org/namespaces/inkscape"
   xmlns:sodipodi="http://sodipodi.sourceforge.net/DTD/sodipodi-0.dtd"
   xmlns:xlink="http://www.w3.org/1999/xlink"
   xmlns="http://www.w3.org/2000/svg"
   xmlns:svg="http://www.w3.org/2000/svg"
   xmlns:rdf="http://www.w3.org/1999/02/22-rdf-syntax-ns#"
   xmlns:cc="http://creativecommons.org/ns#"
   xmlns:dc="http://purl.org/dc/elements/1.1/">
  <style
     id="current-color-scheme"
     type="text/css">.ColorScheme-Text {
    color:#ffffff;
}
.ColorScheme-ButtonHover { color:#87cdde; }
.ColorScheme-Highlight { color:#00aad4; }
</style>
  <sodipodi:namedview
     pagecolor="#ffffff"
     bordercolor="#666666"
     borderopacity="1"
     objecttolerance="10"
     gridtolerance="10"
     guidetolerance="10"
     inkscape:pageopacity="0"
     inkscape:pageshadow="2"
     inkscape:window-width="1920"
     inkscape:window-height="1004"
     id="namedview17"
     showgrid="true"
     inkscape:zoom="6.9384855"
     inkscape:cx="31.058651"
     inkscape:cy="24.428962"
     inkscape:window-x="0"
     inkscape:window-y="0"
     inkscape:window-maximized="1"
     inkscape:current-layer="layer1"
     inkscape:pagecheckerboard="0"
     inkscape:showpageshadow="2"
     inkscape:deskcolor="#d1d1d1">
    <inkscape:grid
       type="xygrid"
       id="grid988" />
  </sodipodi:namedview>
  <defs
     id="defs5455">
    <linearGradient
       id="linearGradient4194">
      <stop
         style="stop-color:#b5006a"
         id="stop4196" />
      <stop
         offset="1"
         style="stop-color:#c70073"
         id="stop4198" />
    </linearGradient>
    <linearGradient
       inkscape:collect="always"
       xlink:href="#linearGradient848"
       id="linearGradient854"
       gradientUnits="userSpaceOnUse"
       x1="203.3689"
       y1="55.640129"
       x2="244.86897"
       y2="55.640129" />
    <linearGradient
       inkscape:collect="always"
       id="linearGradient848">
      <stop
         style="stop-color:#4b8bd4;stop-opacity:1"
         offset="0"
         id="stop844" />
      <stop
         style="stop-color:#3b6ca7;stop-opacity:1"
         offset="1"
         id="stop846" />
    </linearGradient>
    <linearGradient
       inkscape:collect="always"
       xlink:href="#linearGradient848"
       id="linearGradient1004"
       gradientUnits="userSpaceOnUse"
       x1="387.57144"
       y1="505.798"
       x2="445.57141"
       y2="505.798"
       gradientTransform="matrix(1.3888828,0,0,1,-172.49732,0)" />
    <inkscape:path-effect
       effect="fillet_chamfer"
       id="path-effect1331"
       is_visible="true"
       lpeversion="1"
       satellites_param="F,0,0,1,0,2.1166667,0,1 @ F,0,0,1,0,2.1166667,0,1 @ F,0,0,1,0,2.1166667,0,1 @ F,0,0,1,0,2.1166667,0,1"
       unit="px"
       method="arc"
       mode="F"
       radius="8"
       chamfer_steps="1"
       flexible="false"
       use_knot_distance="true"
       apply_no_radius="true"
       apply_with_radius="true"
       only_selected="false"
       hide_knots="false"
       nodesatellites_param="F,0,0,1,0,2.1166667,0,1 @ F,0,0,1,0,2.1166667,0,1 @ F,0,0,1,0,2.1166667,0,1 @ F,0,0,1,0,2.1166667,0,1" />
    <inkscape:path-effect
       effect="fillet_chamfer"
       id="path-effect1674"
       is_visible="true"
       lpeversion="1"
       satellites_param="F,0,0,1,0,1.8520833,0,1 @ F,0,0,1,0,1.8520833,0,1 @ F,0,0,1,0,1.8520833,0,1 @ F,0,0,1,0,1.8520833,0,1"
       unit="px"
       method="auto"
       mode="F"
       radius="7"
       chamfer_steps="1"
       flexible="false"
       use_knot_distance="true"
       apply_no_radius="true"
       apply_with_radius="true"
       only_selected="false"
       hide_knots="false"
       nodesatellites_param="F,0,0,1,0,1.8520833,0,1 @ F,0,0,1,0,1.8520833,0,1 @ F,0,0,1,0,1.8520833,0,1 @ F,0,0,1,0,1.8520833,0,1" />
    <inkscape:path-effect
       effect="fillet_chamfer"
       id="path-effect1532"
       is_visible="true"
       lpeversion="1"
       satellites_param="F,0,0,1,0,1.8520833,0,1 @ F,0,0,1,0,1.8520833,0,1 @ F,0,0,1,0,1.8520833,0,1 @ F,0,0,1,0,1.8520833,0,1"
       unit="px"
       method="auto"
       mode="F"
       radius="7"
       chamfer_steps="1"
       flexible="false"
       use_knot_distance="true"
       apply_no_radius="true"
       apply_with_radius="true"
       only_selected="false"
       hide_knots="false"
       nodesatellites_param="F,0,0,1,0,1.8520833,0,1 @ F,0,0,1,0,1.8520833,0,1 @ F,0,0,1,0,1.8520833,0,1 @ F,0,0,1,0,1.8520833,0,1" />
    <inkscape:path-effect
       effect="fillet_chamfer"
       id="path-effect1532-5"
       is_visible="true"
       lpeversion="1"
       satellites_param="F,0,0,1,0,1.8520833,0,1 @ F,0,0,1,0,1.8520833,0,1 @ F,0,0,1,0,1.8520833,0,1 @ F,0,0,1,0,1.8520833,0,1"
       unit="px"
       method="auto"
       mode="F"
       radius="7"
       chamfer_steps="1"
       flexible="false"
       use_knot_distance="true"
       apply_no_radius="true"
       apply_with_radius="true"
       only_selected="false"
       hide_knots="false"
       nodesatellites_param="F,0,0,1,0,1.8520833,0,1 @ F,0,0,1,0,1.8520833,0,1 @ F,0,0,1,0,1.8520833,0,1 @ F,0,0,1,0,1.8520833,0,1" />
    <inkscape:path-effect
       effect="fillet_chamfer"
       id="path-effect1331-7"
       is_visible="true"
       lpeversion="1"
       satellites_param="F,0,0,1,0,2.1166667,0,1 @ F,0,0,1,0,2.1166667,0,1 @ F,0,0,1,0,2.1166667,0,1 @ F,0,0,1,0,2.1166667,0,1"
       unit="px"
       method="arc"
       mode="F"
       radius="8"
       chamfer_steps="1"
       flexible="false"
       use_knot_distance="true"
       apply_no_radius="true"
       apply_with_radius="true"
       only_selected="false"
       hide_knots="false"
       nodesatellites_param="F,0,0,1,0,2.1166667,0,1 @ F,0,0,1,0,2.1166667,0,1 @ F,0,0,1,0,2.1166667,0,1 @ F,0,0,1,0,2.1166667,0,1" />
    <inkscape:path-effect
       effect="fillet_chamfer"
       id="path-effect1331-3"
       is_visible="true"
       lpeversion="1"
       satellites_param="F,0,0,1,0,2.1166667,0,1 @ F,0,0,1,0,2.1166667,0,1 @ F,0,0,1,0,2.1166667,0,1 @ F,0,0,1,0,2.1166667,0,1"
       unit="px"
       method="arc"
       mode="F"
       radius="8"
       chamfer_steps="1"
       flexible="false"
       use_knot_distance="true"
       apply_no_radius="true"
       apply_with_radius="true"
       only_selected="false"
       hide_knots="false"
       nodesatellites_param="F,0,0,1,0,2.1166667,0,1 @ F,0,0,1,0,2.1166667,0,1 @ F,0,0,1,0,2.1166667,0,1 @ F,0,0,1,0,2.1166667,0,1" />
    <inkscape:path-effect
       effect="fillet_chamfer"
       id="path-effect1331-5"
       is_visible="true"
       lpeversion="1"
       satellites_param="F,0,0,1,0,2.1166667,0,1 @ F,0,0,1,0,2.1166667,0,1 @ F,0,0,1,0,2.1166667,0,1 @ F,0,0,1,0,2.1166667,0,1"
       unit="px"
       method="arc"
       mode="F"
       radius="8"
       chamfer_steps="1"
       flexible="false"
       use_knot_distance="true"
       apply_no_radius="true"
       apply_with_radius="true"
       only_selected="false"
       hide_knots="false"
       nodesatellites_param="F,0,0,1,0,2.1166667,0,1 @ F,0,0,1,0,2.1166667,0,1 @ F,0,0,1,0,2.1166667,0,1 @ F,0,0,1,0,2.1166667,0,1" />
    <filter
       style="color-interpolation-filters:sRGB"
       inkscape:label="Drop Shadow"
       id="filter4776-3-2"
       x="-0.10445243"
       y="-0.10445242"
       width="1.2386857"
       height="1.2325768">
      <feFlood
         flood-opacity="0.498039"
         flood-color="rgb(0,0,0)"
         result="flood"
         id="feFlood4766-7-0" />
      <feComposite
         in="flood"
         in2="SourceGraphic"
         operator="in"
         result="composite1"
         id="feComposite4768-4-2" />
      <feGaussianBlur
         in="composite1"
         stdDeviation="5.69948"
         result="blur"
         id="feGaussianBlur4770-5-3" />
      <feOffset
         dx="3.9"
         dy="3.1"
         result="offset"
         id="feOffset4772-2-7" />
      <feComposite
         in="SourceGraphic"
         in2="offset"
         operator="over"
         result="composite2"
         id="feComposite4774-5-5" />
    </filter>
    <linearGradient
       inkscape:collect="always"
       id="linearGradient4393">
      <stop
         style="stop-color:#000000;stop-opacity:1;"
         offset="0"
         id="stop4395" />
      <stop
         style="stop-color:#000000;stop-opacity:0;"
         offset="1"
         id="stop4397" />
    </linearGradient>
    <linearGradient
       inkscape:collect="always"
       xlink:href="#linearGradient886-3"
       id="linearGradient888"
       x1="75.75985"
       y1="208.49026"
       x2="91.646347"
       y2="243.62498"
       gradientUnits="userSpaceOnUse"
       gradientTransform="matrix(0.7314896,0,0,0.72862121,357.53308,341.28767)" />
    <linearGradient
       inkscape:collect="always"
       id="linearGradient886-3">
      <stop
         style="stop-color:#2ad4ff;stop-opacity:1"
         offset="0"
         id="stop882-6" />
      <stop
         style="stop-color:#2affd5;stop-opacity:1"
         offset="0.48468637"
         id="stop1402-7" />
      <stop
         style="stop-color:#00e5b7;stop-opacity:1;"
         offset="1"
         id="stop884-5" />
    </linearGradient>
    <filter
       inkscape:collect="always"
       style="color-interpolation-filters:sRGB"
       id="filter1881"
       x="-0.090648818"
       width="1.1812976"
       y="-0.40803619"
       height="1.8160724">
      <feGaussianBlur
         inkscape:collect="always"
         stdDeviation="0.85615684"
         id="feGaussianBlur1883" />
    </filter>
    <inkscape:path-effect
       effect="fillet_chamfer"
       id="path-effect1331-35"
       is_visible="true"
       lpeversion="1"
       satellites_param="F,0,0,1,0,2.1166667,0,1 @ F,0,0,1,0,2.1166667,0,1 @ F,0,0,1,0,2.1166667,0,1 @ F,0,0,1,0,2.1166667,0,1"
       unit="px"
       method="arc"
       mode="F"
       radius="8"
       chamfer_steps="1"
       flexible="false"
       use_knot_distance="true"
       apply_no_radius="true"
       apply_with_radius="true"
       only_selected="false"
       hide_knots="false"
       nodesatellites_param="F,0,0,1,0,2.1166667,0,1 @ F,0,0,1,0,2.1166667,0,1 @ F,0,0,1,0,2.1166667,0,1 @ F,0,0,1,0,2.1166667,0,1" />
    <linearGradient
       inkscape:collect="always"
       xlink:href="#linearGradient852"
       id="linearGradient854-7"
       x1="76.788559"
       y1="222.65123"
       x2="92.097359"
       y2="268.94839"
       gradientUnits="userSpaceOnUse"
       gradientTransform="matrix(0.7314896,0,0,0.72862121,357.49444,341.28767)" />
    <linearGradient
       inkscape:collect="always"
       id="linearGradient852">
      <stop
         style="stop-color:#00d4aa;stop-opacity:1"
         offset="0"
         id="stop848" />
      <stop
         style="stop-color:#00aad4;stop-opacity:1"
         offset="1"
         id="stop850" />
    </linearGradient>
    <linearGradient
       inkscape:collect="always"
       xlink:href="#linearGradient4393"
       id="linearGradient668-6"
       gradientUnits="userSpaceOnUse"
       gradientTransform="matrix(3.6204685,0,0,3.4670854,387.57158,-3113.0248)"
       x1="5"
       y1="1037.3622"
       x2="8"
       y2="1051.3622" />
  </defs>
  <metadata
     id="metadata5458">
    <rdf:RDF>
      <cc:Work
         rdf:about="">
        <dc:format>image/svg+xml</dc:format>
        <dc:type
           rdf:resource="http://purl.org/dc/dcmitype/StillImage" />
      </cc:Work>
    </rdf:RDF>
  </metadata>
  <g
     inkscape:label="Capa 1"
     inkscape:groupmode="layer"
     id="layer1"
     transform="translate(-384.57143,-483.798)">
    <path
       id="rect10"
       style="fill:url(#linearGradient888);fill-opacity:1;stroke-width:0.119494"
       d="m 390.66818,493.198 c -1.7104,0 -3.09675,1.38103 -3.09675,3.08455 v 3.039 36.01029 c 0,1.70346 1.38635,3.08458 3.09675,3.08458 h 51.80669 c 1.7102,0 3.09648,-1.38111 3.09648,-3.08458 l -0.005,-32.68748 c -0.1316,-1.68954 0.0653,-5.59073 -5.7405,-5.59073 h -26.34703 c 0.0242,0 -1.90964,-1.73503 -3.63108,-2.76927 -1.37524,-0.89374 -3.23338,-1.08636 -3.23338,-1.08636 z"
       sodipodi:nodetypes="scccscccccccs" />
    <path
       style="opacity:0.309598;fill:#000000;fill-opacity:1;stroke:none;stroke-width:0.144851;stroke-opacity:1;filter:url(#filter1881)"
       id="rect873"
       width="22.667437"
       height="5.0357642"
       x="46.507095"
       y="222.89639"
       transform="matrix(1.05206,0,0,1.4052333,340.88855,190.83973)"
       inkscape:path-effect="#path-effect1331-35"
       d="m 48.623762,222.89639 h 18.434103 a 2.1166667,2.1166667 45 0 1 2.116667,2.11667 v 0.80243 a 2.1166667,2.1166667 135 0 1 -2.116667,2.11667 l -18.434103,0 a 2.1166667,2.1166667 45 0 1 -2.116667,-2.11667 v -0.80243 a 2.1166667,2.1166667 135 0 1 2.116667,-2.11667 z"
       sodipodi:type="rect" />
    <path
       id="rect851"
       style="fill:#00ccff;fill-opacity:1;stroke-width:0.193144"
       d="m 413.41959,500.35148 v 3.05695 h -7.22158 c 3.56696,-0.009 4.52492,-1.0483 7.22158,-3.05695 z m 0,0 h 28.90903 c 1.70351,-0.008 3.23617,1.36199 3.24272,3.05695 h -32.15175 z m -22.75122,3.05695 h 54.90298 v 30.96333 c 0,1.70172 -1.38628,3.08114 -3.09648,3.08114 h -51.8065 c -1.7104,0 -3.09675,-1.37942 -3.09675,-3.08114 v -27.882 c 0,-1.70181 1.38635,-3.08133 3.09675,-3.08133 z"
       sodipodi:nodetypes="cccccccccccccsccc" />
    <path
       id="rect851-3"
       style="fill:url(#linearGradient854-7);fill-opacity:1;stroke-width:0.193226"
       d="m 413.77888,501.56876 -0.0784,3.19607 -7.14189,-0.13585 c 3.56704,-0.009 4.52481,-1.04952 7.22143,-3.06022 z m 0,0 h 28.69603 c 1.70347,-0.008 3.0899,1.36335 3.09651,3.06022 l -31.87209,0.13585 z m -23.11046,3.06022 h 54.90301 v 29.74412 c 0,1.70361 -1.3863,3.08458 -3.09652,3.08457 h -51.80649 c -1.71042,10e-6 -3.09677,-1.38096 -3.09677,-3.08457 v -26.6595 c 0,-1.70354 1.38635,-3.08462 3.09677,-3.08462 z"
       sodipodi:nodetypes="cccccccccccsccssc" />
    <rect
       style="fill:#ffffff;fill-opacity:0.25;stroke:#e5e9ef;stroke-width:0.580474;stroke-opacity:0.5;paint-order:markers fill stroke"
       id="rect2191-1"
       width="57.5"
       height="7.2964485e-07"
       x="387.82153"
       y="531.48798" />
    <rect
       style="fill:#ffffff;fill-opacity:0.5;stroke:#e5e9ef;stroke-width:0.580474;stroke-opacity:0.5;paint-order:markers fill stroke"
       id="rect2191-0-9-2"
       width="57.5"
       height="7.2964485e-07"
       x="387.82153"
       y="534.48798" />
    <path
       style="opacity:0.181;fill:url(#linearGradient668-6);fill-opacity:1;fill-rule:evenodd;stroke:none;stroke-width:3.54294px;stroke-linecap:butt;stroke-linejoin:miter;stroke-opacity:1"
       d="m 390.57154,504.598 25.96374,27.53972 h 28.96374 l 0.0725,-27.53972 h -54.9412 z"
       id="path4152-2-7"
       inkscape:connector-curvature="0"
       sodipodi:nodetypes="cccccc" />
    <path
       id="path18-3-9-7"
       d="m 416.40347,509.79801 c -0.61842,-0.002 -1.23332,0.22659 -1.67713,0.68702 l -7.38258,7.65596 c -2.49498,3.13075 1.69797,2.76731 3.49534,3.66904 0.64484,0.66775 -2.47086,1.15824 -1.82606,1.82656 0.64475,0.66789 3.89573,1.28588 4.54147,1.95368 0.64475,0.66785 -1.31874,1.37717 -0.67399,2.04491 0.64476,0.66781 2.13459,0.0346 2.41384,1.57641 0.19897,1.1017 2.68996,0.4734 3.90673,-0.42883 0.64478,-0.66833 -1.23256,-0.60288 -0.58784,-1.27063 1.60326,-1.66153 3.09575,-0.6066 3.64432,-2.27139 0.27094,-0.82263 -2.36216,-1.26597 -1.71637,-1.93377 1.85521,-1.09798 8.26607,-1.81323 5.22344,-4.89604 l -7.65281,-7.9259 c -0.46802,-0.45538 -1.09006,-0.68578 -1.70861,-0.687 z m 0.0629,0.72666 c 0.44157,0.003 0.88219,0.17105 1.1991,0.49633 l 2.92327,3.00599 c 0.27703,0.28675 0.27259,0.84068 0.11762,1.00052 l -1.44994,-1.17529 -0.28605,1.74311 -1.21085,-0.64719 -1.94356,1.23885 -0.64266,-2.61668 -1.04236,1.82659 h -1.59099 c -0.64964,0 -0.72749,-0.83532 -0.13712,-1.43348 1.03126,-1.1279 2.21368,-2.27636 2.85663,-2.94242 0.32319,-0.33471 0.76536,-0.49869 1.20693,-0.49633 z m -3.50695,11.69781 c 0.19737,0.12415 3.18141,0.73903 3.9107,0.86169 0.2528,0.054 0.074,0.3181 -0.27428,0.49631 -0.78596,0.21168 -4.59849,-1.35801 -3.63655,-1.35801 z m 11.60699,2.10451 c -0.60058,0.0215 -1.1927,0.33042 -1.35593,0.91335 0,0.37989 2.75877,0.63116 2.75877,-0.0873 -0.1968,-0.57713 -0.80248,-0.84696 -1.40279,-0.82599 z m -12.6651,1.64397 c -0.86558,-0.0104 -1.87913,0.63516 -1.13237,1.29045 0.65408,0.5731 1.66421,-0.14518 1.96705,-0.94505 -0.1782,-0.23999 -0.49591,-0.34224 -0.83465,-0.3454 z m 10.95999,0.0513 c -0.84308,0.76636 0.0938,1.54339 0.9247,1.04833 0.18518,-0.1905 -0.008,-0.85782 -0.9247,-1.04833 z"
       stroke-width="1.97967"
       style="fill:#ffffff;fill-opacity:1" />
  </g>
</svg>
