<?xml version="1.0" encoding="UTF-8" standalone="no"?>
<svg
   width="22"
   height="22"
   version="1.1"
   id="svg1"
   sodipodi:docname="network-unavailable.svg"
   inkscape:version="1.4.2 (unknown)"
   xmlns:inkscape="http://www.inkscape.org/namespaces/inkscape"
   xmlns:sodipodi="http://sodipodi.sourceforge.net/DTD/sodipodi-0.dtd"
   xmlns="http://www.w3.org/2000/svg"
   xmlns:svg="http://www.w3.org/2000/svg">
  <defs
     id="defs1" />
  <sodipodi:namedview
     id="namedview1"
     pagecolor="#ffffff"
     bordercolor="#999999"
     borderopacity="1"
     inkscape:showpageshadow="2"
     inkscape:pageopacity="0"
     inkscape:pagecheckerboard="0"
     inkscape:deskcolor="#d1d1d1"
     inkscape:zoom="12.245804"
     inkscape:cx="8.7785171"
     inkscape:cy="26.253891"
     inkscape:window-width="1920"
     inkscape:window-height="994"
     inkscape:window-x="0"
     inkscape:window-y="0"
     inkscape:window-maximized="1"
     inkscape:current-layer="svg1" />
  <style
     type="text/css"
     id="current-color-scheme">.ColorScheme-Text { color:#d3dae3; }
.ColorScheme-Background { color:#eff0f1; }
.ColorScheme-Highlight { color:#3498db; }
.ColorScheme-ViewText { color:#31363b; }
.ColorScheme-ViewBackground { color:#fcfcfc; }
.ColorScheme-ViewHover { color:#93cee9; }
.ColorScheme-ViewFocus { color:#3daee9; }
.ColorScheme-ButtonText { color:#31363b; }
.ColorScheme-ButtonBackground { color:#eff0f1; }
.ColorScheme-ButtonHover { color:#93cee9; }
.ColorScheme-ButtonFocus { color:#3daee9; }
.ColorScheme-NegativeText { color: #e74c3c; }
</style>
  <g
     id="g1">
    <path
       style="stroke-width:0.99922;stroke:none;fill-opacity:1;fill:currentColor;opacity:0.5;"
       d="M 5,3 C 4,3 3,4 3,5 v 8 c 0,1 1.04598,2 2.02184,2.00007 L 8.81591,15 c 0,0 0,1 0.99844,1 v 0 1 H 3.52418 c -0.69891,0 -0.69891,1 0,1 h 6.29017 c 0,0 0,1 0.99844,1 v 0 c 0.99844,0 0.99844,-1 0.99844,-1 h 5.8908 c 0.79875,0 0.79875,-1 0,-1 h -5.8908 v -1 c 0.99844,0 0.99844,-1 0.99844,-1 v 0 0 0 0 0 l -1.0234,-1 V 4 c 0.69891,0 0.69891,-1 0,-1 z m 0.52106,1 h 5.26677 0.99844 v 10 l 1.0234,1 h 0.97348 c 0.69891,0 0.69891,-1 0,-1 l -8.39057,10e-6 C 4.5484,14 4,13.49345 4,12.5 v -7 C 4,4.5 4.52262,4 5.52106,4 Z"
       id="rect4144-9-6-7-3"
       class="ColorScheme-Text "
       sodipodi:nodetypes="ccccccccccccccccccccccccccccccccccccccc" />
    <path
       class="ColorScheme-Text "
       d="M 15.00624,2 C 14.59022,2 14,2.5 14,3 v 3 c 0,0.5 0.59022,1 1.00624,1 H 16 v 2.5 c 0,0.7 1,0.7 1,0 V 7 h 1.00156 C 18.50078,7 19,6.5 19,6 V 3 C 19,2.5 18.50078,2 18.00156,2 Z m -0.006,1 h 3.00156 -0.002 v 2 1 h -3 l 0.006,-1 z"
       stroke-opacity="0"
       stroke-width="0.334742"
       id="path5-3-5-5"
       style="fill-opacity:1;fill:currentColor;opacity:0.5;"
       sodipodi:nodetypes="ssscccccssssscccccccc" />
    <path
       style="color:#e74c3c;fill:#dc3545;stroke-width:0.769418"
       d="m 14.96098,11 a 0.46164989,0.46164989 0 0 0 -0.3261,0.135251 0.46164989,0.46164989 0 0 0 0,0.652203 l 1.21273,1.212725 -1.21273,1.212735 a 0.46164989,0.46164989 0 0 0 0,0.652205 0.46164989,0.46164989 0 0 0 0.65221,0 l 1.21272,-1.212735 1.21273,1.212735 a 0.46164989,0.46164989 0 0 0 0.65221,0 0.46164989,0.46164989 0 0 0 0,-0.652205 l -1.21273,-1.212735 1.21273,-1.212725 a 0.46164989,0.46164989 0 0 0 0,-0.652203 A 0.46164989,0.46164989 0 0 0 18.03865,11 0.46164989,0.46164989 0 0 0 17.71254,11.135251 l -1.21273,1.212724 -1.21272,-1.212724 A 0.46164989,0.46164989 0 0 0 14.96098,11 Z"
       id="path40775-5"
       class="ColorScheme-NegativeText" />
  </g>
</svg>
