<?xml version="1.0" encoding="UTF-8" standalone="no"?>
<svg
   id="svg4306"
   width="22"
   height="22"
   version="1.1"
   style="enable-background:new"
   sodipodi:docname="close.svg"
   inkscape:version="1.3.2 (091e20ef0f, 2023-11-25)"
   xmlns:inkscape="http://www.inkscape.org/namespaces/inkscape"
   xmlns:sodipodi="http://sodipodi.sourceforge.net/DTD/sodipodi-0.dtd"
   xmlns:xlink="http://www.w3.org/1999/xlink"
   xmlns="http://www.w3.org/2000/svg"
   xmlns:svg="http://www.w3.org/2000/svg"
   xmlns:rdf="http://www.w3.org/1999/02/22-rdf-syntax-ns#"
   xmlns:cc="http://creativecommons.org/ns#"
   xmlns:dc="http://purl.org/dc/elements/1.1/">
  <g
     id="pressed-inactive-center">
    <rect
       y="22"
       x="0"
       height="22"
       width="22"
       id="rect953-2-7-6-5"
       style="opacity:0.00100002;fill:#050505;fill-opacity:1;stroke-width:1.001" />
    <path
       id="path839-3-36-3"
       style="fill:#eff0f1;fill-opacity:1;stroke-width:1.125;enable-background:new"
       d="M 11,24 C 6.02953,24 2,28.029441 2,32.999998 2,37.970557 6.02953,42 11,42 15.97048,42 20,37.970557 20,32.999998 20,28.029441 15.97048,24 11,24 Z m 0,1.125 c 4.34919,0 7.875,3.525746 7.875,7.874998 C 18.875,37.349232 15.34919,40.875 11,40.875 6.6508,40.875 3.125,37.349232 3.125,32.999998 3.125,28.650746 6.6508,25.125 11,25.125 Z m 0,0 z"
       sodipodi:nodetypes="ssssssssssccccc" />
    <rect
       style="fill:#bf616a;fill-opacity:1;stroke:none;stroke-width:0.39374;enable-background:new"
       id="center-3-35-5-7-6"
       width="15.749992"
       height="15.749992"
       x="3.125"
       y="25.125"
       ry="7.8749838"
       rx="7.8749962" />
    <path
       d="m 15.195885,35.727305 -2.727666,-2.727559 2.7268,-2.726918 c 0.405604,-0.40572 0.405604,-1.063202 0,-1.46875 -0.405676,-0.405379 -1.063227,-0.405379 -1.468333,0 l -2.727023,2.727131 -2.7270161,-2.727131 c -0.405359,-0.405379 -1.062831,-0.40555 -1.468519,1.64e-4 -0.40545,0.405465 -0.40545,1.063033 1.77e-4,1.468582 l 2.727004,2.726918 -2.727226,2.72756 c -0.405449,0.405462 -0.405449,1.063114 0,1.468494 0.202881,0.202772 0.468497,0.304204 0.73433,0.304204 0.265845,0 0.531461,-0.101428 0.734342,-0.304204 l 2.7272321,-2.727558 2.727448,2.727558 C 13.930237,37.398568 14.195933,37.5 14.461615,37.5 c 0.265687,0 0.531635,-0.101428 0.734185,-0.304204 0.405595,-0.40538 0.405595,-1.063032 0,-1.468494 z"
       id="path3490-3-3"
       style="fill:#ffffff;fill-opacity:1;stroke-width:0.021328;enable-background:new" />
  </g>
  <metadata
     id="metadata40">
    <rdf:RDF>
      <cc:Work
         rdf:about="">
        <dc:format>image/svg+xml</dc:format>
        <dc:type
           rdf:resource="http://purl.org/dc/dcmitype/StillImage" />
      </cc:Work>
    </rdf:RDF>
  </metadata>
  <defs
     id="defs38">
    <linearGradient
       inkscape:collect="always"
       id="linearGradient958">
      <stop
         style="stop-color:#e5b3b8;stop-opacity:1;"
         offset="0"
         id="stop954" />
      <stop
         style="stop-color:#b54a53;stop-opacity:1;"
         offset="1"
         id="stop956" />
    </linearGradient>
    <linearGradient
       inkscape:collect="always"
       id="linearGradient952">
      <stop
         style="stop-color:#e5b3b8;stop-opacity:1;"
         offset="0"
         id="stop948" />
      <stop
         style="stop-color:#b54a53;stop-opacity:1;"
         offset="1"
         id="stop950" />
    </linearGradient>
    <linearGradient
       inkscape:collect="always"
       id="linearGradient5326">
      <stop
         style="stop-color:#d29399;stop-opacity:1;"
         offset="0"
         id="stop5322" />
      <stop
         style="stop-color:#bd5c65;stop-opacity:1;"
         offset="1"
         id="stop5324" />
    </linearGradient>
    <linearGradient
       inkscape:collect="always"
       id="linearGradient2919">
      <stop
         style="stop-color:#f0dbdd;stop-opacity:1;"
         offset="0"
         id="stop2915" />
      <stop
         style="stop-color:#b54a53;stop-opacity:1;"
         offset="1"
         id="stop2917" />
    </linearGradient>
    <linearGradient
       inkscape:collect="always"
       xlink:href="#linearGradient5326"
       id="linearGradient1498"
       x1="6"
       y1="31.999754"
       x2="57.999969"
       y2="31.999754"
       gradientUnits="userSpaceOnUse"
       gradientTransform="matrix(0.34615385,0,0,0.34615385,-0.076911,-0.076923)" />
    <linearGradient
       inkscape:collect="always"
       xlink:href="#linearGradient952"
       id="linearGradient1506"
       x1="53.741104"
       y1="31.999821"
       x2="10.20201"
       y2="32.000114"
       gradientUnits="userSpaceOnUse"
       gradientTransform="matrix(0.34615385,0,0,0.34615385,-0.076911,-0.076923)" />
    <linearGradient
       inkscape:collect="always"
       xlink:href="#linearGradient5326"
       id="linearGradient352"
       gradientUnits="userSpaceOnUse"
       gradientTransform="matrix(0.34615385,0,0,0.34615385,-0.076915,-0.07692318)"
       x1="6"
       y1="31.999754"
       x2="57.999969"
       y2="31.999754" />
    <linearGradient
       inkscape:collect="always"
       xlink:href="#linearGradient958"
       id="linearGradient354"
       gradientUnits="userSpaceOnUse"
       gradientTransform="matrix(0.34615385,0,0,0.34615385,-0.076915,-0.07692318)"
       x1="53.741104"
       y1="31.999821"
       x2="10.20201"
       y2="32.000114" />
    <radialGradient
       inkscape:collect="always"
       xlink:href="#linearGradient2919"
       id="radialGradient1550"
       cx="10.990185"
       cy="11.000085"
       fx="10.990185"
       fy="11.000085"
       r="7.5356398"
       gradientTransform="matrix(1,0,0,0.99998873,0,1.2393204e-4)"
       gradientUnits="userSpaceOnUse" />
  </defs>
  <sodipodi:namedview
     inkscape:document-rotation="0"
     pagecolor="#000000"
     bordercolor="#ff0000"
     borderopacity="1"
     objecttolerance="10"
     gridtolerance="10"
     guidetolerance="10"
     inkscape:pageopacity="0"
     inkscape:pageshadow="2"
     inkscape:window-width="1920"
     inkscape:window-height="994"
     id="namedview36"
     showgrid="true"
     inkscape:snap-bbox="true"
     inkscape:bbox-nodes="true"
     inkscape:zoom="4"
     inkscape:cx="-43.25"
     inkscape:cy="62.749999"
     inkscape:window-x="0"
     inkscape:window-y="0"
     inkscape:window-maximized="1"
     inkscape:current-layer="svg4306"
     inkscape:lockguides="false"
     showguides="false"
     inkscape:pagecheckerboard="true"
     inkscape:showpageshadow="false"
     inkscape:deskcolor="#000000">
    <inkscape:grid
       type="xygrid"
       id="grid227"
       originx="0"
       originy="0"
       spacingy="1"
       spacingx="1"
       units="px"
       visible="true" />
  </sodipodi:namedview>
  <style
     type="text/css"
     id="current-color-scheme" />
  <g
     id="g1546"
     transform="translate(-44)" />
  <g
     id="inactive-center"
     transform="translate(-44,22)">
    <rect
       style="opacity:0.00100002;fill:#050505;fill-opacity:1;stroke-width:1.001"
       id="rect953-2"
       width="22"
       height="22"
       x="0"
       y="0" />
    <path
       id="path839-3-36"
       style="fill:#eff0f1;fill-opacity:1;stroke-width:1.125;enable-background:new"
       d="M 10.9,2 C 5.92953,2 1.9,6.029441 1.9,10.999998 1.9,15.970557 5.92953,20 10.9,20 c 4.97048,0 9,-4.029443 9,-9.000002 C 19.9,6.029441 15.87048,2 10.9,2 Z m 0,1.125 c 4.34919,0 7.875,3.525746 7.875,7.874998 0,4.349234 -3.52581,7.875002 -7.875,7.875002 -4.3492,0 -7.875,-3.525768 -7.875,-7.875002 C 3.025,6.650746 6.5508,3.125 10.9,3.125 Z m 0,0 z"
       sodipodi:nodetypes="ssssssssssccccc" />
    <rect
       style="fill:#bf616a;fill-opacity:0.6;stroke:none;stroke-width:0.39374;enable-background:new"
       id="center-3-35-5-7"
       width="15.749992"
       height="15.749992"
       x="3.0249991"
       y="3.1249998"
       ry="7.8749838"
       rx="7.8749962" />
  </g>
  <g
     id="hover-inactive-center">
    <rect
       y="22"
       x="-22"
       height="22"
       width="22"
       id="rect953-2-7-2-7"
       style="opacity:0.00100002;fill:#050505;fill-opacity:1;stroke-width:1.001" />
    <path
       id="path839-3-36-35"
       style="fill:#eff0f1;fill-opacity:1;stroke-width:1.125;enable-background:new"
       d="M -11.000001,24 C -15.97047,24 -20,28.029441 -20,32.999998 -20,37.970557 -15.97047,42 -11.000001,42 c 4.97048,0 9,-4.029443 9,-9.000002 0,-4.970557 -4.02952,-8.999998 -9,-8.999998 z m 0,1.125 c 4.34919,0 7.875,3.525746 7.875,7.874998 0,4.349234 -3.52581,7.875002 -7.875,7.875002 -4.349199,0 -7.874999,-3.525768 -7.874999,-7.875002 0,-4.349252 3.5258,-7.874998 7.874999,-7.874998 z m 0,0 z"
       sodipodi:nodetypes="ssssssssssccccc" />
    <rect
       style="fill:#bf616a;fill-opacity:0.7;stroke:none;stroke-width:0.39374;enable-background:new"
       id="center-3-35-5-7-62"
       width="15.749992"
       height="15.749992"
       x="-18.875"
       y="25.125"
       ry="7.8749838"
       rx="7.8749962" />
    <path
       d="m -6.8041112,35.727301 -2.727666,-2.727559 2.7268,-2.726918 c 0.405604,-0.40572 0.405604,-1.063202 0,-1.46875 -0.405676,-0.405379 -1.063227,-0.405379 -1.468333,0 l -2.7270228,2.727131 -2.727016,-2.727131 c -0.405359,-0.405379 -1.062831,-0.40555 -1.468519,1.64e-4 -0.40545,0.405466 -0.40545,1.063033 1.77e-4,1.468582 l 2.727004,2.726918 -2.727226,2.72756 c -0.405449,0.405462 -0.405449,1.063114 0,1.468494 0.202881,0.202772 0.468497,0.304204 0.73433,0.304204 0.265845,0 0.531461,-0.101428 0.734342,-0.304204 l 2.727232,-2.727558 2.7274478,2.727558 c 0.202802,0.202772 0.468498,0.304204 0.7341799,0.304204 0.265687,0 0.531635,-0.101428 0.734185,-0.304204 0.4055951,-0.40538 0.4055951,-1.063032 0,-1.468494 z"
       id="path3490-6"
       style="fill:#2b4254;fill-opacity:1;stroke-width:0.021328;enable-background:new" />
  </g>
  <g
     id="hover-center"
     transform="translate(-22)">
    <rect
       style="opacity:0.00100002;fill:#050505;fill-opacity:1;stroke-width:1.001"
       id="rect953-2-7-2"
       width="22"
       height="22"
       x="0"
       y="0" />
    <path
       d="m 19.999825,10.999824 c 0,1.078918 -0.18991,2.113341 -0.53818,3.072157 -0.24208,0.666352 -0.56056,1.296375 -0.94556,1.87908 -0.16125,0.244999 -0.33464,0.481607 -0.51869,0.708986 -0.58922,0.727707 -1.28946,1.361346 -2.07547,1.875678 -0.28948,0.189552 -0.59034,0.362947 -0.90183,0.518312 -1.20963,0.60536 -2.57506,0.945878 -4.0202,0.945878 -1.44514,0 -2.81057,-0.340518 -4.0202,-0.945901 -0.31152,-0.155399 -0.61275,-0.328782 -0.90221,-0.518312 -0.79605,-0.521271 -1.50467,-1.164956 -2.0986,-1.904705 -0.1844,-0.229227 -0.35744,-0.468001 -0.5187,-0.715211 -0.37471,-0.573045 -0.6851,-1.191377 -0.92239,-1.844837 -0.34821,-0.95843 -0.53779,-1.992468 -0.53779,-3.071023 0,-4.9706262 4.02939,-9.0000112 9.00002,-9.0000112 2.49511,0 4.7528,1.01534 6.38311,2.655113 0.46982,0.472378 0.88751,0.996994 1.24297,1.564085 0.33612,0.53413 0.61712,1.106437 0.83569,1.708543 0.34831,0.958782 0.5382,1.993262 0.5382,3.0721572 z"
       stroke-width="0.0351571"
       id="path273-3"
       style="fill:url(#linearGradient352);fill-opacity:1;enable-background:new" />
    <path
       d="m 18.525775,10.999938 c 0,0.903368 -0.15902,1.769432 -0.45061,2.572225 -0.20271,0.55793 -0.46935,1.085404 -0.79171,1.57327 -0.13501,0.205132 -0.28019,0.403245 -0.43429,0.593625 -0.49334,0.609306 -1.07961,1.139898 -1.7378,1.570548 -0.24237,0.158711 -0.49429,0.303894 -0.75509,0.433973 -1.01279,0.50686 -2.15609,0.791976 -3.36617,0.791976 -1.20998,0 -2.35328,-0.285116 -3.36618,-0.791987 -0.26083,-0.130113 -0.51304,-0.275285 -0.75541,-0.433973 -0.66652,-0.436445 -1.25986,-0.975371 -1.75707,-1.594814 -0.1544,-0.191922 -0.29927,-0.39186 -0.43431,-0.59884 -0.31372,-0.479805 -0.57361,-0.997493 -0.7723,-1.544583 -0.29154,-0.802487 -0.45029,-1.66829 -0.45029,-2.571318 0,-4.1618242 3.37378,-7.5355952 7.5356,-7.5355952 2.08907,0 3.97938,0.850133 5.34458,2.223101 0.39338,0.395523 0.74312,0.834758 1.04076,1.309642 0.28144,0.447216 0.51672,0.926409 0.69973,1.430512 0.29162,0.802771 0.45061,1.6688582 0.45061,2.5722262 z"
       stroke-width="0.0294357"
       id="path275-5"
       style="fill:url(#linearGradient354);fill-opacity:1;enable-background:new" />
    <path
       d="m 15.195889,13.72722 -2.727666,-2.727559 2.7268,-2.7269182 c 0.405604,-0.40572 0.405604,-1.063202 0,-1.46875 -0.405676,-0.405379 -1.063227,-0.405379 -1.468333,0 l -2.727023,2.727131 -2.7270162,-2.727131 c -0.405359,-0.405379 -1.062831,-0.40555 -1.468519,1.64e-4 -0.40545,0.405465 -0.40545,1.063032 1.77e-4,1.468582 l 2.727004,2.7269182 -2.727226,2.72756 c -0.405449,0.405462 -0.405449,1.063114 0,1.468494 0.202881,0.202772 0.468497,0.304204 0.73433,0.304204 0.265845,0 0.531461,-0.101428 0.734342,-0.304204 l 2.7272322,-2.727558 2.727448,2.727558 c 0.202802,0.202772 0.468498,0.304204 0.73418,0.304204 0.265687,0 0.531635,-0.101428 0.734185,-0.304204 0.405595,-0.40538 0.405595,-1.063032 0,-1.468494 z"
       id="path3490-0-9"
       style="fill:#2b4254;fill-opacity:1;stroke-width:0.021328;enable-background:new" />
  </g>
  <g
     id="pressed-center">
    <rect
       style="opacity:0.00100002;fill:#050505;fill-opacity:1;stroke-width:1.001"
       id="rect953-2-7-6"
       width="22"
       height="22"
       x="0"
       y="0" />
    <path
       d="m 19.999825,10.999909 c 0,1.078918 -0.18991,2.113341 -0.53818,3.072157 -0.24208,0.666352 -0.56056,1.296375 -0.94556,1.87908 -0.16125,0.244999 -0.33464,0.481607 -0.51869,0.708986 -0.58922,0.727707 -1.28946,1.361346 -2.07547,1.875678 -0.28948,0.189552 -0.59034,0.362947 -0.90183,0.518312 C 13.810465,19.659482 12.445035,20 10.999895,20 c -1.44514,0 -2.81057,-0.340518 -4.0202,-0.945901 -0.31152,-0.155399 -0.61275,-0.328782 -0.90221,-0.518312 -0.79605,-0.521271 -1.50467,-1.164956 -2.0986,-1.904705 -0.1844,-0.229227 -0.35744,-0.468001 -0.5187,-0.715211 -0.37471,-0.573045 -0.6851,-1.191377 -0.92239,-1.844837 -0.34821,-0.95843 -0.53779,-1.992468 -0.53779,-3.071023 0,-4.9706262 4.02939,-9.0000112 9.00002,-9.0000112 2.49511,0 4.7528,1.01534 6.38311,2.655113 0.46982,0.472378 0.88751,0.996994 1.24297,1.564085 0.33612,0.53413 0.61712,1.106437 0.83569,1.708543 0.34831,0.958782 0.5382,1.993262 0.5382,3.0721572 z"
       stroke-width="0.0351571"
       id="path273-3-2"
       style="fill:#d28e95;fill-opacity:1;enable-background:new" />
    <path
       d="m 18.525775,11.000023 c 0,0.903368 -0.15902,1.769432 -0.45061,2.572225 -0.20271,0.55793 -0.46935,1.085404 -0.79171,1.57327 -0.13501,0.205132 -0.28019,0.403245 -0.43429,0.593625 -0.49334,0.609306 -1.07961,1.139898 -1.7378,1.570548 -0.24237,0.158711 -0.49429,0.303894 -0.75509,0.433973 -1.01279,0.50686 -2.15609,0.791976 -3.36617,0.791976 -1.20998,0 -2.35328,-0.285116 -3.36618,-0.791987 -0.26083,-0.130113 -0.51304,-0.275285 -0.75541,-0.433973 -0.66652,-0.436445 -1.25986,-0.975371 -1.75707,-1.594814 -0.1544,-0.191922 -0.29927,-0.39186 -0.43431,-0.59884 -0.31372,-0.479805 -0.57361,-0.997493 -0.7723,-1.544583 -0.29154,-0.802487 -0.45029,-1.66829 -0.45029,-2.571318 0,-4.1618242 3.37378,-7.5355952 7.5356,-7.5355952 2.08907,0 3.97938,0.850133 5.34458,2.223101 0.39338,0.395523 0.74312,0.834758 1.04076,1.309642 0.28144,0.447216 0.51672,0.926409 0.69973,1.430512 0.29162,0.802771 0.45061,1.6688582 0.45061,2.5722262 z"
       stroke-width="0.0294357"
       id="path275-5-7"
       style="fill:url(#radialGradient1550);fill-opacity:1;enable-background:new" />
    <path
       d="m 15.195889,13.727305 -2.727666,-2.727559 2.7268,-2.7269178 c 0.405604,-0.40572 0.405604,-1.063202 0,-1.46875 -0.405676,-0.40538 -1.063227,-0.40538 -1.468333,0 l -2.727023,2.727131 -2.7270167,-2.727131 c -0.405359,-0.40538 -1.062831,-0.405551 -1.468519,1.64e-4 -0.40545,0.405465 -0.40545,1.063032 1.77e-4,1.468581 l 2.727004,2.7269188 -2.727226,2.72756 c -0.405449,0.405462 -0.405449,1.063114 0,1.468494 0.202881,0.202772 0.468497,0.304204 0.73433,0.304204 0.265845,0 0.531461,-0.101428 0.734342,-0.304204 l 2.7272327,-2.727558 2.727448,2.727558 C 13.930241,15.398568 14.195937,15.5 14.461619,15.5 c 0.265687,0 0.531635,-0.101428 0.734185,-0.304204 0.405595,-0.40538 0.405595,-1.063032 0,-1.468494 z"
       id="path3490-3-36"
       style="fill:#ffffff;fill-opacity:1;stroke-width:0.021328;enable-background:new" />
  </g>
  <g
     id="active-center"
     transform="translate(-44)">
    <rect
       style="opacity:0.00100002;fill:#050505;fill-opacity:1;stroke-width:1.001;enable-background:new"
       id="rect953-2-7-2-75"
       width="22"
       height="22"
       x="0"
       y="0" />
    <path
       d="m 19.99983,10.999824 c 0,1.078918 -0.18991,2.113341 -0.53818,3.072157 -0.24208,0.666352 -0.56056,1.296375 -0.94556,1.87908 -0.16125,0.244999 -0.33464,0.481607 -0.51869,0.708986 -0.58922,0.727707 -1.28946,1.361346 -2.07547,1.875678 -0.28948,0.189552 -0.59034,0.362947 -0.90183,0.518312 -1.20963,0.60536 -2.57506,0.945878 -4.0202,0.945878 -1.445139,0 -2.810571,-0.340518 -4.020202,-0.945901 C 6.668184,18.898615 6.366954,18.725232 6.077486,18.535702 5.28144,18.014431 4.572818,17.370746 3.978887,16.630997 3.794491,16.40177 3.621452,16.162996 3.460189,15.915786 3.085481,15.342741 2.775095,14.724409 2.537804,14.070949 2.189587,13.112519 2.000012,12.078481 2.000012,10.999926 c 0,-4.970626 4.029387,-9.000011 9.000018,-9.000011 2.49511,0 4.7528,1.01534 6.38311,2.655113 0.46982,0.472378 0.88751,0.996994 1.24297,1.564085 0.33612,0.53413 0.61712,1.106437 0.83569,1.708543 C 19.81011,8.886438 20,9.920918 20,10.999813 Z"
       stroke-width="0.0351571"
       id="path273"
       style="fill:url(#linearGradient1498);fill-opacity:1;enable-background:new" />
    <path
       d="m 18.52578,10.999938 c 0,0.903368 -0.15902,1.769432 -0.45061,2.572225 -0.20271,0.55793 -0.46935,1.085404 -0.79171,1.57327 -0.13501,0.205132 -0.28019,0.403245 -0.43429,0.593625 -0.49334,0.609306 -1.07961,1.139898 -1.7378,1.570548 -0.24237,0.158711 -0.49429,0.303894 -0.75509,0.433973 -1.01279,0.50686 -2.15609,0.791976 -3.36617,0.791976 -1.20998,0 -2.35328,-0.285116 -3.366181,-0.791987 C 7.363102,17.613455 7.110887,17.468283 6.86852,17.309595 6.201998,16.87315 5.608659,16.334224 5.111447,15.714781 4.957055,15.522859 4.81218,15.322921 4.677145,15.115941 4.363422,14.636136 4.103534,14.118448 3.904841,13.571358 3.613297,12.768871 3.454554,11.903068 3.454554,11.00004 c 0,-4.161824 3.373771,-7.535595 7.535596,-7.535595 2.08907,0 3.97938,0.850133 5.34458,2.223101 0.39338,0.395523 0.74312,0.834758 1.04076,1.309642 0.28144,0.447216 0.51672,0.926409 0.69973,1.430512 0.29162,0.802771 0.45061,1.668858 0.45061,2.572226 z"
       stroke-width="0.0294357"
       id="path275"
       style="fill:url(#linearGradient1506);fill-opacity:1;enable-background:new" />
  </g>
</svg>
