<?xml version="1.0" encoding="UTF-8" standalone="no"?>
<svg
   width="225"
   height="240"
   version="1.1"
   id="svg3"
   sodipodi:docname="tabbar.svg"
   inkscape:version="1.3.2 (091e20ef0f, 2023-11-25)"
   xmlns:inkscape="http://www.inkscape.org/namespaces/inkscape"
   xmlns:sodipodi="http://sodipodi.sourceforge.net/DTD/sodipodi-0.dtd"
   xmlns:xlink="http://www.w3.org/1999/xlink"
   xmlns="http://www.w3.org/2000/svg"
   xmlns:svg="http://www.w3.org/2000/svg">
  <sodipodi:namedview
     id="namedview3"
     pagecolor="#000000"
     bordercolor="#cc004b"
     borderopacity="1"
     inkscape:showpageshadow="false"
     inkscape:pageopacity="0.0"
     inkscape:pagecheckerboard="true"
     inkscape:deskcolor="#000000"
     inkscape:zoom="1.6142011"
     inkscape:cx="83.013201"
     inkscape:cy="107.79326"
     inkscape:window-width="1920"
     inkscape:window-height="996"
     inkscape:window-x="0"
     inkscape:window-y="0"
     inkscape:window-maximized="1"
     inkscape:current-layer="svg3"
     labelstyle="default"
     showgrid="true">
    <inkscape:grid
       id="grid1"
       units="px"
       originx="0"
       originy="0"
       spacingx="1"
       spacingy="1"
       empcolor="#0099e5"
       empopacity="0.30196078"
       color="#0099e5"
       opacity="0.14901961"
       empspacing="5"
       dotted="false"
       gridanglex="30"
       gridanglez="30"
       visible="true" />
  </sodipodi:namedview>
  <defs
     id="defs79">
    <linearGradient
       id="linearGradient32">
      <stop
         style="stop-color:#4e51ac;stop-opacity:1;"
         offset="0"
         id="stop31" />
      <stop
         style="stop-color:#008080;stop-opacity:1"
         offset="1"
         id="stop32" />
    </linearGradient>
    <linearGradient
       id="linearGradient30">
      <stop
         style="stop-color:#4e51ac;stop-opacity:1;"
         offset="0"
         id="stop29" />
      <stop
         style="stop-color:#008080;stop-opacity:1"
         offset="1"
         id="stop30" />
    </linearGradient>
    <linearGradient
       id="linearGradient28">
      <stop
         style="stop-color:#4e51ac;stop-opacity:1;"
         offset="0"
         id="stop27" />
      <stop
         style="stop-color:#008080;stop-opacity:1"
         offset="1"
         id="stop28" />
    </linearGradient>
    <linearGradient
       id="linearGradient26">
      <stop
         style="stop-color:#556fa6;stop-opacity:1;"
         offset="0"
         id="stop25" />
      <stop
         style="stop-color:#008080;stop-opacity:1"
         offset="1"
         id="stop26" />
    </linearGradient>
    <linearGradient
       id="linearGradient24">
      <stop
         style="stop-color:#4e51ac;stop-opacity:1;"
         offset="0"
         id="stop23" />
      <stop
         style="stop-color:#008080;stop-opacity:1"
         offset="1"
         id="stop24" />
    </linearGradient>
    <linearGradient
       id="linearGradient22">
      <stop
         style="stop-color:#4e51ac;stop-opacity:1;"
         offset="0"
         id="stop17" />
      <stop
         style="stop-color:#008080;stop-opacity:1"
         offset="1"
         id="stop22" />
    </linearGradient>
    <linearGradient
       id="linearGradient16">
      <stop
         style="stop-color:#4e51ac;stop-opacity:1;"
         offset="0"
         id="stop15" />
      <stop
         style="stop-color:#008080;stop-opacity:1"
         offset="1"
         id="stop16" />
    </linearGradient>
    <linearGradient
       id="linearGradient21">
      <stop
         style="stop-color:#4e51ac;stop-opacity:1;"
         offset="0"
         id="stop20" />
      <stop
         style="stop-color:#008080;stop-opacity:1"
         offset="1"
         id="stop21" />
    </linearGradient>
    <linearGradient
       id="linearGradient19">
      <stop
         style="stop-color:#7037c8;stop-opacity:1;"
         offset="0"
         id="stop18" />
      <stop
         style="stop-color:#22c1c3;stop-opacity:1;"
         offset="1"
         id="stop19" />
    </linearGradient>
    <linearGradient
       id="linearGradient14">
      <stop
         style="stop-color:#8d5fd3;stop-opacity:1"
         offset="0"
         id="stop13" />
      <stop
         style="stop-color:#22c1c3;stop-opacity:1;"
         offset="1"
         id="stop14" />
    </linearGradient>
    <linearGradient
       id="linearGradient12">
      <stop
         style="stop-color:#ffd42a;stop-opacity:1;"
         offset="0"
         id="stop11" />
      <stop
         style="stop-color:#22c1c3;stop-opacity:1;"
         offset="1"
         id="stop12" />
    </linearGradient>
    <linearGradient
       id="linearGradient10">
      <stop
         style="stop-color:#05a8f0;stop-opacity:1;"
         offset="0"
         id="stop9" />
      <stop
         style="stop-color:#22c1c3;stop-opacity:1;"
         offset="1"
         id="stop10" />
    </linearGradient>
    <linearGradient
       id="linearGradient8">
      <stop
         style="stop-color:#05a8f0;stop-opacity:1;"
         offset="0"
         id="stop7" />
      <stop
         style="stop-color:#22c1c3;stop-opacity:1;"
         offset="1"
         id="stop8" />
    </linearGradient>
    <linearGradient
       id="linearGradient6">
      <stop
         style="stop-color:#05a8f0;stop-opacity:1;"
         offset="0"
         id="stop5" />
      <stop
         style="stop-color:#21e5aa;stop-opacity:1;"
         offset="1"
         id="stop6" />
    </linearGradient>
    <linearGradient
       id="linearGradient4">
      <stop
         style="stop-color:#6d6fbd;stop-opacity:1;"
         offset="0"
         id="stop3" />
      <stop
         style="stop-color:#008080;stop-opacity:1"
         offset="1"
         id="stop4" />
    </linearGradient>
    <linearGradient
       id="linearGradient1016"
       x1="26"
       x2="82"
       y1="39.016"
       y2="39.016"
       gradientTransform="translate(364.98305,-121.3886)"
       gradientUnits="userSpaceOnUse"
       xlink:href="#linearGradient987" />
    <linearGradient
       id="linearGradient987">
      <stop
         style="stop-color:#4e51ac;stop-opacity:1"
         offset="0"
         id="stop1" />
      <stop
         style="stop-color:#008080;stop-opacity:1"
         offset="1"
         id="stop2" />
    </linearGradient>
    <linearGradient
       id="linearGradient908"
       x1="407"
       x2="407"
       y1="269.35999"
       y2="363.35999"
       gradientUnits="userSpaceOnUse"
       xlink:href="#linearGradient21" />
    <linearGradient
       id="linearGradient910"
       x1="32.998001"
       x2="126.998"
       y1="363.362"
       y2="363.362"
       gradientUnits="userSpaceOnUse"
       xlink:href="#linearGradient32" />
    <linearGradient
       id="linearGradient912"
       x1="407"
       x2="407"
       y1="269.35999"
       y2="363.35999"
       gradientUnits="userSpaceOnUse"
       xlink:href="#linearGradient30" />
    <linearGradient
       id="linearGradient914"
       x1="218"
       x2="218"
       y1="269.35999"
       y2="363.35999"
       gradientUnits="userSpaceOnUse"
       xlink:href="#linearGradient24" />
    <linearGradient
       id="linearGradient916"
       x1="32.998001"
       x2="126.998"
       y1="358.362"
       y2="358.362"
       gradientUnits="userSpaceOnUse"
       xlink:href="#linearGradient26" />
    <linearGradient
       id="linearGradient918"
       x1="218"
       x2="218"
       y1="269.35999"
       y2="363.35999"
       gradientUnits="userSpaceOnUse"
       xlink:href="#linearGradient28" />
    <linearGradient
       id="linearGradient920"
       x1="269"
       x2="363"
       y1="432.35999"
       y2="432.35999"
       gradientUnits="userSpaceOnUse"
       xlink:href="#linearGradient16" />
    <linearGradient
       id="linearGradient922"
       x1="33"
       x2="127"
       y1="358.35999"
       y2="358.35999"
       gradientUnits="userSpaceOnUse"
       xlink:href="#linearGradient16" />
    <linearGradient
       id="linearGradient924"
       x1="269"
       x2="363"
       y1="432.35999"
       y2="432.35999"
       gradientUnits="userSpaceOnUse"
       xlink:href="#linearGradient16" />
    <linearGradient
       id="linearGradient932"
       x1="276"
       x2="370"
       y1="227.36"
       y2="227.36"
       gradientUnits="userSpaceOnUse"
       xlink:href="#linearGradient16" />
    <linearGradient
       id="linearGradient934"
       x1="33"
       x2="127"
       y1="362.35999"
       y2="362.35999"
       gradientUnits="userSpaceOnUse"
       xlink:href="#linearGradient16" />
    <linearGradient
       id="linearGradient936"
       x1="276"
       x2="370"
       y1="226.36"
       y2="226.36"
       gradientUnits="userSpaceOnUse"
       xlink:href="#linearGradient16" />
  </defs>
  <rect
     id="hint-tile-center"
     style="opacity:0.01;fill:#b380ff"
     width="40"
     height="40"
     x="235.41954"
     y="199" />
  <g
     id="south-active-tab-top"
     style="opacity:0.8"
     transform="matrix(1,0,0,0.99998568,36.00001,-136.35495)">
    <path
       style="opacity:1;fill:#556fa6;fill-opacity:1"
       d="m 40,359.36218 h 80 v 3 H 40 Z"
       id="path2"
       sodipodi:nodetypes="ccccc" />
  </g>
  <g
     id="south-active-tab-topleft"
     style="opacity:0.8"
     transform="matrix(1,0,0,0.99925135,36.00001,-136.08883)">
    <rect
       id="rect3073-5"
       style="opacity:0.001"
       width="10"
       height="3"
       x="30"
       y="359.36" />
    <path
       style="opacity:1;fill:#556fa6;fill-opacity:1"
       transform="matrix(1,0,0,1.0007492,-236.00001,-74.326798)"
       d="m 270.5,433.36133 a 1.5,1.5 0 0 0 -1.5,1.5 1.5,1.5 0 0 0 1.5,1.5 h 5.5 v -2.9961 z"
       id="path3" />
  </g>
  <g
     id="south-active-tab-topright"
     style="opacity:0.8"
     transform="matrix(1,0,0,0.99925135,36.00001,-136.08883)">
    <rect
       id="rect3073-45"
       style="opacity:0.001"
       width="10"
       height="3"
       x="120"
       y="359.36" />
    <path
       id="rect3542-9"
       style="opacity:1;fill:#556fa6;fill-opacity:1"
       transform="matrix(1,0,0,1.0007492,-236.00001,-74.326798)"
       d="m 361.5,433.36133 a 1.5,1.5 0 0 0 -0.0527,0.002 c -0.10346,0 -5.44726,-2e-5 -5.44727,0.002 v 2.99805 h 5.5 v -0.002 a 1.5,1.5 0 0 0 1.5,-1.5 1.5,1.5 0 0 0 -1.5,-1.5 z" />
  </g>
  <rect
     id="south-active-tab-left"
     style="opacity:0.001"
     width="10"
     height="12"
     x="66"
     y="224" />
  <rect
     id="south-active-tab-center"
     style="opacity:0.001"
     width="80"
     height="12"
     x="76"
     y="224" />
  <rect
     id="south-active-tab-right"
     style="opacity:0.001"
     width="10"
     height="12"
     x="156"
     y="224" />
  <rect
     id="south-active-tab-bottomright"
     style="opacity:0.001"
     width="10"
     height="4"
     x="156"
     y="236" />
  <rect
     id="south-active-tab-bottom"
     style="opacity:0.001"
     width="80"
     height="4"
     x="76"
     y="236" />
  <rect
     id="south-active-tab-bottomleft"
     style="opacity:0.001"
     width="10"
     height="4"
     x="66"
     y="236" />
  <rect
     id="south-active-tab-hint-left-margin"
     style="opacity:0.01;fill:#008080"
     width="6"
     height="5"
     x="66"
     y="270.69189" />
  <rect
     id="south-active-tab-hint-right-margin"
     style="opacity:0.01;fill:#008080"
     width="6"
     height="5"
     x="160"
     y="270.69189" />
  <rect
     id="south-active-tab-hint-top-margin"
     style="opacity:0.01;fill:#9955ff"
     width="5"
     height="8"
     x="112.5"
     y="263.24987" />
  <rect
     id="south-active-tab-hint-bottom-margin"
     style="opacity:0.01;fill:#9955ff"
     width="5"
     height="4"
     x="112.5"
     y="276.24987" />
  <rect
     id="east-active-tab-bottom"
     style="opacity:0.00100002"
     width="10"
     height="12"
     x="-155.7"
     y="129.10007"
     transform="rotate(-90)" />
  <rect
     id="east-active-tab-center"
     style="opacity:0.00100002"
     width="80"
     height="12"
     x="-145.7"
     y="129.10007"
     transform="rotate(-90)" />
  <rect
     id="east-active-tab-top"
     style="opacity:0.00100002"
     width="10"
     height="12"
     x="-66"
     y="129.10007"
     transform="rotate(-90)" />
  <rect
     id="east-active-tab-topright"
     style="opacity:0.00100002"
     width="10"
     height="4"
     x="-66"
     y="141.10007"
     transform="rotate(-90)" />
  <rect
     id="east-active-tab-right"
     style="opacity:0.00100002"
     width="80"
     height="4"
     x="-145.7"
     y="141.10007"
     transform="rotate(-90)" />
  <rect
     id="east-active-tab-bottomright"
     style="opacity:0.00100002"
     width="10"
     height="4"
     x="-155.7"
     y="141.10007"
     transform="rotate(-90)" />
  <rect
     id="east-active-tab-hint-bottom-margin"
     style="opacity:0.01;fill:#9955ff"
     width="6"
     height="5"
     x="-156"
     y="249.60004"
     transform="rotate(-90)" />
  <rect
     id="east-active-tab-hint-top-margin"
     style="opacity:0.01;fill:#9955ff"
     width="6"
     height="5"
     x="-62"
     y="249.60004"
     transform="rotate(-90)" />
  <g
     id="east-active-tab-left"
     style="opacity:0.8"
     transform="rotate(90,232.23013,258.23233)">
    <path
       id="rect3003-5-6"
       style="opacity:1;fill:#556fa6;fill-opacity:1"
       d="m 40,359.36218 h 80 v 3 H 40 Z" />
  </g>
  <rect
     id="east-active-tab-hint-left-margin"
     style="opacity:0.01;fill:#008080"
     width="5"
     height="8"
     x="-102"
     y="242.30002"
     transform="rotate(-90)" />
  <rect
     id="east-active-tab-hint-right-margin"
     style="opacity:0.01;fill:#008080"
     width="5"
     height="4"
     x="-102"
     y="255.30002"
     transform="rotate(-90)" />
  <rect
     id="west-active-tab-top"
     style="opacity:0.00100002"
     width="10"
     height="12"
     x="56"
     y="-101.00005"
     transform="rotate(90)" />
  <rect
     id="west-active-tab-center"
     style="opacity:0.00100002"
     width="80"
     height="12"
     x="66"
     y="-101.00005"
     transform="rotate(90)" />
  <rect
     id="west-active-tab-bottom"
     style="opacity:0.00100002"
     width="10"
     height="12"
     x="146"
     y="-101.00005"
     transform="rotate(90)" />
  <rect
     id="west-active-tab-bottomleft"
     style="opacity:0.00100002"
     width="10"
     height="4"
     x="146"
     y="-89"
     transform="rotate(90)" />
  <rect
     id="west-active-tab-left"
     style="opacity:0.00100002"
     width="80"
     height="4"
     x="66"
     y="-89"
     transform="rotate(90)" />
  <rect
     id="west-active-tab-topleft"
     style="opacity:0.00100002"
     width="10"
     height="4"
     x="56"
     y="-89"
     transform="rotate(90)" />
  <rect
     id="west-active-tab-hint-top-margin"
     style="opacity:0.01;fill:#9955ff"
     width="6"
     height="5"
     x="56"
     y="34.000008"
     transform="rotate(90)" />
  <rect
     id="west-active-tab-hint-bottom-margin"
     style="opacity:0.01;fill:#9955ff"
     width="6"
     height="5"
     x="150"
     y="34.000008"
     transform="rotate(90)" />
  <g
     id="west-active-tab-right"
     style="opacity:0.8"
     transform="rotate(90,217.68001,243.68221)">
    <path
       id="rect3003-5"
       style="opacity:1;fill:#556fa6;fill-opacity:1"
       d="m 40,359.36218 h 80 v 3 H 40 Z" />
  </g>
  <g
     id="west-active-tab-topright"
     style="opacity:0.8"
     transform="matrix(0,1,-0.99926566,0,461.09612,26.002195)">
    <rect
       id="rect3073-5-5"
       style="opacity:0.00100002"
       width="10"
       height="3"
       x="30"
       y="359.35999" />
    <path
       id="rect3542-0"
       style="opacity:1;fill:#556fa6;fill-opacity:1"
       transform="matrix(0,-1.0007349,1,0,-236.36218,576.51945)"
       d="m 215.5,269.36133 a 1.5,1.5 0 0 0 -1.5,1.5 c 0,0 0.002,5.50001 0,5.5 h 2.99805 l 0.002,-5.5 a 1.5,1.5 0 0 0 -1.5,-1.5 z" />
  </g>
  <g
     id="west-active-tab-bottomright"
     style="opacity:0.8"
     transform="matrix(0,1,-0.99926566,0,461.09612,26.002195)">
    <rect
       id="rect3073-45-07"
       style="opacity:0.00100002"
       width="10"
       height="3"
       x="120"
       y="359.35999" />
    <path
       id="rect3542-9-4"
       style="opacity:1;fill:#556fa6;fill-opacity:1"
       transform="matrix(0,-1.0007349,1,0,-236.36218,576.51945)"
       d="m 214,356.36133 c 0.002,10e-6 0,5.5 0,5.5 a 1.5,1.5 0 0 0 1.5,1.5 1.5,1.5 0 0 0 1.5,-1.5 l -0.002,-5.5 z" />
  </g>
  <rect
     id="west-active-tab-hint-right-margin"
     style="opacity:0.01;fill:#008080"
     width="5"
     height="8"
     x="97"
     y="25.200003"
     transform="rotate(90)" />
  <rect
     id="west-active-tab-hint-left-margin"
     style="opacity:0.01;fill:#008080"
     width="5"
     height="4"
     x="97"
     y="38.199993"
     transform="rotate(90)" />
  <rect
     id="north-active-tab-right"
     style="opacity:0.00100002"
     width="10"
     height="12"
     x="-165.99994"
     y="-193.80003"
     transform="scale(-1)" />
  <rect
     id="north-active-tab-center"
     style="opacity:0.00100002"
     width="80"
     height="12"
     x="-155.99994"
     y="-193.80003"
     transform="scale(-1)" />
  <rect
     id="north-active-tab-left"
     style="opacity:0.00100002"
     width="10"
     height="12"
     x="-76.000015"
     y="-193.80003"
     transform="scale(-1)" />
  <rect
     id="north-active-tab-topleft"
     style="opacity:0.00100002"
     width="10"
     height="4"
     x="-76.000015"
     y="-181.79999"
     transform="scale(-1)" />
  <rect
     id="north-active-tab-top"
     style="opacity:0.00100002"
     width="80"
     height="4"
     x="-155.99994"
     y="-181.79999"
     transform="scale(-1)" />
  <rect
     id="north-active-tab-topright"
     style="opacity:0.00100002"
     width="10"
     height="4"
     x="-165.99994"
     y="-181.79999"
     transform="scale(-1)" />
  <rect
     id="north-focus-hint-right-margin"
     style="opacity:0.01;fill:#b380ff"
     width="6"
     height="5"
     x="-166.79999"
     y="27"
     transform="scale(-1)" />
  <rect
     id="north-focus-hint-left-margin"
     style="opacity:0.01;fill:#b380ff"
     width="6"
     height="5"
     x="-72.800003"
     y="27"
     transform="scale(-1)" />
  <g
     id="north-active-tab-bottom"
     style="opacity:0.8"
     transform="translate(36,-167.56012)">
    <path
       id="rect3003-6"
       style="opacity:1;fill:#556fa6;fill-opacity:1"
       d="m 40,359.36218 h 80 v 3 H 40 Z" />
  </g>
  <rect
     id="north-focus-hint-bottom-margin"
     style="opacity:0.01;fill:#008080"
     width="5"
     height="8"
     x="-119.3129"
     y="20"
     transform="scale(-1)" />
  <rect
     id="north-focus-hint-top-margin"
     style="opacity:0.01;fill:#008080"
     width="5"
     height="4"
     x="-119.3129"
     y="33"
     transform="scale(-1)" />
  <g
     id="north-active-tab-bottomleft"
     style="opacity:0.8"
     transform="matrix(1,0,0,0.99926566,36,-167.29403)">
    <rect
       id="rect3073-5-7"
       style="opacity:0.00100002"
       width="10"
       height="3"
       x="30"
       y="359.35999" />
    <path
       id="rect3542-3"
       style="opacity:1;fill:#556fa6;fill-opacity:1"
       transform="matrix(1,0,0,1.0007349,-243,134.83306)"
       d="m 277.5,224.36133 a 1.5,1.5 0 0 0 -1.5,1.5 1.5,1.5 0 0 0 1.5,1.5 c 0,0 5.50001,-4.2e-4 5.5,0 v -3 z" />
  </g>
  <g
     id="north-active-tab-bottomright"
     style="opacity:0.8"
     transform="matrix(1,0,0,0.99927074,-207,-35.39212)">
    <rect
       id="rect3073-45-6"
       style="opacity:0.00100002"
       width="10"
       height="3"
       x="363"
       y="227.36" />
    <rect
       id="rect3073-45-0"
       style="opacity:0.00100002"
       width="10"
       height="3"
       x="363"
       y="227.36" />
    <path
       id="rect3542-9-8"
       style="opacity:1;fill:#556fa6;fill-opacity:1"
       transform="matrix(1,0,0,1.0007298,0,2.8342025)"
       d="m 368.5,224.36133 c 0,0 -5.5,0.002 -5.5,0.004 v 2.9961 h 5.5 a 1.5,1.5 0 0 0 1.5,-1.5 1.5,1.5 0 0 0 -1.5,-1.5 z" />
  </g>
  <g
     id="east-active-tab-topleft"
     style="opacity:0.8"
     transform="matrix(0,1,-0.99926566,0,490.19635,26.002195)">
    <rect
       id="rect3073-5-5-1"
       style="opacity:0.00100002"
       width="10"
       height="3"
       x="30"
       y="359.35999" />
    <path
       id="rect3542-0-7"
       style="opacity:1;fill:#556fa6;fill-opacity:1"
       transform="matrix(0,-1.0007349,1,0,-236.36218,770.66226)"
       d="m 409.5,269.36133 a 1.5,1.5 0 0 0 -1.5,1.5 c 0,0 0.002,5.50001 0,5.5 h 2.99805 l 0.002,-5.5 a 1.5,1.5 0 0 0 -1.5,-1.5 z" />
  </g>
  <g
     id="east-active-tab-bottomleft"
     style="opacity:0.8"
     transform="matrix(0,1,-0.99926566,0,490.19635,26.002195)">
    <rect
       id="rect3073-45-07-7"
       style="opacity:0.00100002"
       width="10"
       height="3"
       x="120"
       y="359.35999" />
    <path
       id="rect3542-9-4-6"
       style="opacity:1;fill:#556fa6;fill-opacity:1"
       transform="matrix(0,-1.0007349,1,0,-236.36218,770.66226)"
       d="m 408,356.36133 v 5.5 a 1.5,1.5 0 0 0 1.5,1.5 1.5,1.5 0 0 0 1.5,-1.5 l -0.002,-5.5 z" />
  </g>
  <rect
     id="hint-stretch-borders"
     style="opacity:0.01;fill:#008080"
     width="3"
     height="3"
     x="280.41953"
     y="236" />
</svg>
