<?xml version="1.0" encoding="UTF-8" standalone="no"?>
<svg
   inkscape:version="1.3.2 (091e20ef0f, 2023-11-25)"
   sodipodi:docname="help.svg"
   style="enable-background:new"
   version="1.1"
   height="22"
   width="22"
   id="svg4306"
   xmlns:inkscape="http://www.inkscape.org/namespaces/inkscape"
   xmlns:sodipodi="http://sodipodi.sourceforge.net/DTD/sodipodi-0.dtd"
   xmlns:xlink="http://www.w3.org/1999/xlink"
   xmlns="http://www.w3.org/2000/svg"
   xmlns:svg="http://www.w3.org/2000/svg"
   xmlns:rdf="http://www.w3.org/1999/02/22-rdf-syntax-ns#"
   xmlns:cc="http://creativecommons.org/ns#"
   xmlns:dc="http://purl.org/dc/elements/1.1/">
  <g
     id="active-center"
     transform="translate(-44)">
    <rect
       style="opacity:0.013;fill:#000000;fill-opacity:1;stroke-width:1.02253"
       id="rect861"
       width="22"
       height="22"
       x="0"
       y="0" />
    <path
       d="m 19.999824,10.999909 c 0,1.078918 -0.189907,2.113341 -0.538179,3.072157 -0.242083,0.666352 -0.560558,1.296375 -0.945561,1.87908 -0.161255,0.244999 -0.334641,0.481607 -0.518694,0.708986 -0.589216,0.727707 -1.289458,1.361346 -2.075466,1.875678 -0.289478,0.189552 -0.590341,0.362947 -0.901829,0.518312 C 13.81046,19.659482 12.445032,20 10.999892,20 9.554755,20 8.189323,19.659482 6.979692,19.054099 6.668178,18.8987 6.366948,18.725317 6.07748,18.535787 5.281434,18.014516 4.572812,17.370831 3.978881,16.631082 3.794485,16.401855 3.621446,16.163081 3.460183,15.915871 3.085475,15.342826 2.775089,14.724494 2.537798,14.071034 2.189581,13.112604 2.000006,12.078566 2.000006,11.000011 2.000006,6.029385 6.029393,2 11.00002,2 c 2.495118,0 4.752805,1.01534 6.38311,2.655113 0.469827,0.472378 0.887517,0.996994 1.242969,1.564085 0.336126,0.53413 0.617126,1.106437 0.835695,1.708543 0.348307,0.958782 0.5382,1.993262 0.5382,3.072157 z"
       stroke-width="0.0351571"
       id="path273"
       style="fill:url(#linearGradient1498);fill-opacity:1;enable-background:new" />
    <path
       d="m 18.525773,11.000023 c 0,0.903368 -0.15902,1.769432 -0.450609,2.572225 -0.202708,0.55793 -0.46935,1.085404 -0.791706,1.57327 -0.135017,0.205132 -0.280198,0.403245 -0.434298,0.593625 -0.493332,0.609306 -1.079609,1.139898 -1.7378,1.570548 -0.242368,0.158711 -0.494282,0.303894 -0.755088,0.433973 -1.012791,0.50686 -2.156088,0.791976 -3.366173,0.791976 -1.209974,0 -2.353275,-0.285116 -3.366176,-0.791987 C 7.363096,17.61354 7.110881,17.468368 6.868514,17.30968 6.201992,16.873235 5.608653,16.334309 5.111441,15.714866 4.957049,15.522944 4.812174,15.323006 4.677139,15.116026 4.363416,14.636221 4.103528,14.118533 3.904835,13.571443 3.613291,12.768956 3.454548,11.903153 3.454548,11.000125 c 0,-4.161824 3.373771,-7.535595 7.535596,-7.535595 2.089073,0 3.979378,0.850133 5.344583,2.223101 0.393379,0.395523 0.743116,0.834758 1.04076,1.309642 0.28144,0.447216 0.516714,0.926409 0.699722,1.430512 0.291624,0.802771 0.450619,1.668858 0.450619,2.572226 z"
       stroke-width="0.0294357"
       id="path275"
       style="fill:url(#linearGradient1506);fill-opacity:1;enable-background:new" />
  </g>
  <g
     id="inactive-center"
     transform="translate(-44,22)">
    <rect
       y="0"
       x="0"
       height="22"
       width="22"
       id="rect861-7"
       style="opacity:0.00100002;fill:#000000;fill-opacity:1;stroke-width:1.02253" />
    <path
       id="path839-3-36-9"
       style="fill:#eff0f1;fill-opacity:1;stroke-width:1.125;enable-background:new"
       d="M 11,2 C 6.02953,2 2,6.029441 2,10.999998 2,15.970557 6.02953,20 11,20 15.97048,20 20,15.970557 20,10.999998 20,6.029441 15.97048,2 11,2 Z m 0,1.125 c 4.34919,0 7.875,3.525746 7.875,7.874998 C 18.875,15.349232 15.34919,18.875 11,18.875 6.6508,18.875 3.125,15.349232 3.125,10.999998 3.125,6.650746 6.6508,3.125 11,3.125 Z m 0,0 z"
       sodipodi:nodetypes="ssssssssssccccc" />
    <rect
       style="fill:#b48ead;fill-opacity:0.6;stroke:none;stroke-width:0.39374;enable-background:new"
       id="center-3-35-5-7-1"
       width="15.749992"
       height="15.749992"
       x="3.1250012"
       y="3.125001"
       ry="7.8749838"
       rx="7.8749962" />
  </g>
  <metadata
     id="metadata28">
    <rdf:RDF>
      <cc:Work
         rdf:about="">
        <dc:format>image/svg+xml</dc:format>
        <dc:type
           rdf:resource="http://purl.org/dc/dcmitype/StillImage" />
      </cc:Work>
    </rdf:RDF>
  </metadata>
  <defs
     id="defs26">
    <linearGradient
       inkscape:collect="always"
       id="linearGradient973">
      <stop
         style="stop-color:#c3a2bb;stop-opacity:1;"
         offset="0"
         id="stop969" />
      <stop
         style="stop-color:#9a658f;stop-opacity:1;"
         offset="1"
         id="stop971" />
    </linearGradient>
    <linearGradient
       inkscape:collect="always"
       id="linearGradient918">
      <stop
         style="stop-color:#c3a2bb;stop-opacity:1;"
         offset="0"
         id="stop914" />
      <stop
         style="stop-color:#9a658f;stop-opacity:1;"
         offset="1"
         id="stop916" />
    </linearGradient>
    <linearGradient
       inkscape:collect="always"
       id="linearGradient1315">
      <stop
         style="stop-color:#af83a8;stop-opacity:1;"
         offset="0"
         id="stop1311" />
      <stop
         style="stop-color:#af83a8;stop-opacity:1;"
         offset="1"
         id="stop1313" />
    </linearGradient>
    <linearGradient
       inkscape:collect="always"
       id="linearGradient6077">
      <stop
         style="stop-color:#cdb2c8;stop-opacity:1;"
         offset="0"
         id="stop6073" />
      <stop
         style="stop-color:#ae84a5;stop-opacity:1;"
         offset="1"
         id="stop6075" />
    </linearGradient>
    <linearGradient
       inkscape:collect="always"
       id="linearGradient3632">
      <stop
         style="stop-color:#d7c1d1;stop-opacity:1;"
         offset="0"
         id="stop3628" />
      <stop
         style="stop-color:#9a658f;stop-opacity:1;"
         offset="1"
         id="stop3630" />
    </linearGradient>
    <linearGradient
       inkscape:collect="always"
       xlink:href="#linearGradient6077"
       id="linearGradient1498"
       x1="6"
       y1="31.999754"
       x2="57.999969"
       y2="31.999754"
       gradientUnits="userSpaceOnUse"
       gradientTransform="matrix(0.34615385,0,0,0.34615385,-0.076917,-0.076838)" />
    <linearGradient
       inkscape:collect="always"
       xlink:href="#linearGradient918"
       id="linearGradient1506"
       x1="53.741104"
       y1="31.999821"
       x2="10.20201"
       y2="32.000114"
       gradientUnits="userSpaceOnUse"
       gradientTransform="matrix(0.34615385,0,0,0.34615385,-0.076917,-0.076838)" />
    <linearGradient
       inkscape:collect="always"
       xlink:href="#linearGradient6077"
       id="linearGradient431"
       gradientUnits="userSpaceOnUse"
       gradientTransform="matrix(0.34615385,0,0,0.34615385,-0.076917,-0.076923)"
       x1="6"
       y1="31.999754"
       x2="57.999969"
       y2="31.999754" />
    <linearGradient
       inkscape:collect="always"
       xlink:href="#linearGradient973"
       id="linearGradient433"
       gradientUnits="userSpaceOnUse"
       gradientTransform="matrix(0.34615385,0,0,0.34615385,-0.076917,-0.076923)"
       x1="53.741104"
       y1="31.999821"
       x2="10.20201"
       y2="32.000114" />
    <linearGradient
       inkscape:collect="always"
       xlink:href="#linearGradient1315"
       id="linearGradient468"
       gradientUnits="userSpaceOnUse"
       gradientTransform="matrix(0.34615385,0,0,0.34615385,-0.076799,-0.076838)"
       x1="6"
       y1="31.999754"
       x2="57.999969"
       y2="31.999754" />
    <radialGradient
       inkscape:collect="always"
       xlink:href="#linearGradient3632"
       id="radialGradient1309"
       cx="10.990305"
       cy="11.000085"
       fx="10.990305"
       fy="11.000085"
       r="7.5356388"
       gradientTransform="matrix(1,0,0,0.99998885,0,1.2261829e-4)"
       gradientUnits="userSpaceOnUse" />
  </defs>
  <sodipodi:namedview
     inkscape:bbox-nodes="true"
     inkscape:snap-bbox="true"
     inkscape:current-layer="svg4306"
     inkscape:window-maximized="1"
     inkscape:window-y="0"
     inkscape:window-x="0"
     inkscape:cy="33.30889"
     inkscape:cx="-3.6603176"
     inkscape:zoom="6.8300085"
     showgrid="true"
     id="namedview24"
     inkscape:window-height="994"
     inkscape:window-width="1920"
     inkscape:pageshadow="2"
     inkscape:pageopacity="0"
     guidetolerance="10"
     gridtolerance="10"
     objecttolerance="10"
     borderopacity="1"
     bordercolor="#ff0000"
     pagecolor="#000000"
     inkscape:document-rotation="0"
     inkscape:lockguides="false"
     inkscape:pagecheckerboard="true"
     inkscape:showpageshadow="false"
     inkscape:deskcolor="#000000">
    <inkscape:grid
       type="xygrid"
       id="grid939"
       originx="0"
       originy="0"
       spacingy="1"
       spacingx="1"
       units="px"
       visible="true" />
  </sodipodi:namedview>
  <style
     id="current-color-scheme"
     type="text/css" />
  <g
     id="pressed-inactive-center"
     transform="translate(0,22)">
    <rect
       y="0"
       x="0"
       height="22"
       width="22"
       id="rect861-6-6-5"
       style="opacity:0.00100002;fill:#000000;fill-opacity:1;stroke-width:1.02253" />
    <path
       id="path839-3-36-5"
       style="fill:#eff0f1;fill-opacity:1;stroke-width:1.125;enable-background:new"
       d="M 11,2 C 6.02953,2 2,6.029441 2,10.999998 2,15.970557 6.02953,20 11,20 15.970478,20 19.999998,15.970557 19.999998,10.999998 19.999998,6.029441 15.970478,2 11,2 Z m 0,1.125 c 4.349188,0 7.874998,3.525746 7.874998,7.874998 0,4.349234 -3.52581,7.875002 -7.874998,7.875002 -4.3492,0 -7.875,-3.525768 -7.875,-7.875002 C 3.125,6.650746 6.6508,3.125 11,3.125 Z m 0,0 z"
       sodipodi:nodetypes="ssssssssssccccc" />
    <rect
       style="fill:#b48ead;fill-opacity:1;stroke:none;stroke-width:0.39374;enable-background:new"
       id="center-3-35-5-7-6"
       width="15.749992"
       height="15.749992"
       x="3.1249974"
       y="3.1250014"
       ry="7.8749838"
       rx="7.8749962" />
    <path
       d="m 11.076852,13.692185 c -0.203952,0 -0.399677,-0.08105 -0.543916,-0.225309 -0.144261,-0.144246 -0.2253,-0.339828 -0.2253,-0.543813 0.09974,-0.977388 0.598916,-1.870095 1.379164,-2.466913 0.477825,-0.477675 0.928566,-0.9285749 0.928566,-1.3793109 0,-0.549684 -0.293241,-1.057464 -0.769241,-1.332314 -0.476,-0.27484 -1.0625,-0.27484 -1.538489,0 -0.476,0.274825 -0.769261,0.78263 -0.769261,1.332314 0,0.274826 -0.146623,0.5287359 -0.384627,0.6661359 -0.237999,0.137413 -0.531098,0.137413 -0.769098,0 C 8.14665,9.605552 8,9.3516501 8,9.0768391 c 0,-1.09918 0.58635,-2.114964 1.53835,-2.66459 0.951998,-0.549645 2.124998,-0.549686 3.076984,0 0.951991,0.549676 1.538345,1.56541 1.538345,2.66459 -0.09974,0.9773859 -0.598778,1.8700949 -1.379166,2.4669109 -0.477679,0.477676 -0.928438,0.928425 -0.928438,1.379313 0,0.203962 -0.0811,0.399573 -0.2253,0.543813 -0.14425,0.144263 -0.339975,0.225309 -0.543923,0.225309 z"
       id="path2-7"
       style="fill:#ffffff;fill-opacity:0.8;stroke-width:0.0357148;enable-background:new" />
    <path
       d="M 11.846148,15.23075 C 11.846148,15.655575 11.5017,16 11.0769,16 c -0.4248,0 -0.76925,-0.34445 -0.76925,-0.76925 0,-0.4248 0.34445,-0.769238 0.76925,-0.769238 0.4248,0 0.769248,0.344438 0.769248,0.769238"
       id="path4-5"
       style="fill:#ffffff;fill-opacity:0.8;stroke-width:0.0357148;enable-background:new" />
  </g>
  <g
     id="hover-inactive-center"
     transform="translate(-22,22)">
    <rect
       style="opacity:0.00100002;fill:#000000;fill-opacity:1;stroke-width:1.02253"
       id="rect861-6-67"
       width="22"
       height="22"
       x="0"
       y="0" />
    <path
       id="path839-3-36-36"
       style="fill:#eff0f1;fill-opacity:1;stroke-width:1.125;enable-background:new"
       d="M 11.000001,2 C 6.02953,2 2,6.029441 2,10.999998 2,15.970557 6.02953,20 11.000001,20 c 4.97048,0 9,-4.029443 9,-9.000002 0,-4.970557 -4.02952,-8.999998 -9,-8.999998 z m 0,1.125 c 4.34919,0 7.875,3.525746 7.875,7.874998 0,4.349234 -3.52581,7.875002 -7.875,7.875002 C 6.6508,18.875 3.125,15.349232 3.125,10.999998 3.125,6.650746 6.6508,3.125 11.000001,3.125 Z m 0,0 z"
       sodipodi:nodetypes="ssssssssssccccc" />
    <rect
       style="fill:#b48ead;fill-opacity:0.701961;stroke:none;stroke-width:0.39374;enable-background:new"
       id="center-3-35-5-7-75"
       width="15.749992"
       height="15.749992"
       x="3.1249983"
       y="3.1249998"
       ry="7.8749838"
       rx="7.8749962" />
    <path
       d="m 11.076852,13.692185 c -0.203952,0 -0.399677,-0.08105 -0.543916,-0.225309 -0.144261,-0.144246 -0.2253,-0.339828 -0.2253,-0.543813 0.09974,-0.977388 0.598916,-1.870095 1.379164,-2.466913 0.477825,-0.477675 0.928566,-0.928575 0.928566,-1.3793109 0,-0.549684 -0.293241,-1.057464 -0.769241,-1.332314 -0.476,-0.27484 -1.0625,-0.27484 -1.538489,0 -0.476,0.274825 -0.769261,0.78263 -0.769261,1.332314 0,0.274826 -0.146623,0.5287359 -0.384627,0.6661359 -0.237999,0.137413 -0.531098,0.137413 -0.769098,0 C 8.14665,9.605552 8,9.3516501 8,9.0768391 c 0,-1.09918 0.58635,-2.114964 1.53835,-2.66459 0.951998,-0.549645 2.124998,-0.549686 3.076984,0 0.951991,0.549676 1.538345,1.56541 1.538345,2.66459 -0.09974,0.9773859 -0.598778,1.8700949 -1.379166,2.4669109 -0.477679,0.477676 -0.928438,0.928425 -0.928438,1.379313 0,0.203962 -0.0811,0.399573 -0.2253,0.543813 -0.14425,0.144263 -0.339975,0.225309 -0.543923,0.225309 z"
       id="path2-35"
       style="fill:#2b4254;fill-opacity:1;stroke-width:0.0357148;enable-background:new" />
    <path
       d="M 11.846148,15.23075 C 11.846148,15.655575 11.5017,16 11.0769,16 c -0.4248,0 -0.76925,-0.34445 -0.76925,-0.76925 0,-0.4248 0.34445,-0.769238 0.76925,-0.769238 0.4248,0 0.769248,0.344438 0.769248,0.769238"
       id="path4-62"
       style="fill:#2b4254;fill-opacity:1;stroke-width:0.0357148;enable-background:new" />
  </g>
  <g
     id="hover-center"
     transform="translate(-22)">
    <rect
       y="0"
       x="0"
       height="22"
       width="22"
       id="rect861-6"
       style="opacity:0.00100002;fill:#000000;fill-opacity:1;stroke-width:1.02253" />
    <path
       d="m 19.999824,10.999824 c 0,1.078918 -0.189907,2.113341 -0.538179,3.072157 -0.242083,0.666352 -0.560558,1.296375 -0.945561,1.87908 -0.161255,0.244999 -0.334641,0.481607 -0.518694,0.708986 -0.589216,0.727707 -1.289458,1.361346 -2.075466,1.875678 -0.289478,0.189552 -0.590341,0.362947 -0.901829,0.518312 -1.209635,0.60536 -2.575063,0.945878 -4.020203,0.945878 -1.445137,0 -2.810569,-0.340518 -4.0202,-0.945901 C 6.668178,18.898615 6.366948,18.725232 6.07748,18.535702 5.281434,18.014431 4.572812,17.370746 3.978881,16.630997 3.794485,16.40177 3.621446,16.162996 3.460183,15.915786 3.085475,15.342741 2.775089,14.724409 2.537798,14.070949 2.189581,13.112519 2.000006,12.078481 2.000006,10.999926 c 0,-4.970626 4.029387,-9.000011 9.000014,-9.000011 2.495118,0 4.752805,1.01534 6.38311,2.655113 0.469827,0.472378 0.887517,0.996994 1.242969,1.564085 0.336126,0.53413 0.617126,1.106437 0.835695,1.708543 0.348307,0.958782 0.5382,1.993262 0.5382,3.072157 z"
       stroke-width="0.0351571"
       id="path273-3"
       style="fill:url(#linearGradient431);fill-opacity:1;enable-background:new" />
    <path
       d="m 18.525773,10.999938 c 0,0.903368 -0.15902,1.769432 -0.450609,2.572225 -0.202708,0.55793 -0.46935,1.085404 -0.791706,1.57327 -0.135017,0.205132 -0.280198,0.403245 -0.434298,0.593625 -0.493332,0.609306 -1.079609,1.139898 -1.7378,1.570548 -0.242368,0.158711 -0.494282,0.303894 -0.755088,0.433973 -1.012791,0.50686 -2.156088,0.791976 -3.366173,0.791976 -1.209974,0 -2.353275,-0.285116 -3.366176,-0.791987 C 7.363096,17.613455 7.110881,17.468283 6.868514,17.309595 6.201992,16.87315 5.608653,16.334224 5.111441,15.714781 4.957049,15.522859 4.812174,15.322921 4.677139,15.115941 4.363416,14.636136 4.103528,14.118448 3.904835,13.571358 3.613291,12.768871 3.454548,11.903068 3.454548,11.00004 c 0,-4.161824 3.373771,-7.535595 7.535596,-7.535595 2.089073,0 3.979378,0.850133 5.344583,2.223101 0.393379,0.395523 0.743116,0.834758 1.04076,1.309642 0.28144,0.447216 0.516714,0.926409 0.699722,1.430512 0.291624,0.802771 0.450619,1.668858 0.450619,2.572226 z"
       stroke-width="0.0294357"
       id="path275-5"
       style="fill:url(#linearGradient433);fill-opacity:1;enable-background:new" />
    <path
       d="m 11.076851,13.692185 c -0.203952,0 -0.399676,-0.08105 -0.543916,-0.225309 -0.144261,-0.144246 -0.2253,-0.339828 -0.2253,-0.543813 0.09974,-0.977388 0.598916,-1.870095 1.379165,-2.466913 0.477825,-0.477675 0.928566,-0.9285748 0.928566,-1.3793108 0,-0.549684 -0.293241,-1.0574641 -0.769241,-1.3323141 -0.475999,-0.27484 -1.0625,-0.27484 -1.538489,0 -0.476,0.274825 -0.769261,0.7826301 -0.769261,1.3323141 0,0.274826 -0.146623,0.528736 -0.384627,0.6661358 -0.237999,0.137413 -0.531098,0.137413 -0.769098,0 C 8.14665,9.6055522 8,9.3516502 8,9.0768392 8,7.9776591 8.58635,6.9618751 9.53835,6.4122491 c 0.951999,-0.549645 2.124999,-0.549686 3.076984,0 0.951991,0.549676 1.538345,1.56541 1.538345,2.6645901 -0.09974,0.9773858 -0.598777,1.8700948 -1.379166,2.4669108 -0.477679,0.477676 -0.928437,0.928425 -0.928437,1.379313 0,0.203962 -0.0811,0.399573 -0.225301,0.543813 -0.14425,0.144263 -0.339975,0.225309 -0.543924,0.225309 z"
       id="path2-9"
       style="fill:#2b4254;fill-opacity:1;stroke-width:0.0357148;enable-background:new" />
    <path
       d="M 11.769308,15.23075 C 11.769308,15.655575 11.42486,16 11.00006,16 c -0.4248,0 -0.76925,-0.34445 -0.76925,-0.76925 0,-0.4248 0.34445,-0.769238 0.76925,-0.769238 0.4248,0 0.769248,0.344438 0.769248,0.769238"
       id="path4-3"
       style="fill:#2b4254;fill-opacity:1;stroke-width:0.0357148;enable-background:new" />
  </g>
  <g
     id="pressed-center">
    <rect
       style="opacity:0.00100002;fill:#000000;fill-opacity:1;stroke-width:1.02253"
       id="rect861-6-6"
       width="22"
       height="22"
       x="0"
       y="0" />
    <path
       d="m 19.999944,10.999909 c 0,1.078918 -0.18991,2.113341 -0.53818,3.072157 -0.24208,0.666352 -0.56056,1.296375 -0.94556,1.87908 -0.16126,0.244999 -0.33464,0.481607 -0.5187,0.708986 -0.589212,0.727707 -1.289454,1.361346 -2.075462,1.875678 -0.289478,0.189552 -0.590341,0.362947 -0.901829,0.518312 C 13.810578,19.659482 12.44515,20 11.00001,20 9.554873,20 8.189441,19.659482 6.97981,19.054099 6.668296,18.8987 6.367066,18.725317 6.077598,18.535787 5.281552,18.014516 4.57293,17.370831 3.978999,16.631082 3.794603,16.401855 3.621564,16.163081 3.460301,15.915871 3.085593,15.342826 2.775207,14.724494 2.537916,14.071034 2.189699,13.112604 2.000124,12.078566 2.000124,11.000011 2.000124,6.029385 6.029511,2 11.000138,2 c 2.495118,0 4.752805,1.01534 6.38311,2.655113 0.469826,0.472378 0.887516,0.996994 1.242966,1.564085 0.33613,0.53413 0.61713,1.106437 0.8357,1.708543 0.34831,0.958782 0.5382,1.993262 0.5382,3.072157 z"
       stroke-width="0.0351571"
       id="path273-2"
       style="fill:url(#linearGradient468);fill-opacity:1;enable-background:new" />
    <path
       d="m 18.525894,11.000023 c 0,0.903368 -0.15902,1.769432 -0.45061,2.572225 -0.20271,0.55793 -0.469352,1.085404 -0.791708,1.57327 -0.135017,0.205132 -0.280198,0.403245 -0.434298,0.593625 -0.493332,0.609306 -1.079609,1.139898 -1.7378,1.570548 -0.242368,0.158711 -0.494282,0.303894 -0.755088,0.433973 -1.012791,0.50686 -2.156088,0.791976 -3.366173,0.791976 -1.209974,0 -2.353275,-0.285116 -3.366176,-0.791987 C 7.363214,17.61354 7.110999,17.468368 6.868632,17.30968 6.20211,16.873235 5.608771,16.334309 5.111559,15.714866 4.957167,15.522944 4.812292,15.323006 4.677257,15.116026 4.363534,14.636221 4.103646,14.118533 3.904953,13.571443 3.613409,12.768956 3.454666,11.903153 3.454666,11.000125 c 0,-4.161824 3.373771,-7.535595 7.535596,-7.535595 2.089073,0 3.979378,0.850133 5.344583,2.223101 0.393379,0.395523 0.743116,0.834758 1.04076,1.309642 0.28144,0.447216 0.516719,0.926409 0.699719,1.430512 0.29163,0.802771 0.45062,1.668858 0.45062,2.572226 z"
       stroke-width="0.0294357"
       id="path275-7"
       style="fill:url(#radialGradient1309);fill-opacity:1;enable-background:new" />
    <path
       d="m 11.076852,13.692185 c -0.203952,0 -0.399677,-0.08105 -0.543916,-0.225309 -0.144261,-0.144246 -0.2253,-0.339828 -0.2253,-0.543813 0.09974,-0.977388 0.598916,-1.870095 1.379164,-2.466913 0.477825,-0.4776749 0.928566,-0.9285749 0.928566,-1.3793109 0,-0.549684 -0.293241,-1.057464 -0.769241,-1.332314 -0.476,-0.27484 -1.0625,-0.27484 -1.538489,0 -0.476,0.274825 -0.769261,0.78263 -0.769261,1.332314 0,0.274826 -0.146623,0.528736 -0.384627,0.666136 -0.237999,0.137413 -0.531098,0.137413 -0.769098,0 C 8.14665,9.6055521 8,9.3516501 8,9.0768391 c 0,-1.09918 0.58635,-2.114964 1.53835,-2.66459 0.951998,-0.549645 2.124998,-0.549686 3.076984,0 0.951991,0.549676 1.538345,1.56541 1.538345,2.66459 -0.09974,0.9773859 -0.598778,1.8700949 -1.379166,2.4669109 -0.477679,0.477676 -0.928438,0.928425 -0.928438,1.379313 0,0.203962 -0.0811,0.399573 -0.2253,0.543813 -0.14425,0.144263 -0.339975,0.225309 -0.543923,0.225309 z"
       id="path2-3-6"
       style="fill:#ffffff;fill-opacity:1;stroke-width:0.0357148;enable-background:new" />
    <path
       d="M 11.846148,15.23075 C 11.846148,15.655575 11.5017,16 11.0769,16 c -0.4248,0 -0.76925,-0.34445 -0.76925,-0.76925 0,-0.4248 0.34445,-0.769238 0.76925,-0.769238 0.4248,0 0.769248,0.344438 0.769248,0.769238"
       id="path4-6-2"
       style="fill:#ffffff;fill-opacity:1;stroke-width:0.0357148;enable-background:new" />
  </g>
</svg>
