<?xml version="1.0" encoding="UTF-8" standalone="no"?>
<svg
   inkscape:version="1.2.1 (9c6d41e410, 2022-07-14)"
   sodipodi:docname="change_user.svg"
   id="svg8"
   version="1.1"
   height="36pt"
   width="36pt"
   viewBox="0 0 36 36"
   style="isolation:isolate"
   xmlns:inkscape="http://www.inkscape.org/namespaces/inkscape"
   xmlns:sodipodi="http://sodipodi.sourceforge.net/DTD/sodipodi-0.dtd"
   xmlns="http://www.w3.org/2000/svg"
   xmlns:svg="http://www.w3.org/2000/svg"
   xmlns:rdf="http://www.w3.org/1999/02/22-rdf-syntax-ns#"
   xmlns:cc="http://creativecommons.org/ns#"
   xmlns:dc="http://purl.org/dc/elements/1.1/">
  <metadata
     id="metadata14">
    <rdf:RDF>
      <cc:Work
         rdf:about="">
        <dc:format>image/svg+xml</dc:format>
        <dc:type
           rdf:resource="http://purl.org/dc/dcmitype/StillImage" />
      </cc:Work>
    </rdf:RDF>
  </metadata>
  <defs
     id="defs12" />
  <sodipodi:namedview
     inkscape:current-layer="g6"
     inkscape:window-maximized="1"
     inkscape:window-y="0"
     inkscape:window-x="0"
     inkscape:cy="25.278142"
     inkscape:cx="-11.19524"
     inkscape:zoom="11.254783"
     showgrid="true"
     id="namedview10"
     inkscape:window-height="1004"
     inkscape:window-width="1920"
     inkscape:pageshadow="2"
     inkscape:pageopacity="0"
     guidetolerance="10"
     gridtolerance="10"
     objecttolerance="10"
     borderopacity="1"
     bordercolor="#666666"
     pagecolor="#ffffff"
     inkscape:pagecheckerboard="0"
     inkscape:document-units="pt"
     inkscape:showpageshadow="false"
     inkscape:deskcolor="#d1d1d1">
    <inkscape:grid
       type="xygrid"
       id="grid1156" />
  </sodipodi:namedview>
  <g
     id="g6">
    <path
       d="m 31.299105,14.758693 a 0.61336061,0.6557322 0 0 0 0.186046,-0.448215 c 0,-0.0216 0,-0.04035 0.0105,-0.06195 0.0105,-0.0216 0,-0.039 -0.0105,-0.0591 a 0.61605669,0.65861448 0 0 0 -0.186046,-0.449655 l -4.94598,-5.2876348 a 0.67402264,0.72058478 0 0 0 -0.95307,1.01889 l 3.794746,4.0583548 H 14.714102 a 0.67402604,0.72058842 0 0 0 0,1.44117 h 14.480699 l -3.794746,4.058325 a 0.67402264,0.72058478 0 0 0 0.95307,1.01892 z"
       id="path3089-3"
       style="color:#e5e9ef;fill:#1e2431;fill-opacity:1;stroke-width:1.5"
       class="ColorScheme-Text" />
    <path
       d="m 4.6966085,21.241213 a 0.61337093,0.65574326 0 0 0 -0.18602,0.448215 c 0,0.0216 0,0.04035 -0.0076,0.06195 -0.0076,0.0216 0,0.039 0.0076,0.0591 a 0.61606705,0.65862558 0 0 0 0.18602,0.44967 l 4.946084,5.287724 a 0.67403404,0.72059698 0 0 0 0.9530565,-1.01892 L 6.8009585,22.470538 H 21.281882 a 0.67403884,0.72060216 0 0 0 0,-1.4412 H 6.8009585 l 3.7947905,-4.0584 A 0.67403404,0.72059698 0 0 0 9.6426925,15.952003 Z"
       id="path3089-3-5"
       style="color:#e5e9ef;fill:#1e2431;fill-opacity:1;stroke-width:1.5"
       class="ColorScheme-Text" />
    <path
       d="M 18.000002,35.999921 A 18,18 0 1 1 36,17.999923 18.019933,18.019933 0 0 1 18.000002,35.999921 Z m 0,-34.1878472 A 16.187858,16.187858 0 1 0 34.187866,17.999923 16.205979,16.205979 0 0 0 18.000002,1.8120738 Z"
       id="path2592-6"
       style="color:#e5e9ef;fill:#1e2431;fill-opacity:1;stroke-width:1.5"
       class="ColorScheme-Text" />
  </g>
</svg>
