<?xml version="1.0" encoding="UTF-8" standalone="no"?>
<svg
   viewBox="0 0 16 16"
   id="svg6"
   version="1.1"
   sodipodi:docname="folder-projects.svg"
   inkscape:version="1.2.1 (9c6d41e410, 2022-07-14)"
   xmlns:inkscape="http://www.inkscape.org/namespaces/inkscape"
   xmlns:sodipodi="http://sodipodi.sourceforge.net/DTD/sodipodi-0.dtd"
   xmlns="http://www.w3.org/2000/svg"
   xmlns:svg="http://www.w3.org/2000/svg">
  <sodipodi:namedview
     id="namedview7"
     pagecolor="#ffffff"
     bordercolor="#666666"
     borderopacity="1.0"
     inkscape:showpageshadow="2"
     inkscape:pageopacity="0.0"
     inkscape:pagecheckerboard="0"
     inkscape:deskcolor="#d1d1d1"
     showgrid="true"
     inkscape:zoom="14.75"
     inkscape:cx="5.559322"
     inkscape:cy="8.0338983"
     inkscape:window-width="1920"
     inkscape:window-height="1004"
     inkscape:window-x="0"
     inkscape:window-y="0"
     inkscape:window-maximized="1"
     inkscape:current-layer="svg6">
    <inkscape:grid
       type="xygrid"
       id="grid590" />
  </sodipodi:namedview>
  <defs
     id="defs3051">
    <style
       type="text/css"
       id="current-color-scheme">.ColorScheme-Text { color:#eff0f1; }
</style>
  </defs>
  <g
     id="g957"
     transform="matrix(-8.8943097e-4,-0.01833675,0.0183959,-8.8650527e-4,0.59318479,13.819779)"
     style="fill:#eff0f1;fill-opacity:1"
     class="ColorScheme-Text">
    <path
       d="m 313.75974,484.91635 c -2.7539,-2.7461 -6.3438,-4.5078 -10.211,-4.9883 l -98.988,-12.379 c -5.3633,-0.66797 -10.727,1.1719 -14.551,4.9961 -3.8164,3.8125 -5.6523,9.1875 -4.9883,14.543 l 12.375,98.996 c 0.48047,3.8594 2.2383,7.4453 4.9961,10.203 l 216.56,216.56 c 30.746,30.746 80.594,30.746 111.34,0 l 0.008,-0.0117 c 14.77,-14.77 23.062,-34.797 23.062,-55.684 0,-20.887 -8.293,-40.914 -23.062,-55.684 -73.922,-73.93 -216.55,-216.55 -216.55,-216.55 z m 197.37,248.11 c 4.6875,7.0977 7.2422,15.48 7.2422,24.125 0,11.602 -4.6016,22.734 -12.809,30.934 -0.008,0.008 -0.008,0.008 -0.0156,0.0156 -14.965,14.96099 -38.074,16.816 -55.055,5.5547 z m -271.62,-149.12 185.61,185.61 18.566,-18.559 -185.61,-185.62 z m 43.312,-43.312 185.61,185.61 18.566,-18.559 -185.62,-185.61 z m -55.137,5.6367 36.023,-36.016 -41.168,-5.1523 z"
       fill-rule="evenodd"
       id="path50"
       style="fill-opacity:1;fill:currentColor;"
       class="ColorScheme-Text" />
  </g>
  <path
     fill-rule="evenodd"
     clip-rule="evenodd"
     d="M 3.0177078,6.7440008 C 3.0597398,6.3216044 3.413523,6.0000038 3.8361051,6.0000038 h 0.3961812 c 0.422604,0 0.7763729,0.3217058 0.8183838,0.744017 0.00974,0.1001344 0.1269537,0.1487155 0.2044836,0.085183 0.3270456,-0.2687804 0.8035893,-0.2449152 1.1023139,0.055277 l 0.2801947,0.2814976 c 0.2987659,0.3001007 0.3225353,0.7788421 0.05503,1.107383 -0.063458,0.077954 -0.01485,0.1954806 0.084799,0.205475 0.420422,0.0422 0.7406613,0.3976562 0.7406613,0.8221525 v 0.3980523 c 0,0.4244718 -0.3201232,0.7798258 -0.7405896,0.8220838 -0.099672,0.0098 -0.1482672,0.127547 -0.084734,0.205418 0.2674832,0.328552 0.2437606,0.807259 -0.055029,1.107416 L 6.3576066,12.11544 C 6.0588012,12.4156 5.5822739,12.439452 5.2551829,12.17069 5.1777679,12.10691 5.0605772,12.15575 5.0506295,12.25588 5.0087035,12.678261 4.6548618,12.999996 4.2322633,12.999996 H 3.8361555 c -0.422543,0 -0.7763761,-0.321617 -0.8184571,-0.744057 -0.0097,-0.100131 -0.1269639,-0.148957 -0.2046684,-0.0852 -0.3270721,0.268802 -0.8036957,0.24498 -1.1025245,-0.05525 L 1.4304061,11.834192 C 1.1316339,11.533977 1.1079101,11.055188 1.3754072,10.726667 1.4388749,10.648714 1.3902147,10.531112 1.2906242,10.521106 0.87015514,10.478914 0.55,10.12348 0.55,9.6989706 V 9.3010665 c 0,-0.424571 0.32025976,-0.779952 0.7406914,-0.8222268 0.099866,-0.00977 0.1482907,-0.1277255 0.0848,-0.2056359 C 1.1078933,7.9446731 1.1316844,7.4659021 1.4305066,7.1657359 L 1.7106217,6.8843207 C 2.0093792,6.5841298 2.485992,6.5603098 2.8130509,6.8290397 c 0.077596,0.063765 0.1946178,0.0149 0.2045797,-0.085136 z m 0.8183973,-0.043854 c -0.064662,0 -0.1186519,0.049146 -0.1250884,0.113545 -0.065186,0.6559673 -0.8313963,0.974573 -1.3391368,0.5571965 -0.049789,-0.041151 -0.1229416,-0.037149 -0.1684045,0.0082 L 1.923342,7.6604808 c -0.045998,0.04615 -0.049291,0.1189957 -0.00821,0.1691961 0.415553,0.5102312 0.098152,1.2797674 -0.5547562,1.3453978 -0.064248,0.00655 -0.113251,0.060864 -0.113251,0.1255804 v 0.3979692 c 0,0.064928 0.048959,0.1191703 0.113251,0.1255754 0.6529644,0.065555 0.970164,0.8352233 0.554699,1.3453783 -0.041004,0.05002 -0.037023,0.123488 0.00813,0.1692 l 0.2800986,0.281353 c 0.045708,0.04594 0.1184589,0.0495 0.1685846,0.008 0.5077929,-0.417416 1.2739755,-0.09881 1.3393006,0.557224 0.00639,0.06455 0.060342,0.113716 0.1250178,0.113716 h 0.396161 c 0.064423,0 0.1186439,-0.04917 0.1250147,-0.113716 0.065212,-0.655815 0.8312819,-0.974806 1.3391858,-0.557309 0.049782,0.04117 0.1227076,0.03717 0.1684039,-0.008 l 0.2801937,-0.281469 c 0.045639,-0.04618 0.049284,-0.118998 0.0082,-0.169177 -0.4154932,-0.510086 -0.09833,-1.279633 0.5546501,-1.3452534 0.064272,-0.00649 0.1130502,-0.060643 0.1130502,-0.1255753 V 9.3004716 c 0,-0.064954 -0.048976,-0.1191752 -0.1132699,-0.1255902 C 6.0549473,9.1093391 5.7375854,8.3397945 6.15308,7.8295982 6.194084,7.7795832 6.190103,7.7063282 6.14488,7.6604077 L 5.8646745,7.3789318 C 5.8186601,7.3327318 5.7462166,7.3295828 5.6962619,7.3706818 5.1884351,7.788097 4.4224344,7.4692811 4.3572211,6.8134445 4.350995,6.749219 4.2968065,6.7001041 4.2322664,6.7001041 Z"
     id="path1293-6-5"
     style="stroke-width:0.349193;fill-opacity:1;fill:currentColor;"
     class="ColorScheme-Text" />
  <path
     fill-rule="evenodd"
     clip-rule="evenodd"
     d="m 4.0340814,8.799966 c -0.3848306,0 -0.6967959,0.3133961 -0.6967959,0.6999872 0,0.386576 0.3119653,0.6999928 0.6967959,0.6999928 0.3848328,0 0.6968055,-0.3134168 0.6968055,-0.6999928 0,-0.3865911 -0.3119727,-0.6999872 -0.6968055,-0.6999872 z M 2.6404795,9.4999532 c 0,-0.7732021 0.6239191,-1.3999788 1.3936019,-1.3999788 0.7696786,0 1.3936092,0.6267767 1.3936092,1.3999788 0,0.7731458 -0.6239306,1.3999848 -1.3936092,1.3999848 -0.7696828,0 -1.3936019,-0.626839 -1.3936019,-1.3999848 z"
     id="path1295-7-3"
     style="stroke-width:0.349193;fill-opacity:1;fill:currentColor;"
     class="ColorScheme-Text" />
</svg>
