<?xml version="1.0" encoding="UTF-8" standalone="no"?>
<svg
   id="svg4306"
   width="22"
   height="22"
   version="1.1"
   style="enable-background:new"
   sodipodi:docname="keepbelow.svg"
   inkscape:version="1.2.1 (9c6d41e410, 2022-07-14)"
   xmlns:inkscape="http://www.inkscape.org/namespaces/inkscape"
   xmlns:sodipodi="http://sodipodi.sourceforge.net/DTD/sodipodi-0.dtd"
   xmlns:xlink="http://www.w3.org/1999/xlink"
   xmlns="http://www.w3.org/2000/svg"
   xmlns:svg="http://www.w3.org/2000/svg"
   xmlns:rdf="http://www.w3.org/1999/02/22-rdf-syntax-ns#"
   xmlns:cc="http://creativecommons.org/ns#"
   xmlns:dc="http://purl.org/dc/elements/1.1/">
  <metadata
     id="metadata28">
    <rdf:RDF>
      <cc:Work
         rdf:about="">
        <dc:format>image/svg+xml</dc:format>
        <dc:type
           rdf:resource="http://purl.org/dc/dcmitype/StillImage" />
      </cc:Work>
    </rdf:RDF>
  </metadata>
  <defs
     id="defs26">
    <linearGradient
       inkscape:collect="always"
       id="linearGradient4621">
      <stop
         style="stop-color:#d6c2d3;stop-opacity:1;"
         offset="0"
         id="stop4617" />
      <stop
         style="stop-color:#9a6791;stop-opacity:1;"
         offset="1"
         id="stop4619" />
    </linearGradient>
    <linearGradient
       inkscape:collect="always"
       xlink:href="#linearGradient4621"
       id="linearGradient4709"
       gradientUnits="userSpaceOnUse"
       gradientTransform="matrix(0.34615385,0,0,0.34615385,-0.07692305,-0.076838)"
       x1="6"
       y1="31.999754"
       x2="57.999969"
       y2="31.999754" />
    <linearGradient
       inkscape:collect="always"
       xlink:href="#linearGradient4621"
       id="linearGradient4711"
       gradientUnits="userSpaceOnUse"
       gradientTransform="matrix(0.34615385,0,0,0.34615385,-0.07692305,-0.076838)"
       x1="53.741104"
       y1="31.999821"
       x2="10.20201"
       y2="32.000114" />
    <linearGradient
       inkscape:collect="always"
       xlink:href="#linearGradient4621"
       id="linearGradient4746"
       gradientUnits="userSpaceOnUse"
       gradientTransform="matrix(0.34615385,0,0,0.34615385,-0.076917,-0.076838)"
       x1="6"
       y1="31.999754"
       x2="57.999969"
       y2="31.999754" />
    <linearGradient
       inkscape:collect="always"
       xlink:href="#linearGradient4621"
       id="linearGradient4748"
       gradientUnits="userSpaceOnUse"
       gradientTransform="matrix(0.34615385,0,0,0.34615385,-0.076917,-0.076838)"
       x1="53.741104"
       y1="31.999821"
       x2="10.20201"
       y2="32.000114" />
    <radialGradient
       inkscape:collect="always"
       xlink:href="#linearGradient4621"
       id="radialGradient4838"
       cx="55.365181"
       cy="4.6250849"
       fx="55.365181"
       fy="4.6250849"
       r="7.5356374"
       gradientTransform="matrix(1,0,0,0.99998907,-44.374996,6.3750507)"
       gradientUnits="userSpaceOnUse" />
  </defs>
  <sodipodi:namedview
     inkscape:document-rotation="0"
     pagecolor="#000000"
     bordercolor="#ff0b0b"
     borderopacity="1"
     objecttolerance="10"
     gridtolerance="10"
     guidetolerance="10"
     inkscape:pageopacity="0"
     inkscape:pageshadow="2"
     inkscape:window-width="1920"
     inkscape:window-height="1004"
     id="namedview24"
     showgrid="true"
     inkscape:zoom="8.0000004"
     inkscape:cx="-0.81249996"
     inkscape:cy="25.687499"
     inkscape:window-x="0"
     inkscape:window-y="0"
     inkscape:window-maximized="1"
     inkscape:current-layer="svg4306"
     inkscape:snap-bbox="true"
     inkscape:bbox-nodes="true"
     inkscape:lockguides="false"
     inkscape:pagecheckerboard="true"
     showguides="false"
     inkscape:showpageshadow="false"
     inkscape:deskcolor="#000000">
    <inkscape:grid
       type="xygrid"
       id="grid273" />
  </sodipodi:namedview>
  <style
     type="text/css"
     id="current-color-scheme" />
  <g
     id="g987"
     transform="translate(-44,22)" />
  <g
     id="inactive-center"
     transform="translate(-44,22)">
    <rect
       style="opacity:0.00100002;fill:#000000;fill-opacity:1;fill-rule:nonzero;stroke:none;stroke-width:2;stroke-linecap:round;stroke-linejoin:round;stroke-miterlimit:4;stroke-dasharray:none;stroke-opacity:1"
       y="-22"
       x="-22"
       height="22"
       width="22"
       id="rect4266-8"
       transform="scale(-1)" />
    <path
       id="path839-3-36-56"
       style="fill:#2b4254;fill-opacity:1;stroke-width:1.125;enable-background:new"
       d="M 11,2 C 6.02953,2 2,6.029441 2,10.999998 2,15.970557 6.02953,20 11,20 15.97048,20 20,15.970557 20,10.999998 20,6.029441 15.97048,2 11,2 Z m 0,1.125 c 4.34919,0 7.875,3.525746 7.875,7.874998 C 18.875,15.349232 15.34919,18.875 11,18.875 6.6508,18.875 3.125,15.349232 3.125,10.999998 3.125,6.650746 6.6508,3.125 11,3.125 Z m 0,0 z"
       sodipodi:nodetypes="ssssssssssccccc" />
    <rect
       style="fill:#b48ead;fill-opacity:0.6;stroke:none;stroke-width:0.39374;enable-background:new"
       id="center-3-35-5-7-29"
       width="15.749992"
       height="15.749992"
       x="3.124999"
       y="3.1250005"
       ry="7.8749838"
       rx="7.8749962" />
  </g>
  <g
     id="hover-inactive-center"
     transform="translate(-22,22)">
    <rect
       style="opacity:0.00100002;fill:#000000;fill-opacity:1;fill-rule:nonzero;stroke:none;stroke-width:2;stroke-linecap:round;stroke-linejoin:round;stroke-miterlimit:4;stroke-dasharray:none;stroke-opacity:1"
       y="-22"
       x="-22"
       height="22"
       width="22"
       id="rect4266-8-67"
       transform="scale(-1)" />
    <path
       id="path839-3-36-7"
       style="fill:#2b4254;fill-opacity:1;stroke-width:1.125;enable-background:new"
       d="M 11,2 C 6.02953,2 2,6.029441 2,10.999998 2,15.970557 6.02953,20 11,20 15.97048,20 20,15.970557 20,10.999998 20,6.029441 15.97048,2 11,2 Z m 0,1.125 c 4.34919,0 7.875,3.525746 7.875,7.874998 C 18.875,15.349232 15.34919,18.875 11,18.875 6.6508,18.875 3.125,15.349232 3.125,10.999998 3.125,6.650746 6.6508,3.125 11,3.125 Z m 0,0 z"
       sodipodi:nodetypes="ssssssssssccccc" />
    <rect
       style="fill:#b48ead;fill-opacity:0.75;stroke:none;stroke-width:0.39374;enable-background:new"
       id="center-3-35-5-7-0"
       width="15.749992"
       height="15.749992"
       x="3.125"
       y="3.125"
       ry="7.8749838"
       rx="7.8749962" />
    <path
       d="m 11.00612,13.999985 c 0.0128,-1.47e-4 0.02558,-0.0011 0.03833,-0.0023 0.08797,-0.0088 0.169825,-0.04243 0.232388,-0.09571 l 5.105584,-4.331329 c 0.0747,-0.0623 0.116915,-0.1474 0.117234,-0.236349 3.5e-4,-0.08887 -0.04111,-0.17417 -0.115316,-0.237016 C 16.31023,9.03451 16.209611,8.99947 16.104811,9 H 5.895189 C 5.790315,8.999007 5.689529,9.03419 5.615223,9.09696 5.540873,9.15975 5.499302,9.245108 5.499661,9.334136 c 2.53e-4,0.08893 0.04254,0.174097 0.117154,0.236497 l 5.106486,4.331456 c 0.07491,0.06366 0.17701,0.09885 0.282946,0.09764 z"
       fill-rule="evenodd"
       id="path2-3"
       style="fill:#2b4254;fill-opacity:1;stroke-width:0.0206658;enable-background:new" />
  </g>
  <g
     id="pressed-inactive-center"
     transform="translate(-22,22)">
    <rect
       style="opacity:0.00100002;fill:#000000;fill-opacity:1;fill-rule:nonzero;stroke:none;stroke-width:2;stroke-linecap:round;stroke-linejoin:round;stroke-miterlimit:4;stroke-dasharray:none;stroke-opacity:1"
       y="0"
       x="22"
       height="22"
       width="22"
       id="rect4266-3-6-5" />
    <path
       id="path839-3-36-3"
       style="fill:#2b4254;fill-opacity:1;stroke-width:1.125;enable-background:new"
       d="M 33,2 C 28.02953,2 24,6.029441 24,10.999998 24,15.970557 28.02953,20 33,20 37.970479,20 41.999999,15.970557 41.999999,10.999998 41.999999,6.029441 37.97048,2 33,2 Z m 0,1.125 c 4.34919,0 7.874999,3.525746 7.874999,7.874998 0,4.349234 -3.525809,7.875002 -7.874999,7.875002 -4.3492,0 -7.875,-3.525768 -7.875,-7.875002 C 25.125,6.650746 28.6508,3.125 33,3.125 Z m 0,0 z"
       sodipodi:nodetypes="ssssssssssccccc" />
    <rect
       style="fill:#b48ead;fill-opacity:1;stroke:none;stroke-width:0.39374;enable-background:new"
       id="center-3-35-5-7-67"
       width="15.749992"
       height="15.749992"
       x="25.125"
       y="3.125"
       ry="7.8749838"
       rx="7.8749962" />
    <path
       d="m 33.00612,13.999989 c 0.0128,-1.46e-4 0.02558,-0.0011 0.03833,-0.0023 0.08797,-0.0088 0.169825,-0.04243 0.232388,-0.09571 l 5.105584,-4.331334 c 0.0747,-0.0623 0.116915,-0.1474 0.117234,-0.236349 3.5e-4,-0.08887 -0.04111,-0.17417 -0.115316,-0.237016 C 38.31023,9.03451 38.209611,8.99947 38.104811,9 H 27.895189 c -0.104874,-9.93e-4 -0.20566,0.03419 -0.279966,0.09696 -0.07435,0.06279 -0.115921,0.148148 -0.115562,0.237176 2.53e-4,0.08893 0.04254,0.174097 0.117154,0.236497 l 5.106486,4.331461 c 0.07491,0.06366 0.17701,0.09885 0.282946,0.09764 z"
       fill-rule="evenodd"
       id="path2-5-6"
       style="fill:#fefefe;fill-opacity:1;stroke-width:0.0206658;enable-background:new" />
  </g>
  <g
     id="active-center"
     transform="translate(-44)">
    <rect
       id="rect4266"
       width="22"
       height="22"
       x="0"
       y="0"
       style="opacity:0.00100002;fill:#000000;fill-opacity:1;fill-rule:nonzero;stroke:none;stroke-width:2;stroke-linecap:round;stroke-linejoin:round;stroke-miterlimit:4;stroke-dasharray:none;stroke-opacity:1" />
    <path
       d="m 19.999818,10.999909 c 0,1.078918 -0.18991,2.113341 -0.53818,3.072157 -0.24208,0.666352 -0.56056,1.296375 -0.94556,1.87908 -0.16125,0.244999 -0.33464,0.481607 -0.51869,0.708986 -0.58922,0.727707 -1.28946,1.361346 -2.07547,1.875678 -0.28948,0.189552 -0.59034,0.362947 -0.90183,0.518312 C 13.810458,19.659482 12.445028,20 10.999888,20 9.554749,20 8.189317,19.659482 6.979686,19.054099 6.668172,18.8987 6.366942,18.725317 6.077474,18.535787 5.281428,18.014516 4.572806,17.370831 3.978875,16.631082 3.794479,16.401855 3.62144,16.163081 3.460177,15.915871 3.085469,15.342826 2.775083,14.724494 2.537792,14.071034 2.189575,13.112604 2,12.078566 2,11.000011 2,6.029385 6.029387,2 11.000018,2 c 2.49511,0 4.7528,1.01534 6.38311,2.655113 0.46982,0.472378 0.88751,0.996994 1.24297,1.564085 0.33612,0.53413 0.61712,1.106437 0.83569,1.708543 0.34831,0.958782 0.5382,1.993262 0.5382,3.072157 z"
       stroke-width="0.0351571"
       id="path273-8"
       style="fill:url(#linearGradient4709);fill-opacity:1;enable-background:new" />
    <path
       d="m 18.525768,11.000023 c 0,0.903368 -0.15902,1.769432 -0.45061,2.572225 -0.20271,0.55793 -0.46935,1.085404 -0.79171,1.57327 -0.13501,0.205132 -0.28019,0.403245 -0.43429,0.593625 -0.49334,0.609306 -1.07961,1.139898 -1.7378,1.570548 -0.24237,0.158711 -0.49429,0.303894 -0.75509,0.433973 -1.01279,0.50686 -2.15609,0.791976 -3.36617,0.791976 -1.20998,0 -2.35328,-0.285116 -3.366181,-0.791987 C 7.36309,17.61354 7.110875,17.468368 6.868508,17.30968 6.201986,16.873235 5.608647,16.334309 5.111435,15.714866 4.957043,15.522944 4.812168,15.323006 4.677133,15.116026 4.36341,14.636221 4.103522,14.118533 3.904829,13.571443 3.613285,12.768956 3.454542,11.903153 3.454542,11.000125 c 0,-4.161824 3.373771,-7.535595 7.535596,-7.535595 2.08907,0 3.97938,0.850133 5.34458,2.223101 0.39338,0.395523 0.74312,0.834758 1.04076,1.309642 0.28144,0.447216 0.51672,0.926409 0.69973,1.430512 0.29162,0.802771 0.45061,1.668858 0.45061,2.572226 z"
       stroke-width="0.0294357"
       id="path275-9"
       style="fill:url(#linearGradient4711);fill-opacity:1;enable-background:new" />
  </g>
  <g
     id="hover-center">
    <g
       id="nover-center"
       transform="translate(-22)">
      <rect
         style="opacity:0.00100002;fill:#000000;fill-opacity:1;fill-rule:nonzero;stroke:none;stroke-width:2;stroke-linecap:round;stroke-linejoin:round;stroke-miterlimit:4;stroke-dasharray:none;stroke-opacity:1"
         y="0"
         x="0"
         height="22"
         width="22"
         id="rect4266-8-6" />
      <path
         d="m 19.999824,10.999909 c 0,1.078918 -0.18991,2.113341 -0.53818,3.072157 -0.24208,0.666352 -0.56056,1.296375 -0.94556,1.87908 -0.16125,0.244999 -0.33464,0.481607 -0.51869,0.708986 -0.58922,0.727707 -1.28946,1.361346 -2.07547,1.875678 -0.28948,0.189552 -0.59034,0.362947 -0.90183,0.518312 C 13.810464,19.659482 12.445034,20 10.999894,20 9.554755,20 8.189323,19.659482 6.979692,19.054099 6.668178,18.8987 6.366948,18.725317 6.07748,18.535787 5.281434,18.014516 4.572812,17.370831 3.978881,16.631082 3.794485,16.401855 3.621446,16.163081 3.460183,15.915871 3.085475,15.342826 2.775089,14.724494 2.537798,14.071034 2.189581,13.112604 2.000006,12.078566 2.000006,11.000011 2.000006,6.029385 6.029393,2 11.000024,2 c 2.49511,0 4.7528,1.01534 6.38311,2.655113 0.46982,0.472378 0.88751,0.996994 1.24297,1.564085 0.33612,0.53413 0.61712,1.106437 0.83569,1.708543 0.34831,0.958782 0.5382,1.993262 0.5382,3.072157 z"
         stroke-width="0.0351571"
         id="path273-6"
         style="fill:url(#linearGradient4746);fill-opacity:1;enable-background:new" />
      <path
         d="m 18.525774,11.000023 c 0,0.903368 -0.15902,1.769432 -0.45061,2.572225 -0.20271,0.55793 -0.46935,1.085404 -0.79171,1.57327 -0.13501,0.205132 -0.28019,0.403245 -0.43429,0.593625 -0.49334,0.609306 -1.07961,1.139898 -1.7378,1.570548 -0.24237,0.158711 -0.49429,0.303894 -0.75509,0.433973 -1.01279,0.50686 -2.15609,0.791976 -3.36617,0.791976 -1.20998,0 -2.35328,-0.285116 -3.366181,-0.791987 C 7.363096,17.61354 7.110881,17.468368 6.868514,17.30968 6.201992,16.873235 5.608653,16.334309 5.111441,15.714866 4.957049,15.522944 4.812174,15.323006 4.677139,15.116026 4.363416,14.636221 4.103528,14.118533 3.904835,13.571443 3.613291,12.768956 3.454548,11.903153 3.454548,11.000125 c 0,-4.161824 3.373771,-7.535595 7.535596,-7.535595 2.08907,0 3.97938,0.850133 5.34458,2.223101 0.39338,0.395523 0.74312,0.834758 1.04076,1.309642 0.28144,0.447216 0.51672,0.926409 0.69973,1.430512 0.29162,0.802771 0.45061,1.668858 0.45061,2.572226 z"
         stroke-width="0.0294357"
         id="path275-1"
         style="fill:url(#linearGradient4748);fill-opacity:1;enable-background:new" />
      <path
         d="m 11.006462,14.000007 c 0.0128,-1.44e-4 0.02558,-0.0011 0.03833,-0.0023 0.08797,-0.0088 0.169825,-0.04243 0.232388,-0.09571 l 5.105584,-4.331329 c 0.0747,-0.0623 0.116915,-0.147401 0.117234,-0.23635 3.5e-4,-0.08887 -0.04111,-0.17417 -0.115316,-0.237016 -0.07411,-0.06277 -0.174729,-0.09781 -0.279529,-0.09728 H 5.8955306 c -0.104874,-9.93e-4 -0.20566,0.03419 -0.279966,0.09696 -0.07435,0.06279 -0.115921,0.148148 -0.115562,0.237176 2.53e-4,0.08893 0.04254,0.174097 0.117154,0.236497 l 5.1064864,4.331456 c 0.07491,0.06366 0.17701,0.09885 0.282946,0.09764 z"
         fill-rule="evenodd"
         id="path2-2"
         style="fill:#2b4254;fill-opacity:1;stroke-width:0.0206658;enable-background:new" />
    </g>
  </g>
  <g
     id="pressed-center">
    <rect
       id="rect4266-3-6"
       width="22"
       height="22"
       x="0"
       y="0"
       style="opacity:0.00100002;fill:#000000;fill-opacity:1;fill-rule:nonzero;stroke:none;stroke-width:2;stroke-linecap:round;stroke-linejoin:round;stroke-miterlimit:4;stroke-dasharray:none;stroke-opacity:1" />
    <path
       d="m 19.999824,10.999909 c 0,1.078918 -0.18991,2.113341 -0.53818,3.072157 -0.24208,0.666352 -0.56056,1.296375 -0.94556,1.87908 -0.16125,0.244999 -0.33464,0.481607 -0.51869,0.708986 -0.58922,0.727707 -1.28946,1.361346 -2.07547,1.875678 -0.28948,0.189552 -0.59034,0.362947 -0.90183,0.518312 C 13.810464,19.659482 12.445034,20 10.999895,20 9.5547555,20 8.1893235,19.659482 6.9796925,19.054099 6.6681785,18.8987 6.3669485,18.725317 6.0774805,18.535787 c -0.796046,-0.521271 -1.504668,-1.164956 -2.098599,-1.904705 -0.184396,-0.229227 -0.357435,-0.468001 -0.518698,-0.715211 -0.374708,-0.573045 -0.685094,-1.191377 -0.922385,-1.844837 -0.348217,-0.95843 -0.537792,-1.992468 -0.537792,-3.071023 0,-4.9706261 4.029387,-9.0000111 9.0000185,-9.0000111 2.495109,0 4.752799,1.01534 6.383109,2.655113 0.46982,0.472378 0.88751,0.996994 1.24297,1.564085 0.33612,0.53413 0.61712,1.106437 0.83569,1.708543 0.34831,0.958782 0.5382,1.993262 0.5382,3.0721571 z"
       stroke-width="0.0351571"
       id="path273"
       style="fill:#c2a3bd;fill-opacity:1;enable-background:new" />
    <path
       d="m 18.525774,11.000023 c 0,0.903368 -0.15902,1.769432 -0.45061,2.572225 -0.20271,0.55793 -0.46935,1.085404 -0.79171,1.57327 -0.13501,0.205132 -0.28019,0.403245 -0.43429,0.593625 -0.49334,0.609306 -1.07961,1.139898 -1.7378,1.570548 -0.24237,0.158711 -0.49429,0.303894 -0.75509,0.433973 -1.01279,0.50686 -2.15609,0.791976 -3.366169,0.791976 -1.2099805,0 -2.3532805,-0.285116 -3.3661815,-0.791987 -0.260827,-0.130113 -0.513042,-0.275285 -0.755409,-0.433973 -0.666522,-0.436445 -1.259861,-0.975371 -1.757073,-1.594814 -0.154392,-0.191922 -0.299267,-0.39186 -0.434302,-0.59884 -0.313723,-0.479805 -0.573611,-0.997493 -0.772304,-1.544583 -0.291544,-0.802487 -0.450287,-1.66829 -0.450287,-2.571318 0,-4.1618241 3.373771,-7.5355951 7.5355965,-7.5355951 2.089069,0 3.979379,0.850133 5.344579,2.223101 0.39338,0.395523 0.743119,0.834758 1.04076,1.309642 0.28144,0.447216 0.516719,0.926409 0.69973,1.430512 0.29162,0.802771 0.45061,1.6688581 0.45061,2.5722261 z"
       stroke-width="0.0294357"
       id="path275"
       style="fill:url(#radialGradient4838);fill-opacity:1;enable-background:new" />
    <path
       d="m 11.006462,14.000009 c 0.0128,-1.46e-4 0.02558,-0.0011 0.03833,-0.0023 0.08797,-0.0088 0.169825,-0.04243 0.232388,-0.09571 l 5.105584,-4.331334 c 0.0747,-0.0623 0.116915,-0.1474 0.117234,-0.236349 3.5e-4,-0.08887 -0.04111,-0.17417 -0.115316,-0.237016 C 16.310572,9.03453 16.209953,8.99949 16.105153,9.00002 H 5.8955303 c -0.104874,-9.93e-4 -0.20566,0.03419 -0.279966,0.09696 -0.07435,0.06279 -0.115921,0.148148 -0.115562,0.237176 2.53e-4,0.08893 0.04254,0.174097 0.117154,0.236497 l 5.1064867,4.331461 c 0.07491,0.06366 0.17701,0.09885 0.282946,0.09764 z"
       fill-rule="evenodd"
       id="path2-5-9"
       style="fill:#fefefe;fill-opacity:1;stroke-width:0.0206658;enable-background:new" />
  </g>
</svg>
