<?xml version="1.0" encoding="UTF-8" standalone="no"?>
<svg
   id="svg4306"
   width="22"
   height="22"
   version="1.1"
   style="enable-background:new"
   sodipodi:docname="maximize.svg"
   inkscape:version="1.3.2 (091e20ef0f, 2023-11-25)"
   xmlns:inkscape="http://www.inkscape.org/namespaces/inkscape"
   xmlns:sodipodi="http://sodipodi.sourceforge.net/DTD/sodipodi-0.dtd"
   xmlns:xlink="http://www.w3.org/1999/xlink"
   xmlns="http://www.w3.org/2000/svg"
   xmlns:svg="http://www.w3.org/2000/svg"
   xmlns:rdf="http://www.w3.org/1999/02/22-rdf-syntax-ns#"
   xmlns:cc="http://creativecommons.org/ns#"
   xmlns:dc="http://purl.org/dc/elements/1.1/">
  <g
     id="active-center"
     transform="translate(-44)">
    <rect
       id="rect4266"
       width="22"
       height="22"
       x="0"
       y="0"
       style="opacity:0.00100002;fill:#000000;fill-opacity:1;fill-rule:nonzero;stroke:none;stroke-width:2;stroke-linecap:round;stroke-linejoin:round;stroke-miterlimit:4;stroke-dasharray:none;stroke-opacity:1" />
    <path
       d="m 19.999824,10.999909 c 0,1.078918 -0.189907,2.113341 -0.538179,3.072157 -0.242083,0.666352 -0.560558,1.296375 -0.945561,1.87908 -0.161255,0.244999 -0.334641,0.481607 -0.518694,0.708986 -0.589216,0.727707 -1.289458,1.361346 -2.075466,1.875678 -0.289478,0.189552 -0.590341,0.362947 -0.901829,0.518312 C 13.81046,19.659482 12.445032,20 10.999892,20 9.554755,20 8.189323,19.659482 6.979692,19.054099 6.668178,18.8987 6.366948,18.725317 6.07748,18.535787 5.281434,18.014516 4.572812,17.370831 3.978881,16.631082 3.794485,16.401855 3.621446,16.163081 3.460183,15.915871 3.085475,15.342826 2.775089,14.724494 2.537798,14.071034 2.189581,13.112604 2.000006,12.078566 2.000006,11.000011 2.000006,6.029385 6.029393,2 11.00002,2 c 2.495118,0 4.752805,1.01534 6.38311,2.655113 0.469827,0.472378 0.887517,0.996994 1.242969,1.564085 0.336126,0.53413 0.617126,1.106437 0.835695,1.708543 0.348307,0.958782 0.5382,1.993262 0.5382,3.072157 z"
       stroke-width="0.0351571"
       id="path273"
       style="fill:url(#linearGradient1498);fill-opacity:1;enable-background:new" />
    <path
       d="m 18.525773,11.000023 c 0,0.903368 -0.15902,1.769432 -0.450609,2.572225 -0.202708,0.55793 -0.46935,1.085404 -0.791706,1.57327 -0.135017,0.205132 -0.280198,0.403245 -0.434298,0.593625 -0.493332,0.609306 -1.079609,1.139898 -1.7378,1.570548 -0.242368,0.158711 -0.494282,0.303894 -0.755088,0.433973 -1.012791,0.50686 -2.156088,0.791976 -3.366173,0.791976 -1.209974,0 -2.353275,-0.285116 -3.366176,-0.791987 C 7.363096,17.61354 7.110881,17.468368 6.868514,17.30968 6.201992,16.873235 5.608653,16.334309 5.111441,15.714866 4.957049,15.522944 4.812174,15.323006 4.677139,15.116026 4.363416,14.636221 4.103528,14.118533 3.904835,13.571443 3.613291,12.768956 3.454548,11.903153 3.454548,11.000125 c 0,-4.161824 3.373771,-7.535595 7.535596,-7.535595 2.089073,0 3.979378,0.850133 5.344583,2.223101 0.393379,0.395523 0.743116,0.834758 1.04076,1.309642 0.28144,0.447216 0.516714,0.926409 0.699722,1.430512 0.291624,0.802771 0.450619,1.668858 0.450619,2.572226 z"
       stroke-width="0.0294357"
       id="path275"
       style="fill:url(#linearGradient1506);fill-opacity:1;enable-background:new" />
  </g>
  <metadata
     id="metadata28">
    <rdf:RDF>
      <cc:Work
         rdf:about="">
        <dc:format>image/svg+xml</dc:format>
        <dc:type
           rdf:resource="http://purl.org/dc/dcmitype/StillImage" />
      </cc:Work>
    </rdf:RDF>
  </metadata>
  <defs
     id="defs26">
    <linearGradient
       inkscape:collect="always"
       id="linearGradient973">
      <stop
         style="stop-color:#c7d9bf;stop-opacity:1;"
         offset="0"
         id="stop969" />
      <stop
         style="stop-color:#6c9254;stop-opacity:1;"
         offset="1"
         id="stop971" />
    </linearGradient>
    <linearGradient
       inkscape:collect="always"
       id="linearGradient967">
      <stop
         style="stop-color:#c7d9bf;stop-opacity:1;"
         offset="0"
         id="stop963" />
      <stop
         style="stop-color:#6c9254;stop-opacity:1;"
         offset="1"
         id="stop965" />
    </linearGradient>
    <linearGradient
       inkscape:collect="always"
       id="linearGradient3041">
      <stop
         style="stop-color:#96b57d;stop-opacity:1;"
         offset="0"
         id="stop3037" />
      <stop
         style="stop-color:#96b57d;stop-opacity:1;"
         offset="1"
         id="stop3039" />
    </linearGradient>
    <linearGradient
       inkscape:collect="always"
       id="linearGradient6025">
      <stop
         style="stop-color:#b2c89d;stop-opacity:1;"
         offset="0"
         id="stop6021" />
      <stop
         style="stop-color:#96b57d;stop-opacity:1;"
         offset="1"
         id="stop6023" />
    </linearGradient>
    <linearGradient
       inkscape:collect="always"
       id="linearGradient2231">
      <stop
         style="stop-color:#e5edde;stop-opacity:1;"
         offset="0"
         id="stop2227" />
      <stop
         style="stop-color:#6c9254;stop-opacity:1;"
         offset="1"
         id="stop2229" />
    </linearGradient>
    <linearGradient
       inkscape:collect="always"
       xlink:href="#linearGradient6025"
       id="linearGradient1498"
       x1="6"
       y1="31.999754"
       x2="57.999969"
       y2="31.999754"
       gradientUnits="userSpaceOnUse"
       gradientTransform="matrix(0.34615385,0,0,0.34615385,-0.076917,-0.076838)" />
    <linearGradient
       inkscape:collect="always"
       xlink:href="#linearGradient967"
       id="linearGradient1506"
       x1="53.741104"
       y1="31.999821"
       x2="10.20201"
       y2="32.000114"
       gradientUnits="userSpaceOnUse"
       gradientTransform="matrix(0.34615385,0,0,0.34615385,-0.076917,-0.076838)" />
    <linearGradient
       inkscape:collect="always"
       xlink:href="#linearGradient6025"
       id="linearGradient2531"
       gradientUnits="userSpaceOnUse"
       gradientTransform="matrix(0.34615385,0,0,0.34615385,-0.076917,-0.076923)"
       x1="6"
       y1="31.999754"
       x2="57.999969"
       y2="31.999754" />
    <linearGradient
       inkscape:collect="always"
       xlink:href="#linearGradient973"
       id="linearGradient2533"
       gradientUnits="userSpaceOnUse"
       gradientTransform="matrix(0.34615385,0,0,0.34615385,-0.076917,-0.076923)"
       x1="53.741104"
       y1="31.999821"
       x2="10.20201"
       y2="32.000114" />
    <linearGradient
       inkscape:collect="always"
       xlink:href="#linearGradient3041"
       id="linearGradient2568"
       gradientUnits="userSpaceOnUse"
       gradientTransform="matrix(0.34615385,0,0,0.34615385,-0.0769175,-0.076838)"
       x1="6"
       y1="31.999754"
       x2="57.999969"
       y2="31.999754" />
    <radialGradient
       inkscape:collect="always"
       xlink:href="#linearGradient2231"
       id="radialGradient2996"
       cx="10.990187"
       cy="11.000085"
       fx="10.990187"
       fy="11.000085"
       r="7.5356398"
       gradientTransform="matrix(1,0,0,0.99998875,0,1.2371308e-4)"
       gradientUnits="userSpaceOnUse" />
  </defs>
  <sodipodi:namedview
     inkscape:document-rotation="0"
     pagecolor="#000000"
     bordercolor="#ff0000"
     borderopacity="1"
     objecttolerance="10"
     gridtolerance="10"
     guidetolerance="10"
     inkscape:pageopacity="0"
     inkscape:pageshadow="2"
     inkscape:window-width="1920"
     inkscape:window-height="994"
     id="namedview24"
     showgrid="true"
     inkscape:zoom="8.0000004"
     inkscape:cx="-19.624999"
     inkscape:cy="28.437499"
     inkscape:window-x="0"
     inkscape:window-y="0"
     inkscape:window-maximized="1"
     inkscape:current-layer="svg4306"
     inkscape:snap-bbox="true"
     inkscape:bbox-nodes="true"
     inkscape:lockguides="true"
     inkscape:pagecheckerboard="true"
     inkscape:showpageshadow="false"
     inkscape:deskcolor="#000000">
    <inkscape:grid
       type="xygrid"
       id="grid234"
       originx="0"
       originy="0"
       spacingy="1"
       spacingx="1"
       units="px"
       visible="true" />
  </sodipodi:namedview>
  <style
     type="text/css"
     id="current-color-scheme" />
  <g
     id="inactive-center"
     transform="translate(-44,22)">
    <rect
       style="opacity:0.00100002;fill:#000000;fill-opacity:1;fill-rule:nonzero;stroke:none;stroke-width:2;stroke-linecap:round;stroke-linejoin:round;stroke-miterlimit:4;stroke-dasharray:none;stroke-opacity:1"
       y="0"
       x="0"
       height="22"
       width="22"
       id="rect4266-9" />
    <path
       id="path839-3-5"
       style="fill:#2b4254;fill-opacity:1;stroke-width:1.125;enable-background:new"
       d="M 11.000001,2 C 6.02953,2 2,6.029441 2,10.999998 2,15.970557 6.02953,20 11.000001,20 c 4.97048,0 9,-4.029443 9,-9.000002 0,-4.970557 -4.02952,-8.999998 -9,-8.999998 z m 0,1.125 c 4.34919,0 7.875,3.525746 7.875,7.874998 0,4.349234 -3.52581,7.875002 -7.875,7.875002 C 6.6508,18.875 3.125,15.349232 3.125,10.999998 3.125,6.650746 6.6508,3.125 11.000001,3.125 Z m 0,0 z"
       sodipodi:nodetypes="ssssssssssccccc" />
    <rect
       style="fill:#a3be8c;fill-opacity:0.6;stroke:none;stroke-width:0.39374;enable-background:new"
       id="center-3-35-5-6"
       width="15.749992"
       height="15.749992"
       x="3.124999"
       y="3.1250017"
       ry="7.8749838"
       rx="7.8749962" />
  </g>
  <g
     id="pressed-inactive-center"
     transform="translate(0,22)">
    <rect
       style="opacity:0.00100002;fill:#000000;fill-opacity:1;fill-rule:nonzero;stroke:none;stroke-width:2;stroke-linecap:round;stroke-linejoin:round;stroke-miterlimit:4;stroke-dasharray:none;stroke-opacity:1"
       y="0"
       x="0"
       height="22"
       width="22"
       id="rect4266-3-6-5" />
    <path
       id="path839-3-9"
       style="fill:#2b4254;fill-opacity:1;stroke-width:1.125;enable-background:new"
       d="M 11.000001,2 C 6.02953,2 2,6.029441 2,10.999998 2,15.970557 6.02953,20 11.000001,20 c 4.97048,0 9,-4.029443 9,-9.000002 0,-4.970557 -4.02952,-8.999998 -9,-8.999998 z m 0,1.125 c 4.34919,0 7.875,3.525746 7.875,7.874998 0,4.349234 -3.52581,7.875002 -7.875,7.875002 C 6.6508,18.875 3.125,15.349232 3.125,10.999998 3.125,6.650746 6.6508,3.125 11.000001,3.125 Z m 0,0 z"
       sodipodi:nodetypes="ssssssssssccccc" />
    <rect
       style="fill:#a3be8c;fill-opacity:1;stroke:none;stroke-width:0.39374;enable-background:new"
       id="center-3-35-5-1"
       width="15.749992"
       height="15.749992"
       x="3.1250041"
       y="3.1249998"
       ry="7.8749838"
       rx="7.8749962" />
    <rect
       style="display:inline;fill:#ffffff;fill-opacity:1;stroke:none;stroke-width:2.23606;stroke-linecap:round;stroke-linejoin:round;stroke-miterlimit:4;stroke-dasharray:none;stroke-opacity:1;enable-background:new"
       width="10"
       height="2"
       x="6"
       y="10"
       ry="1"
       id="path4186-7-3-3-5-3"
       inkscape:label="path18" />
    <rect
       style="display:inline;fill:#ffffff;fill-opacity:1;stroke:none;stroke-width:2.23606;stroke-linecap:round;stroke-linejoin:round;stroke-miterlimit:4;stroke-dasharray:none;stroke-opacity:1;enable-background:new"
       width="10"
       height="2"
       x="6"
       y="-12"
       ry="1"
       id="path4186-7-3-3-3-3-6"
       inkscape:label="path18"
       transform="rotate(90)" />
  </g>
  <g
     id="hover-inactive-center"
     transform="translate(-22,22)">
    <rect
       id="rect4266-3-67"
       width="22"
       height="22"
       x="0"
       y="0"
       style="opacity:0.00100002;fill:#000000;fill-opacity:1;fill-rule:nonzero;stroke:none;stroke-width:2;stroke-linecap:round;stroke-linejoin:round;stroke-miterlimit:4;stroke-dasharray:none;stroke-opacity:1" />
    <path
       id="path839-3-36"
       style="fill:#2b4254;fill-opacity:1;stroke-width:1.125;enable-background:new"
       d="M 11.000001,2 C 6.02953,2 2,6.029441 2,10.999998 2,15.970557 6.02953,20 11.000001,20 15.97048,20 20,15.970557 20,10.999998 20,6.029441 15.970481,2 11.000001,2 Z m 0,1.125 c 4.34919,0 7.874999,3.525746 7.874999,7.874998 0,4.349234 -3.525809,7.875002 -7.874999,7.875002 C 6.6508,18.875 3.125,15.349232 3.125,10.999998 3.125,6.650746 6.6508,3.125 11.000001,3.125 Z m 0,0 z"
       sodipodi:nodetypes="ssssssssssccccc" />
    <rect
       style="fill:#a3be8c;fill-opacity:0.7;stroke:none;stroke-width:0.39374;enable-background:new"
       id="center-3-35-5-75"
       width="15.749992"
       height="15.749992"
       x="3.1250002"
       y="3.125"
       ry="7.8749838"
       rx="7.8749962" />
    <rect
       style="display:inline;fill:#2b4254;fill-opacity:1;stroke:none;stroke-width:2.23606;stroke-linecap:round;stroke-linejoin:round;stroke-miterlimit:4;stroke-dasharray:none;stroke-opacity:1;enable-background:new"
       width="10"
       height="2"
       x="6"
       y="10"
       ry="1"
       id="path4186-7-3-3-5-3-7"
       inkscape:label="path18" />
    <rect
       style="display:inline;fill:#2b4254;fill-opacity:1;stroke:none;stroke-width:2.23606;stroke-linecap:round;stroke-linejoin:round;stroke-miterlimit:4;stroke-dasharray:none;stroke-opacity:1;enable-background:new"
       width="10"
       height="2"
       x="6"
       y="-12"
       ry="1"
       id="path4186-7-3-3-3-3-6-5"
       inkscape:label="path18"
       transform="rotate(90)" />
  </g>
  <g
     id="hover-center"
     transform="translate(-22)">
    <rect
       style="opacity:0.00100002;fill:#000000;fill-opacity:1;fill-rule:nonzero;stroke:none;stroke-width:2;stroke-linecap:round;stroke-linejoin:round;stroke-miterlimit:4;stroke-dasharray:none;stroke-opacity:1"
       y="0"
       x="0"
       height="22"
       width="22"
       id="rect4266-3" />
    <path
       d="m 19.999824,10.999824 c 0,1.078918 -0.189907,2.113341 -0.538179,3.072157 -0.242083,0.666352 -0.560558,1.296375 -0.945561,1.87908 -0.161255,0.244999 -0.334641,0.481607 -0.518694,0.708986 -0.589216,0.727707 -1.289458,1.361346 -2.075466,1.875678 -0.289478,0.189552 -0.590341,0.362947 -0.901829,0.518312 -1.209635,0.60536 -2.575063,0.945878 -4.020203,0.945878 -1.445137,0 -2.810569,-0.340518 -4.0202,-0.945901 C 6.668178,18.898615 6.366948,18.725232 6.07748,18.535702 5.281434,18.014431 4.572812,17.370746 3.978881,16.630997 3.794485,16.40177 3.621446,16.162996 3.460183,15.915786 3.085475,15.342741 2.775089,14.724409 2.537798,14.070949 2.189581,13.112519 2.000006,12.078481 2.000006,10.999926 c 0,-4.970626 4.029387,-9.000011 9.000014,-9.000011 2.495118,0 4.752805,1.01534 6.38311,2.655113 0.469827,0.472378 0.887517,0.996994 1.242969,1.564085 0.336126,0.53413 0.617126,1.106437 0.835695,1.708543 0.348307,0.958782 0.5382,1.993262 0.5382,3.072157 z"
       stroke-width="0.0351571"
       id="path273-1"
       style="fill:url(#linearGradient2531);fill-opacity:1;enable-background:new" />
    <path
       d="m 18.525773,10.999938 c 0,0.903368 -0.15902,1.769432 -0.450609,2.572225 -0.202708,0.55793 -0.46935,1.085404 -0.791706,1.57327 -0.135017,0.205132 -0.280198,0.403245 -0.434298,0.593625 -0.493332,0.609306 -1.079609,1.139898 -1.7378,1.570548 -0.242368,0.158711 -0.494282,0.303894 -0.755088,0.433973 -1.012791,0.50686 -2.156088,0.791976 -3.366173,0.791976 -1.209974,0 -2.353275,-0.285116 -3.366176,-0.791987 C 7.363096,17.613455 7.110881,17.468283 6.868514,17.309595 6.201992,16.87315 5.608653,16.334224 5.111441,15.714781 4.957049,15.522859 4.812174,15.322921 4.677139,15.115941 4.363416,14.636136 4.103528,14.118448 3.904835,13.571358 3.613291,12.768871 3.454548,11.903068 3.454548,11.00004 c 0,-4.161824 3.373771,-7.535595 7.535596,-7.535595 2.089073,0 3.979378,0.850133 5.344583,2.223101 0.393379,0.395523 0.743116,0.834758 1.04076,1.309642 0.28144,0.447216 0.516714,0.926409 0.699722,1.430512 0.291624,0.802771 0.450619,1.668858 0.450619,2.572226 z"
       stroke-width="0.0294357"
       id="path275-2"
       style="fill:url(#linearGradient2533);fill-opacity:1;enable-background:new" />
    <rect
       style="display:inline;fill:#2b4254;fill-opacity:1;stroke:none;stroke-width:2.23606;stroke-linecap:round;stroke-linejoin:round;stroke-miterlimit:4;stroke-dasharray:none;stroke-opacity:1;enable-background:new"
       width="10"
       height="2"
       x="6"
       y="10"
       ry="1"
       id="path4186-7-3-3-8"
       inkscape:label="path18" />
    <rect
       style="display:inline;fill:#2b4254;fill-opacity:1;stroke:none;stroke-width:2.23606;stroke-linecap:round;stroke-linejoin:round;stroke-miterlimit:4;stroke-dasharray:none;stroke-opacity:1;enable-background:new"
       width="10"
       height="2"
       x="6.000001"
       y="-12"
       ry="1"
       id="path4186-7-3-3-3-4"
       inkscape:label="path18"
       transform="rotate(90)" />
  </g>
  <g
     id="pressed-center">
    <rect
       id="rect4266-3-6"
       width="22"
       height="22"
       x="0"
       y="0"
       style="opacity:0.00100002;fill:#000000;fill-opacity:1;fill-rule:nonzero;stroke:none;stroke-width:2;stroke-linecap:round;stroke-linejoin:round;stroke-miterlimit:4;stroke-dasharray:none;stroke-opacity:1" />
    <path
       d="m 19.999825,10.999909 c 0,1.078918 -0.18991,2.113341 -0.53818,3.072157 -0.24208,0.666352 -0.560558,1.296375 -0.945561,1.87908 -0.161255,0.244999 -0.334641,0.481607 -0.518694,0.708986 -0.589216,0.727707 -1.289458,1.361346 -2.075466,1.875678 -0.289478,0.189552 -0.590341,0.362947 -0.901829,0.518312 C 13.81046,19.659482 12.445032,20 10.999892,20 9.5547545,20 8.1893225,19.659482 6.9796915,19.054099 6.6681775,18.8987 6.3669475,18.725317 6.0774795,18.535787 5.2814335,18.014516 4.5728115,17.370831 3.9788805,16.631082 3.7944845,16.401855 3.6214455,16.163081 3.4601825,15.915871 3.0854745,15.342826 2.7750885,14.724494 2.5377975,14.071034 2.1895805,13.112604 2.0000055,12.078566 2.0000055,11.000011 2.0000055,6.029385 6.0293925,2 11.00002,2 c 2.495117,0 4.752805,1.01534 6.38311,2.655113 0.469827,0.472378 0.887517,0.996994 1.242969,1.564085 0.336126,0.53413 0.617126,1.106437 0.835696,1.708543 0.34831,0.958782 0.5382,1.993262 0.5382,3.072157 z"
       stroke-width="0.0351571"
       id="path273-4"
       style="fill:url(#linearGradient2568);fill-opacity:1;enable-background:new" />
    <path
       d="m 18.525773,11.000023 c 0,0.903368 -0.15902,1.769432 -0.450609,2.572225 -0.202709,0.55793 -0.46935,1.085404 -0.791706,1.57327 -0.135017,0.205132 -0.280198,0.403245 -0.434298,0.593625 -0.493332,0.609306 -1.079609,1.139898 -1.7378,1.570548 -0.242368,0.158711 -0.494282,0.303894 -0.755088,0.433973 -1.012791,0.50686 -2.156088,0.791976 -3.366173,0.791976 -1.2099745,0 -2.3532755,-0.285116 -3.3661765,-0.791987 -0.260827,-0.130113 -0.513042,-0.275285 -0.755409,-0.433973 -0.666522,-0.436445 -1.259861,-0.975371 -1.757073,-1.594814 -0.154392,-0.191922 -0.299267,-0.39186 -0.434302,-0.59884 -0.313723,-0.479805 -0.573611,-0.997493 -0.772304,-1.544583 -0.291544,-0.802487 -0.450287,-1.66829 -0.450287,-2.571318 0,-4.161824 3.373771,-7.535595 7.5355955,-7.535595 2.089073,0 3.979378,0.850133 5.344583,2.223101 0.393379,0.395523 0.743116,0.834758 1.04076,1.309642 0.28144,0.447216 0.516714,0.926409 0.699722,1.430512 0.291624,0.802771 0.450619,1.668858 0.450619,2.572226 z"
       stroke-width="0.0294357"
       id="path275-7"
       style="fill:url(#radialGradient2996);fill-opacity:1;enable-background:new" />
    <rect
       style="display:inline;fill:#ffffff;fill-opacity:1;stroke:none;stroke-width:2.23606;stroke-linecap:round;stroke-linejoin:round;stroke-miterlimit:4;stroke-dasharray:none;stroke-opacity:1;enable-background:new"
       width="10"
       height="2"
       x="6"
       y="10"
       ry="1"
       id="path4186-7-3-3-5-5"
       inkscape:label="path18" />
    <rect
       style="display:inline;fill:#ffffff;fill-opacity:1;stroke:none;stroke-width:2.23606;stroke-linecap:round;stroke-linejoin:round;stroke-miterlimit:4;stroke-dasharray:none;stroke-opacity:1;enable-background:new"
       width="10"
       height="2"
       x="6"
       y="-12"
       ry="1"
       id="path4186-7-3-3-3-3-0"
       inkscape:label="path18"
       transform="rotate(90)" />
  </g>
</svg>
