<?xml version="1.0" encoding="UTF-8" standalone="no"?>
<svg
   viewBox="0 0 32 32"
   version="1.1"
   id="svg12"
   sodipodi:docname="folder-deb.svg"
   inkscape:version="1.2.1 (9c6d41e410, 2022-07-14)"
   xmlns:inkscape="http://www.inkscape.org/namespaces/inkscape"
   xmlns:sodipodi="http://sodipodi.sourceforge.net/DTD/sodipodi-0.dtd"
   xmlns:xlink="http://www.w3.org/1999/xlink"
   xmlns="http://www.w3.org/2000/svg"
   xmlns:svg="http://www.w3.org/2000/svg"
   xmlns:rdf="http://www.w3.org/1999/02/22-rdf-syntax-ns#"
   xmlns:cc="http://creativecommons.org/ns#"
   xmlns:dc="http://purl.org/dc/elements/1.1/">
  <metadata
     id="metadata16">
    <rdf:RDF>
      <cc:Work
         rdf:about="">
        <dc:format>image/svg+xml</dc:format>
        <dc:type
           rdf:resource="http://purl.org/dc/dcmitype/StillImage" />
      </cc:Work>
    </rdf:RDF>
  </metadata>
  <sodipodi:namedview
     pagecolor="#ffffff"
     bordercolor="#666666"
     borderopacity="1"
     objecttolerance="10"
     gridtolerance="10"
     guidetolerance="10"
     inkscape:pageopacity="0"
     inkscape:pageshadow="2"
     inkscape:window-width="1920"
     inkscape:window-height="1004"
     id="namedview14"
     showgrid="true"
     inkscape:zoom="10.429825"
     inkscape:cx="-17.018502"
     inkscape:cy="15.676198"
     inkscape:window-x="0"
     inkscape:window-y="0"
     inkscape:window-maximized="1"
     inkscape:current-layer="svg12"
     inkscape:showpageshadow="2"
     inkscape:pagecheckerboard="0"
     inkscape:deskcolor="#d1d1d1">
    <inkscape:grid
       type="xygrid"
       id="grid18219" />
  </sodipodi:namedview>
  <defs
     id="defs3051">
    <style
       type="text/css"
       id="current-color-scheme">.ColorScheme-Text { color:#31363b; }
.ColorScheme-Background { color:#eff0f1; }
.ColorScheme-Highlight { color:#3daee9; }
.ColorScheme-ViewText { color:#31363b; }
.ColorScheme-ViewBackground { color:#fcfcfc; }
.ColorScheme-ViewHover { color:#93cee9; }
.ColorScheme-ViewFocus { color:#3daee9; }
.ColorScheme-ButtonText { color:#31363b; }
.ColorScheme-ButtonBackground { color:#eff0f1; }
.ColorScheme-ButtonHover { color:#93cee9; }
.ColorScheme-ButtonFocus { color:#3daee9; }
</style>
    <linearGradient
       inkscape:collect="always"
       id="linearGradient4393">
      <stop
         style="stop-color:#000000;stop-opacity:1;"
         offset="0"
         id="stop4395" />
      <stop
         style="stop-color:#000000;stop-opacity:0;"
         offset="1"
         id="stop4397" />
    </linearGradient>
    <linearGradient
       inkscape:collect="always"
       xlink:href="#linearGradient886"
       id="linearGradient888"
       x1="75.75985"
       y1="208.49026"
       x2="91.646347"
       y2="264.21182"
       gradientUnits="userSpaceOnUse"
       gradientTransform="matrix(0.35313293,0,0,0.35449418,-12.501273,-68.908541)" />
    <linearGradient
       inkscape:collect="always"
       id="linearGradient886">
      <stop
         style="stop-color:#bb2649;stop-opacity:1;"
         offset="0"
         id="stop882" />
      <stop
         style="stop-color:#e890a5;stop-opacity:1;"
         offset="0.48468637"
         id="stop1402" />
      <stop
         style="stop-color:#8e1d38;stop-opacity:0.80392158;"
         offset="1"
         id="stop884" />
    </linearGradient>
    <filter
       inkscape:collect="always"
       style="color-interpolation-filters:sRGB"
       id="filter1881"
       x="-0.09064882"
       width="1.1812976"
       y="-0.40803665"
       height="1.8160733">
      <feGaussianBlur
         inkscape:collect="always"
         stdDeviation="0.85615684"
         id="feGaussianBlur1883" />
    </filter>
    <inkscape:path-effect
       effect="fillet_chamfer"
       id="path-effect1331"
       is_visible="true"
       lpeversion="1"
       satellites_param="F,0,0,1,0,2.1166667,0,1 @ F,0,0,1,0,2.1166667,0,1 @ F,0,0,1,0,2.1166667,0,1 @ F,0,0,1,0,2.1166667,0,1"
       unit="px"
       method="arc"
       mode="F"
       radius="8"
       chamfer_steps="1"
       flexible="false"
       use_knot_distance="true"
       apply_no_radius="true"
       apply_with_radius="true"
       only_selected="false"
       hide_knots="false"
       nodesatellites_param="F,0,0,1,0,2.1166667,0,1 @ F,0,0,1,0,2.1166667,0,1 @ F,0,0,1,0,2.1166667,0,1 @ F,0,0,1,0,2.1166667,0,1" />
    <linearGradient
       inkscape:collect="always"
       xlink:href="#linearGradient852"
       id="linearGradient854-7"
       x1="76.788559"
       y1="222.65123"
       x2="92.097359"
       y2="268.94839"
       gradientUnits="userSpaceOnUse"
       gradientTransform="matrix(0.35313293,0,0,0.35449418,-12.519927,-68.908541)" />
    <linearGradient
       inkscape:collect="always"
       id="linearGradient852">
      <stop
         style="stop-color:#da4b6d;stop-opacity:1;"
         offset="0"
         id="stop848" />
      <stop
         style="stop-color:#df627f;stop-opacity:1;"
         offset="1"
         id="stop850" />
    </linearGradient>
    <linearGradient
       inkscape:collect="always"
       xlink:href="#linearGradient4393"
       id="linearGradient668-3"
       gradientUnits="userSpaceOnUse"
       gradientTransform="matrix(1.7478125,0,0,1.686832,2,-1749.5262)"
       x1="5"
       y1="1037.3622"
       x2="8"
       y2="1051.3622" />
  </defs>
  <path
     id="rect10"
     style="fill:url(#linearGradient888);fill-opacity:1;stroke-width:0.0579115"
     d="M 3.494983,5 C 2.669272,5 2,5.671909 2,6.500718 V 7.979275 25.499267 C 2,26.328047 2.669272,27 3.494983,27 h 25.010126 c 0.825614,0 1.494852,-0.671948 1.494852,-1.500733 L 29.997561,9.595913 C 29.934031,8.773905 30.029081,6.87587 27.226285,6.87587 H 14.50702 c 0.01168,0 -0.921896,-0.84414 -1.752936,-1.347326 C 12.09017,5.093715 11.193137,5 11.193137,5 Z"
     sodipodi:nodetypes="scccscccccccs" />
  <path
     style="opacity:0.309598;fill:#000000;fill-opacity:1;stroke:none;stroke-width:0.144851;stroke-opacity:1;filter:url(#filter1881)"
     id="rect873"
     width="22.667437"
     height="5.0357642"
     x="46.507095"
     y="222.89639"
     transform="matrix(0.50789107,0,0,0.68368449,-20.536564,-142.10558)"
     inkscape:path-effect="#path-effect1331"
     d="m 48.623762,222.89639 h 18.434103 a 2.1166667,2.1166667 45 0 1 2.116667,2.11667 v 0.80243 a 2.1166667,2.1166667 135 0 1 -2.116667,2.11667 l -18.434103,0 a 2.1166667,2.1166667 45 0 1 -2.116667,-2.11667 v -0.80243 a 2.1166667,2.1166667 135 0 1 2.116667,-2.11667 z"
     sodipodi:type="rect" />
  <path
     id="rect851"
     style="fill:#bb2649;fill-opacity:1;stroke-width:0.0936051"
     d="m 14.478426,8.480364 v 1.48729 h -3.486285 c 1.721981,-0.0044 2.184444,-0.510027 3.486285,-1.48729 z m 0,0 H 28.43451 c 0.82238,-0.0039 1.562284,0.662645 1.565447,1.48729 H 14.478426 Z M 3.495075,9.967654 h 26.504886 v 15.064508 c 0,0.827933 -0.669238,1.499059 -1.494852,1.499059 H 3.495075 c -0.825711,0 -1.494983,-0.671126 -1.494983,-1.499059 V 11.466805 c 0,-0.827977 0.669272,-1.499151 1.494983,-1.499151 z"
     sodipodi:nodetypes="cccccccccccccsccc" />
  <path
     id="rect851-3"
     style="fill:url(#linearGradient854-7);fill-opacity:1;stroke-width:0.0936449"
     d="m 14.651876,9.072604 -0.03785,1.554976 -3.447814,-0.0661 c 1.722019,-0.0044 2.184396,-0.51062 3.486208,-1.488881 z m 0,0 h 13.853252 c 0.822365,-0.0039 1.491676,0.663307 1.494867,1.488881 l -15.386527,0.0661 z M 3.495099,10.561485 H 30 v 14.471329 c 0,0.828853 -0.669248,1.500733 -1.494872,1.500728 H 3.495099 c -0.82572,5e-6 -1.494993,-0.671875 -1.494993,-1.500728 V 12.062237 c 0,-0.828819 0.669273,-1.500752 1.494993,-1.500752 z"
     sodipodi:nodetypes="cccccccccccsccssc" />
  <path
     style="opacity:0.181;fill:url(#linearGradient668-3);fill-opacity:1;fill-rule:evenodd;stroke:none;stroke-width:1.71705px;stroke-linecap:butt;stroke-linejoin:miter;stroke-opacity:1"
     d="M 3.448257,10.546412 15.982475,23.94524 h 13.982496 l 0.035,-13.398828 H 3.476633 Z"
     id="path4152-2-5"
     inkscape:connector-curvature="0"
     sodipodi:nodetypes="cccccc" />
  <rect
     style="fill:#ffffff;fill-opacity:0.25;stroke:#e5e9ef;stroke-width:0.28132;stroke-opacity:0.5;paint-order:markers fill stroke"
     id="rect2191"
     width="27.758623"
     height="3.5499221e-07"
     x="2.1206663"
     y="23.629257" />
  <rect
     style="fill:#ffffff;fill-opacity:0.5;stroke:#e5e9ef;stroke-width:0.28132;stroke-opacity:0.5;paint-order:markers fill stroke"
     id="rect2191-0-9"
     width="27.758623"
     height="3.5499221e-07"
     x="2.1206663"
     y="25.088839" />
  <path
     style="color:#232629;fill:#7f1a32;fill-opacity:1;stroke:none;stroke-width:0.460186"
     d="m 16.688016,22.752788 c -0.547617,-0.09283 -1.32341,-0.417679 -1.779754,-0.719294 -1.049582,-0.696109 -1.736562,-1.470404 -2.16118,-2.436796 -0.13689,-0.324841 -0.218137,-0.556879 -0.456325,-1.392212 -0.0456,-0.208796 -0.123057,-0.442814 -0.151632,-0.515746 -0.04817,-0.122991 -0.05029,-0.164491 -0.02923,-0.574752 0.01992,-0.371261 0.09128,-0.92813 0.136888,-0.972667 0.0067,-0.01083 0.02276,-0.01337 0.03536,-0.0057 0.04302,0.02574 0.08258,-0.09382 0.121545,-0.366886 0.02146,-0.149635 0.05493,-0.30651 0.07457,-0.348665 0.01963,-0.04223 0.05295,-0.135196 0.07398,-0.206745 0.04842,-0.164676 0.114441,-0.291249 0.318564,-0.610709 0.08977,-0.140492 0.183075,-0.293533 0.207366,-0.340052 0.02844,-0.05478 0.05976,-0.08158 0.08845,-0.07603 0.02748,0.0054 0.07316,-0.03012 0.120885,-0.09421 0.207525,-0.27853 1.184964,-1.100314 1.275415,-1.072284 0.02467,0.0075 0.12785,-0.02675 0.229221,-0.07669 0.183347,-0.09011 0.26415,-0.110952 0.26415,-0.06814 0,0.01251 -0.0264,0.04033 -0.05888,0.06231 -0.05687,0.03829 -0.05572,0.03897 0.03279,0.01806 0.0504,-0.01208 0.135247,-0.02871 0.188578,-0.03762 0.0659,-0.01097 0.09269,-0.02685 0.08359,-0.05009 -0.0078,-0.02027 0.01107,-0.04033 0.04703,-0.04979 0.09013,-0.02358 0.230545,-0.01961 0.230545,0.0062 0,0.03129 -0.0803,0.06279 -0.143991,0.05662 -0.04352,-0.0044 -0.04555,-4.69e-4 -0.01316,0.02128 0.0326,0.02182 0.03289,0.02631 0.0024,0.02655 -0.02042,2.07e-4 -0.03036,0.0069 -0.02235,0.01505 0.0081,0.0079 0.06279,-0.0092 0.121281,-0.03833 0.05851,-0.029 0.165657,-0.06536 0.238123,-0.08051 0.0892,-0.0185 0.131736,-0.04028 0.131736,-0.06706 0,-0.03451 0.04155,-0.0372 0.320667,-0.02268 0.176344,0.0092 0.442502,0.03605 0.591393,0.05993 0.270743,0.04329 0.270767,0.04329 0.371634,-0.01362 0.121029,-0.06796 0.315667,-0.0768 0.366811,-0.01654 0.01861,0.02214 0.07021,0.05826 0.114453,0.08059 0.07219,0.03637 0.07697,0.03642 0.04639,4.48e-4 -0.05794,-0.06817 -3.91e-4,-0.06646 0.22333,0.0066 0.72128,0.235737 1.309306,0.655589 1.745601,1.246409 0.103469,0.140126 0.109749,0.203128 0.01186,0.117852 l -0.0561,-0.04879 0.04292,0.08176 c 0.02365,0.04511 0.04287,0.09551 0.04287,0.112284 0,0.01668 0.06937,0.140943 0.154144,0.27588 0.191066,0.304132 0.244506,0.406575 0.231683,0.444122 -0.0054,0.01605 -0.09013,-0.09101 -0.188095,-0.238032 -0.09794,-0.146999 -0.242914,-0.345085 -0.322114,-0.440144 -0.118295,-0.141991 -0.149279,-0.166271 -0.173412,-0.13592 -0.01603,0.02032 -0.05563,0.04059 -0.08771,0.04515 l -0.05834,0.0081 0.0577,0.110404 c 0.03185,0.06073 0.06193,0.09808 0.06707,0.08302 0.02755,-0.08064 0.15581,0.02545 0.214136,0.177007 0.01879,0.04913 0.06919,0.150415 0.111737,0.225001 0.04268,0.0746 0.07201,0.14087 0.06545,0.147245 -0.0064,0.0063 -0.04535,-0.01419 -0.08619,-0.0453 l -0.07429,-0.05704 0.05067,0.08489 c 0.02785,0.04663 0.07452,0.10381 0.103686,0.126934 0.03625,0.02871 0.05379,0.0744 0.0554,0.145254 0.0034,0.130796 0.07979,0.285325 0.12153,0.244584 0.06505,-0.06348 0.07841,-0.02387 0.06206,0.184059 -0.01222,0.153165 -0.0055,0.254109 0.02299,0.361269 0.04352,0.162705 0.03423,0.202832 -0.02938,0.126817 -0.0404,-0.04841 -0.04086,-0.04827 -0.02276,0.0019 0.03867,0.107583 0.06775,0.268507 0.0597,0.331679 -0.01507,0.11787 -0.06039,0.06887 -0.07598,-0.08212 l -0.01524,-0.147376 -0.0049,0.156812 c -0.0024,0.08628 -0.02324,0.252965 -0.04609,0.370426 -0.02324,0.118655 -0.03498,0.262401 -0.02636,0.323449 0.01577,0.114848 0.0049,0.11929 -0.0937,0.03691 -0.04002,-0.03355 -0.04698,-0.0266 -0.07443,0.07296 -0.02319,0.08385 -0.02299,0.13157 9.66e-4,0.201798 0.01707,0.05062 0.02701,0.119201 0.02225,0.15248 -0.01157,0.0768 -0.07449,0.100713 -0.07449,0.02823 0,-0.09106 -0.03545,-0.05862 -0.143952,0.131465 -0.292922,0.513317 -0.756407,0.910564 -1.280964,1.097957 -0.309271,0.110483 -0.516688,0.151455 -0.865444,0.170933 l -0.314104,0.01745 0.155183,0.04663 c 0.125159,0.03762 0.198629,0.04329 0.379536,0.02891 0.23703,-0.01855 0.515324,-0.06888 0.641507,-0.115688 0.05037,-0.01855 0.08438,-0.01946 0.101786,-0.0029 0.04109,0.03998 -0.323505,0.197506 -0.539897,0.233177 -0.368221,0.06073 -0.861082,-0.0048 -1.296166,-0.172531 -0.295193,-0.113748 -0.733243,-0.40997 -0.666124,-0.450445 0.01276,-0.0075 0.09606,0.03108 0.185206,0.08606 0.113918,0.07032 0.162056,0.08883 0.162056,0.06235 0,-0.05004 0.01676,-0.04768 0.107396,0.01519 0.08174,0.0568 0.333193,0.162299 0.514299,0.215762 0.197401,0.05827 0.120847,-0.01247 -0.143976,-0.132863 -0.837384,-0.380977 -1.185003,-0.762034 -1.358251,-1.48886 -0.06354,-0.266531 0.0049,-0.850834 0.120411,-1.033816 0.02933,-0.04626 0.05339,-0.103408 0.05339,-0.126728 0,-0.101234 0.172991,-0.368711 0.350477,-0.541933 0.312768,-0.305228 0.637941,-0.431952 1.060062,-0.413082 0.204058,0.0091 0.291211,0.02651 0.461037,0.09263 0.192599,0.07486 0.435168,0.231573 0.360883,0.233183 -0.01736,3.86e-4 -0.09404,-0.02469 -0.170152,-0.0556 -0.115713,-0.04702 -0.18989,-0.05647 -0.452488,-0.05747 -0.36876,-0.0015 -0.549006,0.04964 -0.81147,0.229862 -0.372053,0.255488 -0.578955,0.549759 -0.652242,0.927693 -0.04916,0.253565 -0.05067,0.323852 -0.01246,0.575376 0.02225,0.144959 0.03768,0.187489 0.06545,0.177155 0.02328,-0.0085 0.03625,0.0044 0.03625,0.03519 0,0.08984 0.200295,0.454246 0.339221,0.617143 0.334341,0.392117 0.875183,0.642338 1.388359,0.642338 0.266346,0 0.481645,-0.04989 0.679818,-0.15753 0.0796,-0.04341 0.180049,-0.09607 0.223237,-0.117439 0.152383,-0.07538 0.246919,-0.161484 0.357455,-0.325557 0.06144,-0.09121 0.128259,-0.165838 0.148452,-0.165838 0.02981,0 0.02844,0.01323 -0.0068,0.07027 -0.116822,0.188166 0.157383,-0.153992 0.299355,-0.37356 l 0.159056,-0.245936 -0.01726,-0.161538 c -0.01656,-0.155243 -0.01429,-0.164717 0.06187,-0.242673 0.07331,-0.07508 0.07987,-0.09733 0.08833,-0.298029 0.0075,-0.179623 0.0024,-0.216923 -0.03012,-0.217134 -0.03022,-1.72e-4 -0.04323,-0.0475 -0.05618,-0.204592 -0.01716,-0.207938 -0.190696,-0.907642 -0.231085,-0.932002 -0.01227,-0.0073 -0.0459,-0.07464 -0.07518,-0.14951 -0.09836,-0.252706 -0.270944,-0.495705 -0.540006,-0.760421 -0.387177,-0.380881 -0.87487,-0.674981 -1.335571,-0.80541 -0.391875,-0.110947 -1.057292,-0.07068 -1.531267,0.09267 -0.231331,0.07971 -0.459247,0.185246 -0.497712,0.230463 -0.01736,0.02052 -0.04287,0.03068 -0.05622,0.02267 -0.01433,-0.0084 -0.01028,-0.03154 0.0092,-0.05446 0.08731,-0.102678 -0.202445,0.08523 -0.388972,0.252264 -0.112771,0.100972 -0.209146,0.186663 -0.214172,0.190415 -0.0051,0.0039 0.01687,1.9e-4 0.04876,-0.0078 0.05301,-0.01357 0.05525,-0.0099 0.02641,0.04265 -0.01829,0.03365 -0.114378,0.09401 -0.232006,0.146084 -0.197624,0.0875 -0.325443,0.183646 -0.427007,0.321207 -0.04054,0.05493 -0.04292,0.06677 -0.01087,0.05474 0.0226,-0.0083 0.041,-0.0034 0.041,0.01188 0,0.07295 -0.06791,0.154407 -0.168521,0.202103 -0.222909,0.105691 -0.614513,0.670224 -0.824273,1.18833 -0.09347,0.230868 -0.09198,0.222858 -0.04124,0.222858 0.05359,0 0.04986,0.05938 -0.02384,0.378295 -0.107187,0.464606 -0.107315,0.449715 0.0093,1.103318 0.142222,0.796353 0.225309,1.06238 0.383291,1.227189 0.03699,0.03853 0.07308,0.120928 0.08914,0.203567 0.01908,0.09867 0.05137,0.16379 0.111612,0.22576 0.05494,0.0565 0.07324,0.09115 0.05214,0.09867 -0.0415,0.01478 0.08821,0.203306 0.206461,0.300402 0.05948,0.04879 0.103572,0.06526 0.1513,0.05633 0.104664,-0.01946 0.211229,0.03917 0.374967,0.207007 0.170172,0.174257 0.187224,0.221097 0.07462,0.20498 -0.07265,-0.0104 -0.0743,-0.0083 -0.03843,0.04491 0.02062,0.03063 0.09639,0.104237 0.168531,0.16359 0.101322,0.08338 0.127419,0.119441 0.114684,0.158547 -0.01815,0.05624 0.03397,0.108707 0.151889,0.152732 0.07317,0.02722 0.09676,0.08619 0.04179,0.104112 -0.01656,0.0053 0.0864,0.108944 0.229033,0.23004 0.160701,0.136479 0.268789,0.211281 0.284204,0.196656 0.04076,-0.03844 0.09285,-0.0267 0.09379,0.02118 9.66e-4,0.05231 0.04724,0.107265 0.213434,0.253868 0.105012,0.09262 0.131222,0.104296 0.195597,0.08699 0.05896,-0.01583 0.09605,-0.0057 0.179064,0.04908 0.165626,0.109278 0.266064,0.152884 0.352079,0.152884 0.0846,0 0.09665,0.02378 0.05272,0.103855 -0.02333,0.04256 -0.01815,0.04938 0.03521,0.04938 0.03437,0 0.130737,0.02314 0.214424,0.05109 0.190266,0.06389 0.269639,0.06823 0.22197,0.01232 -0.07045,-0.08284 0.0045,-0.0602 0.25598,0.07754 0.351715,0.192504 0.529636,0.21447 1.230021,0.152024 0.103676,-0.0092 0.137418,-0.0039 0.137418,0.02214 0,0.02233 -0.08999,0.05548 -0.255213,0.0945 -0.217218,0.05128 -0.333168,0.0612 -0.778726,0.06664 -0.351115,0.0044 -0.590948,-0.0052 -0.728244,-0.02823 z m -0.358074,-3.829466 c 0,-0.0055 -0.03255,-0.02896 -0.07197,-0.05262 l -0.07201,-0.04295 0.06182,0.05262 c 0.0603,0.05134 0.08216,0.0627 0.08216,0.04295 z m 3.603959,-2.67722 c -0.0082,-0.02037 -0.01464,-0.01443 -0.01568,0.01549 -0.0014,0.0268 0.0051,0.04208 0.01385,0.03365 0.0086,-0.0083 0.0096,-0.03053 0.0019,-0.04898 z m -5.940122,-2.679138 c 0.03264,-0.0405 0.03176,-0.04151 -0.0099,-0.0096 -0.02523,0.01922 -0.04565,0.03928 -0.04565,0.04481 0,0.02109 0.0216,0.0074 0.05567,-0.03505 z m 0.297689,-0.236295 c 0.02592,-0.02805 0.0416,-0.05109 0.03442,-0.05109 -0.0072,0 -0.03452,0.02314 -0.06048,0.05109 -0.02592,0.02806 -0.0416,0.05109 -0.03437,0.05109 0.0072,0 0.03452,-0.02314 0.06047,-0.05109 z m 0.329499,-0.179576 c 0.08628,-0.02832 0.135317,-0.0336 0.153496,-0.01591 0.01805,0.01774 0.08572,0.0072 0.211392,-0.03308 0.101559,-0.03264 0.179989,-0.0636 0.174287,-0.06919 -0.0059,-0.0054 -0.08935,0.01568 -0.185834,0.04697 -0.132528,0.04329 -0.180201,0.04964 -0.194984,0.02617 -0.02502,-0.03932 -0.26315,0.03821 -0.36555,0.119314 l -0.06995,0.05536 0.07519,-0.0441 c 0.04145,-0.02435 0.132236,-0.06291 0.201956,-0.08595 z m 0.754628,-0.06486 c 0.07601,-0.02219 0.133679,-0.04462 0.128156,-0.04989 -0.01236,-0.01208 -0.283033,0.06375 -0.283033,0.07911 0,0.01539 0.0024,0.01505 0.154877,-0.02906 z m 0.434074,-0.139256 0.10472,-0.0185 -0.09163,-0.0024 c -0.05039,-0.0015 -0.121073,0.01539 -0.157061,0.03676 -0.04254,0.0253 -0.04703,0.03293 -0.01316,0.02098 0.02869,-0.01001 0.09946,-0.02651 0.157057,-0.03676 z m 0.207896,-0.04822 c 0.008,-0.01283 -0.0088,-0.01706 -0.03764,-0.0098 -0.06114,0.01568 -0.06885,0.03308 -0.01479,0.03308 0.02081,0 0.04446,-0.01045 0.05239,-0.02334 z m 0.845138,0.0076 c -0.0086,-0.0083 -0.03135,-0.0093 -0.05016,-0.0019 -0.02097,0.008 -0.01479,0.01433 0.01568,0.01549 0.0275,9.73e-4 0.04308,-0.0048 0.03447,-0.01347 z m -0.156498,-0.02766 c -0.02518,-0.0063 -0.06642,-0.0063 -0.09162,0 -0.02528,0.0063 -0.0049,0.01183 0.04565,0.01183 0.0504,0 0.07103,-0.0054 0.0458,-0.01183 z m -0.261068,-0.02636 c -0.05361,-0.0055 -0.147839,-0.0056 -0.209415,-1.76e-4 -0.06157,0.0054 -0.0176,0.0099 0.09746,0.01 0.115174,8.6e-5 0.165542,-0.0044 0.11195,-0.0098 z m -0.341546,-0.02258 c -0.0086,-0.0083 -0.03135,-0.0093 -0.05017,-0.0019 -0.02098,0.008 -0.01459,0.01433 0.01587,0.01538 0.0276,9.73e-4 0.04318,-0.0051 0.03432,-0.01347 z m -0.17716,6.139961 c -0.266638,-0.186422 -0.365418,-0.282864 -0.365418,-0.356711 0,-0.03902 0.009,-0.07122 0.02019,-0.07122 0.03764,0 0.483505,0.454078 0.473761,0.482619 -0.0056,0.01639 -0.05944,-0.0062 -0.128497,-0.05469 z m -0.137221,-0.47336 c -0.138462,-0.136574 -0.182842,-0.210025 -0.126855,-0.210025 0.03373,0 0.291296,0.2879 0.291296,0.325496 0,0.01764 -0.0034,0.0323 -0.0073,0.0323 -0.0045,0 -0.07473,-0.06643 -0.157061,-0.147612 z m 1.532102,-0.559012 c -0.07309,-0.02862 -0.02739,-0.08215 0.09162,-0.107063 0.06839,-0.01448 0.177061,-0.04903 0.241505,-0.07727 0.06444,-0.02807 0.121816,-0.04653 0.127493,-0.04113 0.0055,0.0055 -0.0236,0.06232 -0.06482,0.126174 -0.07466,0.115367 -0.07601,0.116049 -0.219087,0.114094 -0.07921,-9.73e-4 -0.158712,-0.0075 -0.17671,-0.01467 z m 0.785295,-0.571432 c -0.07067,-0.02766 -0.07359,-0.07488 -0.01479,-0.235487 0.05067,-0.137966 0.10325,-0.165194 0.07401,-0.03826 -0.01059,0.04558 -0.02463,0.111774 -0.0313,0.146882 l -0.01227,0.06388 0.05231,-0.05815 c 0.03101,-0.03451 0.05961,-0.115159 0.07017,-0.197697 0.0098,-0.07676 0.02813,-0.133228 0.04114,-0.125555 0.03255,0.01946 0.02883,0.221511 -0.0059,0.3573 -0.03066,0.118615 -0.05814,0.132446 -0.173575,0.08715 z m -6.194328,-0.320628 c -0.0086,-0.02238 -0.01573,-0.109393 -0.01573,-0.19371 0,-0.111272 0.0089,-0.150404 0.03279,-0.142765 0.03877,0.01271 0.0617,0.376878 0.02369,0.376878 -0.01359,0 -0.0318,-0.01811 -0.04044,-0.0404 z m 6.297133,-0.597499 c -0.04071,-0.05371 -0.0532,-0.09607 -0.04179,-0.140925 0.02379,-0.09212 0.08567,-0.07903 0.13137,0.02766 0.07112,0.166101 0.0093,0.243977 -0.08972,0.113144 z m -6.302504,-0.405474 c -0.0019,-0.144862 -1.5e-5,-0.149332 0.06568,-0.146892 0.05573,0.0019 0.06916,0.01634 0.07559,0.08052 0.0072,0.07232 -0.07334,0.215767 -0.121207,0.215767 -0.0099,0 -0.01884,-0.06724 -0.02007,-0.149394 z m 6.785034,-3.140367 c 0.0039,-0.22859 0.04318,-0.30604 0.0739,-0.145983 0.02155,0.11152 -0.0059,0.308462 -0.04738,0.342132 -0.02266,0.01811 -0.02928,-0.03163 -0.02641,-0.196149 z m -3.439419,-0.136967 c 0.01059,-0.03082 0.371614,-0.175147 0.438193,-0.175147 0.07827,0 -0.06211,0.09357 -0.224027,0.149355 -0.180518,0.06217 -0.228578,0.06795 -0.214166,0.02579 z"
     class="ColorScheme-Text"
     id="path7225-4-3" />
</svg>
