<?xml version="1.0" encoding="UTF-8" standalone="no"?>
<svg
   viewBox="0 0 32 32"
   version="1.1"
   id="svg12"
   sodipodi:docname="folder-Github.svg"
   inkscape:version="1.2.1 (9c6d41e410, 2022-07-14)"
   xmlns:inkscape="http://www.inkscape.org/namespaces/inkscape"
   xmlns:sodipodi="http://sodipodi.sourceforge.net/DTD/sodipodi-0.dtd"
   xmlns:xlink="http://www.w3.org/1999/xlink"
   xmlns="http://www.w3.org/2000/svg"
   xmlns:svg="http://www.w3.org/2000/svg"
   xmlns:rdf="http://www.w3.org/1999/02/22-rdf-syntax-ns#"
   xmlns:cc="http://creativecommons.org/ns#"
   xmlns:dc="http://purl.org/dc/elements/1.1/">
  <metadata
     id="metadata16">
    <rdf:RDF>
      <cc:Work
         rdf:about="">
        <dc:format>image/svg+xml</dc:format>
        <dc:type
           rdf:resource="http://purl.org/dc/dcmitype/StillImage" />
      </cc:Work>
    </rdf:RDF>
  </metadata>
  <sodipodi:namedview
     pagecolor="#ffffff"
     bordercolor="#666666"
     borderopacity="1"
     objecttolerance="10"
     gridtolerance="10"
     guidetolerance="10"
     inkscape:pageopacity="0"
     inkscape:pageshadow="2"
     inkscape:window-width="1920"
     inkscape:window-height="1004"
     id="namedview14"
     showgrid="false"
     inkscape:zoom="7.375"
     inkscape:cx="14.440678"
     inkscape:cy="16.338983"
     inkscape:window-x="0"
     inkscape:window-y="0"
     inkscape:window-maximized="1"
     inkscape:current-layer="svg12"
     inkscape:document-rotation="0"
     inkscape:showpageshadow="2"
     inkscape:pagecheckerboard="0"
     inkscape:deskcolor="#d1d1d1" />
  <defs
     id="defs3051">
    <style
       type="text/css"
       id="current-color-scheme">.ColorScheme-Text { color:#31363b; }
.ColorScheme-Background { color:#eff0f1; }
.ColorScheme-Highlight { color:#3daee9; }
.ColorScheme-ViewText { color:#31363b; }
.ColorScheme-ViewBackground { color:#fcfcfc; }
.ColorScheme-ViewHover { color:#93cee9; }
.ColorScheme-ViewFocus { color:#3daee9; }
.ColorScheme-ButtonText { color:#31363b; }
.ColorScheme-ButtonBackground { color:#eff0f1; }
.ColorScheme-ButtonHover { color:#93cee9; }
.ColorScheme-ButtonFocus { color:#3daee9; }
</style>
    <linearGradient
       inkscape:collect="always"
       id="linearGradient4393">
      <stop
         style="stop-color:#000000;stop-opacity:1;"
         offset="0"
         id="stop4395" />
      <stop
         style="stop-color:#000000;stop-opacity:0;"
         offset="1"
         id="stop4397" />
    </linearGradient>
    <linearGradient
       inkscape:collect="always"
       xlink:href="#linearGradient886"
       id="linearGradient888"
       x1="83.165169"
       y1="208.49011"
       x2="91.646347"
       y2="264.21182"
       gradientUnits="userSpaceOnUse"
       gradientTransform="matrix(0.35313291,0,0,0.35449418,-12.501253,-68.908534)" />
    <linearGradient
       inkscape:collect="always"
       id="linearGradient886">
      <stop
         style="stop-color:#555f77;stop-opacity:1;"
         offset="0"
         id="stop882" />
      <stop
         style="stop-color:#8892aa;stop-opacity:1;"
         offset="0.48468637"
         id="stop1402" />
      <stop
         style="stop-color:#5c7094;stop-opacity:1;"
         offset="1"
         id="stop884" />
    </linearGradient>
    <filter
       inkscape:collect="always"
       style="color-interpolation-filters:sRGB"
       id="filter1881"
       x="-0.090648818"
       width="1.1812976"
       y="-0.40803619"
       height="1.8160724">
      <feGaussianBlur
         inkscape:collect="always"
         stdDeviation="0.85615684"
         id="feGaussianBlur1883" />
    </filter>
    <inkscape:path-effect
       effect="fillet_chamfer"
       id="path-effect1331"
       is_visible="true"
       lpeversion="1"
       satellites_param="F,0,0,1,0,2.1166667,0,1 @ F,0,0,1,0,2.1166667,0,1 @ F,0,0,1,0,2.1166667,0,1 @ F,0,0,1,0,2.1166667,0,1"
       unit="px"
       method="arc"
       mode="F"
       radius="8"
       chamfer_steps="1"
       flexible="false"
       use_knot_distance="true"
       apply_no_radius="true"
       apply_with_radius="true"
       only_selected="false"
       hide_knots="false"
       nodesatellites_param="F,0,0,1,0,2.1166667,0,1 @ F,0,0,1,0,2.1166667,0,1 @ F,0,0,1,0,2.1166667,0,1 @ F,0,0,1,0,2.1166667,0,1" />
    <linearGradient
       inkscape:collect="always"
       xlink:href="#linearGradient852"
       id="linearGradient854-7"
       x1="76.788559"
       y1="222.65123"
       x2="92.097359"
       y2="268.94839"
       gradientUnits="userSpaceOnUse"
       gradientTransform="matrix(0.35313291,0,0,0.35449418,-12.519906,-68.908534)" />
    <linearGradient
       inkscape:collect="always"
       id="linearGradient852">
      <stop
         style="stop-color:#8893aa;stop-opacity:1;"
         offset="0"
         id="stop848" />
      <stop
         style="stop-color:#4c566a;stop-opacity:1;"
         offset="1"
         id="stop850" />
    </linearGradient>
    <linearGradient
       inkscape:collect="always"
       xlink:href="#linearGradient4393"
       id="linearGradient668-3"
       gradientUnits="userSpaceOnUse"
       gradientTransform="matrix(1.7478124,0,0,1.686832,2.0000195,-1749.5261)"
       x1="5"
       y1="1037.3622"
       x2="8"
       y2="1051.3622" />
  </defs>
  <path
     id="rect10"
     style="fill:url(#linearGradient888);fill-opacity:1;stroke-width:0.0579115"
     d="M 3.4950025,5 C 2.6692915,5 2.0000195,5.6719089 2.0000195,6.5007181 V 7.9792748 25.499267 C 2.0000195,26.328047 2.6692915,27 3.4950025,27 H 28.505128 c 0.825614,0 1.494852,-0.671948 1.494852,-1.500733 L 29.99758,9.5959129 C 29.93405,8.7739054 30.0291,6.8758696 27.226304,6.8758696 H 14.507036 c 0.01168,0 -0.921895,-0.8441396 -1.752935,-1.3473257 C 12.090192,5.0937149 11.193159,5 11.193159,5 Z"
     sodipodi:nodetypes="scccscccccccs" />
  <path
     style="opacity:0.309598;fill:#000000;fill-opacity:1;stroke:none;stroke-width:0.144851;stroke-opacity:1;filter:url(#filter1881)"
     id="rect873"
     width="22.667437"
     height="5.0357642"
     x="46.507095"
     y="222.89639"
     transform="matrix(0.50789103,0,0,0.68368449,-20.536543,-142.10559)"
     inkscape:path-effect="#path-effect1331"
     d="m 48.623762,222.89639 h 18.434103 a 2.1166667,2.1166667 45 0 1 2.116667,2.11667 v 0.80243 a 2.1166667,2.1166667 135 0 1 -2.116667,2.11667 l -18.434103,0 a 2.1166667,2.1166667 45 0 1 -2.116667,-2.11667 v -0.80243 a 2.1166667,2.1166667 135 0 1 2.116667,-2.11667 z"
     sodipodi:type="rect" />
  <path
     id="rect851"
     style="fill:#4c566a;fill-opacity:1;stroke-width:0.0936051"
     d="m 14.478442,8.480364 v 1.4872899 h -3.48628 c 1.721981,-0.00438 2.184444,-0.5100267 3.48628,-1.4872899 z m 0,0 h 13.956083 c 0.822384,-0.00389 1.562289,0.6626454 1.565452,1.4872899 H 14.478442 Z M 3.4950935,9.9676539 H 29.99998 V 25.032162 c 0,0.827934 -0.669238,1.499059 -1.494852,1.499059 H 3.4950935 c -0.82571,0 -1.494982,-0.671125 -1.494982,-1.499059 V 11.466805 c 0,-0.827977 0.669272,-1.4991511 1.494982,-1.4991511 z"
     sodipodi:nodetypes="cccccccccccccsccc" />
  <path
     id="rect851-3"
     style="fill:url(#linearGradient854-7);fill-opacity:1;stroke-width:0.0936449"
     d="m 14.651892,9.072604 -0.03785,1.554976 -3.447809,-0.0661 c 1.722019,-0.0044 2.184391,-0.510621 3.486208,-1.4888813 z m 0,0 h 13.853256 c 0.822365,-0.00389 1.491676,0.6633072 1.494867,1.488881 l -15.386526,0.0661 z M 3.4951185,10.561485 H 30.000019 v 14.471329 c 0,0.828853 -0.669248,1.500733 -1.494872,1.500728 H 3.4951185 c -0.82572,5e-6 -1.494993,-0.671875 -1.494993,-1.500728 V 12.062237 c 0,-0.828819 0.669273,-1.500752 1.494993,-1.500752 z"
     sodipodi:nodetypes="cccccccccccsccssc" />
  <rect
     style="fill:#ffffff;fill-opacity:0.25;stroke:#e5e9ef;stroke-width:0.28132;stroke-opacity:0.5;paint-order:markers fill stroke"
     id="rect2191"
     width="27.758621"
     height="3.5499221e-07"
     x="2.1206896"
     y="23.62925" />
  <rect
     style="fill:#ffffff;fill-opacity:0.5;stroke:#e5e9ef;stroke-width:0.28132;stroke-opacity:0.5;paint-order:markers fill stroke"
     id="rect2191-0-9"
     width="27.758621"
     height="3.5499221e-07"
     x="2.1206896"
     y="25.088831" />
  <path
     style="opacity:0.181;fill:url(#linearGradient668-3);fill-opacity:1;fill-rule:evenodd;stroke:none;stroke-width:1.71705px;stroke-linecap:butt;stroke-linejoin:miter;stroke-opacity:1"
     d="M 3.4482765,10.546412 15.982495,23.94524 H 29.96499 l 0.035,-13.398828 H 3.4766525 Z"
     id="path4152-2-5"
     inkscape:connector-curvature="0"
     sodipodi:nodetypes="cccccc" />
  <path
     d="m 16.72032,13.076355 c -2.783166,0 -5.037408,2.233764 -5.037408,4.988735 0,2.204572 1.443217,4.074078 3.444329,4.733206 0.251869,0.0469 0.344221,-0.107455 0.344221,-0.239873 0,-0.118459 -0.0043,-0.432372 -0.0063,-0.848236 -1.401236,0.300801 -1.696766,-0.669286 -1.696766,-0.669286 -0.2292,-0.575786 -0.560411,-0.729787 -0.560411,-0.729787 -0.456303,-0.309256 0.03529,-0.302907 0.03529,-0.302907 0.505839,0.03464 0.771564,0.514021 0.771564,0.514021 0.449168,0.762783 1.179172,0.542371 1.467142,0.415028 0.04533,-0.322797 0.175049,-0.542367 0.319036,-0.667171 -1.118725,-0.124799 -2.294537,-0.553784 -2.294537,-2.465175 0,-0.544478 0.195198,-0.989539 0.518434,-1.338564 -0.05668,-0.126074 -0.226684,-0.633322 0.04408,-1.320372 0,0 0.421883,-0.133688 1.385286,0.511481 0.402997,-0.110845 0.831175,-0.165842 1.259353,-0.168382 0.428178,0.0024 0.856361,0.05753 1.259352,0.168382 0.957107,-0.645169 1.378989,-0.511481 1.378989,-0.511481 0.27076,0.68705 0.100742,1.194298 0.05037,1.320372 0.321136,0.349025 0.516335,0.794086 0.516335,1.338564 0,1.916465 -1.177497,2.33826 -2.298316,2.460948 0.176308,0.149762 0.340026,0.455637 0.340026,0.923117 0,0.667594 -0.0063,1.204034 -0.0063,1.366067 0,0.130725 0.08816,0.286827 0.34632,0.236914 2.015378,-0.654904 3.457339,-2.52568 3.457339,-4.726866 -5e-6,-2.754971 -2.255501,-4.988735 -5.037407,-4.988735 z"
     id="path2-3-3-6-0-1"
     style="fill:#ffffff;fill-opacity:1;stroke-width:0.42142" />
</svg>
