<?xml version="1.0" encoding="UTF-8" standalone="no"?>
<svg
   viewBox="0 0 32 32"
   version="1.1"
   id="svg12"
   sodipodi:docname="folder-log.svg"
   inkscape:version="1.2.1 (9c6d41e410, 2022-07-14)"
   xmlns:inkscape="http://www.inkscape.org/namespaces/inkscape"
   xmlns:sodipodi="http://sodipodi.sourceforge.net/DTD/sodipodi-0.dtd"
   xmlns:xlink="http://www.w3.org/1999/xlink"
   xmlns="http://www.w3.org/2000/svg"
   xmlns:svg="http://www.w3.org/2000/svg"
   xmlns:rdf="http://www.w3.org/1999/02/22-rdf-syntax-ns#"
   xmlns:cc="http://creativecommons.org/ns#"
   xmlns:dc="http://purl.org/dc/elements/1.1/">
  <metadata
     id="metadata16">
    <rdf:RDF>
      <cc:Work
         rdf:about="">
        <dc:format>image/svg+xml</dc:format>
        <dc:type
           rdf:resource="http://purl.org/dc/dcmitype/StillImage" />
      </cc:Work>
    </rdf:RDF>
  </metadata>
  <sodipodi:namedview
     pagecolor="#ffffff"
     bordercolor="#666666"
     borderopacity="1"
     objecttolerance="10"
     gridtolerance="10"
     guidetolerance="10"
     inkscape:pageopacity="0"
     inkscape:pageshadow="2"
     inkscape:window-width="1920"
     inkscape:window-height="1004"
     id="namedview14"
     showgrid="true"
     inkscape:zoom="10.429825"
     inkscape:cx="-18.264928"
     inkscape:cy="3.2119427"
     inkscape:window-x="0"
     inkscape:window-y="0"
     inkscape:window-maximized="1"
     inkscape:current-layer="svg12"
     inkscape:showpageshadow="2"
     inkscape:pagecheckerboard="0"
     inkscape:deskcolor="#d1d1d1">
    <inkscape:grid
       type="xygrid"
       id="grid18219" />
  </sodipodi:namedview>
  <defs
     id="defs3051">
    <style
       type="text/css"
       id="current-color-scheme">.ColorScheme-Text { color:#31363b; }
.ColorScheme-Background { color:#eff0f1; }
.ColorScheme-Highlight { color:#3daee9; }
.ColorScheme-ViewText { color:#31363b; }
.ColorScheme-ViewBackground { color:#fcfcfc; }
.ColorScheme-ViewHover { color:#93cee9; }
.ColorScheme-ViewFocus { color:#3daee9; }
.ColorScheme-ButtonText { color:#31363b; }
.ColorScheme-ButtonBackground { color:#eff0f1; }
.ColorScheme-ButtonHover { color:#93cee9; }
.ColorScheme-ButtonFocus { color:#3daee9; }
</style>
    <linearGradient
       inkscape:collect="always"
       id="linearGradient4393">
      <stop
         style="stop-color:#000000;stop-opacity:1;"
         offset="0"
         id="stop4395" />
      <stop
         style="stop-color:#000000;stop-opacity:0;"
         offset="1"
         id="stop4397" />
    </linearGradient>
    <linearGradient
       inkscape:collect="always"
       xlink:href="#linearGradient886"
       id="linearGradient888"
       x1="75.75985"
       y1="208.49026"
       x2="91.646347"
       y2="264.21182"
       gradientUnits="userSpaceOnUse"
       gradientTransform="matrix(0.35313239,0,0,0.35449418,-12.501252,-68.90854)" />
    <linearGradient
       inkscape:collect="always"
       id="linearGradient886">
      <stop
         style="stop-color:#3465a4;stop-opacity:1"
         offset="0"
         id="stop882" />
      <stop
         style="stop-color:#729fcf;stop-opacity:1"
         offset="0.48468637"
         id="stop1402" />
      <stop
         style="stop-color:#31609b;stop-opacity:1;"
         offset="1"
         id="stop884" />
    </linearGradient>
    <filter
       inkscape:collect="always"
       style="color-interpolation-filters:sRGB"
       id="filter1881"
       x="-0.09064882"
       width="1.1812976"
       y="-0.40803665"
       height="1.8160733">
      <feGaussianBlur
         inkscape:collect="always"
         stdDeviation="0.85615684"
         id="feGaussianBlur1883" />
    </filter>
    <inkscape:path-effect
       effect="fillet_chamfer"
       id="path-effect1331"
       is_visible="true"
       lpeversion="1"
       satellites_param="F,0,0,1,0,2.1166667,0,1 @ F,0,0,1,0,2.1166667,0,1 @ F,0,0,1,0,2.1166667,0,1 @ F,0,0,1,0,2.1166667,0,1"
       unit="px"
       method="arc"
       mode="F"
       radius="8"
       chamfer_steps="1"
       flexible="false"
       use_knot_distance="true"
       apply_no_radius="true"
       apply_with_radius="true"
       only_selected="false"
       hide_knots="false"
       nodesatellites_param="F,0,0,1,0,2.1166667,0,1 @ F,0,0,1,0,2.1166667,0,1 @ F,0,0,1,0,2.1166667,0,1 @ F,0,0,1,0,2.1166667,0,1" />
    <linearGradient
       inkscape:collect="always"
       xlink:href="#linearGradient852"
       id="linearGradient854-7"
       x1="76.788559"
       y1="222.65123"
       x2="92.097359"
       y2="268.94839"
       gradientUnits="userSpaceOnUse"
       gradientTransform="matrix(0.35313239,0,0,0.35449418,-12.519905,-68.90854)" />
    <linearGradient
       inkscape:collect="always"
       id="linearGradient852">
      <stop
         style="stop-color:#83a7d8;stop-opacity:1;"
         offset="0"
         id="stop848" />
      <stop
         style="stop-color:#487fc6;stop-opacity:1;"
         offset="1"
         id="stop850" />
    </linearGradient>
    <linearGradient
       inkscape:collect="always"
       xlink:href="#linearGradient4393"
       id="linearGradient668-3"
       gradientUnits="userSpaceOnUse"
       gradientTransform="matrix(1.7478098,0,0,1.686832,2.000072,-1749.5261)"
       x1="5"
       y1="1037.3622"
       x2="8"
       y2="1051.3622" />
  </defs>
  <path
     id="rect10"
     style="fill:url(#linearGradient888);fill-opacity:1;stroke-width:0.0579115"
     d="M 3.49498,5 C 2.669271,5 2,5.671909 2,6.500718 V 7.979275 25.499267 C 2,26.328047 2.669271,27 3.49498,27 h 25.010093 c 0.825606,0 1.494844,-0.671948 1.494844,-1.500733 L 29.997517,9.595912 C 29.933987,8.773905 30.029037,6.87587 27.226246,6.87587 H 14.507014 c 0.01168,0 -0.921894,-0.84414 -1.752933,-1.347326 C 12.090173,5.093715 11.193142,5 11.193142,5 Z"
     sodipodi:nodetypes="scccscccccccs" />
  <path
     style="opacity:0.309598;fill:#000000;fill-opacity:1;stroke:none;stroke-width:0.144851;stroke-opacity:1;filter:url(#filter1881)"
     id="rect873"
     width="22.667437"
     height="5.0357642"
     x="46.507095"
     y="222.89639"
     transform="matrix(0.50789029,0,0,0.68368449,-20.53653,-142.10559)"
     inkscape:path-effect="#path-effect1331"
     d="m 48.623762,222.89639 h 18.434103 a 2.1166667,2.1166667 45 0 1 2.116667,2.11667 v 0.80243 a 2.1166667,2.1166667 135 0 1 -2.116667,2.11667 l -18.434103,0 a 2.1166667,2.1166667 45 0 1 -2.116667,-2.11667 v -0.80243 a 2.1166667,2.1166667 135 0 1 2.116667,-2.11667 z"
     sodipodi:type="rect" />
  <path
     id="rect851"
     style="fill:#3465a4;fill-opacity:1;stroke-width:0.0936051"
     d="m 14.478406,8.480364 v 1.48729 h -3.486275 c 1.721978,-0.0044 2.184436,-0.510027 3.486275,-1.48729 z m 0,0 h 13.956057 c 0.822383,-0.0039 1.562288,0.662645 1.565449,1.48729 H 14.478406 Z M 3.495072,9.967654 h 26.504845 v 15.064508 c 0,0.827933 -0.669238,1.499059 -1.49485,1.499059 H 3.495072 c -0.825709,0 -1.494981,-0.671126 -1.494981,-1.499059 V 11.466805 c 0,-0.827977 0.669272,-1.499151 1.494981,-1.499151 z"
     sodipodi:nodetypes="cccccccccccccsccc" />
  <path
     id="rect851-3"
     style="fill:url(#linearGradient854-7);fill-opacity:1;stroke-width:0.0936449"
     d="m 14.651856,9.072604 -0.03785,1.554976 -3.447804,-0.0661 c 1.722017,-0.0044 2.184388,-0.51062 3.486203,-1.488881 z m 0,0 h 13.853231 c 0.822364,-0.0039 1.491673,0.663307 1.494864,1.488881 l -15.386498,0.0661 z m -11.15676,1.488881 h 26.50486 v 14.471329 c 0,0.828852 -0.669248,1.500733 -1.494869,1.500728 H 3.495096 c -0.825719,5e-6 -1.49499,-0.671876 -1.49499,-1.500728 V 12.062237 c 0,-0.828819 0.669271,-1.500753 1.49499,-1.500752 z"
     sodipodi:nodetypes="cccccccccccsccssc" />
  <rect
     style="fill:#ffffff;fill-opacity:0.25;stroke:#e5e9ef;stroke-width:0.28132;stroke-opacity:0.5;paint-order:markers fill stroke"
     id="rect2191"
     width="27.758579"
     height="3.5499221e-07"
     x="2.1207414"
     y="23.629253" />
  <rect
     style="fill:#ffffff;fill-opacity:0.5;stroke:#e5e9ef;stroke-width:0.28132;stroke-opacity:0.5;paint-order:markers fill stroke"
     id="rect2191-0-9"
     width="27.758579"
     height="3.5499221e-07"
     x="2.1207414"
     y="25.088835" />
  <path
     style="opacity:0.181;fill:url(#linearGradient668-3);fill-opacity:1;fill-rule:evenodd;stroke:none;stroke-width:1.71705px;stroke-linecap:butt;stroke-linejoin:miter;stroke-opacity:1"
     d="M 3.448326,10.546412 15.98253,23.94524 H 29.965 L 30,10.546412 H 3.476703 Z"
     id="path4152-2-5"
     inkscape:connector-curvature="0"
     sodipodi:nodetypes="cccccc" />
  <path
     style="color:#232629;fill:#ffffff;fill-opacity:1;stroke:none;stroke-width:0.440583"
     d="m 11.172425,13.076355 v 0.442301 h 9.655158 v -0.442301 z m 0,0.884594 v 0.442302 H 11.6113 v -0.442302 z m 1.755482,1.326896 c -0.263325,0 -0.438866,0.176921 -0.438866,0.442293 0,0.243264 0.175541,0.442302 0.438866,0.442302 0.241379,0 0.438875,-0.199038 0.438875,-0.442302 0,-0.265372 -0.197496,-0.442293 -0.438875,-0.442293 z m 1.316616,0 v 0.442293 h 4.827578 v -0.442293 z m 0,0.884595 v 0.442293 h 1.755481 V 16.17244 Z m -1.316616,2.653784 c -0.263325,0 -0.438866,0.176919 -0.438866,0.442297 0,0.243264 0.175541,0.442298 0.438866,0.442298 0.241379,0 0.438875,-0.199034 0.438875,-0.442298 0,-0.265378 -0.197496,-0.442297 -0.438875,-0.442297 z m 1.316616,0 v 0.442297 h 2.194355 v -0.442297 z m 0,0.884595 v 0.442298 h 3.072096 v -0.442298 z m 0,0.884596 v 0.442297 h 6.144186 v -0.442297 z m -3.072098,0.884595 v 0.442297 H 11.6113 V 21.48001 Z m 0,0.884595 v 0.442298 h 9.655158 v -0.442298 z"
     class="ColorScheme-Text"
     id="path7161-0-3" />
</svg>
