<?xml version="1.0" encoding="UTF-8" standalone="no"?>
<svg
   viewBox="0 0 32 32"
   version="1.1"
   id="svg14"
   sodipodi:docname="folder-Reddit.svg"
   inkscape:version="1.2.1 (9c6d41e410, 2022-07-14)"
   xmlns:inkscape="http://www.inkscape.org/namespaces/inkscape"
   xmlns:sodipodi="http://sodipodi.sourceforge.net/DTD/sodipodi-0.dtd"
   xmlns:xlink="http://www.w3.org/1999/xlink"
   xmlns="http://www.w3.org/2000/svg"
   xmlns:svg="http://www.w3.org/2000/svg"
   xmlns:rdf="http://www.w3.org/1999/02/22-rdf-syntax-ns#"
   xmlns:cc="http://creativecommons.org/ns#"
   xmlns:dc="http://purl.org/dc/elements/1.1/">
  <metadata
     id="metadata18">
    <rdf:RDF>
      <cc:Work
         rdf:about="">
        <dc:format>image/svg+xml</dc:format>
        <dc:type
           rdf:resource="http://purl.org/dc/dcmitype/StillImage" />
      </cc:Work>
    </rdf:RDF>
  </metadata>
  <sodipodi:namedview
     pagecolor="#ffffff"
     bordercolor="#666666"
     borderopacity="1"
     objecttolerance="10"
     gridtolerance="10"
     guidetolerance="10"
     inkscape:pageopacity="0"
     inkscape:pageshadow="2"
     inkscape:window-width="1920"
     inkscape:window-height="1004"
     id="namedview16"
     showgrid="false"
     inkscape:zoom="7.375"
     inkscape:cx="15.254237"
     inkscape:cy="16.338983"
     inkscape:window-x="0"
     inkscape:window-y="0"
     inkscape:window-maximized="1"
     inkscape:current-layer="svg14"
     inkscape:document-rotation="0"
     inkscape:showpageshadow="2"
     inkscape:pagecheckerboard="0"
     inkscape:deskcolor="#d1d1d1" />
  <defs
     id="defs3051">
    <style
       type="text/css"
       id="current-color-scheme">.ColorScheme-Text { color:#31363b; }
.ColorScheme-Background { color:#eff0f1; }
.ColorScheme-Highlight { color:#3daee9; }
.ColorScheme-ViewText { color:#31363b; }
.ColorScheme-ViewBackground { color:#fcfcfc; }
.ColorScheme-ViewHover { color:#93cee9; }
.ColorScheme-ViewFocus { color:#3daee9; }
.ColorScheme-ButtonText { color:#31363b; }
.ColorScheme-ButtonBackground { color:#eff0f1; }
.ColorScheme-ButtonHover { color:#93cee9; }
.ColorScheme-ButtonFocus { color:#3daee9; }
</style>
    <linearGradient
       inkscape:collect="always"
       id="linearGradient4393">
      <stop
         style="stop-color:#000000;stop-opacity:1;"
         offset="0"
         id="stop4395" />
      <stop
         style="stop-color:#000000;stop-opacity:0;"
         offset="1"
         id="stop4397" />
    </linearGradient>
    <linearGradient
       inkscape:collect="always"
       xlink:href="#linearGradient886"
       id="linearGradient888"
       x1="75.75985"
       y1="208.49026"
       x2="91.646347"
       y2="264.21182"
       gradientUnits="userSpaceOnUse"
       gradientTransform="matrix(0.35313291,0,0,0.35449418,-12.501253,-68.908542)" />
    <linearGradient
       inkscape:collect="always"
       id="linearGradient886">
      <stop
         style="stop-color:#bb2649;stop-opacity:1;"
         offset="0"
         id="stop882" />
      <stop
         style="stop-color:#e995aa;stop-opacity:1;"
         offset="0.48468637"
         id="stop1402" />
      <stop
         style="stop-color:#a52140;stop-opacity:0.80000001;"
         offset="1"
         id="stop884" />
    </linearGradient>
    <filter
       inkscape:collect="always"
       style="color-interpolation-filters:sRGB"
       id="filter1881"
       x="-0.09064882"
       width="1.1812976"
       y="-0.40803665"
       height="1.8160733">
      <feGaussianBlur
         inkscape:collect="always"
         stdDeviation="0.85615684"
         id="feGaussianBlur1883" />
    </filter>
    <inkscape:path-effect
       effect="fillet_chamfer"
       id="path-effect1331"
       is_visible="true"
       lpeversion="1"
       satellites_param="F,0,0,1,0,2.1166667,0,1 @ F,0,0,1,0,2.1166667,0,1 @ F,0,0,1,0,2.1166667,0,1 @ F,0,0,1,0,2.1166667,0,1"
       unit="px"
       method="arc"
       mode="F"
       radius="8"
       chamfer_steps="1"
       flexible="false"
       use_knot_distance="true"
       apply_no_radius="true"
       apply_with_radius="true"
       only_selected="false"
       hide_knots="false"
       nodesatellites_param="F,0,0,1,0,2.1166667,0,1 @ F,0,0,1,0,2.1166667,0,1 @ F,0,0,1,0,2.1166667,0,1 @ F,0,0,1,0,2.1166667,0,1" />
    <linearGradient
       inkscape:collect="always"
       xlink:href="#linearGradient852"
       id="linearGradient854-7"
       x1="76.788559"
       y1="222.65123"
       x2="112.20527"
       y2="264.21182"
       gradientUnits="userSpaceOnUse"
       gradientTransform="matrix(0.35313291,0,0,0.35449418,-12.519907,-68.908542)" />
    <linearGradient
       inkscape:collect="always"
       id="linearGradient852">
      <stop
         style="stop-color:#dd5575;stop-opacity:1;"
         offset="0"
         id="stop848" />
      <stop
         style="stop-color:#bb2649;stop-opacity:1;"
         offset="1"
         id="stop850" />
    </linearGradient>
    <linearGradient
       inkscape:collect="always"
       xlink:href="#linearGradient4393"
       id="linearGradient668-3"
       gradientUnits="userSpaceOnUse"
       gradientTransform="matrix(1.7478124,0,0,1.686832,2.0000395,-1749.5261)"
       x1="5"
       y1="1037.3622"
       x2="8"
       y2="1051.3622" />
  </defs>
  <path
     id="rect10"
     style="fill:url(#linearGradient888);fill-opacity:1;stroke-width:0.0579115"
     d="M 3.4950025,5 C 2.6692915,5 2.0000195,5.671909 2.0000195,6.500718 V 7.979275 25.499267 C 2.0000195,26.328047 2.6692915,27 3.4950025,27 H 28.505128 c 0.825614,0 1.494852,-0.671948 1.494852,-1.500733 L 29.99758,9.595913 C 29.93405,8.773905 30.0291,6.87587 27.226304,6.87587 H 14.507036 c 0.01168,0 -0.921895,-0.84414 -1.752935,-1.347326 C 12.090192,5.093715 11.193159,5 11.193159,5 Z"
     sodipodi:nodetypes="scccscccccccs" />
  <path
     style="opacity:0.309598;fill:#000000;fill-opacity:1;stroke:none;stroke-width:0.144851;stroke-opacity:1;filter:url(#filter1881)"
     id="rect873"
     width="22.667437"
     height="5.0357642"
     x="46.507095"
     y="222.89639"
     transform="matrix(0.50789103,0,0,0.68368449,-20.536543,-142.10558)"
     inkscape:path-effect="#path-effect1331"
     d="m 48.623762,222.89639 h 18.434103 a 2.1166667,2.1166667 45 0 1 2.116667,2.11667 v 0.80243 a 2.1166667,2.1166667 135 0 1 -2.116667,2.11667 l -18.434103,0 a 2.1166667,2.1166667 45 0 1 -2.116667,-2.11667 v -0.80243 a 2.1166667,2.1166667 135 0 1 2.116667,-2.11667 z"
     sodipodi:type="rect" />
  <path
     id="rect851"
     style="fill:#d42b52;fill-opacity:1;stroke-width:0.0936051"
     d="m 14.478442,8.480364 v 1.48729 h -3.48628 c 1.721981,-0.0044 2.184444,-0.510027 3.48628,-1.48729 z m 0,0 h 13.956084 c 0.822384,-0.0039 1.562288,0.662645 1.565451,1.48729 H 14.478442 Z M 3.4950935,9.967654 H 29.999981 v 15.064508 c 0,0.827934 -0.669238,1.499059 -1.494852,1.499059 H 3.4950935 c -0.82571,0 -1.494982,-0.671125 -1.494982,-1.499059 V 11.466805 c 0,-0.827977 0.669272,-1.499151 1.494982,-1.499151 z"
     sodipodi:nodetypes="cccccccccccccsccc" />
  <path
     id="rect851-3"
     style="fill:url(#linearGradient854-7);fill-opacity:1;stroke-width:0.0936449"
     d="m 14.651891,9.072604 -0.03785,1.554976 -3.447808,-0.0661 c 1.722019,-0.0044 2.18439,-0.51062 3.486207,-1.488881 z m 0,0 h 13.853256 c 0.822365,-0.0039 1.491676,0.663307 1.494867,1.488881 l -15.386525,0.0661 z M 3.4951185,10.561485 H 30.000019 v 14.471329 c 0,0.828853 -0.669248,1.500733 -1.494872,1.500728 H 3.4951185 c -0.82572,5e-6 -1.494993,-0.671875 -1.494993,-1.500728 V 12.062237 c 0,-0.828819 0.669273,-1.500752 1.494993,-1.500752 z"
     sodipodi:nodetypes="cccccccccccsccssc" />
  <rect
     style="fill:#ffffff;fill-opacity:0.25;stroke:#e5e9ef;stroke-width:0.28132;stroke-opacity:0.5;paint-order:markers fill stroke"
     id="rect2191"
     width="27.758621"
     height="3.5499221e-07"
     x="2.1207092"
     y="23.629248" />
  <rect
     style="fill:#ffffff;fill-opacity:0.5;stroke:#e5e9ef;stroke-width:0.28132;stroke-opacity:0.5;paint-order:markers fill stroke"
     id="rect2191-0-9"
     width="27.758621"
     height="3.5499221e-07"
     x="2.1207092"
     y="25.088831" />
  <path
     style="opacity:0.181;fill:url(#linearGradient668-3);fill-opacity:1;fill-rule:evenodd;stroke:none;stroke-width:1.71705px;stroke-linecap:butt;stroke-linejoin:miter;stroke-opacity:1"
     d="M 3.4482955,10.546412 15.982515,23.945241 h 13.982494 l 0.035,-13.398829 H 3.4766715 Z"
     id="path4152-2-5"
     inkscape:connector-curvature="0"
     sodipodi:nodetypes="cccccc" />
  <path
     d="m 21.173043,18.234665 c 0,-0.800417 -0.64614,-1.449551 -1.438251,-1.449551 -0.312089,0 -0.610118,0.1008 -0.85618,0.284285 -0.69818,-0.354848 -1.528346,-0.568496 -2.406484,-0.618898 l 0.574097,-1.598705 1.388317,0.348784 c 0.03003,0.57456 0.504078,1.030129 1.080207,1.030129 0.596055,0 1.082167,-0.489904 1.082167,-1.090608 0,-0.600786 -0.486112,-1.090691 -1.082167,-1.090691 -0.406092,0 -0.760148,0.225777 -0.946198,0.560463 l -1.902398,-0.479825 -0.828133,2.308328 c -0.954172,0.02821 -1.858409,0.245937 -2.612535,0.627006 -0.246063,-0.183488 -0.542056,-0.282239 -0.854155,-0.282239 -0.794137,0.0022 -1.440277,0.653155 -1.440277,1.451522 0,0.391077 0.16003,0.768051 0.434069,1.038245 -0.01796,0.114896 -0.028,0.231841 -0.028,0.348704 0,0.876962 0.508069,1.691478 1.428246,2.29226 0.880171,0.576531 2.046414,0.893029 3.282666,0.893029 1.236258,0 2.400469,-0.316498 3.282591,-0.893029 0.920182,-0.602831 1.428325,-1.417264 1.428325,-2.29226 0,-0.114897 -0.01,-0.229793 -0.02602,-0.34469 0.278026,-0.268143 0.440089,-0.647168 0.440089,-1.042259 z m -7.373466,0.846725 c 0,-0.465729 0.376089,-0.844754 0.838209,-0.844754 0.462048,0 0.838137,0.379025 0.838137,0.844754 0,0.465649 -0.376089,0.844674 -0.838137,0.844674 -0.46212,0 -0.838209,-0.379025 -0.838209,-0.844674 z m 2.306465,2.673172 c -0.650125,0 -1.284233,-0.185457 -1.832309,-0.53621 l 0.322018,-0.510062 c 0.452118,0.290271 0.976206,0.443518 1.512319,0.443518 0.536128,0 1.058178,-0.153247 1.512251,-0.443518 l 0.322092,0.510062 c -0.552136,0.350753 -1.186244,0.53621 -1.836371,0.53621 z m 1.486303,-1.828498 c -0.462119,0 -0.838132,-0.379025 -0.838132,-0.844674 0,-0.465729 0.376013,-0.844754 0.838132,-0.844754 0.462122,0 0.838133,0.379025 0.838133,0.844754 0,0.465649 -0.376011,0.844674 -0.838133,0.844674 z m 0,0"
     id="path2-3-2-3-3-9"
     style="fill:#ebfaff;fill-opacity:1;stroke-width:0.0200819" />
</svg>
