<?xml version="1.0" encoding="UTF-8" standalone="no"?>
<svg
   viewBox="0 0 32 32"
   version="1.1"
   id="svg12"
   sodipodi:docname="folder-godot.svg"
   inkscape:version="1.2.1 (9c6d41e410, 2022-07-14)"
   xmlns:inkscape="http://www.inkscape.org/namespaces/inkscape"
   xmlns:sodipodi="http://sodipodi.sourceforge.net/DTD/sodipodi-0.dtd"
   xmlns:xlink="http://www.w3.org/1999/xlink"
   xmlns="http://www.w3.org/2000/svg"
   xmlns:svg="http://www.w3.org/2000/svg"
   xmlns:rdf="http://www.w3.org/1999/02/22-rdf-syntax-ns#"
   xmlns:cc="http://creativecommons.org/ns#"
   xmlns:dc="http://purl.org/dc/elements/1.1/">
  <metadata
     id="metadata16">
    <rdf:RDF>
      <cc:Work
         rdf:about="">
        <dc:format>image/svg+xml</dc:format>
        <dc:type
           rdf:resource="http://purl.org/dc/dcmitype/StillImage" />
      </cc:Work>
    </rdf:RDF>
  </metadata>
  <sodipodi:namedview
     pagecolor="#ffffff"
     bordercolor="#666666"
     borderopacity="1"
     objecttolerance="10"
     gridtolerance="10"
     guidetolerance="10"
     inkscape:pageopacity="0"
     inkscape:pageshadow="2"
     inkscape:window-width="1920"
     inkscape:window-height="1004"
     id="namedview14"
     showgrid="true"
     inkscape:zoom="10.429825"
     inkscape:cx="-14.046257"
     inkscape:cy="31.400335"
     inkscape:window-x="0"
     inkscape:window-y="0"
     inkscape:window-maximized="1"
     inkscape:current-layer="svg12"
     inkscape:showpageshadow="2"
     inkscape:pagecheckerboard="0"
     inkscape:deskcolor="#d1d1d1">
    <inkscape:grid
       type="xygrid"
       id="grid18219" />
  </sodipodi:namedview>
  <defs
     id="defs3051">
    <style
       type="text/css"
       id="current-color-scheme">.ColorScheme-Text { color:#31363b; }
.ColorScheme-Background { color:#eff0f1; }
.ColorScheme-Highlight { color:#3daee9; }
.ColorScheme-ViewText { color:#31363b; }
.ColorScheme-ViewBackground { color:#fcfcfc; }
.ColorScheme-ViewHover { color:#93cee9; }
.ColorScheme-ViewFocus { color:#3daee9; }
.ColorScheme-ButtonText { color:#31363b; }
.ColorScheme-ButtonBackground { color:#eff0f1; }
.ColorScheme-ButtonHover { color:#93cee9; }
.ColorScheme-ButtonFocus { color:#3daee9; }
</style>
    <linearGradient
       inkscape:collect="always"
       id="linearGradient4393">
      <stop
         style="stop-color:#000000;stop-opacity:1;"
         offset="0"
         id="stop4395" />
      <stop
         style="stop-color:#000000;stop-opacity:0;"
         offset="1"
         id="stop4397" />
    </linearGradient>
    <linearGradient
       inkscape:collect="always"
       xlink:href="#linearGradient886"
       id="linearGradient888"
       x1="75.75985"
       y1="208.49026"
       x2="91.646347"
       y2="264.21182"
       gradientUnits="userSpaceOnUse"
       gradientTransform="matrix(0.35313235,0,0,0.35449418,-12.501249,-68.908536)" />
    <linearGradient
       inkscape:collect="always"
       id="linearGradient886">
      <stop
         style="stop-color:#ffccaa;stop-opacity:1"
         offset="0"
         id="stop882" />
      <stop
         style="stop-color:#80e5ff;stop-opacity:1"
         offset="0.48468637"
         id="stop1402" />
      <stop
         style="stop-color:#ff80e5;stop-opacity:0.80000001;"
         offset="1"
         id="stop884" />
    </linearGradient>
    <filter
       inkscape:collect="always"
       style="color-interpolation-filters:sRGB"
       id="filter1881"
       x="-0.09064882"
       width="1.1812976"
       y="-0.40803665"
       height="1.8160733">
      <feGaussianBlur
         inkscape:collect="always"
         stdDeviation="0.85615684"
         id="feGaussianBlur1883" />
    </filter>
    <inkscape:path-effect
       effect="fillet_chamfer"
       id="path-effect1331"
       is_visible="true"
       lpeversion="1"
       satellites_param="F,0,0,1,0,2.1166667,0,1 @ F,0,0,1,0,2.1166667,0,1 @ F,0,0,1,0,2.1166667,0,1 @ F,0,0,1,0,2.1166667,0,1"
       unit="px"
       method="arc"
       mode="F"
       radius="8"
       chamfer_steps="1"
       flexible="false"
       use_knot_distance="true"
       apply_no_radius="true"
       apply_with_radius="true"
       only_selected="false"
       hide_knots="false"
       nodesatellites_param="F,0,0,1,0,2.1166667,0,1 @ F,0,0,1,0,2.1166667,0,1 @ F,0,0,1,0,2.1166667,0,1 @ F,0,0,1,0,2.1166667,0,1" />
    <linearGradient
       inkscape:collect="always"
       xlink:href="#linearGradient1595"
       id="linearGradient1587"
       x1="3.0002284"
       y1="35.104172"
       x2="60.999962"
       y2="35.104172"
       gradientUnits="userSpaceOnUse"
       gradientTransform="matrix(0.48275785,0,0,0.48652739,0.551708,0.4266425)" />
    <linearGradient
       inkscape:collect="always"
       id="linearGradient1595">
      <stop
         style="stop-color:#ffb888;stop-opacity:1;"
         offset="0"
         id="stop1589" />
      <stop
         style="stop-color:#80e5ff;stop-opacity:1"
         offset="0.48468637"
         id="stop1591" />
      <stop
         style="stop-color:#ff80e5;stop-opacity:0.80000001;"
         offset="1"
         id="stop1593" />
    </linearGradient>
    <linearGradient
       inkscape:collect="always"
       xlink:href="#linearGradient852"
       id="linearGradient854-7"
       x1="60.785271"
       y1="237.0743"
       x2="109.3987"
       y2="265.49255"
       gradientUnits="userSpaceOnUse"
       gradientTransform="matrix(0.35313235,0,0,0.35449418,-12.519903,-68.908536)" />
    <linearGradient
       inkscape:collect="always"
       id="linearGradient852">
      <stop
         style="stop-color:#ffccaa;stop-opacity:1"
         offset="0"
         id="stop848" />
      <stop
         style="stop-color:#ff99ff;stop-opacity:1;"
         offset="1"
         id="stop850" />
    </linearGradient>
    <linearGradient
       inkscape:collect="always"
       xlink:href="#linearGradient4393"
       id="linearGradient668-3"
       gradientUnits="userSpaceOnUse"
       gradientTransform="matrix(1.7478096,0,0,1.686832,2.000073,-1749.5261)"
       x1="5"
       y1="1037.3622"
       x2="8"
       y2="1051.3622" />
  </defs>
  <path
     id="rect10"
     style="fill:url(#linearGradient888);fill-opacity:1;stroke-width:0.0579115"
     d="M 3.49498,5 C 2.669271,5 2,5.6719089 2,6.5007181 V 7.9792748 25.499267 C 2,26.328047 2.669271,27 3.49498,27 h 25.010088 c 0.825612,0 1.49485,-0.671948 1.49485,-1.500733 L 29.997518,9.5959129 C 29.933988,8.7739054 30.029038,6.8758696 27.226246,6.8758696 H 14.50701 c 0.01168,0 -0.921893,-0.8441396 -1.752932,-1.3473257 C 12.090157,5.0937149 11.193125,5 11.193125,5 Z"
     sodipodi:nodetypes="scccscccccccs" />
  <path
     style="opacity:0.309598;fill:#000000;fill-opacity:1;stroke:none;stroke-width:0.144851;stroke-opacity:1;filter:url(#filter1881)"
     id="rect873"
     width="22.667437"
     height="5.0357642"
     x="46.507095"
     y="222.89639"
     transform="matrix(0.50789023,0,0,0.68368449,-20.536527,-142.10558)"
     inkscape:path-effect="#path-effect1331"
     d="m 48.623762,222.89639 h 18.434103 a 2.1166667,2.1166667 45 0 1 2.116667,2.11667 v 0.80243 a 2.1166667,2.1166667 135 0 1 -2.116667,2.11667 l -18.434103,0 a 2.1166667,2.1166667 45 0 1 -2.116667,-2.11667 v -0.80243 a 2.1166667,2.1166667 135 0 1 2.116667,-2.11667 z"
     sodipodi:type="rect" />
  <path
     id="rect851"
     style="fill:url(#linearGradient1587);fill-opacity:1;stroke-width:0.0936051"
     d="m 14.478403,8.480364 v 1.48729 h -3.486274 c 1.721978,-0.0044 2.18444,-0.5100268 3.486274,-1.48729 z m 0,0 h 13.956062 c 0.822382,-0.00389 1.562286,0.6626454 1.565448,1.48729 H 14.478403 Z M 3.495072,9.967654 h 26.504846 v 15.064508 c 0,0.827934 -0.669238,1.499059 -1.49485,1.499059 H 3.495072 c -0.825709,0 -1.494981,-0.671125 -1.494981,-1.499059 V 11.466805 c 0,-0.827977 0.669272,-1.499151 1.494981,-1.499151 z"
     sodipodi:nodetypes="cccccccccccccsccc" />
  <path
     id="rect851-3"
     style="fill:url(#linearGradient854-7);fill-opacity:1;stroke-width:0.0936449"
     d="M 14.651853,9.072604 14.614003,10.62758 11.1662,10.56149 c 1.722016,-0.0044 2.184387,-0.510621 3.486202,-1.4888813 z m 0,0 h 13.853234 c 0.822364,-0.00389 1.491674,0.6633072 1.494865,1.488881 L 14.61345,10.627575 Z M 3.495096,10.561485 h 26.504861 v 14.471329 c 0,0.828853 -0.669247,1.500733 -1.494869,1.500728 H 3.495096 c -0.825718,5e-6 -1.49499,-0.671875 -1.49499,-1.500728 V 12.062237 c 0,-0.828819 0.669272,-1.500752 1.49499,-1.500752 z"
     sodipodi:nodetypes="cccccccccccsccssc" />
  <path
     style="opacity:0.181;fill:url(#linearGradient668-3);fill-opacity:1;fill-rule:evenodd;stroke:none;stroke-width:1.71705px;stroke-linecap:butt;stroke-linejoin:miter;stroke-opacity:1"
     d="m 3.448327,10.546412 12.5342,13.398828 H 29.965 L 30,10.546412 H 3.476703 Z"
     id="path4152-2-5"
     inkscape:connector-curvature="0"
     sodipodi:nodetypes="cccccc" />
  <rect
     style="fill:#ffffff;fill-opacity:0.25;stroke:#e5e9ef;stroke-width:0.28132;stroke-opacity:0.5;paint-order:markers fill stroke"
     id="rect2191"
     width="27.758577"
     height="3.5499221e-07"
     x="2.1207418"
     y="23.629265" />
  <rect
     style="fill:#ffffff;fill-opacity:0.5;stroke:#e5e9ef;stroke-width:0.28132;stroke-opacity:0.5;paint-order:markers fill stroke"
     id="rect2191-0-9"
     width="27.758577"
     height="3.5499221e-07"
     x="2.1207418"
     y="25.088848" />
  <path
     style="color:#232629;fill:#ffffff;fill-opacity:1;stroke:none;stroke-width:0.484639"
     d="m 14.841338,13.076355 -1.448271,0.486527 v 1.216319 l -0.724137,0.729791 -0.820689,-0.632486 -0.868964,1.119013 0.482758,0.973055 v 2.919164 h 1.931032 v 0.973055 h 1.448271 v -0.973055 h 1.931032 v 0.973055 h 1.448273 v -0.973055 h 1.931032 v -2.919164 l 0.482757,-0.973055 -0.868964,-1.119013 -0.820688,0.632486 -0.724137,-0.729791 v -1.216319 c 0,0 -1.013791,-0.389222 -1.448273,-0.486527 -0.193104,0.291916 -0.337931,0.632485 -0.482758,0.973055 h -0.965516 c -0.144827,-0.34057 -0.482758,-0.973055 -0.482758,-0.973055 z m -1.206894,3.892219 a 1.2068946,1.2163185 0 0 1 1.206894,1.216318 1.2068946,1.2163185 0 0 1 -1.206894,1.216319 1.2068946,1.2163185 0 0 1 -1.206893,-1.216319 1.2068946,1.2163185 0 0 1 1.206893,-1.216318 z m 4.34482,0 a 1.2068946,1.2163185 0 0 1 1.206895,1.216318 1.2068946,1.2163185 0 0 1 -1.206895,1.216319 1.2068946,1.2163185 0 0 1 -1.206894,-1.216319 1.2068946,1.2163185 0 0 1 1.206894,-1.216318 z m -4.34482,0.486527 a 0.72413678,0.72979109 0 0 0 -0.724135,0.729791 0.72413678,0.72979109 0 0 0 0.724135,0.729791 0.72413678,0.72979109 0 0 0 0.724136,-0.729791 0.72413678,0.72979109 0 0 0 -0.724136,-0.729791 z m 2.17241,0 c 0.241379,0 0.482758,0.243264 0.482758,0.486528 v 0.973054 c 0,0.243264 -0.241379,0.486528 -0.482758,0.486528 -0.241379,0 -0.482758,-0.243264 -0.482758,-0.486528 v -0.973054 c 0,-0.243264 0.21531,-0.486528 0.482758,-0.486528 z m 2.17241,0 a 0.72413678,0.72979109 0 0 0 -0.724137,0.729791 0.72413678,0.72979109 0 0 0 0.724137,0.729791 0.72413678,0.72979109 0 0 0 0.724137,-0.729791 0.72413678,0.72979109 0 0 0 -0.724137,-0.729791 z m -6.517229,2.919165 v 0.243263 c 0,1.605541 1.979307,2.189374 4.344819,2.189374 v 0 0 c 2.365513,0 4.344821,-0.729792 4.344821,-2.335332 0,-0.04865 0,0.04865 0,-0.0973 h -1.448274 v 0.973054 h -2.413789 v -0.973054 h -0.965515 v 0.973054 h -2.413788 v -0.973054 z"
     class="ColorScheme-Text"
     id="path16229-3" />
</svg>
