<?xml version="1.0" encoding="UTF-8" standalone="no"?>
<svg
   viewBox="0 0 32 32"
   version="1.1"
   id="svg12"
   sodipodi:docname="folder-paint.svg"
   inkscape:version="1.2.1 (9c6d41e410, 2022-07-14)"
   xmlns:inkscape="http://www.inkscape.org/namespaces/inkscape"
   xmlns:sodipodi="http://sodipodi.sourceforge.net/DTD/sodipodi-0.dtd"
   xmlns:xlink="http://www.w3.org/1999/xlink"
   xmlns="http://www.w3.org/2000/svg"
   xmlns:svg="http://www.w3.org/2000/svg"
   xmlns:rdf="http://www.w3.org/1999/02/22-rdf-syntax-ns#"
   xmlns:cc="http://creativecommons.org/ns#"
   xmlns:dc="http://purl.org/dc/elements/1.1/">
  <metadata
     id="metadata16">
    <rdf:RDF>
      <cc:Work
         rdf:about="">
        <dc:format>image/svg+xml</dc:format>
        <dc:type
           rdf:resource="http://purl.org/dc/dcmitype/StillImage" />
      </cc:Work>
    </rdf:RDF>
  </metadata>
  <sodipodi:namedview
     pagecolor="#ffffff"
     bordercolor="#666666"
     borderopacity="1"
     objecttolerance="10"
     gridtolerance="10"
     guidetolerance="10"
     inkscape:pageopacity="0"
     inkscape:pageshadow="2"
     inkscape:window-width="1920"
     inkscape:window-height="1004"
     id="namedview14"
     showgrid="true"
     inkscape:zoom="10.429825"
     inkscape:cx="-16.34735"
     inkscape:cy="10.882254"
     inkscape:window-x="0"
     inkscape:window-y="0"
     inkscape:window-maximized="1"
     inkscape:current-layer="svg12"
     inkscape:showpageshadow="2"
     inkscape:pagecheckerboard="0"
     inkscape:deskcolor="#d1d1d1">
    <inkscape:grid
       type="xygrid"
       id="grid18219" />
  </sodipodi:namedview>
  <defs
     id="defs3051">
    <style
       type="text/css"
       id="current-color-scheme">.ColorScheme-Text { color:#31363b; }
.ColorScheme-Background { color:#eff0f1; }
.ColorScheme-Highlight { color:#3daee9; }
.ColorScheme-ViewText { color:#31363b; }
.ColorScheme-ViewBackground { color:#fcfcfc; }
.ColorScheme-ViewHover { color:#93cee9; }
.ColorScheme-ViewFocus { color:#3daee9; }
.ColorScheme-ButtonText { color:#31363b; }
.ColorScheme-ButtonBackground { color:#eff0f1; }
.ColorScheme-ButtonHover { color:#93cee9; }
.ColorScheme-ButtonFocus { color:#3daee9; }
</style>
    <linearGradient
       inkscape:collect="always"
       id="linearGradient4393">
      <stop
         style="stop-color:#000000;stop-opacity:1;"
         offset="0"
         id="stop4395" />
      <stop
         style="stop-color:#000000;stop-opacity:0;"
         offset="1"
         id="stop4397" />
    </linearGradient>
    <linearGradient
       inkscape:collect="always"
       xlink:href="#linearGradient886"
       id="linearGradient888"
       x1="75.75985"
       y1="208.49026"
       x2="91.646347"
       y2="264.21182"
       gradientUnits="userSpaceOnUse"
       gradientTransform="matrix(0.3531324,0,0,0.35449418,-12.501254,-68.90853)" />
    <linearGradient
       inkscape:collect="always"
       id="linearGradient886">
      <stop
         style="stop-color:#c6afe9;stop-opacity:1"
         offset="0"
         id="stop882" />
      <stop
         style="stop-color:#55ddff;stop-opacity:1"
         offset="0.48468637"
         id="stop1402" />
      <stop
         style="stop-color:#00aad4;stop-opacity:1"
         offset="1"
         id="stop884" />
    </linearGradient>
    <filter
       inkscape:collect="always"
       style="color-interpolation-filters:sRGB"
       id="filter1881"
       x="-0.09064882"
       width="1.1812976"
       y="-0.40803665"
       height="1.8160733">
      <feGaussianBlur
         inkscape:collect="always"
         stdDeviation="0.85615684"
         id="feGaussianBlur1883" />
    </filter>
    <inkscape:path-effect
       effect="fillet_chamfer"
       id="path-effect1331"
       is_visible="true"
       lpeversion="1"
       satellites_param="F,0,0,1,0,2.1166667,0,1 @ F,0,0,1,0,2.1166667,0,1 @ F,0,0,1,0,2.1166667,0,1 @ F,0,0,1,0,2.1166667,0,1"
       unit="px"
       method="arc"
       mode="F"
       radius="8"
       chamfer_steps="1"
       flexible="false"
       use_knot_distance="true"
       apply_no_radius="true"
       apply_with_radius="true"
       only_selected="false"
       hide_knots="false"
       nodesatellites_param="F,0,0,1,0,2.1166667,0,1 @ F,0,0,1,0,2.1166667,0,1 @ F,0,0,1,0,2.1166667,0,1 @ F,0,0,1,0,2.1166667,0,1" />
    <linearGradient
       inkscape:collect="always"
       xlink:href="#linearGradient852"
       id="linearGradient1493"
       x1="3.0001376"
       y1="35.104172"
       x2="60.999863"
       y2="35.104172"
       gradientUnits="userSpaceOnUse"
       gradientTransform="matrix(0.48275792,0,0,0.48652739,0.551751,0.426643)" />
    <linearGradient
       inkscape:collect="always"
       id="linearGradient852">
      <stop
         style="stop-color:#ffe680;stop-opacity:1"
         offset="0"
         id="stop848" />
      <stop
         style="stop-color:#5fd38d;stop-opacity:1"
         offset="0.12825146"
         id="stop1485" />
      <stop
         style="stop-color:#ffaacc;stop-opacity:1"
         offset="0.5218882"
         id="stop1483" />
      <stop
         style="stop-color:#00ccff;stop-opacity:1"
         offset="1"
         id="stop850" />
    </linearGradient>
    <linearGradient
       inkscape:collect="always"
       xlink:href="#linearGradient1418"
       id="linearGradient854-7"
       x1="56.250744"
       y1="208.49011"
       x2="116.17448"
       y2="269.22797"
       gradientUnits="userSpaceOnUse"
       gradientTransform="matrix(0.3531324,0,0,0.35449418,-12.519907,-68.90853)" />
    <linearGradient
       inkscape:collect="always"
       id="linearGradient1418">
      <stop
         style="stop-color:#ffe680;stop-opacity:1"
         offset="0"
         id="stop1410" />
      <stop
         style="stop-color:#5fd38d;stop-opacity:1"
         offset="0.12825146"
         id="stop1412" />
      <stop
         style="stop-color:#ccaaff;stop-opacity:1"
         offset="0.61742812"
         id="stop1414" />
      <stop
         style="stop-color:#00ccff;stop-opacity:1"
         offset="1"
         id="stop1416" />
    </linearGradient>
    <linearGradient
       inkscape:collect="always"
       xlink:href="#linearGradient4393"
       id="linearGradient668-3"
       gradientUnits="userSpaceOnUse"
       gradientTransform="matrix(1.7478098,0,0,1.686832,2.000072,-1749.5262)"
       x1="5"
       y1="1037.3622"
       x2="8"
       y2="1051.3622" />
  </defs>
  <path
     id="rect10"
     style="fill:url(#linearGradient888);fill-opacity:1;stroke-width:0.0579115"
     d="M 3.494981,5 C 2.66927,5 2,5.671909 2,6.500718 V 7.979275 25.499267 C 2,26.328047 2.66927,27 3.494981,27 h 25.010086 c 0.825613,0 1.494851,-0.671948 1.494851,-1.500733 L 29.997518,9.595913 C 29.933988,8.773905 30.029038,6.87587 27.226246,6.87587 H 14.507014 c 0.01168,0 -0.921894,-0.84414 -1.752933,-1.347326 C 12.090173,5.093715 11.193141,5 11.193141,5 Z"
     sodipodi:nodetypes="scccscccccccs" />
  <path
     style="opacity:0.309598;fill:#000000;fill-opacity:1;stroke:none;stroke-width:0.144851;stroke-opacity:1;filter:url(#filter1881)"
     id="rect873"
     width="22.667437"
     height="5.0357642"
     x="46.507095"
     y="222.89639"
     transform="matrix(0.5078903,0,0,0.68368449,-20.536532,-142.10557)"
     inkscape:path-effect="#path-effect1331"
     d="m 48.623762,222.89639 h 18.434103 a 2.1166667,2.1166667 45 0 1 2.116667,2.11667 v 0.80243 a 2.1166667,2.1166667 135 0 1 -2.116667,2.11667 l -18.434103,0 a 2.1166667,2.1166667 45 0 1 -2.116667,-2.11667 v -0.80243 a 2.1166667,2.1166667 135 0 1 2.116667,-2.11667 z"
     sodipodi:type="rect" />
  <path
     id="rect851"
     style="fill:url(#linearGradient1493);fill-opacity:1;stroke-width:0.0936051"
     d="m 14.478405,8.480364 v 1.48729 H 10.99213 c 1.721979,-0.0044 2.184437,-0.510027 3.486275,-1.48729 z m 0,0 h 13.956059 c 0.822383,-0.0039 1.562291,0.662645 1.565449,1.48729 H 14.478405 Z M 3.495072,9.967654 h 26.504845 v 15.064508 c 0,0.827934 -0.669237,1.499059 -1.49485,1.499059 H 3.495072 c -0.82571,0 -1.494981,-0.671125 -1.494981,-1.499059 V 11.466805 c 0,-0.827977 0.669271,-1.499151 1.494981,-1.499151 z"
     sodipodi:nodetypes="cccccccccccccsccc" />
  <path
     id="rect851-3"
     style="fill:url(#linearGradient854-7);fill-opacity:1;stroke-width:0.0936449"
     d="m 14.651856,9.072604 -0.03785,1.554976 -3.447808,-0.06609 c 1.722021,-0.0044 2.184392,-0.51062 3.486207,-1.488881 z m 0,0 h 13.853231 c 0.822364,-0.0039 1.491674,0.663307 1.494864,1.488881 l -15.386499,0.06609 z m -11.15676,1.488881 h 26.50486 v 14.471329 c 0,0.828853 -0.669242,1.500733 -1.494869,1.500728 H 3.495096 c -0.825719,5e-6 -1.49499,-0.671875 -1.49499,-1.500728 V 12.062237 c 0,-0.828819 0.669271,-1.500752 1.49499,-1.500752 z"
     sodipodi:nodetypes="cccccccccccsccssc" />
  <rect
     style="fill:#ffffff;fill-opacity:0.987883;stroke:#e5e9ef;stroke-width:0.28132;stroke-opacity:1;paint-order:markers fill stroke"
     id="rect2191"
     width="27.758581"
     height="3.5499221e-07"
     x="2.1207421"
     y="23.62925" />
  <rect
     style="fill:#ffffff;fill-opacity:0.972837;stroke:#e5e9ef;stroke-width:0.28132;stroke-opacity:1;paint-order:markers fill stroke"
     id="rect2191-0-9"
     width="27.758581"
     height="3.5499221e-07"
     x="2.1207421"
     y="25.088833" />
  <path
     style="opacity:0.181;fill:url(#linearGradient668-3);fill-opacity:1;fill-rule:evenodd;stroke:none;stroke-width:1.71705px;stroke-linecap:butt;stroke-linejoin:miter;stroke-opacity:1"
     d="M 3.448326,10.546412 15.982529,23.94524 H 29.965 L 30,10.546412 H 3.476703 Z"
     id="path4152-2-5"
     inkscape:connector-curvature="0"
     sodipodi:nodetypes="cccccc" />
  <path
     style="color:#232629;fill:#ffffff;fill-opacity:1;stroke:none;stroke-width:0.38248"
     d="m 21.071852,11.616773 c -0.685803,0.07676 -6.172102,5.874689 -6.172102,5.874689 l -1.752519,1.958242 c -0.228632,0.07681 -0.666052,0.0083 -0.91444,0.115198 -0.609597,0.230378 -0.990573,0.491088 -1.295323,1.343879 -0.266718,0.729556 0.495277,1.981318 1.142917,1.766286 -0.304736,0 -0.68576,-0.422377 -0.495301,-0.729527 0.381014,-0.729551 1.885979,-0.569423 1.828773,-2.188624 l 1.905036,-1.804693 c 0,0 6.210165,-5.874709 5.829189,-6.258689 h -0.03845 z m -2.01928,5.874689 c -0.228554,0 -0.609588,0.384009 -1.371577,1.535927 -0.723884,1.228701 -2.628819,2.073421 -2.514537,0.883071 0.0384,-0.307126 -0.68576,-0.191932 -1.371582,-0.191932 0,2.073401 -1.169207,1.53582 -1.866821,2.418958 -0.07624,0.691187 3.124121,1.104682 4.838611,-0.07677 2.057352,-1.420719 2.476452,-3.340548 2.514514,-3.993303 0,-0.345567 -0.07618,-0.57595 -0.228608,-0.57595 z m -2.705049,1.49753 c 0,0.115184 -0.266664,0.03856 -0.381004,0.115184 -0.266631,0.153582 -0.390088,0.383629 -0.304746,0.537566 0.07615,0.153538 0.342846,0.153538 0.609592,0 0.266679,-0.153611 0.390237,-0.383984 0.304741,-0.537566 -0.03811,-0.07679 -0.114286,-0.115184 -0.228583,-0.115184 z"
     class="ColorScheme-Text"
     id="path10248-1-7" />
</svg>
