<?xml version="1.0" encoding="UTF-8" standalone="no"?>
<svg
   viewBox="0 0 32 32"
   version="1.1"
   id="svg12"
   sodipodi:docname="folder-rpm.svg"
   inkscape:version="1.2.1 (9c6d41e410, 2022-07-14)"
   xmlns:inkscape="http://www.inkscape.org/namespaces/inkscape"
   xmlns:sodipodi="http://sodipodi.sourceforge.net/DTD/sodipodi-0.dtd"
   xmlns:xlink="http://www.w3.org/1999/xlink"
   xmlns="http://www.w3.org/2000/svg"
   xmlns:svg="http://www.w3.org/2000/svg"
   xmlns:rdf="http://www.w3.org/1999/02/22-rdf-syntax-ns#"
   xmlns:cc="http://creativecommons.org/ns#"
   xmlns:dc="http://purl.org/dc/elements/1.1/">
  <metadata
     id="metadata16">
    <rdf:RDF>
      <cc:Work
         rdf:about="">
        <dc:format>image/svg+xml</dc:format>
        <dc:type
           rdf:resource="http://purl.org/dc/dcmitype/StillImage" />
      </cc:Work>
    </rdf:RDF>
  </metadata>
  <sodipodi:namedview
     pagecolor="#ffffff"
     bordercolor="#666666"
     borderopacity="1"
     objecttolerance="10"
     gridtolerance="10"
     guidetolerance="10"
     inkscape:pageopacity="0"
     inkscape:pageshadow="2"
     inkscape:window-width="1920"
     inkscape:window-height="1004"
     id="namedview14"
     showgrid="true"
     inkscape:zoom="10.429825"
     inkscape:cx="-17.593776"
     inkscape:cy="10.019344"
     inkscape:window-x="0"
     inkscape:window-y="0"
     inkscape:window-maximized="1"
     inkscape:current-layer="svg12"
     inkscape:showpageshadow="2"
     inkscape:pagecheckerboard="0"
     inkscape:deskcolor="#d1d1d1">
    <inkscape:grid
       type="xygrid"
       id="grid18219" />
  </sodipodi:namedview>
  <defs
     id="defs3051">
    <style
       type="text/css"
       id="current-color-scheme">.ColorScheme-Text { color:#31363b; }
.ColorScheme-Background { color:#eff0f1; }
.ColorScheme-Highlight { color:#3daee9; }
.ColorScheme-ViewText { color:#31363b; }
.ColorScheme-ViewBackground { color:#fcfcfc; }
.ColorScheme-ViewHover { color:#93cee9; }
.ColorScheme-ViewFocus { color:#3daee9; }
.ColorScheme-ButtonText { color:#31363b; }
.ColorScheme-ButtonBackground { color:#eff0f1; }
.ColorScheme-ButtonHover { color:#93cee9; }
.ColorScheme-ButtonFocus { color:#3daee9; }
</style>
    <linearGradient
       inkscape:collect="always"
       id="linearGradient4393">
      <stop
         style="stop-color:#000000;stop-opacity:1;"
         offset="0"
         id="stop4395" />
      <stop
         style="stop-color:#000000;stop-opacity:0;"
         offset="1"
         id="stop4397" />
    </linearGradient>
    <linearGradient
       inkscape:collect="always"
       xlink:href="#linearGradient886"
       id="linearGradient888"
       x1="75.75985"
       y1="208.49026"
       x2="91.646347"
       y2="264.21182"
       gradientUnits="userSpaceOnUse"
       gradientTransform="matrix(0.35313291,0,0,0.35449418,-12.501272,-68.90854)" />
    <linearGradient
       inkscape:collect="always"
       id="linearGradient886">
      <stop
         style="stop-color:#bd6165;stop-opacity:1;"
         offset="0"
         id="stop882" />
      <stop
         style="stop-color:#e995aa;stop-opacity:1;"
         offset="0.48468637"
         id="stop1402" />
      <stop
         style="stop-color:#aa454f;stop-opacity:1;"
         offset="1"
         id="stop884" />
    </linearGradient>
    <filter
       inkscape:collect="always"
       style="color-interpolation-filters:sRGB"
       id="filter1881"
       x="-0.09064882"
       width="1.1812976"
       y="-0.40803665"
       height="1.8160733">
      <feGaussianBlur
         inkscape:collect="always"
         stdDeviation="0.85615684"
         id="feGaussianBlur1883" />
    </filter>
    <inkscape:path-effect
       effect="fillet_chamfer"
       id="path-effect1331"
       is_visible="true"
       lpeversion="1"
       satellites_param="F,0,0,1,0,2.1166667,0,1 @ F,0,0,1,0,2.1166667,0,1 @ F,0,0,1,0,2.1166667,0,1 @ F,0,0,1,0,2.1166667,0,1"
       unit="px"
       method="arc"
       mode="F"
       radius="8"
       chamfer_steps="1"
       flexible="false"
       use_knot_distance="true"
       apply_no_radius="true"
       apply_with_radius="true"
       only_selected="false"
       hide_knots="false"
       nodesatellites_param="F,0,0,1,0,2.1166667,0,1 @ F,0,0,1,0,2.1166667,0,1 @ F,0,0,1,0,2.1166667,0,1 @ F,0,0,1,0,2.1166667,0,1" />
    <linearGradient
       inkscape:collect="always"
       xlink:href="#linearGradient852"
       id="linearGradient854-7"
       x1="76.788559"
       y1="222.65123"
       x2="112.20527"
       y2="264.21182"
       gradientUnits="userSpaceOnUse"
       gradientTransform="matrix(0.35313291,0,0,0.35449418,-12.519926,-68.90854)" />
    <linearGradient
       inkscape:collect="always"
       id="linearGradient852">
      <stop
         style="stop-color:#ca7d83;stop-opacity:1;"
         offset="0"
         id="stop848" />
      <stop
         style="stop-color:#ba545e;stop-opacity:1;"
         offset="1"
         id="stop850" />
    </linearGradient>
    <linearGradient
       inkscape:collect="always"
       xlink:href="#linearGradient4393"
       id="linearGradient668-3"
       gradientUnits="userSpaceOnUse"
       gradientTransform="matrix(1.7478124,0,0,1.686832,2.00002,-1749.5261)"
       x1="5"
       y1="1037.3622"
       x2="8"
       y2="1051.3622" />
  </defs>
  <path
     id="rect10"
     style="fill:url(#linearGradient888);fill-opacity:1;stroke-width:0.0579115"
     d="M 3.494983,5 C 2.669272,5 2,5.671909 2,6.500718 V 7.979275 25.499267 C 2,26.328047 2.669272,27 3.494983,27 h 25.010126 c 0.825614,0 1.494852,-0.671948 1.494852,-1.500733 L 29.997561,9.595913 C 29.934031,8.773905 30.029081,6.87587 27.226285,6.87587 H 14.507029 c 0.01168,0 -0.921895,-0.84414 -1.752935,-1.347326 C 12.090185,5.093715 11.193152,5 11.193152,5 Z"
     sodipodi:nodetypes="scccscccccccs" />
  <path
     style="opacity:0.309598;fill:#000000;fill-opacity:1;stroke:none;stroke-width:0.144851;stroke-opacity:1;filter:url(#filter1881)"
     id="rect873"
     width="22.667437"
     height="5.0357642"
     x="46.507095"
     y="222.89639"
     transform="matrix(0.50789103,0,0,0.68368449,-20.536565,-142.10558)"
     inkscape:path-effect="#path-effect1331"
     d="m 48.623762,222.89639 h 18.434103 a 2.1166667,2.1166667 45 0 1 2.116667,2.11667 v 0.80243 a 2.1166667,2.1166667 135 0 1 -2.116667,2.11667 l -18.434103,0 a 2.1166667,2.1166667 45 0 1 -2.116667,-2.11667 v -0.80243 a 2.1166667,2.1166667 135 0 1 2.116667,-2.11667 z"
     sodipodi:type="rect" />
  <path
     id="rect851"
     style="fill:#ba555f;fill-opacity:1;stroke-width:0.0936051"
     d="m 14.478422,8.480364 v 1.48729 h -3.48628 c 1.721981,-0.0044 2.184444,-0.510027 3.48628,-1.48729 z m 0,0 h 13.956084 c 0.822384,-0.0039 1.562288,0.662645 1.565451,1.48729 H 14.478422 Z M 3.495074,9.967654 h 26.504887 v 15.064508 c 0,0.827934 -0.669238,1.499059 -1.494852,1.499059 H 3.495074 c -0.82571,0 -1.494982,-0.671125 -1.494982,-1.499059 V 11.466805 c 0,-0.827977 0.669272,-1.499151 1.494982,-1.499151 z"
     sodipodi:nodetypes="cccccccccccccsccc" />
  <path
     id="rect851-3"
     style="fill:url(#linearGradient854-7);fill-opacity:1;stroke-width:0.0936449"
     d="m 14.651872,9.072604 -0.03785,1.554976 -3.447809,-0.06609 c 1.722019,-0.0044 2.184391,-0.51062 3.486208,-1.488881 z m 0,0 h 13.853256 c 0.822365,-0.0039 1.491676,0.663307 1.494867,1.488881 l -15.386526,0.06609 z M 3.495099,10.561485 H 30 v 14.471329 c 0,0.828853 -0.669248,1.500733 -1.494872,1.500728 H 3.495099 c -0.82572,5e-6 -1.494993,-0.671875 -1.494993,-1.500728 V 12.062237 c 0,-0.828819 0.669273,-1.500752 1.494993,-1.500752 z"
     sodipodi:nodetypes="cccccccccccsccssc" />
  <rect
     style="fill:#ffffff;fill-opacity:0.25;stroke:#e5e9ef;stroke-width:0.28132;stroke-opacity:0.5;paint-order:markers fill stroke"
     id="rect2191"
     width="27.758621"
     height="3.5499221e-07"
     x="2.1206913"
     y="23.629147" />
  <rect
     style="fill:#ffffff;fill-opacity:0.5;stroke:#e5e9ef;stroke-width:0.28132;stroke-opacity:0.5;paint-order:markers fill stroke"
     id="rect2191-0-9"
     width="27.758621"
     height="3.5499221e-07"
     x="2.1206913"
     y="25.088728" />
  <path
     style="opacity:0.181;fill:url(#linearGradient668-3);fill-opacity:1;fill-rule:evenodd;stroke:none;stroke-width:1.71705px;stroke-linecap:butt;stroke-linejoin:miter;stroke-opacity:1"
     d="M 3.448276,10.546412 15.982495,23.94524 H 29.96499 l 0.035,-13.398828 H 3.476652 Z"
     id="path4152-2-5"
     inkscape:connector-curvature="0"
     sodipodi:nodetypes="cccccc" />
  <path
     style="color:#232629;fill:#d5f4ff;fill-opacity:1;stroke:none;stroke-width:0.484639"
     d="m 15.767958,15.521467 c -2.688956,0.116226 -4.908187,2.303505 -5.068965,5.108538 -0.04263,0.738864 0.06296,1.452323 0.286618,2.110234 l 0.45444,-0.164258 c -0.203072,-0.597809 -0.297065,-1.245697 -0.258333,-1.916989 0.15736,-2.727428 2.442116,-4.807843 5.103473,-4.646573 2.661356,0.161264 4.691366,2.50371 4.534006,5.231138 -0.01579,0.273474 -0.05823,0.538275 -0.115022,0.797135 l 0.469521,0.112082 c 0.06285,-0.285698 0.109866,-0.57833 0.127284,-0.88023 0.173093,-3.000169 -2.060022,-5.576474 -4.987505,-5.753866 -0.18297,-0.01109 -0.364743,-0.01258 -0.544006,-0.0049 z m 0.487437,0.99328 c -0.389891,-0.02216 -0.78094,0.0096 -1.162493,0.09469 l 0.08863,0.486977 c 0.342778,-0.0781 0.694014,-0.107201 1.044642,-0.08793 2.129086,0.129015 3.752907,2.001818 3.627018,4.183751 -0.01048,0.165129 -0.03143,0.329372 -0.06222,0.491809 l 0.483662,0.02995 c 0.02906,-0.162689 0.05008,-0.326813 0.06129,-0.491808 0.141627,-2.454686 -1.685296,-4.562303 -4.080517,-4.707445 z m -2.414556,0.585531 c -0.775735,0.454359 -1.395206,1.14242 -1.775326,1.971098 l 0.419556,0.25605 c 0.331182,-0.747651 0.881155,-1.371511 1.573562,-1.784616 z m 2.21845,2.976938 c -0.460238,0.01699 -0.921712,0.340644 -0.967328,0.861871 -0.03148,0.545489 0.374722,1.013201 0.906988,1.045455 0.356488,0.02142 0.694887,-0.159908 0.880595,-0.472483 -0.0039,0.0066 -0.0076,0.01279 -0.0113,0.01932 l 3.765614,1.283145 0.151794,-0.469585 -3.766555,-1.283146 v -0.0058 c -0.04094,-0.705992 -0.499549,-0.995775 -0.959792,-0.978785 z m -4.3445,0.168123 c -0.02525,0.149223 -0.04253,0.300148 -0.0528,0.451227 -0.0085,0.165093 -0.009,0.329642 0,0.494707 l 0.487436,0.02995 c -0.01226,-0.16502 -0.01366,-0.330377 -0.0056,-0.495674 0.0072,-0.116553 0.01941,-0.233381 0.03679,-0.348806 z m 4.369014,0.257981 c 0.26614,0.01613 0.469232,0.249986 0.453499,0.522728 -0.01574,0.272732 -0.243933,0.480881 -0.510069,0.464754 -0.26614,-0.01613 -0.469231,-0.249986 -0.453493,-0.522727 0.01574,-0.272747 0.243928,-0.480882 0.510063,-0.464755 z"
     class="ColorScheme-Text"
     id="path23620-7-5" />
</svg>
