<?xml version="1.0" encoding="UTF-8" standalone="no"?>
<svg
   viewBox="0 0 32 32"
   version="1.1"
   id="svg12"
   sodipodi:docname="folder-inkscape.svg"
   inkscape:version="1.2.1 (9c6d41e410, 2022-07-14)"
   xmlns:inkscape="http://www.inkscape.org/namespaces/inkscape"
   xmlns:sodipodi="http://sodipodi.sourceforge.net/DTD/sodipodi-0.dtd"
   xmlns:xlink="http://www.w3.org/1999/xlink"
   xmlns="http://www.w3.org/2000/svg"
   xmlns:svg="http://www.w3.org/2000/svg"
   xmlns:rdf="http://www.w3.org/1999/02/22-rdf-syntax-ns#"
   xmlns:cc="http://creativecommons.org/ns#"
   xmlns:dc="http://purl.org/dc/elements/1.1/">
  <metadata
     id="metadata16">
    <rdf:RDF>
      <cc:Work
         rdf:about="">
        <dc:format>image/svg+xml</dc:format>
        <dc:type
           rdf:resource="http://purl.org/dc/dcmitype/StillImage" />
      </cc:Work>
    </rdf:RDF>
  </metadata>
  <sodipodi:namedview
     pagecolor="#ffffff"
     bordercolor="#666666"
     borderopacity="1"
     objecttolerance="10"
     gridtolerance="10"
     guidetolerance="10"
     inkscape:pageopacity="0"
     inkscape:pageshadow="2"
     inkscape:window-width="1920"
     inkscape:window-height="1004"
     id="namedview14"
     showgrid="true"
     inkscape:zoom="10.429825"
     inkscape:cx="-18.360807"
     inkscape:cy="10.30698"
     inkscape:window-x="0"
     inkscape:window-y="0"
     inkscape:window-maximized="1"
     inkscape:current-layer="svg12"
     inkscape:showpageshadow="2"
     inkscape:pagecheckerboard="0"
     inkscape:deskcolor="#d1d1d1">
    <inkscape:grid
       type="xygrid"
       id="grid18219" />
  </sodipodi:namedview>
  <defs
     id="defs3051">
    <style
       type="text/css"
       id="current-color-scheme">.ColorScheme-Text { color:#31363b; }
.ColorScheme-Background { color:#eff0f1; }
.ColorScheme-Highlight { color:#3daee9; }
.ColorScheme-ViewText { color:#31363b; }
.ColorScheme-ViewBackground { color:#fcfcfc; }
.ColorScheme-ViewHover { color:#93cee9; }
.ColorScheme-ViewFocus { color:#3daee9; }
.ColorScheme-ButtonText { color:#31363b; }
.ColorScheme-ButtonBackground { color:#eff0f1; }
.ColorScheme-ButtonHover { color:#93cee9; }
.ColorScheme-ButtonFocus { color:#3daee9; }
</style>
    <linearGradient
       inkscape:collect="always"
       id="linearGradient4393">
      <stop
         style="stop-color:#000000;stop-opacity:1;"
         offset="0"
         id="stop4395" />
      <stop
         style="stop-color:#000000;stop-opacity:0;"
         offset="1"
         id="stop4397" />
    </linearGradient>
    <inkscape:path-effect
       effect="fillet_chamfer"
       id="path-effect1331"
       is_visible="true"
       lpeversion="1"
       satellites_param="F,0,0,1,0,2.1166667,0,1 @ F,0,0,1,0,2.1166667,0,1 @ F,0,0,1,0,2.1166667,0,1 @ F,0,0,1,0,2.1166667,0,1"
       unit="px"
       method="arc"
       mode="F"
       radius="8"
       chamfer_steps="1"
       flexible="false"
       use_knot_distance="true"
       apply_no_radius="true"
       apply_with_radius="true"
       only_selected="false"
       hide_knots="false"
       nodesatellites_param="F,0,0,1,0,2.1166667,0,1 @ F,0,0,1,0,2.1166667,0,1 @ F,0,0,1,0,2.1166667,0,1 @ F,0,0,1,0,2.1166667,0,1" />
    <linearGradient
       inkscape:collect="always"
       id="linearGradient852">
      <stop
         style="stop-color:#00d4aa;stop-opacity:1"
         offset="0"
         id="stop848" />
      <stop
         style="stop-color:#00aad4;stop-opacity:1"
         offset="1"
         id="stop850" />
    </linearGradient>
    <linearGradient
       inkscape:collect="always"
       xlink:href="#linearGradient886-3"
       id="linearGradient888"
       x1="75.75985"
       y1="208.49026"
       x2="91.646347"
       y2="243.62498"
       gradientUnits="userSpaceOnUse"
       gradientTransform="matrix(0.35313236,0,0,0.35449418,-12.50125,-68.908536)" />
    <linearGradient
       inkscape:collect="always"
       id="linearGradient886-3">
      <stop
         style="stop-color:#2ad4ff;stop-opacity:1"
         offset="0"
         id="stop882-6" />
      <stop
         style="stop-color:#2affd5;stop-opacity:1"
         offset="0.48468637"
         id="stop1402-7" />
      <stop
         style="stop-color:#00e5b7;stop-opacity:1;"
         offset="1"
         id="stop884-5" />
    </linearGradient>
    <filter
       inkscape:collect="always"
       style="color-interpolation-filters:sRGB"
       id="filter1881-3"
       x="-0.09064882"
       width="1.1812976"
       y="-0.40803665"
       height="1.8160733">
      <feGaussianBlur
         inkscape:collect="always"
         stdDeviation="0.85615684"
         id="feGaussianBlur1883-6" />
    </filter>
    <inkscape:path-effect
       effect="fillet_chamfer"
       id="path-effect1331-35"
       is_visible="true"
       lpeversion="1"
       satellites_param="F,0,0,1,0,2.1166667,0,1 @ F,0,0,1,0,2.1166667,0,1 @ F,0,0,1,0,2.1166667,0,1 @ F,0,0,1,0,2.1166667,0,1"
       unit="px"
       method="arc"
       mode="F"
       radius="8"
       chamfer_steps="1"
       flexible="false"
       use_knot_distance="true"
       apply_no_radius="true"
       apply_with_radius="true"
       only_selected="false"
       hide_knots="false"
       nodesatellites_param="F,0,0,1,0,2.1166667,0,1 @ F,0,0,1,0,2.1166667,0,1 @ F,0,0,1,0,2.1166667,0,1 @ F,0,0,1,0,2.1166667,0,1" />
    <linearGradient
       inkscape:collect="always"
       xlink:href="#linearGradient852"
       id="linearGradient854-7-7"
       x1="76.788559"
       y1="222.65123"
       x2="92.097359"
       y2="268.94839"
       gradientUnits="userSpaceOnUse"
       gradientTransform="matrix(0.35313236,0,0,0.35449418,-12.519903,-68.908536)" />
    <linearGradient
       inkscape:collect="always"
       xlink:href="#linearGradient4393"
       id="linearGradient668-6"
       gradientUnits="userSpaceOnUse"
       gradientTransform="matrix(1.7478097,0,0,1.686832,2.000073,-1749.5262)"
       x1="5"
       y1="1037.3622"
       x2="8"
       y2="1051.3622" />
  </defs>
  <path
     id="rect10-2"
     style="fill:url(#linearGradient888);fill-opacity:1;stroke-width:0.0579115"
     d="M 3.49498,5 C 2.669271,5 2,5.671909 2,6.500718 V 7.979275 25.499267 C 2,26.328047 2.669271,27 3.49498,27 h 25.010088 c 0.825612,0 1.49485,-0.671948 1.49485,-1.500733 L 29.997518,9.595913 C 29.933988,8.773905 30.029038,6.87587 27.226247,6.87587 H 14.50701 c 0.01168,0 -0.921893,-0.84414 -1.752932,-1.347326 C 12.09017,5.093715 11.193138,5 11.193138,5 Z"
     sodipodi:nodetypes="scccscccccccs" />
  <path
     style="opacity:0.309598;fill:#000000;fill-opacity:1;stroke:none;stroke-width:0.144851;stroke-opacity:1;filter:url(#filter1881-3)"
     id="rect873-9"
     width="22.667437"
     height="5.0357642"
     x="46.507095"
     y="222.89639"
     transform="matrix(0.50789025,0,0,0.68368449,-20.536528,-142.10558)"
     inkscape:path-effect="#path-effect1331-35"
     d="m 48.623762,222.89639 h 18.434103 a 2.1166667,2.1166667 45 0 1 2.116667,2.11667 v 0.80243 a 2.1166667,2.1166667 135 0 1 -2.116667,2.11667 l -18.434103,0 a 2.1166667,2.1166667 45 0 1 -2.116667,-2.11667 v -0.80243 a 2.1166667,2.1166667 135 0 1 2.116667,-2.11667 z"
     sodipodi:type="rect" />
  <path
     id="rect851-1"
     style="fill:#00ccff;fill-opacity:1;stroke-width:0.0936051"
     d="m 14.478403,8.480364 v 1.48729 h -3.486275 c 1.721978,-0.0044 2.184441,-0.510027 3.486275,-1.48729 z m 0,0 h 13.956061 c 0.822383,-0.0039 1.562287,0.662645 1.565449,1.48729 H 14.478403 Z M 3.495072,9.967654 h 26.504846 v 15.064508 c 0,0.827933 -0.669238,1.499059 -1.49485,1.499059 H 3.495072 c -0.825709,0 -1.49498,-0.671126 -1.49498,-1.499059 V 11.466805 c 0,-0.827977 0.669271,-1.499151 1.49498,-1.499151 z"
     sodipodi:nodetypes="cccccccccccccsccc" />
  <path
     id="rect851-3-2"
     style="fill:url(#linearGradient854-7-7);fill-opacity:1;stroke-width:0.0936449"
     d="m 14.651853,9.072604 -0.03785,1.554976 -3.447804,-0.0661 c 1.722017,-0.0044 2.184388,-0.51062 3.486202,-1.488881 z m 0,0 h 13.853234 c 0.822364,-0.0039 1.491674,0.663307 1.494865,1.488881 l -15.386503,0.0661 z M 3.495096,10.561485 h 26.504861 v 14.471329 c 0,0.828853 -0.669248,1.500733 -1.49487,1.500728 H 3.495096 c -0.825718,5e-6 -1.49499,-0.671875 -1.49499,-1.500728 V 12.062237 c 0,-0.828819 0.669272,-1.500752 1.49499,-1.500752 z"
     sodipodi:nodetypes="cccccccccccsccssc" />
  <rect
     style="fill:#ffffff;fill-opacity:0.25;stroke:#e5e9ef;stroke-width:0.28132;stroke-opacity:0.5;paint-order:markers fill stroke"
     id="rect2191-1"
     width="27.758577"
     height="3.5499221e-07"
     x="2.120739"
     y="23.629124" />
  <rect
     style="fill:#ffffff;fill-opacity:0.5;stroke:#e5e9ef;stroke-width:0.28132;stroke-opacity:0.5;paint-order:markers fill stroke"
     id="rect2191-0-9-2"
     width="27.758577"
     height="3.5499221e-07"
     x="2.120739"
     y="25.088705" />
  <path
     style="opacity:0.181;fill:url(#linearGradient668-6);fill-opacity:1;fill-rule:evenodd;stroke:none;stroke-width:1.71705px;stroke-linecap:butt;stroke-linejoin:miter;stroke-opacity:1"
     d="m 3.448327,10.546412 12.5342,13.398828 H 29.965 L 30,10.546412 H 3.476703 Z"
     id="path4152-2-7"
     inkscape:connector-curvature="0"
     sodipodi:nodetypes="cccccc" />
  <path
     id="path18-3-9-7"
     d="m 15.918894,13.07636 c -0.298547,-9.73e-4 -0.595395,0.110242 -0.809647,0.334254 l -3.563999,3.724834 c -1.204471,1.523195 0.819708,1.346372 1.687403,1.785088 0.311301,0.324879 -1.192827,0.563516 -0.881545,0.888672 0.311258,0.324947 1.880694,0.625616 2.19243,0.950519 0.311259,0.324927 -0.636632,0.670031 -0.325374,0.994904 0.311263,0.324908 1.030491,0.01683 1.165301,0.766967 0.09605,0.536007 1.298599,0.230322 1.886004,-0.208638 0.311273,-0.32516 -0.595028,-0.293317 -0.283784,-0.618196 0.773986,-0.80838 1.494498,-0.295127 1.759324,-1.105093 0.130799,-0.400232 -1.140351,-0.615929 -0.828591,-0.940832 0.895617,-0.534198 3.99051,-0.882186 2.521657,-2.382058 l -3.694454,-3.856167 c -0.225941,-0.221555 -0.526236,-0.333651 -0.824845,-0.334245 z m 0.03037,0.35354 c 0.213171,0.0015 0.425884,0.08322 0.578875,0.241478 l 1.411231,1.462496 c 0.133739,0.139512 0.131595,0.409014 0.05678,0.486781 l -0.69997,-0.571811 -0.138093,0.848071 -0.584547,-0.314876 -0.938269,0.602734 -0.310249,-1.273086 -0.503207,0.888686 h -0.768063 c -0.313619,0 -0.351202,-0.406406 -0.0662,-0.697427 0.497849,-0.548755 1.068671,-1.107512 1.37906,-1.431568 0.156023,-0.162846 0.369484,-0.242627 0.582655,-0.241478 z m -1.693008,5.691305 c 0.09528,0.0604 1.535851,0.359558 1.887921,0.419235 0.122041,0.02627 0.03572,0.154765 -0.132411,0.241469 C 15.632338,19.884897 13.791809,19.1212 14.256193,19.1212 Z m 5.603366,1.023901 c -0.289935,0.01046 -0.575786,0.160759 -0.654586,0.44437 0,0.184827 1.331818,0.307077 1.331818,-0.04247 -0.09501,-0.280789 -0.387404,-0.412069 -0.677208,-0.401867 z m -6.114177,0.799837 c -0.417865,-0.0051 -0.907165,0.309022 -0.54666,0.627839 0.315762,0.278829 0.80341,-0.07063 0.949608,-0.459793 -0.08603,-0.116761 -0.239404,-0.166509 -0.402933,-0.168046 z m 5.291022,0.02496 c -0.407004,0.372855 0.04528,0.750901 0.446406,0.510041 0.0894,-0.09268 -0.0039,-0.417353 -0.446406,-0.510041 z"
     stroke-width="0.959425"
     style="fill:#ffffff;fill-opacity:1" />
</svg>
