<?xml version="1.0" encoding="UTF-8" standalone="no"?>
<svg
   viewBox="0 0 32 32"
   version="1.1"
   id="svg12"
   sodipodi:docname="folder-sign.svg"
   inkscape:version="1.2.1 (9c6d41e410, 2022-07-14)"
   xmlns:inkscape="http://www.inkscape.org/namespaces/inkscape"
   xmlns:sodipodi="http://sodipodi.sourceforge.net/DTD/sodipodi-0.dtd"
   xmlns:xlink="http://www.w3.org/1999/xlink"
   xmlns="http://www.w3.org/2000/svg"
   xmlns:svg="http://www.w3.org/2000/svg"
   xmlns:rdf="http://www.w3.org/1999/02/22-rdf-syntax-ns#"
   xmlns:cc="http://creativecommons.org/ns#"
   xmlns:dc="http://purl.org/dc/elements/1.1/">
  <metadata
     id="metadata16">
    <rdf:RDF>
      <cc:Work
         rdf:about="">
        <dc:format>image/svg+xml</dc:format>
        <dc:type
           rdf:resource="http://purl.org/dc/dcmitype/StillImage" />
      </cc:Work>
    </rdf:RDF>
  </metadata>
  <sodipodi:namedview
     pagecolor="#ffffff"
     bordercolor="#666666"
     borderopacity="1"
     objecttolerance="10"
     gridtolerance="10"
     guidetolerance="10"
     inkscape:pageopacity="0"
     inkscape:pageshadow="2"
     inkscape:window-width="1920"
     inkscape:window-height="1004"
     id="namedview14"
     showgrid="true"
     inkscape:zoom="10.429825"
     inkscape:cx="-17.21026"
     inkscape:cy="18.552564"
     inkscape:window-x="0"
     inkscape:window-y="0"
     inkscape:window-maximized="1"
     inkscape:current-layer="svg12"
     inkscape:showpageshadow="2"
     inkscape:pagecheckerboard="0"
     inkscape:deskcolor="#d1d1d1">
    <inkscape:grid
       type="xygrid"
       id="grid18219" />
  </sodipodi:namedview>
  <defs
     id="defs3051">
    <style
       type="text/css"
       id="current-color-scheme">.ColorScheme-Text { color:#31363b; }
.ColorScheme-Background { color:#eff0f1; }
.ColorScheme-Highlight { color:#3daee9; }
.ColorScheme-ViewText { color:#31363b; }
.ColorScheme-ViewBackground { color:#fcfcfc; }
.ColorScheme-ViewHover { color:#93cee9; }
.ColorScheme-ViewFocus { color:#3daee9; }
.ColorScheme-ButtonText { color:#31363b; }
.ColorScheme-ButtonBackground { color:#eff0f1; }
.ColorScheme-ButtonHover { color:#93cee9; }
.ColorScheme-ButtonFocus { color:#3daee9; }
</style>
    <linearGradient
       inkscape:collect="always"
       id="linearGradient4393">
      <stop
         style="stop-color:#000000;stop-opacity:1;"
         offset="0"
         id="stop4395" />
      <stop
         style="stop-color:#000000;stop-opacity:0;"
         offset="1"
         id="stop4397" />
    </linearGradient>
    <linearGradient
       inkscape:collect="always"
       xlink:href="#linearGradient886"
       id="linearGradient888"
       x1="75.75985"
       y1="208.49026"
       x2="91.646347"
       y2="264.21182"
       gradientUnits="userSpaceOnUse"
       gradientTransform="matrix(0.3531329,0,0,0.35449418,-12.501271,-68.90854)" />
    <linearGradient
       inkscape:collect="always"
       id="linearGradient886">
      <stop
         style="stop-color:#eea58c;stop-opacity:1;"
         offset="0"
         id="stop882" />
      <stop
         style="stop-color:#f8dad0;stop-opacity:1"
         offset="0.48468637"
         id="stop1402" />
      <stop
         style="stop-color:#eb9172;stop-opacity:1"
         offset="1"
         id="stop884" />
    </linearGradient>
    <filter
       inkscape:collect="always"
       style="color-interpolation-filters:sRGB"
       id="filter1881"
       x="-0.09064882"
       width="1.1812976"
       y="-0.40803665"
       height="1.8160733">
      <feGaussianBlur
         inkscape:collect="always"
         stdDeviation="0.85615684"
         id="feGaussianBlur1883" />
    </filter>
    <inkscape:path-effect
       effect="fillet_chamfer"
       id="path-effect1331"
       is_visible="true"
       lpeversion="1"
       satellites_param="F,0,0,1,0,2.1166667,0,1 @ F,0,0,1,0,2.1166667,0,1 @ F,0,0,1,0,2.1166667,0,1 @ F,0,0,1,0,2.1166667,0,1"
       unit="px"
       method="arc"
       mode="F"
       radius="8"
       chamfer_steps="1"
       flexible="false"
       use_knot_distance="true"
       apply_no_radius="true"
       apply_with_radius="true"
       only_selected="false"
       hide_knots="false"
       nodesatellites_param="F,0,0,1,0,2.1166667,0,1 @ F,0,0,1,0,2.1166667,0,1 @ F,0,0,1,0,2.1166667,0,1 @ F,0,0,1,0,2.1166667,0,1" />
    <linearGradient
       inkscape:collect="always"
       xlink:href="#linearGradient852"
       id="linearGradient854-7"
       x1="57.522335"
       y1="236.76271"
       x2="105.3699"
       y2="264.21182"
       gradientUnits="userSpaceOnUse"
       gradientTransform="matrix(0.3531329,0,0,0.35449418,-12.519925,-68.90854)" />
    <linearGradient
       inkscape:collect="always"
       id="linearGradient852">
      <stop
         style="stop-color:#c29bbe;stop-opacity:1"
         offset="0"
         id="stop848" />
      <stop
         style="stop-color:#aa74a4;stop-opacity:1;"
         offset="1"
         id="stop850" />
    </linearGradient>
    <linearGradient
       inkscape:collect="always"
       xlink:href="#linearGradient4393"
       id="linearGradient668-3"
       gradientUnits="userSpaceOnUse"
       gradientTransform="matrix(1.7478123,0,0,1.686832,2.00002,-1749.5262)"
       x1="5"
       y1="1037.3622"
       x2="8"
       y2="1051.3622" />
  </defs>
  <path
     id="rect10"
     style="fill:url(#linearGradient888);fill-opacity:1;stroke-width:0.0579115"
     d="M 3.494983,5 C 2.669272,5 2,5.671909 2,6.500718 V 7.979275 25.499267 C 2,26.328047 2.669272,27 3.494983,27 h 25.010126 c 0.825614,0 1.494852,-0.671948 1.494852,-1.500733 L 29.997561,9.595913 C 29.934031,8.773905 30.029081,6.87587 27.226285,6.87587 H 14.507029 c 0.01168,0 -0.921895,-0.84414 -1.752935,-1.347326 C 12.090185,5.093715 11.193152,5 11.193152,5 Z"
     sodipodi:nodetypes="scccscccccccs" />
  <path
     style="opacity:0.309598;fill:#000000;fill-opacity:1;stroke:none;stroke-width:0.144851;stroke-opacity:1;filter:url(#filter1881)"
     id="rect873"
     width="22.667437"
     height="5.0357642"
     x="46.507095"
     y="222.89639"
     transform="matrix(0.50789102,0,0,0.68368449,-20.536562,-142.10558)"
     inkscape:path-effect="#path-effect1331"
     d="m 48.623762,222.89639 h 18.434103 a 2.1166667,2.1166667 45 0 1 2.116667,2.11667 v 0.80243 a 2.1166667,2.1166667 135 0 1 -2.116667,2.11667 l -18.434103,0 a 2.1166667,2.1166667 45 0 1 -2.116667,-2.11667 v -0.80243 a 2.1166667,2.1166667 135 0 1 2.116667,-2.11667 z"
     sodipodi:type="rect" />
  <path
     id="rect851"
     style="fill:#ec997d;fill-opacity:1;stroke-width:0.0936051"
     d="m 14.478423,8.480364 v 1.48729 h -3.48628 c 1.72198,-0.0044 2.184444,-0.510027 3.48628,-1.48729 z m 0,0 h 13.956083 c 0.822384,-0.0039 1.562288,0.662645 1.565451,1.48729 H 14.478423 Z M 3.495074,9.967654 h 26.504887 v 15.064508 c 0,0.827934 -0.669238,1.499059 -1.494852,1.499059 H 3.495074 c -0.82571,0 -1.494982,-0.671125 -1.494982,-1.499059 V 11.466805 c 0,-0.827977 0.669272,-1.499151 1.494982,-1.499151 z"
     sodipodi:nodetypes="cccccccccccccsccc" />
  <path
     id="rect851-3"
     style="fill:url(#linearGradient854-7);fill-opacity:1;stroke-width:0.0936449"
     d="m 14.651873,9.072604 -0.03785,1.554976 -3.447809,-0.0661 c 1.722019,-0.0044 2.184391,-0.51062 3.486207,-1.488881 z m 0,0 h 13.853255 c 0.822365,-0.0039 1.491676,0.663307 1.494867,1.488881 l -15.386526,0.0661 z M 3.495099,10.561485 H 30 v 14.471329 c 0,0.828853 -0.669248,1.500733 -1.494872,1.500728 H 3.495099 c -0.82572,5e-6 -1.494993,-0.671875 -1.494993,-1.500728 V 12.062237 c 0,-0.828819 0.669273,-1.500752 1.494993,-1.500752 z"
     sodipodi:nodetypes="cccccccccccsccssc" />
  <rect
     style="fill:#ffffff;fill-opacity:0.25;stroke:#e5e9ef;stroke-width:0.28132;stroke-opacity:0.5;paint-order:markers fill stroke"
     id="rect2191"
     width="27.758619"
     height="3.5499221e-07"
     x="2.1206889"
     y="23.629259" />
  <rect
     style="fill:#ffffff;fill-opacity:0.5;stroke:#e5e9ef;stroke-width:0.28132;stroke-opacity:0.5;paint-order:markers fill stroke"
     id="rect2191-0-9"
     width="27.758619"
     height="3.5499221e-07"
     x="2.1206889"
     y="25.088842" />
  <path
     style="opacity:0.181;fill:url(#linearGradient668-3);fill-opacity:1;fill-rule:evenodd;stroke:none;stroke-width:1.71705px;stroke-linecap:butt;stroke-linejoin:miter;stroke-opacity:1"
     d="M 3.448276,10.546412 15.982496,23.94524 H 29.96499 l 0.035,-13.398828 H 3.476652 Z"
     id="path4152-2-5"
     inkscape:connector-curvature="0"
     sodipodi:nodetypes="cccccc" />
  <path
     style="color:#232629;fill:#fcfeff;fill-opacity:1;stroke:none;stroke-width:0.342068"
     d="m 19.40342,12.220247 c -0.0476,-9.74e-4 -0.0964,0.01294 -0.14239,0.04199 -0.02476,0.01683 -0.131368,0.146148 -0.236267,0.287061 l -0.191037,0.258891 -0.06917,-0.04768 c -0.09687,-0.06439 -0.190323,-0.07862 -0.277514,-0.03878 -0.06025,0.02739 -0.201498,0.211094 -1.128037,1.452756 -0.584771,0.782754 -1.06024,1.42934 -1.058806,1.439313 0.0014,0.0083 0.23855,0.195195 0.525729,0.412503 l 0.525058,0.397716 0.690832,-0.927598 c 0.380192,-0.51027 0.6965,-0.923259 0.704089,-0.917542 0.02472,0.01829 0.06935,0.419167 0.06056,0.54801 -0.0048,0.07026 -0.02935,0.196523 -0.05659,0.280332 -0.04808,0.149797 -0.05331,0.158574 -0.90972,1.311906 -0.473682,0.637561 -0.868082,1.179148 -0.875144,1.200541 -0.01999,0.05901 0.0034,0.169418 0.04668,0.232735 0.0741,0.106739 0.257359,0.140461 0.36136,0.06437 0.07186,-0.05284 1.768238,-2.354175 1.822162,-2.474197 0.157582,-0.342315 0.190212,-0.780662 0.0905,-1.211983 -0.03905,-0.171165 -0.09086,-0.335733 -0.141072,-0.452694 -0.01501,-0.03153 0.0094,-0.07283 0.168387,-0.287703 0.149901,-0.20515 0.184298,-0.262813 0.186977,-0.315883 0.006,-0.113074 -0.028,-0.176055 -0.138426,-0.262238 l -0.102451,-0.08055 0.203642,-0.275662 c 0.166899,-0.227962 0.203029,-0.287557 0.205636,-0.340705 0.0073,-0.16936 -0.122134,-0.293517 -0.2649,-0.295093 z m -3.430674,3.822991 c -0.0053,9.73e-4 -0.628069,0.835061 -1.385575,1.851781 -1.21842,1.637248 -1.391687,1.879631 -1.504073,2.087889 -0.223198,0.414662 -0.466161,1.04688 -0.627523,1.624422 -0.104638,0.370467 -0.109866,0.336945 0.03611,0.25821 0.449695,-0.244767 1.037081,-0.642104 1.378865,-0.934283 0.334223,-0.285971 0.391121,-0.358712 1.806878,-2.258918 l 1.361628,-1.82963 -0.529084,-0.400412 c -0.290987,-0.220202 -0.532048,-0.399804 -0.537066,-0.399059 z m 0.153086,4.237464 c -0.06692,-0.0049 -0.135757,-0.0024 -0.1804,0.0071 v 9.73e-4 c -0.211564,0.04505 -0.447204,0.229782 -0.560975,0.442662 -0.03041,0.05532 -0.07949,0.180575 -0.109823,0.274995 -0.0281,0.09614 -0.0552,0.176371 -0.05727,0.17839 -0.01627,0.02024 -0.420999,0.118436 -0.658835,0.159645 -0.559102,0.09856 -0.711813,0.135279 -0.766674,0.186452 -0.107679,0.100273 -0.02443,0.201266 0.128453,0.156277 0.04031,-0.01275 0.213389,-0.04705 0.380003,-0.07579 0.166952,-0.02851 0.420893,-0.08208 0.565035,-0.11468 0.144475,-0.03493 0.266734,-0.05783 0.272836,-0.05161 0.0058,0.0059 -0.01767,0.122858 -0.05655,0.26019 l -0.06922,0.246158 -0.153049,0.06773 c -0.08346,0.03712 -0.203149,0.100258 -0.266203,0.14352 -0.191172,0.127062 -0.228079,0.286696 -0.09383,0.389018 0.07325,0.05531 0.276568,0.05326 0.402611,-0.0029 0.111764,-0.05118 0.174643,-0.122717 0.262225,-0.309179 0.04673,-0.09649 0.08351,-0.147398 0.111788,-0.153587 0.02279,-0.0063 0.224381,-0.04729 0.447903,-0.09459 0.223855,-0.04505 0.426983,-0.08841 0.453217,-0.09455 0.04248,-0.01002 0.04697,-0.0059 0.03481,0.03284 -0.0079,0.02481 -0.04514,0.09677 -0.08386,0.160296 -0.03857,0.06354 -0.06921,0.139099 -0.06921,0.169672 0,0.06353 0.05326,0.127154 0.09584,0.11067 0.01637,-0.0059 0.03823,-0.01241 0.04861,-0.01241 0.0099,0 0.05515,-0.03289 0.09979,-0.07377 0.08348,-0.07588 0.284866,-0.447216 0.284866,-0.525173 0,-0.03858 0.03032,-0.04868 0.04856,-0.01776 0.0059,0.01002 0.0524,0.02856 0.103151,0.04058 0.07125,0.01829 0.09185,0.03226 0.09185,0.06507 0,0.06352 0.103991,0.156189 0.195667,0.174386 0.07121,0.01275 0.162743,-0.0029 0.260212,-0.04282 0.03476,-0.01469 0.03683,-0.01002 0.02486,0.04282 -0.0079,0.03299 -0.06739,0.137604 -0.130422,0.234087 -0.134241,0.200868 -0.29681,0.520497 -0.339409,0.66197 -0.03466,0.120868 -0.02013,0.21125 0.04248,0.254215 0.05689,0.03712 0.150268,0.01956 0.198988,-0.03381 0.04244,-0.04714 0.274825,-0.540687 0.360022,-0.765925 0.06099,-0.157961 0.08925,-0.201116 0.227597,-0.348806 0.113839,-0.120839 0.150973,-0.149637 0.126454,-0.102599 -0.04041,0.08829 -0.03862,0.15564 0.0057,0.196528 0.09542,0.08821 0.233756,0.0029 0.354045,-0.219332 0.07123,-0.131163 0.124228,-0.169754 0.38865,-0.295122 l 0.13776,-0.06369 -0.01419,0.07577 c -0.0078,0.04072 -0.05513,0.157961 -0.103832,0.25822 -0.09573,0.20294 -0.113492,0.332089 -0.05656,0.442662 0.03838,0.07592 0.07911,0.07837 0.266198,0.01304 0.260332,-0.08824 0.599876,-0.291698 0.688143,-0.40843 0.119913,-0.164169 0.156762,-0.321712 0.08385,-0.374942 -0.07529,-0.05525 -0.117866,-0.03279 -0.213606,0.108651 -0.128163,0.192684 -0.286585,0.342637 -0.439272,0.41854 -0.0712,0.03707 -0.13426,0.06116 -0.140425,0.05501 -0.0078,-0.008 0.154352,-0.4489 0.241577,-0.655971 0.01815,-0.04277 0.03355,-0.09638 0.03355,-0.118703 0,-0.05736 -0.07144,-0.122716 -0.13243,-0.122716 -0.02829,0 -0.163231,0.05502 -0.297486,0.124731 -0.278716,0.139419 -0.260212,0.151713 -0.188995,-0.110676 0.04248,-0.161751 0.02824,-0.204959 -0.06921,-0.215298 -0.09368,-0.01002 -0.130113,0.02048 -0.215591,0.174386 -0.0549,0.104399 -0.127863,0.190748 -0.268235,0.32197 -0.185007,0.172016 -0.193311,0.178069 -0.236252,0.147505 -0.06508,-0.04715 -0.101775,-0.04058 -0.260217,0.03902 -0.1547,0.07795 -0.205722,0.08827 -0.244237,0.04072 -0.03273,-0.03882 0.01844,-0.0594 0.301473,-0.114684 0.274617,-0.05325 0.308792,-0.06808 0.308792,-0.125442 0,-0.09237 -0.0754,-0.18002 -0.209648,-0.239439 -0.232038,-0.104365 -0.257822,-0.110929 -0.35936,-0.08451 -0.109727,0.02846 -0.272648,0.186491 -0.294821,0.285076 -0.02279,0.102647 -0.09181,0.07171 -0.09181,-0.04077 0,-0.04715 -0.05717,-0.165862 -0.08988,-0.186447 -0.06914,-0.04715 -0.180687,0.05559 -0.266149,0.244134 l -0.06724,0.145525 -0.150389,0.03284 c -0.195257,0.04281 -0.762592,0.157601 -0.837917,0.172386 -0.04866,0.008 -0.05679,0.0049 -0.04668,-0.02506 0.0079,-0.02014 0.03225,-0.110159 0.05655,-0.202541 0.06301,-0.254118 0.08174,-0.287295 0.17302,-0.319926 0.109712,-0.03878 0.48028,-0.199048 0.575659,-0.248148 0.0447,-0.02296 0.135872,-0.09211 0.202995,-0.153587 0.205428,-0.19267 0.237686,-0.371196 0.09115,-0.50234 -0.04041,-0.03493 -0.09361,-0.07153 -0.117794,-0.08188 -0.03756,-0.01469 -0.102166,-0.02462 -0.168999,-0.02778 z m -0.204977,0.239439 c 0.0281,-0.0024 0.06161,-9.73e-4 0.10381,0.0029 0.107679,0.006 0.150683,0.01654 0.180981,0.04894 0.04041,0.04062 0.04031,0.04262 0.0049,0.120732 -0.02477,0.04909 -0.08116,0.106812 -0.152388,0.156263 -0.124013,0.0862 -0.512827,0.243769 -0.525046,0.215259 -0.01622,-0.04715 0.108249,-0.328173 0.187649,-0.418511 0.07923,-0.09064 0.116253,-0.119944 0.201011,-0.124721 z m -1.044227,1.716323 c 0.01593,0.0015 0.01608,0.01503 0.0039,0.03999 -0.02704,0.0512 -0.09594,0.0882 -0.134478,0.07375 -0.0447,-0.01829 -0.03259,-0.04257 0.03867,-0.07977 0.04692,-0.02389 0.07765,-0.03552 0.09313,-0.03459 z"
     class="ColorScheme-Text"
     id="path14466-5-3" />
</svg>
