<?xml version="1.0" encoding="UTF-8" standalone="no"?>
<svg
   viewBox="0 0 32 32"
   version="1.1"
   id="svg12"
   sodipodi:docname="folder-calculate.svg"
   inkscape:version="1.2.1 (9c6d41e410, 2022-07-14)"
   xmlns:inkscape="http://www.inkscape.org/namespaces/inkscape"
   xmlns:sodipodi="http://sodipodi.sourceforge.net/DTD/sodipodi-0.dtd"
   xmlns:xlink="http://www.w3.org/1999/xlink"
   xmlns="http://www.w3.org/2000/svg"
   xmlns:svg="http://www.w3.org/2000/svg"
   xmlns:rdf="http://www.w3.org/1999/02/22-rdf-syntax-ns#"
   xmlns:cc="http://creativecommons.org/ns#"
   xmlns:dc="http://purl.org/dc/elements/1.1/">
  <metadata
     id="metadata16">
    <rdf:RDF>
      <cc:Work
         rdf:about="">
        <dc:format>image/svg+xml</dc:format>
        <dc:type
           rdf:resource="http://purl.org/dc/dcmitype/StillImage" />
      </cc:Work>
    </rdf:RDF>
  </metadata>
  <sodipodi:namedview
     pagecolor="#ffffff"
     bordercolor="#666666"
     borderopacity="1"
     objecttolerance="10"
     gridtolerance="10"
     guidetolerance="10"
     inkscape:pageopacity="0"
     inkscape:pageshadow="2"
     inkscape:window-width="1920"
     inkscape:window-height="1004"
     id="namedview14"
     showgrid="true"
     inkscape:zoom="10.429825"
     inkscape:cx="-16.059713"
     inkscape:cy="21.141294"
     inkscape:window-x="0"
     inkscape:window-y="0"
     inkscape:window-maximized="1"
     inkscape:current-layer="svg12"
     inkscape:showpageshadow="2"
     inkscape:pagecheckerboard="0"
     inkscape:deskcolor="#d1d1d1">
    <inkscape:grid
       type="xygrid"
       id="grid18219" />
  </sodipodi:namedview>
  <defs
     id="defs3051">
    <style
       type="text/css"
       id="current-color-scheme">.ColorScheme-Text { color:#31363b; }
.ColorScheme-Background { color:#eff0f1; }
.ColorScheme-Highlight { color:#3daee9; }
.ColorScheme-ViewText { color:#31363b; }
.ColorScheme-ViewBackground { color:#fcfcfc; }
.ColorScheme-ViewHover { color:#93cee9; }
.ColorScheme-ViewFocus { color:#3daee9; }
.ColorScheme-ButtonText { color:#31363b; }
.ColorScheme-ButtonBackground { color:#eff0f1; }
.ColorScheme-ButtonHover { color:#93cee9; }
.ColorScheme-ButtonFocus { color:#3daee9; }
</style>
    <linearGradient
       inkscape:collect="always"
       id="linearGradient4393">
      <stop
         style="stop-color:#000000;stop-opacity:1;"
         offset="0"
         id="stop4395" />
      <stop
         style="stop-color:#000000;stop-opacity:0;"
         offset="1"
         id="stop4397" />
    </linearGradient>
    <linearGradient
       inkscape:collect="always"
       xlink:href="#linearGradient886"
       id="linearGradient888"
       x1="75.75985"
       y1="208.49026"
       x2="91.646347"
       y2="264.21182"
       gradientUnits="userSpaceOnUse"
       gradientTransform="matrix(0.35313238,0,0,0.35449418,-12.50125,-68.908536)" />
    <linearGradient
       inkscape:collect="always"
       id="linearGradient886">
      <stop
         style="stop-color:#ff9955;stop-opacity:1"
         offset="0"
         id="stop882" />
      <stop
         style="stop-color:#c6afe9;stop-opacity:1;"
         offset="0.48468637"
         id="stop1402" />
      <stop
         style="stop-color:#ff80e5;stop-opacity:0.80000001;"
         offset="1"
         id="stop884" />
    </linearGradient>
    <filter
       inkscape:collect="always"
       style="color-interpolation-filters:sRGB"
       id="filter1881"
       x="-0.09064882"
       width="1.1812976"
       y="-0.40803665"
       height="1.8160733">
      <feGaussianBlur
         inkscape:collect="always"
         stdDeviation="0.85615684"
         id="feGaussianBlur1883" />
    </filter>
    <inkscape:path-effect
       effect="fillet_chamfer"
       id="path-effect1331"
       is_visible="true"
       lpeversion="1"
       satellites_param="F,0,0,1,0,2.1166667,0,1 @ F,0,0,1,0,2.1166667,0,1 @ F,0,0,1,0,2.1166667,0,1 @ F,0,0,1,0,2.1166667,0,1"
       unit="px"
       method="arc"
       mode="F"
       radius="8"
       chamfer_steps="1"
       flexible="false"
       use_knot_distance="true"
       apply_no_radius="true"
       apply_with_radius="true"
       only_selected="false"
       hide_knots="false"
       nodesatellites_param="F,0,0,1,0,2.1166667,0,1 @ F,0,0,1,0,2.1166667,0,1 @ F,0,0,1,0,2.1166667,0,1 @ F,0,0,1,0,2.1166667,0,1" />
    <linearGradient
       inkscape:collect="always"
       xlink:href="#linearGradient852"
       id="linearGradient854-7"
       x1="60.785271"
       y1="237.0743"
       x2="109.3987"
       y2="265.49255"
       gradientUnits="userSpaceOnUse"
       gradientTransform="matrix(0.35313238,0,0,0.35449418,-12.519904,-68.908536)" />
    <linearGradient
       inkscape:collect="always"
       id="linearGradient852">
      <stop
         style="stop-color:#ffccaa;stop-opacity:1"
         offset="0"
         id="stop848" />
      <stop
         style="stop-color:#ff99ff;stop-opacity:1;"
         offset="1"
         id="stop850" />
    </linearGradient>
    <linearGradient
       inkscape:collect="always"
       xlink:href="#linearGradient4393"
       id="linearGradient668-3"
       gradientUnits="userSpaceOnUse"
       gradientTransform="matrix(1.7478097,0,0,1.686832,2.000073,-1749.5261)"
       x1="5"
       y1="1037.3622"
       x2="8"
       y2="1051.3622" />
  </defs>
  <path
     id="rect10"
     style="fill:url(#linearGradient888);fill-opacity:1;stroke-width:0.0579115"
     d="M 3.49498,5 C 2.669271,5 2,5.671909 2,6.500718 V 7.979275 25.499267 C 2,26.328047 2.669271,27 3.49498,27 h 25.010088 c 0.825612,0 1.49485,-0.671948 1.49485,-1.500733 L 29.997518,9.595913 C 29.933988,8.773905 30.029038,6.87587 27.226246,6.87587 H 14.50701 c 0.01168,0 -0.921894,-0.84414 -1.752932,-1.347326 C 12.09017,5.0937151 11.193139,5 11.193139,5 Z"
     sodipodi:nodetypes="scccscccccccs" />
  <path
     style="opacity:0.309598;fill:#000000;fill-opacity:1;stroke:none;stroke-width:0.144851;stroke-opacity:1;filter:url(#filter1881)"
     id="rect873"
     width="22.667437"
     height="5.0357642"
     x="46.507095"
     y="222.89639"
     transform="matrix(0.50789026,0,0,0.68368449,-20.536529,-142.10558)"
     inkscape:path-effect="#path-effect1331"
     d="m 48.623762,222.89639 h 18.434103 a 2.1166667,2.1166667 45 0 1 2.116667,2.11667 v 0.80243 a 2.1166667,2.1166667 135 0 1 -2.116667,2.11667 l -18.434103,0 a 2.1166667,2.1166667 45 0 1 -2.116667,-2.11667 v -0.80243 a 2.1166667,2.1166667 135 0 1 2.116667,-2.11667 z"
     sodipodi:type="rect" />
  <path
     id="rect851"
     style="fill:#ffb380;fill-opacity:1;stroke-width:0.0936051"
     d="m 14.478402,8.4803641 v 1.48729 h -3.486274 c 1.721979,-0.0044 2.184441,-0.510027 3.486274,-1.48729 z m 0,0 h 13.956062 c 0.822383,-0.0039 1.562287,0.662645 1.565449,1.48729 H 14.478402 Z m -10.98333,1.48729 H 29.999918 V 25.032162 c 0,0.827933 -0.669238,1.499059 -1.49485,1.499059 H 3.495072 c -0.825709,0 -1.49498,-0.671126 -1.49498,-1.499059 V 11.466805 c 0,-0.827977 0.669271,-1.4991509 1.49498,-1.4991509 z"
     sodipodi:nodetypes="cccccccccccccsccc" />
  <path
     id="rect851-3"
     style="fill:url(#linearGradient854-7);fill-opacity:1;stroke-width:0.0936449"
     d="m 14.651852,9.0726041 -0.03785,1.5549759 -3.447803,-0.0661 c 1.722017,-0.0044 2.184388,-0.51062 3.486202,-1.4888807 z m 0,0 h 13.853235 c 0.822364,-0.0039 1.491674,0.663307 1.494865,1.4888809 l -15.386503,0.0661 z M 3.495096,10.561485 h 26.504861 v 14.471329 c 0,0.828853 -0.669248,1.500732 -1.49487,1.500728 H 3.495096 c -0.825718,4e-6 -1.49499,-0.671875 -1.49499,-1.500728 V 12.062237 c 0,-0.828819 0.669272,-1.500752 1.49499,-1.500752 z"
     sodipodi:nodetypes="cccccccccccsccssc" />
  <path
     style="opacity:0.181;fill:url(#linearGradient668-3);fill-opacity:1;fill-rule:evenodd;stroke:none;stroke-width:1.71705px;stroke-linecap:butt;stroke-linejoin:miter;stroke-opacity:1"
     d="M 3.448327,10.546412 15.982526,23.94524 H 29.965 L 30,10.546412 H 3.476703 Z"
     id="path4152-2-5"
     inkscape:connector-curvature="0"
     sodipodi:nodetypes="cccccc" />
  <rect
     style="fill:#ffffff;fill-opacity:0.25;stroke:#e5e9ef;stroke-width:0.28132;stroke-opacity:0.5;paint-order:markers fill stroke"
     id="rect2191"
     width="27.758579"
     height="3.5499221e-07"
     x="2.1207452"
     y="23.629251" />
  <rect
     style="fill:#ffffff;fill-opacity:0.5;stroke:#e5e9ef;stroke-width:0.28132;stroke-opacity:0.5;paint-order:markers fill stroke"
     id="rect2191-0-9"
     width="27.758579"
     height="3.5499221e-07"
     x="2.1207452"
     y="25.088833" />
  <path
     style="color:#232629;fill:#ffffff;fill-opacity:1;stroke:none;stroke-width:0.646179"
     d="m 21.149455,13.076354 h -5.149424 l -2.857926,4.995022 -1.004137,-1.751499 h -1.287361 v 0.648697 h 0.921498 l 1.39574,2.400195 3.218393,-5.643718 h 4.119527 v 0.648716 h 0.64369 z m -3.218392,1.94611 c -1.069792,0 -1.931032,0.843308 -1.931032,1.94611 0,1.102802 0.86124,1.946109 1.931032,1.946109 0.497569,0 0.965516,-0.194611 1.287361,-0.518969 v 0.518969 h 0.64367 v -3.892219 h -0.64367 v 0.518969 c -0.341793,-0.324358 -0.789792,-0.518969 -1.287361,-0.518969 z m 0,0.648697 c 0.713188,0 1.287361,0.583833 1.287361,1.297413 0,0.71358 -0.574173,1.297412 -1.287361,1.297412 -0.713188,0 -1.287361,-0.583832 -1.287361,-1.297412 0,-0.71358 0.574173,-1.297413 1.287361,-1.297413 z m -7.724126,4.540935 c 0,0 0,0.144654 0,0.324339 0,0.179703 0,0.324358 0,0.324358 h 11.586189 c 0,0 0,-0.144655 0,-0.324358 0,-0.179685 0,-0.324339 0,-0.324339 z m 5.149424,1.94611 c 0,0 0,0.144654 0,0.324338 0,0.179704 0,0.324358 0,0.324358 h 1.287341 c 0,0 0,-0.144654 0,-0.324358 0,-0.179684 0,-0.324338 0,-0.324338 z"
     class="ColorScheme-Text"
     id="path3091-3-3" />
</svg>
