<?xml version="1.0" encoding="UTF-8" standalone="no"?>
<svg
   viewBox="0 0 32 32"
   version="1.1"
   id="svg12"
   sodipodi:docname="folder-notes.svg"
   inkscape:version="1.2.1 (9c6d41e410, 2022-07-14)"
   xmlns:inkscape="http://www.inkscape.org/namespaces/inkscape"
   xmlns:sodipodi="http://sodipodi.sourceforge.net/DTD/sodipodi-0.dtd"
   xmlns:xlink="http://www.w3.org/1999/xlink"
   xmlns="http://www.w3.org/2000/svg"
   xmlns:svg="http://www.w3.org/2000/svg"
   xmlns:rdf="http://www.w3.org/1999/02/22-rdf-syntax-ns#"
   xmlns:cc="http://creativecommons.org/ns#"
   xmlns:dc="http://purl.org/dc/elements/1.1/">
  <metadata
     id="metadata16">
    <rdf:RDF>
      <cc:Work
         rdf:about="">
        <dc:format>image/svg+xml</dc:format>
        <dc:type
           rdf:resource="http://purl.org/dc/dcmitype/StillImage" />
      </cc:Work>
    </rdf:RDF>
  </metadata>
  <sodipodi:namedview
     pagecolor="#ffffff"
     bordercolor="#666666"
     borderopacity="1"
     objecttolerance="10"
     gridtolerance="10"
     guidetolerance="10"
     inkscape:pageopacity="0"
     inkscape:pageshadow="2"
     inkscape:window-width="1920"
     inkscape:window-height="1004"
     id="namedview14"
     showgrid="true"
     inkscape:zoom="10.429825"
     inkscape:cx="16.922623"
     inkscape:cy="15.867956"
     inkscape:window-x="0"
     inkscape:window-y="0"
     inkscape:window-maximized="1"
     inkscape:current-layer="svg12"
     inkscape:showpageshadow="2"
     inkscape:pagecheckerboard="0"
     inkscape:deskcolor="#d1d1d1">
    <inkscape:grid
       type="xygrid"
       id="grid18219" />
  </sodipodi:namedview>
  <defs
     id="defs3051">
    <style
       type="text/css"
       id="current-color-scheme">.ColorScheme-Text { color:#31363b; }
.ColorScheme-Background { color:#eff0f1; }
.ColorScheme-Highlight { color:#3daee9; }
.ColorScheme-ViewText { color:#31363b; }
.ColorScheme-ViewBackground { color:#fcfcfc; }
.ColorScheme-ViewHover { color:#93cee9; }
.ColorScheme-ViewFocus { color:#3daee9; }
.ColorScheme-ButtonText { color:#31363b; }
.ColorScheme-ButtonBackground { color:#eff0f1; }
.ColorScheme-ButtonHover { color:#93cee9; }
.ColorScheme-ButtonFocus { color:#3daee9; }
</style>
    <linearGradient
       inkscape:collect="always"
       id="linearGradient4393">
      <stop
         style="stop-color:#000000;stop-opacity:1;"
         offset="0"
         id="stop4395" />
      <stop
         style="stop-color:#000000;stop-opacity:0;"
         offset="1"
         id="stop4397" />
    </linearGradient>
    <linearGradient
       inkscape:collect="always"
       xlink:href="#linearGradient886"
       id="linearGradient888"
       x1="75.75985"
       y1="208.49026"
       x2="91.646347"
       y2="264.21182"
       gradientUnits="userSpaceOnUse"
       gradientTransform="matrix(0.35313235,0,0,0.35449418,-12.501249,-68.908537)" />
    <linearGradient
       inkscape:collect="always"
       id="linearGradient886">
      <stop
         style="stop-color:#ad7fa8;stop-opacity:1"
         offset="0"
         id="stop882" />
      <stop
         style="stop-color:#c6afe9;stop-opacity:1;"
         offset="0.48468637"
         id="stop1402" />
      <stop
         style="stop-color:#96699e;stop-opacity:1;"
         offset="1"
         id="stop884" />
    </linearGradient>
    <filter
       inkscape:collect="always"
       style="color-interpolation-filters:sRGB"
       id="filter1881"
       x="-0.09064882"
       width="1.1812976"
       y="-0.40803665"
       height="1.8160733">
      <feGaussianBlur
         inkscape:collect="always"
         stdDeviation="0.85615684"
         id="feGaussianBlur1883" />
    </filter>
    <inkscape:path-effect
       effect="fillet_chamfer"
       id="path-effect1331"
       is_visible="true"
       lpeversion="1"
       satellites_param="F,0,0,1,0,2.1166667,0,1 @ F,0,0,1,0,2.1166667,0,1 @ F,0,0,1,0,2.1166667,0,1 @ F,0,0,1,0,2.1166667,0,1"
       unit="px"
       method="arc"
       mode="F"
       radius="8"
       chamfer_steps="1"
       flexible="false"
       use_knot_distance="true"
       apply_no_radius="true"
       apply_with_radius="true"
       only_selected="false"
       hide_knots="false"
       nodesatellites_param="F,0,0,1,0,2.1166667,0,1 @ F,0,0,1,0,2.1166667,0,1 @ F,0,0,1,0,2.1166667,0,1 @ F,0,0,1,0,2.1166667,0,1" />
    <linearGradient
       inkscape:collect="always"
       xlink:href="#linearGradient852"
       id="linearGradient854-7"
       x1="76.788559"
       y1="222.65123"
       x2="92.097359"
       y2="268.94839"
       gradientUnits="userSpaceOnUse"
       gradientTransform="matrix(0.35313235,0,0,0.35449418,-12.519903,-68.908537)" />
    <linearGradient
       inkscape:collect="always"
       id="linearGradient852">
      <stop
         style="stop-color:#ad7fa8;stop-opacity:1"
         offset="0"
         id="stop848" />
      <stop
         style="stop-color:#9b7bd4;stop-opacity:1;"
         offset="1"
         id="stop850" />
    </linearGradient>
    <linearGradient
       inkscape:collect="always"
       xlink:href="#linearGradient4393"
       id="linearGradient668-3"
       gradientUnits="userSpaceOnUse"
       gradientTransform="matrix(1.7478096,0,0,1.686832,2.000073,-1749.5261)"
       x1="5"
       y1="1037.3622"
       x2="8"
       y2="1051.3622" />
  </defs>
  <path
     id="rect10"
     style="fill:url(#linearGradient888);fill-opacity:1;stroke-width:0.0579115"
     d="M 3.49498,5 C 2.669271,5 2,5.671909 2,6.500718 V 7.979275 25.499268 C 2,26.328048 2.669271,27 3.49498,27 h 25.010088 c 0.825612,0 1.49485,-0.671948 1.49485,-1.500732 L 29.997518,9.595913 C 29.933988,8.773905 30.029038,6.87587 27.226246,6.87587 H 14.506997 c 0.01168,0 -0.921893,-0.84414 -1.752932,-1.347326 C 12.090156,5.093715 11.193124,5 11.193124,5 Z"
     sodipodi:nodetypes="scccscccccccs" />
  <path
     style="opacity:0.309598;fill:#000000;fill-opacity:1;stroke:none;stroke-width:0.144851;stroke-opacity:1;filter:url(#filter1881)"
     id="rect873"
     width="22.667437"
     height="5.0357642"
     x="46.507095"
     y="222.89639"
     transform="matrix(0.50789022,0,0,0.68368449,-20.536527,-142.10558)"
     inkscape:path-effect="#path-effect1331"
     d="m 48.623762,222.89639 h 18.434103 a 2.1166667,2.1166667 45 0 1 2.116667,2.11667 v 0.80243 a 2.1166667,2.1166667 135 0 1 -2.116667,2.11667 l -18.434103,0 a 2.1166667,2.1166667 45 0 1 -2.116667,-2.11667 v -0.80243 a 2.1166667,2.1166667 135 0 1 2.116667,-2.11667 z"
     sodipodi:type="rect" />
  <path
     id="rect851"
     style="fill:#9f6a99;fill-opacity:1;stroke-width:0.0936051"
     d="m 14.478404,8.480364 v 1.48729 h -3.486276 c 1.721979,-0.0044 2.184442,-0.510027 3.486276,-1.48729 z m 0,0 h 13.956061 c 0.822382,-0.0039 1.562286,0.662645 1.565448,1.48729 H 14.478404 Z M 3.495072,9.967654 h 26.504846 v 15.064508 c 0,0.827934 -0.669238,1.499059 -1.49485,1.499059 H 3.495072 c -0.825709,0 -1.49498,-0.671125 -1.49498,-1.499059 V 11.466805 c 0,-0.827977 0.669271,-1.499151 1.49498,-1.499151 z"
     sodipodi:nodetypes="cccccccccccccsccc" />
  <path
     id="rect851-3"
     style="fill:url(#linearGradient854-7);fill-opacity:1;stroke-width:0.0936449"
     d="m 14.651854,9.072604 -0.03785,1.554976 -3.447805,-0.0661 c 1.722018,-0.0044 2.184389,-0.51062 3.486204,-1.488881 z m 0,0 h 13.853233 c 0.822364,-0.0039 1.491674,0.663307 1.494865,1.488881 l -15.386502,0.0661 z M 3.495096,10.561485 h 26.504861 v 14.471329 c 0,0.828853 -0.669248,1.500733 -1.49487,1.500728 H 3.495096 c -0.825718,5e-6 -1.49499,-0.671875 -1.49499,-1.500728 V 12.062237 c 0,-0.828819 0.669272,-1.500752 1.49499,-1.500752 z"
     sodipodi:nodetypes="cccccccccccsccssc" />
  <rect
     style="fill:#ffffff;fill-opacity:0.25;stroke:#e5e9ef;stroke-width:0.28132;stroke-opacity:0.5;paint-order:markers fill stroke"
     id="rect2191"
     width="27.758575"
     height="3.5499221e-07"
     x="2.1207428"
     y="23.629253" />
  <rect
     style="fill:#ffffff;fill-opacity:0.5;stroke:#e5e9ef;stroke-width:0.28132;stroke-opacity:0.5;paint-order:markers fill stroke"
     id="rect2191-0-9"
     width="27.758575"
     height="3.5499221e-07"
     x="2.1207428"
     y="25.088835" />
  <path
     style="opacity:0.181;fill:url(#linearGradient668-3);fill-opacity:1;fill-rule:evenodd;stroke:none;stroke-width:1.71705px;stroke-linecap:butt;stroke-linejoin:miter;stroke-opacity:1"
     d="m 3.448327,10.546412 12.5342,13.398829 H 29.965 L 30,10.546412 H 3.476703 Z"
     id="path4152-2-5"
     inkscape:connector-curvature="0"
     sodipodi:nodetypes="cccccc" />
  <path
     fill-rule="evenodd"
     clip-rule="evenodd"
     d="m 16.632891,15.660375 c 0,-0.168086 0.135109,-0.304075 0.301878,-0.304075 0.166619,0 0.301709,0.135989 0.301709,0.304075 0,0.167618 -0.13509,0.303778 -0.301709,0.303778 -0.166769,0 -0.301878,-0.13616 -0.301878,-0.303778 z m 4.328904,0.02389 -0.127129,0.127976 c -9.66e-4,9.73e-4 -0.0019,9.73e-4 -0.0034,0.0024 -0.231583,0.233548 -0.604181,0.236083 -0.840636,0.01031 l -0.777572,-0.784108 c -0.117721,-0.118625 -0.117721,-0.311212 0,-0.429842 0.117716,-0.118625 0.308815,-0.118625 0.426526,0 l 0.657072,0.66176 c 4.1e-4,9.73e-4 9.66e-4,0 0.0014,9.73e-4 0.05879,0.05925 0.154275,0.05925 0.213027,0 0.0019,-0.0019 0.0034,-4.13e-4 0.0055,-9.73e-4 l 0.01834,-0.01849 c 0.235861,-0.237415 0.235861,-0.622405 0,-0.860122 l -0.533172,-0.537335 c -0.235842,-0.237722 -0.617897,-0.237722 -0.853468,0 l -1.035231,1.043354 h -0.853771 -2.58722 -1.659652 c -0.416634,0 -0.75428,0.340613 -0.75428,0.760491 v 5.777382 c 0,0.419892 0.337646,0.760228 0.75428,0.760228 h 5.732626 c 0.416789,0 0.754334,-0.340336 0.754334,-0.760228 v -3.910416 c 0,-0.08373 -0.06748,-0.151884 -0.150737,-0.151884 -0.04156,0 -0.0794,0.01722 -0.106501,0.04457 -4.73e-4,3.99e-4 -3.91e-4,-0.0019 -9.65e-4,-0.0015 l -1.676548,1.689394 c -0.18169,0.183211 -0.406935,0.294125 -0.642236,0.335986 -0.04451,0.01056 -0.09059,0.01751 -0.13819,0.01751 h -0.04253 c -0.01984,4.33e-4 -0.04026,4.33e-4 -0.06023,0 H 15.57708 c -0.333098,0 -0.603128,-0.272125 -0.603128,-0.607833 v -1.112976 c -3.24e-4,-0.02 -3.24e-4,-0.04053 0,-0.06057 v -0.04286 c 0,-0.04817 0.0067,-0.09463 0.01743,-0.139453 0.04171,-0.236953 0.15176,-0.464415 0.333567,-0.647495 l 0.640861,-0.645996 0.0014,0.0015 c 0.05441,-0.05524 0.130243,-0.08911 0.213475,-0.08911 0.166793,0 0.301734,0.13614 0.301734,0.304249 0,0.09216 -0.04186,0.174168 -0.106231,0.229821 l -0.62466,0.629543 c -0.131551,0.132306 -0.186793,0.309986 -0.17176,0.483131 -2.99e-4,0.0088 -0.0024,0.01727 -0.0024,0.02583 v 0.455988 c -1.4e-5,0.335675 0.270494,0.608281 0.603597,0.608281 h 0.452441 c 0.0088,0 0.01699,-0.0019 0.02563,-0.0024 0.171915,0.01528 0.348117,-0.04058 0.479379,-0.173262 l 1.93765,-1.952795 c 0.108881,-0.107819 0.258584,-0.152186 0.423731,-0.152186 0.333387,0 0.603592,0.272149 0.603592,0.60816 v 4.409008 c 0,0.671851 -0.54025,1.21663 -1.206764,1.21663 h -6.034481 c -0.666645,0 -1.207034,-0.544779 -1.207034,-1.21663 v -6.081408 c 0,-0.67187 0.540389,-1.216187 1.207034,-1.216187 h 5.000877 l 0.858933,-0.865634 c 0.23562,-0.237542 0.544498,-0.350689 0.8534,-0.350689 0.308898,0 0.617805,0.113147 0.853516,0.350689 l 0.533486,0.537651 c 0.235958,0.2378 0.348295,0.553571 0.347977,0.865255 -3.29e-4,0.310886 -0.112652,0.617739 -0.347977,0.855019 z"
     id="path2-1-3"
     style="fill:#ffffff;fill-opacity:1;stroke-width:0.0189311" />
</svg>
