<?xml version="1.0" encoding="UTF-8" standalone="no"?>
<svg
   viewBox="0 0 32 32"
   version="1.1"
   id="svg14"
   sodipodi:docname="folder_html.svg"
   inkscape:version="1.2.1 (9c6d41e410, 2022-07-14)"
   xmlns:inkscape="http://www.inkscape.org/namespaces/inkscape"
   xmlns:sodipodi="http://sodipodi.sourceforge.net/DTD/sodipodi-0.dtd"
   xmlns:xlink="http://www.w3.org/1999/xlink"
   xmlns="http://www.w3.org/2000/svg"
   xmlns:svg="http://www.w3.org/2000/svg"
   xmlns:rdf="http://www.w3.org/1999/02/22-rdf-syntax-ns#"
   xmlns:cc="http://creativecommons.org/ns#"
   xmlns:dc="http://purl.org/dc/elements/1.1/">
  <metadata
     id="metadata18">
    <rdf:RDF>
      <cc:Work
         rdf:about="">
        <dc:format>image/svg+xml</dc:format>
        <dc:type
           rdf:resource="http://purl.org/dc/dcmitype/StillImage" />
      </cc:Work>
    </rdf:RDF>
  </metadata>
  <sodipodi:namedview
     pagecolor="#ffffff"
     bordercolor="#666666"
     borderopacity="1"
     objecttolerance="10"
     gridtolerance="10"
     guidetolerance="10"
     inkscape:pageopacity="0"
     inkscape:pageshadow="2"
     inkscape:window-width="1920"
     inkscape:window-height="1004"
     id="namedview16"
     showgrid="false"
     inkscape:zoom="7.375"
     inkscape:cx="14.440678"
     inkscape:cy="16.338983"
     inkscape:window-x="0"
     inkscape:window-y="0"
     inkscape:window-maximized="1"
     inkscape:current-layer="svg14"
     inkscape:showpageshadow="2"
     inkscape:pagecheckerboard="0"
     inkscape:deskcolor="#d1d1d1" />
  <defs
     id="defs3051">
    <style
       type="text/css"
       id="current-color-scheme">.ColorScheme-Text { color:#31363b; }
.ColorScheme-Background { color:#eff0f1; }
.ColorScheme-Highlight { color:#3daee9; }
.ColorScheme-ViewText { color:#31363b; }
.ColorScheme-ViewBackground { color:#fcfcfc; }
.ColorScheme-ViewHover { color:#93cee9; }
.ColorScheme-ViewFocus { color:#3daee9; }
.ColorScheme-ButtonText { color:#31363b; }
.ColorScheme-ButtonBackground { color:#eff0f1; }
.ColorScheme-ButtonHover { color:#93cee9; }
.ColorScheme-ButtonFocus { color:#3daee9; }
</style>
    <linearGradient
       inkscape:collect="always"
       id="linearGradient4393">
      <stop
         style="stop-color:#000000;stop-opacity:1;"
         offset="0"
         id="stop4395" />
      <stop
         style="stop-color:#000000;stop-opacity:0;"
         offset="1"
         id="stop4397" />
    </linearGradient>
    <linearGradient
       inkscape:collect="always"
       xlink:href="#linearGradient886"
       id="linearGradient888-3"
       x1="75.75985"
       y1="208.49026"
       x2="91.646347"
       y2="264.21182"
       gradientUnits="userSpaceOnUse"
       gradientTransform="matrix(0.3531329,0,0,0.35449418,-12.501272,-68.908545)" />
    <linearGradient
       inkscape:collect="always"
       id="linearGradient886">
      <stop
         style="stop-color:#ff8080;stop-opacity:1"
         offset="0"
         id="stop882" />
      <stop
         style="stop-color:#ffb380;stop-opacity:1"
         offset="0.48468637"
         id="stop1402" />
      <stop
         style="stop-color:#ffb380;stop-opacity:1"
         offset="1"
         id="stop884" />
    </linearGradient>
    <filter
       inkscape:collect="always"
       style="color-interpolation-filters:sRGB"
       id="filter1881-6"
       x="-0.09064882"
       width="1.1812976"
       y="-0.40803665"
       height="1.8160733">
      <feGaussianBlur
         inkscape:collect="always"
         stdDeviation="0.85615684"
         id="feGaussianBlur1883-7" />
    </filter>
    <inkscape:path-effect
       effect="fillet_chamfer"
       id="path-effect1331-5"
       is_visible="true"
       lpeversion="1"
       satellites_param="F,0,0,1,0,2.1166667,0,1 @ F,0,0,1,0,2.1166667,0,1 @ F,0,0,1,0,2.1166667,0,1 @ F,0,0,1,0,2.1166667,0,1"
       unit="px"
       method="arc"
       mode="F"
       radius="8"
       chamfer_steps="1"
       flexible="false"
       use_knot_distance="true"
       apply_no_radius="true"
       apply_with_radius="true"
       only_selected="false"
       hide_knots="false"
       nodesatellites_param="F,0,0,1,0,2.1166667,0,1 @ F,0,0,1,0,2.1166667,0,1 @ F,0,0,1,0,2.1166667,0,1 @ F,0,0,1,0,2.1166667,0,1" />
    <linearGradient
       inkscape:collect="always"
       xlink:href="#linearGradient2781"
       id="linearGradient854-7-3"
       x1="76.788559"
       y1="222.65123"
       x2="92.097359"
       y2="268.94839"
       gradientUnits="userSpaceOnUse"
       gradientTransform="matrix(0.3531329,0,0,0.35449418,-12.519928,-68.908545)" />
    <linearGradient
       inkscape:collect="always"
       id="linearGradient2781">
      <stop
         style="stop-color:#ffccaa;stop-opacity:1"
         offset="0"
         id="stop2775" />
      <stop
         style="stop-color:#ffb380;stop-opacity:1"
         offset="0.48468637"
         id="stop2777" />
      <stop
         style="stop-color:#d35f5f;stop-opacity:1"
         offset="1"
         id="stop2779" />
    </linearGradient>
    <linearGradient
       inkscape:collect="always"
       xlink:href="#linearGradient4393"
       id="linearGradient668-5"
       gradientUnits="userSpaceOnUse"
       gradientTransform="matrix(1.7478123,0,0,1.6868321,2.0000192,-1749.5261)"
       x1="5"
       y1="1037.3622"
       x2="8"
       y2="1051.3622" />
  </defs>
  <path
     id="rect10-9"
     style="fill:url(#linearGradient888-3);fill-opacity:1;stroke-width:0.0579113"
     d="M 3.4949827,5 C 2.6692725,5 2,5.671909 2,6.500719 V 7.979275 25.499268 C 2,26.328047 2.6692725,27 3.4949827,27 H 28.505108 c 0.825615,0 1.494853,-0.671948 1.494853,-1.500732 L 29.997537,9.595913 C 29.934008,8.773906 30.02906,6.87587 27.226262,6.87587 H 14.507016 c 0.01168,0 -0.921896,-0.84414 -1.752935,-1.347326 C 12.090171,5.093715 11.19314,5 11.19314,5 Z"
     sodipodi:nodetypes="scccscccccccs" />
  <path
     style="opacity:0.309598;fill:#000000;fill-opacity:1;stroke:none;stroke-width:0.144851;stroke-opacity:1;filter:url(#filter1881-6)"
     id="rect873-1"
     width="22.667437"
     height="5.0357642"
     x="46.507095"
     y="222.89639"
     transform="matrix(0.50789102,0,0,0.6836845,-20.536564,-142.10559)"
     inkscape:path-effect="#path-effect1331-5"
     d="m 48.623762,222.89639 h 18.434103 a 2.1166667,2.1166667 45 0 1 2.116667,2.11667 v 0.80243 a 2.1166667,2.1166667 135 0 1 -2.116667,2.11667 l -18.434103,0 a 2.1166667,2.1166667 45 0 1 -2.116667,-2.11667 v -0.80243 a 2.1166667,2.1166667 135 0 1 2.116667,-2.11667 z"
     sodipodi:type="rect" />
  <path
     id="rect851-2"
     style="fill:#db7b7b;fill-opacity:1;stroke-width:0.0936053"
     d="m 14.478422,8.480364 v 1.48729 h -3.48628 c 1.721981,-0.0044 2.184444,-0.510027 3.48628,-1.48729 z m 0,0 h 13.956083 c 0.822385,-0.0039 1.56229,0.662646 1.565452,1.48729 H 14.478422 Z M 3.4950735,9.967654 H 29.999961 v 15.064509 c 0,0.827932 -0.669238,1.499058 -1.494853,1.499058 H 3.4950735 c -0.8257092,0 -1.4949817,-0.671126 -1.4949817,-1.499058 V 11.466806 c 0,-0.827978 0.6692725,-1.499152 1.4949817,-1.499152 z"
     sodipodi:nodetypes="cccccccccccccsccc" />
  <path
     id="rect851-3-7"
     style="fill:url(#linearGradient854-7-3);fill-opacity:1;stroke-width:0.093645"
     d="m 14.651871,9.072604 -0.03787,1.554976 -3.447811,-0.06609 c 1.72202,-0.0044 2.184393,-0.51062 3.486209,-1.488881 z m 0,0 h 13.853255 c 0.822367,-0.0039 1.491679,0.663307 1.494869,1.488881 l -15.386526,0.06609 z M 3.4950988,10.561485 H 30 v 14.471329 c 0,0.828853 -0.669248,1.500733 -1.494874,1.500728 H 3.4950988 c -0.8257194,5e-6 -1.4949927,-0.671875 -1.4949927,-1.500728 V 12.062237 c 0,-0.828818 0.6692733,-1.500752 1.4949927,-1.500752 z"
     sodipodi:nodetypes="cccccccccccsccssc" />
  <path
     style="opacity:0.181;fill:url(#linearGradient668-5);fill-opacity:1;fill-rule:evenodd;stroke:none;stroke-width:1.71705px;stroke-linecap:butt;stroke-linejoin:miter;stroke-opacity:1"
     d="M 3.4482758,10.546412 15.982494,23.945241 H 29.96499 L 29.99998,10.546412 H 3.4766473 Z"
     id="path4152-2-9"
     inkscape:connector-curvature="0"
     sodipodi:nodetypes="cccccc" />
  <rect
     style="fill:#ffffff;fill-opacity:0.25;stroke:#e5e9ef;stroke-width:0.28132;stroke-opacity:0.5;paint-order:markers fill stroke"
     id="rect2191"
     width="27.758621"
     height="3.5499221e-07"
     x="2.1206956"
     y="23.629238" />
  <rect
     style="fill:#ffffff;fill-opacity:0.5;stroke:#e5e9ef;stroke-width:0.28132;stroke-opacity:0.5;paint-order:markers fill stroke"
     id="rect2191-0-9"
     width="27.758621"
     height="3.5499221e-07"
     x="2.1206956"
     y="25.08882" />
  <path
     style="color:#eff0f1;fill:#ffffff;fill-opacity:1;stroke:none;stroke-width:1.00482"
     d="m 16.135305,13.000055 a 5.0483146,4.9999866 0 0 0 -0.970222,0.09375 5.0483146,4.9999866 0 0 0 -0.03352,0.0059 c -0.167747,0.03094 -0.331707,0.06906 -0.494969,0.119141 -0.160075,0.0491 -0.314431,0.111612 -0.467363,0.175781 -0.124992,0.05245 -0.245151,0.111867 -0.36482,0.173828 a 5.0483146,4.9999866 0 0 0 -0.136066,0.07227 c -0.107128,0.05968 -0.211396,0.122406 -0.313548,0.189453 a 5.0483146,4.9999866 0 0 0 -0.149872,0.103516 c -0.09824,0.06965 -0.195057,0.140511 -0.287913,0.216797 a 5.0483146,4.9999866 0 0 0 -0.118318,0.103515 c -0.0971,0.08494 -0.193706,0.169736 -0.283968,0.261719 -0.215325,0.219435 -0.405673,0.461532 -0.577794,0.716797 a 5.0483146,4.9999866 0 0 0 -0.05717,0.08008 c -0.07683,0.118937 -0.146338,0.241742 -0.212976,0.367188 a 5.0483146,4.9999866 0 0 0 -0.04337,0.08203 c -0.06312,0.124372 -0.120933,0.250904 -0.173535,0.380859 a 5.0483146,4.9999866 0 0 0 -0.04337,0.115234 c -0.03239,0.08614 -0.07098,0.16954 -0.0986,0.257813 -0.01391,0.04451 -0.02121,0.09003 -0.03352,0.134766 a 5.0483146,4.9999866 0 0 0 -0.0138,0.05273 c -0.03162,0.121128 -0.06116,0.243063 -0.08282,0.367187 a 5.0483146,4.9999866 0 0 0 -0.05719,0.402344 c -4.13e-4,0.004 -0.0015,0.0077 -0.002,0.01172 -1.29e-4,0.0013 1.3e-4,0.0026 0,0.0039 a 5.0483146,4.9999866 0 0 0 -0.03154,0.511719 5.0483146,4.9999866 0 0 0 0.09466,0.960938 5.0483146,4.9999866 0 0 0 0.0059,0.0332 c 0.03123,0.166141 0.06973,0.328538 0.120291,0.490233 0.04959,0.158542 0.112692,0.311422 0.17748,0.462891 0.05296,0.123794 0.112948,0.242804 0.175508,0.361328 a 5.0483146,4.9999866 0 0 0 0.07297,0.134765 c 0.06026,0.106101 0.123587,0.209372 0.191283,0.310547 A 5.0483146,4.9999866 0 0 0 12.02963,20.9024 c 0.07032,0.0973 0.141868,0.19319 0.218891,0.285156 a 5.0483146,4.9999866 0 0 0 0.104515,0.117188 c 0.08577,0.09617 0.171376,0.191852 0.264248,0.28125 0.221555,0.213266 0.465991,0.401791 0.723723,0.572265 a 5.0483146,4.9999866 0 0 0 0.08086,0.05664 c 0.120087,0.07611 0.244078,0.144937 0.370736,0.210938 a 5.0483146,4.9999866 0 0 0 0.08283,0.04297 c 0.125576,0.06251 0.253329,0.119775 0.38454,0.171875 a 5.0483146,4.9999866 0 0 0 0.116347,0.04297 c 0.08697,0.03207 0.171176,0.07031 0.260304,0.09766 0.04494,0.01378 0.09089,0.02101 0.136068,0.0332 a 5.0483146,4.9999866 0 0 0 0.05324,0.01367 c 0.122299,0.03133 0.24541,0.06057 0.370735,0.08203 a 5.0483146,4.9999866 0 0 0 0.406232,0.05664 c 0.004,4.11e-4 0.0077,0.0015 0.01183,0.002 a 5.0483146,4.9999866 0 0 0 0.0039,0 5.0483146,4.9999866 0 0 0 0.516662,0.03125 5.0483146,4.9999866 0 0 0 0.970223,-0.09375 5.0483146,4.9999866 0 0 0 0.03352,-0.0059 c 0.167749,-0.03094 0.331709,-0.06906 0.494972,-0.119141 0.279655,-0.08615 0.554208,-0.206984 0.81246,-0.339844 0.0337,-0.01734 0.06952,-0.03301 0.102546,-0.05078 a 5.0483146,4.9999866 0 0 0 0.757245,-0.50586 c 0.0213,-0.01697 0.04408,-0.03153 0.06507,-0.04883 a 5.0483146,4.9999866 0 0 0 0.579767,-0.574219 c 0.0405,-0.04623 0.08348,-0.08901 0.122266,-0.136719 a 5.0483146,4.9999866 0 0 0 0.42595,-0.625 c 0.03891,-0.06633 0.07851,-0.130974 0.114374,-0.199219 a 5.0483146,4.9999866 0 0 0 0.293828,-0.685547 c 0.01557,-0.0451 0.04094,-0.08517 0.05523,-0.130859 0.01391,-0.0445 0.02123,-0.09003 0.03352,-0.134766 0.0011,-0.004 0.0028,-0.0077 0.0039,-0.01172 a 5.0483146,4.9999866 0 0 0 0.0098,-0.04102 c 0.03162,-0.121126 0.06116,-0.243063 0.08284,-0.367186 a 5.0483146,4.9999866 0 0 0 0.05717,-0.402344 5.0483146,4.9999866 0 0 0 0.002,-0.01172 c 1.29e-4,-0.0013 -1.28e-4,-0.0026 0,-0.0039 a 5.0483146,4.9999866 0 0 0 0.03154,-0.511719 5.0483146,4.9999866 0 0 0 -0.09466,-0.960938 5.0483146,4.9999866 0 0 0 -0.0059,-0.0332 c -0.03123,-0.166142 -0.06973,-0.328534 -0.120293,-0.490234 -0.01191,-0.03809 -0.03447,-0.07162 -0.04733,-0.109375 a 5.0483146,4.9999866 0 0 0 -0.287934,-0.677729 c -0.03663,-0.07084 -0.07257,-0.140135 -0.112405,-0.208985 a 5.0483146,4.9999866 0 0 0 -0.402287,-0.589843 c -0.02921,-0.03718 -0.05068,-0.08095 -0.08086,-0.117188 -0.05324,-0.06389 -0.113832,-0.119494 -0.171564,-0.177734 a 5.0483146,4.9999866 0 0 0 -0.84993,-0.736328 c -0.03894,-0.02736 -0.0766,-0.05577 -0.116347,-0.08203 a 5.0483146,4.9999866 0 0 0 -0.0907,-0.05664 c -0.221231,-0.13943 -0.450995,-0.266794 -0.696114,-0.369141 -0.04522,-0.01896 -0.09492,-0.03265 -0.141983,-0.05078 -0.110108,-0.04242 -0.220561,-0.08698 -0.331296,-0.121094 -0.04494,-0.01378 -0.09089,-0.02101 -0.136067,-0.0332 -0.004,-0.0011 -0.0077,-0.0028 -0.01183,-0.0039 a 5.0483146,4.9999866 0 0 0 -0.04142,-0.0098 c -0.122298,-0.03133 -0.24541,-0.06057 -0.370735,-0.08203 a 5.0483146,4.9999866 0 0 0 -0.406231,-0.05664 5.0483146,4.9999866 0 0 0 -0.01183,-0.002 c -0.0013,-1.28e-4 -0.0026,1.28e-4 -0.0039,0 A 5.0483146,4.9999866 0 0 0 16.135307,13 Z m 0,1 a 4.038653,3.9999905 0 0 1 2.137645,0.613281 c -0.0023,0.0048 -0.0063,0.0053 -0.0078,0.01172 0.01842,0.03706 0.06507,0.04061 0.108459,0.04883 a 4.038653,3.9999905 0 0 1 0.06705,0.04492 c 0.02525,0.03437 0.05549,0.08537 0.06114,0.109375 0.007,0.0254 0.01101,0.113365 0,0.140625 -0.02847,0.0727 -0.104884,0.0643 -0.189312,0.0625 -0.02301,0 -0.042,0.002 -0.06312,0 -0.142261,-0.009 -0.282825,-0.05392 -0.34707,0.04687 0.004,0.0773 0.01746,0.12025 0,0.1875 -0.01282,0.0491 -0.06581,0.0823 -0.0631,0.125 9.99e-4,0.0218 0.04187,0.06385 0.04733,0.09375 0.004,0.0164 -0.007,0.048 0,0.0625 0.02394,0.0446 0.084,-0.007 0.126208,0 0.04037,0.006 0.07888,0.06491 0.07888,0.109375 0,0.0318 -0.01136,0.0941 -0.03154,0.125 -0.04037,0.06 -0.115722,0.04542 -0.173536,0.07813 -0.04766,0.0273 -0.06629,0.0934 -0.09466,0.140625 -0.0303,0.0509 -0.05934,0.0679 -0.04733,0.140625 -0.0413,0.0809 -0.08824,0.132795 -0.173533,0.171875 -0.02474,0.0109 -0.05596,0.03057 -0.07888,0.04687 -0.01838,0.0127 -0.03735,0.0334 -0.06312,0.0625 -0.0321,0.0354 -0.0773,0.05082 -0.09466,0.07813 -0.01293,0.0209 -0.002,0.06565 -0.01579,0.09375 -0.02019,0.0382 -0.05324,0.07119 -0.07888,0.109375 -0.01191,0.0182 -0.0346,0.0389 -0.04733,0.0625 -0.02939,0.0527 -0.06866,0.0943 -0.06312,0.140625 0.004,0.0445 0.06039,0.05475 0.06312,0.09375 0.002,0.0218 -0.01679,0.0389 -0.01579,0.0625 9.99e-4,0.0345 0.01305,0.05092 0.01579,0.07813 0.006,0.0672 -0.0345,0.0943 -0.04733,0.140625 -0.006,0.0218 0.005,0.0453 0,0.0625 -0.01101,0.0336 -0.06219,0.05385 -0.06311,0.09375 -9.99e-4,0.0282 0.0446,0.05385 0.04733,0.09375 0.002,0.0272 -0.02134,0.05272 -0.01579,0.07813 0.01011,0.0491 0.103434,0.11808 0.141984,0.15625 0.05231,0.0518 0.103267,0.0861 0.126206,0.140625 0.01929,0.0463 0.02727,0.12171 0.06312,0.15625 0.02656,0.0254 0.07642,0.0362 0.110431,0.0625 0.0321,0.0245 0.07641,0.0362 0.110432,0.0625 0.05604,0.0436 0.13182,0.13137 0.220862,0.125 0.04686,-0.004 0.08966,-0.02225 0.141985,-0.03125 0.05411,-0.009 0.118459,-0.03675 0.173534,-0.03125 0.0422,0.005 0.08218,0.03405 0.126209,0.03125 0.04593,-0.003 0.10545,-0.02418 0.157759,-0.04687 0.09088,-0.0391 0.230682,-0.11288 0.362847,-0.09375 0.100967,0.0146 0.102861,0.127355 0.173536,0.171875 0.08078,0.007 0.140843,-0.0154 0.205088,0 0.04866,0.0118 0.105838,0.102465 0.110431,0.140625 0.005,0.0391 -0.02609,0.06925 -0.03154,0.09375 -0.01283,0.0527 -0.02246,0.12263 -0.03154,0.15625 -0.007,0.0264 -0.01669,0.05182 -0.01579,0.07813 0,0.0237 0.03838,0.0785 0.06311,0.109375 0.0303,0.0382 0.0737,0.06761 0.110431,0.109375 0.06704,0.0763 0.09521,0.18037 0.141984,0.28125 0.01191,0.0255 -0.01101,0.0307 0,0.0625 -0.02019,0.15268 -0.07259,0.252845 -0.173536,0.421875 -0.04776,0.0545 -0.09566,0.11935 -0.09466,0.1875 -0.004,0.16358 0.08626,0.24812 0.07888,0.40625 -2.68e-4,0.0035 2.51e-4,0.0025 0,0.0059 a 4.038653,3.9999905 0 0 1 -3.249849,1.634766 4.038653,3.9999905 0 0 1 -1.189112,-0.175781 c 2.14e-4,-0.0051 0.0064,-0.0064 0.0059,-0.01172 -0.002,-0.0264 -0.02622,-0.0389 -0.04733,-0.0625 -0.01736,-0.02 -0.004,-0.0443 -0.01579,-0.0625 -0.02201,-0.0318 -0.05391,-0.04745 -0.0631,-0.09375 0.06604,-0.0127 0.15696,0.07328 0.252413,0.04687 0.04503,-0.0127 0.120883,-0.0988 0.141984,-0.140625 0.006,-0.0127 -0.007,-0.06262 0,-0.07813 0.008,-0.0172 0.02882,-0.02225 0.03154,-0.03125 0.006,-0.0245 -0.005,-0.03157 0,-0.04687 0.01646,-0.0464 0.06719,-0.07579 0.09466,-0.109375 0.02111,-0.0255 0.04383,-0.05182 0.06312,-0.07813 0.02201,-0.0282 0.0327,-0.0379 0.04733,-0.0625 0.01383,-0.0827 -0.05185,-0.14606 -0.03154,-0.21875 0.02201,-0.0818 0.14102,-0.134615 0.220864,-0.171875 0.02757,-0.0128 0.05596,-0.03867 0.07888,-0.04687 0.05504,-0.0191 0.122145,-0.01315 0.173537,-0.03125 0.08623,-0.0309 0.115546,-0.124975 0.15776,-0.203125 0.02019,-0.0363 0.0436,-0.06745 0.04733,-0.09375 0.003,-0.0236 -0.005,-0.05082 0,-0.07813 0.005,-0.0272 0.008,-0.04812 0.01579,-0.07813 0.01011,-0.0391 0.01579,-0.11262 0.01579,-0.15625 0,-0.0363 -0.01485,-0.04542 -0.01579,-0.07813 -0.006,-0.11814 0.03486,-0.12298 0.07888,-0.1875 0.02202,-0.0318 0.03177,-0.08669 0.04733,-0.109375 0.07432,-0.10905 0.19849,-0.162735 0.189312,-0.328125 -0.004,-0.0545 -0.02271,-0.17023 -0.06311,-0.1875 -0.02301,-0.01 -0.07642,-0.003 -0.110433,-0.01563 -0.108307,-0.04 -0.186852,-0.162785 -0.299742,-0.171875 -0.02394,-0.001 -0.03655,10e-4 -0.06311,0 -0.04413,-0.001 -0.09239,-0.04147 -0.141984,-0.04687 -0.03119,-0.004 -0.09208,0.009 -0.110431,0 -0.02847,-0.0136 -0.02441,-0.06272 -0.04733,-0.07813 -0.01839,-0.0127 -0.05051,-0.02135 -0.07888,-0.03125 -0.04503,-0.0172 -0.0739,-0.02765 -0.126207,-0.03125 -0.01646,-0.001 -0.06062,0.003 -0.07888,0 -0.02847,-0.005 -0.05234,-0.03057 -0.07888,-0.04687 -0.03302,-0.02 -0.04938,-0.0343 -0.06312,-0.0625 0.0303,-0.0982 -0.07458,-0.114635 -0.09466,-0.171875 -0.009,-0.0264 0.009,-0.07015 0,-0.09375 -0.01191,-0.0337 -0.04133,-0.05002 -0.07888,-0.07813 -0.06604,-0.0509 -0.126329,-0.0976 -0.220863,-0.109375 -0.0422,-0.005 -0.0915,0.003 -0.141984,0 -0.05321,-0.004 -0.117382,-0.03272 -0.157761,-0.07813 -0.03857,-0.0446 -0.04496,-0.0885 -0.07888,-0.109375 -0.0321,-0.02 -0.08847,-0.02607 -0.110433,-0.04687 -0.01011,-0.009 -0.007,-0.02607 -0.01579,-0.04687 -0.01646,-0.0328 -0.05174,-0.03813 -0.03154,-0.07813 -0.03675,-0.0182 -0.02361,0.02293 -0.06312,0.01563 -0.03585,-0.05 -0.06119,-0.0779 -0.141984,-0.0625 -0.03675,0.007 -0.06734,0.0616 -0.110432,0.0625 -0.03585,0.001 -0.06362,-0.0561 -0.110431,-0.0625 -0.03585,-0.005 -0.08564,0.03675 -0.110432,0.03125 -0.03947,-0.007 -0.04314,-0.05452 -0.07888,-0.07813 -0.02666,-0.0173 -0.08003,-0.0634 -0.09466,-0.0625 -0.04593,10e-4 -0.07866,0.0961 -0.141983,0.0625 -0.03119,-0.0391 0.05254,-0.04182 0.01579,-0.07813 -0.02757,-0.0272 -0.0411,0.001 -0.06312,0.01563 -0.02574,0.0172 -0.05051,0.03698 -0.07888,0.04687 -0.06332,0.0236 -0.108207,0.02148 -0.157761,0.04687 -0.04593,0.0236 -0.05234,0.06301 -0.07888,0.109375 -0.02111,0.0382 -0.06254,0.09195 -0.09466,0.09375 -0.03858,0.002 -0.07552,-0.0479 -0.110433,-0.0625 -0.10554,-0.0455 -0.165231,0.03035 -0.252415,0.03125 -0.08078,10e-4 -0.192975,-0.127695 -0.189311,-0.203125 0.002,-0.0464 0.02609,-0.114625 0.03154,-0.171875 0.005,-0.0455 0.04643,-0.0832 0.04733,-0.125 9.99e-4,-0.0554 -0.08946,-0.103015 -0.126205,-0.109375 -0.05191,-0.0093 -0.112689,1.84e-4 -0.175509,0.0059 a 4.038653,3.9999905 0 0 1 0.384539,-1.152343 c 0.0033,9.2e-4 0.0088,0.0056 0.01183,0.0059 0.02938,10e-4 0.03555,-0.03585 0.06311,-0.03125 0.02757,0.005 0.07433,0.06105 0.07888,0.09375 0.004,0.0409 -0.0278,0.0796 -0.01579,0.125 0.0431,0.0437 0.127814,0.06835 0.189311,0.09375 0.04037,-0.0327 0.006,-0.10899 0,-0.15625 -9.99e-4,-0.0209 0.002,-0.0434 0,-0.0625 -0.005,-0.0327 -0.01579,-0.06565 -0.01579,-0.09375 0,-0.12996 0.101197,-0.183475 0.189311,-0.234375 0.03755,-0.0218 0.07736,-0.06183 0.110431,-0.07813 0.04676,-0.0227 0.07189,-0.02518 0.110433,-0.04687 0.06977,-0.0391 0.135151,-0.0805 0.189311,-0.125 0.02474,-0.0591 -0.002,-0.12934 0,-0.1875 0.02474,-0.0154 0.03645,0.002 0.0631,0 0.0422,-0.009 0.05506,-0.07015 0.07888,-0.09375 0.01373,-0.0136 0.06231,-0.01775 0.07888,-0.03125 0.0422,-0.0328 0.04212,-0.07925 0.07888,-0.09375 0.01284,-0.005 0.0428,-0.01023 0.06312,-0.01563 0.02757,-0.007 0.06633,-0.03158 0.110431,-0.04687 0.02847,-0.01 0.09946,-0.005 0.110432,-0.01563 0.01373,-0.0136 -0.004,-0.07285 0,-0.09375 0.02201,-0.10269 0.175493,-0.106085 0.26819,-0.140625 0.06422,-0.0245 0.133493,-0.0761 0.205088,-0.0625 -0.01383,0.0491 -0.07502,0.03475 -0.06311,0.09375 0.01556,0.0827 0.112612,-0.01955 0.141983,-0.03125 0.05604,-0.0236 0.163217,-0.0362 0.236639,-0.0625 0.06422,-0.0227 0.17099,-0.067 0.110432,-0.140625 -0.05048,-0.003 -0.06644,0.0443 -0.110432,0.0625 -0.0303,0.005 -0.03745,-0.01382 -0.06312,-0.01563 -0.02484,-10e-4 -0.03838,0.02013 -0.06312,0.01563 -0.02484,-0.005 -0.05946,-0.04903 -0.0631,-0.07813 -0.01011,-0.0763 0.07924,-0.0999 0.110431,-0.15625 -0.0211,-0.0691 -0.114794,-0.004 -0.173536,-0.03125 0.006,-0.0409 0.03022,-0.08565 0.07888,-0.09375 0.03947,-0.006 0.133891,0.01245 0.157759,0.03125 0.01373,0.0118 -0.005,0.0434 0.01579,0.0625 0.02383,0.0209 0.06347,0.005 0.09466,0 0.01101,-0.0518 -0.0723,-0.0289 -0.06311,-0.0625 0.06239,-0.04 0.176237,-0.02135 0.252416,-0.03125 0.04403,-0.006 0.08673,-0.0416 0.126209,-0.0625 0.03665,-0.0209 0.0719,-0.05022 0.110431,-0.01563 0.01101,0.0372 -0.02632,0.05903 -0.04733,0.07813 -0.07067,0.0618 -0.134243,0.131335 -0.189312,0.203125 0.03392,0.0327 0.08509,0.009 0.141984,0.01563 0.02201,0.003 0.05596,0.01203 0.07888,0.01563 0.02757,0.005 0.05687,-0.005 0.07888,0 0.03858,0.009 0.04029,0.0625 0.07888,0.0625 0.06239,0 0.06739,-0.05195 0.03154,-0.09375 0.01101,-0.0428 0.03141,-0.0794 0.01579,-0.109375 -0.02847,-0.0564 -0.13648,0.009 -0.141983,-0.0625 -0.004,-0.0454 0.04656,-0.05925 0.06312,-0.09375 -0.007,-0.0872 0.0723,-0.09279 0.06311,-0.171875 -0.005,-0.0328 -0.04017,-0.0317 -0.06311,-0.0625 -0.01191,-0.0163 -0.01791,-0.0507 -0.03154,-0.0625 -0.01183,-0.0099 -0.02841,-0.0134 -0.04338,-0.01953 a 4.038653,3.9999905 0 0 1 0.753302,-0.07422 z m -2.664166,1 c 0.01225,-0.0015 0.03122,0.0019 0.04535,0 0.02111,-10e-4 0.04007,0 0.06312,0 0.02291,0 0.05391,-0.009 0.0631,0 -0.01386,0.05643 -0.136509,0.03796 -0.191282,0.01758 a 4.038653,3.9999905 0 0 1 0.01972,-0.01758 z m 5.395381,0.06055 a 4.038653,3.9999905 0 0 1 0.455529,0.486328 c -0.03312,0 -0.06629,0.01563 -0.09466,0.01563 -0.04037,10e-4 -0.123052,-0.02022 -0.173534,-0.01563 -0.0303,0.002 -0.05051,0.01383 -0.07888,0.01563 -0.07987,0.006 -0.126905,-0.005 -0.189311,0 -0.04503,0.003 -0.131312,0.02787 -0.173536,0.04688 -0.02111,0.01 -0.03555,0.03327 -0.06311,0.04687 -0.01284,0.006 -0.03078,0.008 -0.04733,0.01563 -0.02564,0.0118 -0.06992,0.04057 -0.09466,0.04687 -0.03575,0.009 -0.07682,-0.003 -0.141986,0 -0.04686,0.002 -0.125287,-0.007 -0.126205,-0.0625 -9.99e-4,-0.0845 0.155874,-0.048 0.236639,-0.0625 0.0303,-0.006 0.04212,-0.0416 0.07888,-0.0625 0.01746,-0.01 0.03076,-0.02045 0.04733,-0.03125 0.02747,-0.0191 0.07435,-0.05632 0.07888,-0.07813 0.003,-0.02 -0.01862,-0.048 -0.01579,-0.0625 0.004,-0.0191 0.03838,-0.038 0.0631,-0.0625 0.03858,-0.0382 0.06268,-0.08479 0.110433,-0.109375 0.03209,-0.0172 0.09571,-0.02148 0.11043,-0.04687 0.004,-0.0291 -9.99e-4,-0.0362 0,-0.0625 0.01136,-0.01024 0.01407,-0.01238 0.01774,-0.01758 z m 0.53441,0.595703 a 4.038653,3.9999905 0 0 1 0.171564,0.25 c -0.0046,-1.06e-4 -0.0081,8.75e-4 -0.0138,0 -0.03119,-0.003 -0.08471,-1.95e-4 -0.110433,-0.01563 -0.02484,-0.0154 -0.0883,-0.0416 -0.09466,-0.0625 -0.01011,-0.0336 0.07704,-0.08121 0.07888,-0.109375 0.002,-0.0218 -0.02702,-0.0298 -0.03154,-0.0625 z m -7.288495,2.007812 c 0.02444,0.0353 0.05096,0.06987 0.07888,0.08594 0.002,0.0291 -0.009,0.05632 0,0.07813 0.02384,0.0318 0.0719,0.0416 0.110431,0.0625 0.04676,0.0254 0.06633,0.0894 0.11043,0.109375 0.01556,0.006 0.03927,-0.007 0.06312,0 0.06059,0.0182 0.0739,0.10925 0.126206,0.09375 0.03392,-0.01 0.04178,-0.06105 0.04733,-0.09375 0.02291,-0.0245 0.04303,-0.0625 0.07888,-0.0625 0.05694,-10e-4 0.07355,0.0696 0.09466,0.125 0.01191,0.0309 0.03904,0.06105 0.04732,0.09375 0.01374,0.0563 0.01191,0.21638 0,0.25 -0.01473,0.0418 -0.07552,0.06389 -0.11043,0.109375 -0.01646,0.0218 -0.0345,0.048 -0.04733,0.0625 -0.02202,0.0272 -0.04656,0.038 -0.06312,0.0625 -0.009,0.0136 -0.007,0.0434 -0.01579,0.0625 -0.02757,0.0581 -0.07025,0.101895 -0.04733,0.171875 0.009,0.0282 0.04733,0.06015 0.04733,0.09375 0,0.04 -0.0883,0.05015 -0.09466,0.09375 -0.005,0.0318 0.03722,0.0979 0.04733,0.140625 0.007,0.0318 0.05958,0.05723 0.07888,0.07813 0.03209,0.0354 0.06536,0.0796 0.09466,0.125 0.05786,0.0882 0.08509,0.19491 0.141983,0.28125 0.0303,0.0445 0.09026,0.0777 0.110431,0.125 0.01011,0.0236 -0.009,0.07205 0,0.09375 0.03302,0.0736 0.193842,0.15115 0.268192,0.1875 0.03485,0.0173 0.06254,0.02878 0.09466,0.04687 0.04865,0.0273 0.14876,0.0823 0.173535,0.125 0.02201,0.0382 0.03622,0.12661 0.04733,0.1875 0.01373,0.08 -0.004,0.148035 0,0.234375 0.002,0.0473 0.01579,0.0777 0.01579,0.125 0,0.0163 9.99e-4,0.0461 0,0.0625 -9.99e-4,0.0563 0.005,0.114625 0,0.171875 -0.0015,0.02318 -7.56e-4,0.0475 0,0.07031 a 4.038653,3.9999905 0 0 1 -1.514492,-3.117188 4.038653,3.9999905 0 0 1 0.01579,-0.335938 z m 1.262077,0.195313 c 0.04413,-0.02 0.03575,0.057 0,0.0625 -0.03402,0.005 -0.03302,-0.047 0,-0.0625 z"
     class="ColorScheme-Background"
     id="path12-7-3" />
</svg>
