<?xml version="1.0" encoding="UTF-8" standalone="no"?>
<svg
   width="48"
   height="48"
   version="1.1"
   id="svg3"
   sodipodi:docname="instagram.svg"
   inkscape:version="1.3.2 (091e20ef0f, 2023-11-25)"
   xmlns:inkscape="http://www.inkscape.org/namespaces/inkscape"
   xmlns:sodipodi="http://sodipodi.sourceforge.net/DTD/sodipodi-0.dtd"
   xmlns="http://www.w3.org/2000/svg"
   xmlns:svg="http://www.w3.org/2000/svg">
  <defs
     id="defs3">
    <radialGradient
       id="SVGID_1_"
       cx="-101.54321"
       cy="-44.199154"
       r="192.9176"
       gradientUnits="userSpaceOnUse"
       fx="-101.54321"
       fy="-44.199154"
       gradientTransform="matrix(0.17256398,7.1450469e-4,-8.0552889e-4,0.19454583,32.632475,42.915747)">
      <stop
         offset="0"
         style="stop-color:#FEC053"
         id="stop146" />
      <stop
         offset="0.3273"
         style="stop-color:#F2203E"
         id="stop147" />
      <stop
         offset="0.6485"
         style="stop-color:#B729A8"
         id="stop148" />
      <stop
         offset="1"
         style="stop-color:#5342D6"
         id="stop149" />
    </radialGradient>
  </defs>
  <sodipodi:namedview
     id="namedview3"
     pagecolor="#ffffff"
     bordercolor="#999999"
     borderopacity="1"
     inkscape:showpageshadow="2"
     inkscape:pageopacity="0"
     inkscape:pagecheckerboard="0"
     inkscape:deskcolor="#d1d1d1"
     inkscape:zoom="5.96875"
     inkscape:cx="40.376963"
     inkscape:cy="37.528796"
     inkscape:window-width="1920"
     inkscape:window-height="996"
     inkscape:window-x="0"
     inkscape:window-y="0"
     inkscape:window-maximized="1"
     inkscape:current-layer="svg3" />
  <polygon
     style="fill:none;stroke:#f1f2f2;stroke-width:9.27854;stroke-miterlimit:10"
     points="435.858,400.297 417.652,431.089 381.237,431.089 363.03,400.297 381.237,369.505 417.652,369.505 "
     id="polygon72"
     transform="matrix(0.21555047,0,0,0.21555045,-61.312938,-62.220164)" />
  <circle
     cx="24"
     cy="24"
     id="circle149"
     style="fill:url(#SVGID_1_);stroke-width:0.999994"
     r="21" />
  <path
     style="fill:#f1f2f2;stroke-width:0.999994"
     d="M 32.443529,38.762402 H 15.556658 c -3.484372,0 -6.319074,-2.834915 -6.319074,-6.31929 V 15.556679 c 0,-3.484592 2.834702,-6.3192888 6.319074,-6.3192888 h 16.886871 c 3.484371,0 6.319075,2.8346968 6.319075,6.3192888 v 16.886433 c 0,3.484375 -2.834704,6.31929 -6.319075,6.31929 z M 15.556658,12.684039 c -1.584075,0 -2.872417,1.288773 -2.872417,2.87264 v 16.886433 c 0,1.584082 1.288553,2.872424 2.872417,2.872424 h 16.886871 c 1.584076,0 2.87243,-1.28856 2.87243,-2.872424 V 15.556679 c 0,-1.583867 -1.288565,-2.87264 -2.87243,-2.87264 z"
     id="path157" />
  <path
     style="fill:#f1f2f2;stroke-width:0.999994"
     d="m 23.999984,32.156004 c -4.497241,0 -8.155991,-3.658968 -8.155991,-8.155997 0,-4.497027 3.65875,-8.155995 8.155991,-8.155995 4.497242,0 8.156434,3.658968 8.156434,8.155995 0,4.497029 -3.659192,8.155997 -8.156434,8.155997 z m 0,-12.865128 c -2.596737,0 -4.709347,2.112388 -4.709347,4.709131 0,2.596734 2.11261,4.709122 4.709347,4.709122 2.596952,0 4.709565,-2.112388 4.709565,-4.709122 0,-2.596743 -2.112613,-4.709131 -4.709565,-4.709131 z"
     id="path158" />
  <path
     style="fill:#f1f2f2;stroke-width:0.999994"
     d="m 33.81615,16.099002 c 0,0.810904 -0.657643,1.46833 -1.468536,1.46833 -0.81091,0 -1.46833,-0.657426 -1.46833,-1.46833 0,-0.810898 0.65742,-1.468117 1.46833,-1.468117 0.810893,0 1.468536,0.657219 1.468536,1.468117 z"
     id="path159" />
</svg>
