<?xml version="1.0" encoding="UTF-8" standalone="no"?>
<svg
   width="48"
   height="48"
   version="1"
   id="svg7"
   sodipodi:docname="kasumi.svg"
   inkscape:version="1.4.2 (unknown)"
   xmlns:inkscape="http://www.inkscape.org/namespaces/inkscape"
   xmlns:sodipodi="http://sodipodi.sourceforge.net/DTD/sodipodi-0.dtd"
   xmlns:xlink="http://www.w3.org/1999/xlink"
   xmlns="http://www.w3.org/2000/svg"
   xmlns:svg="http://www.w3.org/2000/svg">
  <defs
     id="defs7">
    <linearGradient
       id="linearGradient7"
       inkscape:collect="always">
      <stop
         style="stop-color:#2a7fff;stop-opacity:1"
         offset="0"
         id="stop8" />
      <stop
         style="stop-color:#1a75ff;stop-opacity:1;"
         offset="0.59162253"
         id="stop10" />
      <stop
         style="stop-color:#eff2f6;stop-opacity:1;"
         offset="0.92173076"
         id="stop11" />
      <stop
         style="stop-color:#eff2f6;stop-opacity:1;"
         offset="1"
         id="stop9" />
    </linearGradient>
    <linearGradient
       id="linearGradient1"
       inkscape:collect="always">
      <stop
         style="stop-color:#5599ff;stop-opacity:1"
         offset="0"
         id="stop5" />
      <stop
         style="stop-color:#5599ff;stop-opacity:1"
         offset="0.28848785"
         id="stop7" />
      <stop
         style="stop-color:#2a7fff;stop-opacity:1"
         offset="1"
         id="stop6" />
    </linearGradient>
    <linearGradient
       id="c-3"
       gradientUnits="userSpaceOnUse"
       x1="24.072048"
       x2="23.959682"
       y1="0.75082099"
       y2="46.056854">
      <stop
         offset="0"
         stop-color="#fff"
         id="stop3" />
      <stop
         offset="1"
         stop-color="#d9d9d9"
         id="stop4" />
    </linearGradient>
    <linearGradient
       id="b-6"
       gradientUnits="userSpaceOnUse"
       x1="29.203026"
       x2="34.121048"
       xlink:href="#a-7"
       y1="24.827356"
       y2="29.224836" />
    <linearGradient
       id="a-7">
      <stop
         offset="0"
         id="stop1" />
      <stop
         offset="1"
         stop-opacity="0"
         id="stop2" />
    </linearGradient>
    <linearGradient
       id="d"
       gradientUnits="userSpaceOnUse"
       x1="15.948756"
       x2="25.031786"
       xlink:href="#a-7"
       y1="23.618279"
       y2="33.69899" />
    <linearGradient
       id="e"
       gradientUnits="userSpaceOnUse"
       x1="21.990562"
       x2="29.320522"
       xlink:href="#a-7"
       y1="33.780373"
       y2="41.931858" />
    <linearGradient
       id="paint154_linear_890_11"
       x1="778"
       y1="812.29199"
       x2="788"
       y2="812.29199"
       gradientUnits="userSpaceOnUse"
       gradientTransform="translate(-751,-696)">
      <stop
         stop-color="#EFF2F6"
         id="stop1050" />
      <stop
         offset="0.600785"
         stop-color="#B7C6CD"
         id="stop1051" />
    </linearGradient>
    <linearGradient
       id="paint155_linear_890_11"
       x1="783"
       y1="813"
       x2="783"
       y2="817"
       gradientUnits="userSpaceOnUse"
       gradientTransform="translate(-751,-696)">
      <stop
         stop-color="#EFF2F6"
         id="stop1052" />
      <stop
         offset="0.734138"
         stop-color="#B7C6CD"
         id="stop1053" />
    </linearGradient>
    <radialGradient
       id="paint156_radial_890_11"
       cx="0"
       cy="0"
       r="1"
       gradientUnits="userSpaceOnUse"
       gradientTransform="matrix(27.999986,27.999976,-27.999986,27.999976,32.302392,33.999998)">
      <stop
         offset="0.60067803"
         stop-color="#B7C6CD"
         id="stop1054"
         style="stop-color:#384850;stop-opacity:1;" />
      <stop
         offset="0.876735"
         stop-color="#EFF2F6"
         id="stop1055" />
    </radialGradient>
    <linearGradient
       id="paint157_linear_890_11"
       x1="796.84485"
       y1="799.43359"
       x2="768.90088"
       y2="770.81476"
       gradientUnits="userSpaceOnUse"
       gradientTransform="matrix(1.1666666,0,0,1.1666668,-881.19764,-881.8333)">
      <stop
         offset="0.00000057"
         stop-color="#2E2E41"
         id="stop1056"
         style="stop-color:#495361;stop-opacity:1;" />
      <stop
         offset="0.711139"
         stop-color="#566C80"
         id="stop1057" />
    </linearGradient>
    <linearGradient
       id="paint158_linear_890_11"
       x1="792"
       y1="794"
       x2="774"
       y2="776"
       gradientUnits="userSpaceOnUse"
       gradientTransform="translate(-751,-696)">
      <stop
         offset="0.304478"
         stop-color="#2E2E41"
         id="stop1058" />
      <stop
         offset="1"
         stop-color="#566C80"
         id="stop1059" />
    </linearGradient>
    <linearGradient
       id="paint159_linear_890_11"
       x1="788"
       y1="790"
       x2="778"
       y2="780"
       gradientUnits="userSpaceOnUse"
       gradientTransform="translate(-751,-696)">
      <stop
         offset="0.391394"
         stop-color="#5200FF"
         id="stop1060" />
      <stop
         offset="1"
         stop-color="#0085FF"
         id="stop1061" />
    </linearGradient>
    <linearGradient
       id="paint160_linear_890_11"
       x1="784"
       y1="798"
       x2="782"
       y2="796"
       gradientUnits="userSpaceOnUse"
       gradientTransform="translate(-751,-696)">
      <stop
         stop-color="#FF7E07"
         id="stop1062" />
      <stop
         offset="1"
         stop-color="#FFE607"
         id="stop1063" />
    </linearGradient>
    <linearGradient
       inkscape:collect="always"
       xlink:href="#linearGradient1"
       id="linearGradient6"
       x1="17.408081"
       y1="16.037786"
       x2="49.155514"
       y2="50.137749"
       gradientUnits="userSpaceOnUse"
       gradientTransform="translate(-1.3023872,-3)" />
    <radialGradient
       inkscape:collect="always"
       xlink:href="#linearGradient7"
       id="radialGradient9"
       cx="25.302387"
       cy="34"
       fx="25.302387"
       fy="34"
       r="28"
       gradientUnits="userSpaceOnUse"
       gradientTransform="matrix(0.75,0.74999999,-0.74999996,0.74999996,30.52321,-20.47679)" />
    <linearGradient
       id="c-3-6"
       gradientUnits="userSpaceOnUse"
       x1="24.072048"
       x2="23.959682"
       y1="0.75082099"
       y2="46.056854"
       gradientTransform="matrix(0.91471346,0,0,0.90068147,9.0468769,9.3836444)">
      <stop
         offset="0"
         stop-color="#fff"
         id="stop3-2" />
      <stop
         offset="1"
         stop-color="#d9d9d9"
         id="stop4-9" />
    </linearGradient>
    <linearGradient
       id="b-6-1"
       gradientUnits="userSpaceOnUse"
       x1="29.203026"
       x2="34.121048"
       xlink:href="#a-7"
       y1="24.827356"
       y2="29.224836"
       gradientTransform="matrix(1.1104534,0,0,1.0934187,4.3491158,4.7861435)" />
    <linearGradient
       id="d-0"
       gradientUnits="userSpaceOnUse"
       x1="15.948756"
       x2="25.031786"
       xlink:href="#a-7"
       y1="23.618279"
       y2="33.69899"
       gradientTransform="matrix(1.1104534,0,0,1.0934187,4.3491158,4.7861435)" />
    <linearGradient
       id="e-9"
       gradientUnits="userSpaceOnUse"
       x1="21.990562"
       x2="29.320522"
       xlink:href="#a-7"
       y1="33.780373"
       y2="41.931858"
       gradientTransform="matrix(1.1104534,0,0,1.0934187,4.3491158,4.7861435)" />
    <linearGradient
       id="linearGradient773"
       gradientTransform="matrix(2.0428665,-6.8308524,5.7819337,2.3633129,-33.356582,5.3194785)"
       gradientUnits="userSpaceOnUse"
       x1="24"
       x2="24"
       y1="35"
       y2="13">
      <stop
         offset="0"
         stop-color="#cd7223"
         id="stop224-5"
         style="stop-color:#ffb380;stop-opacity:1" />
      <stop
         offset=".53"
         stop-color="#f48e00"
         id="stop226-3" />
      <stop
         offset="1"
         stop-color="#ffa92d"
         id="stop228-5" />
    </linearGradient>
    <linearGradient
       inkscape:collect="always"
       xlink:href="#linearGradient2"
       id="linearGradient8"
       x1="16.301342"
       y1="19.471077"
       x2="39.200855"
       y2="48.237011"
       gradientUnits="userSpaceOnUse"
       gradientTransform="matrix(1.581762,0,0,1.5787081,-5.2407653,-6.0521276)" />
    <linearGradient
       id="linearGradient2"
       inkscape:collect="always">
      <stop
         style="stop-color:#566c80;stop-opacity:1;"
         offset="0"
         id="stop7-3" />
      <stop
         style="stop-color:#2e2e41;stop-opacity:1;"
         offset="1"
         id="stop8-6" />
    </linearGradient>
  </defs>
  <sodipodi:namedview
     id="namedview7"
     pagecolor="#ffffff"
     bordercolor="#000000"
     borderopacity="0.25"
     inkscape:showpageshadow="2"
     inkscape:pageopacity="0.0"
     inkscape:pagecheckerboard="0"
     inkscape:deskcolor="#d1d1d1"
     inkscape:zoom="8.3306018"
     inkscape:cx="30.369955"
     inkscape:cy="36.491961"
     inkscape:window-width="1920"
     inkscape:window-height="996"
     inkscape:window-x="0"
     inkscape:window-y="0"
     inkscape:window-maximized="1"
     inkscape:current-layer="svg7" />
  <path
     d="M 45,24 C 45,35.598112 35.598129,45 23.999999,45 12.401876,45 3.0000001,35.598112 3.0000001,24 3.0000001,12.401876 12.401876,3 23.999999,3 35.598129,3 45,12.401876 45,24 Z"
     id="path154"
     style="fill:url(#radialGradient9);stroke-width:0.999997" />
  <path
     d="m 41.5,24 c 0,9.665258 -7.834749,17.49999 -17.500001,17.49999 C 14.334749,41.49999 6.5000003,33.665257 6.5000003,24 6.5000003,14.334754 14.334749,6.500001 23.999999,6.500001 33.665251,6.500001 41.5,14.334754 41.5,24 Z"
     id="path155"
     style="fill:url(#linearGradient6);stroke-width:0.999997" />
  <g
     id="g8"
     transform="matrix(0.71290667,0,0,0.71428572,1.5442932,-0.19798439)"
     style="stroke-width:1.40134">
    <path
       style="opacity:0.2;stroke-width:1.58024"
       d="m 46.077044,18.334997 c -5.725072,1.250563 -12.172967,1.972258 -17.609361,2.260936 l 0.288678,-1.44339 c 0.337167,-1.58773 0.577356,-3.175459 1.106224,-4.859038 l -6.735446,-0.288678 c 0.04849,1.587729 0,2.742441 -0.240189,4.811676 -0.04849,0.577356 -0.192828,1.202074 -0.288678,1.923769 -2.88678,-0.04736 -6.495256,-0.433017 -9.334675,-0.913396 v 5.9179 c 2.406402,0.24019 5.196205,0.433017 8.227324,0.480379 -1.250562,5.244693 -3.175458,11.59561 -5.436394,15.97427 l 5.629222,2.020746 c 0.481506,-0.818673 0.817545,-1.44339 1.34754,-2.069235 2.838292,-3.656964 7.69733,-5.629222 13.182213,-5.629222 4.618848,0 7.121101,2.405275 7.121101,5.244694 0,7.024123 -10.536749,8.274686 -20.977648,6.591106 l 1.684707,6.158089 c 15.395787,1.636218 25.692347,-2.212446 25.692347,-12.942023 0,-6.062239 -5.100355,-10.199582 -12.798812,-10.199582 -4.377532,0 -7.986008,0.866034 -11.8358,2.982631 0.770184,-2.309424 1.540368,-5.340544 2.165085,-8.227324 6.399406,-0.337167 13.953524,-1.250563 18.908412,-2.020747 z"
       id="path3-7" />
    <path
       style="fill:url(#linearGradient8);stroke-width:1.58024"
       d="m 46.077044,17.207349 c -5.725072,1.250562 -12.172967,1.972257 -17.609361,2.260935 l 0.288678,-1.44339 c 0.337167,-1.587729 0.577356,-3.175459 1.106224,-4.859038 l -6.735446,-0.288678 c 0.04849,1.587729 0,2.742441 -0.240189,4.811677 -0.04849,0.577356 -0.192828,1.202073 -0.288678,1.923768 -2.88678,-0.04736 -6.495256,-0.433017 -9.334675,-0.913395 v 5.9179 c 2.406402,0.240189 5.196205,0.433017 8.227324,0.480378 -1.250562,5.244694 -3.175458,11.595611 -5.436394,15.97427 l 5.629222,2.020747 c 0.481506,-0.818673 0.817545,-1.44339 1.34754,-2.069235 2.838292,-3.656965 7.69733,-5.629222 13.182213,-5.629222 4.618848,0 7.121101,2.405274 7.121101,5.244693 0,7.024124 -10.536749,8.274686 -20.977648,6.591107 l 1.684707,6.158089 c 15.395787,1.636218 25.692347,-2.212447 25.692347,-12.942024 0,-6.062239 -5.100355,-10.199581 -12.798812,-10.199581 -4.377532,0 -7.986008,0.866034 -11.8358,2.98263 0.770184,-2.309424 1.540368,-5.340544 2.165085,-8.227324 6.399406,-0.337167 13.953524,-1.250562 18.908412,-2.020746 z"
       id="path4" />
  </g>
</svg>
