<?xml version="1.0" encoding="UTF-8" standalone="no"?>
<svg
   sodipodi:docname="other.svg"
   inkscape:version="1.2.1 (9c6d41e410, 2022-07-14)"
   id="svg1699"
   version="1.1"
   viewBox="0 0 8.4666662 8.4666662"
   height="8.4666662mm"
   width="8.4666662mm"
   xmlns:inkscape="http://www.inkscape.org/namespaces/inkscape"
   xmlns:sodipodi="http://sodipodi.sourceforge.net/DTD/sodipodi-0.dtd"
   xmlns="http://www.w3.org/2000/svg"
   xmlns:svg="http://www.w3.org/2000/svg"
   xmlns:rdf="http://www.w3.org/1999/02/22-rdf-syntax-ns#"
   xmlns:cc="http://creativecommons.org/ns#"
   xmlns:dc="http://purl.org/dc/elements/1.1/">
  <defs
     id="defs1693">
    <linearGradient
       id="linearGradient1028"
       x1="16"
       x2="16"
       y1="1091.5"
       y2="1121.5"
       gradientUnits="userSpaceOnUse">
      <stop
         stop-color="#9575cd"
         offset="0"
         id="stop1024"
         style="stop-color:#7d56c3;stop-opacity:1" />
      <stop
         stop-color="#cd75bc"
         offset="1"
         id="stop1026"
         style="stop-color:#963683;stop-opacity:1" />
    </linearGradient>
    <linearGradient
       id="a-9"
       x1="16"
       x2="16"
       y1="1091.5"
       y2="1121.5"
       gradientUnits="userSpaceOnUse">
      <stop
         stop-color="#9575cd"
         offset="0"
         id="stop1052" />
      <stop
         stop-color="#cd75bc"
         offset="1"
         id="stop1054" />
    </linearGradient>
  </defs>
  <sodipodi:namedview
     inkscape:document-rotation="0"
     inkscape:window-maximized="1"
     inkscape:window-y="0"
     inkscape:window-x="0"
     inkscape:window-height="1004"
     inkscape:window-width="1920"
     showgrid="true"
     inkscape:current-layer="layer1"
     inkscape:document-units="mm"
     inkscape:cy="15.343749"
     inkscape:cx="19.406249"
     inkscape:zoom="16.000001"
     inkscape:pageshadow="2"
     inkscape:pageopacity="0"
     borderopacity="1"
     bordercolor="#ff0e0e"
     pagecolor="#000000"
     id="base"
     inkscape:pagecheckerboard="true"
     inkscape:showpageshadow="false"
     inkscape:deskcolor="#000000">
    <inkscape:grid
       type="xygrid"
       id="grid844" />
  </sodipodi:namedview>
  <metadata
     id="metadata1696">
    <rdf:RDF>
      <cc:Work
         rdf:about="">
        <dc:format>image/svg+xml</dc:format>
        <dc:type
           rdf:resource="http://purl.org/dc/dcmitype/StillImage" />
      </cc:Work>
    </rdf:RDF>
  </metadata>
  <g
     transform="translate(-98.729144,-81.918987)"
     id="layer1"
     inkscape:groupmode="layer"
     inkscape:label="Layer 1">
    <g
       id="system-switch-user"
       transform="matrix(0.26458333,0,0,0.26458333,23.852062,81.918987)">
      <g
         id="g1729">
        <circle
           style="opacity:0;fill:none;fill-opacity:1;stroke-width:1.06667"
           id="circle955"
           r="16"
           cy="-16"
           cx="299"
           transform="scale(1,-1)" />
      </g>
    </g>
    <path
       d="m 106.51037,86.190479 a 0.16201997,0.14581769 0 0 0 0.049,-0.09962 c 0,-0.0053 0,-0.0085 0.002,-0.01377 0.002,-0.0053 0,-0.0083 -0.002,-0.01312 a 0.16273219,0.14645857 0 0 0 -0.049,-0.10002 l -1.3065,-1.175838 a 0.17804393,0.16023918 0 0 0 -0.25173,0.226579 l 1.00236,0.902474 h -3.82511 a 0.17804518,0.16024032 0 0 0 0,0.320477 h 3.82511 l -1.00236,0.902466 a 0.17804393,0.16023918 0 0 0 0.25173,0.226581 z"
       id="path3089-0-3"
       style="color:#e5e9ef;fill:currentColor;fill-opacity:1;stroke-width:0.347495"
       class="ColorScheme-Text" />
    <path
       d="m 105.68801,84.084607 c -1.4746,-1.909247 -4.39459,-1.843394 -5.70042,0.184943 -1.305899,2.028347 -0.211082,4.738345 2.13728,5.290362 1.33316,0.303475 2.69149,-0.181301 3.53315,-1.258809 0.15513,-0.198845 -0.16906,-0.438837 -0.32614,-0.237204 -0.66535,0.872993 -1.66171,1.283865 -2.75365,1.172308 -3.443549,-0.387312 -3.748779,-5.275042 -0.38019,-6.087777 1.20433,-0.278915 2.46028,0.174231 3.20891,1.157957 0.15672,0.201622 0.4373,-0.02215 0.28106,-0.22178 z"
       id="path1231-7-9-6"
       sodipodi:nodetypes="csccccccc"
       class="  ColorScheme-Text"
       style="color:#e5e9ef;fill:currentColor;fill-opacity:1;stroke-width:0.347495" />
  </g>
</svg>
