<?xml version="1.0" encoding="UTF-8" standalone="no"?>
<svg
   sodipodi:docname="switch_primary.svg"
   inkscape:version="1.2.1 (9c6d41e410, 2022-07-14)"
   id="svg1699"
   version="1.1"
   viewBox="0 0 8.4666662 8.4666662"
   height="8.4666662mm"
   width="8.4666662mm"
   xmlns:inkscape="http://www.inkscape.org/namespaces/inkscape"
   xmlns:sodipodi="http://sodipodi.sourceforge.net/DTD/sodipodi-0.dtd"
   xmlns="http://www.w3.org/2000/svg"
   xmlns:svg="http://www.w3.org/2000/svg"
   xmlns:rdf="http://www.w3.org/1999/02/22-rdf-syntax-ns#"
   xmlns:cc="http://creativecommons.org/ns#"
   xmlns:dc="http://purl.org/dc/elements/1.1/">
  <defs
     id="defs1693">
    <linearGradient
       id="linearGradient1028"
       x1="16"
       x2="16"
       y1="1091.5"
       y2="1121.5"
       gradientUnits="userSpaceOnUse">
      <stop
         stop-color="#9575cd"
         offset="0"
         id="stop1024"
         style="stop-color:#7d56c3;stop-opacity:1" />
      <stop
         stop-color="#cd75bc"
         offset="1"
         id="stop1026"
         style="stop-color:#963683;stop-opacity:1" />
    </linearGradient>
    <linearGradient
       id="a-9"
       x1="16"
       x2="16"
       y1="1091.5"
       y2="1121.5"
       gradientUnits="userSpaceOnUse">
      <stop
         stop-color="#9575cd"
         offset="0"
         id="stop1052" />
      <stop
         stop-color="#cd75bc"
         offset="1"
         id="stop1054" />
    </linearGradient>
  </defs>
  <sodipodi:namedview
     inkscape:document-rotation="0"
     inkscape:window-maximized="1"
     inkscape:window-y="0"
     inkscape:window-x="0"
     inkscape:window-height="1004"
     inkscape:window-width="1920"
     showgrid="true"
     inkscape:current-layer="layer1"
     inkscape:document-units="mm"
     inkscape:cy="15.343749"
     inkscape:cx="1.9687499"
     inkscape:zoom="16.000001"
     inkscape:pageshadow="2"
     inkscape:pageopacity="0"
     borderopacity="1"
     bordercolor="#ff1b1b"
     pagecolor="#000000"
     id="base"
     inkscape:pagecheckerboard="true"
     inkscape:showpageshadow="false"
     inkscape:deskcolor="#000000">
    <inkscape:grid
       type="xygrid"
       id="grid844" />
  </sodipodi:namedview>
  <metadata
     id="metadata1696">
    <rdf:RDF>
      <cc:Work
         rdf:about="">
        <dc:format>image/svg+xml</dc:format>
        <dc:type
           rdf:resource="http://purl.org/dc/dcmitype/StillImage" />
      </cc:Work>
    </rdf:RDF>
  </metadata>
  <g
     transform="translate(-98.729144,-81.918987)"
     id="layer1"
     inkscape:groupmode="layer"
     inkscape:label="Layer 1">
    <g
       id="system-switch-user"
       transform="matrix(0.26458333,0,0,0.26458333,23.852062,81.918987)">
      <g
         id="g1729">
        <circle
           style="opacity:0;fill:none;fill-opacity:1;stroke-width:1.06667"
           id="circle955"
           r="16"
           cy="-16"
           cx="299"
           transform="scale(1,-1)" />
      </g>
    </g>
    <path
       d="m 105.5716,85.556699 a 0.11841267,0.12659275 0 0 0 0.0359,-0.08652 c 0,-0.0044 0,-0.0077 0.002,-0.01195 0.002,-0.0044 0,-0.0075 -0.002,-0.01139 a 0.11893317,0.12714917 0 0 0 -0.0359,-0.08681 l -0.95485,-1.020807 a 0.13012384,0.13911288 0 0 0 -0.18399,0.196702 l 0.7326,0.783487 h -2.79559 a 0.13012445,0.13911358 0 0 0 0,0.278224 h 2.79559 l -0.7326,0.783477 a 0.13012384,0.13911288 0 0 0 0.18399,0.19671 z"
       id="path3089-3"
       style="color:#e5e9ef;fill:currentColor;fill-opacity:1;stroke-width:0.289585"
       class="ColorScheme-Text" />
    <path
       d="m 100.43584,86.808186 a 0.11841468,0.12659488 0 0 0 -0.0359,0.0865 c 0,0.0044 0,0.0077 -0.001,0.01195 -10e-4,0.0044 0,0.0075 0.001,0.01139 a 0.11893518,0.12715135 0 0 0 0.0359,0.08682 l 0.95487,1.020825 a 0.13012603,0.13911526 0 0 0 0.184,-0.19671 L 100.8421,87.04546 h 2.79562 a 0.13012694,0.13911623 0 0 0 0,-0.278231 h -2.79562 l 0.73261,-0.783497 a 0.13012603,0.13911526 0 0 0 -0.184,-0.196711 z"
       id="path3089-3-5"
       style="color:#e5e9ef;fill:currentColor;fill-opacity:1;stroke-width:0.289585"
       class="ColorScheme-Text" />
    <path
       d="m 102.98414,89.657435 a 3.475,3.475 0 1 1 3.475,-3.475 3.4788485,3.4788485 0 0 1 -3.475,3.475 z m 0,-6.600153 a 3.125156,3.125156 0 1 0 3.12515,3.125153 3.1286543,3.1286543 0 0 0 -3.12515,-3.125153 z"
       id="path2592-6"
       style="color:#e5e9ef;fill:currentColor;fill-opacity:1;stroke-width:0.289585"
       class="ColorScheme-Text" />
  </g>
</svg>
