<?xml version="1.0" encoding="UTF-8" standalone="no"?>
<svg
   width="32"
   height="32"
   version="1.1"
   id="svg8"
   sodipodi:docname="input-keyboard-virtual-off.svg"
   inkscape:version="1.4.2 (unknown)"
   xmlns:inkscape="http://www.inkscape.org/namespaces/inkscape"
   xmlns:sodipodi="http://sodipodi.sourceforge.net/DTD/sodipodi-0.dtd"
   xmlns="http://www.w3.org/2000/svg"
   xmlns:svg="http://www.w3.org/2000/svg">
  <sodipodi:namedview
     id="namedview1"
     pagecolor="#ffffff"
     bordercolor="#000000"
     borderopacity="0.25"
     inkscape:showpageshadow="2"
     inkscape:pageopacity="0.0"
     inkscape:pagecheckerboard="0"
     inkscape:deskcolor="#d1d1d1"
     inkscape:zoom="11.890625"
     inkscape:cx="16.525624"
     inkscape:cy="34.859396"
     inkscape:current-layer="svg8" />
  <defs
     id="defs12" />
  <style
     type="text/css"
     id="current-color-scheme">.ColorScheme-Text {
        color:#fcfcfc;
      }
      .ColorScheme-Background {
        color:#eff0f1;
      }
      .ColorScheme-Highlight {
        color:#3daee9;
      }
      .ColorScheme-ViewText {
        color:#31363b;
      }
      .ColorScheme-ViewBackground {
        color:#fcfcfc;
      }
      .ColorScheme-ViewHover {
        color:#93cee9;
      }
      .ColorScheme-ViewFocus{
        color:#3daee9;
      }
      .ColorScheme-ButtonText {
        color:#31363b;
      }
      .ColorScheme-ButtonBackground {
        color:#eff0f1;
      }
      .ColorScheme-ButtonHover {
        color:#93cee9;
      }
      .ColorScheme-ButtonFocus{
        color:#3daee9;
      }</style>
  <path
     class="ColorScheme-Text"
     d="M 3,14 V 24.052271 C 3,24.052271 3,28 7,28 c 4,0 14,0 18,0 4,0 4,-4 4,-4 V 14 c 0,0 0,-3 -3,-3 H 6 c -3,0 -3,3 -3,3 z m 3,-2 h 20 c 2,0 2.000001,2.000005 2.000001,2.000005 h -24 C 4.000001,14.000005 4,12 6,12 Z m -1.999999,3.000005 h 24 L 28,24 c 0,0 0,3 -3,3 -3,0 -15,0 -18,0 -3,0 -3,-3 -3,-3 z m 1,2 v 2 h 1 v -2 z m 2,0 v 2 h 2 v -2 z m 3,0 v 2 h 2 v -2 z m 3,0 v 2 h 2 v -2 z m 3,0 v 2 h 2 v -2 z m 3,0 v 2 h 2 v -2 z m 3,0 v 2 h 2 v -2 z m 3,0 v 2 h 2 v -2 z m -20,3 v 2 h 3 v -2 z m 4,0 v 2 h 2 v -2 z m 3,0 v 2 h 2 v -2 z m 3,0 v 2 h 2 v -2 z m 3,0 v 2 h 2 v -2 z m 3,0 v 2 h 2 v -2 z m 3,0 v 2 h 3 v -2 z m -19,3 v 2 h 2 v -2 z m 3,0 v 2 h 2 v -2 z m 3,0 v 2 h 10 v -2 z m 11,0 v 2 h 2 v -2 z m 3,0 v 2 h 2 v -2 z"
     fill="currentColor"
     id="path5" />
</svg>
