<?xml version="1.0" encoding="UTF-8" standalone="no"?>
<svg
   width="32"
   height="32"
   version="1.1"
   id="svg1"
   sodipodi:docname="input-combo-on.svg"
   inkscape:version="1.4.2 (unknown)"
   xmlns:inkscape="http://www.inkscape.org/namespaces/inkscape"
   xmlns:sodipodi="http://sodipodi.sourceforge.net/DTD/sodipodi-0.dtd"
   xmlns="http://www.w3.org/2000/svg"
   xmlns:svg="http://www.w3.org/2000/svg">
  <defs
     id="defs1" />
  <sodipodi:namedview
     id="namedview1"
     pagecolor="#ffffff"
     bordercolor="#000000"
     borderopacity="0.25"
     inkscape:showpageshadow="2"
     inkscape:pageopacity="0.0"
     inkscape:pagecheckerboard="0"
     inkscape:deskcolor="#d1d1d1"
     inkscape:zoom="23.78125"
     inkscape:cx="16"
     inkscape:cy="16"
     inkscape:current-layer="svg1" />
  <style
     type="text/css"
     id="current-color-scheme">.ColorScheme-Text {
        color:#fcfcfc;
      }
      .ColorScheme-Background {
        color:#eff0f1;
      }
      .ColorScheme-Highlight {
        color:#3daee9;
      }
      .ColorScheme-ViewText {
        color:#31363b;
      }
      .ColorScheme-ViewBackground {
        color:#fcfcfc;
      }
      .ColorScheme-ViewHover {
        color:#93cee9;
      }
      .ColorScheme-ViewFocus{
        color:#3daee9;
      }
      .ColorScheme-ButtonText {
        color:#31363b;
      }
      .ColorScheme-ButtonBackground {
        color:#eff0f1;
      }
      .ColorScheme-ButtonHover {
        color:#93cee9;
      }
      .ColorScheme-ButtonFocus{
        color:#3daee9;
      }</style>
  <g
     id="input-combo-on"
     transform="translate(19,111.99999) translate(-38,-224)">
    <path
       class="ColorScheme-Text"
       d="M 25,120.00001 V 136 l 10,4 10,-4 v -15.99999 c 0,0 0,-4 -4,-4 -4,0 -8,0 -12,0 -4,0 -4,4 -4,4 z m 1,0 c 0,0 0,-3 3,-3 3,0 9,0 12,0 3,0 3,3 3,3 v 10 c 0,0 0,3 -3,3 -3,0 -9,0 -12,0 -3,0 -3,-3 -3,-3 z M 26,134 h 18 v 1 H 26 Z m 6.40625,-12.99999 -4.40625,10 h 1.30078 l 1.32227,-3 h 4.72265 l 1.34961,3 H 38 l -4.5,-10 z m 0.55273,1.69531 1.9375,4.30469 H 31.0625 Z M 40,119.00001 v 1.8 h -2 v 0.9 h 2 v 5.4 h -2 v 0.9 h 5 v -0.9 h -2 v -8.1 z"
       fill="currentColor"
       id="path1" />
  </g>
</svg>
