<?xml version="1.0" encoding="UTF-8" standalone="no"?>
<svg
   width="32"
   height="32"
   version="1.1"
   id="svg1"
   sodipodi:docname="input-keyboard-battery.svg"
   inkscape:version="1.4.2 (unknown)"
   xmlns:inkscape="http://www.inkscape.org/namespaces/inkscape"
   xmlns:sodipodi="http://sodipodi.sourceforge.net/DTD/sodipodi-0.dtd"
   xmlns="http://www.w3.org/2000/svg"
   xmlns:svg="http://www.w3.org/2000/svg">
  <defs
     id="defs1" />
  <sodipodi:namedview
     id="namedview1"
     pagecolor="#ffffff"
     bordercolor="#000000"
     borderopacity="0.25"
     inkscape:showpageshadow="2"
     inkscape:pageopacity="0.0"
     inkscape:pagecheckerboard="0"
     inkscape:deskcolor="#d1d1d1"
     inkscape:zoom="11.890625"
     inkscape:cx="16.021025"
     inkscape:cy="13.413929"
     inkscape:current-layer="svg1" />
  <style
     type="text/css"
     id="current-color-scheme">.ColorScheme-Text {
        color:#fcfcfc;
      }
      .ColorScheme-Background {
        color:#eff0f1;
      }
      .ColorScheme-Highlight {
        color:#3daee9;
      }
      .ColorScheme-ViewText {
        color:#31363b;
      }
      .ColorScheme-ViewBackground {
        color:#fcfcfc;
      }
      .ColorScheme-ViewHover {
        color:#93cee9;
      }
      .ColorScheme-ViewFocus{
        color:#3daee9;
      }
      .ColorScheme-ButtonText {
        color:#31363b;
      }
      .ColorScheme-ButtonBackground {
        color:#eff0f1;
      }
      .ColorScheme-ButtonHover {
        color:#93cee9;
      }
      .ColorScheme-ButtonFocus{
        color:#3daee9;
      }</style>
  <path
     class="ColorScheme-Text"
     d="m 6,8 c 0,4 0,16 0,16 l 10,4 10,-4 V 13 h -1 v 5 c 0,0 0,3 -3,3 -3,0 -9,0 -12,0 C 7,21 7,18 7,18 7,18 7,11 7,8 7,5 10,5 10,5 H 21 V 4 H 10 C 10,4 6,4 6,8 Z M 24,4 22,9 h 2 v 3 L 26,7 H 24 Z M 15.40625,8 11,18 h 1.300781 l 1.322266,-3 h 4.722656 l 1.349609,3 H 21 L 16.5,8 Z M 15.958984,9.69531 17.896484,14 H 14.0625 Z M 7,22 h 18 v 1 H 7 Z"
     fill="currentColor"
     id="path1" />
</svg>
