<?xml version="1.0" encoding="UTF-8" standalone="no"?>
<svg
   width="32"
   height="32"
   version="1.1"
   id="svg6"
   sodipodi:docname="keyboard-layout.svg"
   inkscape:version="1.4.2 (unknown)"
   xmlns:inkscape="http://www.inkscape.org/namespaces/inkscape"
   xmlns:sodipodi="http://sodipodi.sourceforge.net/DTD/sodipodi-0.dtd"
   xmlns="http://www.w3.org/2000/svg"
   xmlns:svg="http://www.w3.org/2000/svg">
  <defs
     id="defs10" />
  <sodipodi:namedview
     id="namedview8"
     pagecolor="#ffffff"
     bordercolor="#000000"
     borderopacity="0.25"
     inkscape:showpageshadow="2"
     inkscape:pageopacity="0.0"
     inkscape:pagecheckerboard="0"
     inkscape:deskcolor="#d1d1d1"
     showgrid="false"
     inkscape:zoom="12.078125"
     inkscape:cx="9.9353169"
     inkscape:cy="28.35705"
     inkscape:window-width="1920"
     inkscape:window-height="1011"
     inkscape:window-x="0"
     inkscape:window-y="0"
     inkscape:window-maximized="1"
     inkscape:current-layer="svg6" />
  <style
     type="text/css"
     id="current-color-scheme">
      .ColorScheme-Text {
        color:#fcfcfc;
      }
      .ColorScheme-Background {
        color:#eff0f1;
      }
      .ColorScheme-Highlight {
        color:#3daee9;
      }
      .ColorScheme-ViewText {
        color:#31363b;
      }
      .ColorScheme-ViewBackground {
        color:#fcfcfc;
      }
      .ColorScheme-ViewHover {
        color:#93cee9;
      }
      .ColorScheme-ViewFocus{
        color:#3daee9;
      }
      .ColorScheme-ButtonText {
        color:#31363b;
      }
      .ColorScheme-ButtonBackground {
        color:#eff0f1;
      }
      .ColorScheme-ButtonHover {
        color:#93cee9;
      }
      .ColorScheme-ButtonFocus{
        color:#3daee9;
      }
      </style>
  <path
     id="path4217"
     d="M 25,4 C 25,4.839286 24.90656,5.439871 24.751953,5.845703 24.597351,6.251535 24.404061,6.466935 24.123047,6.630859 23.561021,6.958709 22.5,7 21,7 19.5,7 18.064369,6.9727 16.900391,7.554688 16.318401,7.845682 15.819815,8.307635 15.492188,8.962891 15.21931,9.508646 15.067093,10.184545 15.021484,11 c 0,0 -6.021485,0 -9.021485,0 C 2.999999,11 3,13.999995 3,13.999995 v 10 c 0,0 -1e-6,4.000005 3.999999,4.000005 4,0 14,0 18,0 C 28.999999,28 29,23.999995 29,23.999995 v -10 c 0,0 -1e-6,-3 -3.000001,-2.999995 -3,5e-6 -9.978515,0 -9.978515,0 0.04382,-0.685454 0.170932,-1.207097 0.361328,-1.587891 C 16.617685,8.942365 16.931599,8.654318 17.349609,8.445312 18.185631,8.027302 19.5,8 21,8 22.5,8 23.688979,8.04129 24.626953,7.494141 25.095939,7.220565 25.46515,6.779715 25.685547,6.201172 25.905944,5.622629 26,4.910714 26,4 Z M 5.999999,12 c 2,5e-6 18,5e-6 20,0 2,-5e-6 2.000001,2 2.000001,2 H 4 c 0,0 -1e-6,-2.000005 1.999999,-2 z M 4,15 h 24 v 8.999995 c 0,0 -1e-6,3 -3.000001,3.000005 -3,5e-6 -15,0 -18,0 C 3.999999,27 4,23.999995 4,23.999995 Z m 1,2 v 2 h 1 v -2 z m 2,0 v 2 h 2 v -2 z m 3,0 v 2 h 2 v -2 z m 3,0 v 2 h 2 v -2 z m 3,0 v 2 h 2 v -2 z m 3,0 v 2 h 2 v -2 z m 3,0 v 2 h 2 v -2 z m 3,0 v 2 h 2 V 17 Z M 5,20 v 2 h 3 v -2 z m 4,0 v 2 h 2 v -2 z m 3,0 v 2 h 2 v -2 z m 3,0 v 2 h 2 v -2 z m 3,0 v 2 h 2 v -2 z m 3,0 v 2 h 2 v -2 z m 3,0 v 2 h 3 V 20 Z M 5,23 v 2 h 2 v -2 z m 3,0 v 2 h 2 v -2 z m 3,0 v 2 h 10 v -2 z m 11,0 v 2 h 2 v -2 z m 3,0 v 2 h 2 v -2 z"
     class="ColorScheme-Text"
     style="fill:currentColor;fill-opacity:1;stroke:none" />
</svg>
