<?xml version="1.0" encoding="UTF-8" standalone="no"?>
<svg
   version="1.1"
   id="svg2"
   viewBox="0 0 32 32"
   sodipodi:docname="akregator.svg"
   width="32"
   height="32"
   inkscape:version="1.2.1 (9c6d41e410, 2022-07-14)"
   xmlns:inkscape="http://www.inkscape.org/namespaces/inkscape"
   xmlns:sodipodi="http://sodipodi.sourceforge.net/DTD/sodipodi-0.dtd"
   xmlns="http://www.w3.org/2000/svg"
   xmlns:svg="http://www.w3.org/2000/svg"
   xmlns:rdf="http://www.w3.org/1999/02/22-rdf-syntax-ns#"
   xmlns:cc="http://creativecommons.org/ns#"
   xmlns:dc="http://purl.org/dc/elements/1.1/">
  <sodipodi:namedview
     id="namedview12"
     pagecolor="#000000"
     bordercolor="#ff0505"
     borderopacity="1"
     inkscape:showpageshadow="false"
     inkscape:pageopacity="0"
     inkscape:pagecheckerboard="true"
     inkscape:deskcolor="#000000"
     showgrid="true"
     inkscape:zoom="10.429825"
     inkscape:cx="-7.4785531"
     inkscape:cy="18.360807"
     inkscape:window-width="1920"
     inkscape:window-height="1004"
     inkscape:window-x="0"
     inkscape:window-y="0"
     inkscape:window-maximized="1"
     inkscape:current-layer="svg2">
    <inkscape:grid
       type="xygrid"
       id="grid622"
       originx="0"
       originy="0" />
  </sodipodi:namedview>
  <metadata
     id="metadata18">
    <rdf:RDF>
      <cc:Work
         rdf:about="">
        <dc:format>image/svg+xml</dc:format>
        <dc:type
           rdf:resource="http://purl.org/dc/dcmitype/StillImage" />
      </cc:Work>
    </rdf:RDF>
  </metadata>
  <defs
     id="defs3051">
    <style
       type="text/css"
       id="current-color-scheme">
.ColorScheme-Text { 
    color:#eff0f1;
}
</style>
  </defs>
  <g
     id="akregator">
    <path
       id="path14"
       style="fill:none"
       d="M 0,0 V 32 H 32 V 0 Z" />
    <path
       d="M 5.20928,4 C 4.552113,4 4,4.526263 4,5.210606 c 0,0.684155 0.525686,1.210606 1.20928,1.210606 11.224402,0 20.372156,9.13147 20.372156,20.368184 C 25.581436,27.44728 26.107118,28 26.790713,28 27.447883,28 28,27.473735 28,26.789396 27.973597,14.210593 17.748201,4.000188 5.209468,4.000188 Z"
       id="path252"
       style="stroke-width:1;fill-opacity:1;fill:#e5e9ef"
       class="ColorScheme-Text" />
    <path
       d="M 5.20928,10.868339 C 4.552113,10.868339 4,11.394604 4,12.078944 c 0,0.684159 0.525686,1.210604 1.20928,1.210604 7.465407,0 13.511338,6.05256 13.511338,13.499848 0,0.657884 0.525688,1.210604 1.209278,1.210604 0.657169,0 1.209286,-0.526265 1.209286,-1.210604 C 21.112732,18.00002 13.989205,10.86853 5.209468,10.86853 Z"
       id="path254"
       style="stroke-width:1;fill-opacity:1;fill:#e5e9ef"
       class="ColorScheme-Text" />
    <path
       d="M 5.20928,17.71037 C 4.552113,17.71037 4,18.236625 4,18.920975 c 0,0.684149 0.525686,1.210604 1.20928,1.210604 3.680037,0 6.676812,2.973691 6.676812,6.657817 0,0.657884 0.525678,1.210604 1.209278,1.210604 0.68341,0 1.209279,-0.526265 1.209279,-1.210604 -0.0264,-5.000411 -4.100674,-9.078845 -9.095181,-9.078845 z"
       id="path256"
       style="stroke-width:1;fill-opacity:1;fill:#e5e9ef"
       class="ColorScheme-Text" />
    <path
       d="m 6.25089,23.431696 c -1.209279,0 -2.208032,1.000037 -2.208032,2.21046 0,1.236823 0.99894,2.236906 2.208032,2.236906 1.235472,0 2.234459,-1.000038 2.234459,-2.236906 -0.0264,-1.236833 -1.025179,-2.21046 -2.234459,-2.21046 z"
       id="path258"
       style="stroke-width:1;fill-opacity:1;fill:#e5e9ef"
       class="ColorScheme-Text" />
  </g>
  <g
     id="22-22-akregator">
    <path
       id="path7"
       style="fill:none"
       d="M -22,10 V 32 H 0 V 10 Z" />
    <path
       d="M -18.193813,13 C -18.631925,13 -19,13.350842 -19,13.807071 c 0,0.456103 0.350457,0.80707 0.806187,0.80707 7.482934,0 13.581437,6.087647 13.581437,13.57879 C -4.612376,28.63152 -4.261921,29 -3.806191,29 -3.368078,29 -3,28.649157 -3,28.192931 -3.0176,19.807062 -9.834533,13.000125 -18.193688,13.000125 Z"
       id="path252-35"
       style="stroke-width:1;fill-opacity:1;fill:#e5e9ef"
       class="ColorScheme-Text" />
    <path
       d="m -18.193813,17.578893 c -0.438112,0 -0.806187,0.350843 -0.806187,0.80707 0,0.456106 0.350457,0.807069 0.806187,0.807069 4.976938,0 9.007558,4.03504 9.007558,8.999899 0,0.438589 0.350459,0.807069 0.806186,0.807069 0.438112,0 0.80619,-0.350843 0.80619,-0.807069 C -7.591509,22.333347 -12.34053,17.57902 -18.193688,17.57902 Z"
       id="path254-62"
       style="stroke-width:1;fill-opacity:1;fill:#e5e9ef"
       class="ColorScheme-Text" />
    <path
       d="m -18.193813,22.140247 c -0.438112,0 -0.806187,0.350836 -0.806187,0.80707 0,0.456099 0.350457,0.807069 0.806187,0.807069 2.453358,0 4.451208,1.982461 4.451208,4.438545 0,0.438589 0.350452,0.807069 0.806185,0.807069 0.455607,0 0.806186,-0.350843 0.806186,-0.807069 -0.0176,-3.333608 -2.733783,-6.052564 -6.063454,-6.052564 z"
       id="path256-9"
       style="stroke-width:1;fill-opacity:1;fill:#e5e9ef"
       class="ColorScheme-Text" />
    <path
       d="m -17.499407,25.954464 c -0.806186,0 -1.472021,0.666691 -1.472021,1.47364 0,0.824549 0.66596,1.491271 1.472021,1.491271 0.823648,0 1.48964,-0.666692 1.48964,-1.491271 -0.0176,-0.824555 -0.683453,-1.47364 -1.48964,-1.47364 z"
       id="path258-1"
       style="stroke-width:1;fill-opacity:1;fill:#e5e9ef"
       class="ColorScheme-Text" />
  </g>
</svg>
