<?xml version="1.0" encoding="UTF-8" standalone="no"?>
<svg
   id="svg50"
   width="31.999996"
   height="32"
   version="1.1"
   sodipodi:docname="audio.svg"
   inkscape:version="1.2.1 (9c6d41e410, 2022-07-14)"
   xmlns:inkscape="http://www.inkscape.org/namespaces/inkscape"
   xmlns:sodipodi="http://sodipodi.sourceforge.net/DTD/sodipodi-0.dtd"
   xmlns="http://www.w3.org/2000/svg"
   xmlns:svg="http://www.w3.org/2000/svg"
   xmlns:rdf="http://www.w3.org/1999/02/22-rdf-syntax-ns#"
   xmlns:cc="http://creativecommons.org/ns#"
   xmlns:dc="http://purl.org/dc/elements/1.1/">
  <g
     id="22-22-audio-volume-low"
     transform="translate(-32.000001,-22)">
    <path
       style="opacity:0.00100002;fill:#e5e9ef;fill-opacity:1"
       d="M 0,0 H 22 V 22 H 0 Z"
       id="path19" />
    <path
       d="m 14.00001,4.0370168 c 0,-0.958748 -1.17646,-1.367133 -1.92046,-0.730102 l -4.146061,3.54947 c -0.12673,0.108504 -0.29041,0.167601 -0.46,0.167601 h -3.39655 c -1.14706,0 -2.07693,0.896246 -2.07693,2.000785 v 3.9980352 c 0,1.104503 0.92987,2.001116 2.07693,2.001116 h 3.39651 c 0.1696,0 0.3333,0.05871 0.46004,0.167239 l 4.145971,3.54986 c 0.74409,0.637173 1.92055,0.282996 1.92055,-0.717004 z m -5.146521,3.516 4.146521,-3.529 V 18.024017 l -4.146471,-3.529 c -0.38022,-0.325592 -0.87131,-0.471 -1.38009,-0.471 h -3.47344 c -0.38234,0 -1,-0.631832 -1,-1 V 9.0240168 c 0,-0.368186 0.66115,-1 1,-1 h 3.47348 c 0.50875,0 0.9998,-0.145506 1.38,-0.471 z"
       id="path2057-3-1"
       style="fill:#e5e9ef;fill-opacity:1;stroke-width:0.905853"
       sodipodi:nodetypes="sccssssssccssccccssssssc" />
    <path
       d="m 17.32101,5.8164088 c 0.29636,-0.210378 0.71463,-0.150662 0.93423,0.133365 1.09621,1.418287 1.74477,3.174594 1.74477,5.0741702 0,1.899576 -0.64856,3.655883 -1.74477,5.074189 -0.2196,0.284066 -0.63787,0.343717 -0.93423,0.133366 -0.29645,-0.21034 -0.3587,-0.611146 -0.13918,-0.895213 0.93164,-1.205318 1.48242,-2.696238 1.48242,-4.312342 0,-1.6160212 -0.55077,-3.1069762 -1.48242,-4.3123332 -0.21952,-0.284028 -0.15727,-0.684825 0.13918,-0.895202 z"
       id="path2059-6-2"
       style="fill:#e5e9ef;fill-opacity:0.5;stroke-width:0.871748" />
    <path
       d="m 15.67482,7.9258168 c 0.32432,-0.168264 0.72968,-0.05271 0.90528,0.258138 0.4775,0.845307 0.7484,1.8132742 0.7484,2.8399892 0,1.026714 -0.2709,1.994722 -0.7484,2.840023 -0.1756,0.310779 -0.58096,0.426403 -0.90528,0.258129 -0.32441,-0.168275 -0.44507,-0.556707 -0.26947,-0.867488 0.37446,-0.662857 0.58738,-1.421974 0.58738,-2.230664 0,-0.808691 -0.21292,-1.5678082 -0.58738,-2.2306422 -0.1756,-0.310828 -0.055,-0.699217 0.26947,-0.867485 z"
       id="path2061-7-7"
       style="fill:#e5e9ef;fill-opacity:0.5;stroke-width:0.871748" />
  </g>
  <g
     id="audio-volume-low"
     transform="translate(-32.000001)">
    <path
       style="opacity:0.00100002;fill:#e5e9ef;fill-opacity:1"
       d="M 0,0 H 32.000001 V 32.000001 H 0 Z"
       id="path38" />
    <path
       d="M 20,5.669887 C 20,4.231754 18.333357,3.468796 17.279346,4.424351 L 11.405769,9.748597 C 11.22623,9.911354 10.994356,10 10.754103,10 H 5.942311 C 4.317317,10 3,11.34438 3,13.001202 v 5.9971 C 3,20.65507 4.317317,22 5.942311,22 h 4.811726 c 0.24027,0 0.472175,0.08806 0.651723,0.250861 l 5.873462,5.324832 C 18.333356,28.53146 20,27.768534 20,26.330289 Z M 12.7091,11.243262 18.000001,6.41226 V 25.587918 L 12.709166,20.756402 C 12.170525,20.26801 11.474809,20 10.754037,20 H 5.942311 C 5.400653,20 5,19.550558 5,18.998302 v -5.9971 C 5,12.448919 5.400653,12 5.942311,12 h 4.811792 c 0.72072,0 1.416374,-0.268494 1.954997,-0.756738 z"
       id="path2057-35"
       style="fill:#e5e9ef;fill-opacity:1;stroke-width:1.3205"
       sodipodi:nodetypes="sccssssssccssccccssssssc" />
    <path
       d="m 24.988951,8.188621 c 0.44372,-0.315569 1.069969,-0.225995 1.398758,0.200049 1.641289,2.127447 2.612329,4.761928 2.612329,7.611315 0,2.849386 -0.97104,5.483869 -2.612329,7.611344 -0.328789,0.426102 -0.955037,0.51558 -1.398758,0.200051 -0.443855,-0.315512 -0.537056,-0.916726 -0.208388,-1.342831 1.394892,-1.807991 2.219535,-4.044388 2.219535,-6.468564 0,-2.42405 -0.824641,-4.660501 -2.219535,-6.468551 -0.328668,-0.426045 -0.235467,-1.027245 0.208388,-1.342813 z"
       id="path2059-62"
       style="fill:#e5e9ef;fill-opacity:0.5;stroke-width:1.30642" />
    <path
       d="m 22.524215,11.352758 c 0.485595,-0.252398 1.09251,-0.07907 1.355428,0.38721 0.714925,1.26797 1.120517,2.719932 1.120517,4.260017 0,1.540084 -0.405592,2.992106 -1.120517,4.260068 -0.262918,0.466173 -0.869833,0.639611 -1.355428,0.387197 -0.485712,-0.252414 -0.666371,-0.835067 -0.403453,-1.301242 0.56065,-0.994294 0.879448,-2.132978 0.879448,-3.346023 0,-1.213047 -0.318798,-2.351731 -0.879448,-3.345989 -0.262918,-0.466246 -0.08227,-1.048834 0.403453,-1.301238 z"
       id="path2061-9"
       style="fill:#e5e9ef;fill-opacity:0.5;stroke-width:1.30642" />
  </g>
  <g
     id="audio-volume-muted">
    <path
       style="opacity:0.00100002;fill:#e5e9ef;fill-opacity:1"
       d="M 0,0 H 31.999997 V 32.000001 H 0 Z"
       id="path45" />
    <path
       d="M 4.664429,3.2855783 C 4.283678,2.9048212 3.666335,2.9048012 3.285584,3.2855543 c -0.380763,0.380755 -0.380777,0.998087 -3e-5,1.378849 L 8.769121,10 H 5.924981 C 4.309556,10 3,11.457624 3,13.073038 v 5.847276 C 3,20.535683 4.2090655,22 5.8244905,22 H 11.00751 c 0.291637,0 0.17001,-0.06708 0.34849,0.09163 l 5.8391,5.19177 c 1.047919,0.93183 2.834209,0.187545 2.8049,-1.21432 v -4.790064 l 7.335014,7.435411 c 0.380761,0.380761 0.998127,0.380761 1.378895,0 0.380761,-0.380768 0.380761,-0.998134 0,-1.378895 z M 18,19.329031 v 6.016214 L 12.651965,20.634349 C 12.116496,20.158292 11.42489,20 10.708363,20 H 5.924981 C 5.386515,20 4.9703887,19.45875 4.974994,18.920314 L 5.025006,13.073038 C 5.0296114,12.534592 5.386515,12 5.924981,12 h 4.783442 c 0.0031,0 0.007,10e-6 0.0104,0 z"
       id="path1707"
       style="fill:#e5e9ef;fill-opacity:1;stroke-width:1.29999"
       sodipodi:nodetypes="ccccsssssccsccccccccsssssscc" />
    <path
       d="m 18,6.6487703 v 7.1647977 l 2,1.949981 V 5.9249453 c 0,-1.40219 -1.632937,-2.146086 -2.680731,-1.214417 L 12.9,8.639518 l 1.381194,1.381231 z"
       id="path1709"
       style="fill:#e5e9ef;fill-opacity:1;stroke-width:1.29999"
       sodipodi:nodetypes="cccscccc" />
    <path
       d="m 22.683128,18.546822 1.479391,1.479525 c 0.600332,-1.214847 0.937286,-2.582564 0.937286,-4.026459 0,-1.564144 -0.395454,-3.03882 -1.092505,-4.326602 -0.256358,-0.473544 -0.848114,-0.649613 -1.321572,-0.393255 -0.473575,0.256348 -0.649736,0.848038 -0.393377,1.321571 0.546647,1.009811 0.857475,2.16628 0.857475,3.398286 0,0.898294 -0.165229,1.756548 -0.466698,2.546934 z"
       id="path1711"
       style="fill:#e5e9ef;fill-opacity:1;stroke-width:1.29999" />
    <path
       d="m 25.604335,21.468162 1.42141,1.421405 c 1.250846,-1.997686 1.974032,-4.36029 1.974032,-6.889679 0,-2.893935 -0.946784,-5.569567 -2.547068,-7.730253 C 26.132131,7.8369333 25.521525,7.7459593 25.088889,8.0664563 24.65612,8.386944 24.565252,8.997536 24.885698,9.430252 c 1.360052,1.836299 2.164098,4.107718 2.164098,6.569636 0,1.990412 -0.525457,3.85616 -1.445461,5.468274 z"
       id="path1713"
       style="fill:#e5e9ef;fill-opacity:1;stroke-width:1.29999" />
  </g>
  <style
     id="current-color-scheme"
     type="text/css">.ColorScheme-Text { color:#e5e9ef; }
</style>
  <metadata
     id="metadata67">
    <rdf:RDF>
      <cc:Work
         rdf:about="">
        <dc:format>image/svg+xml</dc:format>
        <dc:type
           rdf:resource="http://purl.org/dc/dcmitype/StillImage" />
      </cc:Work>
    </rdf:RDF>
  </metadata>
  <defs
     id="defs65" />
  <sodipodi:namedview
     pagecolor="#000000"
     bordercolor="#d50000"
     borderopacity="1"
     objecttolerance="10"
     gridtolerance="10"
     guidetolerance="10"
     inkscape:pageopacity="0"
     inkscape:pageshadow="2"
     inkscape:window-width="1920"
     inkscape:window-height="1004"
     id="namedview63"
     showgrid="true"
     inkscape:zoom="5.6568545"
     inkscape:cx="-29.433318"
     inkscape:cy="2.2097086"
     inkscape:window-x="0"
     inkscape:window-y="0"
     inkscape:window-maximized="1"
     inkscape:current-layer="svg50"
     inkscape:document-rotation="0"
     inkscape:lockguides="true"
     inkscape:showpageshadow="false"
     inkscape:pagecheckerboard="true"
     inkscape:deskcolor="#000000">
    <inkscape:grid
       type="xygrid"
       id="grid1330" />
  </sodipodi:namedview>
  <g
     id="audio-volume-high"
     transform="translate(-96.000003)">
    <path
       style="opacity:0.00100002;fill:#e5e9ef;fill-opacity:1"
       d="M 0,0 H 32.000001 V 32.000001 H 0 Z"
       id="path2" />
    <path
       d="M 20,5.6698871 C 20,4.2317543 18.333356,3.4687961 17.279346,4.4243508 L 11.405769,9.7485969 C 11.22623,9.9113542 10.994356,10 10.754103,10 H 5.9423108 C 4.3173166,10 3,11.34438 3,13.001202 v 5.9971 C 3,20.65507 4.3173166,22 5.9423108,22 h 4.8117262 c 0.24027,0 0.472175,0.08806 0.651723,0.250861 l 5.873462,5.324832 C 18.333356,28.531459 20,27.768534 20,26.330289 Z M 12.709099,11.243262 18,6.4122603 V 25.587918 L 12.709165,20.756402 C 12.170525,20.26801 11.474809,20 10.754037,20 H 5.9423108 C 5.4006532,20 5,19.550558 5,18.998302 v -5.9971 C 5,12.448919 5.4006532,12 5.9423108,12 h 4.8117922 c 0.72072,0 1.416374,-0.268494 1.954996,-0.756738 z"
       id="path2057"
       style="fill:#e5e9ef;fill-opacity:1;stroke-width:1.3205"
       sodipodi:nodetypes="sccssssssccssccccssssssc" />
    <path
       d="m 24.988951,8.1886215 c 0.44372,-0.3155696 1.06997,-0.2259955 1.398758,0.2000489 1.641289,2.1274466 2.612329,4.7619276 2.612329,7.6113146 0,2.849386 -0.97104,5.483869 -2.612329,7.611344 -0.328788,0.426102 -0.955038,0.51558 -1.398758,0.200051 -0.443854,-0.315512 -0.537056,-0.916726 -0.208387,-1.342831 1.394892,-1.807991 2.219535,-4.044388 2.219535,-6.468564 0,-2.42405 -0.824642,-4.660501 -2.219535,-6.468551 -0.328669,-0.4260452 -0.235467,-1.0272446 0.208387,-1.3428125 z"
       id="path2059"
       style="fill:#e5e9ef;fill-opacity:1;stroke-width:1.30642" />
    <path
       d="m 22.524215,11.352758 c 0.485595,-0.252398 1.09251,-0.07907 1.355428,0.38721 0.714925,1.26797 1.120517,2.719932 1.120517,4.260017 0,1.540084 -0.405592,2.992106 -1.120517,4.260068 -0.262918,0.466173 -0.869833,0.639611 -1.355428,0.387197 -0.485712,-0.252414 -0.666371,-0.835067 -0.403453,-1.301242 0.56065,-0.994294 0.879448,-2.132978 0.879448,-3.346023 0,-1.213047 -0.318798,-2.351731 -0.879448,-3.345989 -0.262918,-0.466246 -0.08227,-1.048834 0.403453,-1.301238 z"
       id="path2061"
       style="fill:#e5e9ef;fill-opacity:1;stroke-width:1.30642" />
  </g>
  <g
     id="22-22-audio-volume-high"
     transform="translate(-96.000003,-22)">
    <path
       style="opacity:0.00100002;fill:#e5e9ef;fill-opacity:1"
       d="M 0,0 H 22 V 22 H 0 Z"
       id="path7-5" />
    <path
       d="m 14,4.0370168 c 0,-0.958748 -1.176456,-1.367133 -1.920462,-0.730102 l -4.146054,3.54947 c -0.126734,0.108504 -0.290409,0.167601 -0.46,0.167601 H 4.076925 C 2.92987,7.0239858 2,7.9202318 2,9.0247708 v 3.9980352 c 0,1.104503 0.92987,2.001116 2.076925,2.001116 h 3.396512 c 0.169603,0 0.333301,0.05871 0.46004,0.167239 l 4.145971,3.54986 c 0.744095,0.637173 1.920555,0.282996 1.920555,-0.717004 z m -5.146519,3.516 4.146522,-3.529 V 18.024017 l -4.146475,-3.529 c -0.380217,-0.325592 -0.87131,-0.471 -1.380091,-0.471 H 4.000003 c -0.382346,0 -1,-0.631832 -1,-1 V 9.0240168 c 0,-0.368186 0.661152,-1 0.999997,-1 h 3.473484 c 0.508744,0 0.999793,-0.145506 1.379997,-0.471 z"
       id="path2057-3"
       style="fill:#e5e9ef;fill-opacity:1;stroke-width:0.905853"
       sodipodi:nodetypes="sccssssssccssccccssssssc" />
    <path
       d="m 17.321,5.8164088 c 0.296361,-0.210378 0.714633,-0.150662 0.934228,0.133365 C 19.351444,7.3680608 20,9.1243678 20,11.023944 c 0,1.899576 -0.648556,3.655883 -1.744772,5.074189 -0.219596,0.284066 -0.637867,0.343717 -0.934228,0.133366 -0.296449,-0.21034 -0.358698,-0.611146 -0.139179,-0.895213 0.931644,-1.205318 1.482424,-2.696238 1.482424,-4.312342 0,-1.6160212 -0.550778,-3.1069762 -1.482424,-4.3123332 -0.219519,-0.284028 -0.15727,-0.684825 0.139179,-0.895202 z"
       id="path2059-6"
       style="fill:#e5e9ef;fill-opacity:1;stroke-width:0.871748" />
    <path
       d="m 15.674806,7.9258168 c 0.324329,-0.168264 0.729686,-0.05271 0.905289,0.258138 0.477497,0.845307 0.748392,1.8132742 0.748392,2.8399892 0,1.026714 -0.270894,1.994722 -0.748392,2.840023 -0.175603,0.310779 -0.58096,0.426403 -0.905289,0.258129 -0.324405,-0.168275 -0.445067,-0.556707 -0.269466,-0.867488 0.374459,-0.662857 0.587384,-1.421974 0.587384,-2.230664 0,-0.808691 -0.212924,-1.5678082 -0.587384,-2.2306422 -0.175601,-0.310828 -0.05496,-0.699217 0.269466,-0.867485 z"
       id="path2061-7"
       style="fill:#e5e9ef;fill-opacity:1;stroke-width:0.871748" />
  </g>
  <g
     id="22-22-audio-volume-muted"
     transform="translate(0,-22)">
    <path
       style="opacity:0.00100002;fill:#e5e9ef;fill-opacity:1"
       d="M 0,0 H 21.999997 V 22 H 0 Z"
       id="path26" />
    <path
       d="M 4.024263,3.1757404 C 3.789955,2.9414284 3.410052,2.9414164 3.175744,3.1757254 2.941428,3.4100364 2.94142,3.7899334 3.175726,4.0242484 L 6.15,7.008 4.799986,7 C 3.8058985,6.9941092 3,7.904899 3,8.899 v 4.198 c 0,1.202883 0.805895,1.902797 1.8,1.902846 L 7.927697,15 c 0.1794704,9e-6 0.4044691,-0.04867 0.514303,0.049 l 3.293,2.895 C 12.379873,18.517434 13,18.2 13,17.396 v -3.647 l 4.975396,5.075258 c 0.234314,0.234314 0.614228,0.234314 0.848548,0 0.234313,-0.234319 0.234313,-0.614236 0,-0.848551 z M 12.000007,12.8 12.031,16.751 9.14,14.2 C 8.8104799,13.907042 8.1845462,14 7.7436108,14 H 4.8 C 4.46864,14 4.000007,13.531357 4.000007,13.2 V 8.8 c 0,-0.3313628 0.46862,-0.8 0.79998,-0.8 h 3.20002 C 8.0018572,8 7.14791,8.000006 7.15,8 Z"
       id="path1707-3"
       style="fill:#e5e9ef;fill-opacity:1;stroke-width:0.799994"
       sodipodi:nodetypes="ccccsssssccsccccccccsssssscc" />
    <path
       d="m 12,5.2453974 v 4.409107 L 13,10.854 V 4.5 C 13,4 12.456657,3.4792984 11.811857,4.0526334 L 9.0923063,6.4704734 9.842,7.22 Z"
       id="path1709-5"
       style="fill:#e5e9ef;fill-opacity:1;stroke-width:0.799994"
       sodipodi:nodetypes="cccscccc" />
    <path
       d="m 15.112694,12.567276 0.910394,0.910477 c 0.369434,-0.747599 0.576794,-1.589271 0.576794,-2.477821 0,-0.962551 -0.24336,-1.8700436 -0.672314,-2.6625246 -0.157754,-0.291412 -0.521914,-0.399762 -0.813274,-0.242003 -0.291428,0.157753 -0.399834,0.52187 -0.24208,0.813275 0.3364,0.621422 0.52768,1.3330946 0.52768,2.0912526 0,0.552796 -0.10168,1.080952 -0.2872,1.567344 z"
       id="path1711-6"
       style="fill:#e5e9ef;fill-opacity:1;stroke-width:0.799994" />
    <path
       d="m 16.910362,14.365024 0.874714,0.87471 c 0.769748,-1.229345 1.214788,-2.683255 1.214788,-4.239802 0,-1.7808836 -0.582634,-3.4274266 -1.567428,-4.7570796 -0.19728,-0.266278 -0.573034,-0.322262 -0.839274,-0.125033 -0.26632,0.197224 -0.322234,0.572973 -0.12504,0.839259 0.836954,1.130031 1.331754,2.527827 1.331754,4.0428536 0,1.224869 -0.32336,2.373021 -0.889514,3.365092 z"
       id="path1713-2"
       style="fill:#e5e9ef;fill-opacity:1;stroke-width:0.799994" />
  </g>
  <g
     id="audio-volume-medium"
     transform="translate(-64.000002)">
    <path
       style="opacity:0.00100002;fill:#e5e9ef;fill-opacity:1"
       d="M 0,0 H 32.000001 V 32.000001 H 0 Z"
       id="path31" />
    <path
       d="M 20,5.669887 C 20,4.231754 18.333356,3.468796 17.279346,4.424351 L 11.405769,9.748597 C 11.22623,9.911354 10.994356,10 10.754103,10 H 5.942311 C 4.317317,10 3,11.34438 3,13.001202 v 5.9971 C 3,20.65507 4.317317,22 5.942311,22 h 4.811726 c 0.24027,0 0.472175,0.08806 0.651723,0.250861 l 5.873462,5.324832 C 18.333356,28.53146 20,27.768534 20,26.330289 Z M 12.709099,11.243262 18,6.41226 V 25.587918 L 12.709165,20.756402 C 12.170525,20.26801 11.474809,20 10.754037,20 H 5.942311 C 5.400653,20 5,19.550558 5,18.998302 v -5.9971 C 5,12.448919 5.400653,12 5.942311,12 h 4.811792 c 0.72072,0 1.416374,-0.268494 1.954996,-0.756738 z"
       id="path2057-36"
       style="fill:#e5e9ef;fill-opacity:1;stroke-width:1.3205"
       sodipodi:nodetypes="sccssssssccssccccssssssc" />
    <path
       d="m 24.988951,8.188621 c 0.44372,-0.315569 1.06997,-0.225995 1.398758,0.200049 1.641289,2.127447 2.612329,4.761928 2.612329,7.611315 0,2.849386 -0.97104,5.483869 -2.612329,7.611344 -0.328788,0.426102 -0.955038,0.51558 -1.398758,0.200051 -0.443854,-0.315512 -0.537056,-0.916726 -0.208387,-1.342831 1.394892,-1.807991 2.219535,-4.044388 2.219535,-6.468564 0,-2.42405 -0.824642,-4.660501 -2.219535,-6.468551 -0.328669,-0.426045 -0.235467,-1.027245 0.208387,-1.342813 z"
       id="path2059-7"
       style="fill:#e5e9ef;fill-opacity:1;stroke-width:1.30642" />
    <path
       d="m 22.524215,11.352758 c 0.485595,-0.252398 1.09251,-0.07907 1.355428,0.38721 0.714925,1.26797 1.120517,2.719932 1.120517,4.260017 0,1.540084 -0.405592,2.992106 -1.120517,4.260068 -0.262918,0.466173 -0.869833,0.639611 -1.355428,0.387197 -0.485712,-0.252414 -0.666371,-0.835067 -0.403453,-1.301242 0.56065,-0.994294 0.879448,-2.132978 0.879448,-3.346023 0,-1.213047 -0.318798,-2.351731 -0.879448,-3.345989 -0.262918,-0.466246 -0.08227,-1.048834 0.403453,-1.301238 z"
       id="path2061-5"
       style="fill:#e5e9ef;fill-opacity:0.5;stroke-width:1.30642" />
  </g>
  <g
     id="22-22-audio-volume-medium"
     transform="translate(-64.000002,-22)">
    <path
       style="opacity:0.00100002;fill:#e5e9ef;fill-opacity:1"
       d="M 0,0 H 22 V 22 H 0 Z"
       id="path12" />
    <path
       d="m 14,4.0370168 c 0,-0.958748 -1.176456,-1.367133 -1.920462,-0.730102 l -4.146054,3.54947 c -0.126734,0.108504 -0.290409,0.167601 -0.46,0.167601 H 4.076925 C 2.92987,7.0239858 2,7.9202318 2,9.0247708 v 3.9980352 c 0,1.104503 0.92987,2.001116 2.076925,2.001116 h 3.396512 c 0.169603,0 0.333301,0.05871 0.46004,0.167239 l 4.145971,3.54986 c 0.744095,0.637173 1.920555,0.282996 1.920555,-0.717004 z m -5.146519,3.516 4.146522,-3.529 V 18.024017 l -4.146475,-3.529 c -0.380217,-0.325592 -0.87131,-0.471 -1.380091,-0.471 H 4.000003 c -0.382346,0 -1,-0.631832 -1,-1 V 9.0240168 c 0,-0.368186 0.661152,-1 0.999997,-1 h 3.473484 c 0.508744,0 0.999793,-0.145506 1.379997,-0.471 z"
       id="path2057-3-0"
       style="fill:#e5e9ef;fill-opacity:1;stroke-width:0.905853"
       sodipodi:nodetypes="sccssssssccssccccssssssc" />
    <path
       d="m 17.321,5.8164088 c 0.296361,-0.210378 0.714633,-0.150662 0.934228,0.133365 C 19.351444,7.3680608 20,9.1243678 20,11.023944 c 0,1.899576 -0.648556,3.655883 -1.744772,5.074189 -0.219596,0.284066 -0.637867,0.343717 -0.934228,0.133366 -0.296449,-0.21034 -0.358698,-0.611146 -0.139179,-0.895213 0.931644,-1.205318 1.482424,-2.696238 1.482424,-4.312342 0,-1.6160212 -0.550778,-3.1069762 -1.482424,-4.3123332 -0.219519,-0.284028 -0.15727,-0.684825 0.139179,-0.895202 z"
       id="path2059-6-9"
       style="fill:#e5e9ef;fill-opacity:1;stroke-width:0.871748" />
    <path
       d="m 15.674806,7.9258168 c 0.324329,-0.168264 0.729686,-0.05271 0.905289,0.258138 0.477497,0.845307 0.748392,1.8132742 0.748392,2.8399892 0,1.026714 -0.270894,1.994722 -0.748392,2.840023 -0.175603,0.310779 -0.58096,0.426403 -0.905289,0.258129 -0.324405,-0.168275 -0.445067,-0.556707 -0.269466,-0.867488 0.374459,-0.662857 0.587384,-1.421974 0.587384,-2.230664 0,-0.808691 -0.212924,-1.5678082 -0.587384,-2.2306422 -0.175601,-0.310828 -0.05496,-0.699217 0.269466,-0.867485 z"
       id="path2061-7-3"
       style="fill:#e5e9ef;fill-opacity:0.5;stroke-width:0.871748" />
  </g>
</svg>
