<?xml version="1.0" encoding="UTF-8" standalone="no"?>
<svg
   sodipodi:docname="elisa.svg"
   inkscape:version="1.2.1 (9c6d41e410, 2022-07-14)"
   viewBox="0 0 32 32"
   id="svg2"
   version="1.1"
   width="32"
   height="32"
   xmlns:inkscape="http://www.inkscape.org/namespaces/inkscape"
   xmlns:sodipodi="http://sodipodi.sourceforge.net/DTD/sodipodi-0.dtd"
   xmlns="http://www.w3.org/2000/svg"
   xmlns:svg="http://www.w3.org/2000/svg"
   xmlns:rdf="http://www.w3.org/1999/02/22-rdf-syntax-ns#"
   xmlns:cc="http://creativecommons.org/ns#"
   xmlns:dc="http://purl.org/dc/elements/1.1/">
  <g
     id="22-22-elisa">
    <path
       style="fill:none"
       d="M -22,10 V 32 H 0 V 10 Z"
       id="path11" />
    <path
       d="m -2.294009,21.716089 v -0.246985 c 0,-1.012357 -0.847062,-1.8765 -1.952951,-2.123454 C -4.623321,15.790247 -7.517554,13 -10.999923,13 c -3.482358,0 -6.376491,2.790157 -6.752969,6.34565 -1.12937,0.246977 -1.952945,1.111097 -1.952945,2.123454 v 0.246985 C -20.435212,21.864215 -21,22.60499 -21,23.469251 c 0,0.888916 0.564752,1.604855 1.294163,1.753163 v 0.246984 c 0,1.20994 1.176474,2.197531 2.63526,2.197531 h 0.685961 v -7.654281 c 0.04712,-3.135853 2.3729,-5.679002 5.384601,-5.679002 3.035233,0 5.322934,2.593167 5.384628,5.802434 v 7.530849 h 0.685955 c 1.435288,0 2.635251,-0.98756 2.635251,-2.197531 V 25.222414 C -1.564803,25.074314 -1,24.33354 -1,23.469251 -1,22.580197 -1.564754,21.864049 -2.294181,21.715914 Z"
       id="path67-6"
       style="fill:#e5e9ef;fill-opacity:1;stroke-width:0.0430427"
       sodipodi:nodetypes="cscscscscssccsscsscscc" />
    <path
       style="color:#31363b;fill:#e5e9ef;fill-opacity:1;stroke:none;stroke-width:0.717724"
       d="m -10.999541,17.000071 v 8.283767 c -0.574998,-0.270897 -1.242687,-0.197685 -1.954501,0.124519 -1.191482,0.538805 -1.874659,1.719896 -1.526582,2.638206 0.34807,0.918605 1.59714,1.227584 2.788888,0.688485 0.94011,-0.426312 1.715736,-1.53418 1.715736,-2.201681 v -6.533265 c 0,0 1.998774,0.299704 1.998774,2.699727 0,1.800019 -0.550032,2.4009 -1.923651,3.900914 1.373619,-0.900008 2.472304,-2.100895 2.472304,-3.900914 0,-2.400023 -1.695896,-3.479345 -2.130236,-3.953643 -0.274729,-0.300004 -0.617067,-1.445824 -0.617067,-1.445824 z"
       class="ColorScheme-Text"
       id="path9-3-7"
       sodipodi:nodetypes="cccccscscsscc" />
  </g>
  <sodipodi:namedview
     inkscape:document-rotation="0"
     inkscape:lockguides="true"
     inkscape:current-layer="svg2"
     inkscape:window-maximized="1"
     inkscape:window-y="0"
     inkscape:window-x="0"
     inkscape:cy="21.151327"
     inkscape:cx="1.4850078"
     inkscape:zoom="12.457847"
     showgrid="true"
     id="namedview14"
     inkscape:window-height="1004"
     inkscape:window-width="1920"
     inkscape:pageshadow="2"
     inkscape:pageopacity="0"
     guidetolerance="10"
     gridtolerance="10"
     objecttolerance="10"
     borderopacity="1"
     bordercolor="#ee0000"
     pagecolor="#000000"
     inkscape:pagecheckerboard="true"
     inkscape:showpageshadow="false"
     inkscape:deskcolor="#000000">
    <inkscape:grid
       type="xygrid"
       id="grid2696"
       originx="0"
       originy="0" />
  </sodipodi:namedview>
  <metadata
     id="metadata20">
    <rdf:RDF>
      <cc:Work
         rdf:about="">
        <dc:format>image/svg+xml</dc:format>
        <dc:type
           rdf:resource="http://purl.org/dc/dcmitype/StillImage" />
      </cc:Work>
    </rdf:RDF>
  </metadata>
  <defs
     id="defs3051">
    <style
       type="text/css"
       id="current-color-scheme">
      .ColorScheme-Text {
        color:#31363b;
      }
      </style>
    <linearGradient
       id="oomox"
       x1="0"
       x2="0"
       y1="0"
       y2="16"
       gradientUnits="userSpaceOnUse"
       gradientTransform="matrix(1.5000001,0,0,1.5000001,25.843999,4.0940002)">
      <stop
         offset="0%"
         style="stop-color:#303b3d; stop-opacity:1"
         id="stop18" />
      <stop
         offset="100%"
         style="stop-color:#bc985d; stop-opacity:1"
         id="stop20" />
    </linearGradient>
  </defs>
  <g
     id="elisa">
    <path
       style="fill:none"
       d="M 0,0 V 32 H 32 V 0 Z"
       id="path18" />
    <path
       d="m 28.188387,17.073899 v -0.37047 c 0,-1.518508 -1.185894,-2.814699 -2.734126,-3.185123 C 24.927359,8.1852947 20.875429,4 16.000115,4 11.124808,4 7.0730206,8.1851608 6.5459519,13.518306 4.9648318,13.888764 3.8118288,15.184921 3.8118288,16.703429 v 0.37047 C 2.7907039,17.296085 2,18.407227 2,19.703596 c 0,1.33335 0.7906521,2.407241 1.8118288,2.629698 v 0.370468 C 3.8118288,24.518641 5.4588924,26 7.5011926,26 H 8.461538 V 14.518785 c 0.065961,-4.703696 3.322061,-8.5183522 7.538441,-8.5183522 4.249329,0 7.4521,3.8896812 7.538481,8.7034952 V 26 h 0.960332 c 2.009412,0 3.689355,-1.481312 3.689355,-3.296238 V 22.333294 C 29.209276,22.111148 30,21.000007 30,19.703596 30,18.37004 29.209349,17.295836 28.188147,17.073639 Z"
       id="path67"
       style="fill:#e5e9ef;fill-opacity:1;stroke-width:0.0623742"
       sodipodi:nodetypes="cscscscscssccsscsscscc" />
    <path
       style="color:#31363b;fill:#e5e9ef;fill-opacity:1;stroke:none;stroke-width:1.04007"
       d="m 15.400198,10 0.001,12.025 c -0.804997,-0.406338 -2.340463,-0.1963 -3.337,0.287 -1.668076,0.808194 -2.2513079,2.87956 -1.764,4.257 0.487299,1.377884 3.362544,1.841784 5.031,1.03315 C 16.647343,26.962695 17.75378,25.001233 17.75378,24 v -9.3 c 0,0 2.678234,0.249513 2.678234,3.849484 0,2.69998 -0.370164,3.601285 -2.293234,5.851268 1.92307,-1.34999 3.661234,-3.151288 3.661234,-5.851268 0,-3.599971 -2.574261,-5.218924 -3.182332,-5.930359 -0.384614,-0.449997 -0.863902,-2.168697 -0.863902,-2.168697 z"
       class="ColorScheme-Text"
       id="path9-3"
       sodipodi:nodetypes="cccccscscsscc" />
  </g>
</svg>
