<?xml version="1.0" encoding="UTF-8" standalone="no"?>
<svg
   width="32"
   height="32"
   version="1"
   id="svg12"
   sodipodi:docname="kate.svg"
   inkscape:version="1.2.1 (9c6d41e410, 2022-07-14)"
   xmlns:inkscape="http://www.inkscape.org/namespaces/inkscape"
   xmlns:sodipodi="http://sodipodi.sourceforge.net/DTD/sodipodi-0.dtd"
   xmlns="http://www.w3.org/2000/svg"
   xmlns:svg="http://www.w3.org/2000/svg"
   xmlns:rdf="http://www.w3.org/1999/02/22-rdf-syntax-ns#"
   xmlns:cc="http://creativecommons.org/ns#"
   xmlns:dc="http://purl.org/dc/elements/1.1/">
  <g
     id="22-22-kate"
     transform="translate(32,10)">
    <rect
       style="opacity:0.00100002;fill:#d1d5e9;fill-opacity:1"
       width="22"
       height="22"
       x="0"
       y="0"
       id="rect2" />
    <path
       d="m 14.618708,5.666856 c -0.05783,-0.0015 -0.117276,0.01407 -0.173216,0.04588 -0.03002,0.01845 -0.159822,0.159861 -0.287453,0.314 l -0.232402,0.283169 -0.08418,-0.05207 c -0.117862,-0.07044 -0.231563,-0.08596 -0.337628,-0.0424 -0.07321,0.02992 -0.245139,0.230888 -1.372369,1.588999 -0.711441,0.856165 -1.289895,1.563395 -1.288135,1.574308 0.0029,0.0084 0.290211,0.213494 0.639594,0.451188 l 0.638785,0.435015 0.840472,-1.014598 c 0.462538,-0.558115 0.847361,-1.009835 0.856593,-1.003582 0.02988,0.01992 0.08437,0.458466 0.07362,0.599396 -0.0077,0.07686 -0.03578,0.214955 -0.06879,0.306621 -0.05845,0.163846 -0.06474,0.173446 -1.106763,1.434952 -0.576276,0.697351 -1.056101,1.289729 -1.06469,1.313128 -0.02433,0.06455 0.0043,0.185311 0.05674,0.254566 0.09008,0.116749 0.313116,0.153632 0.439625,0.0704 0.08743,-0.05783 2.151238,-2.574962 2.216842,-2.706236 0.191704,-0.374418 0.231417,-0.853887 0.110104,-1.325648 -0.04756,-0.187227 -0.110532,-0.367229 -0.17163,-0.495152 -0.01816,-0.03444 0.0113,-0.07962 0.204863,-0.314693 0.182364,-0.224382 0.224214,-0.287461 0.227471,-0.3455 0.0087,-0.123679 -0.03407,-0.192575 -0.168394,-0.286842 L 14.443082,6.663647 14.690839,6.36214 c 0.203044,-0.24935 0.246998,-0.314534 0.250184,-0.372655 0.0087,-0.185252 -0.148607,-0.321058 -0.322285,-0.32278 z M 10.444955,9.8484 c -0.0077,0.0015 -0.7641075,0.913374 -1.6856745,2.025449 -1.482331,1.790799 -1.693138,2.055912 -1.829856,2.283702 -0.271543,0.453553 -0.56712,1.145065 -0.76345,1.77677 -0.127301,0.405211 -0.133648,0.368547 0.04399,0.282427 0.547089,-0.267723 1.261711,-0.702324 1.677522,-1.021905 0.406619,-0.312791 0.475842,-0.392355 2.1982425,-2.470771 L 11.742278,10.722847 11.098597,10.28488 C 10.744576,10.044032 10.451291,9.847588 10.4452,9.8484 Z m 0.186265,4.634873 c -0.08147,-0.006 -0.165169,-0.003 -0.219484,0.0077 v 0.0013 c -0.257379,0.04931 -0.5440765,0.251333 -0.6824875,0.484178 -0.03697,0.06052 -0.09666,0.19751 -0.133595,0.300786 -0.03416,0.105154 -0.06715,0.192912 -0.06972,0.19512 -0.01974,0.02215 -0.512193,0.129543 -0.801527,0.174618 -0.68023,0.107799 -0.866008,0.147965 -0.932739,0.203938 -0.131009,0.109675 -0.02962,0.220141 0.156261,0.170933 0.04913,-0.01388 0.259615,-0.05143 0.462318,-0.0829 0.203112,-0.03117 0.51206,-0.08978 0.687431,-0.125436 0.175753,-0.03816 0.3245,-0.06327 0.331938,-0.05645 0.0087,0.0066 -0.02144,0.134379 -0.06875,0.284591 l -0.08426,0.269247 -0.186203,0.07409 c -0.101568,0.04056 -0.247161,0.109661 -0.323855,0.156981 -0.232589,0.138979 -0.277487,0.313583 -0.114174,0.4255 0.08916,0.06052 0.336486,0.05825 0.48984,-0.0035 0.135948,-0.05593 0.212475,-0.134225 0.319022,-0.338174 0.05676,-0.105538 0.101586,-0.161224 0.135979,-0.16799 0.02773,-0.0068 0.272983,-0.05176 0.5449415,-0.103458 0.272336,-0.0493 0.519461,-0.0967 0.551378,-0.103413 0.05165,-0.01099 0.05721,-0.0066 0.04239,0.03591 -0.0094,0.02709 -0.05481,0.10584 -0.102015,0.17533 -0.04689,0.0695 -0.08424,0.152143 -0.08424,0.185588 0,0.06949 0.06469,0.13908 0.116597,0.121046 0.01982,-0.0065 0.04649,-0.01361 0.05915,-0.01361 0.01224,0 0.06708,-0.03596 0.121403,-0.08068 0.101556,-0.083 0.346564,-0.489162 0.346564,-0.574425 0,-0.04225 0.03677,-0.05331 0.05912,-0.01947 0.0087,0.01099 0.06373,0.03125 0.125482,0.04439 0.08666,0.01996 0.111746,0.03531 0.111746,0.07117 0,0.06948 0.126509,0.170837 0.238051,0.190736 0.08662,0.01389 0.197994,-0.0035 0.316572,-0.04683 0.04236,-0.01609 0.04474,-0.01099 0.03027,0.04683 -0.0095,0.03609 -0.08196,0.150517 -0.158688,0.256049 -0.163309,0.21971 -0.361086,0.569307 -0.412916,0.724054 -0.04222,0.132201 -0.02438,0.231055 0.05166,0.278057 0.06926,0.04055 0.182823,0.02135 0.242086,-0.03693 0.05159,-0.05156 0.33436,-0.591397 0.438012,-0.837759 0.07428,-0.172774 0.108582,-0.219981 0.276894,-0.381523 0.138496,-0.132165 0.183664,-0.163669 0.153853,-0.11222 -0.04922,0.09657 -0.04702,0.17024 0.0086,0.214959 0.11608,0.09649 0.284383,0.0035 0.430729,-0.239903 0.08662,-0.143453 0.151138,-0.185661 0.472829,-0.322797 l 0.167602,-0.06966 -0.01728,0.08286 c -0.0093,0.04457 -0.06707,0.172777 -0.126355,0.282445 -0.116465,0.221971 -0.138071,0.363234 -0.06874,0.484178 0.04663,0.08304 0.09629,0.08572 0.323854,0.01422 0.316721,-0.09652 0.729809,-0.31905 0.837194,-0.446731 0.145883,-0.179573 0.190717,-0.351889 0.102003,-0.410114 -0.09157,-0.06043 -0.143394,-0.03583 -0.259875,0.118846 -0.155925,0.210757 -0.348662,0.374773 -0.534419,0.45779 -0.08662,0.04052 -0.163339,0.0669 -0.170843,0.06019 -0.0093,-0.0088 0.187784,-0.491008 0.293902,-0.717491 0.02215,-0.04677 0.04081,-0.105421 0.04081,-0.129835 0,-0.06274 -0.08688,-0.134233 -0.161118,-0.134233 -0.03448,0 -0.198584,0.06021 -0.361917,0.136428 -0.339096,0.152504 -0.316584,0.165952 -0.229947,-0.121052 0.05165,-0.176915 0.03444,-0.224185 -0.08424,-0.235484 -0.113976,-0.011 -0.158299,0.02236 -0.262292,0.190734 -0.06673,0.114195 -0.155555,0.20864 -0.326335,0.352164 -0.225076,0.188153 -0.235183,0.19477 -0.28742,0.161344 -0.07926,-0.05156 -0.123821,-0.04438 -0.31658,0.04264 -0.188206,0.08525 -0.250284,0.09655 -0.297137,0.04457 -0.03981,-0.04251 0.02251,-0.06497 0.366766,-0.125439 0.334103,-0.05821 0.375683,-0.07448 0.375683,-0.137201 0,-0.101034 -0.09165,-0.196902 -0.255065,-0.261901 -0.282316,-0.114147 -0.313684,-0.121332 -0.437221,-0.09243 -0.133488,0.03112 -0.331702,0.20398 -0.358678,0.311805 -0.02773,0.112281 -0.111698,0.07845 -0.111698,-0.04465 0,-0.05156 -0.06969,-0.181415 -0.109351,-0.203934 -0.08413,-0.05156 -0.219819,0.0608 -0.323794,0.267029 l -0.08175,0.159177 -0.182957,0.03591 c -0.237552,0.04683 -0.9277785,0.172386 -1.0194165,0.188553 -0.05923,0.0088 -0.06915,0.006 -0.05671,-0.02736 0.0093,-0.02208 0.03922,-0.120486 0.06872,-0.221531 0.0766,-0.277948 0.09947,-0.314243 0.210503,-0.349929 0.1334745,-0.04247 0.5843055,-0.217717 0.7003415,-0.271424 0.05452,-0.02509 0.16531,-0.100754 0.246959,-0.167991 0.249929,-0.210739 0.289178,-0.406006 0.110887,-0.549454 -0.04922,-0.03816 -0.113873,-0.07824 -0.1433,-0.08956 -0.0458,-0.01612 -0.124295,-0.02696 -0.205609,-0.03043 z m -0.249387,0.261896 c 0.03418,-0.0029 0.07487,-0.0013 0.126295,0.0035 0.13099,0.0066 0.183318,0.01812 0.220192,0.0535 0.04921,0.04443 0.04914,0.04658 0.0078,0.132053 -0.03001,0.05367 -0.09873,0.116831 -0.185396,0.170918 -0.150872,0.09428 -0.6239015,0.266633 -0.6387705,0.235447 -0.01966,-0.05156 0.1316985,-0.35895 0.2282945,-0.45776 0.09644,-0.09914 0.141434,-0.131192 0.244551,-0.136419 z m -1.2703945,1.877288 c 0.01937,0.002 0.01941,0.0164 0.0053,0.04376 -0.03278,0.05596 -0.116723,0.09647 -0.163605,0.08067 -0.0545,-0.01996 -0.03955,-0.04651 0.04707,-0.08725 0.05714,-0.02609 0.09449,-0.03891 0.113306,-0.03783 z"
       class="ColorScheme-Text "
       id="path14466-5-6"
       style="color:#e5e9ef;fill:currentColor;fill-opacity:1;stroke-width:0.629532" />
    <path
       d="M 15.79598,3 H 6.2040455 c -1.21585,0.0035 -2.200639,0.90258 -2.204036,2.013077 V 16.986916 C 4.0035095,18.097427 4.78415,18.996904 6,19 h 10 c 1.217244,3e-6 2.000013,-0.901289 2.00001,-2.013089 V 5.013077 C 18.00001,3.90129 17.013215,2.999997 15.79598,3 Z M 17,17 c -6e-6,0.667073 -0.269667,0.999996 -1,1 H 6 C 5.269646,18 5.000007,17.667075 5,17 V 5 h 12 z"
       id="path3728-1"
       style="fill:#e5e9ef;fill-opacity:1;stroke-width:0.842515"
       sodipodi:nodetypes="cccccccccccscccc" />
  </g>
  <style
     id="current-color-scheme"
     type="text/css">.ColorScheme-Text { color:#e5e9ef; }
</style>
  <metadata
     id="metadata18">
    <rdf:RDF>
      <cc:Work
         rdf:about="">
        <dc:format>image/svg+xml</dc:format>
        <dc:type
           rdf:resource="http://purl.org/dc/dcmitype/StillImage" />
      </cc:Work>
    </rdf:RDF>
  </metadata>
  <defs
     id="defs16" />
  <sodipodi:namedview
     pagecolor="#000000"
     bordercolor="#fe0000"
     borderopacity="1"
     objecttolerance="10"
     gridtolerance="10"
     guidetolerance="10"
     inkscape:pageopacity="0"
     inkscape:pageshadow="2"
     inkscape:window-width="1920"
     inkscape:window-height="1004"
     id="namedview14"
     showgrid="true"
     inkscape:zoom="13.876971"
     inkscape:cx="30.302003"
     inkscape:cy="18.123552"
     inkscape:window-x="0"
     inkscape:window-y="0"
     inkscape:window-maximized="1"
     inkscape:current-layer="svg12"
     inkscape:document-rotation="0"
     inkscape:showpageshadow="false"
     inkscape:lockguides="false"
     inkscape:pagecheckerboard="true"
     inkscape:deskcolor="#000000">
    <inkscape:grid
       type="xygrid"
       id="grid8946" />
  </sodipodi:namedview>
  <g
     id="kate">
    <rect
       style="opacity:0.00100002;fill:#d1d5e9;fill-opacity:1"
       width="32"
       height="32"
       x="0"
       y="0"
       id="rect7" />
    <path
       d="m 21.169589,8.0002964 c -0.08266,-0.00155 -0.167536,0.021231 -0.247468,0.068884 -0.04299,0.027619 -0.228324,0.2397805 -0.410629,0.4709737 l -0.332027,0.424758 -0.120219,-0.078223 c -0.168363,-0.1056465 -0.330784,-0.1289867 -0.482315,-0.06362 -0.10472,0.044938 -0.350206,0.346338 -1.960531,2.3835059 -1.016332,1.28425 -1.84269,2.345087 -1.840206,2.361451 0.003,0.01354 0.414597,0.320253 0.913719,0.676783 l 0.912548,0.652528 1.200671,-1.521893 c 0.660774,-0.837188 1.210513,-1.514765 1.223701,-1.505387 0.04288,0.02994 0.120539,0.687715 0.105246,0.899107 -0.009,0.115273 -0.05102,0.322428 -0.09832,0.459932 -0.08361,0.245766 -0.09267,0.260166 -1.581098,2.152419 -0.823257,1.046029 -1.508719,1.934597 -1.521001,1.969696 -0.03478,0.09681 0.0063,0.277966 0.08117,0.381849 0.128788,0.175123 0.447301,0.230448 0.628037,0.105602 0.124891,-0.08674 3.073197,-3.862442 3.166921,-4.059356 0.273863,-0.561633 0.33059,-1.28082 0.157287,-1.988474 -0.06788,-0.280832 -0.157906,-0.550836 -0.245188,-0.742731 -0.02605,-0.05173 0.01622,-0.119495 0.292661,-0.472028 0.260524,-0.336584 0.320307,-0.43119 0.32496,-0.518262 0.01043,-0.1855178 -0.04861,-0.2888494 -0.240567,-0.430249 L 20.918827,9.495414 21.272757,9.043142 C 21.562828,8.6691284 21.625621,8.5713523 21.630163,8.4841537 21.64292,8.2062879 21.41788,8.0025857 21.169767,8 Z m -5.962506,6.2722956 c -0.009,0.002 -1.091576,1.370069 -2.408123,3.038182 -2.117606,2.686196 -2.418758,3.083866 -2.614077,3.425552 -0.387916,0.680329 -0.81019,1.717596 -1.0906378,2.665154 -0.1818604,0.607818 -0.190947,0.55282 0.062761,0.423642 0.7815658,-0.401586 1.8024488,-1.053488 2.3964608,-1.532858 0.580886,-0.469187 0.679769,-0.588532 3.140353,-3.706159 l 2.36651,-3.001834 -0.919544,-0.656948 c -0.505743,-0.36128 -0.924706,-0.65595 -0.93342,-0.654731 z m 0.266063,6.952318 c -0.1163,-0.0091 -0.235949,-0.0046 -0.313537,0.0116 v 0.002 c -0.367685,0.07395 -0.777233,0.377 -0.974968,0.726267 -0.05284,0.09078 -0.138157,0.296266 -0.190874,0.451179 -0.04876,0.157731 -0.09595,0.289369 -0.09955,0.292681 -0.02826,0.03322 -0.731682,0.194314 -1.145049,0.261926 -0.97173,0.161699 -1.237135,0.221948 -1.332475,0.305907 -0.187149,0.164514 -0.04242,0.330212 0.223245,0.2564 0.07008,-0.02083 0.370869,-0.07713 0.660442,-0.124348 0.290169,-0.04677 0.731522,-0.134662 0.982035,-0.188153 0.251101,-0.05724 0.463587,-0.0949 0.474191,-0.08469 0.01026,0.0098 -0.03075,0.201569 -0.09828,0.426887 l -0.120314,0.403853 -0.265996,0.11113 c -0.145052,0.06083 -0.353069,0.164491 -0.462656,0.235471 -0.332249,0.208469 -0.396396,0.470375 -0.163082,0.638251 0.127314,0.09077 0.480686,0.08737 0.699744,-0.0052 0.194237,-0.08391 0.303536,-0.201338 0.455747,-0.507261 0.08124,-0.158307 0.145151,-0.241836 0.194283,-0.251985 0.03962,-0.01025 0.389977,-0.07763 0.778466,-0.155188 0.389055,-0.07394 0.742086,-0.145053 0.787679,-0.155119 0.07386,-0.0165 0.08167,-0.0098 0.06048,0.05385 -0.01383,0.04063 -0.07841,0.158761 -0.145759,0.262996 -0.06706,0.104243 -0.120293,0.228214 -0.120293,0.278381 0,0.104235 0.09253,0.20862 0.166567,0.18157 0.02847,-0.0097 0.06649,-0.02041 0.08444,-0.02041 0.01736,0 0.09588,-0.05395 0.173444,-0.121021 0.145087,-0.124499 0.495095,-0.733744 0.495095,-0.861638 0,-0.06337 0.05264,-0.07995 0.08434,-0.02921 0.01031,0.0165 0.09109,0.04687 0.179268,0.06657 0.123837,0.02995 0.159639,0.05298 0.159639,0.106763 0,0.104217 0.18073,0.256255 0.340069,0.286103 0.123766,0.02084 0.282844,-0.0052 0.452248,-0.07025 0.06042,-0.02414 0.064,-0.0165 0.0432,0.07025 -0.01383,0.05415 -0.117131,0.225773 -0.226679,0.38407 -0.233305,0.329565 -0.515844,0.853961 -0.589892,1.086081 -0.06022,0.198302 -0.03495,0.346584 0.07386,0.417086 0.09889,0.06083 0.261171,0.03201 0.345839,-0.0554 0.07375,-0.07734 0.477656,-0.887096 0.625724,-1.256639 0.106006,-0.25916 0.155131,-0.329971 0.395561,-0.572284 0.197862,-0.198248 0.262399,-0.245504 0.219792,-0.168331 -0.07026,0.144866 -0.06717,0.255361 0.01021,0.32244 0.16583,0.144727 0.406259,0.0052 0.615328,-0.359855 0.123785,-0.215188 0.215906,-0.2785 0.675471,-0.484203 l 0.239431,-0.104487 -0.02466,0.124301 c -0.01367,0.06686 -0.09582,0.259165 -0.180459,0.423667 -0.166381,0.332955 -0.197245,0.54485 -0.09827,0.726265 0.0667,0.124555 0.137489,0.128579 0.462643,0.02134 0.45246,-0.144776 1.04259,-0.478579 1.195998,-0.6701 0.208406,-0.269359 0.272447,-0.527833 0.145726,-0.61517 -0.130848,-0.09066 -0.204846,-0.05375 -0.37125,0.178268 -0.222751,0.316136 -0.498082,0.562159 -0.763459,0.686685 -0.123747,0.06077 -0.233334,0.100348 -0.244056,0.09028 -0.01368,-0.01323 0.268263,-0.736512 0.41986,-1.076237 0.0315,-0.07015 0.05826,-0.15813 0.05826,-0.194752 0,-0.0941 -0.124177,-0.201349 -0.230167,-0.201349 -0.04923,0 -0.283695,0.09031 -0.51703,0.204642 -0.484409,0.228756 -0.452252,0.248927 -0.328477,-0.181579 0.07386,-0.265372 0.04913,-0.336276 -0.120287,-0.353225 -0.16282,-0.01651 -0.226142,0.03354 -0.374702,0.286101 -0.0954,0.171292 -0.222222,0.31296 -0.466189,0.528245 -0.321539,0.282229 -0.33598,0.292156 -0.410602,0.242017 -0.113103,-0.07733 -0.176888,-0.06656 -0.45226,0.06397 -0.268868,0.127885 -0.357543,0.144827 -0.424482,0.06687 -0.05692,-0.06377 0.03204,-0.09745 0.523953,-0.188159 0.477293,-0.08732 0.53669,-0.111703 0.53669,-0.205801 0,-0.151551 -0.13105,-0.295353 -0.364374,-0.392852 -0.403276,-0.17122 -0.448087,-0.181998 -0.624564,-0.138643 -0.190704,0.04667 -0.473865,0.305971 -0.512399,0.467708 -0.03961,0.168422 -0.159572,0.117663 -0.159572,-0.06697 0,-0.07733 -0.09939,-0.272123 -0.156218,-0.3059 -0.120156,-0.07734 -0.314027,0.0912 -0.462566,0.400542 l -0.116862,0.238767 -0.261376,0.05385 c -0.339358,0.07025 -1.32539,0.258578 -1.456301,0.282828 -0.08452,0.01323 -0.09868,0.009 -0.08115,-0.04104 0.01374,-0.03312 0.05595,-0.180729 0.09825,-0.332295 0.109517,-0.416923 0.142063,-0.471366 0.300716,-0.524894 0.190677,-0.06369 0.834725,-0.326575 1.000496,-0.407137 0.07777,-0.03764 0.236149,-0.15113 0.3528,-0.251986 0.357036,-0.316108 0.413104,-0.609008 0.158412,-0.82418 -0.07027,-0.05724 -0.162682,-0.117357 -0.204718,-0.134342 -0.0653,-0.02418 -0.177567,-0.04043 -0.29373,-0.04564 z m -0.356253,0.392842 c 0.04875,-0.0045 0.107081,-0.002 0.180432,0.0052 0.187138,0.0098 0.261875,0.02717 0.314535,0.08024 0.07023,0.06666 0.07007,0.06986 0.0091,0.19808 -0.04301,0.08049 -0.141061,0.175247 -0.264851,0.256377 -0.215531,0.141423 -0.891291,0.399949 -0.912529,0.35317 -0.02816,-0.07733 0.188139,-0.538424 0.326134,-0.68664 0.137694,-0.148709 0.20205,-0.196788 0.349357,-0.204628 z m -1.814859,2.815934 c 0.02764,0.003 0.02788,0.02461 0.0073,0.06564 -0.04697,0.08395 -0.166749,0.144705 -0.23372,0.120994 -0.07774,-0.02995 -0.05663,-0.06977 0.0672,-0.13087 0.0816,-0.03913 0.134957,-0.05835 0.161865,-0.05673 z"
       class="ColorScheme-Text "
       id="path14466-5"
       style="fill:currentColor;fill-opacity:1;stroke-width:0.921553" />
    <path
       d="M 22.851382,4 H 9.1486137 C 7.4116931,4.004645 6.0048439,5.3538603 6,7.019626 v 17.960747 c 0.00481,1.665766 1.4116931,3.014981 3.1486137,3.019626 H 22.851382 C 24.59032,28.000002 26.000003,26.648064 26,24.980366 V 7.019626 C 25.999999,5.3519302 24.590317,3.999997 22.851382,4 Z M 25,25 c -6e-6,1.000609 -0.956647,1.999995 -2,2 H 9 C 7.956645,27 7.0000066,26.000613 7,25 V 7 h 18 z"
       id="path3728"
       style="fill:#e5e9ef;fill-opacity:1;stroke-width:1.23337"
       sodipodi:nodetypes="cccccccccccscccc" />
  </g>
</svg>
