<?xml version="1.0" encoding="UTF-8" standalone="no"?>
<svg
   width="32"
   height="32"
   version="1.1"
   id="svg12"
   sodipodi:docname="kget.svg"
   inkscape:version="1.2.1 (9c6d41e410, 2022-07-14)"
   xmlns:inkscape="http://www.inkscape.org/namespaces/inkscape"
   xmlns:sodipodi="http://sodipodi.sourceforge.net/DTD/sodipodi-0.dtd"
   xmlns:xlink="http://www.w3.org/1999/xlink"
   xmlns="http://www.w3.org/2000/svg"
   xmlns:svg="http://www.w3.org/2000/svg"
   xmlns:rdf="http://www.w3.org/1999/02/22-rdf-syntax-ns#"
   xmlns:cc="http://creativecommons.org/ns#"
   xmlns:dc="http://purl.org/dc/elements/1.1/">
  <style
     id="current-color-scheme"
     type="text/css">.ColorScheme-Text { color:#d6dbf1; }
</style>
  <metadata
     id="metadata18">
    <rdf:RDF>
      <cc:Work
         rdf:about="">
        <dc:format>image/svg+xml</dc:format>
        <dc:type
           rdf:resource="http://purl.org/dc/dcmitype/StillImage" />
      </cc:Work>
    </rdf:RDF>
  </metadata>
  <defs
     id="defs16">
    <linearGradient
       id="c"
       y1="13"
       y2="33"
       x2="0"
       gradientUnits="userSpaceOnUse"
       gradientTransform="matrix(1,0,0,-1,384.57,547.8)">
      <stop
         stop-color="#197cf1"
         id="stop12" />
      <stop
         offset="1"
         stop-color="#20bcfa"
         id="stop14" />
    </linearGradient>
    <linearGradient
       xlink:href="#c"
       id="d"
       y1="14"
       y2="33"
       x2="0"
       gradientUnits="userSpaceOnUse"
       gradientTransform="matrix(1,0,0,-1,-8,37)" />
    <linearGradient
       id="linearGradient917"
       y1="13"
       y2="33"
       x2="0"
       gradientUnits="userSpaceOnUse"
       gradientTransform="matrix(1,0,0,-1,384.57,547.8)">
      <stop
         stop-color="#197cf1"
         id="stop913" />
      <stop
         offset="1"
         stop-color="#20bcfa"
         id="stop915" />
    </linearGradient>
  </defs>
  <sodipodi:namedview
     pagecolor="#000000"
     bordercolor="#ff1010"
     borderopacity="1"
     objecttolerance="10"
     gridtolerance="10"
     guidetolerance="10"
     inkscape:pageopacity="0"
     inkscape:pageshadow="2"
     inkscape:window-width="1920"
     inkscape:window-height="1004"
     id="namedview14"
     showgrid="true"
     inkscape:zoom="6.9384855"
     inkscape:cx="20.897932"
     inkscape:cy="19.889067"
     inkscape:window-x="0"
     inkscape:window-y="0"
     inkscape:window-maximized="1"
     inkscape:current-layer="svg12"
     inkscape:document-rotation="0"
     inkscape:pagecheckerboard="true"
     inkscape:lockguides="false"
     inkscape:showpageshadow="false"
     inkscape:deskcolor="#000000">
    <inkscape:grid
       type="xygrid"
       id="grid849"
       originx="0"
       originy="2.7026367e-08" />
  </sodipodi:namedview>
  <g
     id="kget"
     transform="translate(32,9.9978008)">
    <rect
       style="opacity:0.00100002;fill:#d1d5e9;fill-opacity:1"
       width="32"
       height="32"
       x="-32"
       y="-9.9978008"
       id="rect7" />
    <path
       d="M -12.606037,2.8837262 -15,5.1867082 v -6.0936 c 0,-0.6025454 -0.397982,-1.090909 -1.000454,-1.090909 -0.602473,0 -0.990544,0.4884309 -0.999546,1.090909 v 6.0936 l -2.393964,-2.302982 c -0.425964,-0.425964 -1.116727,-0.425964 -1.542764,0 -0.426036,0.426109 -0.426036,1.116727 0,1.542764 l 4.165164,4.165163 c 0.213018,0.213091 0.492218,0.319636 0.771345,0.319636 0.279128,0 0.5584,-0.106545 0.771419,-0.319491 l 4.165454,-4.165163 c 0.425964,-0.425964 0.426036,-1.116727 7.3e-5,-1.542909 -0.426109,-0.425964 -1.1168,-0.425964 -1.542764,0 z"
       id="path3286"
       sodipodi:nodetypes="ccssscccscscccc"
       style="fill:#e5e9ef;fill-opacity:1;stroke-width:0.0727273" />
    <path
       d="m -13.818182,11.002199 h -4.363637 c -0.602472,0 -1.090909,0.443597 -1.090909,0.990909 0,0.54718 0.488437,0.990909 1.090909,0.990909 h 4.363637 c 0.602472,0 1.090909,-0.443729 1.090909,-0.990909 0,-0.547312 -0.488437,-0.990909 -1.090909,-0.990909 z"
       id="path3288"
       style="fill:#e5e9ef;fill-opacity:1;stroke-width:0.0693138" />
    <path
       style="color:#d1d5e9;fill:#e5e9ef;fill-opacity:1;stroke-width:1.5"
       d="m -16,-6.4978008 c -6.636,0 -12,5.364 -12,11.999999 0,6.6360008 5.364,12.0000008 12,12.0000008 6.636,0 12,-5.364 12,-12.0000008 0,-6.635999 -5.364,-11.999999 -12,-11.999999 z m 0,1.5 c 5.80498,0 10.5,4.69499997 10.5,10.499999 0,5.8049808 -4.69502,10.5000008 -10.5,10.5000008 -5.80502,0 -10.5,-4.69502 -10.5,-10.5000008 0,-5.80499903 4.69498,-10.499999 10.5,-10.499999 z m 1.12498,8.578498 v 0 0 0 0 0 c 0,0 -0.05091,0.012 0,0 z m -1.171491,6.7500048 z"
       id="path58-3"
       sodipodi:nodetypes="ssssssssssccccccccccccccccc"
       class="ColorScheme-Text" />
  </g>
  <g
     id="22-22-kget"
     transform="translate(32,9.9978008)">
    <rect
       style="opacity:0.00100002;fill:#d1d5e9;fill-opacity:1"
       width="22"
       height="22"
       x="0"
       y="2.7026367e-08"
       id="rect2" />
    <path
       d="M 13.262643,9.2543517 11.727176,10.789673 V 6.7272727 C 11.727176,6.3255758 11.401552,6 10.999903,6 10.598255,6 10.272631,6.3255758 10.272631,6.7272727 V 10.789673 L 8.7373578,9.2543517 c -0.2839758,-0.2839758 -0.7444849,-0.2839758 -1.0285092,0 -0.2840242,0.2840727 -0.2840242,0.7444849 0,1.0285093 l 2.7767754,2.776776 c 0.142013,0.14206 0.328146,0.213091 0.514231,0.213091 0.186085,0 0.372266,-0.07103 0.514279,-0.212994 l 2.776969,-2.776776 c 0.283976,-0.283976 0.284025,-0.7444851 4.9e-5,-1.0286063 -0.284073,-0.2839758 -0.744533,-0.2839758 -1.028509,0 z"
       id="path3286-3"
       style="fill:#e5e9ef;fill-opacity:1;stroke-width:0.0484849" />
    <path
       d="M 12.454546,15 H 9.5454548 C 9.1438063,15 8.918,15.223834 8.918,15.5 c 0,0.2761 0.2258063,0.5 0.6274548,0.5 h 2.8089092 c 0.401648,0 0.727273,-0.2239 0.727273,-0.5 0,-0.276166 -0.225443,-0.5 -0.627091,-0.5 z"
       id="path3288-5"
       style="fill:#e5e9ef;fill-opacity:1;stroke-width:0.0402015"
       sodipodi:nodetypes="sssssss" />
    <path
       sodipodi:nodetypes="cscscsssss"
       inkscape:connector-curvature="0"
       style="color:#d1d5e9;fill:#e5e9ef;fill-opacity:1;stroke:none"
       d="M 11,3 C 6.581754,2.99989 3,6.581644 3,11 3,15.418357 6.581754,19.000111 11,19.000001 15.418246,19.000111 19,15.418357 19,11 19,6.581644 15.418246,2.99989 11,3 Z m 0,1.40678 c 3.865993,0 6.59322,2.86282 6.59322,6.728814 0,3.865993 -2.727227,6.457627 -6.59322,6.457627 C 7.134007,17.593221 4.542373,14.865994 4.542373,11 4.542373,7.134007 7.134007,4.40678 11,4.40678 Z"
       class="ColorScheme-Text"
       id="path7" />
  </g>
</svg>
