<?xml version="1.0" encoding="UTF-8" standalone="no"?>
<svg
   width="32"
   height="32"
   version="1"
   id="svg12"
   sodipodi:docname="klipper.svg"
   inkscape:version="1.2.1 (9c6d41e410, 2022-07-14)"
   xmlns:inkscape="http://www.inkscape.org/namespaces/inkscape"
   xmlns:sodipodi="http://sodipodi.sourceforge.net/DTD/sodipodi-0.dtd"
   xmlns="http://www.w3.org/2000/svg"
   xmlns:svg="http://www.w3.org/2000/svg"
   xmlns:rdf="http://www.w3.org/1999/02/22-rdf-syntax-ns#"
   xmlns:cc="http://creativecommons.org/ns#"
   xmlns:dc="http://purl.org/dc/elements/1.1/">
  <style
     id="current-color-scheme"
     type="text/css">
.ColorScheme-Text { 
    color:#e5e9ef;
}
</style>
  <metadata
     id="metadata18">
    <rdf:RDF>
      <cc:Work
         rdf:about="">
        <dc:format>image/svg+xml</dc:format>
        <dc:type
           rdf:resource="http://purl.org/dc/dcmitype/StillImage" />
      </cc:Work>
    </rdf:RDF>
  </metadata>
  <defs
     id="defs16" />
  <sodipodi:namedview
     pagecolor="#000000"
     bordercolor="#ff0f0f"
     borderopacity="1"
     objecttolerance="10"
     gridtolerance="10"
     guidetolerance="10"
     inkscape:pageopacity="0"
     inkscape:pageshadow="2"
     inkscape:window-width="1920"
     inkscape:window-height="1004"
     id="namedview14"
     showgrid="true"
     inkscape:zoom="11.313709"
     inkscape:cx="20.373513"
     inkscape:cy="20.727067"
     inkscape:window-x="0"
     inkscape:window-y="0"
     inkscape:window-maximized="1"
     inkscape:current-layer="svg12"
     inkscape:document-rotation="0"
     inkscape:pagecheckerboard="true"
     inkscape:lockguides="false"
     showguides="false"
     inkscape:showpageshadow="false"
     inkscape:deskcolor="#000000">
    <sodipodi:guide
       position="2.209709,19.55934"
       orientation="1,0"
       id="guide8806"
       inkscape:locked="false" />
    <inkscape:grid
       type="xygrid"
       id="grid10087" />
  </sodipodi:namedview>
  <g
     id="klipper">
    <rect
       style="opacity:0.00100002;fill:#d1d5e9;fill-opacity:1"
       width="32"
       height="32"
       x="0"
       y="0"
       id="rect7" />
    <path
       id="_13.Clipboard"
       data-name="13.Clipboard"
       d="M 22.882353,28 H 9.1176458 C 7.9481023,27.999999 7,27.065638 7,25.913044 V 8.152 C 6.9999995,6.9994059 7.648456,6 8.818,6 h 1.887882 c 0.705264,6.086e-4 0.705264,1.0006086 0,1 H 9.018 C 8.4332279,7 7.9999997,7.375703 8,7.952 V 25.913044 C 8.0000007,26.48934 8.5328745,27 9.1176459,27 H 22.882353 C 23.467125,27 23.999999,26.489341 24,25.913044 L 23.999824,7.952 C 23.999824,7.3757026 23.666772,7 23.082,7 h -1.787883 c -0.705264,-6.086e-4 -0.705264,-1.0006086 0,-1 H 23.182 C 24.351544,6 25.000001,6.9994055 25,8.152 V 25.913044 C 25,27.065638 24.051897,28 22.882353,28 Z M 21.823529,8.1739136 c 0,0.2881485 -0.237026,0.5217389 -0.529412,0.5217388 H 10.705882 c -0.705113,-7.575e-4 -0.705113,-1.0427201 0,-1.0434776 0.399095,-0.062132 0.76893,-0.2443695 1.058824,-0.5217388 l 1.058823,-1.0434787 c 0.263326,-0.3122478 0.647358,-0.5014808 1.058825,-0.5217398 h 0.529409 c 0,-2.0869578 3.176474,-2.0869578 3.176474,0 h 0.529412 c 0.41564,0.00393 0.806251,0.1964038 1.058823,0.5217398 l 1.058822,1.0434787 c 0.289894,0.2773693 0.659729,0.4596066 1.058824,0.5217388 0.292386,4e-7 0.529411,0.2335907 0.529411,0.5217388 z"
       fill-rule="evenodd"
       style="fill:#e5e9ef;fill-opacity:1;stroke-width:0.525561"
       class="ColorScheme-Text"
       sodipodi:nodetypes="scscsccscccsccsccscsssccccccccccccscc" />
    <path
       d="M 10.560473,24 H 21.439527 C 21.709888,24 22,23.775998 22,23.499999 22,23.223998 21.709888,23 21.439527,23 H 10.560473 C 10.290112,23 10,23.223998 10,23.499999 10,23.775998 10.290112,24 10.560473,24 Z"
       id="path2653-0-9"
       style="fill:#e5e9ef;fill-opacity:1;stroke-width:0.247441"
       sodipodi:nodetypes="sssssss" />
    <path
       d="M 10.560473,12 H 21.439527 C 21.709888,12 22,11.775998 22,11.499999 22,11.223998 21.709888,11 21.439527,11 H 10.560473 C 10.290112,11 10,11.223998 10,11.499999 10,11.775998 10.290112,12 10.560473,12 Z"
       id="path2653-0-9-3"
       style="fill:#e5e9ef;fill-opacity:1;stroke-width:0.247441"
       sodipodi:nodetypes="sssssss" />
    <path
       d="M 10.560473,16 H 21.439527 C 21.709888,16 22,15.775998 22,15.499999 22,15.223998 21.709888,15 21.439527,15 H 10.560473 C 10.290112,15 10,15.223998 10,15.499999 10,15.775998 10.290112,16 10.560473,16 Z"
       id="path2653-0-9-3-6"
       style="fill:#e5e9ef;fill-opacity:1;stroke-width:0.247441"
       sodipodi:nodetypes="sssssss" />
    <path
       d="M 10.560473,20 H 21.439527 C 21.709888,20 22,19.775998 22,19.499999 22,19.223998 21.709888,19 21.439527,19 H 10.560473 C 10.290112,19 10,19.223998 10,19.499999 10,19.775998 10.290112,20 10.560473,20 Z"
       id="path2653-0-9-3-6-7"
       style="fill:#e5e9ef;fill-opacity:1;stroke-width:0.247441"
       sodipodi:nodetypes="sssssss" />
  </g>
  <g
     id="22-22-klipper">
    <rect
       style="opacity:0.00100002;fill:#d1d5e9;fill-opacity:1"
       width="22"
       height="22"
       x="32"
       y="10"
       id="rect2" />
    <path
       id="_13.Clipboard-9"
       data-name="13.Clipboard"
       d="M 47.588236,29 H 38.411765 C 37.632069,29 37,28.377092 37,27.608696 V 15.568 C 37,14.799604 37,14 38,14 h 1.271 c 0.729,0 0.729,1 0,1.000001 L 38,15 v 1 12 0 h 10 v 0 -12 -1 l -1.271,10e-7 C 46,15 46,14 46.729,14 H 48 c 1,0 1.000001,0.699603 1.000001,1.468 V 27.608696 C 49.000001,28.377092 48.367932,29 47.588236,29 Z M 46.882353,15.75 c 0,0.192099 -0.158017,0.25 -0.352941,0.25 h -7.058824 c -0.470075,-5.05e-4 -0.470075,-0.564711 0,-0.565216 0.266063,-0.04142 0.512621,-0.162913 0.705883,-0.347826 l 0.705882,-0.695652 c 0.175551,-0.208166 0.431572,-0.334321 0.705883,-0.347827 h 0.352939 c 0,-1.391305 2.11765,-1.391305 2.11765,0 h 0.352941 c 0.277094,0.0026 0.537501,0.130936 0.705883,0.347827 l 0.70588,0.695652 c 0.193264,0.184913 0.439819,0.306404 0.705883,0.347826 0.194925,0 0.35294,0.123117 0.352941,0.315216 z"
       fill-rule="evenodd"
       style="color:#e5e9ef;fill:#e5e9ef;fill-opacity:1;stroke-width:0.350374"
       class="ColorScheme-Text"
       sodipodi:nodetypes="scsccccccccccccccccsssccccccccccccs" />
    <path
       d="m 40.367971,25 h 5.264058 C 45.76285,25 46,24.775998 46,24.499999 46,24.223998 45.76285,24 45.632029,24 H 40.367971 C 40.23715,24 40,24.223998 40,24.499999 40,24.775998 40.23715,25 40.367971,25 Z"
       id="path2653-0-9-3-5"
       style="fill:#e5e9ef;fill-opacity:1;stroke-width:0.172122"
       sodipodi:nodetypes="sssssss" />
    <path
       d="m 40.367964,19 h 5.360844 C 45.859627,19 46,18.775998 46,18.499999 46,18.223998 45.762739,18 45.631922,18 H 40.367964 C 40.237147,18 40,18.223998 40,18.499999 40,18.775998 40.237147,19 40.367964,19 Z"
       id="path2653-0-9-3-5-3"
       style="fill:#e5e9ef;fill-opacity:1;stroke-width:0.172121"
       sodipodi:nodetypes="sssssss" />
    <path
       d="m 40.367964,22 h 5.360844 C 45.859627,22 46,21.775998 46,21.499999 46,21.223998 45.762739,21 45.631922,21 H 40.367964 C 40.237147,21 40,21.223998 40,21.499999 40,21.775998 40.237147,22 40.367964,22 Z"
       id="path2653-0-9-3-5-3-5"
       style="fill:#e5e9ef;fill-opacity:1;stroke-width:0.172121"
       sodipodi:nodetypes="sssssss" />
  </g>
</svg>
