<?xml version="1.0" encoding="UTF-8" standalone="no"?>
<svg
   width="32"
   height="32"
   version="1.1"
   id="svg12"
   sodipodi:docname="kteatime.svg"
   inkscape:version="1.2.1 (9c6d41e410, 2022-07-14)"
   xmlns:inkscape="http://www.inkscape.org/namespaces/inkscape"
   xmlns:sodipodi="http://sodipodi.sourceforge.net/DTD/sodipodi-0.dtd"
   xmlns="http://www.w3.org/2000/svg"
   xmlns:svg="http://www.w3.org/2000/svg"
   xmlns:rdf="http://www.w3.org/1999/02/22-rdf-syntax-ns#"
   xmlns:cc="http://creativecommons.org/ns#"
   xmlns:dc="http://purl.org/dc/elements/1.1/">
  <style
     id="current-color-scheme"
     type="text/css">.ColorScheme-Text { color:#d6dbf1; }
</style>
  <metadata
     id="metadata18">
    <rdf:RDF>
      <cc:Work
         rdf:about="">
        <dc:format>image/svg+xml</dc:format>
        <dc:type
           rdf:resource="http://purl.org/dc/dcmitype/StillImage" />
      </cc:Work>
    </rdf:RDF>
  </metadata>
  <defs
     id="defs16" />
  <sodipodi:namedview
     pagecolor="#000000"
     bordercolor="#ff0808"
     borderopacity="1"
     objecttolerance="10"
     gridtolerance="10"
     guidetolerance="10"
     inkscape:pageopacity="0"
     inkscape:pageshadow="2"
     inkscape:window-width="1920"
     inkscape:window-height="1004"
     id="namedview14"
     showgrid="true"
     inkscape:zoom="11.313708"
     inkscape:cx="25.50004"
     inkscape:cy="21.831923"
     inkscape:window-x="0"
     inkscape:window-y="0"
     inkscape:window-maximized="1"
     inkscape:current-layer="svg12"
     inkscape:document-rotation="0"
     inkscape:lockguides="false"
     inkscape:pagecheckerboard="true"
     inkscape:showpageshadow="false"
     inkscape:deskcolor="#000000">
    <inkscape:grid
       type="xygrid"
       id="grid864"
       originx="0"
       originy="0" />
  </sodipodi:namedview>
  <g
     id="kteatime">
    <rect
       style="opacity:0.00100002;fill:#d1d5e9;fill-opacity:1"
       width="32"
       height="32"
       x="0"
       y="0"
       id="rect7" />
    <path
       d="m 22.007569,14.775072 v 0 0 V 12 H 8 l 0.042891,12.84921 c 0.00397,1.188513 1.0242162,2.150607 2.289494,2.150607 h 9.670323 c 1.265292,0 2.004861,-0.962088 2.004861,-2.150607 V 24.736104 24 v 0 0 -9 0 z M 13.529015,16.3 15,18 v 2 H 12 V 18 Z M 21,24.877509 C 21,25.584963 20.753141,26 20,26 H 10.332268 C 9.5791295,26 9,25.584963 9,24.877509 V 13 h 4 v 2 l -2,2.4 V 21 h 5 V 17.4 L 14,15 v -2 h 7 z M 22.007569,17 h 1.03788 c 0.550612,0 0.957074,0 0.957074,1 v 3 c 0,1 -0.447037,1 -0.957077,1 h -1.037877 z m 0,7 v 0 0 0 -1 h 1.037956 C 25,23 25,21.974887 25,21.295629 V 17.661431 C 25,17 25,16 23.045525,16 h -1.037956 v -1 0 0 0 z"
       id="path70"
       style="fill:#e5e9ef;fill-opacity:1;stroke-width:0.052139"
       sodipodi:nodetypes="cccccssssccccccccccccccsscccccccccccccsccccccccccsscscccccc"
       class="ColorScheme-Text" />
    <path
       d="M 10,4.4516126 V 10.548386 C 10,10.797678 10.224,11 10.5,11 10.775999,11 11,10.797678 11,10.548386 V 4.4516126 C 11,4.202322 10.775999,4 10.5,4 10.224,4 10,4.202322 10,4.4516126 Z"
       id="path2655"
       style="fill:#e5e9ef;fill-opacity:1;stroke-width:0.237596" />
    <path
       d="M 19,4.4516126 V 10.548386 C 19,10.797678 19.224,11 19.5,11 19.775999,11 20,10.797678 20,10.548386 V 4.4516126 C 20,4.202322 19.775999,4 19.5,4 19.224,4 19,4.202322 19,4.4516126 Z"
       id="path2655-3"
       style="fill:#e5e9ef;fill-opacity:1;stroke-width:0.237596" />
    <path
       d="M 13,4.4516126 V 10.548386 C 13,10.797678 13.224,11 13.5,11 13.775999,11 14,10.797678 14,10.548386 V 4.4516126 C 14,4.202322 13.775999,4 13.5,4 13.224,4 13,4.202322 13,4.4516126 Z"
       id="path2655-3-6"
       style="fill:#e5e9ef;fill-opacity:1;stroke-width:0.237596" />
    <path
       d="M 16,4.4516126 V 10.548386 C 16,10.797678 16.224,11 16.5,11 16.775999,11 17,10.797678 17,10.548386 V 4.4516126 C 17,4.202322 16.775999,4 16.5,4 16.224,4 16,4.202322 16,4.4516126 Z"
       id="path2655-3-6-7"
       style="fill:#e5e9ef;fill-opacity:1;stroke-width:0.237596" />
    <path
       d="M 22.185482,27 H 7.8145174 C 7.2269004,27 7,27.224 7,27.5 7,27.775999 7.2269004,28 7.8145184,28 h 8.0375886 6.333375 C 22.773096,28 23,27.775999 23,27.5 23,27.224 22.773096,27 22.185482,27 Z"
       id="path2655-5"
       style="fill:#e5e9ef;fill-opacity:1;stroke-width:0.364781"
       sodipodi:nodetypes="sssscsss" />
  </g>
  <g
     id="22-22-kteatime">
    <rect
       style="opacity:0.00100002"
       width="22"
       height="22"
       x="32"
       y="10"
       id="rect341" />
    <path
       d="m 47.005046,20.183381 v 0 H 47 V 19 c 0,-1 0,-1 -1,-1 H 37.96666 C 37,18 37,18 37,19 v 8 c 0,0 0,1 1,1 h 8 c 1,0 1,-1 1,-1 v 0 l 0.005,-0.666662 v 0 0 -6 0 z M 46,26 c 0,1 0,1 -1,1 h -6 c -1,0 -1,0 -1,-1 v -7 h 3 v 1.333334 L 40,22 v 2 c 0,1 0,1 0.964802,1 H 42 c 1,0 1,0 1,-1 V 22 L 42,20.333334 V 19 h 4 z m 1,-4 h 0.696966 C 48.064041,22 48,22.333334 48,23 v 1 c 0,0.666667 0.03699,1.000004 -0.303036,1.000004 H 47 Z m 0.005,4.333334 v 0 0 H 47 V 26 h 0.697017 C 49,26 49,24.983259 49,24.53042 v -2.422798 c 0,-0.440954 0,-1.107621 -1.302983,-1.107621 L 47,21 47.005,20.333334 v 0 0 0 z"
       id="path70-3"
       style="color:#d6dbf1;fill:#e5e9ef;fill-opacity:1;stroke-width:0.0347593"
       sodipodi:nodetypes="ccccccccsscccccccccccccccccsccccccccccccccscsccccccccccss"
       class="ColorScheme-Text" />
    <path
       d="m 38,13.340426 v 3.319148 C 38,16.914894 38.315895,17 38.499833,17 38.683772,17 39.000026,16.914894 39,16.659574 l -3.33e-4,-3.319148 C 38.999641,13.085106 38.683772,13 38.499833,13 38.315895,13 38,13.085106 38,13.340426 Z"
       id="path2655-6"
       style="fill:#e5e9ef;fill-opacity:1;stroke-width:0.146101"
       sodipodi:nodetypes="sssssss" />
    <path
       d="M 46.940017,28 H 37.059983 C 36.655993,28 36.5,28.223998 36.5,28.500001 c 0,0.275998 0.155993,0.5 0.559984,0.5 h 5.525843 4.35419 c 0.403987,0 0.559983,-0.224002 0.559983,-0.5 C 47.5,28.223998 47.344004,27.999999 46.940017,28 Z"
       id="path2655-5-5"
       style="fill:#e5e9ef;fill-opacity:1;stroke-width:0.30246"
       sodipodi:nodetypes="sssscsss" />
    <path
       d="m 41.5,13.340426 v 3.319148 C 41.5,16.914894 41.816,17 42,17 c 0.184,0 0.500359,-0.08511 0.500334,-0.340426 L 42.5,13.340426 C 42.499974,13.085106 42.184,13 42,13 c -0.184,0 -0.5,0.08511 -0.5,0.340426 z"
       id="path2655-6-6"
       style="fill:#e5e9ef;fill-opacity:1;stroke-width:0.146126"
       sodipodi:nodetypes="sssssss" />
    <path
       d="m 44.999834,13.248936 v 3.402128 c 0,0.261702 0.316,0.348936 0.5,0.348936 0.184,0 0.500359,-0.08723 0.500333,-0.348936 l -3.33e-4,-3.402128 c -2.6e-5,-0.261702 -0.316,-0.348936 -0.5,-0.348936 -0.184,0 -0.5,0.08723 -0.5,0.348936 z"
       id="path2655-6-2"
       style="fill:#e5e9ef;fill-opacity:1;stroke-width:0.147941"
       sodipodi:nodetypes="sssssss" />
  </g>
</svg>
