<?xml version="1.0" encoding="UTF-8" standalone="no"?>
<svg
   version="1.1"
   viewBox="0 0 32 32"
   id="svg895"
   sodipodi:docname="list.svg"
   inkscape:version="1.2.1 (9c6d41e410, 2022-07-14)"
   width="32"
   height="32"
   xmlns:inkscape="http://www.inkscape.org/namespaces/inkscape"
   xmlns:sodipodi="http://sodipodi.sourceforge.net/DTD/sodipodi-0.dtd"
   xmlns="http://www.w3.org/2000/svg"
   xmlns:svg="http://www.w3.org/2000/svg">
  <sodipodi:namedview
     id="namedview897"
     pagecolor="#000000"
     bordercolor="#ff0909"
     borderopacity="1"
     inkscape:showpageshadow="false"
     inkscape:pageopacity="0"
     inkscape:pagecheckerboard="true"
     inkscape:deskcolor="#000000"
     showgrid="true"
     inkscape:zoom="10.727273"
     inkscape:cx="30.063559"
     inkscape:cy="19.902542"
     inkscape:window-width="1920"
     inkscape:window-height="1004"
     inkscape:window-x="0"
     inkscape:window-y="0"
     inkscape:window-maximized="1"
     inkscape:current-layer="svg895"
     inkscape:lockguides="false">
    <inkscape:grid
       type="xygrid"
       id="grid4380"
       originx="0"
       originy="0" />
  </sodipodi:namedview>
  <defs
     id="rounded">
    <style
       type="text/css"
       id="current-color-scheme">
.ColorScheme-Text { 
    color:#d1d5e9;
}
.ColorScheme-NegativeText { color:#da4453; }
.ColorScheme-Highlight { color:#d1d5e9; }
.ColorScheme-Background { color:#31363b; }
.ColorScheme-ButtonBackground { color:#444c53; }
</style>
  </defs>
  <g
     id="list-add">
    <rect
       id="rect36"
       style="opacity:0.00100002;fill:#d1d5e9;fill-opacity:1"
       y="0"
       x="0"
       height="32"
       width="32" />
    <path
       d="m 18,18 h 8.289345 c 0.946808,-0.0023 1.712742,-1.079117 1.71068,-2.025893 C 27.998025,15.027285 27.228872,13.997932 26.28205,14 H 18 V 5.7105942 C 17.9979,4.7637872 16.920967,3.9979362 15.974144,4.0000042 15.027378,4.0023042 13.997982,4.7712882 14,5.7180832 V 14 H 5.7105951 c -0.946793,0.0023 -1.712635,1.07916 -1.710591,2.025916 0.0023,0.946777 0.77122,1.976109 1.717996,1.974084 H 14 v 8.289429 c 0.0023,0.946779 1.079096,1.712597 2.025876,1.710567 0.946774,-0.002 1.976167,-0.7712 1.974124,-1.717992 z"
       style="fill:#e5e9ef;fill-opacity:1;fill-rule:evenodd;stroke:none;stroke-width:1.14286"
       id="path2830"
       sodipodi:nodetypes="ccccccccccccccccc" />
  </g>
  <g
     id="list-remove"
     transform="translate(32)">
    <rect
       id="rect36-7"
       style="opacity:0.00100002;fill:#d1d5e9;fill-opacity:1"
       y="0"
       x="0"
       height="32"
       width="32" />
    <path
       d="m 18,18 h 8.289345 c 0.946808,-0.0023 1.712742,-1.079117 1.71068,-2.025893 C 27.998025,15.027285 27.228872,13.997932 26.28205,14 H 18 v 0 h -2 -2 v 0 H 5.710595 C 4.763802,14.0023 3.99796,15.07916 4.000004,16.025916 4.002304,16.972693 4.771224,18.002025 5.718,18 H 14 v 0 h 2 z"
       style="fill:#e5e9ef;fill-opacity:1;fill-rule:evenodd;stroke:none;stroke-width:1.14286"
       id="path2830-6"
       sodipodi:nodetypes="ccccccccccccccccc" />
  </g>
</svg>
