<?xml version="1.0" encoding="UTF-8" standalone="no"?>
<svg
   width="32"
   height="32"
   viewBox="0 0 8.4666662 8.4666666"
   version="1.1"
   id="svg830"
   inkscape:version="1.2.1 (9c6d41e410, 2022-07-14)"
   sodipodi:docname="notifications.svg"
   xmlns:inkscape="http://www.inkscape.org/namespaces/inkscape"
   xmlns:sodipodi="http://sodipodi.sourceforge.net/DTD/sodipodi-0.dtd"
   xmlns="http://www.w3.org/2000/svg"
   xmlns:svg="http://www.w3.org/2000/svg"
   xmlns:rdf="http://www.w3.org/1999/02/22-rdf-syntax-ns#"
   xmlns:cc="http://creativecommons.org/ns#"
   xmlns:dc="http://purl.org/dc/elements/1.1/">
  <defs
     id="defs824" />
  <sodipodi:namedview
     id="base"
     pagecolor="#000000"
     bordercolor="#ff0707"
     borderopacity="1"
     inkscape:pageopacity="0"
     inkscape:pageshadow="2"
     inkscape:zoom="7.9999999"
     inkscape:cx="31.9375"
     inkscape:cy="4.75"
     inkscape:document-units="px"
     inkscape:current-layer="layer1"
     showgrid="true"
     units="px"
     inkscape:snap-intersection-paths="true"
     inkscape:object-paths="true"
     inkscape:snap-smooth-nodes="true"
     inkscape:object-nodes="true"
     inkscape:window-width="1920"
     inkscape:window-height="1004"
     inkscape:window-x="0"
     inkscape:window-y="0"
     inkscape:window-maximized="1"
     inkscape:snap-global="true"
     showguides="true"
     inkscape:document-rotation="0"
     inkscape:lockguides="false"
     inkscape:showpageshadow="false"
     inkscape:pagecheckerboard="true"
     inkscape:deskcolor="#000000">
    <inkscape:grid
       type="xygrid"
       id="grid375" />
  </sodipodi:namedview>
  <metadata
     id="metadata827">
    <rdf:RDF>
      <cc:Work
         rdf:about="">
        <dc:format>image/svg+xml</dc:format>
        <dc:type
           rdf:resource="http://purl.org/dc/dcmitype/StillImage" />
      </cc:Work>
    </rdf:RDF>
  </metadata>
  <style
     type="text/css"
     id="current-color-scheme">.ColorScheme-Text { color:#d1d5e9; }
</style>
  <g
     inkscape:label="Layer 1"
     inkscape:groupmode="layer"
     id="layer1"
     transform="translate(-2.1268741,-282.82065)">
    <g
       id="22-22-notifications"
       transform="translate(14.022916,-11.641674)">
      <rect
         ry="1.2988282e-06"
         y="297.10815"
         x="0.01020753"
         height="5.8208332"
         width="5.8208332"
         id="rect1383-2"
         style="opacity:0.003;fill:#fcfcfc;fill-opacity:1;stroke:none;stroke-width:0.10795;stroke-miterlimit:4;stroke-dasharray:none;stroke-opacity:1" />
      <path
         d="m 4.617714,300.85253 c -0.08427,-0.0838 -0.195505,-0.13657 -0.314922,-0.14935 v -1.11147 c 7.93e-4,-0.35921 -0.144974,-0.70383 -0.404895,-0.95724 -0.152635,-0.14576 -0.336082,-0.2569 -0.537416,-0.32561 v -0.0149 c 0.0027,-0.22724 -0.171649,-0.41915 -0.402371,-0.44313 -0.257061,-0.0232 -0.478628,0.17556 -0.477395,0.42842 v 0.0294 c -0.56193,0.18613 -0.940703,0.70181 -0.942266,1.28285 v 1.11148 c -0.267944,0.0301 -0.470149,0.2524 -0.469908,0.51658 v 0.12974 c 1.4e-4,0.28659 0.237299,0.51051 0.52987,0.51065 l 0.8973,0.004 c 0.08215,0.46759 0.767665,0.46759 0.849813,0 l 0.897271,-0.004 c 0.292597,-1.4e-4 0.52973,-0.22406 0.529904,-0.51065 v -0.12973 c 7.94e-4,-0.1378 -0.05515,-0.27011 -0.154985,-0.36723 z m -0.09496,0.49697 c 2.3e-4,0.15155 -0.125217,0.24153 -0.279958,0.24126 H 1.598412 c -0.154709,2.7e-4 -0.280217,-0.0897 -0.279942,-0.24126 v -0.12976 c -2.3e-4,-0.15155 0.125238,-0.27446 0.279942,-0.27418 0.105797,-2.6e-4 0.191085,-0.0849 0.189971,-0.18852 l 9e-5,-1.16533 c 0.0024,-0.48997 0.33079,-0.92106 0.809689,-1.06251 0.07919,-0.022 0.133484,-0.0932 0.1325,-0.17383 v -0.0759 c -5.29e-4,-0.0524 0.02228,-0.1025 0.06249,-0.13709 0.03458,-0.0316 0.08016,-0.0491 0.127463,-0.049 h 0.01757 c 0.10111,0.0144 0.175193,0.10071 0.172492,0.20075 v 0.0612 c -0.0011,0.0806 0.0533,0.15184 0.132453,0.17383 0.179771,0.054 0.343551,0.14974 0.477372,0.27909 0.213921,0.2067 0.333724,0.4891 0.332451,0.78342 v 1.16533 c 6.1e-5,0.0501 0.01971,0.0983 0.05497,0.13465 0.0361,0.0345 0.08452,0.0539 0.13498,0.0539 0.154207,7.9e-4 0.278974,0.12314 0.2799081,0.27418 z"
         id="path539-5"
         style="fill:#e5e9ef;fill-opacity:1;stroke-width:0.247363"
         sodipodi:nodetypes="ccccccccccccccccccccccccccccccccccccccccccccc" />
    </g>
    <g
       id="notifications-disabled"
       transform="translate(0.01020734,-0.14399771)">
      <rect
         ry="1.2988289e-06"
         y="274.2334"
         x="2.1166668"
         height="8.4666662"
         width="8.4666662"
         id="rect891-7-2"
         style="opacity:0.003;fill:#050505;fill-opacity:1;stroke:none;stroke-width:0.10795;stroke-miterlimit:4;stroke-dasharray:none;stroke-opacity:1" />
      <path
         d="m 5.4678739,276.02525 c -0.212475,0.10898 -0.02939,0.40814 0.186052,0.31373 0.189401,-0.0824 0.397412,-0.10423 0.414897,-0.34496 0.01039,-0.14887 0.0052,-0.29412 0.177127,-0.36058 a 0.28875476,0.28178058 0 0 1 0.38513,0.25781 c 0.01788,0.16741 0.01307,0.29813 0.20391,0.37184 a 1.7902051,1.7469671 0 0 1 1.046367,0.88311 2.0949605,2.0443617 0 0 1 0.154052,0.89582 v 0.73349 a 0.1860541,0.1815604 0 0 0 0.372108,0 c 0,-0.59769 0.06884,-1.23242 -0.19387,-1.78981 a 2.0622151,2.0124073 0 0 0 -1.123389,-1.01964 c -0.01262,-0.004 -0.05767,-0.0251 -0.08447,-0.0334 0,-0.007 0,-0.016 0,-0.0214 a 0.74756227,0.72950668 0 0 0 -0.09564,-0.34315 0.64709346,0.63146448 0 0 0 -1.15353,0.0625 0.74123645,0.72333367 0 0 0 -0.05693,0.28759 c 0,0.004 0,0.0119 0,0.0188 -0.0028,7.9e-4 -0.163356,0.0545 -0.231821,0.0882 z"
         id="path2"
         style="fill:#e5e9ef;fill-opacity:1;stroke-width:0.367585" />
      <path
         d="m 3.5872439,275.53867 c -0.171169,-0.16703 -0.435362,0.0907 -0.264193,0.25418 0.394434,0.38491 0.788864,0.77345 1.183297,1.15836 a 2.0596103,2.0098653 0 0 0 -0.212098,0.886 v 1.64857 a 0.78961033,0.77053917 0 0 0 -0.699561,0.76617 v 0.19246 a 0.78923821,0.77017607 0 0 0 0.788864,0.76981 h 1.335864 a 0.64188397,0.62638081 0 0 0 1.265163,0 h 1.335865 a 0.78886612,0.76981295 0 0 0 0.427921,-0.12339 l 0.368387,0.35948 a 0.18681458,0.18230253 0 0 0 0.264193,-0.25781 z m 4.885764,5.28338 a 0.42792264,0.41758721 0 0 1 -0.152563,0.0291 h -3.936892 a 0.41601526,0.40596741 0 0 1 -0.416757,-0.40669 V 280.252 a 0.41601526,0.40596741 0 0 1 0.416757,-0.40669 0.28354527,0.27669692 0 0 0 0.282804,-0.2796 v -1.72845 a 1.6279666,1.5886469 0 0 1 0.122798,-0.61004 z"
         id="path4"
         style="fill:#e5e9ef;fill-opacity:1;stroke-width:0.367585" />
    </g>
    <g
       id="notifications"
       transform="translate(0.01020757,0.10815655)">
      <rect
         ry="1.2988289e-06"
         y="282.71249"
         x="2.1166666"
         height="8.4666662"
         width="8.4666662"
         id="rect891-7"
         style="opacity:0.003;fill:#fcfcfc;fill-opacity:1;stroke:none;stroke-width:0.10795;stroke-miterlimit:4;stroke-dasharray:none;stroke-opacity:1" />
      <path
         d="m 8.8815097,288.17766 c -0.125128,-0.12443 -0.290293,-0.20278 -0.467608,-0.22176 v -1.65035 c 0.0012,-0.53337 -0.215263,-1.04508 -0.601204,-1.42135 -0.226638,-0.21643 -0.499027,-0.38145 -0.797975,-0.48348 v -0.0221 c 0.004,-0.33741 -0.254871,-0.62237 -0.597456,-0.65798 -0.381694,-0.0344 -0.710685,0.26068 -0.708854,0.63614 v 0.0437 c -0.834375,0.27638 -1.396792,1.04208 -1.399113,1.90483 v 1.65036 c -0.397853,0.0447 -0.698095,0.37478 -0.697737,0.76704 v 0.19264 c 2.08e-4,0.42554 0.352351,0.75803 0.786771,0.75824 l 1.332345,0.006 c 0.12198,0.69429 1.139858,0.69429 1.261835,0 l 1.332302,-0.006 c 0.434459,-2.1e-4 0.786563,-0.3327 0.786821,-0.75824 v -0.19262 c 0.0012,-0.20461 -0.08189,-0.40107 -0.230127,-0.54528 z m -0.141,0.73792 c 3.41e-4,0.22503 -0.185927,0.35863 -0.415693,0.35823 h -3.926481 c -0.229718,4e-4 -0.416077,-0.13319 -0.415669,-0.35823 v -0.19267 c -3.41e-4,-0.22503 0.185958,-0.40753 0.415669,-0.40711 0.157091,-3.9e-4 0.28373,-0.12607 0.282076,-0.27993 l 1.33e-4,-1.73032 c 0.0036,-0.72753 0.49117,-1.36763 1.202257,-1.57766 0.117585,-0.0327 0.198202,-0.13838 0.196741,-0.25811 v -0.1127 c -7.85e-4,-0.0778 0.03308,-0.15219 0.09279,-0.20355 0.05135,-0.0469 0.119025,-0.0729 0.189262,-0.0728 h 0.02609 c 0.150132,0.0214 0.260134,0.14954 0.256123,0.29808 v 0.0909 c -0.0016,0.11968 0.07914,0.22546 0.196671,0.25811 0.266931,0.0802 0.510118,0.22234 0.70882,0.41441 0.317638,0.30691 0.495526,0.72623 0.493636,1.16325 v 1.73033 c 9.1e-5,0.0744 0.02927,0.14595 0.08162,0.19993 0.0536,0.0512 0.125498,0.08 0.200423,0.08 0.228973,10e-4 0.414231,0.18284 0.415618,0.40711 z"
         id="path539"
         style="fill:#e5e9ef;fill-opacity:1;stroke-width:0.367294"
         sodipodi:nodetypes="ccccccccccccccccccccccccccccccccccccccccccccc" />
    </g>
    <g
       id="22-22-notifications-disabled"
       transform="translate(14.033124,-14.443935)">
      <rect
         ry="1.2988282e-06"
         y="291.17917"
         x="2.0799481e-08"
         height="5.8208332"
         width="5.8208332"
         id="rect1383"
         style="opacity:0.003;fill:#ff1f1f;fill-opacity:1;stroke:none;stroke-width:0.10795;stroke-miterlimit:4;stroke-dasharray:none;stroke-opacity:1" />
      <path
         d="m 2.3152368,292.42749 c -0.143094,0.0734 -0.01979,0.27487 0.125299,0.21129 0.127555,-0.0555 0.267642,-0.0702 0.279418,-0.23232 0.007,-0.10026 0.0035,-0.19808 0.119288,-0.24284 a 0.19446557,0.18976872 0 0 1 0.259371,0.17363 c 0.01204,0.11274 0.0088,0.20078 0.137326,0.25042 a 1.2056364,1.1765172 0 0 1 0.704689,0.59474 1.4108778,1.3768014 0 0 1 0.103748,0.6033 v 0.49398 a 0.1253005,0.12227416 0 0 0 0.250601,0 c 0,-0.40252 0.04636,-0.82999 -0.130564,-1.20537 a 1.388825,1.3552813 0 0 0 -0.756561,-0.68669 c -0.0085,-0.003 -0.03884,-0.0169 -0.05689,-0.0225 0,-0.005 0,-0.0108 0,-0.0144 a 0.50345533,0.49129556 0 0 0 -0.0644,-0.2311 0.43579333,0.42526779 0 0 0 -0.776859,0.0421 0.49919512,0.48713827 0 0 0 -0.03834,0.19368 c 0,0.003 0,0.008 0,0.0127 -0.0019,5.3e-4 -0.110014,0.0367 -0.156123,0.0594 z"
         id="path2-6"
         style="fill:#e5e9ef;fill-opacity:1;stroke-width:0.247555" />
      <path
         d="m 1.0487028,292.0998 c -0.11527599,-0.11249 -0.29319999,0.0611 -0.17792399,0.17118 0.26563599,0.25922 0.53126999,0.52089 0.79690599,0.78011 a 1.3870708,1.3535694 0 0 0 -0.14284,0.59669 v 1.11025 a 0.53177313,0.51892941 0 0 0 -0.471128,0.51599 v 0.12961 a 0.53152252,0.51868488 0 0 0 0.53127,0.51844 h 0.899655 a 0.43228493,0.42184413 0 0 0 0.85204,0 h 0.899655 a 0.53127193,0.51844033 0 0 0 0.288189,-0.0831 l 0.248095,0.2421 a 0.12581266,0.12277396 0 0 0 0.177924,-0.17363 z m 3.29038,3.55816 a 0.28818995,0.28122942 0 0 1 -0.102746,0.0196 h -2.65135 a 0.28017077,0.27340392 0 0 1 -0.28067,-0.27389 v -0.12961 a 0.28017077,0.27340392 0 0 1 0.28067,-0.27389 0.19095717,0.18634506 0 0 0 0.190458,-0.1883 v -1.16405 a 1.0963748,1.0698945 0 0 1 0.0827,-0.41084 z"
         id="path4-7"
         style="fill:#e5e9ef;fill-opacity:1;stroke-width:0.247555" />
    </g>
  </g>
</svg>
