<?xml version="1.0" encoding="UTF-8" standalone="no"?>
<svg
   viewBox="0 0 32 32"
   id="svg2"
   version="1.1"
   sodipodi:docname="start.svg"
   inkscape:version="1.2.1 (9c6d41e410, 2022-07-14)"
   width="32"
   height="32"
   xmlns:inkscape="http://www.inkscape.org/namespaces/inkscape"
   xmlns:sodipodi="http://sodipodi.sourceforge.net/DTD/sodipodi-0.dtd"
   xmlns:xlink="http://www.w3.org/1999/xlink"
   xmlns="http://www.w3.org/2000/svg"
   xmlns:svg="http://www.w3.org/2000/svg"
   xmlns:rdf="http://www.w3.org/1999/02/22-rdf-syntax-ns#"
   xmlns:cc="http://creativecommons.org/ns#"
   xmlns:dc="http://purl.org/dc/elements/1.1/">
  <g
     id="22-22-start-here-kde"
     transform="translate(-22,10)">
    <rect
       style="fill:none;fill-opacity:1;stroke:none"
       id="rect4150"
       width="22"
       height="22"
       x="0"
       y="0" />
    <path
       d="M 6.8857099,3.00062 C 5.9691149,4.108472 5.3672645,5.331493 4.9993539,6.642266 4.8866438,7.044456 4.8334727,7.448472 4.8866438,7.865288 c 0.053172,0.41864 0.2828429,0.755021 0.5890827,1.067631 0.5082774,0.519191 1.0931121,0.976219 1.6481664,1.453367 1.4291225,1.232164 2.8157067,2.497231 4.1959231,3.769612 0.748581,0.687384 1.550339,1.332717 2.337201,1.990839 0.123354,0.102375 0.112722,0.148088 0,0.250457 -0.93786,0.839112 -1.871467,1.685544 -2.800822,2.533792 -0.09782,0.08775 -0.150987,0.09327 -0.250939,0.0087 -0.9357395,-0.782446 -1.8736041,-1.561224 -2.8157142,-2.336355 -0.076539,-0.06211 -0.0702,-0.09327 0,-0.148085 0.5508042,-0.438751 1.0994847,-0.877501 1.6460413,-1.319913 0.070206,-0.05844 0.1190953,-0.05677 0.1871471,0 0.2445722,0.195607 0.4891338,0.391227 0.7422088,0.579521 0.08718,0.06398 0.06801,0.100543 0,0.162702 l -0.5337915,0.506395 c -0.0723,0.06589 -0.076516,0.104203 0.00859,0.166364 0.2530725,0.188293 0.4997675,0.382081 0.7422015,0.577685 0.07229,0.0585 0.119088,0.07127 0.195661,-0.0041 0.295589,-0.288847 0.595464,-0.57221 0.901708,-0.851913 0.08295,-0.07493 0.06801,-0.115173 -0.0061,-0.186469 -0.41278,-0.389395 -0.835981,-0.767817 -1.26344,-1.142588 C 9.5654879,14.206299 8.7233235,13.464076 7.8301263,12.771211 6.8752113,12.029053 5.8799249,11.330703 4.8867753,10.628701 4.4465768,10.319763 4.0148653,10.007154 3.6086707,9.663463 3.451297,9.530008 3.310936,9.383755 3.1854594,9.226539 3.0280932,9.030928 2.9642924,8.822522 3.0195855,8.581209 3.4619274,6.703715 4.5167592,5.104092 6.0203171,3.71106 6.164925,3.575774 6.3180503,3.44598 6.4732908,3.318002 6.6137782,3.206582 6.7498869,3.1042 6.8859958,3 Z m 8.2493431,0.0403 c 0.187157,0.08958 0.29136,0.197436 0.408324,0.294328 1.416364,1.186458 2.481826,2.566702 3.109186,4.186429 0.142491,0.363799 0.250956,0.734911 0.333894,1.113334 0.03403,0.159048 0.0028,0.299812 -0.08083,0.438755 -0.240314,0.405842 -0.627363,0.705658 -1.020803,0.992678 -0.969757,0.711141 -1.958656,1.40035 -2.922036,2.113324 -0.79325,0.58683 -1.554595,1.204741 -2.288303,1.846415 -0.0319,0.02748 -0.06809,0.05118 -0.09352,0.08229 -0.112725,0.131626 -0.199915,0.120653 -0.32113,-0.0087 -0.199906,-0.210237 -0.423202,-0.402189 -0.642251,-0.595974 -0.07231,-0.06398 -0.07446,-0.102375 -0.0029,-0.171844 1.163289,-1.074941 2.320192,-2.155371 3.545153,-3.180954 0.4827,-0.404017 0.954823,-0.817178 1.401425,-1.252271 0.533794,-0.51919 0.663514,-1.12979 0.538047,-1.77695 -0.276469,-1.457021 -0.922971,-2.791562 -1.914008,-3.999955 -0.0108,-0.01091 -0.01703,-0.02559 -0.05109,-0.08048 z m -1.856575,7.751288 c -0.0092,-0.557579 -0.06584,-1.076767 -0.667773,-1.404005 1.81617,-0.762332 2.715749,-2.120637 3.317603,-3.712945 0.431711,1.131618 0.546555,2.190108 -0.427464,3.149881 -0.684788,0.672751 -1.424861,1.299804 -2.152192,1.93782 -0.01275,0.0087 -0.03189,0.0109 -0.07025,0.02926 z M 9.3951782,9.386366 C 8.7912035,9.72457 8.7359105,10.245588 8.7146466,10.814136 8.6061829,10.717266 8.5274937,10.644125 8.4445522,10.574653 7.8490854,10.053638 7.2557519,9.528961 6.6709195,8.995143 5.7713356,8.177968 5.571425,7.240134 5.9031867,6.185301 c 0.04896,-0.14991 0.097824,-0.301641 0.1488675,-0.451547 0.00218,-0.008 0.019155,-0.0128 0.038311,-0.0275 C 6.6858335,7.26017 7.5705261,8.622127 9.395218,9.386289 Z M 13.157263,8.406485 c 0.142476,-0.389395 0.06583,-0.738566 -0.204169,-1.065801 -0.0553,-0.06951 -0.195651,-0.122485 -0.161625,-0.199268 0.02758,-0.0621 0.163755,-0.08772 0.250942,-0.131627 1.095232,-0.544783 1.850207,-1.318081 2.186229,-2.376577 0.0299,-0.09326 0.04459,-0.186466 0.068,-0.292498 0.114844,0.184642 0.155252,0.586831 0.10847,0.868364 -0.123353,0.749533 -0.521047,1.391212 -1.020803,1.99815 -0.353032,0.435099 -0.757097,0.835455 -1.227089,1.199257 z m -4.2895,0.0081 C 8.5530154,8.196905 8.2935599,7.942796 8.040489,7.679542 7.5258379,7.147553 7.087738,6.575353 6.8048941,5.924534 6.6007344,5.447392 6.5348094,4.95745 6.6411372,4.456545 c 0.00589,-0.02749 0.012803,-0.05308 0.023459,-0.07865 0.00589,-0.01471 0.014866,-0.02928 0.034007,-0.06398 0.057398,0.226689 0.1063263,0.438756 0.193521,0.639848 0.4083198,0.95063 1.1675414,1.630699 2.1819616,2.115152 0.1254773,0.05842 0.1680069,0.09871 0.053189,0.20292 C 8.7912612,7.586276 8.7189503,7.955561 8.8444229,8.357747 Z"
       id="path2986-3"
       style="fill:#e5e9ef;fill-opacity:1;stroke-width:0.0197169" />
  </g>
  <sodipodi:namedview
     pagecolor="#000000"
     bordercolor="#ff0d0d"
     borderopacity="1"
     objecttolerance="10"
     gridtolerance="10"
     guidetolerance="10"
     inkscape:pageopacity="0"
     inkscape:pageshadow="2"
     inkscape:window-width="1920"
     inkscape:window-height="1004"
     id="namedview17"
     showgrid="true"
     inkscape:zoom="8.2668907"
     inkscape:cx="9.3142637"
     inkscape:cy="20.32203"
     inkscape:window-x="0"
     inkscape:window-y="0"
     inkscape:window-maximized="1"
     inkscape:current-layer="svg2"
     inkscape:lockguides="false"
     inkscape:document-rotation="0"
     inkscape:showpageshadow="false"
     inkscape:pagecheckerboard="true"
     inkscape:deskcolor="#000000">
    <inkscape:grid
       type="xygrid"
       id="grid7212"
       originx="0"
       originy="0" />
  </sodipodi:namedview>
  <metadata
     id="metadata21">
    <rdf:RDF>
      <cc:Work
         rdf:about="">
        <dc:format>image/svg+xml</dc:format>
        <dc:type
           rdf:resource="http://purl.org/dc/dcmitype/StillImage" />
      </cc:Work>
    </rdf:RDF>
  </metadata>
  <defs
     id="defs3051">
    <linearGradient
       inkscape:collect="always"
       id="linearGradient1006">
      <stop
         style="stop-color:#ffb380;stop-opacity:1"
         offset="0"
         id="stop1002" />
      <stop
         style="stop-color:#8d5fd3;stop-opacity:1"
         offset="1"
         id="stop1004" />
    </linearGradient>
    <style
       type="text/css"
       id="current-color-scheme">.ColorScheme-Text { color:#d1d5e9; }
</style>
    <linearGradient
       id="SVGID_1_"
       gradientUnits="userSpaceOnUse"
       x1="24.837999"
       y1="33.653999"
       x2="46.732201"
       y2="55.548199"
       gradientTransform="matrix(-0.50875877,-0.02233493,0.01976045,-0.57504283,30.440488,35.519205)">
      <stop
         offset="0.3526203"
         style="stop-color:#ffb380;stop-opacity:1"
         id="stop14" />
      <stop
         offset="0.69762725"
         style="stop-color:#9b73d9;stop-opacity:1;"
         id="stop16" />
    </linearGradient>
    <linearGradient
       id="SVGID_2_"
       gradientUnits="userSpaceOnUse"
       x1="24.858801"
       y1="30.3876"
       x2="46.752998"
       y2="8.4933004"
       gradientTransform="matrix(-0.50875877,-0.02215881,0.01976045,-0.57050766,31.232425,35.265332)">
      <stop
         offset="0.3707"
         style="stop-color:#16B8C3"
         id="stop23" />
      <stop
         offset="0.7422"
         style="stop-color:#02AEF0"
         id="stop25" />
    </linearGradient>
    <linearGradient
       id="SVGID_1_-3"
       gradientUnits="userSpaceOnUse"
       x1="24.837999"
       y1="33.653999"
       x2="46.732201"
       y2="55.548199"
       gradientTransform="matrix(-0.5489099,-5.5912523e-4,5.3755e-4,-0.5709411,32.471901,34.296725)"
       xlink:href="#linearGradient1006">
      <stop
         offset="0.3569"
         style="stop-color:#EF6B2E"
         id="stop822" />
      <stop
         offset="0.6328"
         style="stop-color:#F19F00"
         id="stop824" />
    </linearGradient>
    <linearGradient
       id="SVGID_2_-6"
       gradientUnits="userSpaceOnUse"
       x1="24.858801"
       y1="30.3876"
       x2="46.752998"
       y2="8.4933004"
       gradientTransform="matrix(-0.5489099,-5.5912523e-4,5.3755e-4,-0.5709411,32.471901,34.296725)">
      <stop
         offset="0.3707"
         style="stop-color:#16B8C3"
         id="stop831" />
      <stop
         offset="0.7422"
         style="stop-color:#02AEF0"
         id="stop833" />
    </linearGradient>
    <linearGradient
       x1="228.56065"
       y1="513.91937"
       x2="6.9549112"
       y2="297.3703"
       id="linearGradient-1"
       gradientTransform="matrix(0.15900059,0,0,0.05527692,4,4)"
       gradientUnits="userSpaceOnUse">
      <stop
         stop-color="#FFFFFF"
         offset="0%"
         id="stop23729" />
      <stop
         stop-color="#C2C1C1"
         offset="100%"
         id="stop23731" />
    </linearGradient>
    <linearGradient
       x1="248.06367"
       y1="379.78503"
       x2="13.891082"
       y2="128.40623"
       id="linearGradient-2"
       gradientTransform="matrix(0.1801145,0,0,0.04879708,4,4)"
       gradientUnits="userSpaceOnUse">
      <stop
         stop-color="#FFFFFF"
         offset="0"
         id="stop23734"
         style="stop-color:#ffffff;stop-opacity:1;" />
      <stop
         stop-color="#A2A2A1"
         offset="100%"
         id="stop23736" />
    </linearGradient>
    <linearGradient
       x1="298.10486"
       y1="617.22443"
       x2="15.596461"
       y2="250.06602"
       id="linearGradient-3"
       gradientTransform="matrix(0.183055,0,0,0.04801323,4,4)"
       gradientUnits="userSpaceOnUse">
      <stop
         stop-color="#FFFFFF"
         offset="0%"
         id="stop23739" />
      <stop
         stop-color="#B3B3B3"
         offset="100%"
         id="stop23741" />
    </linearGradient>
  </defs>
  <g
     id="start-here-kde">
    <rect
       style="fill:none;fill-rule:evenodd;stroke:none;stroke-width:1px;stroke-linecap:butt;stroke-linejoin:miter;stroke-opacity:1"
       id="rect3343"
       width="32"
       height="32"
       x="0"
       y="0" />
    <path
       d="m 10.342468,4.0000164 c -1.2603557,1.661827 -2.0879247,3.496418 -2.5938157,5.462639 -0.154982,0.6033026 -0.228094,1.2093476 -0.154982,1.8345896 0.07312,0.627984 0.38892,1.132565 0.810012,1.601497 0.698903,0.77881 1.503074,1.464382 2.2662967,2.180119 1.965102,1.848303 3.871716,3.745967 5.769561,5.6546 1.029337,1.0311 2.131788,1.999129 3.213752,2.986353 0.169619,0.153568 0.154996,0.222125 0,0.375694 -1.289594,1.25871 -2.573342,2.52839 -3.851239,3.800812 -0.134523,0.13163 -0.207619,0.139856 -0.345062,0.01371 -1.286677,-1.173699 -2.576276,-2.341914 -3.871717,-3.504645 -0.105254,-0.09324 -0.09652,-0.139857 0,-0.222125 0.757379,-0.65815 1.511837,-1.316299 2.263375,-1.979933 0.09652,-0.08775 0.163758,-0.08501 0.257333,0 0.336297,0.293425 0.672581,0.58685 1.020566,0.869306 0.119899,0.09598 0.09355,0.150826 0,0.244064 l -0.733984,0.759614 c -0.09936,0.09872 -0.105254,0.15631 0.01168,0.249548 0.347984,0.282456 0.687195,0.573138 1.02056,0.866563 0.09936,0.08775 0.163756,0.106949 0.26904,-0.0055 0.406462,-0.433281 0.818791,-0.858336 1.239886,-1.277906 0.114042,-0.112434 0.09353,-0.172764 -0.008,-0.279714 -0.567315,-0.584107 -1.149235,-1.151761 -1.737011,-1.713931 -1.160928,-1.105142 -2.31894,-2.218512 -3.547125,-3.257839 -1.312985,-1.113369 -2.6815447,-2.160923 -4.0471657,-3.213962 -0.605326,-0.463447 -1.198947,-0.932378 -1.757481,-1.447929 -0.216396,-0.200187 -0.409396,-0.41957 -0.581932,-0.655407 -0.216385,-0.293425 -0.304115,-0.606046 -0.228085,-0.968028 0.608239,-2.8163286 2.058676,-5.2158316 4.126129,-7.3054556 0.198842,-0.202929 0.409395,-0.397632 0.622858,-0.589592 0.193,-0.167279 0.3801547,-0.320848 0.5673107,-0.477158 z m 11.343186,0.06033 c 0.257345,0.134372 0.400628,0.296168 0.561459,0.441509 1.94756,1.779745 3.412616,3.850173 4.275267,6.2798396 0.195921,0.545715 0.345063,1.1024 0.459109,1.670054 0.04681,0.238579 0.0032,0.449735 -0.111125,0.658149 -0.330443,0.608788 -0.862651,1.058523 -1.403646,1.489063 -1.333457,1.06675 -2.693231,2.100593 -4.017922,3.170086 -1.090747,0.880274 -2.137628,1.807168 -3.146502,2.769711 -0.04384,0.04113 -0.09364,0.07678 -0.128666,0.123403 -0.154992,0.197445 -0.274886,0.180991 -0.441566,-0.01371 -0.274874,-0.315364 -0.581921,-0.603304 -0.883125,-0.893986 -0.09936,-0.09598 -0.102389,-0.153569 -0.003,-0.257776 1.599568,-1.612465 3.190359,-3.233158 4.874731,-4.771582 0.663809,-0.606046 1.312997,-1.225803 1.92709,-1.878468 0.733993,-0.77881 0.912363,-1.694734 0.739837,-2.665504 -0.380156,-2.1856026 -1.269123,-4.1874736 -2.631833,-6.0001266 -0.01466,-0.01645 -0.02341,-0.03839 -0.07018,-0.120661 z M 19.132787,15.687649 c -0.01168,-0.836398 -0.09061,-1.615208 -0.91822,-2.106077 2.497312,-1.143535 3.734269,-3.181055 4.561841,-5.5695876 0.59362,1.697477 0.751537,3.2852606 -0.587771,4.7249626 -0.941621,1.009162 -1.959254,1.949767 -2.95936,2.906826 -0.01749,0.01371 -0.04384,0.01645 -0.09652,0.04388 z m -5.339698,-2.10882 c -0.830488,0.507324 -0.906521,1.288876 -0.935758,2.141728 C 12.70819,15.575216 12.599987,15.465524 12.48594,15.361317 11.667149,14.579765 10.851291,13.792728 10.047122,12.99198 8.8101583,11.766177 8.5352723,10.359382 8.9914583,8.7770834 c 0.06733,-0.224868 0.134512,-0.452478 0.204699,-0.677345 0.003,-0.01097 0.02634,-0.0192 0.05269,-0.04113 0.8187897,2.3309446 2.0352787,4.3739496 4.5442987,5.5202256 z m 5.173017,-1.469866 c 0.195919,-0.584108 0.09061,-1.107885 -0.280735,-1.598755 -0.07606,-0.104207 -0.269028,-0.183733 -0.222247,-0.298909 0.03803,-0.09324 0.225173,-0.13163 0.345062,-0.197445 1.505991,-0.8172006 2.544105,-1.9771886 3.006146,-3.5649736 0.041,-0.139857 0.06143,-0.279714 0.09353,-0.438766 0.157909,0.276971 0.213474,0.880274 0.149142,1.302587 -0.169614,1.124338 -0.716459,2.086881 -1.403645,2.9973196 -0.485432,0.652665 -1.041043,1.253226 -1.6873,1.798942 z m -5.898234,0.01097 C 12.635081,11.7936 12.278319,11.412422 11.930336,11.017533 11.22267,10.219527 10.620265,9.3611914 10.231343,8.3849374 9.9506153,7.6691994 9.8599663,6.9342664 10.00617,6.1828794 c 0.008,-0.04113 0.0176,-0.07953 0.03225,-0.117919 0.008,-0.02194 0.02043,-0.04388 0.04677,-0.09598 0.07893,0.340044 0.146205,0.65815 0.2661,0.959801 0.561456,1.42599 1.605417,2.446122 3.000287,3.1728266 0.172536,0.08775 0.231016,0.148084 0.07312,0.304394 -0.462029,0.471674 -0.561458,1.025616 -0.388928,1.62892 z"
       id="path2986"
       style="fill:#e5e9ef;fill-opacity:1;stroke-width:0.0283183" />
  </g>
</svg>
