<?xml version="1.0" encoding="UTF-8" standalone="no"?>
<svg
   width="32"
   height="32"
   version="1.1"
   id="svg12"
   sodipodi:docname="TeamViewer.svg"
   inkscape:version="1.2.1 (9c6d41e410, 2022-07-14)"
   xmlns:inkscape="http://www.inkscape.org/namespaces/inkscape"
   xmlns:sodipodi="http://sodipodi.sourceforge.net/DTD/sodipodi-0.dtd"
   xmlns="http://www.w3.org/2000/svg"
   xmlns:svg="http://www.w3.org/2000/svg"
   xmlns:rdf="http://www.w3.org/1999/02/22-rdf-syntax-ns#"
   xmlns:cc="http://creativecommons.org/ns#"
   xmlns:dc="http://purl.org/dc/elements/1.1/">
  <style
     type="text/css"
     id="current-color-scheme">.ColorScheme-Text { color:#d1d5e9; }
</style>
  <metadata
     id="metadata18">
    <rdf:RDF>
      <cc:Work
         rdf:about="">
        <dc:format>image/svg+xml</dc:format>
        <dc:type
           rdf:resource="http://purl.org/dc/dcmitype/StillImage" />
      </cc:Work>
    </rdf:RDF>
  </metadata>
  <defs
     id="defs16" />
  <sodipodi:namedview
     pagecolor="#000000"
     bordercolor="#ff0f0f"
     borderopacity="1"
     objecttolerance="10"
     gridtolerance="10"
     guidetolerance="10"
     inkscape:pageopacity="0"
     inkscape:pageshadow="2"
     inkscape:window-width="1920"
     inkscape:window-height="1004"
     id="namedview14"
     showgrid="true"
     inkscape:zoom="13.876971"
     inkscape:cx="24.464993"
     inkscape:cy="20.609685"
     inkscape:window-x="0"
     inkscape:window-y="0"
     inkscape:window-maximized="1"
     inkscape:current-layer="svg12"
     inkscape:document-rotation="0"
     inkscape:pagecheckerboard="true"
     inkscape:lockguides="false"
     inkscape:showpageshadow="false"
     inkscape:deskcolor="#000000">
    <inkscape:grid
       type="xygrid"
       id="grid861"
       originx="0"
       originy="0" />
  </sodipodi:namedview>
  <g
     id="TeamViewer">
    <rect
       style="opacity:0.00100002;fill:#d1d5e9;fill-opacity:1"
       width="32"
       height="32"
       x="0"
       y="0"
       id="rect7" />
    <path
       d="m 13,14 v 0 0 0 0 0 0 0 0 m 0,0 v 0 0 h 6 -6 m -6,2 6,-5 v 3 h 6 v -3 l 6,5 -6,5 v -3 h -6 v 3 z"
       id="path466"
       sodipodi:nodetypes="ccccccccccccccccccccccccc"
       style="overflow:hidden;fill:#e5e9ef;fill-opacity:1;stroke-width:0.0406003" />
    <path
       style="color:#d1d5e9;fill:#e5e9ef;fill-opacity:1;stroke-width:1.5"
       d="M 16,4 C 9.364,4 4,9.364 4,15.999999 4,22.636 9.364,28 16,28 22.636,28 28,22.636 28,15.999999 28,9.364 22.636,4 16,4 Z m 0,1.4999999 c 5.80498,0 10.5,4.6950001 10.5,10.4999991 C 26.5,21.80498 21.80498,26.5 16,26.5 10.19498,26.5 5.5,21.80498 5.5,15.999999 5.5,10.195 10.19498,5.4999999 16,5.4999999 Z m 1.12498,8.5784981 v 0 0 0 0 0 c 0,0 -0.05091,0.012 0,0 z m -1.171491,6.750005 z"
       id="path58"
       sodipodi:nodetypes="ssssssssssccccccccccccccccc"
       class="ColorScheme-Text" />
  </g>
  <g
     id="22-22-TeamViewer"
     transform="translate(32,10.000001)">
    <rect
       style="opacity:0.00100002;fill:#d1d5e9;fill-opacity:1"
       width="22"
       height="22"
       x="0"
       y="-4.6325681e-08"
       id="rect2" />
    <path
       sodipodi:nodetypes="cscscsssss"
       inkscape:connector-curvature="0"
       style="color:#d1d5e9;fill:#e5e9ef;fill-opacity:1;stroke:none"
       d="M 11,3 C 6.581754,2.99989 3,6.581644 3,11 3,15.418357 6.581754,19.000111 11,19.000001 15.418246,19.000111 19,15.418357 19,11 19,6.581644 15.418246,2.99989 11,3 Z m 0,1.40678 c 3.865993,0 6.59322,2.86282 6.59322,6.728814 0,3.865993 -2.727227,6.457627 -6.59322,6.457627 C 7.134007,17.593221 4.542373,14.865994 4.542373,11 4.542373,7.134007 7.134007,4.40678 11,4.40678 Z"
       class="ColorScheme-Text"
       id="path7" />
    <path
       d="m 9,9.999999 v 0 0 0 0 0 0 0 0 m 0,0 v 0 0 H 13 9 M 5.4,11 9,7.999999 v 2 h 4 v -2 L 16.65,11 13,13.999999 v -2 H 9 v 2 z"
       id="path466-3"
       sodipodi:nodetypes="ccccccccccccccccccccccccc"
       style="overflow:hidden;fill:#e5e9ef;fill-opacity:1;stroke-width:0.0253753" />
  </g>
</svg>
