<?xml version="1.0" encoding="UTF-8" standalone="no"?>
<svg
   width="32"
   height="32"
   version="1.1"
   id="svg12"
   sodipodi:docname="video.svg"
   inkscape:version="1.2.1 (9c6d41e410, 2022-07-14)"
   xmlns:inkscape="http://www.inkscape.org/namespaces/inkscape"
   xmlns:sodipodi="http://sodipodi.sourceforge.net/DTD/sodipodi-0.dtd"
   xmlns="http://www.w3.org/2000/svg"
   xmlns:svg="http://www.w3.org/2000/svg"
   xmlns:rdf="http://www.w3.org/1999/02/22-rdf-syntax-ns#"
   xmlns:cc="http://creativecommons.org/ns#"
   xmlns:dc="http://purl.org/dc/elements/1.1/">
  <style
     id="current-color-scheme"
     type="text/css">.ColorScheme-Highlight { color:#ffeeaa; }
.ColorScheme-Text { color:#d6dbf1; }
</style>
  <metadata
     id="metadata18">
    <rdf:RDF>
      <cc:Work
         rdf:about="">
        <dc:format>image/svg+xml</dc:format>
        <dc:type
           rdf:resource="http://purl.org/dc/dcmitype/StillImage" />
      </cc:Work>
    </rdf:RDF>
  </metadata>
  <defs
     id="defs16" />
  <sodipodi:namedview
     pagecolor="#000000"
     bordercolor="#f50000"
     borderopacity="1"
     objecttolerance="10"
     gridtolerance="10"
     guidetolerance="10"
     inkscape:pageopacity="0"
     inkscape:pageshadow="2"
     inkscape:window-width="1920"
     inkscape:window-height="1004"
     id="namedview14"
     showgrid="true"
     inkscape:zoom="8.0000004"
     inkscape:cx="42.937498"
     inkscape:cy="15.687499"
     inkscape:window-x="0"
     inkscape:window-y="0"
     inkscape:window-maximized="1"
     inkscape:current-layer="svg12"
     inkscape:document-rotation="0"
     inkscape:lockguides="false"
     inkscape:showpageshadow="false"
     inkscape:pagecheckerboard="true"
     inkscape:deskcolor="#000000">
    <inkscape:grid
       type="xygrid"
       id="grid2024" />
  </sodipodi:namedview>
  <g
     id="video-display-brightness">
    <rect
       style="opacity:0.00100002;fill:#d6dbf1;fill-opacity:1"
       width="32"
       height="32"
       x="0"
       y="1.3897704e-07"
       id="rect7" />
    <path
       d="M 3.8829284,4 H 28.116186 c 0.791164,0 1.511953,0.336092 2.034898,0.878845 l 0.003,0.0031 C 30.675939,5.42469 31,6.171801 31,6.992874 v 13.225738 c 0,0.822913 -0.323843,1.572138 -0.846835,2.11372 l -0.02879,0.02782 C 29.604296,22.885947 28.894024,23 28.116476,23 h -9.811224 c 0.09703,0.494733 0.334581,1.149827 0.667126,1.494929 l 0.02126,0.02389 c 0.439169,0.443009 1.039023,0.718348 1.696536,0.718348 0.265278,0 0.480507,0.223361 0.480507,0.498676 v 1.76548 c 0,0.275316 -0.215229,0.498676 -0.480507,0.498676 H 11.30692 c -0.265281,0 -0.480509,-0.22336 -0.480509,-0.498676 v -1.76553 c 0,-0.275315 0.215228,-0.498676 0.480509,-0.498676 0.668899,0 1.277493,-0.284364 1.718674,-0.742218 C 13.358152,24.149767 13.595506,23.494733 13.692723,23 H 3.8826458 C 3.0905649,23 2.3696071,22.873852 1.8468326,22.331362 1.3238613,21.790701 1,21.041506 1,20.218593 V 6.992857 C 1,6.171783 1.3238498,5.423747 1.8468326,4.881036 l 0.00299,-0.0031 C 2.3727987,4.336344 3.092696,4.000038 3.8838616,4.000038 Z M 13.692723,23 Z M 2,19 H 30 V 6.9999999 C 30,6.4502988 29.823371,5.943421 29.475386,5.583179 29.12651,5.221116 28.645776,5 28.116311,5 H 3.8830506 C 3.3533723,5 2.8728669,5.229412 2.5257469,5.590548 2.1958384,5.9329274 2.0220107,6.388229 2,6.9023903 c -0.00127,0.029561 0,0.059285 0,0.089159 z m 28,1 H 2 v 0.217182 C 2,20.764803 2.1768538,21.26371 2.525728,21.625794 2.872821,21.98786 3.3533434,22 3.8830331,22 H 28.116293 c 0.518063,0 0.990102,-0.0031 1.335162,-0.350318 l 0.02124,-0.02389 c 0.348878,-0.362067 0.56522,-0.860974 0.56522,-1.408613 z m -12,3 z"
       id="path64"
       style="fill:#e5e9ef;fill-opacity:1;stroke-width:0.058286"
       sodipodi:nodetypes="csccssccscccssssssssscscsscccccccscccccscsscsccccscssccsccccc" />
    <path
       style="color:#dfdfdf;fill:#e5e9ef;fill-opacity:1;stroke-width:0.500004"
       class="ColorScheme-Text"
       d="M 15.999681,5 13.948896,6.999996 H 10.999677 V 9.9492198 L 8.9996808,12 10.999677,14.050782 V 17 h 2.949219 l 2.050785,2 2.050785,-2 h 2.949219 V 14.050782 L 22.999681,12 20.999685,9.9492198 V 6.999996 h -2.949219 z m 0,2.999995 c 2.209125,0 4.000015,1.7908665 4.000015,4.000005 0,2.209138 -1.79089,4 -4.000015,4 -2.209125,0 -4.000005,-1.790862 -4.000005,-4 0,-2.2091385 1.79088,-4.000005 4.000005,-4.000005 z m 0,1.500004 c -1.380712,0 -2.500003,1.119289 -2.500003,2.500001 0,1.380712 1.119291,2.500001 2.500003,2.500001 z"
       id="path697" />
  </g>
  <g
     id="22-22-video-display-brightness"
     transform="translate(32,10.000003)">
    <rect
       style="opacity:0.00100002;fill:#d6dbf1;fill-opacity:1"
       width="22"
       height="22"
       x="0"
       y="-1.3897704e-07"
       id="rect2" />
    <path
       d="M 19,2.999997 H 3 c -1,0 -1,1.00667 -1,1.00667 v 11.99333 c 0,1 1,1 1,1 L 9.1610574,17 c -0.189082,0.597101 -0.633882,1.342861 -1.530457,1.342861 V 19 h 7.4054676 v -0.657139 c -0.896575,0 -1.341375,-0.74576 -1.530457,-1.342861 H 19 c 1,0 1,-0.368779 1,-1.000003 V 4 C 20,4 20,2.999997 19,2.999997 Z M 19,16 v -3e-6 H 3 v 0 V 15 l 16,-3e-6 z m 0,-2.000003 H 3 v -9 V 4 h 16 v 0.999997 z"
       id="path2-6-5-5"
       style="fill:#e5e9ef;fill-opacity:1;stroke-width:0.237525"
       sodipodi:nodetypes="sscscccccccsscscccccccccccccc"
       class="ColorScheme-Text " />
    <path
       style="color:#dfdfdf;fill:#e5e9ef;fill-opacity:1;stroke-width:0.357151"
       class="ColorScheme-Text"
       d="M 11.500001,4 10.035154,5.4285682 H 7.9285682 V 7.5351576 L 6.5,9.0000008 7.9285682,10.464846 v 2.106586 H 10.035154 L 11.500001,14 l 1.46485,-1.428568 h 2.106585 V 10.464846 L 16.5,9.0000008 15.071436,7.5351576 V 5.4285682 h -2.106585 z m 0,2.1428542 c 1.57795,0 2.85715,1.2791911 2.85715,2.8571466 0,1.5779542 -1.2792,2.8571512 -2.85715,2.8571512 -1.5779464,0 -2.8571468,-1.279197 -2.8571468,-2.8571512 0,-1.5779555 1.2792004,-2.8571466 2.8571468,-2.8571466 z m 0,1.0714311 c -0.986224,0 -1.7857164,0.7994923 -1.7857164,1.7857155 0,0.9862232 0.7994924,1.7857172 1.7857164,1.7857172 z"
       id="path697-3" />
  </g>
</svg>
