<?xml version="1.0" encoding="UTF-8" standalone="no"?>
<svg
   id="svg"
   width="22"
   height="22"
   version="1.1"
   viewBox="0 0 22 22"
   sodipodi:docname="window.svg"
   inkscape:version="1.2.1 (9c6d41e410, 2022-07-14)"
   xmlns:inkscape="http://www.inkscape.org/namespaces/inkscape"
   xmlns:sodipodi="http://sodipodi.sourceforge.net/DTD/sodipodi-0.dtd"
   xmlns="http://www.w3.org/2000/svg"
   xmlns:svg="http://www.w3.org/2000/svg"
   xmlns:rdf="http://www.w3.org/1999/02/22-rdf-syntax-ns#"
   xmlns:cc="http://creativecommons.org/ns#"
   xmlns:dc="http://purl.org/dc/elements/1.1/">
  <style
     id="current-color-scheme"
     type="text/css">.ColorScheme-Highlight { color:#7580bc; }
.ColorScheme-Text { color:#e5e9ef; }
</style>
  <metadata
     id="metadata60">
    <rdf:RDF>
      <cc:Work
         rdf:about="">
        <dc:format>image/svg+xml</dc:format>
        <dc:type
           rdf:resource="http://purl.org/dc/dcmitype/StillImage" />
      </cc:Work>
    </rdf:RDF>
  </metadata>
  <sodipodi:namedview
     pagecolor="#000000"
     bordercolor="#ff2020"
     borderopacity="1"
     objecttolerance="10"
     gridtolerance="10"
     guidetolerance="10"
     inkscape:pageopacity="0"
     inkscape:pageshadow="2"
     inkscape:window-width="1920"
     inkscape:window-height="1004"
     id="namedview58"
     showgrid="true"
     inkscape:zoom="5.4664307"
     inkscape:cx="67.228511"
     inkscape:cy="4.298966"
     inkscape:window-x="0"
     inkscape:window-y="0"
     inkscape:window-maximized="1"
     inkscape:current-layer="svg"
     inkscape:lockguides="true"
     inkscape:document-rotation="0"
     inkscape:pagecheckerboard="true"
     inkscape:showpageshadow="false"
     inkscape:deskcolor="#000000">
    <inkscape:grid
       type="xygrid"
       id="grid895"
       originx="0"
       originy="0" />
  </sodipodi:namedview>
  <defs
     id="defs4">
    <linearGradient
       id="linearGradient5606"
       inkscape:swatch="solid">
      <stop
         id="stop5608"
         offset="0"
         style="stop-color:#000000" />
    </linearGradient>
  </defs>
  <g
     id="22-22-window-close"
     transform="translate(54)">
    <rect
       style="opacity:0.00100002"
       width="22"
       height="22"
       x="0"
       y="0"
       id="rect18" />
    <g
       style="fill:#ffffff"
       transform="matrix(1.7493122,0,0,1.7499488,-107.95048,-909.47286)"
       id="g24">
      <g
         style="fill:#ffffff"
         transform="translate(19,-242)"
         id="g22">
        <path
           style="fill:currentColor;fill-opacity:1"
           d="m 45.571203,764.57141 h 0.857142 c 0.0089,-1.1e-4 0.01782,-4e-4 0.02679,0 0.21853,0.01 0.437032,0.11021 0.589286,0.26785 l 1.955357,1.95536 1.982143,-1.95536 c 0.227678,-0.19757 0.382861,-0.26185 0.589285,-0.26785 h 0.857143 v 0.85714 c 0,0.24555 -0.02943,0.47199 -0.214285,0.64286 l -1.955357,1.95535 1.928571,1.92858 c 0.161304,0.16128 0.241064,0.38867 0.241071,0.61607 v 0.85714 h -0.857143 c -0.2274,-10e-6 -0.454788,-0.0798 -0.616071,-0.24107 l -1.955357,-1.95536 -1.955357,1.95536 c -0.161288,0.1613 -0.388684,0.24107 -0.616076,0.24107 h -0.857142 v -0.85714 c -3e-6,-0.22739 0.07977,-0.45479 0.241071,-0.61607 l 1.955357,-1.92858 -1.955357,-1.95535 c -0.180636,-0.16683 -0.259851,-0.40222 -0.241071,-0.64286 z"
           id="path20"
           class="ColorScheme-Text" />
      </g>
    </g>
  </g>
  <g
     id="16-16-window-close"
     transform="translate(76,22.000005)">
    <rect
       style="opacity:0.00100002"
       width="16"
       height="16"
       x="0"
       y="-16"
       id="rect27" />
    <g
       style="fill:#ffffff"
       transform="matrix(1.2495087,0,0,1.2499635,-76.964626,-665.48065)"
       id="g33">
      <g
         style="fill:#ffffff"
         transform="translate(19,-242)"
         id="g31">
        <path
           style="fill:currentColor;fill-opacity:1"
           d="m 45.799685,764.79997 h 0.8 c 0.0083,-10e-5 0.01663,-3.7e-4 0.025,0 0.203961,0.009 0.407896,0.10286 0.55,0.25 l 1.825,1.825 1.85,-1.825 c 0.2125,-0.1844 0.357337,-0.2444 0.55,-0.25 h 0.8 v 0.8 c 0,0.22918 -0.02747,0.44052 -0.2,0.6 l -1.825,1.825 1.8,1.8 c 0.15055,0.15054 0.224993,0.36276 0.225,0.575 v 0.8 h -0.8 c -0.212241,-10e-6 -0.424469,-0.0745 -0.575,-0.225 l -1.825,-1.825 -1.825,1.825 c -0.150531,0.15055 -0.362768,0.225 -0.575,0.225 h -0.8 v -0.8 c -3e-6,-0.21223 0.07445,-0.42446 0.225,-0.575 l 1.825,-1.8 -1.825,-1.825 c -0.168594,-0.1557 -0.242528,-0.3754 -0.225,-0.6 z"
           id="path29"
           class="ColorScheme-Text" />
      </g>
    </g>
  </g>
  <g
     id="window-close"
     transform="translate(22,-9.999995)">
    <rect
       width="32"
       height="32"
       x="0"
       y="0"
       style="opacity:0.00100002"
       id="rect36" />
    <g
       style="opacity:0.2"
       transform="matrix(1.7493122,0,0,1.7499488,-102.95048,-903.47286)"
       id="g46">
      <g
         transform="translate(19,-242)"
         id="g44" />
    </g>
    <g
       transform="matrix(1.7493122,0,0,1.7499488,-102.95048,-904.47286)"
       style="fill:#ffffff"
       id="g52">
      <g
         transform="translate(19,-242)"
         style="fill:#ffffff"
         id="g50">
        <path
           d="m 43.857606,762.85708 h 1.28572 c 0.01372,-1.1e-4 0.02682,-4e-4 0.04018,0 0.327793,0.016 0.655556,0.16541 0.883933,0.40185 l 2.933059,2.93318 2.97325,-2.93318 c 0.341509,-0.29624 0.574295,-0.39285 0.883939,-0.40185 h 1.285728 v 1.28574 c 0,0.36837 -0.04422,0.70817 -0.321425,0.96427 l -2.933078,2.9332 2.892893,2.89293 c 0.241962,0.2418 0.361599,0.58301 0.36161,0.92392 v 1.28575 h -1.285733 c -0.341103,-10e-6 -0.682193,-0.11975 -0.924118,-0.36146 l -2.933069,-2.93318 -2.933061,2.93318 c -0.241942,0.2419 -0.58304,0.36146 -0.924122,0.36146 h -1.285721 v -1.28575 c -3e-6,-0.34091 0.119646,-0.68212 0.361614,-0.92392 l 2.93307,-2.89293 -2.93307,-2.9332 c -0.270957,-0.25023 -0.389773,-0.60322 -0.361614,-0.96427 z"
           style="fill:currentColor;fill-opacity:1;stroke-width:1.5"
           id="path48"
           class="ColorScheme-Text" />
      </g>
    </g>
  </g>
  <g
     id="g1397"
     transform="translate(32,-31.999995)">
    <path
       id="rect838-6"
       d="M 0,0 H 22 V 22 H 0 Z"
       fill="none" />
    <g
       id="g1405"
       transform="translate(-32,31.999995)">
      <path
         id="rect838"
         d="M 0,0 H 22 V 22 H 0 Z"
         fill="none" />
    </g>
  </g>
  <g
     id="window-pin">
    <path
       id="rect838-67"
       d="M 0,0 H 22 V 22 H 0 Z"
       fill="none" />
    <polygon
       class="cls-1"
       points="3.47,21.23 2.77,20.53 8.78,13.81 10.19,15.22 "
       id="polygon6"
       style="fill:#e5e9ef;fill-opacity:1"
       transform="matrix(0.83660771,0,0,0.83660771,0.68259664,1.2388183)" />
    <path
       class="cls-2"
       d="M 12.16922,16.933579 5.066421,9.8307795 A 4.9694498,4.9694498 0 0 1 8.6136377,8.366716 4.5344138,4.5344138 0 0 1 9.8852815,8.5424036 L 12.813408,5.6393749 a 1.2465455,1.2465455 0 0 1 1.673216,-1.6732155 1.1043222,1.1043222 0 0 1 0.351375,0.2426163 l 2.953225,2.9532252 a 1.1043222,1.1043222 0 0 1 0.242617,0.3513752 1.2465455,1.2465455 0 0 1 -1.673216,1.6732154 l -2.903029,2.9281275 a 4.5344138,4.5344138 0 0 1 0.175688,1.296741 4.9694498,4.9694498 0 0 1 -1.464064,3.522119 z"
       id="path8"
       style="fill:none;stroke:#e5e9ef;stroke-width:1.67322px;stroke-miterlimit:10;stroke-opacity:1" />
  </g>
  <g
     id="window-unpin"
     transform="translate(32,-31.999995)">
    <path
       id="rect838-6-3"
       d="M 0,0 H 22 V 22 H 0 Z"
       fill="none" />
    <polygon
       class="cls-1"
       points="3.47,21.23 2.77,20.53 8.78,13.81 10.19,15.22 "
       id="polygon6-3"
       style="fill:#556fa6;fill-opacity:1"
       transform="matrix(0.83660769,0,0,0.83660771,0.6825967,1.2388173)" />
    <path
       class="cls-2"
       d="m 12.169217,16.933578 -7.1028004,-7.1028 a 4.9694497,4.9694498 0 0 1 3.5472199,-1.4640626 4.5344137,4.5344138 0 0 1 1.27164,0.175688 l 2.9281305,-2.903029 a 1.2465455,1.2465455 0 0 1 1.67321,-1.673216 1.1043222,1.1043222 0 0 1 0.35138,0.242617 l 2.95322,2.953225 a 1.1043222,1.1043222 0 0 1 0.24262,0.351375 1.2465455,1.2465455 0 0 1 -1.67321,1.6732146 l -2.90303,2.928128 a 4.5344137,4.5344138 0 0 1 0.17568,1.296741 4.9694497,4.9694498 0 0 1 -1.46406,3.522119 z"
       id="path8-6"
       style="fill:none;stroke:#556fa6;stroke-width:1.67322px;stroke-miterlimit:10;stroke-opacity:1" />
  </g>
</svg>
