<?xml version="1.0" encoding="UTF-8" standalone="no"?>
<svg
   viewBox="0 0 32 32"
   version="1.1"
   id="svg14"
   sodipodi:docname="folder-Manjaro.svg"
   inkscape:version="1.2.1 (9c6d41e410, 2022-07-14)"
   xmlns:inkscape="http://www.inkscape.org/namespaces/inkscape"
   xmlns:sodipodi="http://sodipodi.sourceforge.net/DTD/sodipodi-0.dtd"
   xmlns:xlink="http://www.w3.org/1999/xlink"
   xmlns="http://www.w3.org/2000/svg"
   xmlns:svg="http://www.w3.org/2000/svg"
   xmlns:rdf="http://www.w3.org/1999/02/22-rdf-syntax-ns#"
   xmlns:cc="http://creativecommons.org/ns#"
   xmlns:dc="http://purl.org/dc/elements/1.1/">
  <metadata
     id="metadata18">
    <rdf:RDF>
      <cc:Work
         rdf:about="">
        <dc:format>image/svg+xml</dc:format>
        <dc:type
           rdf:resource="http://purl.org/dc/dcmitype/StillImage" />
      </cc:Work>
    </rdf:RDF>
  </metadata>
  <sodipodi:namedview
     pagecolor="#ffffff"
     bordercolor="#666666"
     borderopacity="1"
     objecttolerance="10"
     gridtolerance="10"
     guidetolerance="10"
     inkscape:pageopacity="0"
     inkscape:pageshadow="2"
     inkscape:window-width="1920"
     inkscape:window-height="1004"
     id="namedview16"
     showgrid="false"
     inkscape:zoom="7.375"
     inkscape:cx="15.254237"
     inkscape:cy="16.338983"
     inkscape:window-x="0"
     inkscape:window-y="0"
     inkscape:window-maximized="1"
     inkscape:current-layer="svg14"
     inkscape:document-rotation="0"
     inkscape:showpageshadow="2"
     inkscape:pagecheckerboard="0"
     inkscape:deskcolor="#d1d1d1" />
  <defs
     id="defs3051">
    <style
       type="text/css"
       id="current-color-scheme">.ColorScheme-Text { color:#31363b; }
.ColorScheme-Background { color:#eff0f1; }
.ColorScheme-Highlight { color:#3daee9; }
.ColorScheme-ViewText { color:#31363b; }
.ColorScheme-ViewBackground { color:#fcfcfc; }
.ColorScheme-ViewHover { color:#93cee9; }
.ColorScheme-ViewFocus { color:#3daee9; }
.ColorScheme-ButtonText { color:#31363b; }
.ColorScheme-ButtonBackground { color:#eff0f1; }
.ColorScheme-ButtonHover { color:#93cee9; }
.ColorScheme-ButtonFocus { color:#3daee9; }
</style>
    <linearGradient
       inkscape:collect="always"
       id="linearGradient4393">
      <stop
         style="stop-color:#000000;stop-opacity:1;"
         offset="0"
         id="stop4395" />
      <stop
         style="stop-color:#000000;stop-opacity:0;"
         offset="1"
         id="stop4397" />
    </linearGradient>
    <linearGradient
       inkscape:collect="always"
       xlink:href="#linearGradient886"
       id="linearGradient888"
       x1="75.75985"
       y1="208.49026"
       x2="91.646347"
       y2="264.21182"
       gradientUnits="userSpaceOnUse"
       gradientTransform="matrix(0.35313291,0,0,0.35449418,-12.501299,-68.908537)" />
    <linearGradient
       inkscape:collect="always"
       id="linearGradient886">
      <stop
         style="stop-color:#1ca67b;stop-opacity:1;"
         offset="0"
         id="stop882" />
      <stop
         style="stop-color:#44d2a8;stop-opacity:1"
         offset="0.48468637"
         id="stop1402" />
      <stop
         style="stop-color:#1ba97f;stop-opacity:1"
         offset="1"
         id="stop884" />
    </linearGradient>
    <filter
       inkscape:collect="always"
       style="color-interpolation-filters:sRGB"
       id="filter1881"
       x="-0.09064882"
       width="1.1812976"
       y="-0.40803665"
       height="1.8160733">
      <feGaussianBlur
         inkscape:collect="always"
         stdDeviation="0.85615684"
         id="feGaussianBlur1883" />
    </filter>
    <inkscape:path-effect
       effect="fillet_chamfer"
       id="path-effect1331"
       is_visible="true"
       lpeversion="1"
       satellites_param="F,0,0,1,0,2.1166667,0,1 @ F,0,0,1,0,2.1166667,0,1 @ F,0,0,1,0,2.1166667,0,1 @ F,0,0,1,0,2.1166667,0,1"
       unit="px"
       method="arc"
       mode="F"
       radius="8"
       chamfer_steps="1"
       flexible="false"
       use_knot_distance="true"
       apply_no_radius="true"
       apply_with_radius="true"
       only_selected="false"
       hide_knots="false"
       nodesatellites_param="F,0,0,1,0,2.1166667,0,1 @ F,0,0,1,0,2.1166667,0,1 @ F,0,0,1,0,2.1166667,0,1 @ F,0,0,1,0,2.1166667,0,1" />
    <linearGradient
       inkscape:collect="always"
       xlink:href="#linearGradient852"
       id="linearGradient854-7"
       x1="76.788559"
       y1="222.65123"
       x2="92.097359"
       y2="268.94839"
       gradientUnits="userSpaceOnUse"
       gradientTransform="matrix(0.35313291,0,0,0.35449418,-12.519953,-68.908537)" />
    <linearGradient
       inkscape:collect="always"
       id="linearGradient852">
      <stop
         style="stop-color:#35cea1;stop-opacity:1;"
         offset="0"
         id="stop848" />
      <stop
         style="stop-color:#1ba87e;stop-opacity:1;"
         offset="1"
         id="stop850" />
    </linearGradient>
    <linearGradient
       inkscape:collect="always"
       xlink:href="#linearGradient4393"
       id="linearGradient668-3"
       gradientUnits="userSpaceOnUse"
       gradientTransform="matrix(1.7478124,0,0,1.686832,1.9999925,-1749.5261)"
       x1="5"
       y1="1037.3622"
       x2="8"
       y2="1051.3622" />
  </defs>
  <path
     id="rect10"
     style="fill:url(#linearGradient888);fill-opacity:1;stroke-width:0.0579115"
     d="M 3.4949565,5 C 2.6692455,5 1.9999735,5.671909 1.9999735,6.500718 V 7.979275 25.499267 C 1.9999735,26.328047 2.6692455,27 3.4949565,27 H 28.505082 c 0.825615,0 1.494853,-0.671948 1.494853,-1.500733 L 29.997535,9.595913 C 29.934005,8.773905 30.029055,6.87587 27.226259,6.87587 H 14.50699 c 0.01168,0 -0.921895,-0.84414 -1.752935,-1.347326 C 12.090146,5.093715 11.193113,5 11.193113,5 Z"
     sodipodi:nodetypes="scccscccccccs" />
  <path
     style="opacity:0.309598;fill:#000000;fill-opacity:1;stroke:none;stroke-width:0.144851;stroke-opacity:1;filter:url(#filter1881)"
     id="rect873"
     width="22.667437"
     height="5.0357642"
     x="46.507095"
     y="222.89639"
     transform="matrix(0.50789103,0,0,0.68368449,-20.536589,-142.10558)"
     inkscape:path-effect="#path-effect1331"
     d="m 48.623762,222.89639 h 18.434103 a 2.1166667,2.1166667 45 0 1 2.116667,2.11667 v 0.80243 a 2.1166667,2.1166667 135 0 1 -2.116667,2.11667 l -18.434103,0 a 2.1166667,2.1166667 45 0 1 -2.116667,-2.11667 v -0.80243 a 2.1166667,2.1166667 135 0 1 2.116667,-2.11667 z"
     sodipodi:type="rect" />
  <path
     id="rect851"
     style="fill:#1ba97f;fill-opacity:1;stroke-width:0.0936051"
     d="m 14.478396,8.480364 v 1.48729 h -3.48628 c 1.721981,-0.0044 2.184444,-0.510027 3.48628,-1.48729 z m 0,0 H 28.43448 c 0.822384,-0.0039 1.562288,0.662645 1.565451,1.48729 H 14.478396 Z M 3.4950475,9.967654 H 29.999935 v 15.064508 c 0,0.827934 -0.669238,1.499059 -1.494853,1.499059 H 3.4950475 c -0.82571,0 -1.494982,-0.671125 -1.494982,-1.499059 V 11.466805 c 0,-0.827977 0.669272,-1.499151 1.494982,-1.499151 z"
     sodipodi:nodetypes="cccccccccccccsccc" />
  <path
     id="rect851-3"
     style="fill:url(#linearGradient854-7);fill-opacity:1;stroke-width:0.0936449"
     d="m 14.651846,9.072604 -0.03785,1.554976 -3.447809,-0.0661 c 1.722019,-0.0044 2.184391,-0.51062 3.486208,-1.488881 z m 0,0 h 13.853256 c 0.822364,-0.0039 1.491675,0.663307 1.494867,1.488881 l -15.386526,0.0661 z M 3.4950725,10.561485 H 29.999973 v 14.471329 c 0,0.828853 -0.669248,1.500733 -1.494872,1.500728 H 3.4950725 c -0.82572,5e-6 -1.494993,-0.671875 -1.494993,-1.500728 V 12.062237 c 0,-0.828819 0.669273,-1.500752 1.494993,-1.500752 z"
     sodipodi:nodetypes="cccccccccccsccssc" />
  <path
     style="opacity:0.181;fill:url(#linearGradient668-3);fill-opacity:1;fill-rule:evenodd;stroke:none;stroke-width:1.71705px;stroke-linecap:butt;stroke-linejoin:miter;stroke-opacity:1"
     d="M 3.4482495,10.546412 15.982469,23.94524 h 13.982495 l 0.035,-13.398828 H 3.4766255 Z"
     id="path4152-2-5"
     inkscape:connector-curvature="0"
     sodipodi:nodetypes="cccccc" />
  <path
     style="fill:#edfaff;fill-opacity:1;stroke-width:0.605799"
     d="m 11.689816,13.076355 c -0.286588,0 -0.517429,0.23266 -0.517429,0.521451 v 8.687645 c 0,0.288792 0.243498,0.43652 0.517429,0.521452 h 2.499812 v -6.689752 h 3.62069 v -3.040796 z m 6.72395,0 v 9.730548 h 2.499831 c 0.286556,0 0.517411,-0.23266 0.517411,-0.521452 v -8.687645 c 0,-0.288791 -0.230855,-0.521451 -0.517411,-0.521451 z m -6.637931,0.608159 h 5.431035 v 1.824478 h -3.017242 a 0.60350828,0.60821972 0 0 0 -0.603448,0.608159 v 6.081592 h -1.782071 c -0.01067,-0.0054 -0.021,-0.0081 -0.02843,-0.01184 z m 7.24138,0 h 1.810344 v 8.514229 h -1.810344 z m -4.224139,3.040796 v 6.081593 h 3.017241 V 16.72531 Z m 0.603448,0.608159 h 1.810345 v 4.865274 h -1.810345 z"
     id="path4-3-6-7-6-7" />
  <rect
     style="fill:#ffffff;fill-opacity:0.25;stroke:#e5e9ef;stroke-width:0.28132;stroke-opacity:0.5;paint-order:markers fill stroke"
     id="rect2191"
     width="27.758621"
     height="3.5499221e-07"
     x="2.1206629"
     y="23.62925" />
  <rect
     style="fill:#ffffff;fill-opacity:0.5;stroke:#e5e9ef;stroke-width:0.28132;stroke-opacity:0.5;paint-order:markers fill stroke"
     id="rect2191-0-9"
     width="27.758621"
     height="3.5499221e-07"
     x="2.1206629"
     y="25.088833" />
</svg>
