<?xml version="1.0" encoding="UTF-8" standalone="no"?>
<svg
   viewBox="0 0 32 32"
   version="1.1"
   id="svg12"
   sodipodi:docname="folder-IOTA.svg"
   inkscape:version="1.2.1 (9c6d41e410, 2022-07-14)"
   xmlns:inkscape="http://www.inkscape.org/namespaces/inkscape"
   xmlns:sodipodi="http://sodipodi.sourceforge.net/DTD/sodipodi-0.dtd"
   xmlns:xlink="http://www.w3.org/1999/xlink"
   xmlns="http://www.w3.org/2000/svg"
   xmlns:svg="http://www.w3.org/2000/svg"
   xmlns:rdf="http://www.w3.org/1999/02/22-rdf-syntax-ns#"
   xmlns:cc="http://creativecommons.org/ns#"
   xmlns:dc="http://purl.org/dc/elements/1.1/">
  <metadata
     id="metadata16">
    <rdf:RDF>
      <cc:Work
         rdf:about="">
        <dc:format>image/svg+xml</dc:format>
        <dc:type
           rdf:resource="http://purl.org/dc/dcmitype/StillImage" />
      </cc:Work>
    </rdf:RDF>
  </metadata>
  <sodipodi:namedview
     pagecolor="#ffffff"
     bordercolor="#666666"
     borderopacity="1"
     objecttolerance="10"
     gridtolerance="10"
     guidetolerance="10"
     inkscape:pageopacity="0"
     inkscape:pageshadow="2"
     inkscape:window-width="1920"
     inkscape:window-height="1004"
     id="namedview14"
     showgrid="true"
     inkscape:zoom="10.429825"
     inkscape:cx="-18.264928"
     inkscape:cy="10.30698"
     inkscape:window-x="0"
     inkscape:window-y="0"
     inkscape:window-maximized="1"
     inkscape:current-layer="svg12"
     inkscape:showpageshadow="2"
     inkscape:pagecheckerboard="0"
     inkscape:deskcolor="#d1d1d1">
    <inkscape:grid
       type="xygrid"
       id="grid18219" />
  </sodipodi:namedview>
  <defs
     id="defs3051">
    <style
       type="text/css"
       id="current-color-scheme">.ColorScheme-Text { color:#31363b; }
.ColorScheme-Background { color:#eff0f1; }
.ColorScheme-Highlight { color:#3daee9; }
.ColorScheme-ViewText { color:#31363b; }
.ColorScheme-ViewBackground { color:#fcfcfc; }
.ColorScheme-ViewHover { color:#93cee9; }
.ColorScheme-ViewFocus { color:#3daee9; }
.ColorScheme-ButtonText { color:#31363b; }
.ColorScheme-ButtonBackground { color:#eff0f1; }
.ColorScheme-ButtonHover { color:#93cee9; }
.ColorScheme-ButtonFocus { color:#3daee9; }
</style>
    <linearGradient
       inkscape:collect="always"
       id="linearGradient4393">
      <stop
         style="stop-color:#000000;stop-opacity:1;"
         offset="0"
         id="stop4395" />
      <stop
         style="stop-color:#000000;stop-opacity:0;"
         offset="1"
         id="stop4397" />
    </linearGradient>
    <linearGradient
       inkscape:collect="always"
       xlink:href="#linearGradient1283"
       id="linearGradient1285"
       x1="22.863649"
       y1="16.553446"
       x2="46.445564"
       y2="48.339722"
       gradientUnits="userSpaceOnUse"
       gradientTransform="matrix(0.48275858,0,0,0.48652739,0.551749,0.426642)" />
    <linearGradient
       inkscape:collect="always"
       id="linearGradient1283">
      <stop
         style="stop-color:#00aad4;stop-opacity:1;"
         offset="0"
         id="stop1279" />
      <stop
         style="stop-color:#00ffcc;stop-opacity:1"
         offset="1"
         id="stop1281" />
    </linearGradient>
    <filter
       inkscape:collect="always"
       style="color-interpolation-filters:sRGB"
       id="filter1881"
       x="-0.09064882"
       width="1.1812976"
       y="-0.40803665"
       height="1.8160733">
      <feGaussianBlur
         inkscape:collect="always"
         stdDeviation="0.85615684"
         id="feGaussianBlur1883" />
    </filter>
    <inkscape:path-effect
       effect="fillet_chamfer"
       id="path-effect1331"
       is_visible="true"
       lpeversion="1"
       satellites_param="F,0,0,1,0,2.1166667,0,1 @ F,0,0,1,0,2.1166667,0,1 @ F,0,0,1,0,2.1166667,0,1 @ F,0,0,1,0,2.1166667,0,1"
       unit="px"
       method="arc"
       mode="F"
       radius="8"
       chamfer_steps="1"
       flexible="false"
       use_knot_distance="true"
       apply_no_radius="true"
       apply_with_radius="true"
       only_selected="false"
       hide_knots="false"
       nodesatellites_param="F,0,0,1,0,2.1166667,0,1 @ F,0,0,1,0,2.1166667,0,1 @ F,0,0,1,0,2.1166667,0,1 @ F,0,0,1,0,2.1166667,0,1" />
    <linearGradient
       inkscape:collect="always"
       xlink:href="#linearGradient852"
       id="linearGradient854-7"
       x1="76.788559"
       y1="222.65123"
       x2="92.097359"
       y2="268.94839"
       gradientUnits="userSpaceOnUse"
       gradientTransform="matrix(0.35313288,0,0,0.35449418,-12.519925,-68.908537)" />
    <linearGradient
       inkscape:collect="always"
       id="linearGradient852">
      <stop
         style="stop-color:#00d4aa;stop-opacity:1"
         offset="0"
         id="stop848" />
      <stop
         style="stop-color:#00aad4;stop-opacity:1"
         offset="1"
         id="stop850" />
    </linearGradient>
    <linearGradient
       inkscape:collect="always"
       xlink:href="#linearGradient4393"
       id="linearGradient668-3"
       gradientUnits="userSpaceOnUse"
       gradientTransform="matrix(1.7478122,0,0,1.686832,2.000019,-1749.5261)"
       x1="5"
       y1="1037.3622"
       x2="8"
       y2="1051.3622" />
  </defs>
  <path
     id="rect10"
     style="fill:url(#linearGradient1285);fill-opacity:1;stroke-width:0.0579115"
     d="M 3.494982,5 C 2.669272,5 2,5.671909 2,6.500718 V 7.979275 25.499267 C 2,26.328047 2.669272,27 3.494982,27 h 25.010122 c 0.825614,0 1.494853,-0.671948 1.494853,-1.500733 L 29.997557,9.595913 C 29.934027,8.773905 30.029077,6.87587 27.226281,6.87587 h -12.71925 c 0.01168,0 -0.921895,-0.84414 -1.752938,-1.347326 C 12.090184,5.093715 11.193152,5 11.193152,5 Z"
     sodipodi:nodetypes="scccscccccccs" />
  <path
     style="opacity:0.309598;fill:#000000;fill-opacity:1;stroke:none;stroke-width:0.144851;stroke-opacity:1;filter:url(#filter1881)"
     id="rect873"
     width="22.667437"
     height="5.0357642"
     x="46.507095"
     y="222.89639"
     transform="matrix(0.50789099,0,0,0.68368449,-20.53656,-142.10558)"
     inkscape:path-effect="#path-effect1331"
     d="m 48.623762,222.89639 h 18.434103 a 2.1166667,2.1166667 45 0 1 2.116667,2.11667 v 0.80243 a 2.1166667,2.1166667 135 0 1 -2.116667,2.11667 l -18.434103,0 a 2.1166667,2.1166667 45 0 1 -2.116667,-2.11667 v -0.80243 a 2.1166667,2.1166667 135 0 1 2.116667,-2.11667 z"
     sodipodi:type="rect" />
  <path
     id="rect851"
     style="fill:#00c5f6;fill-opacity:1;stroke-width:0.0936051"
     d="m 14.478418,8.480364 v 1.48729 h -3.486277 c 1.72198,-0.0044 2.184446,-0.510027 3.486277,-1.48729 z m 0,0 h 13.956083 c 0.822384,-0.0039 1.562293,0.662645 1.565456,1.48729 H 14.478419 Z M 3.495074,9.967654 h 26.504883 v 15.064508 c 0,0.827933 -0.669239,1.499059 -1.494853,1.499059 H 3.495074 c -0.82571,0 -1.494983,-0.671126 -1.494983,-1.499059 V 11.466805 c 0,-0.827977 0.669273,-1.499151 1.494983,-1.499151 z"
     sodipodi:nodetypes="cccccccccccccsccc" />
  <path
     id="rect851-3"
     style="fill:url(#linearGradient854-7);fill-opacity:1;stroke-width:0.0936449"
     d="m 14.651873,9.072604 -0.03785,1.554976 -3.447811,-0.0661 c 1.722019,-0.0044 2.184393,-0.51062 3.48621,-1.488881 z m 0,0 h 13.853255 c 0.82236,-0.0039 1.491676,0.663307 1.494867,1.488881 l -15.386525,0.0661 z M 3.495098,10.561485 H 30 v 14.471329 c 0,0.828853 -0.669254,1.500733 -1.494872,1.500728 H 3.495098 c -0.82572,5e-6 -1.494992,-0.671875 -1.494992,-1.500728 V 12.062237 c 0,-0.828819 0.669272,-1.500752 1.494992,-1.500752 z"
     sodipodi:nodetypes="cccccccccccsccssc" />
  <rect
     style="fill:#ffffff;fill-opacity:0.25;stroke:#e5e9ef;stroke-width:0.28132;stroke-opacity:0.5;paint-order:markers fill stroke"
     id="rect2191"
     width="27.758617"
     height="3.5499221e-07"
     x="2.1207411"
     y="23.629248" />
  <rect
     style="fill:#ffffff;fill-opacity:0.5;stroke:#e5e9ef;stroke-width:0.28132;stroke-opacity:0.5;paint-order:markers fill stroke"
     id="rect2191-0-9"
     width="27.758617"
     height="3.5499221e-07"
     x="2.1207411"
     y="25.088829" />
  <path
     style="opacity:0.181;fill:url(#linearGradient668-3);fill-opacity:1;fill-rule:evenodd;stroke:none;stroke-width:1.71705px;stroke-linecap:butt;stroke-linejoin:miter;stroke-opacity:1"
     d="M 3.448276,10.546412 15.982496,23.94524 H 29.96499 l 0.035,-13.398828 H 3.476652 Z"
     id="path4152-2-5"
     inkscape:connector-curvature="0"
     sodipodi:nodetypes="cccccc" />
  <path
     style="color:#eff0f1;isolation:isolate;fill:#ffffff;fill-opacity:1;stroke-width:0.633666"
     class="ColorScheme-Text"
     d="m 13.7414,22.808334 c 0.202845,-0.0097 0.387356,-0.122035 0.488411,-0.299314 0.07932,-0.137895 0.101056,-0.301111 0.06053,-0.454878 -0.04157,-0.153813 -0.140913,-0.284692 -0.278021,-0.364795 -0.137113,-0.07978 -0.300093,-0.101 -0.452982,-0.06013 -0.152291,0.04157 -0.283051,0.141665 -0.362055,0.279601 -0.07932,0.137843 -0.100452,0.301157 -0.05986,0.45491 0.04099,0.153741 0.140893,0.284726 0.278006,0.364062 0.09856,0.05747 0.212269,0.08562 0.326027,0.08046 z m 3.837704,-0.937268 c 0.09983,0 0.195855,-0.04072 0.266632,-0.111185 0.07106,-0.0714 0.109934,-0.167112 0.109934,-0.267496 0,-0.209061 -0.16872,-0.378068 -0.376566,-0.378068 -0.207244,0 -0.375326,0.169648 -0.375326,0.378068 0,0.208377 0.168082,0.37806 0.375326,0.378681 z m -0.947115,-0.0966 c 0.08727,0 0.171249,-0.03438 0.232516,-0.09652 0.06227,-0.06287 0.09668,-0.146206 0.09605,-0.233832 0,-0.182424 -0.147202,-0.329819 -0.328541,-0.329819 -0.180711,0 -0.327276,0.148065 -0.32789,0.329819 0,0.182305 0.146566,0.33036 0.32789,0.33036 z m 2.047751,-0.0373 c 0.117552,0 0.230652,-0.04643 0.313383,-0.130252 0.08311,-0.08359 0.130127,-0.19762 0.130127,-0.315785 0,-0.118238 -0.04625,-0.231307 -0.130127,-0.315207 -0.08244,-0.08307 -0.195831,-0.130236 -0.313383,-0.130236 -0.117537,0 -0.229967,0.04643 -0.313412,0.130234 -0.08302,0.08359 -0.129519,0.196968 -0.129519,0.315207 0,0.118165 0.04552,0.231894 0.129519,0.315785 0.08311,0.08286 0.195875,0.130252 0.313412,0.130252 z m -2.827377,-0.231337 c 0.15792,0 0.285552,-0.128356 0.285552,-0.286536 4.82e-4,-0.07597 -0.03056,-0.149352 -0.08311,-0.203327 -0.0531,-0.05364 -0.126343,-0.08428 -0.202112,-0.0835 -0.157365,0 -0.284972,0.128356 -0.284972,0.287207 4.73e-4,0.158173 0.127607,0.28592 0.284972,0.286521 z m -2.275236,-0.311366 c 0.173141,-0.0097 0.331104,-0.104793 0.417634,-0.256064 0.140884,-0.245867 0.05629,-0.559139 -0.187006,-0.700839 -0.243885,-0.141695 -0.555375,-0.05747 -0.69692,0.187473 -0.06758,0.118185 -0.08583,0.257975 -0.0514,0.389503 0.03476,0.131544 0.120709,0.244005 0.23757,0.311981 0.08504,0.04928 0.181942,0.0729 0.279899,0.06792 z m 1.681921,-0.05385 c 0.06516,0 0.128882,-0.02544 0.175632,-0.07268 0.04572,-0.04584 0.07259,-0.10992 0.07259,-0.17598 0,-0.06546 -0.02539,-0.129659 -0.07259,-0.175986 -0.04634,-0.04652 -0.109306,-0.07306 -0.175632,-0.07306 -0.06478,0 -0.128245,0.02633 -0.174368,0.07306 -0.04625,0.04643 -0.0724,0.109918 -0.0724,0.175986 0,0.137264 0.110571,0.248441 0.246381,0.248441 z m -2.979041,-0.130309 c 0.173151,-0.0097 0.330492,-0.104839 0.417647,-0.256056 0.140229,-0.245281 0.05611,-0.558562 -0.187076,-0.70083 -0.11691,-0.0679 -0.256451,-0.08629 -0.387309,-0.05186 -0.130703,0.03485 -0.241921,0.121336 -0.309527,0.23955 -0.140898,0.24522 -0.05611,0.55851 0.186963,0.70019 0.08447,0.05032 0.181342,0.07281 0.279302,0.06891 z m 5.127886,-0.235715 c 0.20721,0 0.37591,-0.16966 0.375282,-0.37872 0,-0.208415 -0.168072,-0.377397 -0.375282,-0.377397 -0.207885,0 -0.376547,0.168982 -0.376547,0.377397 0,0.101042 0.03988,0.19698 0.109929,0.268153 0.07105,0.07141 0.16675,0.110567 0.266618,0.110567 z m -2.588619,-0.06707 c 0.05538,4.53e-4 0.108674,-0.0221 0.147869,-0.0613 0.03973,-0.0399 0.06198,-0.09252 0.06198,-0.148668 0,-0.05553 -0.02235,-0.109266 -0.06198,-0.148645 -0.03988,-0.03989 -0.0921,-0.06227 -0.147869,-0.06227 -0.05454,0 -0.108669,0.02252 -0.147806,0.06227 -0.03973,0.03989 -0.06109,0.09262 -0.06109,0.148645 0,0.05563 0.02216,0.109302 0.06109,0.148668 0.03978,0.0399 0.09276,0.06227 0.147806,0.0613 z m 1.641481,-0.02794 c 0.180696,-4.87e-4 0.327942,-0.148047 0.327942,-0.330461 -4.82e-4,-0.182323 -0.147246,-0.329785 -0.327942,-0.329785 -0.18132,0 -0.328503,0.147462 -0.328503,0.329785 -4.83e-4,0.08776 0.0337,0.171584 0.09595,0.233869 0.06197,0.0622 0.145339,0.0966 0.232501,0.0966 z m 2.046481,-0.03731 c 0.117532,0 0.230614,-0.04643 0.314034,-0.130916 0.08263,-0.08287 0.129558,-0.196977 0.129558,-0.315146 0,-0.118172 -0.04625,-0.231292 -0.129558,-0.315156 -0.08312,-0.08366 -0.196502,-0.130909 -0.314034,-0.130909 -0.117489,0 -0.229967,0.04652 -0.313335,0.130909 -0.08243,0.08347 -0.129567,0.196984 -0.129567,0.315156 0,0.118169 0.04606,0.231901 0.129567,0.315146 0.08302,0.08358 0.195846,0.130916 0.313335,0.130916 z m -2.826122,-0.23136 c 0.157312,-4.34e-4 0.284321,-0.128929 0.284963,-0.287155 0,-0.158253 -0.127651,-0.286587 -0.284963,-0.287207 -0.07548,0 -0.148463,0.03114 -0.202203,0.08425 -0.05346,0.05352 -0.08389,0.127081 -0.08389,0.202725 4.82e-4,0.158808 0.128278,0.287149 0.286237,0.287149 z M 19.7128,20.199321 c 0.281801,0 0.510512,-0.230049 0.510512,-0.513395 0,-0.283393 -0.228711,-0.512784 -0.510512,-0.512784 -0.281806,0 -0.509875,0.229391 -0.509875,0.512784 0,0.283346 0.228069,0.513395 0.509875,0.513395 z m -4.625001,-0.153777 c 0.136485,0 0.247071,-0.111231 0.247071,-0.248468 0,-0.137245 -0.110586,-0.248401 -0.247071,-0.248401 -0.136413,0 -0.247037,0.111156 -0.247037,0.248401 0,0.137237 0.110624,0.248468 0.247037,0.248468 z m -1.35017,-0.221745 c 0.150375,-0.0097 0.287469,-0.09116 0.362653,-0.221744 0.05925,-0.102938 0.07492,-0.224332 0.04393,-0.338692 -0.03085,-0.114409 -0.104875,-0.211636 -0.206612,-0.27069 -0.212312,-0.123248 -0.482715,-0.05034 -0.605306,0.163285 -0.121878,0.212867 -0.0507,0.48543 0.161724,0.608741 0.07352,0.04322 0.157963,0.06331 0.243243,0.05951 z m -1.297084,-0.183642 c 0.150304,-0.0097 0.286824,-0.09116 0.362592,-0.222413 0.05925,-0.102305 0.07426,-0.224266 0.04408,-0.338009 -0.03095,-0.114394 -0.104233,-0.212206 -0.206598,-0.271333 -0.101718,-0.05954 -0.223023,-0.07462 -0.336139,-0.04395 -0.113753,0.03114 -0.211097,0.105496 -0.269815,0.207772 -0.121957,0.213473 -0.05016,0.486099 0.162984,0.608752 0.073,0.0436 0.157995,0.06343 0.242642,0.06012 z m 4.476397,-0.08552 c 0.207915,0 0.376547,-0.169028 0.376547,-0.378117 0,-0.100356 -0.03973,-0.196326 -0.109914,-0.267487 -0.07105,-0.07141 -0.166779,-0.111179 -0.266633,-0.111179 -0.09979,0 -0.195232,0.04069 -0.26599,0.111179 -0.07104,0.07141 -0.110576,0.167131 -0.109934,0.267487 0,0.209089 0.168719,0.378117 0.375924,0.378117 z m -0.94709,-0.09524 c 0.08727,0 0.171244,-0.03468 0.232492,-0.09719 0.06256,-0.06227 0.09605,-0.146181 0.09605,-0.233247 0,-0.08766 -0.03394,-0.172197 -0.09605,-0.23382 -0.06198,-0.06284 -0.145291,-0.09718 -0.232492,-0.09718 -0.181305,4.71e-4 -0.327919,0.14869 -0.327919,0.331027 0,0.181776 0.146614,0.329773 0.327919,0.330453 z m 2.047722,-0.03983 c 0.117542,0 0.230657,-0.04644 0.313431,-0.130248 0.08302,-0.08357 0.130132,-0.196983 0.130132,-0.31516 0,-0.11818 -0.0462,-0.231945 -0.130132,-0.315191 -0.08244,-0.08357 -0.195889,-0.130879 -0.313431,-0.130879 -0.117518,0 -0.229948,0.04654 -0.313349,0.13088 -0.08244,0.08308 -0.129553,0.197011 -0.129553,0.315191 0,0.118188 0.0462,0.231272 0.129553,0.31516 0.08302,0.08308 0.195831,0.130248 0.313349,0.130247 z m -6.608178,-0.177878 c 0.15093,-0.0097 0.288032,-0.09106 0.36325,-0.222416 0.05931,-0.102287 0.07478,-0.224321 0.04407,-0.338647 -0.03094,-0.114417 -0.10492,-0.211645 -0.206592,-0.270726 -0.212361,-0.122615 -0.48276,-0.05021 -0.605383,0.163303 -0.121842,0.213525 -0.05061,0.485456 0.161794,0.608732 0.07344,0.0433 0.157868,0.06345 0.242604,0.06022 z m 3.780757,-0.05334 c 0.07559,0 0.148516,-0.03052 0.202194,-0.08348 0.05346,-0.05369 0.08389,-0.127114 0.08389,-0.203328 -4.83e-4,-0.158236 -0.128235,-0.28656 -0.286256,-0.28656 -0.157312,0 -0.284273,0.128324 -0.284934,0.28656 0,0.158831 0.127622,0.287181 0.284934,0.287181 z m 4.032975,-0.211545 c 0.281772,0 0.509875,-0.229375 0.509875,-0.512796 0,-0.283377 -0.228103,-0.513412 -0.509875,-0.513412 -0.281776,0 -0.50987,0.230035 -0.50987,0.513412 0,0.283421 0.228094,0.512796 0.50987,0.512796 z m -5.112703,-0.280185 c 0.127593,-0.0097 0.243871,-0.07666 0.30829,-0.188714 0.103634,-0.181099 0.04219,-0.412359 -0.138335,-0.516572 -0.179489,-0.104212 -0.409422,-0.04245 -0.513689,0.138488 -0.103624,0.181099 -0.04272,0.412395 0.137123,0.516571 0.06268,0.03594 0.134555,0.05389 0.206611,0.05067 z m -1.297129,-0.183588 c 0.12824,-0.0097 0.243842,-0.07753 0.307643,-0.189423 0.103658,-0.180426 0.04311,-0.411731 -0.137081,-0.516571 -0.08652,-0.05088 -0.18957,-0.06343 -0.285542,-0.0369 -0.09673,0.02548 -0.178868,0.0897 -0.228737,0.176614 -0.103648,0.180507 -0.04311,0.411792 0.137694,0.516591 0.06276,0.03592 0.133936,0.05334 0.206023,0.05067 z m 4.056278,-0.300633 c 0.04779,-4.35e-4 0.09479,-0.0146 0.136471,-0.03865 0.136485,-0.07967 0.182618,-0.254805 0.104252,-0.392037 -0.07935,-0.137267 -0.253999,-0.183622 -0.389833,-0.104823 -0.136485,0.07968 -0.183274,0.255386 -0.104266,0.392042 0.05243,0.09116 0.149095,0.146127 0.253376,0.14358 z m 3.589392,-0.05291 c 0.157949,0 0.309588,-0.06343 0.421395,-0.176011 0.111846,-0.112512 0.174411,-0.264995 0.174411,-0.423856 0,-0.331033 -0.266637,-0.599798 -0.595806,-0.599798 -0.158586,0 -0.310245,0.06314 -0.422061,0.175368 -0.111788,0.112466 -0.175058,0.26493 -0.175058,0.42443 0,0.158861 0.06275,0.311344 0.175058,0.424461 0.111816,0.112429 0.263475,0.175383 0.422061,0.175383 z m -8.676207,-0.04448 c 0.127666,-0.0097 0.243851,-0.07744 0.308354,-0.18935 0.103564,-0.180438 0.04219,-0.411774 -0.13838,-0.5166 -0.180087,-0.104199 -0.409456,-0.04245 -0.513701,0.139141 -0.10365,0.180506 -0.04282,0.411745 0.137144,0.516608 0.06238,0.03593 0.134606,0.0536 0.206583,0.05059 z m 2.840665,-0.266254 c 0.111208,-0.0097 0.212988,-0.06703 0.26851,-0.165209 0.04379,-0.0753 0.05532,-0.165806 0.0335,-0.250339 -0.02235,-0.08493 -0.07781,-0.156922 -0.15289,-0.200765 -0.07548,-0.04361 -0.165552,-0.05555 -0.249581,-0.03388 -0.0839,0.02254 -0.156081,0.07821 -0.199679,0.153797 -0.0435,0.07608 -0.0552,0.166499 -0.03331,0.250997 0.02341,0.08425 0.07792,0.156941 0.153536,0.200808 0.05377,0.03219 0.116934,0.04653 0.180045,0.04361 z m 3.066859,-0.03219 c 0.04219,-0.0018 0.08263,-0.01313 0.118174,-0.03398 0.05648,-0.03344 0.09859,-0.08697 0.115635,-0.15057 0.01613,-0.06372 0.0097,-0.131546 -0.02476,-0.188714 -0.03365,-0.05661 -0.0865,-0.09849 -0.15036,-0.115661 -0.06313,-0.01662 -0.130794,-0.0097 -0.187687,0.0245 -0.117489,0.06965 -0.157949,0.220466 -0.08987,0.339319 0.04427,0.079 0.128892,0.126451 0.21925,0.124556 z m -4.364625,-0.153121 c 0.11184,-0.0097 0.212911,-0.06626 0.268553,-0.163967 0.04393,-0.0753 0.05526,-0.165823 0.03375,-0.250988 -0.0225,-0.08425 -0.07783,-0.15696 -0.152909,-0.200778 -0.07491,-0.04361 -0.164915,-0.05477 -0.249528,-0.03354 -0.08382,0.02364 -0.155429,0.07822 -0.19907,0.154421 -0.09055,0.157594 -0.03601,0.359656 0.1201,0.450512 0.05371,0.03211 0.116867,0.04662 0.179423,0.04361 z m 5.103231,-0.0059 c 0.03447,-0.0018 0.06931,-0.01168 0.09923,-0.02804 0.09981,-0.0574 0.133971,-0.186224 0.07626,-0.286585 -0.02718,-0.04795 -0.07308,-0.08357 -0.12698,-0.09787 -0.0531,-0.01467 -0.110547,-0.0097 -0.158611,0.02169 -0.04779,0.02725 -0.08244,0.07336 -0.0973,0.127718 -0.01458,0.05369 -0.0097,0.111198 0.02211,0.159508 0.03717,0.06557 0.109273,0.106704 0.185761,0.104815 z m -1.753905,-0.197066 c 0.0552,-0.0018 0.109306,-0.01521 0.157326,-0.04361 0.07482,-0.04396 0.130118,-0.116237 0.152861,-0.200758 0.02346,-0.08425 0.01144,-0.174775 -0.03331,-0.251028 -0.04355,-0.07549 -0.115645,-0.130877 -0.199664,-0.153069 -0.08379,-0.02363 -0.173774,-0.01168 -0.248939,0.03355 -0.157317,0.09165 -0.211043,0.292911 -0.120671,0.451108 0.06053,0.104134 0.171848,0.16773 0.291852,0.164502 z m -4.379153,-0.19817 c 0.111174,-0.0097 0.212304,-0.06625 0.268512,-0.163975 0.0434,-0.07588 0.05514,-0.166456 0.03322,-0.251009 -0.02351,-0.08425 -0.07782,-0.156883 -0.152826,-0.200747 -0.07557,-0.04361 -0.165621,-0.05477 -0.249652,-0.03355 -0.08382,0.02352 -0.156005,0.07822 -0.199599,0.154383 -0.09056,0.157603 -0.03601,0.359637 0.120083,0.450511 0.05455,0.03211 0.117483,0.04643 0.180619,0.04362 z m 2.910113,-0.02547 c 0.09733,-0.0078 0.185148,-0.05954 0.233834,-0.143631 0.03669,-0.06557 0.04779,-0.144236 0.02786,-0.217932 -0.0211,-0.07335 -0.06854,-0.135985 -0.133313,-0.174063 -0.06516,-0.03724 -0.143423,-0.04794 -0.21672,-0.02794 -0.07279,0.01982 -0.135207,0.06791 -0.173093,0.13409 -0.03712,0.06557 -0.04774,0.144245 -0.02786,0.217938 0.01979,0.07306 0.06758,0.135997 0.1333,0.174076 0.04668,0.02676 0.101046,0.04123 0.156013,0.03734 z m 2.470469,-0.06382 c 0.04774,-0.0018 0.09479,-0.0146 0.136447,-0.03734 0.136486,-0.07977 0.183255,-0.255426 0.104252,-0.392081 -0.07935,-0.13724 -0.253313,-0.18425 -0.389818,-0.104795 -0.136486,0.07968 -0.183226,0.25477 -0.104252,0.392003 0.05299,0.09038 0.149105,0.144877 0.253371,0.142978 z m 0.872528,-0.05603 c 0.04219,-0.0018 0.08195,-0.01314 0.117528,-0.03398 0.05616,-0.03344 0.09855,-0.08698 0.11563,-0.150579 0.01675,-0.06372 0.0097,-0.13155 -0.02423,-0.188716 -0.0335,-0.05661 -0.08727,-0.09912 -0.150413,-0.115644 -0.06275,-0.01654 -0.13078,-0.0097 -0.18762,0.0245 -0.05629,0.03344 -0.09798,0.08766 -0.115017,0.151152 -0.01656,0.06334 -0.0097,0.131562 0.02477,0.188725 0.04427,0.07832 0.128949,0.12584 0.219249,0.123964 z m -4.64071,-0.06305 c 0.09729,-0.0097 0.185114,-0.05954 0.233738,-0.144199 0.07932,-0.137221 0.03288,-0.312598 -0.104281,-0.392102 -0.06514,-0.0368 -0.143403,-0.04796 -0.216691,-0.02725 -0.07249,0.01982 -0.135197,0.068 -0.173093,0.133397 -0.07933,0.137262 -0.03288,0.312638 0.104261,0.392073 0.04664,0.02725 0.101698,0.04176 0.156066,0.03864 z m 2.336446,-0.392588 c 0.06295,-0.0018 0.124479,-0.01877 0.179465,-0.05127 0.179427,-0.10422 0.240704,-0.335498 0.137128,-0.516547 -0.103639,-0.180474 -0.333644,-0.242745 -0.513708,-0.138542 -0.0865,0.05068 -0.149738,0.132785 -0.175652,0.23002 -0.02544,0.09719 -0.01318,0.200137 0.03712,0.287249 0.06931,0.120059 0.197081,0.19245 0.334808,0.188674 z m -1.760264,0 c 0.08447,-0.0068 0.160503,-0.05087 0.202822,-0.1233 0.0335,-0.0567 0.04219,-0.125216 0.02477,-0.188743 -0.01641,-0.06382 -0.05925,-0.118145 -0.11564,-0.151193 -0.11815,-0.06791 -0.268515,-0.02689 -0.33683,0.09174 -0.03312,0.05606 -0.04219,0.124546 -0.02443,0.188065 0.01661,0.06401 0.05925,0.118182 0.114984,0.15121 0.04152,0.02425 0.08855,0.03442 0.135225,0.03308 z m -1.606717,-0.0097 c 0.0973,-0.0078 0.185771,-0.05856 0.234394,-0.143642 0.03664,-0.06509 0.04654,-0.144247 0.02704,-0.217287 -0.0197,-0.07345 -0.06758,-0.136578 -0.132648,-0.174756 -0.06528,-0.0368 -0.144056,-0.04795 -0.216706,-0.02794 -0.07301,0.02105 -0.135819,0.06888 -0.173144,0.134092 -0.03703,0.06547 -0.04788,0.144224 -0.02784,0.217959 0.01972,0.07316 0.06758,0.136569 0.132686,0.174102 0.04668,0.02689 0.101109,0.04134 0.156035,0.03734 z m 5.657356,-0.179923 c 0.04664,-0.0018 0.09412,-0.0146 0.135882,-0.03875 0.06526,-0.03698 0.113067,-0.100381 0.133309,-0.174093 0.01979,-0.07306 0.0097,-0.151885 -0.02786,-0.217953 -0.07935,-0.136655 -0.253342,-0.183643 -0.389832,-0.104833 -0.06516,0.03726 -0.113733,0.101013 -0.133338,0.174728 -0.01979,0.07286 -0.0097,0.151843 0.02786,0.217929 0.05249,0.09038 0.149723,0.14558 0.253984,0.142953 z m -1.051988,-0.05117 c 0.05456,-0.0018 0.108669,-0.0151 0.156056,-0.04361 0.07549,-0.04361 0.130818,-0.115624 0.153532,-0.200117 0.02235,-0.08493 0.01144,-0.175427 -0.03317,-0.250997 -0.0435,-0.07598 -0.115693,-0.131525 -0.199712,-0.154413 -0.08447,-0.02255 -0.174339,-0.01168 -0.249504,0.03355 -0.07548,0.04387 -0.130857,0.116305 -0.153551,0.200797 -0.02255,0.08425 -0.01052,0.174728 0.03346,0.25098 0.06101,0.104851 0.173117,0.167789 0.293174,0.164578 z m -4.028529,-0.16074 c 0.08382,-0.0078 0.159865,-0.05127 0.202194,-0.123903 0.03379,-0.05661 0.04219,-0.125168 0.02476,-0.188731 -0.01656,-0.06373 -0.05828,-0.118226 -0.114998,-0.151262 -0.05629,-0.03344 -0.124455,-0.04245 -0.187682,-0.02449 -0.0629,0.0169 -0.11745,0.05954 -0.150316,0.116314 -0.03365,0.0567 -0.04219,0.124527 -0.02448,0.188706 0.01656,0.06333 0.05816,0.117562 0.114993,0.150589 0.04152,0.0244 0.08863,0.03467 0.135906,0.0337 z m 0.557939,-0.224942 c 0.07094,-0.0059 0.135201,-0.04317 0.171248,-0.104232 0.05714,-0.100382 0.02337,-0.228694 -0.07707,-0.286568 -0.04774,-0.02794 -0.104884,-0.03572 -0.15861,-0.02187 -0.05333,0.01488 -0.09916,0.05031 -0.127004,0.0979 -0.02704,0.04795 -0.03476,0.10542 -0.02139,0.159403 0.01448,0.05389 0.05006,0.0998 0.09728,0.127756 0.03476,0.02112 0.07478,0.03053 0.115027,0.02675 z m 1.50945,-0.166507 c 0.07346,-0.0028 0.146537,-0.02352 0.210995,-0.06071 0.211636,-0.12326 0.28491,-0.395245 0.162356,-0.608716 -0.05925,-0.102319 -0.155409,-0.177275 -0.269113,-0.207783 -0.113738,-0.03175 -0.234423,-0.01477 -0.336763,0.04405 -0.101785,0.05954 -0.175676,0.156297 -0.206012,0.270678 -0.0309,0.114394 -0.01419,0.236404 0.04379,0.338653 0.08137,0.141063 0.231874,0.226264 0.394273,0.223075 z m 2.818514,-0.146101 c 0.05552,-0.0018 0.109335,-0.01521 0.157307,-0.04363 0.07491,-0.04361 0.130813,-0.115695 0.152962,-0.200868 0.02351,-0.08425 0.0113,-0.174688 -0.03365,-0.250308 -0.0433,-0.07588 -0.115008,-0.131549 -0.199669,-0.154421 -0.08379,-0.02371 -0.173745,-0.01168 -0.248944,0.03369 -0.07549,0.04361 -0.130794,0.116219 -0.153522,0.2008 -0.02346,0.08425 -0.01154,0.174724 0.03346,0.250978 0.06043,0.104201 0.171871,0.167652 0.291895,0.164569 z m -1.288893,-0.102308 c 0.06295,-0.0018 0.125049,-0.01875 0.179427,-0.05076 0.0865,-0.05127 0.149752,-0.133417 0.175029,-0.229975 0.02539,-0.09719 0.01318,-0.200818 -0.03712,-0.287867 -0.103595,-0.180434 -0.333562,-0.242048 -0.51366,-0.137883 -0.179456,0.104872 -0.24136,0.336152 -0.137775,0.516579 0.06931,0.120187 0.197197,0.192559 0.3349,0.189396 z m -2.569671,-0.479104 c 0.08512,-0.0036 0.168729,-0.02558 0.242683,-0.06878 0.11746,-0.06801 0.202783,-0.180486 0.238145,-0.311994 0.03476,-0.131537 0.01656,-0.271341 -0.05146,-0.389466 -0.06757,-0.118235 -0.178785,-0.204019 -0.309579,-0.238955 -0.130813,-0.03486 -0.270388,-0.01654 -0.387269,0.05174 -0.243909,0.141747 -0.32731,0.454967 -0.186398,0.700233 0.09277,0.162645 0.267222,0.261158 0.453624,0.257331 z m 3.42831,-0.218584 c 0.06274,-0.0028 0.124484,-0.01875 0.179442,-0.05165 0.179436,-0.104256 0.240722,-0.335528 0.137117,-0.516589 -0.103653,-0.180532 -0.333624,-0.242806 -0.513669,-0.138595 -0.180113,0.104224 -0.24136,0.335473 -0.13776,0.51662 0.06854,0.12009 0.197091,0.193161 0.33487,0.189988 z m -1.581478,-0.09214 c 0.07423,-0.0028 0.147256,-0.02254 0.21167,-0.06042 0.211685,-0.12261 0.284326,-0.395234 0.1624,-0.608747 -0.05925,-0.102286 -0.156076,-0.177285 -0.269162,-0.207746 -0.113728,-0.03114 -0.235074,-0.01459 -0.336772,0.04394 -0.101689,0.05954 -0.176275,0.156932 -0.206616,0.271322 -0.0309,0.113783 -0.01419,0.235741 0.04427,0.338019 0.08128,0.141075 0.23183,0.226259 0.393612,0.222413 z m -3.240614,-0.227478 c 0.0992,-0.0036 0.197149,-0.03114 0.28308,-0.08104 0.284948,-0.165233 0.3829,-0.531818 0.218593,-0.818412 -0.16492,-0.286548 -0.529422,-0.385106 -0.814428,-0.219185 -0.284968,0.165174 -0.38222,0.531774 -0.217905,0.818371 0.108594,0.189988 0.312052,0.305012 0.53066,0.299932 z m 4.099253,-0.470863 c 0.07356,-0.0028 0.146609,-0.02264 0.211043,-0.06013 0.21236,-0.122643 0.284977,-0.395282 0.162385,-0.60876 -0.05925,-0.102307 -0.155438,-0.177271 -0.269167,-0.207792 -0.113694,-0.03106 -0.234379,-0.01431 -0.336729,0.04405 -0.101741,0.05954 -0.175642,0.156308 -0.206002,0.270699 -0.03119,0.114371 -0.01439,0.236384 0.04393,0.338701 0.08157,0.141055 0.232501,0.226171 0.39422,0.222353 z m -1.898617,-0.02927 c 0.08505,-0.0028 0.169352,-0.02557 0.242605,-0.06878 0.244566,-0.141667 0.327909,-0.454941 0.187687,-0.700895 -0.06757,-0.117473 -0.17946,-0.203886 -0.310235,-0.239502 -0.130808,-0.03432 -0.269804,-0.01618 -0.387293,0.05165 -0.117494,0.06801 -0.202826,0.180436 -0.237565,0.311996 -0.03476,0.131557 -0.01613,0.271305 0.05133,0.389512 0.09345,0.162049 0.26726,0.260533 0.453654,0.256057 z"
     id="start-here-kde-9-7-3" />
</svg>
