<?xml version="1.0" encoding="UTF-8" standalone="no"?>
<svg
   viewBox="0 0 32 32"
   version="1.1"
   id="svg12"
   sodipodi:docname="folder-comic.svg"
   inkscape:version="1.2.1 (9c6d41e410, 2022-07-14)"
   xmlns:inkscape="http://www.inkscape.org/namespaces/inkscape"
   xmlns:sodipodi="http://sodipodi.sourceforge.net/DTD/sodipodi-0.dtd"
   xmlns:xlink="http://www.w3.org/1999/xlink"
   xmlns="http://www.w3.org/2000/svg"
   xmlns:svg="http://www.w3.org/2000/svg"
   xmlns:rdf="http://www.w3.org/1999/02/22-rdf-syntax-ns#"
   xmlns:cc="http://creativecommons.org/ns#"
   xmlns:dc="http://purl.org/dc/elements/1.1/">
  <metadata
     id="metadata16">
    <rdf:RDF>
      <cc:Work
         rdf:about="">
        <dc:format>image/svg+xml</dc:format>
        <dc:type
           rdf:resource="http://purl.org/dc/dcmitype/StillImage" />
      </cc:Work>
    </rdf:RDF>
  </metadata>
  <sodipodi:namedview
     pagecolor="#ffffff"
     bordercolor="#666666"
     borderopacity="1"
     objecttolerance="10"
     gridtolerance="10"
     guidetolerance="10"
     inkscape:pageopacity="0"
     inkscape:pageshadow="2"
     inkscape:window-width="1920"
     inkscape:window-height="1004"
     id="namedview14"
     showgrid="true"
     inkscape:zoom="10.429825"
     inkscape:cx="-6.0883092"
     inkscape:cy="13.087468"
     inkscape:window-x="0"
     inkscape:window-y="0"
     inkscape:window-maximized="1"
     inkscape:current-layer="svg12"
     inkscape:showpageshadow="2"
     inkscape:pagecheckerboard="0"
     inkscape:deskcolor="#d1d1d1">
    <inkscape:grid
       type="xygrid"
       id="grid18219" />
  </sodipodi:namedview>
  <defs
     id="defs3051">
    <style
       type="text/css"
       id="current-color-scheme">.ColorScheme-Text { color:#31363b; }
.ColorScheme-Background { color:#eff0f1; }
.ColorScheme-Highlight { color:#3daee9; }
.ColorScheme-ViewText { color:#31363b; }
.ColorScheme-ViewBackground { color:#fcfcfc; }
.ColorScheme-ViewHover { color:#93cee9; }
.ColorScheme-ViewFocus { color:#3daee9; }
.ColorScheme-ButtonText { color:#31363b; }
.ColorScheme-ButtonBackground { color:#eff0f1; }
.ColorScheme-ButtonHover { color:#93cee9; }
.ColorScheme-ButtonFocus { color:#3daee9; }
</style>
    <linearGradient
       inkscape:collect="always"
       id="linearGradient4393">
      <stop
         style="stop-color:#000000;stop-opacity:1;"
         offset="0"
         id="stop4395" />
      <stop
         style="stop-color:#000000;stop-opacity:0;"
         offset="1"
         id="stop4397" />
    </linearGradient>
    <linearGradient
       inkscape:collect="always"
       xlink:href="#linearGradient886"
       id="linearGradient888"
       x1="75.75985"
       y1="208.49026"
       x2="91.646347"
       y2="264.21182"
       gradientUnits="userSpaceOnUse"
       gradientTransform="matrix(0.35313238,0,0,0.35449418,-12.501251,-68.908536)" />
    <linearGradient
       inkscape:collect="always"
       id="linearGradient886">
      <stop
         style="stop-color:#8d5fd3;stop-opacity:1"
         offset="0"
         id="stop882" />
      <stop
         style="stop-color:#c6afe9;stop-opacity:1;"
         offset="0.48468637"
         id="stop1402" />
      <stop
         style="stop-color:#ff80e5;stop-opacity:0.80000001;"
         offset="1"
         id="stop884" />
    </linearGradient>
    <filter
       inkscape:collect="always"
       style="color-interpolation-filters:sRGB"
       id="filter1881"
       x="-0.09064882"
       width="1.1812976"
       y="-0.40803665"
       height="1.8160733">
      <feGaussianBlur
         inkscape:collect="always"
         stdDeviation="0.85615684"
         id="feGaussianBlur1883" />
    </filter>
    <inkscape:path-effect
       effect="fillet_chamfer"
       id="path-effect1331"
       is_visible="true"
       lpeversion="1"
       satellites_param="F,0,0,1,0,2.1166667,0,1 @ F,0,0,1,0,2.1166667,0,1 @ F,0,0,1,0,2.1166667,0,1 @ F,0,0,1,0,2.1166667,0,1"
       unit="px"
       method="arc"
       mode="F"
       radius="8"
       chamfer_steps="1"
       flexible="false"
       use_knot_distance="true"
       apply_no_radius="true"
       apply_with_radius="true"
       only_selected="false"
       hide_knots="false"
       nodesatellites_param="F,0,0,1,0,2.1166667,0,1 @ F,0,0,1,0,2.1166667,0,1 @ F,0,0,1,0,2.1166667,0,1 @ F,0,0,1,0,2.1166667,0,1" />
    <linearGradient
       inkscape:collect="always"
       xlink:href="#linearGradient852"
       id="linearGradient854-7"
       x1="60.785271"
       y1="237.0743"
       x2="109.3987"
       y2="265.49255"
       gradientUnits="userSpaceOnUse"
       gradientTransform="matrix(0.35313238,0,0,0.35449418,-12.519905,-68.908536)" />
    <linearGradient
       inkscape:collect="always"
       id="linearGradient852">
      <stop
         style="stop-color:#eeaaff;stop-opacity:1"
         offset="0"
         id="stop848" />
      <stop
         style="stop-color:#8d5fd3;stop-opacity:1"
         offset="1"
         id="stop850" />
    </linearGradient>
    <linearGradient
       inkscape:collect="always"
       xlink:href="#linearGradient4393"
       id="linearGradient1532"
       x1="23"
       y1="0"
       x2="41"
       y2="48"
       gradientUnits="userSpaceOnUse"
       gradientTransform="matrix(0.4827579,0,0,0.48652739,0.551726,0.426643)" />
  </defs>
  <path
     id="rect10"
     style="fill:url(#linearGradient888);fill-opacity:1;stroke-width:0.0579115"
     d="M 3.494981,5 C 2.669271,5 2,5.671909 2,6.500718 V 7.979275 25.499267 C 2,26.328047 2.669271,27 3.494981,27 h 25.010087 c 0.825612,0 1.49485,-0.671948 1.49485,-1.500733 L 29.997518,9.595913 C 29.933988,8.773905 30.029038,6.87587 27.226246,6.87587 H 14.50701 c 0.01168,0 -0.921894,-0.84414 -1.752933,-1.347326 C 12.090169,5.093715 11.193139,5 11.193139,5 Z"
     sodipodi:nodetypes="scccscccccccs" />
  <path
     style="opacity:0.309598;fill:#000000;fill-opacity:1;stroke:none;stroke-width:0.144851;stroke-opacity:1;filter:url(#filter1881)"
     id="rect873"
     width="22.667437"
     height="5.0357642"
     x="46.507095"
     y="222.89639"
     transform="matrix(0.50789027,0,0,0.68368449,-20.536529,-142.10558)"
     inkscape:path-effect="#path-effect1331"
     d="m 48.623762,222.89639 h 18.434103 a 2.1166667,2.1166667 45 0 1 2.116667,2.11667 v 0.80243 a 2.1166667,2.1166667 135 0 1 -2.116667,2.11667 l -18.434103,0 a 2.1166667,2.1166667 45 0 1 -2.116667,-2.11667 v -0.80243 a 2.1166667,2.1166667 135 0 1 2.116667,-2.11667 z"
     sodipodi:type="rect" />
  <path
     id="rect851"
     style="fill:#8d5fd3;fill-opacity:1;stroke-width:0.0936051"
     d="m 14.478402,8.480364 v 1.48729 h -3.486273 c 1.721976,-0.0044 2.184439,-0.510027 3.486273,-1.48729 z m 0,0 h 13.956062 c 0.822383,-0.0039 1.562287,0.662645 1.565449,1.48729 H 14.478402 Z m -10.98333,1.48729 h 26.504846 v 15.064508 c 0,0.827934 -0.669238,1.499059 -1.49485,1.499059 H 3.495072 c -0.825709,0 -1.49498,-0.671125 -1.49498,-1.499059 V 11.466805 c 0,-0.827977 0.669271,-1.499151 1.49498,-1.499151 z"
     sodipodi:nodetypes="cccccccccccccsccc" />
  <path
     id="rect851-3"
     style="fill:url(#linearGradient854-7);fill-opacity:1;stroke-width:0.0936449"
     d="m 14.651852,9.072604 -0.03785,1.554976 -3.447803,-0.0661 c 1.722016,-0.0044 2.184387,-0.51062 3.486201,-1.488881 z m 0,0 h 13.853235 c 0.822364,-0.0039 1.491674,0.663307 1.494865,1.488881 l -15.386503,0.0661 z M 3.495096,10.561485 h 26.504861 v 14.471329 c 0,0.828853 -0.669248,1.500733 -1.49487,1.500728 H 3.495096 c -0.825718,5e-6 -1.49499,-0.671875 -1.49499,-1.500728 V 12.062237 c 0,-0.828819 0.669272,-1.500752 1.49499,-1.500752 z"
     sodipodi:nodetypes="cccccccccccsccssc" />
  <path
     style="opacity:0.182671;fill:url(#linearGradient1532);fill-opacity:1;fill-rule:evenodd;stroke:none;stroke-width:1.71705px;stroke-linecap:butt;stroke-linejoin:miter;stroke-opacity:1"
     d="M 3.448327,10.546412 15.982526,23.94524 H 29.965 L 30,10.546412 H 3.476703 Z"
     id="path4152-2-5"
     inkscape:connector-curvature="0"
     sodipodi:nodetypes="cccccc" />
  <rect
     style="fill:#ffffff;fill-opacity:0.25;stroke:#e5e9ef;stroke-width:0.28132;stroke-opacity:0.5;paint-order:markers fill stroke"
     id="rect2191"
     width="27.758579"
     height="3.5499221e-07"
     x="2.120743"
     y="23.629248" />
  <rect
     style="fill:#ffffff;fill-opacity:0.5;stroke:#e5e9ef;stroke-width:0.28132;stroke-opacity:0.5;paint-order:markers fill stroke"
     id="rect2191-0-9"
     width="27.758579"
     height="3.5499221e-07"
     x="2.120743"
     y="25.088831" />
  <path
     fill-rule="evenodd"
     clip-rule="evenodd"
     d="m 20.448496,18.636711 c -0.190419,0 -0.344979,0.155606 -0.344979,0.347161 v 0.173949 c 0,0.479857 -0.38609,0.868816 -0.861916,0.868816 -0.188406,0 -0.362468,-0.0608 -0.504245,-0.16414 -3.14e-4,0 0,0 -3.14e-4,0 l -0.820331,-0.61985 c -0.0096,-0.0076 -0.01738,-0.01309 -0.02684,-0.02058 -0.331355,-0.253535 -0.545005,-0.654964 -0.545005,-1.10687 v -0.694693 c 0,-0.479862 -0.385926,-0.869118 -0.862065,-0.869118 h -4.482557 c -0.476159,0 -0.862394,0.389256 -0.862394,0.869118 v 2.432603 c 0,0.380435 0.244309,0.700011 0.582587,0.817906 0.01337,0.03196 0.04702,0.05079 0.107182,0.05079 0.255331,0 0.689803,0.388784 0.689803,0.868637 v 0.347667 c 0,0.09573 0.07712,0.173613 0.172229,0.173613 0.03674,0 0.07021,-0.01134 0.0983,-0.03089 4.83e-4,0 0,3.16e-4 0,3.16e-4 l 1.450123,-1.095957 c 0.216512,-0.165283 0.486431,-0.263216 0.779388,-0.263216 h 1.292918 c 0.190448,0 0.344867,0.155441 0.344867,0.347502 0,0.191571 -0.154419,0.347182 -0.344867,0.347182 h -1.206958 c -0.197148,0 -0.379235,0.06671 -0.524116,0.179572 l -1.384955,1.046774 h -2.89e-4 c -0.141941,0.103168 -0.316072,0.163896 -0.504396,0.163896 -0.476158,0 -0.862027,-0.388774 -0.862027,-0.868627 v -0.174113 c 0,-0.191517 -0.154303,-0.347502 -0.344838,-0.347502 -0.03809,0 -0.0463,-0.02228 -0.0364,-0.05534 -0.576128,-0.166612 -0.998141,-0.700245 -0.998141,-1.334511 v -2.78011 c 0,-0.76784 0.617327,-1.389934 1.379114,-1.389934 h 4.827637 c 0.761695,0 1.379447,0.622113 1.379447,1.389931 v 0.868573 c 0,0.227909 0.108635,0.430173 0.276509,0.556947 l 0.831888,0.628827 c 4.69e-4,0 -3.23e-4,-3.26e-4 0,-3.26e-4 0.02805,0.01951 0.06197,0.0307 0.09849,0.0307 0.09516,0 0.172272,-0.07768 0.172272,-0.173559 v -0.347502 c 0,-0.479876 0.434381,-0.868801 0.689653,-0.868801 0.332519,0 0.689456,-0.388755 0.689456,-0.868612 v -2.432613 c 0,-0.480032 -0.385709,-0.868792 -0.861906,-0.868792 h -4.482789 c -0.476163,0 -0.861955,0.38876 -0.861955,0.868792 v 0.173613 c 0,0.191901 -0.154309,0.347516 -0.34495,0.347516 -0.190496,0 -0.344819,-0.155615 -0.344819,-0.347516 v -0.347721 c 0,-0.767663 0.617703,-1.389863 1.379495,-1.389863 h 4.827468 c 0.761869,0 1.379283,0.6222 1.379283,1.389863 v 2.780314 c 0,0.767662 -0.545695,1.390203 -1.034319,1.390203 z m -2.758758,1.389926 c 0.190254,0 0.344988,0.155601 0.344988,0.347502 0,0.192052 -0.154734,0.347663 -0.344988,0.347663 -0.19039,0 -0.344825,-0.155611 -0.344825,-0.347663 0,-0.191901 0.154435,-0.347502 0.344825,-0.347502 z"
     id="path1947-1-3"
     style="fill:#ffffff;fill-opacity:1;stroke-width:0.0216352" />
</svg>
