<?xml version="1.0" encoding="UTF-8" standalone="no"?>
<svg
   viewBox="0 0 32 32"
   version="1.1"
   id="svg12"
   sodipodi:docname="folder-android.svg"
   inkscape:version="1.2.1 (9c6d41e410, 2022-07-14)"
   xmlns:inkscape="http://www.inkscape.org/namespaces/inkscape"
   xmlns:sodipodi="http://sodipodi.sourceforge.net/DTD/sodipodi-0.dtd"
   xmlns:xlink="http://www.w3.org/1999/xlink"
   xmlns="http://www.w3.org/2000/svg"
   xmlns:svg="http://www.w3.org/2000/svg"
   xmlns:rdf="http://www.w3.org/1999/02/22-rdf-syntax-ns#"
   xmlns:cc="http://creativecommons.org/ns#"
   xmlns:dc="http://purl.org/dc/elements/1.1/">
  <metadata
     id="metadata16">
    <rdf:RDF>
      <cc:Work
         rdf:about="">
        <dc:format>image/svg+xml</dc:format>
        <dc:type
           rdf:resource="http://purl.org/dc/dcmitype/StillImage" />
      </cc:Work>
    </rdf:RDF>
  </metadata>
  <sodipodi:namedview
     pagecolor="#ffffff"
     bordercolor="#666666"
     borderopacity="1"
     objecttolerance="10"
     gridtolerance="10"
     guidetolerance="10"
     inkscape:pageopacity="0"
     inkscape:pageshadow="2"
     inkscape:window-width="1920"
     inkscape:window-height="1004"
     id="namedview14"
     showgrid="true"
     inkscape:zoom="10.429825"
     inkscape:cx="-0.62321276"
     inkscape:cy="31.687972"
     inkscape:window-x="0"
     inkscape:window-y="0"
     inkscape:window-maximized="1"
     inkscape:current-layer="svg12"
     inkscape:showpageshadow="2"
     inkscape:pagecheckerboard="0"
     inkscape:deskcolor="#d1d1d1">
    <inkscape:grid
       type="xygrid"
       id="grid18219" />
  </sodipodi:namedview>
  <defs
     id="defs3051">
    <style
       type="text/css"
       id="current-color-scheme">.ColorScheme-Text { color:#31363b; }
.ColorScheme-Background { color:#eff0f1; }
.ColorScheme-Highlight { color:#3daee9; }
.ColorScheme-ViewText { color:#31363b; }
.ColorScheme-ViewBackground { color:#fcfcfc; }
.ColorScheme-ViewHover { color:#93cee9; }
.ColorScheme-ViewFocus { color:#3daee9; }
.ColorScheme-ButtonText { color:#31363b; }
.ColorScheme-ButtonBackground { color:#eff0f1; }
.ColorScheme-ButtonHover { color:#93cee9; }
.ColorScheme-ButtonFocus { color:#3daee9; }
</style>
    <linearGradient
       inkscape:collect="always"
       id="linearGradient4393">
      <stop
         style="stop-color:#000000;stop-opacity:1;"
         offset="0"
         id="stop4395" />
      <stop
         style="stop-color:#000000;stop-opacity:0;"
         offset="1"
         id="stop4397" />
    </linearGradient>
    <linearGradient
       inkscape:collect="always"
       xlink:href="#linearGradient886"
       id="linearGradient888"
       x1="75.75985"
       y1="208.49026"
       x2="91.646347"
       y2="264.21182"
       gradientUnits="userSpaceOnUse"
       gradientTransform="matrix(0.35313288,0,0,0.35449416,-12.501269,-68.908533)" />
    <linearGradient
       inkscape:collect="always"
       id="linearGradient886">
      <stop
         style="stop-color:#a4e619;stop-opacity:1;"
         offset="0"
         id="stop882" />
      <stop
         style="stop-color:#86cfda;stop-opacity:1"
         offset="0.48468637"
         id="stop1402" />
      <stop
         style="stop-color:#1dc8e2;stop-opacity:1;"
         offset="1"
         id="stop884" />
    </linearGradient>
    <filter
       inkscape:collect="always"
       style="color-interpolation-filters:sRGB"
       id="filter1881"
       x="-0.09064882"
       width="1.1812976"
       y="-0.40803665"
       height="1.8160733">
      <feGaussianBlur
         inkscape:collect="always"
         stdDeviation="0.85615684"
         id="feGaussianBlur1883" />
    </filter>
    <inkscape:path-effect
       effect="fillet_chamfer"
       id="path-effect1331"
       is_visible="true"
       lpeversion="1"
       satellites_param="F,0,0,1,0,2.1166667,0,1 @ F,0,0,1,0,2.1166667,0,1 @ F,0,0,1,0,2.1166667,0,1 @ F,0,0,1,0,2.1166667,0,1"
       unit="px"
       method="arc"
       mode="F"
       radius="8"
       chamfer_steps="1"
       flexible="false"
       use_knot_distance="true"
       apply_no_radius="true"
       apply_with_radius="true"
       only_selected="false"
       hide_knots="false"
       nodesatellites_param="F,0,0,1,0,2.1166667,0,1 @ F,0,0,1,0,2.1166667,0,1 @ F,0,0,1,0,2.1166667,0,1 @ F,0,0,1,0,2.1166667,0,1" />
    <linearGradient
       inkscape:collect="always"
       xlink:href="#linearGradient852"
       id="linearGradient854-7"
       x1="98.534538"
       y1="264.21182"
       x2="71.193069"
       y2="229.90044"
       gradientUnits="userSpaceOnUse"
       gradientTransform="matrix(0.35313288,0,0,0.35449416,-12.519922,-68.908533)" />
    <linearGradient
       inkscape:collect="always"
       id="linearGradient852">
      <stop
         style="stop-color:#36cee6;stop-opacity:1;"
         offset="0"
         id="stop848" />
      <stop
         style="stop-color:#caf174;stop-opacity:1;"
         offset="1"
         id="stop850" />
    </linearGradient>
    <linearGradient
       inkscape:collect="always"
       xlink:href="#linearGradient4393"
       id="linearGradient668-3"
       gradientUnits="userSpaceOnUse"
       gradientTransform="matrix(1.7478123,0,0,1.686832,2.0000218,-1749.5261)"
       x1="5"
       y1="1037.3622"
       x2="8"
       y2="1051.3622" />
  </defs>
  <path
     id="rect10"
     style="fill:url(#linearGradient888);fill-opacity:1;stroke-width:0.0579115"
     d="M 3.494983,5 C 2.6692722,5 2,5.6719089 2,6.5007181 V 7.9792749 25.499267 C 2,26.328047 2.6692722,27 3.494983,27 h 25.010126 c 0.825613,0 1.494852,-0.671948 1.494852,-1.500733 L 29.997581,9.5959129 C 29.934051,8.7739054 30.029106,6.8758696 27.226303,6.8758696 H 14.507048 c 0.01168,0 -0.921895,-0.8441396 -1.752936,-1.3473257 C 12.090172,5.0937149 11.193139,5 11.193139,5 Z"
     sodipodi:nodetypes="scccscccccccs" />
  <path
     style="opacity:0.309598;fill:#000000;fill-opacity:1;stroke:none;stroke-width:0.144851;stroke-opacity:1;filter:url(#filter1881)"
     id="rect873"
     width="22.667437"
     height="5.0357642"
     x="46.507095"
     y="222.89639"
     transform="matrix(0.50789103,0,0,0.6836845,-20.536567,-142.10558)"
     inkscape:path-effect="#path-effect1331"
     d="m 48.623762,222.89639 h 18.434103 a 2.1166667,2.1166667 45 0 1 2.116667,2.11667 v 0.80243 a 2.1166667,2.1166667 135 0 1 -2.116667,2.11667 l -18.434103,0 a 2.1166667,2.1166667 45 0 1 -2.116667,-2.11667 v -0.80243 a 2.1166667,2.1166667 135 0 1 2.116667,-2.11667 z"
     sodipodi:type="rect" />
  <path
     id="rect851"
     style="fill:#9bd916;fill-opacity:1;stroke-width:0.0936051"
     d="M 14.478421,8.4803639 V 9.967654 h -3.48628 c 1.721982,-0.0044 2.184446,-0.5100268 3.48628,-1.4872901 z m 0,0 h 13.956084 c 0.822385,-0.00389 1.562288,0.6626456 1.565452,1.4872901 H 14.478421 Z M 3.4950743,9.967654 H 29.999961 v 15.064509 c 0,0.827933 -0.669239,1.499058 -1.494852,1.499058 H 3.4950743 c -0.8257099,0 -1.494982,-0.671125 -1.494982,-1.499058 V 11.466805 c 0,-0.827977 0.6692721,-1.499151 1.494982,-1.499151 z"
     sodipodi:nodetypes="cccccccccccccsccc" />
  <path
     id="rect851-3"
     style="fill:url(#linearGradient854-7);fill-opacity:1;stroke-width:0.0936449"
     d="m 14.651872,9.0726041 -0.03784,1.5549759 -3.447808,-0.0661 c 1.722019,-0.0044 2.184391,-0.51062 3.486208,-1.4888811 z m 0,0 h 13.853256 c 0.822365,-0.00389 1.491675,0.6633071 1.494867,1.4888809 l -15.386526,0.0661 z M 3.4950992,10.561485 H 30 v 14.471329 c 0,0.828853 -0.669249,1.500733 -1.494872,1.500728 H 3.4950992 c -0.8257198,5e-6 -1.4949931,-0.671875 -1.4949931,-1.500728 V 12.062237 c 0,-0.828819 0.6692733,-1.500752 1.4949931,-1.500752 z"
     sodipodi:nodetypes="cccccccccccsccssc" />
  <path
     style="opacity:0.181;fill:url(#linearGradient668-3);fill-opacity:1;fill-rule:evenodd;stroke:none;stroke-width:1.71705px;stroke-linecap:butt;stroke-linejoin:miter;stroke-opacity:1"
     d="M 3.4482756,10.546412 15.982496,23.945241 h 13.982495 l 0.035,-13.398829 H 3.4766521 Z"
     id="path4152-2-5"
     inkscape:connector-curvature="0"
     sodipodi:nodetypes="cccccc" />
  <rect
     style="fill:#ffffff;fill-opacity:0.25;stroke:#e5e9ef;stroke-width:0.281321;stroke-opacity:0.5;paint-order:markers fill stroke"
     id="rect2191"
     width="27.758621"
     height="3.5499221e-07"
     x="2.1206896"
     y="23.629246" />
  <rect
     style="fill:#ffffff;fill-opacity:0.5;stroke:#e5e9ef;stroke-width:0.281321;stroke-opacity:0.5;paint-order:markers fill stroke"
     id="rect2191-0-9"
     width="27.758621"
     height="3.5499221e-07"
     x="2.1206896"
     y="25.088827" />
  <path
     style="color:#232629;fill:#ffffff;fill-opacity:1;stroke:none;stroke-width:0.484641"
     d="m 15.994637,14.04941 c -1.448277,3.64e-4 -2.800001,0.583832 -3.813794,1.654193 l -1.303448,-1.313624 c -0.04829,-0.04865 -0.09654,-0.09731 -0.193104,-0.09731 -0.193103,4.3e-5 -0.337931,0.243263 -0.144828,0.437874 l 1.351725,1.362277 c -0.772414,0.973056 -1.158622,2.140721 -1.158622,3.35704 v 3.405691 h 10.62069 V 19.44986 c 0,-1.216319 -0.434482,-2.383984 -1.15862,-3.35704 l 1.351723,-1.362277 c 0.144828,-0.145958 0.04829,-0.389222 -0.144825,-0.437874 -0.04829,0 -0.144829,0 -0.193106,0.09731 l -1.303447,1.313624 C 18.794636,14.633242 17.442912,14.04941 15.994637,14.04941 Z m 0,0.486527 c 2.655171,0 4.827585,2.178256 4.827585,4.865274 v 2.919164 h -9.655171 v -2.919164 c 0,-2.675901 2.161382,-4.865274 4.827586,-4.865274 z m -2.172415,2.432637 c -0.386207,0 -0.724138,0.340569 -0.724138,0.729791 0,0.389222 0.337931,0.729791 0.724138,0.729791 0.386207,0 0.724138,-0.340569 0.724138,-0.729791 0,-0.389222 -0.337931,-0.729791 -0.724138,-0.729791 z m 4.344829,0 c -0.386208,0 -0.724139,0.340569 -0.724139,0.729791 0,0.389222 0.337931,0.729791 0.724139,0.729791 0.386205,0 0.724136,-0.340569 0.724136,-0.729791 0,-0.389222 -0.337931,-0.729791 -0.724136,-0.729791 z"
     class="ColorScheme-Text"
     id="path12-3" />
</svg>
