<?xml version="1.0" encoding="UTF-8" standalone="no"?>
<svg
   viewBox="0 0 32 32"
   version="1.1"
   id="svg12"
   sodipodi:docname="folder-Relax.svg"
   inkscape:version="1.2.1 (9c6d41e410, 2022-07-14)"
   xmlns:inkscape="http://www.inkscape.org/namespaces/inkscape"
   xmlns:sodipodi="http://sodipodi.sourceforge.net/DTD/sodipodi-0.dtd"
   xmlns:xlink="http://www.w3.org/1999/xlink"
   xmlns="http://www.w3.org/2000/svg"
   xmlns:svg="http://www.w3.org/2000/svg"
   xmlns:rdf="http://www.w3.org/1999/02/22-rdf-syntax-ns#"
   xmlns:cc="http://creativecommons.org/ns#"
   xmlns:dc="http://purl.org/dc/elements/1.1/">
  <metadata
     id="metadata16">
    <rdf:RDF>
      <cc:Work
         rdf:about="">
        <dc:format>image/svg+xml</dc:format>
        <dc:type
           rdf:resource="http://purl.org/dc/dcmitype/StillImage" />
      </cc:Work>
    </rdf:RDF>
  </metadata>
  <sodipodi:namedview
     pagecolor="#ffffff"
     bordercolor="#666666"
     borderopacity="1"
     objecttolerance="10"
     gridtolerance="10"
     guidetolerance="10"
     inkscape:pageopacity="0"
     inkscape:pageshadow="2"
     inkscape:window-width="1920"
     inkscape:window-height="1004"
     id="namedview14"
     showgrid="true"
     inkscape:zoom="10.429825"
     inkscape:cx="-16.539108"
     inkscape:cy="14.142136"
     inkscape:window-x="0"
     inkscape:window-y="0"
     inkscape:window-maximized="1"
     inkscape:current-layer="svg12"
     inkscape:showpageshadow="2"
     inkscape:pagecheckerboard="0"
     inkscape:deskcolor="#d1d1d1">
    <inkscape:grid
       type="xygrid"
       id="grid18219" />
  </sodipodi:namedview>
  <defs
     id="defs3051">
    <style
       type="text/css"
       id="current-color-scheme">.ColorScheme-Text { color:#31363b; }
.ColorScheme-Background { color:#eff0f1; }
.ColorScheme-Highlight { color:#3daee9; }
.ColorScheme-ViewText { color:#31363b; }
.ColorScheme-ViewBackground { color:#fcfcfc; }
.ColorScheme-ViewHover { color:#93cee9; }
.ColorScheme-ViewFocus { color:#3daee9; }
.ColorScheme-ButtonText { color:#31363b; }
.ColorScheme-ButtonBackground { color:#eff0f1; }
.ColorScheme-ButtonHover { color:#93cee9; }
.ColorScheme-ButtonFocus { color:#3daee9; }
</style>
    <linearGradient
       inkscape:collect="always"
       id="linearGradient4393">
      <stop
         style="stop-color:#000000;stop-opacity:1;"
         offset="0"
         id="stop4395" />
      <stop
         style="stop-color:#000000;stop-opacity:0;"
         offset="1"
         id="stop4397" />
    </linearGradient>
    <linearGradient
       inkscape:collect="always"
       xlink:href="#linearGradient886"
       id="linearGradient888"
       x1="75.75985"
       y1="208.49026"
       x2="91.646347"
       y2="264.21182"
       gradientUnits="userSpaceOnUse"
       gradientTransform="matrix(0.35313291,0,0,0.35449418,-12.501272,-68.90854)" />
    <linearGradient
       inkscape:collect="always"
       id="linearGradient886">
      <stop
         style="stop-color:#789957;stop-opacity:1;"
         offset="0"
         id="stop882" />
      <stop
         style="stop-color:#a3be8c;stop-opacity:1;"
         offset="0.48468637"
         id="stop1402" />
      <stop
         style="stop-color:#62824a;stop-opacity:0.80000001;"
         offset="1"
         id="stop884" />
    </linearGradient>
    <filter
       inkscape:collect="always"
       style="color-interpolation-filters:sRGB"
       id="filter1881"
       x="-0.09064882"
       width="1.1812976"
       y="-0.40803665"
       height="1.8160733">
      <feGaussianBlur
         inkscape:collect="always"
         stdDeviation="0.85615684"
         id="feGaussianBlur1883" />
    </filter>
    <inkscape:path-effect
       effect="fillet_chamfer"
       id="path-effect1331"
       is_visible="true"
       lpeversion="1"
       satellites_param="F,0,0,1,0,2.1166667,0,1 @ F,0,0,1,0,2.1166667,0,1 @ F,0,0,1,0,2.1166667,0,1 @ F,0,0,1,0,2.1166667,0,1"
       unit="px"
       method="arc"
       mode="F"
       radius="8"
       chamfer_steps="1"
       flexible="false"
       use_knot_distance="true"
       apply_no_radius="true"
       apply_with_radius="true"
       only_selected="false"
       hide_knots="false"
       nodesatellites_param="F,0,0,1,0,2.1166667,0,1 @ F,0,0,1,0,2.1166667,0,1 @ F,0,0,1,0,2.1166667,0,1 @ F,0,0,1,0,2.1166667,0,1" />
    <linearGradient
       inkscape:collect="always"
       xlink:href="#linearGradient852"
       id="linearGradient854-7"
       x1="76.788559"
       y1="222.65123"
       x2="112.20527"
       y2="257.34955"
       gradientUnits="userSpaceOnUse"
       gradientTransform="matrix(0.35313291,0,0,0.35449418,-12.519926,-68.90854)" />
    <linearGradient
       inkscape:collect="always"
       id="linearGradient852">
      <stop
         style="stop-color:#a3be8c;stop-opacity:1;"
         offset="0"
         id="stop848" />
      <stop
         style="stop-color:#81a460;stop-opacity:1;"
         offset="1"
         id="stop850" />
    </linearGradient>
    <linearGradient
       inkscape:collect="always"
       xlink:href="#linearGradient4393"
       id="linearGradient668-3"
       gradientUnits="userSpaceOnUse"
       gradientTransform="matrix(1.7478124,0,0,1.686832,2.000019,-1749.5261)"
       x1="5"
       y1="1037.3622"
       x2="8"
       y2="1051.3622" />
  </defs>
  <path
     id="rect10"
     style="fill:url(#linearGradient888);fill-opacity:1;stroke-width:0.0579115"
     d="M 3.494983,5 C 2.669272,5 2,5.671909 2,6.500718 V 7.979275 25.499267 C 2,26.328047 2.669272,27 3.494983,27 h 25.010126 c 0.825614,0 1.494852,-0.671948 1.494852,-1.500733 L 29.997561,9.595913 C 29.934031,8.773905 30.029081,6.87587 27.226285,6.87587 H 14.507029 c 0.01168,0 -0.921895,-0.84414 -1.752935,-1.347326 C 12.090185,5.093715 11.193152,5 11.193152,5 Z"
     sodipodi:nodetypes="scccscccccccs" />
  <path
     style="opacity:0.309598;fill:#000000;fill-opacity:1;stroke:none;stroke-width:0.144851;stroke-opacity:1;filter:url(#filter1881)"
     id="rect873"
     width="22.667437"
     height="5.0357642"
     x="46.507095"
     y="222.89639"
     transform="matrix(0.50789103,0,0,0.68368449,-20.536563,-142.10558)"
     inkscape:path-effect="#path-effect1331"
     d="m 48.623762,222.89639 h 18.434103 a 2.1166667,2.1166667 45 0 1 2.116667,2.11667 v 0.80243 a 2.1166667,2.1166667 135 0 1 -2.116667,2.11667 l -18.434103,0 a 2.1166667,2.1166667 45 0 1 -2.116667,-2.11667 v -0.80243 a 2.1166667,2.1166667 135 0 1 2.116667,-2.11667 z"
     sodipodi:type="rect" />
  <path
     id="rect851"
     style="fill:#739755;fill-opacity:1;stroke-width:0.0936051"
     d="m 14.478422,8.480364 v 1.48729 h -3.48628 c 1.721981,-0.0044 2.184444,-0.510027 3.48628,-1.48729 z m 0,0 h 13.956084 c 0.822384,-0.0039 1.562288,0.662645 1.565451,1.48729 H 14.478422 Z M 3.495074,9.967654 h 26.504887 v 15.064508 c 0,0.827934 -0.669238,1.499059 -1.494852,1.499059 H 3.495074 c -0.82571,0 -1.494982,-0.671125 -1.494982,-1.499059 V 11.466805 c 0,-0.827977 0.669272,-1.499151 1.494982,-1.499151 z"
     sodipodi:nodetypes="cccccccccccccsccc" />
  <path
     id="rect851-3"
     style="fill:url(#linearGradient854-7);fill-opacity:1;stroke-width:0.0936449"
     d="m 14.651872,9.072604 -0.03785,1.554976 -3.447809,-0.0661 c 1.722019,-0.0044 2.184391,-0.51062 3.486208,-1.488881 z m 0,0 h 13.853256 c 0.822365,-0.0039 1.491676,0.663307 1.494867,1.488881 l -15.386526,0.0661 z M 3.495099,10.561485 H 30 v 14.471329 c 0,0.828853 -0.669248,1.500733 -1.494872,1.500728 H 3.495099 c -0.82572,5e-6 -1.494993,-0.671875 -1.494993,-1.500728 V 12.062237 c 0,-0.828819 0.669273,-1.500752 1.494993,-1.500752 z"
     sodipodi:nodetypes="cccccccccccsccssc" />
  <path
     style="opacity:0.181;fill:url(#linearGradient668-3);fill-opacity:1;fill-rule:evenodd;stroke:none;stroke-width:1.71705px;stroke-linecap:butt;stroke-linejoin:miter;stroke-opacity:1"
     d="M 3.448276,10.546412 15.982495,23.94524 H 29.96499 l 0.035,-13.398828 H 3.476652 Z"
     id="path4152-2-5"
     inkscape:connector-curvature="0"
     sodipodi:nodetypes="cccccc" />
  <path
     d="m 16.184674,22.599294 c -0.0061,-0.342924 -0.0139,-0.649777 -0.01731,-0.681902 -0.0031,-0.03212 -0.01164,-0.261091 -0.0182,-0.508825 -0.0066,-0.247731 -0.01892,-0.454732 -0.02735,-0.460004 -0.0084,-0.0055 -0.01593,0.0045 -0.01663,0.02206 -0.0061,0.15604 -0.03648,0.23148 -0.07893,0.195979 -0.02826,-0.02362 -0.02714,-0.02663 -0.06799,0.185343 -0.035,0.181586 -0.05294,0.225049 -0.08739,0.21172 -0.01361,-0.0056 -0.02469,-0.002 -0.02469,0.0071 0,0.0092 -0.01917,0.02145 -0.04263,0.0274 -0.03256,0.0082 -0.06314,0.05101 -0.129326,0.180863 -0.08042,0.157789 -0.09183,0.17178 -0.157958,0.193774 -0.0767,0.02552 -0.194303,0.156202 -0.254399,0.28271 -0.01735,0.03655 -0.03985,0.06658 -0.04992,0.06669 -0.01997,2.34e-4 -0.148041,0.231172 -0.213372,0.384863 -0.0514,0.120905 -0.04982,0.119615 -0.07283,0.05925 -0.02474,-0.06489 -0.02267,-0.482579 0.0031,-0.603166 0.01714,-0.08052 0.01588,-0.09432 -0.01022,-0.113534 -0.03708,-0.02734 -0.02714,-0.06262 0.06258,-0.222718 0.07518,-0.134132 0.07763,-0.143578 0.04101,-0.157745 -0.01426,-0.0056 -0.02599,-0.02064 -0.02599,-0.03355 0,-0.02694 0.148826,-0.235204 0.19696,-0.275589 0.02933,-0.02458 0.02969,-0.02901 0.0041,-0.05022 -0.04369,-0.03655 -0.03435,-0.06165 0.0687,-0.184085 0.0531,-0.06305 0.09017,-0.114763 0.08241,-0.11491 -0.0077,-9.5e-5 -0.02463,-0.007 -0.03758,-0.01527 -0.01921,-0.01228 -0.01948,-0.02248 -0.0014,-0.05649 0.0215,-0.04055 0.02059,-0.0404 -0.04041,0.0065 -0.03435,0.02641 -0.08054,0.04818 -0.102649,0.04838 -0.03824,3.8e-4 -0.07872,0.01826 -0.257063,0.113742 -0.04295,0.02296 -0.09759,0.04225 -0.121444,0.04281 -0.02384,5.35e-4 -0.0746,0.02038 -0.112767,0.04406 -0.03819,0.02367 -0.09672,0.05524 -0.130121,0.07009 -0.03341,0.01488 -0.07438,0.03479 -0.09108,0.04421 -0.02068,0.01172 -0.04077,0.01064 -0.06306,-0.0033 -0.02687,-0.0169 -0.0575,-0.01028 -0.171567,0.03722 -0.147707,0.06146 -0.229218,0.06309 -0.229733,0.0044 -4.81e-4,-0.07465 -0.02433,-0.07641 -0.162507,-0.01205 -0.08691,0.04048 -0.153819,0.06063 -0.189616,0.05713 -0.04839,-0.0045 -0.056,-0.01252 -0.06076,-0.06222 -0.0062,-0.06437 -0.0031,-0.06257 -0.0626,-0.03985 -0.02438,0.0093 -0.109921,0.02522 -0.190157,0.03524 -0.16822,0.02107 -0.236262,0.0056 -0.236262,-0.05378 0,-0.03518 -0.0057,-0.03668 -0.09579,-0.02536 -0.131076,0.01651 -0.199114,-9.7e-5 -0.199231,-0.04877 -9e-5,-0.03597 -0.0085,-0.03814 -0.159945,-0.04125 -0.123388,-0.0023 -0.164448,-0.0096 -0.180024,-0.03111 -0.01746,-0.02404 -0.07487,-0.0278 -0.425599,-0.02767 -0.222975,8.7e-5 -0.415483,-0.0063 -0.427793,-0.01404 -0.01507,-0.0096 0.01609,-0.03179 0.09542,-0.06803 0.188436,-0.08611 0.561574,-0.216072 0.650991,-0.226746 0.07549,-0.009 0.08135,-0.01309 0.07207,-0.05035 -0.01254,-0.05023 0.03352,-0.06509 0.207329,-0.06699 l 0.118625,-0.0012 -0.009,-0.05626 c -0.0084,-0.05284 -0.0055,-0.05695 0.05162,-0.06772 0.06047,-0.01144 0.171502,-0.0023 0.244376,0.01984 0.03514,0.01074 0.03783,0.0068 0.03111,-0.04641 -0.009,-0.07186 0.0097,-0.08499 0.121254,-0.08479 0.07571,9.7e-5 0.117023,0.0066 0.23366,0.03648 0.01936,0.0048 0.02422,-0.0076 0.02013,-0.05266 -0.0031,-0.03558 0.0036,-0.06512 0.01791,-0.07405 0.03657,-0.02337 0.189847,-0.01641 0.266132,0.01206 0.10297,0.03845 0.103405,0.03835 0.0979,-0.02309 -0.0046,-0.05546 -0.0031,-0.05683 0.06407,-0.05683 0.03803,0 0.116696,0.01492 0.174803,0.03314 l 0.105642,0.03314 v -0.05312 -0.05313 l 0.122532,0.01148 c 0.06739,0.0063 0.150323,0.02319 0.184283,0.03748 0.08039,0.03386 0.08057,0.03381 0.06716,-0.02006 l -0.01148,-0.04605 0.144044,0.01236 c 0.07922,0.0068 0.166713,0.02358 0.194422,0.03732 0.0645,0.03196 0.06681,0.03157 0.05412,-0.0087 -0.01,-0.03177 -0.0031,-0.03318 0.12461,-0.02479 0.07437,0.0047 0.157858,0.01609 0.18552,0.02493 0.02766,0.0088 0.0618,0.01606 0.07586,0.01606 0.02177,0 0.02203,-0.0041 0.0014,-0.02883 -0.02189,-0.02657 -0.01082,-0.02783 0.141008,-0.01626 0.09061,0.0069 0.184256,0.01583 0.20811,0.01977 0.112619,0.01883 -0.135208,-0.05027 -0.305503,-0.08516 -0.114604,-0.02349 -0.20478,-0.05163 -0.222445,-0.06944 -0.01634,-0.01645 -0.04918,-0.02994 -0.07294,-0.02994 -0.02378,0 -0.125739,-0.01294 -0.226584,-0.02879 -0.147036,-0.02309 -0.184963,-0.03499 -0.191481,-0.0601 -0.01057,-0.04076 -0.09166,-0.06838 -0.202416,-0.06891 -0.175111,-7.79e-4 -0.335551,-0.06789 -0.311792,-0.130295 0.0062,-0.0163 -0.02226,-0.02275 -0.108895,-0.02465 -0.116506,-0.0024 -0.214723,-0.02199 -0.293061,-0.05794 -0.03261,-0.01497 -0.03898,-0.02837 -0.0315,-0.06614 l 0.0094,-0.04736 -0.137803,-0.0024 c -0.132474,-0.0023 -0.301749,-0.02643 -0.335284,-0.04731 -0.0097,-0.0061 -0.0092,-0.02297 0.0014,-0.04277 0.0096,-0.01803 0.01736,-0.03611 0.01736,-0.04022 0,-0.0039 -0.0649,-0.01153 -0.144226,-0.01647 -0.132448,-0.0083 -0.255672,-0.04679 -0.254255,-0.07936 2.41e-4,-0.007 0.012,-0.02793 0.026,-0.0466 0.01401,-0.01867 0.02549,-0.03915 0.02549,-0.0455 0,-0.0064 -0.06205,-0.01637 -0.137883,-0.02229 -0.142121,-0.01104 -0.261148,-0.04823 -0.261148,-0.08161 0,-0.01046 0.01275,-0.03862 0.02836,-0.06263 0.01562,-0.02401 0.02539,-0.04565 0.02165,-0.04808 -0.0036,-0.0023 -0.06525,-0.01894 -0.13681,-0.03665 -0.143429,-0.03553 -0.260235,-0.08812 -0.260235,-0.117144 0,-0.01032 0.01634,-0.03965 0.03636,-0.06521 0.03445,-0.04405 0.03469,-0.0468 0.0041,-0.05267 -0.07702,-0.01491 -0.32636,-0.109817 -0.337886,-0.128617 -0.0073,-0.01194 0.0099,-0.04658 0.04062,-0.08189 l 0.05332,-0.0612 -0.05018,-0.01854 c -0.02761,-0.0102 -0.09159,-0.04048 -0.142192,-0.06726 -0.07533,-0.03988 -0.09004,-0.05496 -0.08113,-0.08327 0.0086,-0.02742 -0.0014,-0.03969 -0.04815,-0.05942 -0.08533,-0.03594 -0.111944,-0.07298 -0.0844,-0.117429 0.012,-0.01938 0.01937,-0.03692 0.01629,-0.03896 -0.0031,-0.0019 -0.05878,-0.03071 -0.123855,-0.0637 -0.06507,-0.033 -0.133887,-0.07461 -0.152929,-0.09248 -0.03288,-0.03088 -0.03313,-0.03419 -0.0046,-0.06584 0.01645,-0.01832 0.02671,-0.03591 0.02282,-0.03899 -0.0036,-0.0031 -0.06758,-0.0432 -0.141474,-0.08906 -0.112244,-0.06965 -0.13296,-0.08956 -0.125885,-0.120959 0.0067,-0.03009 -0.01132,-0.05154 -0.09066,-0.107537 -0.212449,-0.149676 -0.391474,-0.266333 -0.558971,-0.364025 -0.09609,-0.05597 -0.17468,-0.107976 -0.17468,-0.115499 0,-0.01845 0.284301,0.05151 0.477104,0.117436 0.08588,0.02935 0.183463,0.05872 0.216861,0.06525 0.0334,0.0065 0.0861,0.02658 0.11711,0.04456 0.031,0.01799 0.0565,0.02706 0.05665,0.02017 9.65e-4,-0.05273 0.03251,-0.0532 0.156607,-0.0022 0.07113,0.02915 0.145463,0.06832 0.165179,0.08698 0.04789,0.04535 0.05829,0.04305 0.07926,-0.01754 0.01583,-0.04579 0.02256,-0.04967 0.06078,-0.03505 0.114877,0.04401 0.238772,0.115957 0.275539,0.160001 0.02245,0.0269 0.04409,0.04892 0.04799,0.04892 0.0036,0 0.02099,-0.03088 0.03787,-0.0686 0.02266,-0.0507 0.03809,-0.06574 0.05902,-0.05765 0.05604,0.02167 0.173308,0.110047 0.225491,0.169944 l 0.05323,0.06109 0.04101,-0.06084 0.04102,-0.06084 0.08534,0.05301 c 0.04693,0.02915 0.114069,0.0855 0.14918,0.125187 l 0.06384,0.07216 0.03749,-0.06404 0.03749,-0.06404 0.07799,0.05407 c 0.0429,0.02977 0.09879,0.08441 0.12421,0.121483 0.02544,0.03708 0.0522,0.0677 0.05949,0.06807 0.0073,3.79e-4 0.02776,-0.02343 0.04557,-0.05285 l 0.03228,-0.05351 0.10612,0.089 c 0.05837,0.04895 0.123258,0.112369 0.144214,0.140931 0.04754,0.06481 0.05678,0.06475 0.08362,-4.74e-4 0.01183,-0.02886 0.03172,-0.05245 0.0441,-0.05245 0.03034,0 0.194381,0.167907 0.227955,0.233343 l 0.02691,0.05246 0.03228,-0.0424 c 0.0178,-0.02331 0.03251,-0.04826 0.03272,-0.05548 0.0014,-0.05246 0.142187,0.06858 0.228243,0.196442 0.03212,0.04774 0.06374,0.08698 0.07025,0.08723 0.0065,2.85e-4 0.01704,-0.01603 0.02337,-0.03618 0.0083,-0.02632 -0.0014,-0.05053 -0.03545,-0.08605 l -0.047,-0.04943 0.03664,-0.02306 c 0.04142,-0.02604 0.04906,-0.06711 0.01255,-0.06711 -0.03559,0 -0.333156,-0.201042 -0.345487,-0.233426 -0.0071,-0.01874 0.0061,-0.03766 0.04072,-0.0583 0.0282,-0.0168 0.0513,-0.03597 0.0513,-0.0426 0,-0.0066 -0.03319,-0.03215 -0.07373,-0.05672 -0.04056,-0.02457 -0.124483,-0.09137 -0.186504,-0.148438 l -0.112772,-0.103764 0.04971,-0.03965 0.04971,-0.03965 -0.04971,-0.02533 c -0.05423,-0.02764 -0.241771,-0.204293 -0.268148,-0.252598 -0.01349,-0.02469 -0.0031,-0.03684 0.05754,-0.0681 0.06836,-0.03516 0.07135,-0.0395 0.03939,-0.05735 -0.01902,-0.01064 -0.09704,-0.0805 -0.173389,-0.155276 -0.150622,-0.147508 -0.149061,-0.140103 -0.0434,-0.206182 0.023,-0.01437 0.02292,-0.01881 -9.66e-4,-0.03815 -0.09104,-0.07355 -0.11993,-0.101161 -0.19414,-0.185508 -0.09071,-0.103108 -0.103052,-0.15049 -0.0434,-0.166519 0.09001,-0.02419 0.09123,-0.03842 0.01009,-0.118282 -0.08169,-0.08044 -0.170588,-0.202531 -0.170588,-0.23428 0,-0.01043 0.02847,-0.03261 0.06325,-0.04932 0.06189,-0.02975 0.06248,-0.03096 0.02714,-0.0559 -0.05012,-0.03538 -0.200149,-0.282196 -0.189124,-0.311145 0.0046,-0.01301 0.03372,-0.02866 0.06386,-0.03471 l 0.05486,-0.01105 -0.06005,-0.07448 c -0.0658,-0.08158 -0.133395,-0.201142 -0.133395,-0.235929 0,-0.01215 0.01907,-0.02212 0.04239,-0.02212 0.05573,0 0.07194,-0.02962 0.03732,-0.06817 -0.03064,-0.03414 -0.131714,-0.236948 -0.131714,-0.264319 0,-0.0095 0.01953,-0.0172 0.0434,-0.0172 0.04918,0 0.05328,-0.01241 0.02028,-0.06168 -0.04827,-0.07212 -0.08402,-0.187908 -0.06219,-0.201503 0.01534,-0.0096 0.01016,-0.03862 -0.02004,-0.111979 -0.03251,-0.07899 -0.03611,-0.10195 -0.01796,-0.113262 0.01774,-0.01104 0.01837,-0.0225 0.0024,-0.05177 -0.01842,-0.03474 -0.10491,-0.426145 -0.129797,-0.587567 -0.006,-0.03847 -0.01501,-0.08371 -0.02023,-0.100536 -0.0055,-0.01683 -9.66e-4,-0.03061 0.0089,-0.03061 0.02411,0 0.19632,0.346262 0.183012,0.367957 -0.0057,0.0092 -0.002,0.01672 0.0079,0.01672 0.01,0 0.0495,0.06282 0.08782,0.13959 0.03828,0.07677 0.10061,0.180828 0.138468,0.231233 0.03787,0.0504 0.0737,0.114025 0.07966,0.141377 0.01057,0.04848 0.01168,0.04894 0.04548,0.01816 0.03345,-0.03052 0.03555,-0.03038 0.06098,0.0031 0.03435,0.04531 0.108922,0.203384 0.109139,0.231438 2.32e-4,0.03123 0.02275,0.02703 0.06434,-0.01195 0.0357,-0.03347 0.03636,-0.03343 0.07152,0.0042 0.04593,0.04938 0.124158,0.219153 0.124375,0.26986 2.31e-4,0.04998 0.0094,0.04936 0.07335,-0.0047 0.04072,-0.03453 0.05741,-0.0398 0.07621,-0.02411 0.03955,0.03309 0.162901,0.295982 0.162901,0.347199 0,0.0695 0.01598,0.0751 0.07399,0.02589 0.02853,-0.02419 0.06038,-0.04106 0.07086,-0.03755 0.03145,0.01058 0.119938,0.208235 0.128898,0.287921 0.0094,0.08375 0.02139,0.089 0.09029,0.03955 0.03772,-0.02702 0.0523,-0.02995 0.06593,-0.0131 0.031,0.03842 0.1066,0.234838 0.118009,0.306757 l 0.0111,0.06984 0.05907,-0.03513 c 0.04345,-0.02583 0.06503,-0.03013 0.08162,-0.01626 0.03313,0.02771 0.121146,0.294118 0.110604,0.334747 -0.0144,0.05542 0.01188,0.05503 0.08773,-0.0011 l 0.07055,-0.05229 0.04309,0.09222 c 0.05279,0.113112 0.0811,0.213812 0.08123,0.288926 5.2e-5,0.03125 0.0041,0.05683 0.0095,0.05683 0.0055,0 0.03989,-0.01568 0.07712,-0.03486 0.04577,-0.02352 0.07153,-0.02871 0.07936,-0.01594 0.02877,0.04695 0.05929,0.209762 0.05948,0.317412 9.5e-5,0.06491 0.0046,0.118018 0.0098,0.118018 0.0055,0 0.03819,-0.01957 0.07315,-0.04353 0.04673,-0.03199 0.06668,-0.03777 0.07534,-0.02185 0.01831,0.03374 0.05014,0.263348 0.05014,0.362227 v 0.08907 l 0.06475,-0.04434 c 0.03568,-0.02441 0.0698,-0.04436 0.07597,-0.04436 0.0301,0 0.05242,0.118216 0.05545,0.293576 l 0.0031,0.194128 0.05908,-0.03505 c 0.04162,-0.0247 0.06267,-0.02919 0.07127,-0.01516 0.012,0.01953 0.04056,0.355433 0.03681,0.432375 -0.002,0.04798 0.01588,0.04969 0.06888,0.0064 0.03495,-0.02851 0.04512,-0.02977 0.07604,-0.0094 0.01964,0.01296 0.05305,0.01902 0.07423,0.01346 l 0.03849,-0.01015 -0.04827,-0.06356 c -0.103926,-0.137092 -0.211697,-0.328878 -0.211697,-0.376935 0,-0.01606 0.02357,-0.03058 0.06123,-0.03771 l 0.06124,-0.01158 -0.04122,-0.05478 c -0.04734,-0.06292 -0.165622,-0.294476 -0.185886,-0.363866 -0.0129,-0.04406 -0.0097,-0.04748 0.05414,-0.05836 0.03727,-0.0064 0.06783,-0.01534 0.06783,-0.02002 0,-0.0045 -0.0188,-0.04134 -0.04178,-0.08151 -0.05146,-0.09011 -0.166359,-0.370018 -0.166359,-0.405474 0,-0.0187 0.01953,-0.02602 0.0694,-0.02602 0.07786,0 0.07984,-0.0024 0.0434,-0.05873 -0.03717,-0.05718 -0.112778,-0.288324 -0.112778,-0.344811 0,-0.04584 0.0024,-0.04732 0.07138,-0.0381 0.0689,0.0093 0.07093,0.0082 0.05852,-0.03225 -0.0071,-0.02305 -0.02295,-0.06193 -0.03525,-0.0864 -0.0258,-0.05118 -0.07728,-0.24314 -0.07728,-0.288175 0,-0.02528 0.01148,-0.02883 0.06831,-0.02115 0.08637,0.01169 0.09504,0.0021 0.05284,-0.05752 -0.03536,-0.05007 -0.109067,-0.326491 -0.09371,-0.35153 0.0046,-0.0079 0.04481,-0.0094 0.08884,-0.0032 0.08975,0.01241 0.08787,0.02069 0.03034,-0.134328 -0.01608,-0.04327 -0.03032,-0.121953 -0.0315,-0.174844 -0.0024,-0.104729 -0.0056,-0.102622 0.112662,-0.07928 l 0.06291,0.01244 -0.03196,-0.09333 c -0.02013,-0.05872 -0.03218,-0.143975 -0.03256,-0.22991 l -4.8e-4,-0.136576 0.08085,0.0122 c 0.07463,0.0113 0.07981,0.0097 0.06751,-0.02078 -0.04386,-0.108613 -0.07046,-0.353379 -0.04157,-0.382498 0.006,-0.0061 0.04026,0.0013 0.07616,0.01649 0.03591,0.0151 0.06848,0.02425 0.07242,0.02028 0.0036,-0.0038 -0.002,-0.04144 -0.0133,-0.08328 -0.01932,-0.07209 -0.01355,-0.236645 0.01057,-0.300017 0.0098,-0.02584 0.01588,-0.02614 0.06043,-0.0029 0.08195,0.04271 0.102704,0.03499 0.08339,-0.03103 -0.0185,-0.0633 0.03591,-0.373495 0.06478,-0.36919 0.0087,0.0012 0.03292,0.0076 0.0539,0.01398 0.0349,0.01065 0.03732,0.0068 0.02942,-0.04606 -0.0046,-0.03175 0.002,-0.108843 0.01502,-0.17135 l 0.02368,-0.113648 0.05724,0.0057 c 0.04168,0.004 0.05506,-5.35e-4 0.04923,-0.01748 -0.0041,-0.01278 0.0308,-0.133387 0.07815,-0.268014 0.04737,-0.134637 0.101095,-0.291995 0.119357,-0.349695 0.01826,-0.0577 0.04621,-0.132448 0.06209,-0.166105 0.01588,-0.03364 0.03373,-0.09267 0.03966,-0.131136 l 0.01085,-0.06994 0.02322,0.07392 c 0.01982,0.06315 0.01897,0.10899 -0.006,0.314722 -0.03329,0.274896 -0.03536,0.529301 -0.0041,0.529301 0.02245,0 0.01087,0.254797 -0.0134,0.294334 -0.01003,0.01632 -4.8e-4,0.0208 0.03569,0.01694 l 0.04928,-0.0051 -0.002,0.132076 c -9.65e-4,0.07264 -0.01143,0.15003 -0.0231,0.171973 -0.02872,0.05406 -0.01588,0.06111 0.05619,0.03078 l 0.06096,-0.02567 0.0094,0.05526 c 0.01042,0.06128 -0.01036,0.263946 -0.0324,0.315757 -0.01265,0.02972 -0.0087,0.0318 0.03642,0.01979 0.106751,-0.02833 0.103167,-0.03446 0.09644,0.165549 -0.0036,0.103437 -0.01685,0.209569 -0.0306,0.243097 -0.01344,0.03273 -0.02144,0.06251 -0.01778,0.06617 0.0036,0.0036 0.04041,-8.76e-4 0.08171,-0.01035 0.04132,-0.0094 0.08224,-0.01255 0.09097,-0.0071 0.02544,0.01586 -0.0036,0.180694 -0.04976,0.283059 l -0.04248,0.09406 0.08681,-0.01161 0.08682,-0.01162 v 0.06362 c 0,0.08182 -0.04525,0.257765 -0.08807,0.342331 -0.03925,0.07755 -0.04051,0.08592 -0.01168,0.07696 0.01193,-0.0036 0.05489,-0.01143 0.09542,-0.01714 0.06966,-0.0098 0.07374,-0.008 0.07374,0.03287 0,0.05368 -0.05974,0.209079 -0.104998,0.273136 -0.01858,0.02632 -0.03379,0.05237 -0.03379,0.05792 0,0.0057 0.03514,0.0056 0.07807,-6.32e-4 0.07803,-0.01077 0.07807,-0.01075 0.07807,0.04341 0,0.06199 -0.06222,0.243029 -0.09766,0.284161 -0.03934,0.04566 -0.02761,0.05605 0.05279,0.04694 l 0.07655,-0.0087 -0.02262,0.07199 c -0.04486,0.142868 -0.07835,0.223818 -0.112783,0.272545 -0.05471,0.07745 -0.04632,0.09377 0.04301,0.08362 0.04821,-0.0056 0.07807,-0.0018 0.07807,0.0094 0,0.03862 -0.111695,0.303703 -0.150265,0.356609 -0.0223,0.03063 -0.04057,0.06012 -0.04057,0.06557 0,0.0056 0.03122,0.0099 0.0694,0.0099 0.05024,0 0.0694,0.0073 0.0694,0.02634 0,0.04002 -0.135008,0.360386 -0.175549,0.416544 -0.04162,0.05767 -0.03854,0.06391 0.03435,0.06908 0.03351,0.0022 0.0544,0.01332 0.05441,0.02858 3.3e-5,0.02929 -0.149813,0.330274 -0.184256,0.37006 -0.03621,0.04181 -0.02954,0.05108 0.03681,0.05108 0.04966,0 0.06072,0.0065 0.06072,0.0358 0,0.0197 -0.01154,0.05828 -0.02559,0.0857 -0.02423,0.04715 -0.02332,0.05138 0.01674,0.07781 0.02327,0.01536 0.04456,0.02792 0.04725,0.02791 0.0024,-1.7e-5 0.0059,-0.0728 0.007,-0.161733 0.002,-0.155847 0.02938,-0.310386 0.05499,-0.31025 0.0068,3.6e-5 0.03774,0.01567 0.06873,0.0347 l 0.05638,0.03464 v -0.11643 c 0,-0.147291 0.03116,-0.330542 0.06043,-0.354994 0.01668,-0.01393 0.03585,-0.0074 0.07459,0.02548 0.02868,0.02433 0.05694,0.04422 0.0628,0.04422 0.0058,0 0.0096,-0.03342 0.0082,-0.07431 -0.0036,-0.106144 0.03798,-0.34393 0.06467,-0.370837 0.01243,-0.01253 0.01709,-0.02902 0.01042,-0.03668 -0.0067,-0.0076 0.01128,0.0018 0.0399,0.02129 0.02863,0.01934 0.05999,0.03973 0.06971,0.0453 0.01098,0.0063 0.01851,-0.02742 0.01991,-0.08921 0.002,-0.100309 0.02742,-0.218225 0.05605,-0.262991 0.01279,-0.02005 0.02501,-0.01752 0.06928,0.01421 0.06145,0.04408 0.08732,0.03732 0.07652,-0.02007 -0.0084,-0.04427 0.0676,-0.302358 0.103554,-0.351916 0.02216,-0.03048 0.02564,-0.03019 0.08726,0.0064 l 0.06421,0.03819 v -0.06126 c 0,-0.03358 0.01593,-0.11305 0.03541,-0.176573 0.03754,-0.122559 0.06191,-0.139385 0.128401,-0.08871 0.05225,0.03982 0.08151,0.03272 0.06917,-0.01684 -0.01673,-0.06709 0.03865,-0.23521 0.125666,-0.381567 0.0041,-0.0073 0.03347,0.0065 0.06479,0.03059 0.03134,0.02407 0.06207,0.04379 0.06833,0.04379 0.0063,0 0.01137,-0.03125 0.01137,-0.06946 0,-0.06967 0.07035,-0.244754 0.112518,-0.280021 0.01663,-0.0139 0.03585,-0.0073 0.07455,0.02551 0.065,0.05514 0.07317,0.05514 0.07317,1.5e-5 0,-0.02432 0.02433,-0.09316 0.05407,-0.152991 0.0755,-0.151883 0.08081,-0.157229 0.125135,-0.125943 0.04794,0.03385 0.06359,0.03269 0.06406,-0.0045 4.74e-4,-0.03999 0.06326,-0.178793 0.09869,-0.218253 0.0265,-0.02951 0.02888,-0.02929 0.0521,0.0039 0.03329,0.04795 0.05432,0.04386 0.0675,-0.01311 0.01306,-0.05655 0.108103,-0.214187 0.129123,-0.214187 0.008,0 0.01933,0.0079 0.02524,0.01748 0.01674,0.02731 0.04004,0.0206 0.05119,-0.01475 0.01865,-0.05928 0.150241,-0.221368 0.175465,-0.21617 0.01371,0.0028 0.02489,-0.0019 0.02489,-0.0107 0,-0.01424 0.09133,-0.122179 0.20819,-0.246043 0.02384,-0.02529 0.08141,-0.07921 0.127903,-0.119824 0.07834,-0.06844 0.114992,-0.08036 0.114992,-0.0374 0,0.0096 -0.0091,0.01186 -0.02003,0.0048 -0.01243,-0.0077 -0.01533,-0.0046 -0.0076,0.0078 0.0069,0.01111 -0.01026,0.05365 -0.03792,0.0945 -0.10578,0.156114 -0.175245,0.289055 -0.221537,0.423961 -0.0264,0.07693 -0.05456,0.147351 -0.06261,0.156488 -0.02341,0.02662 -0.0169,0.06207 0.01144,0.06207 0.01435,0 0.02603,0.0081 0.02603,0.018 0,0.02716 -0.100722,0.222633 -0.121338,0.235476 -0.02614,0.01625 -0.0036,0.04379 0.03565,0.04379 0.01875,0 0.03367,0.01192 0.03367,0.02692 0,0.03509 -0.06198,0.158847 -0.115714,0.231077 -0.04934,0.06634 -0.04106,0.09169 0.03,0.09169 0.02809,0 0.05103,0.0068 0.05103,0.01523 0,0.02652 -0.169181,0.277634 -0.19226,0.285389 -0.03495,0.01174 -9.65e-4,0.04907 0.04475,0.04907 0.02271,0 0.04512,0.0063 0.04987,0.01389 0.01523,0.02486 -0.05156,0.151009 -0.134035,0.253036 -0.04434,0.05486 -0.08062,0.103447 -0.08062,0.107956 0,0.0043 0.0273,0.01334 0.06072,0.01966 0.03339,0.0063 0.06072,0.01999 0.06072,0.03036 0,0.03498 -0.135692,0.248015 -0.172116,0.270234 -0.05388,0.03287 -0.04403,0.05226 0.03329,0.06542 0.04955,0.0084 0.0694,0.02041 0.0694,0.04191 0,0.03362 -0.12581,0.190938 -0.220251,0.275398 -0.05901,0.05276 -0.065,0.09357 -0.01376,0.09357 0.03435,0 0.112564,0.03789 0.112564,0.05456 0,0.01697 -0.09957,0.119235 -0.21704,0.222949 -0.07887,0.06963 -0.08374,0.07819 -0.05472,0.09617 0.09678,0.05994 0.09796,0.05343 -0.03186,0.176174 -0.0668,0.06315 -0.135109,0.119231 -0.151807,0.124619 -0.04323,0.01395 -0.03782,0.03043 0.02166,0.06585 0.02863,0.01705 0.05204,0.03779 0.05204,0.04612 0,0.02624 -0.173388,0.169301 -0.279143,0.230309 -0.05583,0.0322 -0.101737,0.06313 -0.102019,0.06872 -2.38e-4,0.0056 0.01902,0.02068 0.04284,0.03354 0.04895,0.02641 0.05082,0.03261 0.02114,0.07112 -0.02289,0.02971 -0.210641,0.15851 -0.295478,0.202722 l -0.05247,0.02735 0.04633,0.02829 c 0.02544,0.01559 0.04632,0.04175 0.04632,0.05819 0,0.05175 0.02983,0.05108 0.0513,-0.0011 0.02322,-0.05644 0.226277,-0.281605 0.253978,-0.281605 0.0099,0 0.03191,0.02948 0.04895,0.06551 l 0.031,0.06552 0.03155,-0.06114 c 0.01736,-0.03361 0.08031,-0.111371 0.13991,-0.172759 0.114476,-0.117919 0.110281,-0.117232 0.164272,-0.0269 0.01624,0.02717 0.0224,0.02359 0.05486,-0.03183 0.03358,-0.05737 0.198886,-0.20557 0.229283,-0.20557 0.0072,0 0.0224,0.03146 0.03384,0.06994 0.01875,0.06309 0.0541,0.097 0.0541,0.05191 0,-0.02543 0.171341,-0.189775 0.229389,-0.220027 0.04714,-0.02458 0.04901,-0.02371 0.07749,0.03649 0.01603,0.03392 0.03408,0.06167 0.04009,0.06167 0.006,0 0.03384,-0.02443 0.06184,-0.05427 0.09764,-0.103982 0.285172,-0.20702 0.285172,-0.156688 0,0.009 0.0078,0.03711 0.0174,0.06247 l 0.0174,0.04612 0.04152,-0.04935 c 0.02282,-0.02713 0.08621,-0.07647 0.140837,-0.109598 0.09448,-0.05731 0.100436,-0.05868 0.122608,-0.02811 0.01279,0.01768 0.0258,0.03967 0.02882,0.04893 0.0031,0.0092 0.03049,-0.0066 0.0609,-0.0353 0.03044,-0.02865 0.108242,-0.07211 0.172896,-0.09657 0.107495,-0.04066 0.119437,-0.04203 0.139463,-0.016 0.02018,0.02623 0.02564,0.02627 0.0694,2.86e-4 0.02614,-0.01551 0.08653,-0.03358 0.134242,-0.04017 0.0477,-0.0066 0.180171,-0.02775 0.294369,-0.04702 0.237551,-0.0401 0.446797,-0.03313 0.400713,0.01332 -0.01355,0.01367 -0.03616,0.02484 -0.05024,0.02484 -0.04142,0 -0.37591,0.121511 -0.486335,0.176675 -0.05596,0.02794 -0.140227,0.08171 -0.187278,0.119467 -0.04704,0.03773 -0.09495,0.07184 -0.106458,0.07574 -0.0157,0.0054 -0.01487,0.01448 0.0031,0.03648 0.02083,0.02539 0.01977,0.03421 -0.0075,0.0646 -0.01736,0.01935 -0.07506,0.05984 -0.128178,0.08995 -0.05311,0.0301 -0.09978,0.05736 -0.103689,0.06054 -0.0036,0.0031 0.0059,0.02022 0.02165,0.03785 0.01583,0.01763 0.02877,0.03728 0.02877,0.04362 0,0.01599 -0.210904,0.169237 -0.233346,0.169566 -0.01004,9.6e-5 -0.02974,0.0076 -0.04375,0.01653 -0.0216,0.01379 -0.01932,0.023 0.01472,0.05951 l 0.04031,0.0432 -0.08411,0.06183 c -0.04626,0.03402 -0.128587,0.08382 -0.182937,0.110693 -0.05435,0.02687 -0.09925,0.05517 -0.09976,0.06282 -4.72e-4,0.0077 0.02028,0.03232 0.04619,0.05481 0.04157,0.03607 0.04429,0.04436 0.02272,0.07053 -0.02863,0.03477 -0.187459,0.117353 -0.286742,0.149089 -0.100897,0.03224 -0.100674,0.03175 -0.04375,0.101332 0.04127,0.05042 0.0477,0.06818 0.03065,0.08446 -0.0273,0.02606 -0.263971,0.111548 -0.308878,0.111548 -0.04313,0 -0.04248,0.01455 0.0024,0.06315 l 0.03652,0.03919 -0.06688,0.03353 c -0.03681,0.01844 -0.133243,0.05204 -0.21435,0.07468 -0.08111,0.02261 -0.15096,0.04377 -0.155227,0.04698 -0.0041,0.0032 0.0055,0.028 0.02114,0.05511 0.02782,0.04749 0.02752,0.05 -0.0096,0.06967 -0.06177,0.03278 -0.276238,0.0898 -0.337679,0.0898 -0.06321,0 -0.06809,0.01043 -0.03034,0.06478 0.02433,0.03501 0.02281,0.03996 -0.02216,0.07221 -0.05231,0.03755 -0.21007,0.07282 -0.325751,0.07282 -0.0669,0 -0.07188,0.0032 -0.06463,0.04145 0.01026,0.05406 -0.04692,0.07488 -0.25121,0.09142 -0.127004,0.0103 -0.157492,0.01877 -0.186511,0.0519 -0.0393,0.04485 -0.122311,0.06972 -0.286264,0.08579 -0.175198,0.01716 -0.211797,0.02697 -0.2015,0.05404 0.01301,0.03416 0.002,0.03791 -0.195535,0.0677 -0.09761,0.01472 -0.190684,0.03534 -0.206843,0.04587 -0.0259,0.01688 -0.02539,0.01785 0.0046,0.0082 0.01866,-0.006 0.06744,-0.01553 0.108429,-0.0212 0.06172,-0.0085 0.07452,-0.0056 0.07452,0.01844 0,0.0225 0.0066,0.0249 0.03039,0.01095 0.05809,-0.03405 0.244153,-0.08264 0.265501,-0.06935 0.01183,0.0074 0.01668,0.02597 0.01082,0.04138 -0.01294,0.03406 -0.013,0.03404 0.06061,0.003 0.03261,-0.01373 0.108762,-0.03061 0.169275,-0.03749 l 0.11002,-0.01255 -0.008,0.05496 c -0.0041,0.03022 -0.0064,0.05496 -0.0041,0.05496 0.002,0 0.03671,-0.0118 0.07725,-0.02623 0.07744,-0.02754 0.171551,-0.03328 0.240417,-0.01473 0.0357,0.0096 0.03966,0.01876 0.03116,0.07153 -0.009,0.05586 -0.0068,0.05965 0.02853,0.04945 0.127712,-0.03688 0.225275,-0.04615 0.283039,-0.02693 0.05408,0.018 0.05968,0.02548 0.05053,0.06749 l -0.01031,0.04724 0.113028,-0.0073 c 0.06216,-0.0039 0.141322,-0.0018 0.175907,0.0045 0.05774,0.01091 0.06228,0.01609 0.05541,0.06321 l -0.0075,0.05132 0.122777,2.85e-4 c 0.149617,2.85e-4 0.17369,0.01279 0.158595,0.08205 -0.01082,0.04961 -0.0091,0.0514 0.04187,0.04386 0.0293,-0.0042 0.107443,0.0063 0.173758,0.02364 0.109161,0.02855 0.119667,0.03514 0.111049,0.06975 -0.0076,0.03074 -2.37e-4,0.04061 0.03824,0.05032 0.02631,0.0066 0.09519,0.03416 0.153128,0.06113 0.05794,0.02695 0.202933,0.08244 0.32221,0.123261 0.119278,0.04081 0.240117,0.08626 0.268534,0.100972 l 0.05167,0.02675 -0.04304,0.01613 c -0.02362,0.0089 -0.195226,0.0166 -0.381299,0.01713 -0.557656,0.0015 -0.682965,0.0071 -0.690645,0.03034 -0.01614,0.04884 -0.172069,0.05368 -0.335889,0.01046 -0.03961,-0.01047 -0.04715,-0.0063 -0.05204,0.02867 -0.0084,0.05937 -0.111918,0.06242 -0.281155,0.0083 -0.144635,-0.04629 -0.133489,-0.04903 -0.160291,0.03924 -0.01048,0.03445 -0.107483,0.01517 -0.241354,-0.04797 -0.11359,-0.05357 -0.129686,-0.0535 -0.129686,5.35e-4 0,0.05014 -0.103176,0.0407 -0.233457,-0.02133 -0.08736,-0.04161 -0.125436,-0.05087 -0.172515,-0.04194 -0.06032,0.01141 -0.09563,-0.0016 -0.309599,-0.115186 -0.03575,-0.01895 -0.07867,-0.03714 -0.09542,-0.04043 -0.05554,-0.01088 -0.116229,-0.04243 -0.203883,-0.105898 -0.13076,-0.0947 -0.150173,-0.07542 -0.03854,0.03827 0.05455,0.05558 0.09922,0.109735 0.09922,0.120355 0,0.01063 -0.01694,0.02376 -0.03773,0.02924 -0.03585,0.0095 -0.03441,0.01358 0.03053,0.08509 0.09034,0.09956 0.186275,0.252938 0.172372,0.275607 -0.0061,0.01 -0.02235,0.01812 -0.03611,0.01812 -0.02814,0 -0.03363,0.02754 -0.0085,0.04313 0.02119,0.0132 0.139712,0.237782 0.139712,0.264768 0,0.01132 -0.01259,0.02543 -0.02787,0.03134 -0.02479,0.0096 -0.02508,0.01512 -0.0024,0.04995 0.03389,0.05229 0.08178,0.219922 0.06467,0.226376 -0.0075,0.0028 0.009,0.09166 0.0367,0.197446 0.05056,0.193422 0.06353,0.305981 0.03531,0.305981 -0.0084,0 -0.09303,-0.104252 -0.188133,-0.231669 -0.210633,-0.2822 -0.268357,-0.345444 -0.315302,-0.345444 -0.04072,0 -0.09899,-0.08344 -0.179952,-0.25779 l -0.05077,-0.109348 -0.04552,0.03608 c -0.04307,0.03413 -0.04673,0.0344 -0.06777,0.0051 -0.01226,-0.01688 -0.02226,-0.03767 -0.02226,-0.04621 0,-0.03503 -0.09355,-0.250738 -0.119492,-0.275525 -0.01539,-0.0147 -0.04086,-0.02411 -0.05667,-0.02092 -0.02827,0.0057 -0.04693,-0.03414 -0.07435,-0.158549 -0.0095,-0.04294 -0.01381,-0.04573 -0.03626,-0.02312 -0.03135,0.03156 -0.0344,0.48481 -0.0083,1.20842 0.0057,0.242286 0.03111,0.471726 -0.129786,0.303195 l 1.1e-5,-1.2e-4 z m -0.181883,-2.479086 c -0.01921,-0.03794 -0.07207,-0.110054 -0.117466,-0.160228 -0.04542,-0.05018 -0.121121,-0.13361 -0.168288,-0.185413 -0.04714,-0.05182 -0.164272,-0.153524 -0.260236,-0.226041 -0.176844,-0.133639 -0.206156,-0.139447 -0.165957,-0.0329 0.01775,0.04703 0.01972,0.04778 0.04263,0.01613 0.01319,-0.01824 0.0271,-0.02923 0.0309,-0.02446 0.0036,0.0046 0.04278,0.05986 0.08672,0.122366 0.08907,0.126728 0.293592,0.334086 0.463579,0.470024 0.06155,0.04922 0.114404,0.08948 0.117462,0.08948 0.0031,0 -0.01017,-0.03105 -0.02938,-0.069 z m 0.155327,-0.05776 c -9.66e-4,-0.270514 -0.103788,-0.77411 -0.184524,-0.901627 -0.01699,-0.02686 -0.02003,-0.04747 -0.0089,-0.0612 0.01694,-0.0209 -0.05614,-0.158172 -0.155317,-0.291716 -0.02503,-0.03364 -0.05052,-0.08281 -0.05671,-0.109261 -0.0101,-0.04304 -0.0066,-0.04809 0.03389,-0.04809 0.02484,0 0.04253,-0.0066 0.03934,-0.01475 -0.01982,-0.05049 -0.197193,-0.296292 -0.208668,-0.289144 -0.0077,0.0046 -0.01395,0.0799 -0.01395,0.166909 0,0.119669 0.0054,0.156025 0.02165,0.149266 0.08132,-0.0335 0.07623,-0.04388 0.08998,0.18359 0.0071,0.118254 0.01192,0.244976 0.01062,0.281602 -0.002,0.06121 3.51e-4,0.0651 0.03191,0.04809 0.04928,-0.02658 0.05395,-0.02396 0.05395,0.02969 0,0.05379 0.07846,0.416925 0.105948,0.490351 0.05686,0.151886 0.213211,0.493041 0.225956,0.493041 0.0083,0 0.01492,-0.05705 0.01477,-0.126763 z m 0.801657,0.114822 c -0.01254,-0.0048 -0.02752,-0.0043 -0.03324,0.0013 -0.0058,0.0058 0.0041,0.0099 0.02276,0.0092 0.02023,-7.78e-4 0.02433,-0.0048 0.01048,-0.01058 v 1e-6 z m -0.6117,-0.18476 c 0.04572,-0.09857 0.104458,-0.253964 0.130542,-0.345321 0.02609,-0.09136 0.05354,-0.178214 0.06102,-0.193017 0.0075,-0.01482 0.01931,-0.123612 0.0264,-0.241802 l 0.01279,-0.214891 0.04137,0.01048 0.04137,0.01047 v -0.175181 c 0,-0.200955 -0.01501,-0.217328 -0.102019,-0.110992 -0.05352,0.06544 -0.05587,0.09317 -0.0078,0.09317 0.0188,0 0.02311,0.0092 0.01432,0.03062 -0.0069,0.01684 -0.01663,0.04633 -0.02166,0.06557 -0.0046,0.01924 -0.01825,0.04677 -0.02943,0.0612 -0.04021,0.05205 -0.136347,0.339151 -0.115868,0.346028 0.01087,0.0036 0.01619,0.0125 0.01183,0.01963 -0.0098,0.01601 -0.12582,0.546539 -0.137964,0.630957 -0.0046,0.03364 -0.01344,0.0907 -0.01907,0.126762 -0.0057,0.03607 -0.0055,0.06557 3.56e-4,0.06557 0.0059,0 0.04807,-0.08065 0.09378,-0.179215 z m 0.261237,-0.02186 c 0.162447,-0.143587 0.276349,-0.278314 0.254179,-0.300655 -0.02171,-0.0219 -0.306002,0.234739 -0.306002,0.276279 0,0.0086 -0.0075,0.01565 -0.01678,0.01565 -0.0093,0 -0.04826,0.04293 -0.08675,0.09542 -0.07012,0.09566 -0.09054,0.137026 -0.04631,0.09379 0.01299,-0.01272 0.103756,-0.09392 0.201675,-0.180465 z m -1.584417,-0.782431 c -0.0046,-0.012 -0.0087,-0.0021 -0.0087,0.02185 0,0.02404 0.0036,0.03389 0.0087,0.02185 0.0046,-0.012 0.0046,-0.0317 0,-0.04372 z m -0.341126,-0.292863 c 0,-0.0096 -0.0078,-0.01748 -0.01735,-0.01748 -0.0096,0 -0.01736,0.0079 -0.01736,0.01748 0,0.0096 0.0078,0.01748 0.01736,0.01748 0.0096,0 0.01735,-0.0079 0.01735,-0.01748 z m -0.329632,-0.330142 c 0,-0.01531 -0.07095,-0.05878 -0.08041,-0.04925 -0.0041,0.0041 0.0014,0.02833 0.01311,0.05353 0.01608,0.03564 0.02589,0.04151 0.04401,0.02636 0.01279,-0.01072 0.02332,-0.02451 0.02332,-0.03064 z m 3.64334,0.0081 c 0,-0.0039 0.0051,-0.02066 0.01132,-0.037 0.0094,-0.02466 0.0041,-0.02749 -0.03039,-0.01675 -0.05295,0.01643 -0.05626,0.01974 -0.04239,0.04241 0.01082,0.01763 0.06144,0.02696 0.06144,0.01136 z m -1.240349,-0.109896 c -0.01118,-0.05824 -0.01446,-0.06178 -0.02687,-0.02884 -0.0078,0.02064 -0.02357,0.04344 -0.0351,0.05057 -0.01446,0.009 -0.0081,0.01996 0.02043,0.03533 0.053,0.02859 0.05691,0.02323 0.04152,-0.05707 z m 0.0085,-0.18981 c 0,-0.04272 -0.0046,-0.07765 -0.01072,-0.07765 -0.01791,0 -0.110143,0.112197 -0.110442,0.134346 -2.32e-4,0.01964 0.0805,0.03978 0.108159,0.02696 0.0072,-0.0033 0.013,-0.04096 0.013,-0.08367 z"
     id="4-3"
     style="fill:#ffffff;fill-opacity:1;stroke-width:0.118259" />
  <rect
     style="fill:#ffffff;fill-opacity:0.25;stroke:#e5e9ef;stroke-width:0.28132;stroke-opacity:0.5;paint-order:markers fill stroke"
     id="rect2191"
     width="27.758621"
     height="3.5499221e-07"
     x="2.1206896"
     y="23.629248" />
  <rect
     style="fill:#ffffff;fill-opacity:0.5;stroke:#e5e9ef;stroke-width:0.28132;stroke-opacity:0.5;paint-order:markers fill stroke"
     id="rect2191-0-9"
     width="27.758621"
     height="3.5499221e-07"
     x="2.1206896"
     y="25.088831" />
</svg>
