<?xml version="1.0" encoding="UTF-8" standalone="no"?>
<svg
   viewBox="0 0 32 32"
   version="1.1"
   id="svg12"
   sodipodi:docname="folder-library.svg"
   inkscape:version="1.2.1 (9c6d41e410, 2022-07-14)"
   xmlns:inkscape="http://www.inkscape.org/namespaces/inkscape"
   xmlns:sodipodi="http://sodipodi.sourceforge.net/DTD/sodipodi-0.dtd"
   xmlns:xlink="http://www.w3.org/1999/xlink"
   xmlns="http://www.w3.org/2000/svg"
   xmlns:svg="http://www.w3.org/2000/svg"
   xmlns:rdf="http://www.w3.org/1999/02/22-rdf-syntax-ns#"
   xmlns:cc="http://creativecommons.org/ns#"
   xmlns:dc="http://purl.org/dc/elements/1.1/">
  <metadata
     id="metadata16">
    <rdf:RDF>
      <cc:Work
         rdf:about="">
        <dc:format>image/svg+xml</dc:format>
        <dc:type
           rdf:resource="http://purl.org/dc/dcmitype/StillImage" />
      </cc:Work>
    </rdf:RDF>
  </metadata>
  <sodipodi:namedview
     pagecolor="#ffffff"
     bordercolor="#666666"
     borderopacity="1"
     objecttolerance="10"
     gridtolerance="10"
     guidetolerance="10"
     inkscape:pageopacity="0"
     inkscape:pageshadow="2"
     inkscape:window-width="1920"
     inkscape:window-height="1004"
     id="namedview14"
     showgrid="true"
     inkscape:zoom="10.429825"
     inkscape:cx="-16.730866"
     inkscape:cy="11.16989"
     inkscape:window-x="0"
     inkscape:window-y="0"
     inkscape:window-maximized="1"
     inkscape:current-layer="svg12"
     inkscape:showpageshadow="2"
     inkscape:pagecheckerboard="0"
     inkscape:deskcolor="#d1d1d1">
    <inkscape:grid
       type="xygrid"
       id="grid18219" />
  </sodipodi:namedview>
  <defs
     id="defs3051">
    <style
       type="text/css"
       id="current-color-scheme">.ColorScheme-Text { color:#31363b; }
.ColorScheme-Background { color:#eff0f1; }
.ColorScheme-Highlight { color:#3daee9; }
.ColorScheme-ViewText { color:#31363b; }
.ColorScheme-ViewBackground { color:#fcfcfc; }
.ColorScheme-ViewHover { color:#93cee9; }
.ColorScheme-ViewFocus { color:#3daee9; }
.ColorScheme-ButtonText { color:#31363b; }
.ColorScheme-ButtonBackground { color:#eff0f1; }
.ColorScheme-ButtonHover { color:#93cee9; }
.ColorScheme-ButtonFocus { color:#3daee9; }
</style>
    <linearGradient
       inkscape:collect="always"
       id="linearGradient4393">
      <stop
         style="stop-color:#000000;stop-opacity:1;"
         offset="0"
         id="stop4395" />
      <stop
         style="stop-color:#000000;stop-opacity:0;"
         offset="1"
         id="stop4397" />
    </linearGradient>
    <linearGradient
       inkscape:collect="always"
       xlink:href="#linearGradient886"
       id="linearGradient888"
       x1="75.75985"
       y1="208.49026"
       x2="91.646347"
       y2="264.21182"
       gradientUnits="userSpaceOnUse"
       gradientTransform="matrix(0.35313292,0,0,0.35449418,-12.501273,-68.90854)" />
    <linearGradient
       inkscape:collect="always"
       id="linearGradient886">
      <stop
         style="stop-color:#ffccaa;stop-opacity:1"
         offset="0"
         id="stop882" />
      <stop
         style="stop-color:#86cfda;stop-opacity:1"
         offset="0.48468637"
         id="stop1402" />
      <stop
         style="stop-color:#1dc8e2;stop-opacity:1;"
         offset="1"
         id="stop884" />
    </linearGradient>
    <filter
       inkscape:collect="always"
       style="color-interpolation-filters:sRGB"
       id="filter1881"
       x="-0.09064882"
       width="1.1812976"
       y="-0.40803665"
       height="1.8160733">
      <feGaussianBlur
         inkscape:collect="always"
         stdDeviation="0.85615684"
         id="feGaussianBlur1883" />
    </filter>
    <inkscape:path-effect
       effect="fillet_chamfer"
       id="path-effect1331"
       is_visible="true"
       lpeversion="1"
       satellites_param="F,0,0,1,0,2.1166667,0,1 @ F,0,0,1,0,2.1166667,0,1 @ F,0,0,1,0,2.1166667,0,1 @ F,0,0,1,0,2.1166667,0,1"
       unit="px"
       method="arc"
       mode="F"
       radius="8"
       chamfer_steps="1"
       flexible="false"
       use_knot_distance="true"
       apply_no_radius="true"
       apply_with_radius="true"
       only_selected="false"
       hide_knots="false"
       nodesatellites_param="F,0,0,1,0,2.1166667,0,1 @ F,0,0,1,0,2.1166667,0,1 @ F,0,0,1,0,2.1166667,0,1 @ F,0,0,1,0,2.1166667,0,1" />
    <linearGradient
       inkscape:collect="always"
       xlink:href="#linearGradient852"
       id="linearGradient854-7"
       x1="98.534538"
       y1="264.21182"
       x2="71.193069"
       y2="229.90044"
       gradientUnits="userSpaceOnUse"
       gradientTransform="matrix(0.35313292,0,0,0.35449418,-12.519927,-68.90854)" />
    <linearGradient
       inkscape:collect="always"
       id="linearGradient852">
      <stop
         style="stop-color:#36cee6;stop-opacity:1;"
         offset="0"
         id="stop848" />
      <stop
         style="stop-color:#ffccaa;stop-opacity:1"
         offset="1"
         id="stop850" />
    </linearGradient>
    <linearGradient
       inkscape:collect="always"
       xlink:href="#linearGradient4393"
       id="linearGradient668-3"
       gradientUnits="userSpaceOnUse"
       gradientTransform="matrix(1.7478124,0,0,1.686832,2.000019,-1749.5261)"
       x1="5"
       y1="1037.3622"
       x2="8"
       y2="1051.3622" />
  </defs>
  <path
     id="rect10"
     style="fill:url(#linearGradient888);fill-opacity:1;stroke-width:0.0579115"
     d="M 3.494983,5 C 2.669272,5 2,5.671909 2,6.500718 V 7.979275 25.499267 C 2,26.328047 2.669272,27 3.494983,27 h 25.010126 c 0.825614,0 1.494852,-0.671948 1.494852,-1.500733 L 29.997561,9.595913 C 29.934031,8.773905 30.029081,6.87587 27.226285,6.87587 H 14.507028 c 0.01168,0 -0.921895,-0.84414 -1.752935,-1.347326 C 12.090184,5.093715 11.193151,5 11.193151,5 Z"
     sodipodi:nodetypes="scccscccccccs" />
  <path
     style="opacity:0.309598;fill:#000000;fill-opacity:1;stroke:none;stroke-width:0.144851;stroke-opacity:1;filter:url(#filter1881)"
     id="rect873"
     width="22.667437"
     height="5.0357642"
     x="46.507095"
     y="222.89639"
     transform="matrix(0.50789105,0,0,0.68368449,-20.536564,-142.10558)"
     inkscape:path-effect="#path-effect1331"
     d="m 48.623762,222.89639 h 18.434103 a 2.1166667,2.1166667 45 0 1 2.116667,2.11667 v 0.80243 a 2.1166667,2.1166667 135 0 1 -2.116667,2.11667 l -18.434103,0 a 2.1166667,2.1166667 45 0 1 -2.116667,-2.11667 v -0.80243 a 2.1166667,2.1166667 135 0 1 2.116667,-2.11667 z"
     sodipodi:type="rect" />
  <path
     id="rect851"
     style="fill:#ffb380;fill-opacity:1;stroke-width:0.0936051"
     d="m 14.478422,8.480364 v 1.48729 h -3.486281 c 1.721981,-0.0044 2.184445,-0.510027 3.486281,-1.48729 z m 0,0 h 13.956083 c 0.822385,-0.0039 1.562289,0.662645 1.565452,1.48729 H 14.478422 Z M 3.495075,9.967654 h 26.504886 v 15.064508 c 0,0.827934 -0.669238,1.499059 -1.494852,1.499059 H 3.495075 c -0.825711,0 -1.494983,-0.671125 -1.494983,-1.499059 V 11.466805 c 0,-0.827977 0.669272,-1.499151 1.494983,-1.499151 z"
     sodipodi:nodetypes="cccccccccccccsccc" />
  <path
     id="rect851-3"
     style="fill:url(#linearGradient854-7);fill-opacity:1;stroke-width:0.0936449"
     d="m 14.651872,9.072604 -0.03785,1.554976 -3.447809,-0.0661 c 1.722019,-0.0044 2.184391,-0.51062 3.486207,-1.488881 z m 0,0 h 13.853256 c 0.822365,-0.0039 1.491676,0.663307 1.494867,1.488881 l -15.386527,0.0661 z M 3.495099,10.561485 H 30 v 14.471329 c 0,0.828853 -0.669248,1.500733 -1.494872,1.500728 H 3.495099 c -0.82572,5e-6 -1.494993,-0.671875 -1.494993,-1.500728 V 12.062237 c 0,-0.828819 0.669273,-1.500752 1.494993,-1.500752 z"
     sodipodi:nodetypes="cccccccccccsccssc" />
  <path
     style="opacity:0.181;fill:url(#linearGradient668-3);fill-opacity:1;fill-rule:evenodd;stroke:none;stroke-width:1.71705px;stroke-linecap:butt;stroke-linejoin:miter;stroke-opacity:1"
     d="M 3.448276,10.546412 15.982495,23.94524 H 29.96499 l 0.035,-13.398828 H 3.476652 Z"
     id="path4152-2-5"
     inkscape:connector-curvature="0"
     sodipodi:nodetypes="cccccc" />
  <rect
     style="fill:#ffffff;fill-opacity:0.25;stroke:#e5e9ef;stroke-width:0.28132;stroke-opacity:0.5;paint-order:markers fill stroke"
     id="rect2191"
     width="27.758621"
     height="3.5499221e-07"
     x="2.1206942"
     y="23.629255" />
  <rect
     style="fill:#ffffff;fill-opacity:0.5;stroke:#e5e9ef;stroke-width:0.28132;stroke-opacity:0.5;paint-order:markers fill stroke"
     id="rect2191-0-9"
     width="27.758621"
     height="3.5499221e-07"
     x="2.1206942"
     y="25.088839" />
  <path
     style="color:#232629;fill:#ffffff;fill-opacity:1;stroke:none;stroke-width:0.484639"
     d="m 16.000054,13.076355 -4.827589,3.211081 v 0.19461 0.486528 h 0.482759 v 5.351801 h -0.482759 v 0.486528 h 9.655175 v -0.486528 h -0.482758 v -5.351801 h 0.482758 v -0.486528 -0.19461 z m 0,0.53518 4.199995,2.870511 h -8.399997 z m -3.862071,3.357039 h 0.965519 v 5.351801 h -0.965519 z m 1.448278,0 h 4.827586 v 5.351801 h -1.448276 v -2.919164 h -1.931034 v 2.919164 h -1.448276 z m 5.310345,0 h 0.965517 v 5.351801 h -0.965517 z"
     class="ColorScheme-Text"
     id="path6131-5-7" />
</svg>
