<?xml version="1.0" encoding="UTF-8" standalone="no"?>
<svg
   viewBox="0 0 32 32"
   version="1.1"
   id="svg12"
   sodipodi:docname="folder-presentation.svg"
   inkscape:version="1.2.1 (9c6d41e410, 2022-07-14)"
   xmlns:inkscape="http://www.inkscape.org/namespaces/inkscape"
   xmlns:sodipodi="http://sodipodi.sourceforge.net/DTD/sodipodi-0.dtd"
   xmlns:xlink="http://www.w3.org/1999/xlink"
   xmlns="http://www.w3.org/2000/svg"
   xmlns:svg="http://www.w3.org/2000/svg"
   xmlns:rdf="http://www.w3.org/1999/02/22-rdf-syntax-ns#"
   xmlns:cc="http://creativecommons.org/ns#"
   xmlns:dc="http://purl.org/dc/elements/1.1/">
  <metadata
     id="metadata16">
    <rdf:RDF>
      <cc:Work
         rdf:about="">
        <dc:format>image/svg+xml</dc:format>
        <dc:type
           rdf:resource="http://purl.org/dc/dcmitype/StillImage" />
      </cc:Work>
    </rdf:RDF>
  </metadata>
  <sodipodi:namedview
     pagecolor="#ffffff"
     bordercolor="#666666"
     borderopacity="1"
     objecttolerance="10"
     gridtolerance="10"
     guidetolerance="10"
     inkscape:pageopacity="0"
     inkscape:pageshadow="2"
     inkscape:window-width="1920"
     inkscape:window-height="1004"
     id="namedview14"
     showgrid="true"
     inkscape:zoom="10.429825"
     inkscape:cx="-15.292682"
     inkscape:cy="8.4852814"
     inkscape:window-x="0"
     inkscape:window-y="0"
     inkscape:window-maximized="1"
     inkscape:current-layer="svg12"
     inkscape:showpageshadow="2"
     inkscape:pagecheckerboard="0"
     inkscape:deskcolor="#d1d1d1">
    <inkscape:grid
       type="xygrid"
       id="grid18219" />
  </sodipodi:namedview>
  <defs
     id="defs3051">
    <style
       type="text/css"
       id="current-color-scheme">.ColorScheme-Text { color:#31363b; }
.ColorScheme-Background { color:#eff0f1; }
.ColorScheme-Highlight { color:#3daee9; }
.ColorScheme-ViewText { color:#31363b; }
.ColorScheme-ViewBackground { color:#fcfcfc; }
.ColorScheme-ViewHover { color:#93cee9; }
.ColorScheme-ViewFocus { color:#3daee9; }
.ColorScheme-ButtonText { color:#31363b; }
.ColorScheme-ButtonBackground { color:#eff0f1; }
.ColorScheme-ButtonHover { color:#93cee9; }
.ColorScheme-ButtonFocus { color:#3daee9; }
</style>
    <linearGradient
       inkscape:collect="always"
       id="linearGradient4393">
      <stop
         style="stop-color:#000000;stop-opacity:1;"
         offset="0"
         id="stop4395" />
      <stop
         style="stop-color:#000000;stop-opacity:0;"
         offset="1"
         id="stop4397" />
    </linearGradient>
    <filter
       inkscape:collect="always"
       style="color-interpolation-filters:sRGB"
       id="filter1881"
       x="-0.09064882"
       width="1.1812976"
       y="-0.40803665"
       height="1.8160733">
      <feGaussianBlur
         inkscape:collect="always"
         stdDeviation="0.85615684"
         id="feGaussianBlur1883" />
    </filter>
    <inkscape:path-effect
       effect="fillet_chamfer"
       id="path-effect1331"
       is_visible="true"
       lpeversion="1"
       satellites_param="F,0,0,1,0,2.1166667,0,1 @ F,0,0,1,0,2.1166667,0,1 @ F,0,0,1,0,2.1166667,0,1 @ F,0,0,1,0,2.1166667,0,1"
       unit="px"
       method="arc"
       mode="F"
       radius="8"
       chamfer_steps="1"
       flexible="false"
       use_knot_distance="true"
       apply_no_radius="true"
       apply_with_radius="true"
       only_selected="false"
       hide_knots="false"
       nodesatellites_param="F,0,0,1,0,2.1166667,0,1 @ F,0,0,1,0,2.1166667,0,1 @ F,0,0,1,0,2.1166667,0,1 @ F,0,0,1,0,2.1166667,0,1" />
    <linearGradient
       inkscape:collect="always"
       xlink:href="#linearGradient852"
       id="linearGradient854-7"
       x1="76.788559"
       y1="222.65123"
       x2="92.097359"
       y2="268.94839"
       gradientUnits="userSpaceOnUse"
       gradientTransform="matrix(0.3531329,0,0,0.35449418,-12.519926,-68.90854)" />
    <linearGradient
       inkscape:collect="always"
       id="linearGradient852">
      <stop
         style="stop-color:#87cdde;stop-opacity:1"
         offset="0"
         id="stop848" />
      <stop
         style="stop-color:#00ccff;stop-opacity:1"
         offset="1"
         id="stop850" />
    </linearGradient>
    <linearGradient
       inkscape:collect="always"
       xlink:href="#linearGradient4393"
       id="linearGradient668-3"
       gradientUnits="userSpaceOnUse"
       gradientTransform="matrix(1.7478123,0,0,1.686832,2.000019,-1749.5261)"
       x1="5"
       y1="1037.3622"
       x2="8"
       y2="1051.3622" />
  </defs>
  <path
     id="rect10"
     style="fill:#00aad4;fill-opacity:1;stroke-width:0.0579115"
     d="M 3.494983,5 C 2.669272,5 2,5.671909 2,6.500718 V 7.979275 25.499267 C 2,26.328047 2.669272,27 3.494983,27 h 25.010126 c 0.825613,0 1.494852,-0.671948 1.494852,-1.500733 L 29.997561,9.595913 C 29.934031,8.773905 30.029081,6.87587 27.226285,6.87587 H 14.50703 c 0.01168,0 -0.921897,-0.84414 -1.752937,-1.347326 C 12.090171,5.093715 11.193138,5 11.193138,5 Z"
     sodipodi:nodetypes="scccscccccccs" />
  <path
     style="opacity:0.309598;fill:#000000;fill-opacity:1;stroke:none;stroke-width:0.144851;stroke-opacity:1;filter:url(#filter1881)"
     id="rect873"
     width="22.667437"
     height="5.0357642"
     x="46.507095"
     y="222.89639"
     transform="matrix(0.50789101,0,0,0.68368449,-20.536561,-142.10558)"
     inkscape:path-effect="#path-effect1331"
     d="m 48.623762,222.89639 h 18.434103 a 2.1166667,2.1166667 45 0 1 2.116667,2.11667 v 0.80243 a 2.1166667,2.1166667 135 0 1 -2.116667,2.11667 l -18.434103,0 a 2.1166667,2.1166667 45 0 1 -2.116667,-2.11667 v -0.80243 a 2.1166667,2.1166667 135 0 1 2.116667,-2.11667 z"
     sodipodi:type="rect" />
  <path
     id="rect851"
     style="fill:#00c5f6;fill-opacity:1;stroke-width:0.0936051"
     d="m 14.478423,8.480364 v 1.48729 h -3.486281 c 1.72198,-0.0044 2.184443,-0.510027 3.486281,-1.48729 z m 0,0 h 13.956083 c 0.822384,-0.0039 1.562288,0.662645 1.565451,1.48729 H 14.478423 Z M 3.495074,9.967654 h 26.504887 v 15.064508 c 0,0.827934 -0.669238,1.499059 -1.494852,1.499059 H 3.495074 c -0.82571,0 -1.494982,-0.671125 -1.494982,-1.499059 V 11.466805 c 0,-0.827977 0.669272,-1.499151 1.494982,-1.499151 z"
     sodipodi:nodetypes="cccccccccccccsccc" />
  <path
     id="rect851-3"
     style="fill:url(#linearGradient854-7);fill-opacity:1;stroke-width:0.0936449"
     d="m 14.651873,9.072604 -0.03785,1.554976 -3.44781,-0.0661 c 1.722019,-0.0044 2.184391,-0.51062 3.486209,-1.488881 z m 0,0 h 13.853255 c 0.822365,-0.0039 1.491676,0.663307 1.494867,1.488881 l -15.386526,0.0661 z M 3.495098,10.561485 H 30 v 14.471329 c 0,0.828853 -0.669248,1.500733 -1.494872,1.500728 H 3.495098 c -0.82572,5e-6 -1.494992,-0.671875 -1.494992,-1.500728 V 12.062237 c 0,-0.828819 0.669272,-1.500752 1.494992,-1.500752 z"
     sodipodi:nodetypes="cccccccccccsccssc" />
  <rect
     style="fill:#ffffff;fill-opacity:0.25;stroke:#e5e9ef;stroke-width:0.28132;stroke-opacity:0.5;paint-order:markers fill stroke"
     id="rect2191"
     width="27.758619"
     height="3.5499221e-07"
     x="2.1207421"
     y="23.629248" />
  <rect
     style="fill:#ffffff;fill-opacity:0.5;stroke:#e5e9ef;stroke-width:0.28132;stroke-opacity:0.5;paint-order:markers fill stroke"
     id="rect2191-0-9"
     width="27.758619"
     height="3.5499221e-07"
     x="2.1207421"
     y="25.088829" />
  <path
     style="opacity:0.181;fill:url(#linearGradient668-3);fill-opacity:1;fill-rule:evenodd;stroke:none;stroke-width:1.71705px;stroke-linecap:butt;stroke-linejoin:miter;stroke-opacity:1"
     d="M 3.448276,10.546412 15.982496,23.94524 H 29.96499 l 0.035,-13.398828 H 3.476652 Z"
     id="path4152-2-5"
     inkscape:connector-curvature="0"
     sodipodi:nodetypes="cccccc" />
  <path
     fill-rule="evenodd"
     clip-rule="evenodd"
     d="m 19.448697,22.806903 h -5.172778 c -0.190178,0 -0.344506,-0.155952 -0.344506,-0.347507 0,-0.19212 0.154328,-0.347688 0.344506,-0.347688 h 5.172778 c 0.380814,0 0.689625,-0.311221 0.689625,-0.695082 v -6.950374 c 0,-0.383821 -0.308811,-0.694849 -0.689625,-0.694849 h -6.896723 c -0.38081,0 -0.689775,0.311028 -0.689775,0.694849 v 6.602867 c 0,0.192125 -0.154213,0.347512 -0.34484,0.347512 -0.190255,0 -0.344892,-0.155387 -0.344892,-0.347512 v -6.602867 c 0,-0.767682 0.617854,-1.389897 1.379507,-1.389897 h 6.896723 c 0.761547,0 1.378942,0.622215 1.378942,1.389897 v 6.950374 c 0,0.767682 -0.617395,1.390277 -1.378942,1.390277 z m -6.551831,-0.695195 c 0.190173,0 0.34481,0.155568 0.34481,0.347688 0,0.191555 -0.154637,0.347507 -0.34481,0.347507 -0.190593,0 -0.344892,-0.155952 -0.344892,-0.347507 0,-0.19212 0.154299,-0.347688 0.344892,-0.347688 z"
     id="path2-7-3"
     style="fill:#ffffff;fill-opacity:1;stroke-width:0.0216355" />
  <path
     fill-rule="evenodd"
     clip-rule="evenodd"
     d="m 18.432335,19.384936 c -0.08887,0 -0.160922,-0.0726 -0.160922,-0.162164 v -2.594816 c 0,-0.08956 -0.07202,-0.162184 -0.160884,-0.162184 h -0.321875 c -0.08887,0 -0.160884,0.07262 -0.160884,0.162184 v 3.324607 c 0,0.223958 -0.180108,0.405428 -0.402331,0.405428 h -0.160923 c -0.222194,0 -0.402263,-0.18147 -0.402263,-0.405428 v -1.702846 c 0,-0.08956 -0.07209,-0.162184 -0.160952,-0.162184 h -0.321807 c -0.08886,0 -0.160951,0.07263 -0.160951,0.162184 v 1.702846 c 0,0.223958 -0.180069,0.405428 -0.402303,0.405428 h -0.160884 c -0.222223,0 -0.402331,-0.18147 -0.402331,-0.405428 v -1.054154 c 0,-0.08958 -0.07202,-0.162164 -0.160922,-0.162164 h -0.321836 c -0.08886,0 -0.160923,0.07258 -0.160923,0.162164 v 1.135239 c 0,0.179115 -0.144113,0.324343 -0.321836,0.324343 -0.355455,0 -0.643681,-0.290437 -0.643681,-0.648692 v -2.919164 -1.135239 c 0,-0.08955 0.07206,-0.162179 0.160923,-0.162179 0.08887,0 0.160951,0.07262 0.160951,0.162179 v 0.574049 0.56119 2.919164 c 0,0.179116 0.123949,0.324344 0.24138,0.324344 0.04456,0 0.08043,-0.03625 0.08043,-0.08108 v -1.135239 c 0,-0.223929 0.180108,-0.405442 0.402331,-0.405442 h 0.482759 c 0.222194,0 0.402263,0.181513 0.402263,0.405442 v 1.054145 c 0,0.08956 0.07206,0.162174 0.160923,0.162174 0.08886,0 0.160952,-0.07262 0.160952,-0.162174 v -1.702851 c 0,-0.223958 0.180069,-0.405428 0.402263,-0.405428 h 0.482759 c 0.222233,0 0.402302,0.18147 0.402302,0.405428 v 1.702851 c 0,0.08956 0.07209,0.162174 0.160951,0.162174 0.08886,0 0.160885,-0.07262 0.160885,-0.162174 v -3.324598 c 0,-0.223972 0.180107,-0.405447 0.402302,-0.405447 h 0.482758 c 0.222224,0 0.402331,0.181475 0.402331,0.405447 v 2.675901 c 0,0.08956 -0.07209,0.162164 -0.160952,0.162164 z m 0,0.324363 c 0.08886,0 0.160952,0.07258 0.160952,0.162165 0,0.08956 -0.07209,0.162184 -0.160952,0.162184 -0.08887,0 -0.160922,-0.07262 -0.160922,-0.162184 0,-0.08958 0.07206,-0.162165 0.160922,-0.162165 z"
     id="path2-3-3-5-5"
     style="fill:#ffffff;fill-opacity:1;stroke-width:0.0100967" />
</svg>
