<?xml version="1.0" encoding="UTF-8" standalone="no"?>
<svg
   viewBox="0 0 32 32"
   version="1.1"
   id="svg14"
   sodipodi:docname="folder-openSUSE.svg"
   inkscape:version="1.2.1 (9c6d41e410, 2022-07-14)"
   xmlns:inkscape="http://www.inkscape.org/namespaces/inkscape"
   xmlns:sodipodi="http://sodipodi.sourceforge.net/DTD/sodipodi-0.dtd"
   xmlns:xlink="http://www.w3.org/1999/xlink"
   xmlns="http://www.w3.org/2000/svg"
   xmlns:svg="http://www.w3.org/2000/svg"
   xmlns:rdf="http://www.w3.org/1999/02/22-rdf-syntax-ns#"
   xmlns:cc="http://creativecommons.org/ns#"
   xmlns:dc="http://purl.org/dc/elements/1.1/">
  <metadata
     id="metadata18">
    <rdf:RDF>
      <cc:Work
         rdf:about="">
        <dc:format>image/svg+xml</dc:format>
        <dc:type
           rdf:resource="http://purl.org/dc/dcmitype/StillImage" />
      </cc:Work>
    </rdf:RDF>
  </metadata>
  <sodipodi:namedview
     pagecolor="#ffffff"
     bordercolor="#666666"
     borderopacity="1"
     objecttolerance="10"
     gridtolerance="10"
     guidetolerance="10"
     inkscape:pageopacity="0"
     inkscape:pageshadow="2"
     inkscape:window-width="1920"
     inkscape:window-height="1004"
     id="namedview16"
     showgrid="false"
     inkscape:zoom="7.375"
     inkscape:cx="15.254237"
     inkscape:cy="16.338983"
     inkscape:window-x="0"
     inkscape:window-y="0"
     inkscape:window-maximized="1"
     inkscape:current-layer="svg14"
     inkscape:document-rotation="0"
     inkscape:showpageshadow="2"
     inkscape:pagecheckerboard="0"
     inkscape:deskcolor="#d1d1d1" />
  <defs
     id="defs3051">
    <style
       type="text/css"
       id="current-color-scheme">.ColorScheme-Text { color:#31363b; }
.ColorScheme-Background { color:#eff0f1; }
.ColorScheme-Highlight { color:#3daee9; }
.ColorScheme-ViewText { color:#31363b; }
.ColorScheme-ViewBackground { color:#fcfcfc; }
.ColorScheme-ViewHover { color:#93cee9; }
.ColorScheme-ViewFocus { color:#3daee9; }
.ColorScheme-ButtonText { color:#31363b; }
.ColorScheme-ButtonBackground { color:#eff0f1; }
.ColorScheme-ButtonHover { color:#93cee9; }
.ColorScheme-ButtonFocus { color:#3daee9; }
</style>
    <linearGradient
       inkscape:collect="always"
       id="linearGradient4393">
      <stop
         style="stop-color:#000000;stop-opacity:1;"
         offset="0"
         id="stop4395" />
      <stop
         style="stop-color:#000000;stop-opacity:0;"
         offset="1"
         id="stop4397" />
    </linearGradient>
    <linearGradient
       inkscape:collect="always"
       xlink:href="#linearGradient886"
       id="linearGradient888"
       x1="75.75985"
       y1="208.49026"
       x2="91.646347"
       y2="264.21182"
       gradientUnits="userSpaceOnUse"
       gradientTransform="matrix(0.35313291,0,0,0.35449418,-12.501299,-69.127537)" />
    <linearGradient
       inkscape:collect="always"
       id="linearGradient886">
      <stop
         style="stop-color:#00a489;stop-opacity:1;"
         offset="0"
         id="stop882" />
      <stop
         style="stop-color:#00e5bf;stop-opacity:1;"
         offset="0.48468637"
         id="stop1402" />
      <stop
         style="stop-color:#00a489;stop-opacity:0.85000002;"
         offset="1"
         id="stop884" />
    </linearGradient>
    <filter
       inkscape:collect="always"
       style="color-interpolation-filters:sRGB"
       id="filter1881"
       x="-0.09064882"
       width="1.1812976"
       y="-0.40803665"
       height="1.8160733">
      <feGaussianBlur
         inkscape:collect="always"
         stdDeviation="0.85615684"
         id="feGaussianBlur1883" />
    </filter>
    <inkscape:path-effect
       effect="fillet_chamfer"
       id="path-effect1331"
       is_visible="true"
       lpeversion="1"
       satellites_param="F,0,0,1,0,2.1166667,0,1 @ F,0,0,1,0,2.1166667,0,1 @ F,0,0,1,0,2.1166667,0,1 @ F,0,0,1,0,2.1166667,0,1"
       unit="px"
       method="arc"
       mode="F"
       radius="8"
       chamfer_steps="1"
       flexible="false"
       use_knot_distance="true"
       apply_no_radius="true"
       apply_with_radius="true"
       only_selected="false"
       hide_knots="false"
       nodesatellites_param="F,0,0,1,0,2.1166667,0,1 @ F,0,0,1,0,2.1166667,0,1 @ F,0,0,1,0,2.1166667,0,1 @ F,0,0,1,0,2.1166667,0,1" />
    <linearGradient
       inkscape:collect="always"
       xlink:href="#linearGradient852"
       id="linearGradient854-7"
       x1="76.788559"
       y1="222.65123"
       x2="105.3699"
       y2="264.21182"
       gradientUnits="userSpaceOnUse"
       gradientTransform="matrix(0.35313291,0,0,0.35449418,-12.519952,-69.127537)" />
    <linearGradient
       inkscape:collect="always"
       id="linearGradient852">
      <stop
         style="stop-color:#00e5bf;stop-opacity:1;"
         offset="0"
         id="stop848" />
      <stop
         style="stop-color:#00a489;stop-opacity:1;"
         offset="1"
         id="stop850" />
    </linearGradient>
    <linearGradient
       inkscape:collect="always"
       xlink:href="#linearGradient4393"
       id="linearGradient668-3"
       gradientUnits="userSpaceOnUse"
       gradientTransform="matrix(1.7478124,0,0,1.686832,1.9999925,-1749.7452)"
       x1="5"
       y1="1037.3622"
       x2="8"
       y2="1051.3622" />
  </defs>
  <path
     id="rect10"
     style="fill:url(#linearGradient888);fill-opacity:1;stroke-width:0.0579115"
     d="m 3.4949565,4.781 c -0.825711,0 -1.494983,0.671909 -1.494983,1.500718 v 1.478557 17.519992 c 0,0.82878 0.669272,1.500733 1.494983,1.500733 H 28.505082 c 0.825615,0 1.494853,-0.671948 1.494853,-1.500733 L 29.997535,9.376913 C 29.934005,8.554905 30.029055,6.65687 27.226259,6.65687 H 14.50699 c 0.01168,0 -0.921895,-0.84414 -1.752935,-1.347326 C 12.090146,4.874715 11.193113,4.781 11.193113,4.781 Z"
     sodipodi:nodetypes="scccscccccccs" />
  <path
     style="opacity:0.309598;fill:#000000;fill-opacity:1;stroke:none;stroke-width:0.144851;stroke-opacity:1;filter:url(#filter1881)"
     id="rect873"
     width="22.667437"
     height="5.0357642"
     x="46.507095"
     y="222.89639"
     transform="matrix(0.50789103,0,0,0.68368449,-20.536589,-142.32458)"
     inkscape:path-effect="#path-effect1331"
     d="m 48.623762,222.89639 h 18.434103 a 2.1166667,2.1166667 45 0 1 2.116667,2.11667 v 0.80243 a 2.1166667,2.1166667 135 0 1 -2.116667,2.11667 l -18.434103,0 a 2.1166667,2.1166667 45 0 1 -2.116667,-2.11667 v -0.80243 a 2.1166667,2.1166667 135 0 1 2.116667,-2.11667 z"
     sodipodi:type="rect" />
  <path
     id="rect851"
     style="fill:#00a489;fill-opacity:1;stroke-width:0.0936051"
     d="m 14.478395,8.261364 v 1.48729 h -3.48628 c 1.721981,-0.0044 2.184444,-0.510027 3.48628,-1.48729 z m 0,0 h 13.956084 c 0.822384,-0.0039 1.562288,0.662645 1.565451,1.48729 H 14.478395 Z M 3.4950475,9.748654 H 29.999934 v 15.064508 c 0,0.827933 -0.669238,1.499059 -1.494852,1.499059 H 3.4950475 c -0.82571,0 -1.494982,-0.671126 -1.494982,-1.499059 V 11.247805 c 0,-0.827977 0.669272,-1.499151 1.494982,-1.499151 z"
     sodipodi:nodetypes="cccccccccccccsccc" />
  <path
     id="rect851-3"
     style="fill:url(#linearGradient854-7);fill-opacity:1;stroke-width:0.0936449"
     d="m 14.651846,8.853604 -0.03785,1.554976 -3.447809,-0.0661 c 1.722019,-0.0044 2.184391,-0.51062 3.486208,-1.488881 z m 0,0 h 13.853256 c 0.822364,-0.0039 1.491675,0.663307 1.494867,1.488881 l -15.386526,0.0661 z M 3.4950725,10.342485 H 29.999973 v 14.471329 c 0,0.828853 -0.669248,1.500732 -1.494872,1.500728 H 3.4950725 c -0.82572,4e-6 -1.494993,-0.671875 -1.494993,-1.500728 V 11.843237 c 0,-0.828819 0.669273,-1.500752 1.494993,-1.500752 z"
     sodipodi:nodetypes="cccccccccccsccssc" />
  <path
     style="opacity:0.181;fill:url(#linearGradient668-3);fill-opacity:1;fill-rule:evenodd;stroke:none;stroke-width:1.71705px;stroke-linecap:butt;stroke-linejoin:miter;stroke-opacity:1"
     d="M 3.4482495,10.327412 15.982469,23.72624 h 13.982495 l 0.035,-13.398828 H 3.4766255 Z"
     id="path4152-2-5"
     inkscape:connector-curvature="0"
     sodipodi:nodetypes="cccccc" />
  <rect
     style="fill:#ffffff;fill-opacity:0.25;stroke:#e5e9ef;stroke-width:0.28132;stroke-opacity:0.5;paint-order:markers fill stroke"
     id="rect2191"
     width="27.758621"
     height="3.5499221e-07"
     x="2.1206641"
     y="23.41025" />
  <rect
     style="fill:#ffffff;fill-opacity:0.5;stroke:#e5e9ef;stroke-width:0.28132;stroke-opacity:0.5;paint-order:markers fill stroke"
     id="rect2191-0-9"
     width="27.758621"
     height="3.5499221e-07"
     x="2.1206641"
     y="24.869831" />
  <path
     style="color:#4d4d4d;font-size:20.4884px;font-family:TrebuchetMS-Bold;fill:#e7f9ff;fill-opacity:1;fill-rule:evenodd;stroke:none;stroke-width:0.0693902;stroke-miterlimit:4"
     d="m 15.999974,12.857355 c -2.665996,0 -4.827587,2.178213 -4.827587,4.865274 0,2.68706 2.16159,4.865273 4.827586,4.865273 2.666001,0 4.827586,-2.178213 4.827586,-4.865273 0,-2.687061 -2.161585,-4.865274 -4.827585,-4.865274 z m 0.02312,0.673787 c 2.2971,0 4.160795,1.876706 4.160795,4.191487 0,2.315025 -1.863946,4.191486 -4.160795,4.191486 -1.240337,0 -2.353327,-0.547857 -3.115257,-1.41568 0.313286,-0.245049 0.837432,-0.185262 1.482949,-0.111105 0.309347,0.03543 0.661996,0.07604 1.025973,0.08422 1.016888,0.0059 2.111016,-0.181087 2.786313,-0.478462 0.436573,-0.192961 0.7161,-0.320035 0.890829,-0.480252 0.06301,-0.0521 0.09609,-0.139099 0.129809,-0.229373 l 0.02313,-0.06093 c 0.02829,-0.07292 0.06892,-0.229825 0.08712,-0.31539 0.0081,-0.03744 0.01217,-0.07773 -0.01424,-0.09856 l -0.09424,0.01789 c -0.296301,0.179074 -1.036593,0.520129 -1.730104,0.534015 -0.859383,0.01813 -2.591448,-0.871884 -2.772086,-0.965884 l -0.01777,-0.02149 c -0.0433,-0.104171 -0.302516,-0.724325 -0.3574,-0.854785 1.246743,0.827402 2.280392,1.285363 3.072589,1.356546 0.880789,0.07887 1.567841,-0.405767 1.861682,-0.612866 0.05734,-0.03943 0.101171,-0.07036 0.119135,-0.07706 l 0.01955,-0.03224 c -0.04872,-0.31201 -0.510846,-1.821835 -0.858828,-2.184443 -0.09647,-0.09946 -0.173175,-0.196245 -0.328957,-0.288514 -1.259536,-0.739847 -4.250139,-1.185428 -4.390163,-1.206017 l -0.02312,0.0071 -0.0089,0.01969 c 0,0 -0.01125,0.625849 -0.01245,0.695298 -0.102625,-0.03421 -0.42084,-0.139224 -0.876617,-0.265219 0.59469,-0.741582 1.506057,-1.39955 3.101033,-1.39955 z m 1.098883,2.218499 c 0.02124,-3.26e-4 0.04263,-6.32e-4 0.06401,0 0.705561,0.02552 1.259904,0.624455 1.23579,1.335038 -0.01255,0.343758 -0.156366,0.661371 -0.405416,0.895998 -0.249789,0.235868 -0.574444,0.358805 -0.917507,0.347649 -0.704341,-0.02652 -1.258677,-0.625452 -1.23579,-1.335037 0.01207,-0.344254 0.15666,-0.663909 0.407187,-0.897795 0.233945,-0.221123 0.533371,-0.341042 0.851721,-0.345853 z m -0.03379,0.379902 c -0.205496,0.0126 -0.399405,0.09668 -0.551218,0.24013 -0.173002,0.163691 -0.275086,0.385323 -0.282714,0.625405 -0.01627,0.496043 0.368896,0.913486 0.860605,0.931835 0.238965,0.0075 0.46564,-0.07693 0.640124,-0.240122 0.173991,-0.164438 0.27534,-0.388111 0.282718,-0.627201 0.01646,-0.496783 -0.370435,-0.912689 -0.862386,-0.930047 -0.02979,-0.001 -0.05777,-0.0016 -0.08712,0 z m 0.234713,0.449788 c 0.21853,0 0.394737,0.119683 0.394737,0.267007 0,0.146586 -0.176207,0.267008 -0.394737,0.267008 -0.219279,0 -0.396524,-0.120674 -0.396524,-0.267008 0,-0.147324 0.177245,-0.267007 0.396524,-0.267007 z"
     id="path2445-9-0-7-3"
     class="ColorScheme-Text"
     inkscape:connector-curvature="0" />
</svg>
