<?xml version="1.0" encoding="UTF-8" standalone="no"?>
<svg
   viewBox="0 0 32 32"
   version="1.1"
   id="svg14"
   sodipodi:docname="folder-activities.svg"
   inkscape:version="1.2.1 (9c6d41e410, 2022-07-14)"
   xmlns:inkscape="http://www.inkscape.org/namespaces/inkscape"
   xmlns:sodipodi="http://sodipodi.sourceforge.net/DTD/sodipodi-0.dtd"
   xmlns:xlink="http://www.w3.org/1999/xlink"
   xmlns="http://www.w3.org/2000/svg"
   xmlns:svg="http://www.w3.org/2000/svg"
   xmlns:rdf="http://www.w3.org/1999/02/22-rdf-syntax-ns#"
   xmlns:cc="http://creativecommons.org/ns#"
   xmlns:dc="http://purl.org/dc/elements/1.1/">
  <metadata
     id="metadata18">
    <rdf:RDF>
      <cc:Work
         rdf:about="">
        <dc:format>image/svg+xml</dc:format>
        <dc:type
           rdf:resource="http://purl.org/dc/dcmitype/StillImage" />
      </cc:Work>
    </rdf:RDF>
  </metadata>
  <sodipodi:namedview
     pagecolor="#ffffff"
     bordercolor="#666666"
     borderopacity="1"
     objecttolerance="10"
     gridtolerance="10"
     guidetolerance="10"
     inkscape:pageopacity="0"
     inkscape:pageshadow="2"
     inkscape:window-width="1920"
     inkscape:window-height="1004"
     id="namedview16"
     showgrid="false"
     inkscape:zoom="7.375"
     inkscape:cx="-4.8135593"
     inkscape:cy="16.338983"
     inkscape:window-x="0"
     inkscape:window-y="0"
     inkscape:window-maximized="1"
     inkscape:current-layer="svg14"
     inkscape:showpageshadow="2"
     inkscape:pagecheckerboard="0"
     inkscape:deskcolor="#d1d1d1" />
  <defs
     id="defs3051">
    <style
       type="text/css"
       id="current-color-scheme">.ColorScheme-Text { color:#31363b; }
.ColorScheme-Background { color:#eff0f1; }
.ColorScheme-Highlight { color:#3daee9; }
.ColorScheme-ViewText { color:#31363b; }
.ColorScheme-ViewBackground { color:#fcfcfc; }
.ColorScheme-ViewHover { color:#93cee9; }
.ColorScheme-ViewFocus { color:#3daee9; }
.ColorScheme-ButtonText { color:#31363b; }
.ColorScheme-ButtonBackground { color:#eff0f1; }
.ColorScheme-ButtonHover { color:#93cee9; }
.ColorScheme-ButtonFocus { color:#3daee9; }
</style>
    <linearGradient
       inkscape:collect="always"
       xlink:href="#linearGradient886"
       id="linearGradient888"
       x1="75.75985"
       y1="208.49026"
       x2="91.646347"
       y2="264.21182"
       gradientUnits="userSpaceOnUse"
       gradientTransform="matrix(0.35313239,0,0,0.35449417,-12.501252,-68.908535)" />
    <linearGradient
       inkscape:collect="always"
       id="linearGradient886">
      <stop
         style="stop-color:#3465a4;stop-opacity:1"
         offset="0"
         id="stop882" />
      <stop
         style="stop-color:#729fcf;stop-opacity:1"
         offset="0.48468637"
         id="stop1402" />
      <stop
         style="stop-color:#31609b;stop-opacity:1;"
         offset="1"
         id="stop884" />
    </linearGradient>
    <filter
       inkscape:collect="always"
       style="color-interpolation-filters:sRGB"
       id="filter1881"
       x="-0.09064882"
       width="1.1812976"
       y="-0.40803665"
       height="1.8160733">
      <feGaussianBlur
         inkscape:collect="always"
         stdDeviation="0.85615684"
         id="feGaussianBlur1883" />
    </filter>
    <inkscape:path-effect
       effect="fillet_chamfer"
       id="path-effect1331"
       is_visible="true"
       lpeversion="1"
       satellites_param="F,0,0,1,0,2.1166667,0,1 @ F,0,0,1,0,2.1166667,0,1 @ F,0,0,1,0,2.1166667,0,1 @ F,0,0,1,0,2.1166667,0,1"
       unit="px"
       method="arc"
       mode="F"
       radius="8"
       chamfer_steps="1"
       flexible="false"
       use_knot_distance="true"
       apply_no_radius="true"
       apply_with_radius="true"
       only_selected="false"
       hide_knots="false"
       nodesatellites_param="F,0,0,1,0,2.1166667,0,1 @ F,0,0,1,0,2.1166667,0,1 @ F,0,0,1,0,2.1166667,0,1 @ F,0,0,1,0,2.1166667,0,1" />
    <linearGradient
       inkscape:collect="always"
       xlink:href="#linearGradient852"
       id="linearGradient854-7"
       x1="76.788559"
       y1="222.65123"
       x2="92.097359"
       y2="268.94839"
       gradientUnits="userSpaceOnUse"
       gradientTransform="matrix(0.35313239,0,0,0.35449417,-12.519905,-68.908535)" />
    <linearGradient
       inkscape:collect="always"
       id="linearGradient852">
      <stop
         style="stop-color:#83a7d8;stop-opacity:1;"
         offset="0"
         id="stop848" />
      <stop
         style="stop-color:#487fc6;stop-opacity:1;"
         offset="1"
         id="stop850" />
    </linearGradient>
    <linearGradient
       inkscape:collect="always"
       xlink:href="#linearGradient4393"
       id="linearGradient668"
       gradientUnits="userSpaceOnUse"
       gradientTransform="matrix(1.7478099,0,0,1.686832,2.0000725,-1749.5261)"
       x1="5"
       y1="1037.3622"
       x2="8"
       y2="1051.3622" />
    <linearGradient
       inkscape:collect="always"
       id="linearGradient4393">
      <stop
         style="stop-color:#000000;stop-opacity:1;"
         offset="0"
         id="stop4395" />
      <stop
         style="stop-color:#000000;stop-opacity:0;"
         offset="1"
         id="stop4397" />
    </linearGradient>
  </defs>
  <path
     id="rect10"
     style="fill:url(#linearGradient888);fill-opacity:1;stroke-width:0.0579115"
     d="M 3.4949799,5 C 2.6692712,5 2,5.671909 2,6.500718 V 7.979275 25.499268 C 2,26.328047 2.6692712,27 3.4949799,27 H 28.505071 c 0.825612,0 1.49485,-0.671948 1.49485,-1.500732 L 29.997541,9.595913 C 29.934007,8.773905 30.029064,6.87587 27.226268,6.87587 H 14.507031 c 0.01168,0 -0.921893,-0.84414 -1.752932,-1.347326 C 12.09019,5.093715 11.193158,5 11.193158,5 Z"
     sodipodi:nodetypes="scccscccccccs" />
  <path
     style="opacity:0.309598;fill:#000000;fill-opacity:1;stroke:none;stroke-width:0.144851;stroke-opacity:1;filter:url(#filter1881)"
     id="rect873"
     width="22.667437"
     height="5.0357642"
     x="46.507095"
     y="222.89639"
     transform="matrix(0.50789032,0,0,0.6836845,-20.53653,-142.10559)"
     inkscape:path-effect="#path-effect1331"
     d="m 48.623762,222.89639 h 18.434103 a 2.1166667,2.1166667 45 0 1 2.116667,2.11667 v 0.80243 a 2.1166667,2.1166667 135 0 1 -2.116667,2.11667 l -18.434103,0 a 2.1166667,2.1166667 45 0 1 -2.116667,-2.11667 v -0.80243 a 2.1166667,2.1166667 135 0 1 2.116667,-2.11667 z"
     sodipodi:type="rect" />
  <path
     id="rect851"
     style="fill:#3465a4;fill-opacity:1;stroke-width:0.0936052"
     d="m 14.478405,8.480364 v 1.4872888 h -3.486277 c 1.721979,-0.0043 2.184443,-0.5100258 3.486277,-1.4872888 z m 0,0 h 13.956061 c 0.822384,-0.0039 1.562289,0.662645 1.56545,1.4872888 H 14.478405 Z M 3.4950723,9.9676528 H 29.999921 V 25.032162 c 0,0.827934 -0.669238,1.499059 -1.49485,1.499059 H 3.4950723 c -0.8257088,0 -1.49498,-0.671125 -1.49498,-1.499059 V 11.466806 c 0,-0.827977 0.6692712,-1.4991532 1.49498,-1.4991532 z"
     sodipodi:nodetypes="cccccccccccccsccc" />
  <path
     id="rect851-3"
     style="fill:url(#linearGradient854-7);fill-opacity:1;stroke-width:0.0936449"
     d="m 14.651855,9.072604 -0.03784,1.554975 -3.447804,-0.06609 c 1.722019,-0.0043 2.184389,-0.51062 3.486203,-1.488881 z m 0,0 H 28.50509 c 0.822364,-0.0039 1.491675,0.663307 1.494865,1.488881 l -15.386504,0.06609 z M 3.4950961,10.561485 H 29.99996 v 14.471329 c 0,0.828853 -0.669248,1.500733 -1.49487,1.500728 H 3.4950961 c -0.8257177,5e-6 -1.49499,-0.671875 -1.49499,-1.500728 V 12.062237 c 0,-0.828819 0.6692723,-1.500752 1.49499,-1.500752 z"
     sodipodi:nodetypes="cccccccccccsccssc" />
  <rect
     style="fill:#ffffff;fill-opacity:0.25;stroke:#e5e9ef;stroke-width:0.28132;stroke-opacity:0.5;paint-order:markers fill stroke"
     id="rect2191"
     width="27.758579"
     height="3.5499221e-07"
     x="2.1207399"
     y="23.629248" />
  <rect
     style="fill:#ffffff;fill-opacity:0.5;stroke:#e5e9ef;stroke-width:0.28132;stroke-opacity:0.5;paint-order:markers fill stroke"
     id="rect2191-0-9"
     width="27.758579"
     height="3.5499221e-07"
     x="2.1207399"
     y="25.088831" />
  <path
     style="opacity:0.181;fill:url(#linearGradient668);fill-opacity:1;fill-rule:evenodd;stroke:none;stroke-width:1.71705px;stroke-linecap:butt;stroke-linejoin:miter;stroke-opacity:1"
     d="M 3.4483272,10.546413 15.982529,23.945241 H 29.965004 L 30,10.546413 H 3.4766997 Z"
     id="path4152-2"
     inkscape:connector-curvature="0"
     sodipodi:nodetypes="cccccc" />
  <path
     style="color:#eff0f1;fill:#ffffff;fill-opacity:1;stroke:none;stroke-width:0.48464"
     d="m 13.344865,13.076355 a 0.7241381,0.72978865 0 0 0 -0.724137,0.72979 0.7241381,0.72978865 0 0 0 0.724137,0.729792 0.7241381,0.72978865 0 0 0 0.724135,-0.729792 0.7241381,0.72978865 0 0 0 -0.724135,-0.72979 z m 4.103441,0 -1.372842,1.383562 2.112066,2.128558 -2.187497,2.508656 1.448273,1.277135 3.379307,-3.892219 z m -5.068958,3.405692 a 1.2068913,1.2163185 0 0 0 -1.206894,1.216318 1.2068913,1.2163185 0 0 0 1.206894,1.216319 1.2068913,1.2163185 0 0 0 1.206896,-1.216319 1.2068913,1.2163185 0 0 0 -1.206896,-1.216318 z m 2.172412,3.405691 a 1.44827,1.4595822 0 0 0 -1.448275,1.459583 1.44827,1.4595822 0 0 0 1.448275,1.459582 1.44827,1.4595822 0 0 0 1.448273,-1.459582 1.44827,1.4595822 0 0 0 -1.448273,-1.459583 z"
     class="ColorScheme-Background"
     id="path12-6-2-3-8" />
</svg>
