<?xml version="1.0" encoding="UTF-8" standalone="no"?>
<svg
   viewBox="0 0 32 32"
   version="1.1"
   id="svg12"
   sodipodi:docname="folder-windows.svg"
   inkscape:version="1.2.1 (9c6d41e410, 2022-07-14)"
   xmlns:inkscape="http://www.inkscape.org/namespaces/inkscape"
   xmlns:sodipodi="http://sodipodi.sourceforge.net/DTD/sodipodi-0.dtd"
   xmlns:xlink="http://www.w3.org/1999/xlink"
   xmlns="http://www.w3.org/2000/svg"
   xmlns:svg="http://www.w3.org/2000/svg"
   xmlns:rdf="http://www.w3.org/1999/02/22-rdf-syntax-ns#"
   xmlns:cc="http://creativecommons.org/ns#"
   xmlns:dc="http://purl.org/dc/elements/1.1/">
  <metadata
     id="metadata16">
    <rdf:RDF>
      <cc:Work
         rdf:about="">
        <dc:format>image/svg+xml</dc:format>
        <dc:type
           rdf:resource="http://purl.org/dc/dcmitype/StillImage" />
      </cc:Work>
    </rdf:RDF>
  </metadata>
  <sodipodi:namedview
     pagecolor="#ffffff"
     bordercolor="#666666"
     borderopacity="1"
     objecttolerance="10"
     gridtolerance="10"
     guidetolerance="10"
     inkscape:pageopacity="0"
     inkscape:pageshadow="2"
     inkscape:window-width="1920"
     inkscape:window-height="1004"
     id="namedview14"
     showgrid="true"
     inkscape:zoom="10.429825"
     inkscape:cx="-16.059713"
     inkscape:cy="0.23969721"
     inkscape:window-x="0"
     inkscape:window-y="0"
     inkscape:window-maximized="1"
     inkscape:current-layer="svg12"
     inkscape:showpageshadow="2"
     inkscape:pagecheckerboard="0"
     inkscape:deskcolor="#d1d1d1">
    <inkscape:grid
       type="xygrid"
       id="grid18219" />
  </sodipodi:namedview>
  <defs
     id="defs3051">
    <style
       type="text/css"
       id="current-color-scheme">.ColorScheme-Text { color:#31363b; }
.ColorScheme-Background { color:#eff0f1; }
.ColorScheme-Highlight { color:#3daee9; }
.ColorScheme-ViewText { color:#31363b; }
.ColorScheme-ViewBackground { color:#fcfcfc; }
.ColorScheme-ViewHover { color:#93cee9; }
.ColorScheme-ViewFocus { color:#3daee9; }
.ColorScheme-ButtonText { color:#31363b; }
.ColorScheme-ButtonBackground { color:#eff0f1; }
.ColorScheme-ButtonHover { color:#93cee9; }
.ColorScheme-ButtonFocus { color:#3daee9; }
</style>
    <linearGradient
       inkscape:collect="always"
       id="linearGradient4393">
      <stop
         style="stop-color:#000000;stop-opacity:1;"
         offset="0"
         id="stop4395" />
      <stop
         style="stop-color:#000000;stop-opacity:0;"
         offset="1"
         id="stop4397" />
    </linearGradient>
    <linearGradient
       inkscape:collect="always"
       xlink:href="#linearGradient1339"
       id="linearGradient1341"
       x1="29.29096"
       y1="7.2355514"
       x2="46.445652"
       y2="48.339722"
       gradientUnits="userSpaceOnUse"
       gradientTransform="matrix(0.48275857,0,0,0.48652738,0.551707,0.426643)" />
    <linearGradient
       inkscape:collect="always"
       id="linearGradient1339">
      <stop
         style="stop-color:#00cbfd;stop-opacity:1;"
         offset="0"
         id="stop1335" />
      <stop
         style="stop-color:#00cafc;stop-opacity:0;"
         offset="1"
         id="stop1337" />
    </linearGradient>
    <filter
       inkscape:collect="always"
       style="color-interpolation-filters:sRGB"
       id="filter1881"
       x="-0.09064882"
       width="1.1812976"
       y="-0.40803665"
       height="1.8160733">
      <feGaussianBlur
         inkscape:collect="always"
         stdDeviation="0.85615684"
         id="feGaussianBlur1883" />
    </filter>
    <inkscape:path-effect
       effect="fillet_chamfer"
       id="path-effect1331"
       is_visible="true"
       lpeversion="1"
       satellites_param="F,0,0,1,0,2.1166667,0,1 @ F,0,0,1,0,2.1166667,0,1 @ F,0,0,1,0,2.1166667,0,1 @ F,0,0,1,0,2.1166667,0,1"
       unit="px"
       method="arc"
       mode="F"
       radius="8"
       chamfer_steps="1"
       flexible="false"
       use_knot_distance="true"
       apply_no_radius="true"
       apply_with_radius="true"
       only_selected="false"
       hide_knots="false"
       nodesatellites_param="F,0,0,1,0,2.1166667,0,1 @ F,0,0,1,0,2.1166667,0,1 @ F,0,0,1,0,2.1166667,0,1 @ F,0,0,1,0,2.1166667,0,1" />
    <linearGradient
       inkscape:collect="always"
       xlink:href="#linearGradient852"
       id="linearGradient854-7"
       x1="76.788559"
       y1="222.65123"
       x2="92.097359"
       y2="268.94839"
       gradientUnits="userSpaceOnUse"
       gradientTransform="matrix(0.35313287,0,0,0.35449417,-12.519925,-68.90854)" />
    <linearGradient
       inkscape:collect="always"
       id="linearGradient852">
      <stop
         style="stop-color:#87cdde;stop-opacity:1"
         offset="0"
         id="stop848" />
      <stop
         style="stop-color:#00ccff;stop-opacity:1"
         offset="1"
         id="stop850" />
    </linearGradient>
    <linearGradient
       inkscape:collect="always"
       xlink:href="#linearGradient4393"
       id="linearGradient668-3"
       gradientUnits="userSpaceOnUse"
       gradientTransform="matrix(1.7478122,0,0,1.686832,2.00002,-1749.5261)"
       x1="5"
       y1="1037.3622"
       x2="8"
       y2="1051.3622" />
  </defs>
  <path
     id="rect10"
     style="fill:url(#linearGradient1341);fill-opacity:1;stroke-width:0.0579115"
     d="M 3.494983,5 C 2.669272,5 2,5.671909 2,6.500718 V 7.979275 25.499267 C 2,26.328047 2.669272,27 3.494983,27 h 25.010125 c 0.825613,0 1.494852,-0.671948 1.494852,-1.500733 L 29.99756,9.595913 C 29.93403,8.773906 30.02908,6.87587 27.226284,6.87587 H 14.50703 c 0.01168,0 -0.921895,-0.84414 -1.752935,-1.347326 C 12.090187,5.093715 11.193151,5 11.193151,5 Z"
     sodipodi:nodetypes="scccscccccccs" />
  <path
     style="opacity:0.309598;fill:#000000;fill-opacity:1;stroke:none;stroke-width:0.144851;stroke-opacity:1;filter:url(#filter1881)"
     id="rect873"
     width="22.667437"
     height="5.0357642"
     x="46.507095"
     y="222.89639"
     transform="matrix(0.50789098,0,0,0.68368448,-20.536559,-142.10558)"
     inkscape:path-effect="#path-effect1331"
     d="m 48.623762,222.89639 h 18.434103 a 2.1166667,2.1166667 45 0 1 2.116667,2.11667 v 0.80243 a 2.1166667,2.1166667 135 0 1 -2.116667,2.11667 l -18.434103,0 a 2.1166667,2.1166667 45 0 1 -2.116667,-2.11667 v -0.80243 a 2.1166667,2.1166667 135 0 1 2.116667,-2.11667 z"
     sodipodi:type="rect" />
  <path
     id="rect851"
     style="fill:#00c5f6;fill-opacity:1;stroke-width:0.0936051"
     d="m 14.478424,8.480364 v 1.48729 H 10.99214 c 1.721978,-0.0044 2.184443,-0.510026 3.486284,-1.48729 z m 0,0 h 13.956081 c 0.822384,-0.0039 1.562289,0.662646 1.565452,1.48729 H 14.478424 Z M 3.495075,9.967654 H 29.99996 v 15.064508 c 0,0.827934 -0.669238,1.499059 -1.494852,1.499059 H 3.495075 c -0.82571,0 -1.494983,-0.671125 -1.494983,-1.499059 V 11.466806 c 0,-0.827977 0.669273,-1.499152 1.494983,-1.499152 z"
     sodipodi:nodetypes="cccccccccccccsccc" />
  <path
     id="rect851-3"
     style="fill:url(#linearGradient854-7);fill-opacity:1;stroke-width:0.0936449"
     d="m 14.651875,9.072604 -0.03785,1.554976 -3.447811,-0.0661 c 1.722018,-0.0044 2.18439,-0.51062 3.48621,-1.488881 z m 0,0 h 13.853252 c 0.822366,-0.0039 1.491676,0.663308 1.494867,1.488881 l -15.386523,0.0661 z M 3.495098,10.561485 h 26.504901 v 14.471329 c 0,0.828853 -0.669249,1.500733 -1.494872,1.500728 H 3.495098 c -0.825719,5e-6 -1.494991,-0.671875 -1.494991,-1.500728 V 12.062237 c 0,-0.828819 0.669272,-1.500752 1.494991,-1.500752 z"
     sodipodi:nodetypes="cccccccccccsccssc" />
  <rect
     style="fill:#ffffff;fill-opacity:0.25;stroke:#e5e9ef;stroke-width:0.28132;stroke-opacity:0.5;paint-order:markers fill stroke"
     id="rect2191"
     width="27.758617"
     height="3.5499221e-07"
     x="2.120744"
     y="23.629257" />
  <rect
     style="fill:#ffffff;fill-opacity:0.5;stroke:#e5e9ef;stroke-width:0.28132;stroke-opacity:0.5;paint-order:markers fill stroke"
     id="rect2191-0-9"
     width="27.758617"
     height="3.5499221e-07"
     x="2.120744"
     y="25.088839" />
  <path
     style="opacity:0.181;fill:url(#linearGradient668-3);fill-opacity:1;fill-rule:evenodd;stroke:none;stroke-width:1.71705px;stroke-linecap:butt;stroke-linejoin:miter;stroke-opacity:1"
     d="m 3.448276,10.546413 12.534219,13.398828 h 13.982494 l 0.035,-13.398828 H 3.476653 Z"
     id="path4152-2-5"
     inkscape:connector-curvature="0"
     sodipodi:nodetypes="cccccc" />
  <path
     style="color:#232629;fill:#fafeff;fill-opacity:1;stroke:none;stroke-width:0.43931"
     d="m 10.327642,13.076355 v 9.730547 h 11.344823 v -9.730547 z m 7.854079,0.442301 c 0.240859,0 0.43638,0.198144 0.43638,0.442293 0,0.244149 -0.195521,0.442301 -0.43638,0.442301 -0.240853,0 -0.436305,-0.198152 -0.436305,-0.442301 0,-0.244149 0.195453,-0.442293 0.436305,-0.442293 z m 1.309069,0 c 0.240851,0 0.436304,0.198144 0.436304,0.442293 0,0.244149 -0.195453,0.442301 -0.436304,0.442301 -0.240926,0 -0.43638,-0.198152 -0.43638,-0.442301 0,-0.244149 0.195454,-0.442293 0.43638,-0.442293 z m 1.308988,0 c 0.240848,0 0.436302,0.198144 0.436302,0.442293 0,0.244149 -0.195454,0.442301 -0.436302,0.442301 -0.240853,0 -0.43638,-0.198152 -0.43638,-0.442301 0,-0.244149 0.195527,-0.442293 0.43638,-0.442293 z m -10.03583,1.326887 H 21.23608 v 7.519058 H 10.763948 Z m 2.618048,1.326897 v 2.211489 h 2.181673 V 16.17244 Z m 2.618057,0 v 2.211489 h 2.181668 V 16.17244 Z m -2.618057,2.653783 v 2.21149 h 2.181673 v -2.21149 z m 2.618057,0 v 2.21149 h 2.181668 v -2.21149 z"
     class="ColorScheme-Text"
     id="path28423-7" />
</svg>
