<?xml version="1.0" encoding="UTF-8" standalone="no"?>
<svg
   viewBox="0 0 32 32"
   version="1.1"
   id="svg12"
   sodipodi:docname="folder.svg"
   inkscape:version="1.2.1 (9c6d41e410, 2022-07-14)"
   xmlns:inkscape="http://www.inkscape.org/namespaces/inkscape"
   xmlns:sodipodi="http://sodipodi.sourceforge.net/DTD/sodipodi-0.dtd"
   xmlns:xlink="http://www.w3.org/1999/xlink"
   xmlns="http://www.w3.org/2000/svg"
   xmlns:svg="http://www.w3.org/2000/svg"
   xmlns:rdf="http://www.w3.org/1999/02/22-rdf-syntax-ns#"
   xmlns:cc="http://creativecommons.org/ns#"
   xmlns:dc="http://purl.org/dc/elements/1.1/">
  <metadata
     id="metadata16">
    <rdf:RDF>
      <cc:Work
         rdf:about="">
        <dc:format>image/svg+xml</dc:format>
        <dc:type
           rdf:resource="http://purl.org/dc/dcmitype/StillImage" />
      </cc:Work>
    </rdf:RDF>
  </metadata>
  <sodipodi:namedview
     pagecolor="#ffffff"
     bordercolor="#666666"
     borderopacity="1"
     objecttolerance="10"
     gridtolerance="10"
     guidetolerance="10"
     inkscape:pageopacity="0"
     inkscape:pageshadow="2"
     inkscape:window-width="1920"
     inkscape:window-height="1004"
     id="namedview14"
     showgrid="true"
     inkscape:zoom="10.429825"
     inkscape:cx="5.1295204"
     inkscape:cy="17.402018"
     inkscape:window-x="0"
     inkscape:window-y="0"
     inkscape:window-maximized="1"
     inkscape:current-layer="svg12"
     inkscape:showpageshadow="2"
     inkscape:pagecheckerboard="0"
     inkscape:deskcolor="#d1d1d1">
    <inkscape:grid
       type="xygrid"
       id="grid18219" />
  </sodipodi:namedview>
  <defs
     id="defs3051">
    <style
       type="text/css"
       id="current-color-scheme">.ColorScheme-Text { color:#31363b; }
.ColorScheme-Background { color:#eff0f1; }
.ColorScheme-Highlight { color:#3daee9; }
.ColorScheme-ViewText { color:#31363b; }
.ColorScheme-ViewBackground { color:#fcfcfc; }
.ColorScheme-ViewHover { color:#93cee9; }
.ColorScheme-ViewFocus { color:#3daee9; }
.ColorScheme-ButtonText { color:#31363b; }
.ColorScheme-ButtonBackground { color:#eff0f1; }
.ColorScheme-ButtonHover { color:#93cee9; }
.ColorScheme-ButtonFocus { color:#3daee9; }
</style>
    <linearGradient
       inkscape:collect="always"
       id="linearGradient4393">
      <stop
         style="stop-color:#000000;stop-opacity:1;"
         offset="0"
         id="stop4395" />
      <stop
         style="stop-color:#000000;stop-opacity:0;"
         offset="1"
         id="stop4397" />
    </linearGradient>
    <linearGradient
       inkscape:collect="always"
       xlink:href="#linearGradient886-3"
       id="linearGradient888"
       x1="75.75985"
       y1="208.49026"
       x2="91.646347"
       y2="264.21182"
       gradientUnits="userSpaceOnUse"
       gradientTransform="matrix(0.35313237,0,0,0.35449413,-12.501255,-68.90853)" />
    <linearGradient
       inkscape:collect="always"
       id="linearGradient886-3">
      <stop
         style="stop-color:#3c7bc3;stop-opacity:1;"
         offset="0"
         id="stop882-6" />
      <stop
         style="stop-color:#729fcf;stop-opacity:1"
         offset="0.48468637"
         id="stop1402-7" />
      <stop
         style="stop-color:#31609b;stop-opacity:1;"
         offset="1"
         id="stop884-5" />
    </linearGradient>
    <filter
       inkscape:collect="always"
       style="color-interpolation-filters:sRGB"
       id="filter1881"
       x="-0.09064882"
       width="1.1812976"
       y="-0.40803665"
       height="1.8160733">
      <feGaussianBlur
         inkscape:collect="always"
         stdDeviation="0.85615684"
         id="feGaussianBlur1883" />
    </filter>
    <inkscape:path-effect
       effect="fillet_chamfer"
       id="path-effect1331-35"
       is_visible="true"
       lpeversion="1"
       satellites_param="F,0,0,1,0,2.1166667,0,1 @ F,0,0,1,0,2.1166667,0,1 @ F,0,0,1,0,2.1166667,0,1 @ F,0,0,1,0,2.1166667,0,1"
       unit="px"
       method="arc"
       mode="F"
       radius="8"
       chamfer_steps="1"
       flexible="false"
       use_knot_distance="true"
       apply_no_radius="true"
       apply_with_radius="true"
       only_selected="false"
       hide_knots="false"
       nodesatellites_param="F,0,0,1,0,2.1166667,0,1 @ F,0,0,1,0,2.1166667,0,1 @ F,0,0,1,0,2.1166667,0,1 @ F,0,0,1,0,2.1166667,0,1" />
    <linearGradient
       inkscape:collect="always"
       xlink:href="#linearGradient852"
       id="linearGradient854-7"
       x1="76.788559"
       y1="222.65123"
       x2="92.097359"
       y2="268.94839"
       gradientUnits="userSpaceOnUse"
       gradientTransform="matrix(0.35313237,0,0,0.35449413,-12.5199,-68.90853)" />
    <linearGradient
       inkscape:collect="always"
       id="linearGradient852">
      <stop
         style="stop-color:#83a7d8;stop-opacity:1;"
         offset="0"
         id="stop848" />
      <stop
         style="stop-color:#487fc6;stop-opacity:1;"
         offset="1"
         id="stop850" />
    </linearGradient>
    <linearGradient
       inkscape:collect="always"
       xlink:href="#linearGradient4393"
       id="linearGradient668-6"
       gradientUnits="userSpaceOnUse"
       gradientTransform="matrix(1.7478101,0,0,1.6868326,2.0000722,-1749.5267)"
       x1="5"
       y1="1037.3622"
       x2="8"
       y2="1051.3622" />
  </defs>
  <path
     id="rect10"
     style="fill:url(#linearGradient888);fill-opacity:1;stroke-width:0.0579107"
     d="M 3.4949809,5 C 2.6692711,5 2,5.6719092 2,6.500719 V 7.9792738 25.49927 C 2,26.328042 2.6692711,27 3.4949809,27 H 28.50507 c 0.825616,0 1.494851,-0.671952 1.494851,-1.50073 L 29.997523,9.595913 C 29.933996,8.7739059 30.029051,6.8758692 27.226254,6.8758692 H 14.507015 c 0.01174,0 -0.921897,-0.84414 -1.752932,-1.3473254 C 12.090145,5.0937142 11.193111,5 11.193111,5 Z"
     sodipodi:nodetypes="scccscccccccs" />
  <path
     style="opacity:0.309598;fill:#000000;fill-opacity:1;stroke:none;stroke-width:0.144851;stroke-opacity:1;filter:url(#filter1881)"
     id="rect873"
     width="22.667437"
     height="5.0357642"
     x="46.507095"
     y="222.89639"
     transform="matrix(0.50789019,0,0,0.68368445,-20.53652,-142.10563)"
     inkscape:path-effect="#path-effect1331-35"
     d="m 48.623762,222.89639 h 18.434103 a 2.1166667,2.1166667 45 0 1 2.116667,2.11667 v 0.80243 a 2.1166667,2.1166667 135 0 1 -2.116667,2.11667 l -18.434103,0 a 2.1166667,2.1166667 45 0 1 -2.116667,-2.11667 v -0.80243 a 2.1166667,2.1166667 135 0 1 2.116667,-2.11667 z"
     sodipodi:type="rect" />
  <path
     id="rect851"
     style="fill:#3c7bc3;fill-opacity:1;stroke-width:0.0936075"
     d="M 14.4784,8.4803642 V 9.967655 h -3.486265 c 1.721969,-0.0044 2.184437,-0.5100268 3.486265,-1.4872908 z m 0,0 h 13.956058 c 0.822393,-0.00382 1.562285,0.6626446 1.565458,1.4872908 H 14.4784 Z M 3.495073,9.967655 h 26.504848 v 15.06451 c 0,0.827923 -0.669233,1.499062 -1.49485,1.499062 H 3.495073 c -0.8257097,0 -1.4949815,-0.671139 -1.4949815,-1.499062 V 11.466804 c 0,-0.827975 0.6692718,-1.499149 1.4949815,-1.499149 z"
     sodipodi:nodetypes="cccccccccccccsccc" />
  <path
     id="rect851-3"
     style="fill:url(#linearGradient854-7);fill-opacity:1;stroke-width:0.093645"
     d="m 14.651861,9.0726052 -0.03791,1.5549748 -3.447811,-0.0661 c 1.722027,-0.0044 2.184401,-0.51062 3.486205,-1.4888797 z m 0,0 h 13.853232 c 0.822348,-0.00382 1.491662,0.6633056 1.494862,1.4888788 L 14.61344,10.627577 Z M 3.4950957,10.561484 H 29.999959 v 14.471334 c 0,0.828844 -0.669256,1.500724 -1.494865,1.500721 H 3.4950957 c -0.8257183,3e-6 -1.4949899,-0.671877 -1.4949899,-1.500721 v -12.97058 c 0,-0.828819 0.6692716,-1.500754 1.4949899,-1.500754 z"
     sodipodi:nodetypes="cccccccccccsccssc" />
  <rect
     style="fill:#ffffff;fill-opacity:0.25;stroke:#e5e9ef;stroke-width:0.281317;stroke-opacity:0.5;paint-order:markers fill stroke"
     id="rect2191-1"
     width="27.758577"
     height="3.5499198e-07"
     x="2.1207395"
     y="23.629114" />
  <rect
     style="fill:#ffffff;fill-opacity:0.5;stroke:#e5e9ef;stroke-width:0.281317;stroke-opacity:0.5;paint-order:markers fill stroke"
     id="rect2191-0-9-2"
     width="27.758577"
     height="3.5499198e-07"
     x="2.1207395"
     y="25.088709" />
  <path
     style="opacity:0.181;fill:url(#linearGradient668-6);fill-opacity:1;fill-rule:evenodd;stroke:none;stroke-width:1.717px;stroke-linecap:butt;stroke-linejoin:miter;stroke-opacity:1"
     d="M 3.448327,10.546412 15.982533,23.945238 H 29.965006 L 30,10.546412 H 3.4767035 Z"
     id="path4152-2-7"
     inkscape:connector-curvature="0"
     sodipodi:nodetypes="cccccc" />
</svg>
