<?xml version="1.0" encoding="UTF-8" standalone="no"?>
<svg
   viewBox="0 0 32 32"
   id="svg2"
   version="1.1"
   sodipodi:docname="start.svg"
   inkscape:version="1.2.1 (9c6d41e410, 2022-07-14)"
   width="32"
   height="32"
   xmlns:inkscape="http://www.inkscape.org/namespaces/inkscape"
   xmlns:sodipodi="http://sodipodi.sourceforge.net/DTD/sodipodi-0.dtd"
   xmlns:xlink="http://www.w3.org/1999/xlink"
   xmlns="http://www.w3.org/2000/svg"
   xmlns:svg="http://www.w3.org/2000/svg"
   xmlns:rdf="http://www.w3.org/1999/02/22-rdf-syntax-ns#"
   xmlns:cc="http://creativecommons.org/ns#"
   xmlns:dc="http://purl.org/dc/elements/1.1/">
  <sodipodi:namedview
     pagecolor="#cccccc"
     bordercolor="#000000"
     borderopacity="1"
     objecttolerance="10"
     gridtolerance="10"
     guidetolerance="10"
     inkscape:pageopacity="0"
     inkscape:pageshadow="2"
     inkscape:window-width="1920"
     inkscape:window-height="1004"
     id="namedview17"
     showgrid="false"
     inkscape:zoom="16.533782"
     inkscape:cx="11.975481"
     inkscape:cy="15.937068"
     inkscape:window-x="0"
     inkscape:window-y="0"
     inkscape:window-maximized="1"
     inkscape:current-layer="svg2"
     inkscape:lockguides="false"
     inkscape:document-rotation="0"
     inkscape:showpageshadow="true"
     inkscape:pagecheckerboard="0"
     inkscape:deskcolor="#ffffff">
    <inkscape:grid
       type="xygrid"
       id="grid7212"
       originx="0"
       originy="0" />
  </sodipodi:namedview>
  <metadata
     id="metadata21">
    <rdf:RDF>
      <cc:Work
         rdf:about="">
        <dc:format>image/svg+xml</dc:format>
        <dc:type
           rdf:resource="http://purl.org/dc/dcmitype/StillImage" />
      </cc:Work>
    </rdf:RDF>
  </metadata>
  <defs
     id="defs3051">
    <linearGradient
       inkscape:collect="always"
       id="linearGradient1006">
      <stop
         style="stop-color:#ffb380;stop-opacity:1"
         offset="0"
         id="stop1002" />
      <stop
         style="stop-color:#8d5fd3;stop-opacity:1"
         offset="1"
         id="stop1004" />
    </linearGradient>
    <style
       type="text/css"
       id="current-color-scheme">.ColorScheme-Text { color:#d1d5e9; }
</style>
    <linearGradient
       id="SVGID_1_"
       gradientUnits="userSpaceOnUse"
       x1="24.837999"
       y1="33.653999"
       x2="46.732201"
       y2="55.548199"
       gradientTransform="matrix(-0.50875877,-0.02233493,0.01976045,-0.57504283,30.440488,35.519205)">
      <stop
         offset="0.3526203"
         style="stop-color:#ffb380;stop-opacity:1"
         id="stop14" />
      <stop
         offset="0.69762725"
         style="stop-color:#9b73d9;stop-opacity:1;"
         id="stop16" />
    </linearGradient>
    <linearGradient
       id="SVGID_2_"
       gradientUnits="userSpaceOnUse"
       x1="24.858801"
       y1="30.3876"
       x2="46.752998"
       y2="8.4933004"
       gradientTransform="matrix(-0.50875877,-0.02215881,0.01976045,-0.57050766,31.232425,35.265332)">
      <stop
         offset="0.3707"
         style="stop-color:#16B8C3"
         id="stop23" />
      <stop
         offset="0.7422"
         style="stop-color:#02AEF0"
         id="stop25" />
    </linearGradient>
    <linearGradient
       id="SVGID_1_-3"
       gradientUnits="userSpaceOnUse"
       x1="24.837999"
       y1="33.653999"
       x2="46.732201"
       y2="55.548199"
       gradientTransform="matrix(-0.5489099,-5.5912523e-4,5.3755e-4,-0.5709411,32.471901,34.296725)"
       xlink:href="#linearGradient1006">
      <stop
         offset="0.3569"
         style="stop-color:#EF6B2E"
         id="stop822" />
      <stop
         offset="0.6328"
         style="stop-color:#F19F00"
         id="stop824" />
    </linearGradient>
    <linearGradient
       id="SVGID_2_-6"
       gradientUnits="userSpaceOnUse"
       x1="24.858801"
       y1="30.3876"
       x2="46.752998"
       y2="8.4933004"
       gradientTransform="matrix(-0.5489099,-5.5912523e-4,5.3755e-4,-0.5709411,32.471901,34.296725)">
      <stop
         offset="0.3707"
         style="stop-color:#16B8C3"
         id="stop831" />
      <stop
         offset="0.7422"
         style="stop-color:#02AEF0"
         id="stop833" />
    </linearGradient>
    <linearGradient
       x1="228.56065"
       y1="513.91937"
       x2="6.9549112"
       y2="297.3703"
       id="linearGradient-1"
       gradientTransform="matrix(0.15900059,0,0,0.05527692,4,4)"
       gradientUnits="userSpaceOnUse">
      <stop
         stop-color="#FFFFFF"
         offset="0%"
         id="stop23729" />
      <stop
         stop-color="#C2C1C1"
         offset="100%"
         id="stop23731" />
    </linearGradient>
    <linearGradient
       x1="248.06367"
       y1="379.78503"
       x2="13.891082"
       y2="128.40623"
       id="linearGradient-2"
       gradientTransform="matrix(0.1801145,0,0,0.04879708,4,4)"
       gradientUnits="userSpaceOnUse">
      <stop
         stop-color="#FFFFFF"
         offset="0"
         id="stop23734"
         style="stop-color:#ffffff;stop-opacity:1;" />
      <stop
         stop-color="#A2A2A1"
         offset="100%"
         id="stop23736" />
    </linearGradient>
    <linearGradient
       x1="298.10486"
       y1="617.22443"
       x2="15.596461"
       y2="250.06602"
       id="linearGradient-3"
       gradientTransform="matrix(0.183055,0,0,0.04801323,4,4)"
       gradientUnits="userSpaceOnUse">
      <stop
         stop-color="#FFFFFF"
         offset="0%"
         id="stop23739" />
      <stop
         stop-color="#B3B3B3"
         offset="100%"
         id="stop23741" />
    </linearGradient>
  </defs>
  <ellipse
     fill="#e9e9e9"
     id="circle23746"
     style="fill:#e9e9e9;fill-opacity:0.65;stroke-width:0.0958743"
     cy="30.120411"
     cx="-99.337761"
     rx="12.55"
     ry="12" />
  <path
     d="m -95.606441,37.61272 c -7.260469,-0.563758 -3.689196,-0.950336 -14.150339,-3.012081 2.88061,2.126174 7.56369,7.393289 14.150339,3.012081 z"
     id="path23748"
     style="fill:#ffffff;fill-opacity:1;stroke-width:0.0958743" />
  <path
     d="m -88.126985,29.188559 c -6.889858,-1.304699 -13.644965,-5.798658 -20.736975,-4.348994 -0.10107,0.03221 -0.21899,0.04832 -0.16845,0.09664 4.53148,0.757047 14.032411,7.248322 20.905425,4.252349 z"
     id="path23750"
     style="fill:#f1f1f1;fill-opacity:1;stroke-width:0.0958743" />
  <path
     d="m -90.013689,35.341579 c -3.621817,-0.74094 -11.556111,-6.52349 -20.467451,-4.204027 7.79953,1.707382 14.824155,5.863087 20.467451,4.204027 z"
     id="path23752"
     style="fill:#ffffff;fill-opacity:1;stroke-width:0.0958743" />
  <path
     d="m -88.817651,25.789901 c -4.026114,-2.834899 -9.079802,-7.957047 -13.695499,-3.237584 5.626437,0.660403 6.367644,1.546309 13.695499,3.237584 z"
     id="path23754"
     style="fill:#ffffff;fill-opacity:1;stroke-width:0.0958743" />
  <path
     d="m -109.841,34.568425 c 8.33859,0.01611 13.105898,-6.072484 21.714015,-5.379866 -6.873014,3.366443 -15.278985,9.728859 -21.714015,5.379866 z"
     id="path23756"
     style="stroke-width:0.0958743"
     fill="#121212" />
  <path
     d="m -88.834495,25.789901 c -8.405973,-0.644295 -12.785835,5.84698 -21.714025,5.379866 3.38597,-1.465772 13.375431,-10.083222 21.714025,-5.379866 z"
     id="path23758"
     style="stroke-width:0.0958743"
     fill="#171717" />
  <path
     d="m -95,21.553659 c -4.817855,-0.161074 -9.71993,3.930202 -14.06611,3.398658 3.13329,-1.820134 8.94503,-6.410738 14.06611,-3.398658 z"
     id="path23760"
     style="stroke-width:0.0958743"
     fill="#212121" />
  <path
     d="m -103.64181,38.740236 c 5.00315,-0.01611 9.19772,-4.220134 13.729189,-3.398657 -3.70604,2.02953 -8.220665,6.21745 -13.729189,3.398657 z"
     id="path23762"
     style="stroke-width:0.0958743"
     fill="#010101" />
  <path
     d="M 62,-18.945367 64.450683,-17 l -2.445122,1.945367 1.403574,1.639047 L 67.909489,-17 63.403566,-20.589789 Z M 63.743326,-22.938203 70,-18 h 8 v -11 h -3 v 9 h -5 l -5,-4 z M 66,-26 l 5,4 h 2 l 0.02251,-6.994655 L 71,-28.451889 V -25 l -3,-2 z m 14,17 2,2 v -20 l -2,2 z m 4,-2 2,-2.21675 v -8.082398 L 84,-23 Z m -6,-5 H 70 L 63.743326,-11.061797 65,-10 l 5,-4 h 5 v 9 h 3 z m -5,4 h -2 l -4.460664,3.840094 1.826873,1.300492 L 71,-9 v 3 l 2,1 z"
     style="fill:#b3b3b3;fill-opacity:1;stroke-width:0.0547097"
     id="path4"
     sodipodi:nodetypes="ccccccccccccccccccccccccccccccccccccccccccccccccccc" />
  <g
     id="start-here-kde">
    <rect
       style="fill:none;fill-rule:evenodd;stroke:none;stroke-width:1px;stroke-linecap:butt;stroke-linejoin:miter;stroke-opacity:1"
       id="rect3343"
       width="32"
       height="32"
       x="0"
       y="0" />
    <path
       d="m 10.342468,4.0000164 c -1.2603557,1.661827 -2.0879247,3.496418 -2.5938157,5.462639 -0.154982,0.6033026 -0.228094,1.2093476 -0.154982,1.8345896 0.07312,0.627984 0.38892,1.132565 0.810012,1.601497 0.698903,0.77881 1.503074,1.464382 2.2662967,2.180119 1.965102,1.848303 3.871716,3.745967 5.769561,5.6546 1.029337,1.0311 2.131788,1.999129 3.213752,2.986353 0.169619,0.153568 0.154996,0.222125 0,0.375694 -1.289594,1.25871 -2.573342,2.52839 -3.851239,3.800812 -0.134523,0.13163 -0.207619,0.139856 -0.345062,0.01371 -1.286677,-1.173699 -2.576276,-2.341914 -3.871717,-3.504645 -0.105254,-0.09324 -0.09652,-0.139857 0,-0.222125 0.757379,-0.65815 1.511837,-1.316299 2.263375,-1.979933 0.09652,-0.08775 0.163758,-0.08501 0.257333,0 0.336297,0.293425 0.672581,0.58685 1.020566,0.869306 0.119899,0.09598 0.09355,0.150826 0,0.244064 l -0.733984,0.759614 c -0.09936,0.09872 -0.105254,0.15631 0.01168,0.249548 0.347984,0.282456 0.687195,0.573138 1.02056,0.866563 0.09936,0.08775 0.163756,0.106949 0.26904,-0.0055 0.406462,-0.433281 0.818791,-0.858336 1.239886,-1.277906 0.114042,-0.112434 0.09353,-0.172764 -0.008,-0.279714 -0.567315,-0.584107 -1.149235,-1.151761 -1.737011,-1.713931 -1.160928,-1.105142 -2.31894,-2.218512 -3.547125,-3.257839 -1.312985,-1.113369 -2.6815447,-2.160923 -4.0471657,-3.213962 -0.605326,-0.463447 -1.198947,-0.932378 -1.757481,-1.447929 -0.216396,-0.200187 -0.409396,-0.41957 -0.581932,-0.655407 -0.216385,-0.293425 -0.304115,-0.606046 -0.228085,-0.968028 0.608239,-2.8163286 2.058676,-5.2158316 4.126129,-7.3054556 0.198842,-0.202929 0.409395,-0.397632 0.622858,-0.589592 0.193,-0.167279 0.3801547,-0.320848 0.5673107,-0.477158 z m 11.343186,0.06033 c 0.257345,0.134372 0.400628,0.296168 0.561459,0.441509 1.94756,1.779745 3.412616,3.850173 4.275267,6.2798396 0.195921,0.545715 0.345063,1.1024 0.459109,1.670054 0.04681,0.238579 0.0032,0.449735 -0.111125,0.658149 -0.330443,0.608788 -0.862651,1.058523 -1.403646,1.489063 -1.333457,1.06675 -2.693231,2.100593 -4.017922,3.170086 -1.090747,0.880274 -2.137628,1.807168 -3.146502,2.769711 -0.04384,0.04113 -0.09364,0.07678 -0.128666,0.123403 -0.154992,0.197445 -0.274886,0.180991 -0.441566,-0.01371 -0.274874,-0.315364 -0.581921,-0.603304 -0.883125,-0.893986 -0.09936,-0.09598 -0.102389,-0.153569 -0.003,-0.257776 1.599568,-1.612465 3.190359,-3.233158 4.874731,-4.771582 0.663809,-0.606046 1.312997,-1.225803 1.92709,-1.878468 0.733993,-0.77881 0.912363,-1.694734 0.739837,-2.665504 -0.380156,-2.1856026 -1.269123,-4.1874736 -2.631833,-6.0001266 -0.01466,-0.01645 -0.02341,-0.03839 -0.07018,-0.120661 z M 19.132787,15.687649 c -0.01168,-0.836398 -0.09061,-1.615208 -0.91822,-2.106077 2.497312,-1.143535 3.734269,-3.181055 4.561841,-5.5695876 0.59362,1.697477 0.751537,3.2852606 -0.587771,4.7249626 -0.941621,1.009162 -1.959254,1.949767 -2.95936,2.906826 -0.01749,0.01371 -0.04384,0.01645 -0.09652,0.04388 z m -5.339698,-2.10882 c -0.830488,0.507324 -0.906521,1.288876 -0.935758,2.141728 C 12.70819,15.575216 12.599987,15.465524 12.48594,15.361317 11.667149,14.579765 10.851291,13.792728 10.047122,12.99198 8.8101583,11.766177 8.5352723,10.359382 8.9914583,8.7770834 c 0.06733,-0.224868 0.134512,-0.452478 0.204699,-0.677345 0.003,-0.01097 0.02634,-0.0192 0.05269,-0.04113 0.8187897,2.3309446 2.0352787,4.3739496 4.5442987,5.5202256 z m 5.173017,-1.469866 c 0.195919,-0.584108 0.09061,-1.107885 -0.280735,-1.598755 -0.07606,-0.104207 -0.269028,-0.183733 -0.222247,-0.298909 0.03803,-0.09324 0.225173,-0.13163 0.345062,-0.197445 1.505991,-0.8172006 2.544105,-1.9771886 3.006146,-3.5649736 0.041,-0.139857 0.06143,-0.279714 0.09353,-0.438766 0.157909,0.276971 0.213474,0.880274 0.149142,1.302587 -0.169614,1.124338 -0.716459,2.086881 -1.403645,2.9973196 -0.485432,0.652665 -1.041043,1.253226 -1.6873,1.798942 z m -5.898234,0.01097 C 12.635081,11.7936 12.278319,11.412422 11.930336,11.017533 11.22267,10.219527 10.620265,9.3611914 10.231343,8.3849374 9.9506153,7.6691994 9.8599663,6.9342664 10.00617,6.1828794 c 0.008,-0.04113 0.0176,-0.07953 0.03225,-0.117919 0.008,-0.02194 0.02043,-0.04388 0.04677,-0.09598 0.07893,0.340044 0.146205,0.65815 0.2661,0.959801 0.561456,1.42599 1.605417,2.446122 3.000287,3.1728266 0.172536,0.08775 0.231016,0.148084 0.07312,0.304394 -0.462029,0.471674 -0.561458,1.025616 -0.388928,1.62892 z"
       id="path2986"
       style="fill:#ffffff;fill-opacity:1;stroke-width:0.0283183" />
  </g>
</svg>
